G04 #@! TF.GenerationSoftware,KiCad,Pcbnew,(5.1.12-1-10_14)*
G04 #@! TF.CreationDate,2021-12-30T21:01:29-05:00*
G04 #@! TF.ProjectId,blinky,626c696e-6b79-42e6-9b69-6361645f7063,rev?*
G04 #@! TF.SameCoordinates,Original*
G04 #@! TF.FileFunction,AssemblyDrawing,Top*
%FSLAX46Y46*%
G04 Gerber Fmt 4.6, Leading zero omitted, Abs format (unit mm)*
G04 Created by KiCad (PCBNEW (5.1.12-1-10_14)) date 2021-12-30 21:01:29*
%MOMM*%
%LPD*%
G01*
G04 APERTURE LIST*
%ADD10C,0.100000*%
%ADD11C,0.150000*%
%ADD12C,0.127000*%
%ADD13C,0.200000*%
%ADD14C,0.060000*%
%ADD15C,0.254000*%
%ADD16C,0.080000*%
%ADD17C,0.120000*%
G04 APERTURE END LIST*
D10*
G04 #@! TO.C,FID3*
X45725385Y-145299920D02*
G75*
G03*
X45725385Y-145299920I-1500000J0D01*
G01*
G04 #@! TO.C,FID2*
X45725385Y-92299920D02*
G75*
G03*
X45725385Y-92299920I-1500000J0D01*
G01*
G04 #@! TO.C,FID1*
X132725385Y-109299920D02*
G75*
G03*
X132725385Y-109299920I-1500000J0D01*
G01*
D11*
G04 #@! TO.C,U4*
X101222000Y-114404000D02*
X105522000Y-114404000D01*
X105522000Y-114404000D02*
X105522000Y-124604000D01*
X105522000Y-124604000D02*
X100222000Y-124604000D01*
X100222000Y-124604000D02*
X100222000Y-115404000D01*
X100222000Y-115404000D02*
X101222000Y-114404000D01*
G04 #@! TO.C,U2*
X62947000Y-127933000D02*
X62947000Y-130833000D01*
X62947000Y-130833000D02*
X61347000Y-130833000D01*
X61347000Y-130833000D02*
X61347000Y-127933000D01*
X61347000Y-127933000D02*
X62947000Y-127933000D01*
G04 #@! TO.C,U1*
X57622000Y-116224000D02*
X65222000Y-116224000D01*
X65222000Y-116224000D02*
X65222000Y-123824000D01*
X65222000Y-123824000D02*
X57622000Y-123824000D01*
X57622000Y-123824000D02*
X57622000Y-116224000D01*
D10*
G04 #@! TO.C,SW1*
X65475700Y-110307700D02*
X65475700Y-101900300D01*
X65475700Y-101900300D02*
X57068300Y-101900300D01*
X57068300Y-101900300D02*
X57068300Y-110307700D01*
X57068300Y-110307700D02*
X65475700Y-110307700D01*
X59748000Y-110155300D02*
G75*
G03*
X59748000Y-110155300I-381000J0D01*
G01*
D12*
G04 #@! TO.C,SW2*
X62677000Y-133519000D02*
X62677000Y-142519000D01*
X62677000Y-142519000D02*
X59077000Y-142519000D01*
X59077000Y-142519000D02*
X59077000Y-133519000D01*
X59077000Y-133519000D02*
X62677000Y-133519000D01*
D13*
X58477000Y-134519000D02*
G75*
G03*
X58477000Y-134519000I-100000J0D01*
G01*
D10*
G04 #@! TO.C,R10*
X103684500Y-136104000D02*
X102859500Y-136104000D01*
X102859500Y-136104000D02*
X102859500Y-134504000D01*
X102859500Y-134504000D02*
X103684500Y-134504000D01*
X103684500Y-134504000D02*
X103684500Y-136104000D01*
G04 #@! TO.C,R9*
X101059500Y-134504000D02*
X101884500Y-134504000D01*
X101884500Y-134504000D02*
X101884500Y-136104000D01*
X101884500Y-136104000D02*
X101059500Y-136104000D01*
X101059500Y-136104000D02*
X101059500Y-134504000D01*
G04 #@! TO.C,R8*
X99259500Y-134504000D02*
X100084500Y-134504000D01*
X100084500Y-134504000D02*
X100084500Y-136104000D01*
X100084500Y-136104000D02*
X99259500Y-136104000D01*
X99259500Y-136104000D02*
X99259500Y-134504000D01*
G04 #@! TO.C,R7*
X100084500Y-129104000D02*
X99259500Y-129104000D01*
X99259500Y-129104000D02*
X99259500Y-127504000D01*
X99259500Y-127504000D02*
X100084500Y-127504000D01*
X100084500Y-127504000D02*
X100084500Y-129104000D01*
G04 #@! TO.C,R6*
X95472000Y-117116500D02*
X95472000Y-116291500D01*
X95472000Y-116291500D02*
X97072000Y-116291500D01*
X97072000Y-116291500D02*
X97072000Y-117116500D01*
X97072000Y-117116500D02*
X95472000Y-117116500D01*
G04 #@! TO.C,R5*
X97072000Y-118091500D02*
X97072000Y-118916500D01*
X97072000Y-118916500D02*
X95472000Y-118916500D01*
X95472000Y-118916500D02*
X95472000Y-118091500D01*
X95472000Y-118091500D02*
X97072000Y-118091500D01*
G04 #@! TO.C,R4*
X103684500Y-100504000D02*
X102859500Y-100504000D01*
X102859500Y-100504000D02*
X102859500Y-98904000D01*
X102859500Y-98904000D02*
X103684500Y-98904000D01*
X103684500Y-98904000D02*
X103684500Y-100504000D01*
G04 #@! TO.C,R3*
X98459500Y-98904000D02*
X99284500Y-98904000D01*
X99284500Y-98904000D02*
X99284500Y-100504000D01*
X99284500Y-100504000D02*
X98459500Y-100504000D01*
X98459500Y-100504000D02*
X98459500Y-98904000D01*
G04 #@! TO.C,R2*
X66313000Y-141700500D02*
X66313000Y-142525500D01*
X66313000Y-142525500D02*
X64713000Y-142525500D01*
X64713000Y-142525500D02*
X64713000Y-141700500D01*
X64713000Y-141700500D02*
X66313000Y-141700500D01*
G04 #@! TO.C,R1*
X66313000Y-139700500D02*
X66313000Y-140525500D01*
X66313000Y-140525500D02*
X64713000Y-140525500D01*
X64713000Y-140525500D02*
X64713000Y-139700500D01*
X64713000Y-139700500D02*
X66313000Y-139700500D01*
D11*
G04 #@! TO.C,Q1*
X99972000Y-140204000D02*
X101372000Y-140204000D01*
X101372000Y-140204000D02*
X101372000Y-143204000D01*
X101372000Y-143204000D02*
X99972000Y-143204000D01*
X99972000Y-143204000D02*
X99972000Y-140204000D01*
D10*
G04 #@! TO.C,J4*
X93516000Y-152751000D02*
X93516000Y-154656000D01*
X93516000Y-154656000D02*
X70656000Y-154656000D01*
X70656000Y-154656000D02*
X70656000Y-152116000D01*
X70656000Y-152116000D02*
X92881000Y-152116000D01*
X92881000Y-152116000D02*
X93516000Y-152751000D01*
G04 #@! TO.C,J3*
X93516000Y-102021000D02*
X93516000Y-103926000D01*
X93516000Y-103926000D02*
X70656000Y-103926000D01*
X70656000Y-103926000D02*
X70656000Y-101386000D01*
X70656000Y-101386000D02*
X92881000Y-101386000D01*
X92881000Y-101386000D02*
X93516000Y-102021000D01*
G04 #@! TO.C,J1*
X62441396Y-153301327D02*
X68526999Y-157887157D01*
X69777767Y-155172191D02*
X64706431Y-151350665D01*
X68019865Y-157505005D02*
X69777767Y-155172191D01*
X64706431Y-151350665D02*
X62948530Y-153683479D01*
D13*
G04 #@! TO.C,U3*
X100872000Y-110254000D02*
X100872000Y-102754000D01*
X100872000Y-102754000D02*
X104872000Y-102754000D01*
X104872000Y-102754000D02*
X104872000Y-110254000D01*
X104872000Y-110254000D02*
X100872000Y-110254000D01*
D10*
G04 #@! TO.C,D145*
X107072000Y-140904000D02*
X105372000Y-140904000D01*
X105372000Y-140904000D02*
X105072000Y-141204000D01*
X105072000Y-141204000D02*
X105072000Y-142104000D01*
X105072000Y-142104000D02*
X107072000Y-142104000D01*
X107072000Y-142104000D02*
X107072000Y-140904000D01*
G04 #@! TO.C,C11*
X104672000Y-127504000D02*
X105472000Y-127504000D01*
X105472000Y-127504000D02*
X105472000Y-129104000D01*
X105472000Y-129104000D02*
X104672000Y-129104000D01*
X104672000Y-129104000D02*
X104672000Y-127504000D01*
G04 #@! TO.C,C10*
X102872000Y-127504000D02*
X103672000Y-127504000D01*
X103672000Y-127504000D02*
X103672000Y-129104000D01*
X103672000Y-129104000D02*
X102872000Y-129104000D01*
X102872000Y-129104000D02*
X102872000Y-127504000D01*
G04 #@! TO.C,C9*
X101072000Y-127504000D02*
X101872000Y-127504000D01*
X101872000Y-127504000D02*
X101872000Y-129104000D01*
X101872000Y-129104000D02*
X101072000Y-129104000D01*
X101072000Y-129104000D02*
X101072000Y-127504000D01*
G04 #@! TO.C,C8*
X105472000Y-136104000D02*
X104672000Y-136104000D01*
X104672000Y-136104000D02*
X104672000Y-134504000D01*
X104672000Y-134504000D02*
X105472000Y-134504000D01*
X105472000Y-134504000D02*
X105472000Y-136104000D01*
G04 #@! TO.C,C7*
X101472000Y-100504000D02*
X100672000Y-100504000D01*
X100672000Y-100504000D02*
X100672000Y-98904000D01*
X100672000Y-98904000D02*
X101472000Y-98904000D01*
X101472000Y-98904000D02*
X101472000Y-100504000D01*
G04 #@! TO.C,C6*
X58991000Y-129675000D02*
X58191000Y-129675000D01*
X58191000Y-129675000D02*
X58191000Y-128075000D01*
X58191000Y-128075000D02*
X58991000Y-128075000D01*
X58991000Y-128075000D02*
X58991000Y-129675000D01*
G04 #@! TO.C,C5*
X66103000Y-129675000D02*
X65303000Y-129675000D01*
X65303000Y-129675000D02*
X65303000Y-128075000D01*
X65303000Y-128075000D02*
X66103000Y-128075000D01*
X66103000Y-128075000D02*
X66103000Y-129675000D01*
G04 #@! TO.C,C4*
X64713000Y-138513000D02*
X64713000Y-137713000D01*
X64713000Y-137713000D02*
X66313000Y-137713000D01*
X66313000Y-137713000D02*
X66313000Y-138513000D01*
X66313000Y-138513000D02*
X64713000Y-138513000D01*
G04 #@! TO.C,C3*
X68643000Y-118499000D02*
X67843000Y-118499000D01*
X67843000Y-118499000D02*
X67843000Y-116899000D01*
X67843000Y-116899000D02*
X68643000Y-116899000D01*
X68643000Y-116899000D02*
X68643000Y-118499000D01*
G04 #@! TO.C,C2*
X67843000Y-120074000D02*
X68643000Y-120074000D01*
X68643000Y-120074000D02*
X68643000Y-121674000D01*
X68643000Y-121674000D02*
X67843000Y-121674000D01*
X67843000Y-121674000D02*
X67843000Y-120074000D01*
G04 #@! TO.C,C1*
X68916000Y-130475000D02*
X67316000Y-130475000D01*
X67316000Y-130475000D02*
X67316000Y-127275000D01*
X67316000Y-127275000D02*
X68916000Y-127275000D01*
X68916000Y-127275000D02*
X68916000Y-130475000D01*
G04 #@! TD*
G04 #@! TO.C,H9*
D11*
X79559523Y-78702380D02*
X79083333Y-78702380D01*
X79083333Y-77702380D01*
X80321428Y-78702380D02*
X80321428Y-78178571D01*
X80273809Y-78083333D01*
X80178571Y-78035714D01*
X79988095Y-78035714D01*
X79892857Y-78083333D01*
X80321428Y-78654761D02*
X80226190Y-78702380D01*
X79988095Y-78702380D01*
X79892857Y-78654761D01*
X79845238Y-78559523D01*
X79845238Y-78464285D01*
X79892857Y-78369047D01*
X79988095Y-78321428D01*
X80226190Y-78321428D01*
X80321428Y-78273809D01*
X80797619Y-78035714D02*
X80797619Y-78702380D01*
X80797619Y-78130952D02*
X80845238Y-78083333D01*
X80940476Y-78035714D01*
X81083333Y-78035714D01*
X81178571Y-78083333D01*
X81226190Y-78178571D01*
X81226190Y-78702380D01*
X81607142Y-78035714D02*
X81845238Y-78702380D01*
X82083333Y-78035714D02*
X81845238Y-78702380D01*
X81750000Y-78940476D01*
X81702380Y-78988095D01*
X81607142Y-79035714D01*
X82892857Y-78702380D02*
X82892857Y-78178571D01*
X82845238Y-78083333D01*
X82750000Y-78035714D01*
X82559523Y-78035714D01*
X82464285Y-78083333D01*
X82892857Y-78654761D02*
X82797619Y-78702380D01*
X82559523Y-78702380D01*
X82464285Y-78654761D01*
X82416666Y-78559523D01*
X82416666Y-78464285D01*
X82464285Y-78369047D01*
X82559523Y-78321428D01*
X82797619Y-78321428D01*
X82892857Y-78273809D01*
X83369047Y-78702380D02*
X83369047Y-78035714D01*
X83369047Y-78226190D02*
X83416666Y-78130952D01*
X83464285Y-78083333D01*
X83559523Y-78035714D01*
X83654761Y-78035714D01*
X84416666Y-78702380D02*
X84416666Y-77702380D01*
X84416666Y-78654761D02*
X84321428Y-78702380D01*
X84130952Y-78702380D01*
X84035714Y-78654761D01*
X83988095Y-78607142D01*
X83940476Y-78511904D01*
X83940476Y-78226190D01*
X83988095Y-78130952D01*
X84035714Y-78083333D01*
X84130952Y-78035714D01*
X84321428Y-78035714D01*
X84416666Y-78083333D01*
X81288095Y-75202380D02*
X81288095Y-74202380D01*
X81288095Y-74678571D02*
X81859523Y-74678571D01*
X81859523Y-75202380D02*
X81859523Y-74202380D01*
X82383333Y-75202380D02*
X82573809Y-75202380D01*
X82669047Y-75154761D01*
X82716666Y-75107142D01*
X82811904Y-74964285D01*
X82859523Y-74773809D01*
X82859523Y-74392857D01*
X82811904Y-74297619D01*
X82764285Y-74250000D01*
X82669047Y-74202380D01*
X82478571Y-74202380D01*
X82383333Y-74250000D01*
X82335714Y-74297619D01*
X82288095Y-74392857D01*
X82288095Y-74630952D01*
X82335714Y-74726190D01*
X82383333Y-74773809D01*
X82478571Y-74821428D01*
X82669047Y-74821428D01*
X82764285Y-74773809D01*
X82811904Y-74726190D01*
X82859523Y-74630952D01*
G04 #@! TO.C,H8*
X39439670Y-161252300D02*
X39439670Y-160252300D01*
X39773004Y-160966586D01*
X40106337Y-160252300D01*
X40106337Y-161252300D01*
X40725385Y-161252300D02*
X40630146Y-161204681D01*
X40582527Y-161157062D01*
X40534908Y-161061824D01*
X40534908Y-160776110D01*
X40582527Y-160680872D01*
X40630146Y-160633253D01*
X40725385Y-160585634D01*
X40868242Y-160585634D01*
X40963480Y-160633253D01*
X41011099Y-160680872D01*
X41058718Y-160776110D01*
X41058718Y-161061824D01*
X41011099Y-161157062D01*
X40963480Y-161204681D01*
X40868242Y-161252300D01*
X40725385Y-161252300D01*
X41915861Y-160585634D02*
X41915861Y-161252300D01*
X41487289Y-160585634D02*
X41487289Y-161109443D01*
X41534908Y-161204681D01*
X41630146Y-161252300D01*
X41773004Y-161252300D01*
X41868242Y-161204681D01*
X41915861Y-161157062D01*
X42392051Y-160585634D02*
X42392051Y-161252300D01*
X42392051Y-160680872D02*
X42439670Y-160633253D01*
X42534908Y-160585634D01*
X42677765Y-160585634D01*
X42773004Y-160633253D01*
X42820623Y-160728491D01*
X42820623Y-161252300D01*
X43153956Y-160585634D02*
X43534908Y-160585634D01*
X43296813Y-160252300D02*
X43296813Y-161109443D01*
X43344432Y-161204681D01*
X43439670Y-161252300D01*
X43534908Y-161252300D01*
X43868242Y-161252300D02*
X43868242Y-160585634D01*
X43868242Y-160252300D02*
X43820623Y-160299920D01*
X43868242Y-160347539D01*
X43915861Y-160299920D01*
X43868242Y-160252300D01*
X43868242Y-160347539D01*
X44344432Y-160585634D02*
X44344432Y-161252300D01*
X44344432Y-160680872D02*
X44392051Y-160633253D01*
X44487289Y-160585634D01*
X44630146Y-160585634D01*
X44725385Y-160633253D01*
X44773004Y-160728491D01*
X44773004Y-161252300D01*
X45677765Y-160585634D02*
X45677765Y-161395158D01*
X45630146Y-161490396D01*
X45582527Y-161538015D01*
X45487289Y-161585634D01*
X45344432Y-161585634D01*
X45249194Y-161538015D01*
X45677765Y-161204681D02*
X45582527Y-161252300D01*
X45392051Y-161252300D01*
X45296813Y-161204681D01*
X45249194Y-161157062D01*
X45201575Y-161061824D01*
X45201575Y-160776110D01*
X45249194Y-160680872D01*
X45296813Y-160633253D01*
X45392051Y-160585634D01*
X45582527Y-160585634D01*
X45677765Y-160633253D01*
X46153956Y-161252300D02*
X46153956Y-160252300D01*
X46153956Y-160728491D02*
X46725385Y-160728491D01*
X46725385Y-161252300D02*
X46725385Y-160252300D01*
X47344432Y-161252300D02*
X47249194Y-161204681D01*
X47201575Y-161157062D01*
X47153956Y-161061824D01*
X47153956Y-160776110D01*
X47201575Y-160680872D01*
X47249194Y-160633253D01*
X47344432Y-160585634D01*
X47487289Y-160585634D01*
X47582527Y-160633253D01*
X47630146Y-160680872D01*
X47677765Y-160776110D01*
X47677765Y-161061824D01*
X47630146Y-161157062D01*
X47582527Y-161204681D01*
X47487289Y-161252300D01*
X47344432Y-161252300D01*
X48249194Y-161252300D02*
X48153956Y-161204681D01*
X48106337Y-161109443D01*
X48106337Y-160252300D01*
X49011099Y-161204681D02*
X48915861Y-161252300D01*
X48725385Y-161252300D01*
X48630146Y-161204681D01*
X48582527Y-161109443D01*
X48582527Y-160728491D01*
X48630146Y-160633253D01*
X48725385Y-160585634D01*
X48915861Y-160585634D01*
X49011099Y-160633253D01*
X49058718Y-160728491D01*
X49058718Y-160823729D01*
X48582527Y-160918967D01*
X43763480Y-157752300D02*
X43763480Y-156752300D01*
X43763480Y-157228491D02*
X44334908Y-157228491D01*
X44334908Y-157752300D02*
X44334908Y-156752300D01*
X44953956Y-157180872D02*
X44858718Y-157133253D01*
X44811099Y-157085634D01*
X44763480Y-156990396D01*
X44763480Y-156942777D01*
X44811099Y-156847539D01*
X44858718Y-156799920D01*
X44953956Y-156752300D01*
X45144432Y-156752300D01*
X45239670Y-156799920D01*
X45287289Y-156847539D01*
X45334908Y-156942777D01*
X45334908Y-156990396D01*
X45287289Y-157085634D01*
X45239670Y-157133253D01*
X45144432Y-157180872D01*
X44953956Y-157180872D01*
X44858718Y-157228491D01*
X44811099Y-157276110D01*
X44763480Y-157371348D01*
X44763480Y-157561824D01*
X44811099Y-157657062D01*
X44858718Y-157704681D01*
X44953956Y-157752300D01*
X45144432Y-157752300D01*
X45239670Y-157704681D01*
X45287289Y-157657062D01*
X45334908Y-157561824D01*
X45334908Y-157371348D01*
X45287289Y-157276110D01*
X45239670Y-157228491D01*
X45144432Y-157180872D01*
G04 #@! TO.C,H7*
X39439670Y-78252300D02*
X39439670Y-77252300D01*
X39773004Y-77966586D01*
X40106337Y-77252300D01*
X40106337Y-78252300D01*
X40725385Y-78252300D02*
X40630146Y-78204681D01*
X40582527Y-78157062D01*
X40534908Y-78061824D01*
X40534908Y-77776110D01*
X40582527Y-77680872D01*
X40630146Y-77633253D01*
X40725385Y-77585634D01*
X40868242Y-77585634D01*
X40963480Y-77633253D01*
X41011099Y-77680872D01*
X41058718Y-77776110D01*
X41058718Y-78061824D01*
X41011099Y-78157062D01*
X40963480Y-78204681D01*
X40868242Y-78252300D01*
X40725385Y-78252300D01*
X41915861Y-77585634D02*
X41915861Y-78252300D01*
X41487289Y-77585634D02*
X41487289Y-78109443D01*
X41534908Y-78204681D01*
X41630146Y-78252300D01*
X41773004Y-78252300D01*
X41868242Y-78204681D01*
X41915861Y-78157062D01*
X42392051Y-77585634D02*
X42392051Y-78252300D01*
X42392051Y-77680872D02*
X42439670Y-77633253D01*
X42534908Y-77585634D01*
X42677765Y-77585634D01*
X42773004Y-77633253D01*
X42820623Y-77728491D01*
X42820623Y-78252300D01*
X43153956Y-77585634D02*
X43534908Y-77585634D01*
X43296813Y-77252300D02*
X43296813Y-78109443D01*
X43344432Y-78204681D01*
X43439670Y-78252300D01*
X43534908Y-78252300D01*
X43868242Y-78252300D02*
X43868242Y-77585634D01*
X43868242Y-77252300D02*
X43820623Y-77299920D01*
X43868242Y-77347539D01*
X43915861Y-77299920D01*
X43868242Y-77252300D01*
X43868242Y-77347539D01*
X44344432Y-77585634D02*
X44344432Y-78252300D01*
X44344432Y-77680872D02*
X44392051Y-77633253D01*
X44487289Y-77585634D01*
X44630146Y-77585634D01*
X44725385Y-77633253D01*
X44773004Y-77728491D01*
X44773004Y-78252300D01*
X45677765Y-77585634D02*
X45677765Y-78395158D01*
X45630146Y-78490396D01*
X45582527Y-78538015D01*
X45487289Y-78585634D01*
X45344432Y-78585634D01*
X45249194Y-78538015D01*
X45677765Y-78204681D02*
X45582527Y-78252300D01*
X45392051Y-78252300D01*
X45296813Y-78204681D01*
X45249194Y-78157062D01*
X45201575Y-78061824D01*
X45201575Y-77776110D01*
X45249194Y-77680872D01*
X45296813Y-77633253D01*
X45392051Y-77585634D01*
X45582527Y-77585634D01*
X45677765Y-77633253D01*
X46153956Y-78252300D02*
X46153956Y-77252300D01*
X46153956Y-77728491D02*
X46725385Y-77728491D01*
X46725385Y-78252300D02*
X46725385Y-77252300D01*
X47344432Y-78252300D02*
X47249194Y-78204681D01*
X47201575Y-78157062D01*
X47153956Y-78061824D01*
X47153956Y-77776110D01*
X47201575Y-77680872D01*
X47249194Y-77633253D01*
X47344432Y-77585634D01*
X47487289Y-77585634D01*
X47582527Y-77633253D01*
X47630146Y-77680872D01*
X47677765Y-77776110D01*
X47677765Y-78061824D01*
X47630146Y-78157062D01*
X47582527Y-78204681D01*
X47487289Y-78252300D01*
X47344432Y-78252300D01*
X48249194Y-78252300D02*
X48153956Y-78204681D01*
X48106337Y-78109443D01*
X48106337Y-77252300D01*
X49011099Y-78204681D02*
X48915861Y-78252300D01*
X48725385Y-78252300D01*
X48630146Y-78204681D01*
X48582527Y-78109443D01*
X48582527Y-77728491D01*
X48630146Y-77633253D01*
X48725385Y-77585634D01*
X48915861Y-77585634D01*
X49011099Y-77633253D01*
X49058718Y-77728491D01*
X49058718Y-77823729D01*
X48582527Y-77918967D01*
X43763480Y-74752300D02*
X43763480Y-73752300D01*
X43763480Y-74228491D02*
X44334908Y-74228491D01*
X44334908Y-74752300D02*
X44334908Y-73752300D01*
X44715861Y-73752300D02*
X45382527Y-73752300D01*
X44953956Y-74752300D01*
G04 #@! TO.C,H6*
X126439670Y-161252300D02*
X126439670Y-160252300D01*
X126773004Y-160966586D01*
X127106337Y-160252300D01*
X127106337Y-161252300D01*
X127725385Y-161252300D02*
X127630146Y-161204681D01*
X127582527Y-161157062D01*
X127534908Y-161061824D01*
X127534908Y-160776110D01*
X127582527Y-160680872D01*
X127630146Y-160633253D01*
X127725385Y-160585634D01*
X127868242Y-160585634D01*
X127963480Y-160633253D01*
X128011099Y-160680872D01*
X128058718Y-160776110D01*
X128058718Y-161061824D01*
X128011099Y-161157062D01*
X127963480Y-161204681D01*
X127868242Y-161252300D01*
X127725385Y-161252300D01*
X128915861Y-160585634D02*
X128915861Y-161252300D01*
X128487289Y-160585634D02*
X128487289Y-161109443D01*
X128534908Y-161204681D01*
X128630146Y-161252300D01*
X128773004Y-161252300D01*
X128868242Y-161204681D01*
X128915861Y-161157062D01*
X129392051Y-160585634D02*
X129392051Y-161252300D01*
X129392051Y-160680872D02*
X129439670Y-160633253D01*
X129534908Y-160585634D01*
X129677765Y-160585634D01*
X129773004Y-160633253D01*
X129820623Y-160728491D01*
X129820623Y-161252300D01*
X130153956Y-160585634D02*
X130534908Y-160585634D01*
X130296813Y-160252300D02*
X130296813Y-161109443D01*
X130344432Y-161204681D01*
X130439670Y-161252300D01*
X130534908Y-161252300D01*
X130868242Y-161252300D02*
X130868242Y-160585634D01*
X130868242Y-160252300D02*
X130820623Y-160299920D01*
X130868242Y-160347539D01*
X130915861Y-160299920D01*
X130868242Y-160252300D01*
X130868242Y-160347539D01*
X131344432Y-160585634D02*
X131344432Y-161252300D01*
X131344432Y-160680872D02*
X131392051Y-160633253D01*
X131487289Y-160585634D01*
X131630146Y-160585634D01*
X131725385Y-160633253D01*
X131773004Y-160728491D01*
X131773004Y-161252300D01*
X132677765Y-160585634D02*
X132677765Y-161395158D01*
X132630146Y-161490396D01*
X132582527Y-161538015D01*
X132487289Y-161585634D01*
X132344432Y-161585634D01*
X132249194Y-161538015D01*
X132677765Y-161204681D02*
X132582527Y-161252300D01*
X132392051Y-161252300D01*
X132296813Y-161204681D01*
X132249194Y-161157062D01*
X132201575Y-161061824D01*
X132201575Y-160776110D01*
X132249194Y-160680872D01*
X132296813Y-160633253D01*
X132392051Y-160585634D01*
X132582527Y-160585634D01*
X132677765Y-160633253D01*
X133153956Y-161252300D02*
X133153956Y-160252300D01*
X133153956Y-160728491D02*
X133725385Y-160728491D01*
X133725385Y-161252300D02*
X133725385Y-160252300D01*
X134344432Y-161252300D02*
X134249194Y-161204681D01*
X134201575Y-161157062D01*
X134153956Y-161061824D01*
X134153956Y-160776110D01*
X134201575Y-160680872D01*
X134249194Y-160633253D01*
X134344432Y-160585634D01*
X134487289Y-160585634D01*
X134582527Y-160633253D01*
X134630146Y-160680872D01*
X134677765Y-160776110D01*
X134677765Y-161061824D01*
X134630146Y-161157062D01*
X134582527Y-161204681D01*
X134487289Y-161252300D01*
X134344432Y-161252300D01*
X135249194Y-161252300D02*
X135153956Y-161204681D01*
X135106337Y-161109443D01*
X135106337Y-160252300D01*
X136011099Y-161204681D02*
X135915861Y-161252300D01*
X135725385Y-161252300D01*
X135630146Y-161204681D01*
X135582527Y-161109443D01*
X135582527Y-160728491D01*
X135630146Y-160633253D01*
X135725385Y-160585634D01*
X135915861Y-160585634D01*
X136011099Y-160633253D01*
X136058718Y-160728491D01*
X136058718Y-160823729D01*
X135582527Y-160918967D01*
X130763480Y-157752300D02*
X130763480Y-156752300D01*
X130763480Y-157228491D02*
X131334908Y-157228491D01*
X131334908Y-157752300D02*
X131334908Y-156752300D01*
X132239670Y-156752300D02*
X132049194Y-156752300D01*
X131953956Y-156799920D01*
X131906337Y-156847539D01*
X131811099Y-156990396D01*
X131763480Y-157180872D01*
X131763480Y-157561824D01*
X131811099Y-157657062D01*
X131858718Y-157704681D01*
X131953956Y-157752300D01*
X132144432Y-157752300D01*
X132239670Y-157704681D01*
X132287289Y-157657062D01*
X132334908Y-157561824D01*
X132334908Y-157323729D01*
X132287289Y-157228491D01*
X132239670Y-157180872D01*
X132144432Y-157133253D01*
X131953956Y-157133253D01*
X131858718Y-157180872D01*
X131811099Y-157228491D01*
X131763480Y-157323729D01*
G04 #@! TO.C,H5*
X126439670Y-78252300D02*
X126439670Y-77252300D01*
X126773004Y-77966586D01*
X127106337Y-77252300D01*
X127106337Y-78252300D01*
X127725385Y-78252300D02*
X127630146Y-78204681D01*
X127582527Y-78157062D01*
X127534908Y-78061824D01*
X127534908Y-77776110D01*
X127582527Y-77680872D01*
X127630146Y-77633253D01*
X127725385Y-77585634D01*
X127868242Y-77585634D01*
X127963480Y-77633253D01*
X128011099Y-77680872D01*
X128058718Y-77776110D01*
X128058718Y-78061824D01*
X128011099Y-78157062D01*
X127963480Y-78204681D01*
X127868242Y-78252300D01*
X127725385Y-78252300D01*
X128915861Y-77585634D02*
X128915861Y-78252300D01*
X128487289Y-77585634D02*
X128487289Y-78109443D01*
X128534908Y-78204681D01*
X128630146Y-78252300D01*
X128773004Y-78252300D01*
X128868242Y-78204681D01*
X128915861Y-78157062D01*
X129392051Y-77585634D02*
X129392051Y-78252300D01*
X129392051Y-77680872D02*
X129439670Y-77633253D01*
X129534908Y-77585634D01*
X129677765Y-77585634D01*
X129773004Y-77633253D01*
X129820623Y-77728491D01*
X129820623Y-78252300D01*
X130153956Y-77585634D02*
X130534908Y-77585634D01*
X130296813Y-77252300D02*
X130296813Y-78109443D01*
X130344432Y-78204681D01*
X130439670Y-78252300D01*
X130534908Y-78252300D01*
X130868242Y-78252300D02*
X130868242Y-77585634D01*
X130868242Y-77252300D02*
X130820623Y-77299920D01*
X130868242Y-77347539D01*
X130915861Y-77299920D01*
X130868242Y-77252300D01*
X130868242Y-77347539D01*
X131344432Y-77585634D02*
X131344432Y-78252300D01*
X131344432Y-77680872D02*
X131392051Y-77633253D01*
X131487289Y-77585634D01*
X131630146Y-77585634D01*
X131725385Y-77633253D01*
X131773004Y-77728491D01*
X131773004Y-78252300D01*
X132677765Y-77585634D02*
X132677765Y-78395158D01*
X132630146Y-78490396D01*
X132582527Y-78538015D01*
X132487289Y-78585634D01*
X132344432Y-78585634D01*
X132249194Y-78538015D01*
X132677765Y-78204681D02*
X132582527Y-78252300D01*
X132392051Y-78252300D01*
X132296813Y-78204681D01*
X132249194Y-78157062D01*
X132201575Y-78061824D01*
X132201575Y-77776110D01*
X132249194Y-77680872D01*
X132296813Y-77633253D01*
X132392051Y-77585634D01*
X132582527Y-77585634D01*
X132677765Y-77633253D01*
X133153956Y-78252300D02*
X133153956Y-77252300D01*
X133153956Y-77728491D02*
X133725385Y-77728491D01*
X133725385Y-78252300D02*
X133725385Y-77252300D01*
X134344432Y-78252300D02*
X134249194Y-78204681D01*
X134201575Y-78157062D01*
X134153956Y-78061824D01*
X134153956Y-77776110D01*
X134201575Y-77680872D01*
X134249194Y-77633253D01*
X134344432Y-77585634D01*
X134487289Y-77585634D01*
X134582527Y-77633253D01*
X134630146Y-77680872D01*
X134677765Y-77776110D01*
X134677765Y-78061824D01*
X134630146Y-78157062D01*
X134582527Y-78204681D01*
X134487289Y-78252300D01*
X134344432Y-78252300D01*
X135249194Y-78252300D02*
X135153956Y-78204681D01*
X135106337Y-78109443D01*
X135106337Y-77252300D01*
X136011099Y-78204681D02*
X135915861Y-78252300D01*
X135725385Y-78252300D01*
X135630146Y-78204681D01*
X135582527Y-78109443D01*
X135582527Y-77728491D01*
X135630146Y-77633253D01*
X135725385Y-77585634D01*
X135915861Y-77585634D01*
X136011099Y-77633253D01*
X136058718Y-77728491D01*
X136058718Y-77823729D01*
X135582527Y-77918967D01*
X130763480Y-74752300D02*
X130763480Y-73752300D01*
X130763480Y-74228491D02*
X131334908Y-74228491D01*
X131334908Y-74752300D02*
X131334908Y-73752300D01*
X132287289Y-73752300D02*
X131811099Y-73752300D01*
X131763480Y-74228491D01*
X131811099Y-74180872D01*
X131906337Y-74133253D01*
X132144432Y-74133253D01*
X132239670Y-74180872D01*
X132287289Y-74228491D01*
X132334908Y-74323729D01*
X132334908Y-74561824D01*
X132287289Y-74657062D01*
X132239670Y-74704681D01*
X132144432Y-74752300D01*
X131906337Y-74752300D01*
X131811099Y-74704681D01*
X131763480Y-74657062D01*
G04 #@! TO.C,FID3*
X41844432Y-147514491D02*
X41511099Y-147514491D01*
X41511099Y-148038300D02*
X41511099Y-147038300D01*
X41987289Y-147038300D01*
X42368242Y-148038300D02*
X42368242Y-147371634D01*
X42368242Y-147038300D02*
X42320623Y-147085920D01*
X42368242Y-147133539D01*
X42415861Y-147085920D01*
X42368242Y-147038300D01*
X42368242Y-147133539D01*
X43273004Y-148038300D02*
X43273004Y-147038300D01*
X43273004Y-147990681D02*
X43177765Y-148038300D01*
X42987289Y-148038300D01*
X42892051Y-147990681D01*
X42844432Y-147943062D01*
X42796813Y-147847824D01*
X42796813Y-147562110D01*
X42844432Y-147466872D01*
X42892051Y-147419253D01*
X42987289Y-147371634D01*
X43177765Y-147371634D01*
X43273004Y-147419253D01*
X44177765Y-147371634D02*
X44177765Y-148038300D01*
X43749194Y-147371634D02*
X43749194Y-147895443D01*
X43796813Y-147990681D01*
X43892051Y-148038300D01*
X44034908Y-148038300D01*
X44130146Y-147990681D01*
X44177765Y-147943062D01*
X45082527Y-147990681D02*
X44987289Y-148038300D01*
X44796813Y-148038300D01*
X44701575Y-147990681D01*
X44653956Y-147943062D01*
X44606337Y-147847824D01*
X44606337Y-147562110D01*
X44653956Y-147466872D01*
X44701575Y-147419253D01*
X44796813Y-147371634D01*
X44987289Y-147371634D01*
X45082527Y-147419253D01*
X45511099Y-148038300D02*
X45511099Y-147371634D01*
X45511099Y-147038300D02*
X45463480Y-147085920D01*
X45511099Y-147133539D01*
X45558718Y-147085920D01*
X45511099Y-147038300D01*
X45511099Y-147133539D01*
X46415861Y-148038300D02*
X46415861Y-147514491D01*
X46368242Y-147419253D01*
X46273004Y-147371634D01*
X46082527Y-147371634D01*
X45987289Y-147419253D01*
X46415861Y-147990681D02*
X46320623Y-148038300D01*
X46082527Y-148038300D01*
X45987289Y-147990681D01*
X45939670Y-147895443D01*
X45939670Y-147800205D01*
X45987289Y-147704967D01*
X46082527Y-147657348D01*
X46320623Y-147657348D01*
X46415861Y-147609729D01*
X47034908Y-148038300D02*
X46939670Y-147990681D01*
X46892051Y-147895443D01*
X46892051Y-147038300D01*
D14*
X43796813Y-145271348D02*
X43663480Y-145271348D01*
X43663480Y-145480872D02*
X43663480Y-145080872D01*
X43853956Y-145080872D01*
X44006337Y-145480872D02*
X44006337Y-145080872D01*
X44196813Y-145480872D02*
X44196813Y-145080872D01*
X44292051Y-145080872D01*
X44349194Y-145099920D01*
X44387289Y-145138015D01*
X44406337Y-145176110D01*
X44425385Y-145252300D01*
X44425385Y-145309443D01*
X44406337Y-145385634D01*
X44387289Y-145423729D01*
X44349194Y-145461824D01*
X44292051Y-145480872D01*
X44196813Y-145480872D01*
X44558718Y-145080872D02*
X44806337Y-145080872D01*
X44673004Y-145233253D01*
X44730146Y-145233253D01*
X44768242Y-145252300D01*
X44787289Y-145271348D01*
X44806337Y-145309443D01*
X44806337Y-145404681D01*
X44787289Y-145442777D01*
X44768242Y-145461824D01*
X44730146Y-145480872D01*
X44615861Y-145480872D01*
X44577765Y-145461824D01*
X44558718Y-145442777D01*
G04 #@! TO.C,FID2*
D11*
X41844432Y-94514491D02*
X41511099Y-94514491D01*
X41511099Y-95038300D02*
X41511099Y-94038300D01*
X41987289Y-94038300D01*
X42368242Y-95038300D02*
X42368242Y-94371634D01*
X42368242Y-94038300D02*
X42320623Y-94085920D01*
X42368242Y-94133539D01*
X42415861Y-94085920D01*
X42368242Y-94038300D01*
X42368242Y-94133539D01*
X43273004Y-95038300D02*
X43273004Y-94038300D01*
X43273004Y-94990681D02*
X43177765Y-95038300D01*
X42987289Y-95038300D01*
X42892051Y-94990681D01*
X42844432Y-94943062D01*
X42796813Y-94847824D01*
X42796813Y-94562110D01*
X42844432Y-94466872D01*
X42892051Y-94419253D01*
X42987289Y-94371634D01*
X43177765Y-94371634D01*
X43273004Y-94419253D01*
X44177765Y-94371634D02*
X44177765Y-95038300D01*
X43749194Y-94371634D02*
X43749194Y-94895443D01*
X43796813Y-94990681D01*
X43892051Y-95038300D01*
X44034908Y-95038300D01*
X44130146Y-94990681D01*
X44177765Y-94943062D01*
X45082527Y-94990681D02*
X44987289Y-95038300D01*
X44796813Y-95038300D01*
X44701575Y-94990681D01*
X44653956Y-94943062D01*
X44606337Y-94847824D01*
X44606337Y-94562110D01*
X44653956Y-94466872D01*
X44701575Y-94419253D01*
X44796813Y-94371634D01*
X44987289Y-94371634D01*
X45082527Y-94419253D01*
X45511099Y-95038300D02*
X45511099Y-94371634D01*
X45511099Y-94038300D02*
X45463480Y-94085920D01*
X45511099Y-94133539D01*
X45558718Y-94085920D01*
X45511099Y-94038300D01*
X45511099Y-94133539D01*
X46415861Y-95038300D02*
X46415861Y-94514491D01*
X46368242Y-94419253D01*
X46273004Y-94371634D01*
X46082527Y-94371634D01*
X45987289Y-94419253D01*
X46415861Y-94990681D02*
X46320623Y-95038300D01*
X46082527Y-95038300D01*
X45987289Y-94990681D01*
X45939670Y-94895443D01*
X45939670Y-94800205D01*
X45987289Y-94704967D01*
X46082527Y-94657348D01*
X46320623Y-94657348D01*
X46415861Y-94609729D01*
X47034908Y-95038300D02*
X46939670Y-94990681D01*
X46892051Y-94895443D01*
X46892051Y-94038300D01*
D14*
X43796813Y-92271348D02*
X43663480Y-92271348D01*
X43663480Y-92480872D02*
X43663480Y-92080872D01*
X43853956Y-92080872D01*
X44006337Y-92480872D02*
X44006337Y-92080872D01*
X44196813Y-92480872D02*
X44196813Y-92080872D01*
X44292051Y-92080872D01*
X44349194Y-92099920D01*
X44387289Y-92138015D01*
X44406337Y-92176110D01*
X44425385Y-92252300D01*
X44425385Y-92309443D01*
X44406337Y-92385634D01*
X44387289Y-92423729D01*
X44349194Y-92461824D01*
X44292051Y-92480872D01*
X44196813Y-92480872D01*
X44577765Y-92118967D02*
X44596813Y-92099920D01*
X44634908Y-92080872D01*
X44730146Y-92080872D01*
X44768242Y-92099920D01*
X44787289Y-92118967D01*
X44806337Y-92157062D01*
X44806337Y-92195158D01*
X44787289Y-92252300D01*
X44558718Y-92480872D01*
X44806337Y-92480872D01*
G04 #@! TO.C,FID1*
D11*
X128844432Y-111514491D02*
X128511099Y-111514491D01*
X128511099Y-112038300D02*
X128511099Y-111038300D01*
X128987289Y-111038300D01*
X129368242Y-112038300D02*
X129368242Y-111371634D01*
X129368242Y-111038300D02*
X129320623Y-111085920D01*
X129368242Y-111133539D01*
X129415861Y-111085920D01*
X129368242Y-111038300D01*
X129368242Y-111133539D01*
X130273004Y-112038300D02*
X130273004Y-111038300D01*
X130273004Y-111990681D02*
X130177765Y-112038300D01*
X129987289Y-112038300D01*
X129892051Y-111990681D01*
X129844432Y-111943062D01*
X129796813Y-111847824D01*
X129796813Y-111562110D01*
X129844432Y-111466872D01*
X129892051Y-111419253D01*
X129987289Y-111371634D01*
X130177765Y-111371634D01*
X130273004Y-111419253D01*
X131177765Y-111371634D02*
X131177765Y-112038300D01*
X130749194Y-111371634D02*
X130749194Y-111895443D01*
X130796813Y-111990681D01*
X130892051Y-112038300D01*
X131034908Y-112038300D01*
X131130146Y-111990681D01*
X131177765Y-111943062D01*
X132082527Y-111990681D02*
X131987289Y-112038300D01*
X131796813Y-112038300D01*
X131701575Y-111990681D01*
X131653956Y-111943062D01*
X131606337Y-111847824D01*
X131606337Y-111562110D01*
X131653956Y-111466872D01*
X131701575Y-111419253D01*
X131796813Y-111371634D01*
X131987289Y-111371634D01*
X132082527Y-111419253D01*
X132511099Y-112038300D02*
X132511099Y-111371634D01*
X132511099Y-111038300D02*
X132463480Y-111085920D01*
X132511099Y-111133539D01*
X132558718Y-111085920D01*
X132511099Y-111038300D01*
X132511099Y-111133539D01*
X133415861Y-112038300D02*
X133415861Y-111514491D01*
X133368242Y-111419253D01*
X133273004Y-111371634D01*
X133082527Y-111371634D01*
X132987289Y-111419253D01*
X133415861Y-111990681D02*
X133320623Y-112038300D01*
X133082527Y-112038300D01*
X132987289Y-111990681D01*
X132939670Y-111895443D01*
X132939670Y-111800205D01*
X132987289Y-111704967D01*
X133082527Y-111657348D01*
X133320623Y-111657348D01*
X133415861Y-111609729D01*
X134034908Y-112038300D02*
X133939670Y-111990681D01*
X133892051Y-111895443D01*
X133892051Y-111038300D01*
D14*
X130796813Y-109271348D02*
X130663480Y-109271348D01*
X130663480Y-109480872D02*
X130663480Y-109080872D01*
X130853956Y-109080872D01*
X131006337Y-109480872D02*
X131006337Y-109080872D01*
X131196813Y-109480872D02*
X131196813Y-109080872D01*
X131292051Y-109080872D01*
X131349194Y-109099920D01*
X131387289Y-109138015D01*
X131406337Y-109176110D01*
X131425385Y-109252300D01*
X131425385Y-109309443D01*
X131406337Y-109385634D01*
X131387289Y-109423729D01*
X131349194Y-109461824D01*
X131292051Y-109480872D01*
X131196813Y-109480872D01*
X131806337Y-109480872D02*
X131577765Y-109480872D01*
X131692051Y-109480872D02*
X131692051Y-109080872D01*
X131653956Y-109138015D01*
X131615861Y-109176110D01*
X131577765Y-109195158D01*
G04 #@! TO.C,U4*
D11*
X95824380Y-126206380D02*
X95824380Y-125206380D01*
X96252952Y-126158761D02*
X96395809Y-126206380D01*
X96633904Y-126206380D01*
X96729142Y-126158761D01*
X96776761Y-126111142D01*
X96824380Y-126015904D01*
X96824380Y-125920666D01*
X96776761Y-125825428D01*
X96729142Y-125777809D01*
X96633904Y-125730190D01*
X96443428Y-125682571D01*
X96348190Y-125634952D01*
X96300571Y-125587333D01*
X96252952Y-125492095D01*
X96252952Y-125396857D01*
X96300571Y-125301619D01*
X96348190Y-125254000D01*
X96443428Y-125206380D01*
X96681523Y-125206380D01*
X96824380Y-125254000D01*
X97157714Y-125206380D02*
X97776761Y-125206380D01*
X97443428Y-125587333D01*
X97586285Y-125587333D01*
X97681523Y-125634952D01*
X97729142Y-125682571D01*
X97776761Y-125777809D01*
X97776761Y-126015904D01*
X97729142Y-126111142D01*
X97681523Y-126158761D01*
X97586285Y-126206380D01*
X97300571Y-126206380D01*
X97205333Y-126158761D01*
X97157714Y-126111142D01*
X98729142Y-126206380D02*
X98157714Y-126206380D01*
X98443428Y-126206380D02*
X98443428Y-125206380D01*
X98348190Y-125349238D01*
X98252952Y-125444476D01*
X98157714Y-125492095D01*
X99491047Y-125682571D02*
X99157714Y-125682571D01*
X99157714Y-126206380D02*
X99157714Y-125206380D01*
X99633904Y-125206380D01*
X100491047Y-126206380D02*
X100014857Y-126206380D01*
X100014857Y-125206380D01*
X100729142Y-125206380D02*
X101348190Y-125206380D01*
X101014857Y-125587333D01*
X101157714Y-125587333D01*
X101252952Y-125634952D01*
X101300571Y-125682571D01*
X101348190Y-125777809D01*
X101348190Y-126015904D01*
X101300571Y-126111142D01*
X101252952Y-126158761D01*
X101157714Y-126206380D01*
X100872000Y-126206380D01*
X100776761Y-126158761D01*
X100729142Y-126111142D01*
X101681523Y-125206380D02*
X102348190Y-125206380D01*
X101919619Y-126206380D01*
X102633904Y-125206380D02*
X103252952Y-125206380D01*
X102919619Y-125587333D01*
X103062476Y-125587333D01*
X103157714Y-125634952D01*
X103205333Y-125682571D01*
X103252952Y-125777809D01*
X103252952Y-126015904D01*
X103205333Y-126111142D01*
X103157714Y-126158761D01*
X103062476Y-126206380D01*
X102776761Y-126206380D01*
X102681523Y-126158761D01*
X102633904Y-126111142D01*
X104205333Y-126206380D02*
X103633904Y-126206380D01*
X103919619Y-126206380D02*
X103919619Y-125206380D01*
X103824380Y-125349238D01*
X103729142Y-125444476D01*
X103633904Y-125492095D01*
X104633904Y-125825428D02*
X105395809Y-125825428D01*
X105824380Y-126158761D02*
X105967238Y-126206380D01*
X106205333Y-126206380D01*
X106300571Y-126158761D01*
X106348190Y-126111142D01*
X106395809Y-126015904D01*
X106395809Y-125920666D01*
X106348190Y-125825428D01*
X106300571Y-125777809D01*
X106205333Y-125730190D01*
X106014857Y-125682571D01*
X105919619Y-125634952D01*
X105872000Y-125587333D01*
X105824380Y-125492095D01*
X105824380Y-125396857D01*
X105872000Y-125301619D01*
X105919619Y-125254000D01*
X106014857Y-125206380D01*
X106252952Y-125206380D01*
X106395809Y-125254000D01*
X106776761Y-125920666D02*
X107252952Y-125920666D01*
X106681523Y-126206380D02*
X107014857Y-125206380D01*
X107348190Y-126206380D01*
X108157714Y-126206380D02*
X107681523Y-126206380D01*
X107681523Y-125206380D01*
X108443428Y-126158761D02*
X108586285Y-126206380D01*
X108824380Y-126206380D01*
X108919619Y-126158761D01*
X108967238Y-126111142D01*
X109014857Y-126015904D01*
X109014857Y-125920666D01*
X108967238Y-125825428D01*
X108919619Y-125777809D01*
X108824380Y-125730190D01*
X108633904Y-125682571D01*
X108538666Y-125634952D01*
X108491047Y-125587333D01*
X108443428Y-125492095D01*
X108443428Y-125396857D01*
X108491047Y-125301619D01*
X108538666Y-125254000D01*
X108633904Y-125206380D01*
X108872000Y-125206380D01*
X109014857Y-125254000D01*
X109395809Y-125301619D02*
X109443428Y-125254000D01*
X109538666Y-125206380D01*
X109776761Y-125206380D01*
X109872000Y-125254000D01*
X109919619Y-125301619D01*
X109967238Y-125396857D01*
X109967238Y-125492095D01*
X109919619Y-125634952D01*
X109348190Y-126206380D01*
X109967238Y-126206380D01*
X102262476Y-119065904D02*
X102262476Y-119713523D01*
X102300571Y-119789714D01*
X102338666Y-119827809D01*
X102414857Y-119865904D01*
X102567238Y-119865904D01*
X102643428Y-119827809D01*
X102681523Y-119789714D01*
X102719619Y-119713523D01*
X102719619Y-119065904D01*
X103443428Y-119332571D02*
X103443428Y-119865904D01*
X103252952Y-119027809D02*
X103062476Y-119599238D01*
X103557714Y-119599238D01*
G04 #@! TO.C,R10*
X103724380Y-139146857D02*
X103248190Y-139480190D01*
X103724380Y-139718285D02*
X102724380Y-139718285D01*
X102724380Y-139337333D01*
X102772000Y-139242095D01*
X102819619Y-139194476D01*
X102914857Y-139146857D01*
X103057714Y-139146857D01*
X103152952Y-139194476D01*
X103200571Y-139242095D01*
X103248190Y-139337333D01*
X103248190Y-139718285D01*
X103724380Y-138194476D02*
X103724380Y-138765904D01*
X103724380Y-138480190D02*
X102724380Y-138480190D01*
X102867238Y-138575428D01*
X102962476Y-138670666D01*
X103010095Y-138765904D01*
X102724380Y-137575428D02*
X102724380Y-137480190D01*
X102772000Y-137384952D01*
X102819619Y-137337333D01*
X102914857Y-137289714D01*
X103105333Y-137242095D01*
X103343428Y-137242095D01*
X103533904Y-137289714D01*
X103629142Y-137337333D01*
X103676761Y-137384952D01*
X103724380Y-137480190D01*
X103724380Y-137575428D01*
X103676761Y-137670666D01*
X103629142Y-137718285D01*
X103533904Y-137765904D01*
X103343428Y-137813523D01*
X103105333Y-137813523D01*
X102914857Y-137765904D01*
X102819619Y-137718285D01*
X102772000Y-137670666D01*
X102724380Y-137575428D01*
D14*
X103452952Y-135561142D02*
X103262476Y-135694476D01*
X103452952Y-135789714D02*
X103052952Y-135789714D01*
X103052952Y-135637333D01*
X103072000Y-135599238D01*
X103091047Y-135580190D01*
X103129142Y-135561142D01*
X103186285Y-135561142D01*
X103224380Y-135580190D01*
X103243428Y-135599238D01*
X103262476Y-135637333D01*
X103262476Y-135789714D01*
X103452952Y-135180190D02*
X103452952Y-135408761D01*
X103452952Y-135294476D02*
X103052952Y-135294476D01*
X103110095Y-135332571D01*
X103148190Y-135370666D01*
X103167238Y-135408761D01*
X103052952Y-134932571D02*
X103052952Y-134894476D01*
X103072000Y-134856380D01*
X103091047Y-134837333D01*
X103129142Y-134818285D01*
X103205333Y-134799238D01*
X103300571Y-134799238D01*
X103376761Y-134818285D01*
X103414857Y-134837333D01*
X103433904Y-134856380D01*
X103452952Y-134894476D01*
X103452952Y-134932571D01*
X103433904Y-134970666D01*
X103414857Y-134989714D01*
X103376761Y-135008761D01*
X103300571Y-135027809D01*
X103205333Y-135027809D01*
X103129142Y-135008761D01*
X103091047Y-134989714D01*
X103072000Y-134970666D01*
X103052952Y-134932571D01*
G04 #@! TO.C,R9*
D11*
X101924380Y-138270666D02*
X101448190Y-138604000D01*
X101924380Y-138842095D02*
X100924380Y-138842095D01*
X100924380Y-138461142D01*
X100972000Y-138365904D01*
X101019619Y-138318285D01*
X101114857Y-138270666D01*
X101257714Y-138270666D01*
X101352952Y-138318285D01*
X101400571Y-138365904D01*
X101448190Y-138461142D01*
X101448190Y-138842095D01*
X101924380Y-137794476D02*
X101924380Y-137604000D01*
X101876761Y-137508761D01*
X101829142Y-137461142D01*
X101686285Y-137365904D01*
X101495809Y-137318285D01*
X101114857Y-137318285D01*
X101019619Y-137365904D01*
X100972000Y-137413523D01*
X100924380Y-137508761D01*
X100924380Y-137699238D01*
X100972000Y-137794476D01*
X101019619Y-137842095D01*
X101114857Y-137889714D01*
X101352952Y-137889714D01*
X101448190Y-137842095D01*
X101495809Y-137794476D01*
X101543428Y-137699238D01*
X101543428Y-137508761D01*
X101495809Y-137413523D01*
X101448190Y-137365904D01*
X101352952Y-137318285D01*
D14*
X101652952Y-135370666D02*
X101462476Y-135504000D01*
X101652952Y-135599238D02*
X101252952Y-135599238D01*
X101252952Y-135446857D01*
X101272000Y-135408761D01*
X101291047Y-135389714D01*
X101329142Y-135370666D01*
X101386285Y-135370666D01*
X101424380Y-135389714D01*
X101443428Y-135408761D01*
X101462476Y-135446857D01*
X101462476Y-135599238D01*
X101652952Y-135180190D02*
X101652952Y-135104000D01*
X101633904Y-135065904D01*
X101614857Y-135046857D01*
X101557714Y-135008761D01*
X101481523Y-134989714D01*
X101329142Y-134989714D01*
X101291047Y-135008761D01*
X101272000Y-135027809D01*
X101252952Y-135065904D01*
X101252952Y-135142095D01*
X101272000Y-135180190D01*
X101291047Y-135199238D01*
X101329142Y-135218285D01*
X101424380Y-135218285D01*
X101462476Y-135199238D01*
X101481523Y-135180190D01*
X101500571Y-135142095D01*
X101500571Y-135065904D01*
X101481523Y-135027809D01*
X101462476Y-135008761D01*
X101424380Y-134989714D01*
G04 #@! TO.C,R8*
D11*
X100124380Y-138270666D02*
X99648190Y-138604000D01*
X100124380Y-138842095D02*
X99124380Y-138842095D01*
X99124380Y-138461142D01*
X99172000Y-138365904D01*
X99219619Y-138318285D01*
X99314857Y-138270666D01*
X99457714Y-138270666D01*
X99552952Y-138318285D01*
X99600571Y-138365904D01*
X99648190Y-138461142D01*
X99648190Y-138842095D01*
X99552952Y-137699238D02*
X99505333Y-137794476D01*
X99457714Y-137842095D01*
X99362476Y-137889714D01*
X99314857Y-137889714D01*
X99219619Y-137842095D01*
X99172000Y-137794476D01*
X99124380Y-137699238D01*
X99124380Y-137508761D01*
X99172000Y-137413523D01*
X99219619Y-137365904D01*
X99314857Y-137318285D01*
X99362476Y-137318285D01*
X99457714Y-137365904D01*
X99505333Y-137413523D01*
X99552952Y-137508761D01*
X99552952Y-137699238D01*
X99600571Y-137794476D01*
X99648190Y-137842095D01*
X99743428Y-137889714D01*
X99933904Y-137889714D01*
X100029142Y-137842095D01*
X100076761Y-137794476D01*
X100124380Y-137699238D01*
X100124380Y-137508761D01*
X100076761Y-137413523D01*
X100029142Y-137365904D01*
X99933904Y-137318285D01*
X99743428Y-137318285D01*
X99648190Y-137365904D01*
X99600571Y-137413523D01*
X99552952Y-137508761D01*
D14*
X99852952Y-135370666D02*
X99662476Y-135504000D01*
X99852952Y-135599238D02*
X99452952Y-135599238D01*
X99452952Y-135446857D01*
X99472000Y-135408761D01*
X99491047Y-135389714D01*
X99529142Y-135370666D01*
X99586285Y-135370666D01*
X99624380Y-135389714D01*
X99643428Y-135408761D01*
X99662476Y-135446857D01*
X99662476Y-135599238D01*
X99624380Y-135142095D02*
X99605333Y-135180190D01*
X99586285Y-135199238D01*
X99548190Y-135218285D01*
X99529142Y-135218285D01*
X99491047Y-135199238D01*
X99472000Y-135180190D01*
X99452952Y-135142095D01*
X99452952Y-135065904D01*
X99472000Y-135027809D01*
X99491047Y-135008761D01*
X99529142Y-134989714D01*
X99548190Y-134989714D01*
X99586285Y-135008761D01*
X99605333Y-135027809D01*
X99624380Y-135065904D01*
X99624380Y-135142095D01*
X99643428Y-135180190D01*
X99662476Y-135199238D01*
X99700571Y-135218285D01*
X99776761Y-135218285D01*
X99814857Y-135199238D01*
X99833904Y-135180190D01*
X99852952Y-135142095D01*
X99852952Y-135065904D01*
X99833904Y-135027809D01*
X99814857Y-135008761D01*
X99776761Y-134989714D01*
X99700571Y-134989714D01*
X99662476Y-135008761D01*
X99643428Y-135027809D01*
X99624380Y-135065904D01*
G04 #@! TO.C,R7*
D11*
X100124380Y-131070666D02*
X99648190Y-131404000D01*
X100124380Y-131642095D02*
X99124380Y-131642095D01*
X99124380Y-131261142D01*
X99172000Y-131165904D01*
X99219619Y-131118285D01*
X99314857Y-131070666D01*
X99457714Y-131070666D01*
X99552952Y-131118285D01*
X99600571Y-131165904D01*
X99648190Y-131261142D01*
X99648190Y-131642095D01*
X99124380Y-130737333D02*
X99124380Y-130070666D01*
X100124380Y-130499238D01*
D14*
X99852952Y-128370666D02*
X99662476Y-128504000D01*
X99852952Y-128599238D02*
X99452952Y-128599238D01*
X99452952Y-128446857D01*
X99472000Y-128408761D01*
X99491047Y-128389714D01*
X99529142Y-128370666D01*
X99586285Y-128370666D01*
X99624380Y-128389714D01*
X99643428Y-128408761D01*
X99662476Y-128446857D01*
X99662476Y-128599238D01*
X99452952Y-128237333D02*
X99452952Y-127970666D01*
X99852952Y-128142095D01*
G04 #@! TO.C,R6*
D11*
X96105333Y-115726380D02*
X95772000Y-115250190D01*
X95533904Y-115726380D02*
X95533904Y-114726380D01*
X95914857Y-114726380D01*
X96010095Y-114774000D01*
X96057714Y-114821619D01*
X96105333Y-114916857D01*
X96105333Y-115059714D01*
X96057714Y-115154952D01*
X96010095Y-115202571D01*
X95914857Y-115250190D01*
X95533904Y-115250190D01*
X96962476Y-114726380D02*
X96772000Y-114726380D01*
X96676761Y-114774000D01*
X96629142Y-114821619D01*
X96533904Y-114964476D01*
X96486285Y-115154952D01*
X96486285Y-115535904D01*
X96533904Y-115631142D01*
X96581523Y-115678761D01*
X96676761Y-115726380D01*
X96867238Y-115726380D01*
X96962476Y-115678761D01*
X97010095Y-115631142D01*
X97057714Y-115535904D01*
X97057714Y-115297809D01*
X97010095Y-115202571D01*
X96962476Y-115154952D01*
X96867238Y-115107333D01*
X96676761Y-115107333D01*
X96581523Y-115154952D01*
X96533904Y-115202571D01*
X96486285Y-115297809D01*
D14*
X96205333Y-116884952D02*
X96072000Y-116694476D01*
X95976761Y-116884952D02*
X95976761Y-116484952D01*
X96129142Y-116484952D01*
X96167238Y-116504000D01*
X96186285Y-116523047D01*
X96205333Y-116561142D01*
X96205333Y-116618285D01*
X96186285Y-116656380D01*
X96167238Y-116675428D01*
X96129142Y-116694476D01*
X95976761Y-116694476D01*
X96548190Y-116484952D02*
X96472000Y-116484952D01*
X96433904Y-116504000D01*
X96414857Y-116523047D01*
X96376761Y-116580190D01*
X96357714Y-116656380D01*
X96357714Y-116808761D01*
X96376761Y-116846857D01*
X96395809Y-116865904D01*
X96433904Y-116884952D01*
X96510095Y-116884952D01*
X96548190Y-116865904D01*
X96567238Y-116846857D01*
X96586285Y-116808761D01*
X96586285Y-116713523D01*
X96567238Y-116675428D01*
X96548190Y-116656380D01*
X96510095Y-116637333D01*
X96433904Y-116637333D01*
X96395809Y-116656380D01*
X96376761Y-116675428D01*
X96357714Y-116713523D01*
G04 #@! TO.C,R5*
D11*
X96105333Y-120386380D02*
X95772000Y-119910190D01*
X95533904Y-120386380D02*
X95533904Y-119386380D01*
X95914857Y-119386380D01*
X96010095Y-119434000D01*
X96057714Y-119481619D01*
X96105333Y-119576857D01*
X96105333Y-119719714D01*
X96057714Y-119814952D01*
X96010095Y-119862571D01*
X95914857Y-119910190D01*
X95533904Y-119910190D01*
X97010095Y-119386380D02*
X96533904Y-119386380D01*
X96486285Y-119862571D01*
X96533904Y-119814952D01*
X96629142Y-119767333D01*
X96867238Y-119767333D01*
X96962476Y-119814952D01*
X97010095Y-119862571D01*
X97057714Y-119957809D01*
X97057714Y-120195904D01*
X97010095Y-120291142D01*
X96962476Y-120338761D01*
X96867238Y-120386380D01*
X96629142Y-120386380D01*
X96533904Y-120338761D01*
X96486285Y-120291142D01*
D14*
X96205333Y-118684952D02*
X96072000Y-118494476D01*
X95976761Y-118684952D02*
X95976761Y-118284952D01*
X96129142Y-118284952D01*
X96167238Y-118304000D01*
X96186285Y-118323047D01*
X96205333Y-118361142D01*
X96205333Y-118418285D01*
X96186285Y-118456380D01*
X96167238Y-118475428D01*
X96129142Y-118494476D01*
X95976761Y-118494476D01*
X96567238Y-118284952D02*
X96376761Y-118284952D01*
X96357714Y-118475428D01*
X96376761Y-118456380D01*
X96414857Y-118437333D01*
X96510095Y-118437333D01*
X96548190Y-118456380D01*
X96567238Y-118475428D01*
X96586285Y-118513523D01*
X96586285Y-118608761D01*
X96567238Y-118646857D01*
X96548190Y-118665904D01*
X96510095Y-118684952D01*
X96414857Y-118684952D01*
X96376761Y-118665904D01*
X96357714Y-118646857D01*
G04 #@! TO.C,R4*
D11*
X103724380Y-102470666D02*
X103248190Y-102804000D01*
X103724380Y-103042095D02*
X102724380Y-103042095D01*
X102724380Y-102661142D01*
X102772000Y-102565904D01*
X102819619Y-102518285D01*
X102914857Y-102470666D01*
X103057714Y-102470666D01*
X103152952Y-102518285D01*
X103200571Y-102565904D01*
X103248190Y-102661142D01*
X103248190Y-103042095D01*
X103057714Y-101613523D02*
X103724380Y-101613523D01*
X102676761Y-101851619D02*
X103391047Y-102089714D01*
X103391047Y-101470666D01*
D14*
X103452952Y-99770666D02*
X103262476Y-99904000D01*
X103452952Y-99999238D02*
X103052952Y-99999238D01*
X103052952Y-99846857D01*
X103072000Y-99808761D01*
X103091047Y-99789714D01*
X103129142Y-99770666D01*
X103186285Y-99770666D01*
X103224380Y-99789714D01*
X103243428Y-99808761D01*
X103262476Y-99846857D01*
X103262476Y-99999238D01*
X103186285Y-99427809D02*
X103452952Y-99427809D01*
X103033904Y-99523047D02*
X103319619Y-99618285D01*
X103319619Y-99370666D01*
G04 #@! TO.C,R3*
D11*
X99324380Y-102470666D02*
X98848190Y-102804000D01*
X99324380Y-103042095D02*
X98324380Y-103042095D01*
X98324380Y-102661142D01*
X98372000Y-102565904D01*
X98419619Y-102518285D01*
X98514857Y-102470666D01*
X98657714Y-102470666D01*
X98752952Y-102518285D01*
X98800571Y-102565904D01*
X98848190Y-102661142D01*
X98848190Y-103042095D01*
X98324380Y-102137333D02*
X98324380Y-101518285D01*
X98705333Y-101851619D01*
X98705333Y-101708761D01*
X98752952Y-101613523D01*
X98800571Y-101565904D01*
X98895809Y-101518285D01*
X99133904Y-101518285D01*
X99229142Y-101565904D01*
X99276761Y-101613523D01*
X99324380Y-101708761D01*
X99324380Y-101994476D01*
X99276761Y-102089714D01*
X99229142Y-102137333D01*
D14*
X99052952Y-99770666D02*
X98862476Y-99904000D01*
X99052952Y-99999238D02*
X98652952Y-99999238D01*
X98652952Y-99846857D01*
X98672000Y-99808761D01*
X98691047Y-99789714D01*
X98729142Y-99770666D01*
X98786285Y-99770666D01*
X98824380Y-99789714D01*
X98843428Y-99808761D01*
X98862476Y-99846857D01*
X98862476Y-99999238D01*
X98652952Y-99637333D02*
X98652952Y-99389714D01*
X98805333Y-99523047D01*
X98805333Y-99465904D01*
X98824380Y-99427809D01*
X98843428Y-99408761D01*
X98881523Y-99389714D01*
X98976761Y-99389714D01*
X99014857Y-99408761D01*
X99033904Y-99427809D01*
X99052952Y-99465904D01*
X99052952Y-99580190D01*
X99033904Y-99618285D01*
X99014857Y-99637333D01*
G04 #@! TO.C,R2*
D11*
X68146333Y-142365380D02*
X67813000Y-141889190D01*
X67574904Y-142365380D02*
X67574904Y-141365380D01*
X67955857Y-141365380D01*
X68051095Y-141413000D01*
X68098714Y-141460619D01*
X68146333Y-141555857D01*
X68146333Y-141698714D01*
X68098714Y-141793952D01*
X68051095Y-141841571D01*
X67955857Y-141889190D01*
X67574904Y-141889190D01*
X68527285Y-141460619D02*
X68574904Y-141413000D01*
X68670142Y-141365380D01*
X68908238Y-141365380D01*
X69003476Y-141413000D01*
X69051095Y-141460619D01*
X69098714Y-141555857D01*
X69098714Y-141651095D01*
X69051095Y-141793952D01*
X68479666Y-142365380D01*
X69098714Y-142365380D01*
D14*
X65446333Y-142293952D02*
X65313000Y-142103476D01*
X65217761Y-142293952D02*
X65217761Y-141893952D01*
X65370142Y-141893952D01*
X65408238Y-141913000D01*
X65427285Y-141932047D01*
X65446333Y-141970142D01*
X65446333Y-142027285D01*
X65427285Y-142065380D01*
X65408238Y-142084428D01*
X65370142Y-142103476D01*
X65217761Y-142103476D01*
X65598714Y-141932047D02*
X65617761Y-141913000D01*
X65655857Y-141893952D01*
X65751095Y-141893952D01*
X65789190Y-141913000D01*
X65808238Y-141932047D01*
X65827285Y-141970142D01*
X65827285Y-142008238D01*
X65808238Y-142065380D01*
X65579666Y-142293952D01*
X65827285Y-142293952D01*
G04 #@! TO.C,R1*
D11*
X68146333Y-140565380D02*
X67813000Y-140089190D01*
X67574904Y-140565380D02*
X67574904Y-139565380D01*
X67955857Y-139565380D01*
X68051095Y-139613000D01*
X68098714Y-139660619D01*
X68146333Y-139755857D01*
X68146333Y-139898714D01*
X68098714Y-139993952D01*
X68051095Y-140041571D01*
X67955857Y-140089190D01*
X67574904Y-140089190D01*
X69098714Y-140565380D02*
X68527285Y-140565380D01*
X68813000Y-140565380D02*
X68813000Y-139565380D01*
X68717761Y-139708238D01*
X68622523Y-139803476D01*
X68527285Y-139851095D01*
D14*
X65446333Y-140293952D02*
X65313000Y-140103476D01*
X65217761Y-140293952D02*
X65217761Y-139893952D01*
X65370142Y-139893952D01*
X65408238Y-139913000D01*
X65427285Y-139932047D01*
X65446333Y-139970142D01*
X65446333Y-140027285D01*
X65427285Y-140065380D01*
X65408238Y-140084428D01*
X65370142Y-140103476D01*
X65217761Y-140103476D01*
X65827285Y-140293952D02*
X65598714Y-140293952D01*
X65713000Y-140293952D02*
X65713000Y-139893952D01*
X65674904Y-139951095D01*
X65636809Y-139989190D01*
X65598714Y-140008238D01*
G04 #@! TO.C,J4*
D11*
X69953142Y-155147904D02*
X70000761Y-155195523D01*
X70048380Y-155338380D01*
X70048380Y-155433619D01*
X70000761Y-155576476D01*
X69905523Y-155671714D01*
X69810285Y-155719333D01*
X69619809Y-155766952D01*
X69476952Y-155766952D01*
X69286476Y-155719333D01*
X69191238Y-155671714D01*
X69096000Y-155576476D01*
X69048380Y-155433619D01*
X69048380Y-155338380D01*
X69096000Y-155195523D01*
X69143619Y-155147904D01*
X69524571Y-154386000D02*
X69572190Y-154243142D01*
X69619809Y-154195523D01*
X69715047Y-154147904D01*
X69857904Y-154147904D01*
X69953142Y-154195523D01*
X70000761Y-154243142D01*
X70048380Y-154338380D01*
X70048380Y-154719333D01*
X69048380Y-154719333D01*
X69048380Y-154386000D01*
X69096000Y-154290761D01*
X69143619Y-154243142D01*
X69238857Y-154195523D01*
X69334095Y-154195523D01*
X69429333Y-154243142D01*
X69476952Y-154290761D01*
X69524571Y-154386000D01*
X69524571Y-154719333D01*
X70048380Y-153195523D02*
X70048380Y-153766952D01*
X70048380Y-153481238D02*
X69048380Y-153481238D01*
X69191238Y-153576476D01*
X69286476Y-153671714D01*
X69334095Y-153766952D01*
X69667428Y-152766952D02*
X69667428Y-152005047D01*
X70048380Y-151481238D02*
X70048380Y-151290761D01*
X70000761Y-151195523D01*
X69953142Y-151147904D01*
X69810285Y-151052666D01*
X69619809Y-151005047D01*
X69238857Y-151005047D01*
X69143619Y-151052666D01*
X69096000Y-151100285D01*
X69048380Y-151195523D01*
X69048380Y-151386000D01*
X69096000Y-151481238D01*
X69143619Y-151528857D01*
X69238857Y-151576476D01*
X69476952Y-151576476D01*
X69572190Y-151528857D01*
X69619809Y-151481238D01*
X69667428Y-151386000D01*
X69667428Y-151195523D01*
X69619809Y-151100285D01*
X69572190Y-151052666D01*
X69476952Y-151005047D01*
X81752666Y-152838380D02*
X81752666Y-153552666D01*
X81705047Y-153695523D01*
X81609809Y-153790761D01*
X81466952Y-153838380D01*
X81371714Y-153838380D01*
X82657428Y-153171714D02*
X82657428Y-153838380D01*
X82419333Y-152790761D02*
X82181238Y-153505047D01*
X82800285Y-153505047D01*
G04 #@! TO.C,J3*
X69953142Y-104346476D02*
X70000761Y-104394095D01*
X70048380Y-104536952D01*
X70048380Y-104632190D01*
X70000761Y-104775047D01*
X69905523Y-104870285D01*
X69810285Y-104917904D01*
X69619809Y-104965523D01*
X69476952Y-104965523D01*
X69286476Y-104917904D01*
X69191238Y-104870285D01*
X69096000Y-104775047D01*
X69048380Y-104632190D01*
X69048380Y-104536952D01*
X69096000Y-104394095D01*
X69143619Y-104346476D01*
X69762666Y-103965523D02*
X69762666Y-103489333D01*
X70048380Y-104060761D02*
X69048380Y-103727428D01*
X70048380Y-103394095D01*
X70048380Y-102536952D02*
X70048380Y-103108380D01*
X70048380Y-102822666D02*
X69048380Y-102822666D01*
X69191238Y-102917904D01*
X69286476Y-103013142D01*
X69334095Y-103108380D01*
X69667428Y-102108380D02*
X69667428Y-101346476D01*
X70048380Y-100822666D02*
X70048380Y-100632190D01*
X70000761Y-100536952D01*
X69953142Y-100489333D01*
X69810285Y-100394095D01*
X69619809Y-100346476D01*
X69238857Y-100346476D01*
X69143619Y-100394095D01*
X69096000Y-100441714D01*
X69048380Y-100536952D01*
X69048380Y-100727428D01*
X69096000Y-100822666D01*
X69143619Y-100870285D01*
X69238857Y-100917904D01*
X69476952Y-100917904D01*
X69572190Y-100870285D01*
X69619809Y-100822666D01*
X69667428Y-100727428D01*
X69667428Y-100536952D01*
X69619809Y-100441714D01*
X69572190Y-100394095D01*
X69476952Y-100346476D01*
X81752666Y-102108380D02*
X81752666Y-102822666D01*
X81705047Y-102965523D01*
X81609809Y-103060761D01*
X81466952Y-103108380D01*
X81371714Y-103108380D01*
X82133619Y-102108380D02*
X82752666Y-102108380D01*
X82419333Y-102489333D01*
X82562190Y-102489333D01*
X82657428Y-102536952D01*
X82705047Y-102584571D01*
X82752666Y-102679809D01*
X82752666Y-102917904D01*
X82705047Y-103013142D01*
X82657428Y-103060761D01*
X82562190Y-103108380D01*
X82276476Y-103108380D01*
X82181238Y-103060761D01*
X82133619Y-103013142D01*
G04 #@! TO.C,J1*
X63364201Y-154583187D02*
X62934334Y-155153641D01*
X62810330Y-155239074D01*
X62676954Y-155257818D01*
X62534205Y-155209875D01*
X62458144Y-155152559D01*
X63276606Y-155411561D02*
X63656909Y-155698140D01*
X63028598Y-155582427D02*
X63896625Y-154984397D01*
X63561022Y-155983637D01*
X64340913Y-156452076D02*
X64274225Y-156461448D01*
X64131476Y-156413505D01*
X64055415Y-156356189D01*
X63969982Y-156232186D01*
X63951238Y-156098809D01*
X63970523Y-155994091D01*
X64047124Y-155813312D01*
X64133098Y-155699221D01*
X64285760Y-155575758D01*
X64381106Y-155528355D01*
X64514482Y-155509611D01*
X64657230Y-155557554D01*
X64733291Y-155614870D01*
X64818724Y-155738873D01*
X64828096Y-155805562D01*
X64625869Y-156786057D02*
X65227684Y-155987422D01*
X65082232Y-157129952D02*
X65083854Y-156415668D01*
X65684047Y-156331316D02*
X64883790Y-156443785D01*
X66032989Y-157846398D02*
X66634804Y-157047763D01*
X66413292Y-158132977D02*
X67015107Y-157334341D01*
X66869655Y-158476871D01*
X67471470Y-157678235D01*
G04 #@! TO.C,U3*
D15*
X102951523Y-107471619D02*
X103979619Y-107471619D01*
X104100571Y-107411142D01*
X104161047Y-107350666D01*
X104221523Y-107229714D01*
X104221523Y-106987809D01*
X104161047Y-106866857D01*
X104100571Y-106806380D01*
X103979619Y-106745904D01*
X102951523Y-106745904D01*
X102951523Y-106262095D02*
X102951523Y-105475904D01*
X103435333Y-105899238D01*
X103435333Y-105717809D01*
X103495809Y-105596857D01*
X103556285Y-105536380D01*
X103677238Y-105475904D01*
X103979619Y-105475904D01*
X104100571Y-105536380D01*
X104161047Y-105596857D01*
X104221523Y-105717809D01*
X104221523Y-106080666D01*
X104161047Y-106201619D01*
X104100571Y-106262095D01*
G04 #@! TO.C,D145*
D11*
X103833904Y-143606380D02*
X103833904Y-142606380D01*
X104881523Y-143606380D02*
X104548190Y-143130190D01*
X104310095Y-143606380D02*
X104310095Y-142606380D01*
X104691047Y-142606380D01*
X104786285Y-142654000D01*
X104833904Y-142701619D01*
X104881523Y-142796857D01*
X104881523Y-142939714D01*
X104833904Y-143034952D01*
X104786285Y-143082571D01*
X104691047Y-143130190D01*
X104310095Y-143130190D01*
X106548190Y-143606380D02*
X106072000Y-143606380D01*
X106072000Y-142606380D01*
X106881523Y-143082571D02*
X107214857Y-143082571D01*
X107357714Y-143606380D02*
X106881523Y-143606380D01*
X106881523Y-142606380D01*
X107357714Y-142606380D01*
X107786285Y-143606380D02*
X107786285Y-142606380D01*
X108024380Y-142606380D01*
X108167238Y-142654000D01*
X108262476Y-142749238D01*
X108310095Y-142844476D01*
X108357714Y-143034952D01*
X108357714Y-143177809D01*
X108310095Y-143368285D01*
X108262476Y-143463523D01*
X108167238Y-143558761D01*
X108024380Y-143606380D01*
X107786285Y-143606380D01*
D16*
X105226761Y-141730190D02*
X105226761Y-141230190D01*
X105345809Y-141230190D01*
X105417238Y-141254000D01*
X105464857Y-141301619D01*
X105488666Y-141349238D01*
X105512476Y-141444476D01*
X105512476Y-141515904D01*
X105488666Y-141611142D01*
X105464857Y-141658761D01*
X105417238Y-141706380D01*
X105345809Y-141730190D01*
X105226761Y-141730190D01*
X105988666Y-141730190D02*
X105702952Y-141730190D01*
X105845809Y-141730190D02*
X105845809Y-141230190D01*
X105798190Y-141301619D01*
X105750571Y-141349238D01*
X105702952Y-141373047D01*
X106417238Y-141396857D02*
X106417238Y-141730190D01*
X106298190Y-141206380D02*
X106179142Y-141563523D01*
X106488666Y-141563523D01*
X106917238Y-141230190D02*
X106679142Y-141230190D01*
X106655333Y-141468285D01*
X106679142Y-141444476D01*
X106726761Y-141420666D01*
X106845809Y-141420666D01*
X106893428Y-141444476D01*
X106917238Y-141468285D01*
X106941047Y-141515904D01*
X106941047Y-141634952D01*
X106917238Y-141682571D01*
X106893428Y-141706380D01*
X106845809Y-141730190D01*
X106726761Y-141730190D01*
X106679142Y-141706380D01*
X106655333Y-141682571D01*
G04 #@! TO.C,C11*
D11*
X105229142Y-131946857D02*
X105276761Y-131994476D01*
X105324380Y-132137333D01*
X105324380Y-132232571D01*
X105276761Y-132375428D01*
X105181523Y-132470666D01*
X105086285Y-132518285D01*
X104895809Y-132565904D01*
X104752952Y-132565904D01*
X104562476Y-132518285D01*
X104467238Y-132470666D01*
X104372000Y-132375428D01*
X104324380Y-132232571D01*
X104324380Y-132137333D01*
X104372000Y-131994476D01*
X104419619Y-131946857D01*
X105324380Y-130994476D02*
X105324380Y-131565904D01*
X105324380Y-131280190D02*
X104324380Y-131280190D01*
X104467238Y-131375428D01*
X104562476Y-131470666D01*
X104610095Y-131565904D01*
X105324380Y-130042095D02*
X105324380Y-130613523D01*
X105324380Y-130327809D02*
X104324380Y-130327809D01*
X104467238Y-130423047D01*
X104562476Y-130518285D01*
X104610095Y-130613523D01*
D14*
X105214857Y-128561142D02*
X105233904Y-128580190D01*
X105252952Y-128637333D01*
X105252952Y-128675428D01*
X105233904Y-128732571D01*
X105195809Y-128770666D01*
X105157714Y-128789714D01*
X105081523Y-128808761D01*
X105024380Y-128808761D01*
X104948190Y-128789714D01*
X104910095Y-128770666D01*
X104872000Y-128732571D01*
X104852952Y-128675428D01*
X104852952Y-128637333D01*
X104872000Y-128580190D01*
X104891047Y-128561142D01*
X105252952Y-128180190D02*
X105252952Y-128408761D01*
X105252952Y-128294476D02*
X104852952Y-128294476D01*
X104910095Y-128332571D01*
X104948190Y-128370666D01*
X104967238Y-128408761D01*
X105252952Y-127799238D02*
X105252952Y-128027809D01*
X105252952Y-127913523D02*
X104852952Y-127913523D01*
X104910095Y-127951619D01*
X104948190Y-127989714D01*
X104967238Y-128027809D01*
G04 #@! TO.C,C10*
D11*
X103629142Y-131946857D02*
X103676761Y-131994476D01*
X103724380Y-132137333D01*
X103724380Y-132232571D01*
X103676761Y-132375428D01*
X103581523Y-132470666D01*
X103486285Y-132518285D01*
X103295809Y-132565904D01*
X103152952Y-132565904D01*
X102962476Y-132518285D01*
X102867238Y-132470666D01*
X102772000Y-132375428D01*
X102724380Y-132232571D01*
X102724380Y-132137333D01*
X102772000Y-131994476D01*
X102819619Y-131946857D01*
X103724380Y-130994476D02*
X103724380Y-131565904D01*
X103724380Y-131280190D02*
X102724380Y-131280190D01*
X102867238Y-131375428D01*
X102962476Y-131470666D01*
X103010095Y-131565904D01*
X102724380Y-130375428D02*
X102724380Y-130280190D01*
X102772000Y-130184952D01*
X102819619Y-130137333D01*
X102914857Y-130089714D01*
X103105333Y-130042095D01*
X103343428Y-130042095D01*
X103533904Y-130089714D01*
X103629142Y-130137333D01*
X103676761Y-130184952D01*
X103724380Y-130280190D01*
X103724380Y-130375428D01*
X103676761Y-130470666D01*
X103629142Y-130518285D01*
X103533904Y-130565904D01*
X103343428Y-130613523D01*
X103105333Y-130613523D01*
X102914857Y-130565904D01*
X102819619Y-130518285D01*
X102772000Y-130470666D01*
X102724380Y-130375428D01*
D14*
X103414857Y-128561142D02*
X103433904Y-128580190D01*
X103452952Y-128637333D01*
X103452952Y-128675428D01*
X103433904Y-128732571D01*
X103395809Y-128770666D01*
X103357714Y-128789714D01*
X103281523Y-128808761D01*
X103224380Y-128808761D01*
X103148190Y-128789714D01*
X103110095Y-128770666D01*
X103072000Y-128732571D01*
X103052952Y-128675428D01*
X103052952Y-128637333D01*
X103072000Y-128580190D01*
X103091047Y-128561142D01*
X103452952Y-128180190D02*
X103452952Y-128408761D01*
X103452952Y-128294476D02*
X103052952Y-128294476D01*
X103110095Y-128332571D01*
X103148190Y-128370666D01*
X103167238Y-128408761D01*
X103052952Y-127932571D02*
X103052952Y-127894476D01*
X103072000Y-127856380D01*
X103091047Y-127837333D01*
X103129142Y-127818285D01*
X103205333Y-127799238D01*
X103300571Y-127799238D01*
X103376761Y-127818285D01*
X103414857Y-127837333D01*
X103433904Y-127856380D01*
X103452952Y-127894476D01*
X103452952Y-127932571D01*
X103433904Y-127970666D01*
X103414857Y-127989714D01*
X103376761Y-128008761D01*
X103300571Y-128027809D01*
X103205333Y-128027809D01*
X103129142Y-128008761D01*
X103091047Y-127989714D01*
X103072000Y-127970666D01*
X103052952Y-127932571D01*
G04 #@! TO.C,C9*
D11*
X101829142Y-131070666D02*
X101876761Y-131118285D01*
X101924380Y-131261142D01*
X101924380Y-131356380D01*
X101876761Y-131499238D01*
X101781523Y-131594476D01*
X101686285Y-131642095D01*
X101495809Y-131689714D01*
X101352952Y-131689714D01*
X101162476Y-131642095D01*
X101067238Y-131594476D01*
X100972000Y-131499238D01*
X100924380Y-131356380D01*
X100924380Y-131261142D01*
X100972000Y-131118285D01*
X101019619Y-131070666D01*
X101924380Y-130594476D02*
X101924380Y-130404000D01*
X101876761Y-130308761D01*
X101829142Y-130261142D01*
X101686285Y-130165904D01*
X101495809Y-130118285D01*
X101114857Y-130118285D01*
X101019619Y-130165904D01*
X100972000Y-130213523D01*
X100924380Y-130308761D01*
X100924380Y-130499238D01*
X100972000Y-130594476D01*
X101019619Y-130642095D01*
X101114857Y-130689714D01*
X101352952Y-130689714D01*
X101448190Y-130642095D01*
X101495809Y-130594476D01*
X101543428Y-130499238D01*
X101543428Y-130308761D01*
X101495809Y-130213523D01*
X101448190Y-130165904D01*
X101352952Y-130118285D01*
D14*
X101614857Y-128370666D02*
X101633904Y-128389714D01*
X101652952Y-128446857D01*
X101652952Y-128484952D01*
X101633904Y-128542095D01*
X101595809Y-128580190D01*
X101557714Y-128599238D01*
X101481523Y-128618285D01*
X101424380Y-128618285D01*
X101348190Y-128599238D01*
X101310095Y-128580190D01*
X101272000Y-128542095D01*
X101252952Y-128484952D01*
X101252952Y-128446857D01*
X101272000Y-128389714D01*
X101291047Y-128370666D01*
X101652952Y-128180190D02*
X101652952Y-128104000D01*
X101633904Y-128065904D01*
X101614857Y-128046857D01*
X101557714Y-128008761D01*
X101481523Y-127989714D01*
X101329142Y-127989714D01*
X101291047Y-128008761D01*
X101272000Y-128027809D01*
X101252952Y-128065904D01*
X101252952Y-128142095D01*
X101272000Y-128180190D01*
X101291047Y-128199238D01*
X101329142Y-128218285D01*
X101424380Y-128218285D01*
X101462476Y-128199238D01*
X101481523Y-128180190D01*
X101500571Y-128142095D01*
X101500571Y-128065904D01*
X101481523Y-128027809D01*
X101462476Y-128008761D01*
X101424380Y-127989714D01*
G04 #@! TO.C,C8*
D11*
X105429142Y-138270666D02*
X105476761Y-138318285D01*
X105524380Y-138461142D01*
X105524380Y-138556380D01*
X105476761Y-138699238D01*
X105381523Y-138794476D01*
X105286285Y-138842095D01*
X105095809Y-138889714D01*
X104952952Y-138889714D01*
X104762476Y-138842095D01*
X104667238Y-138794476D01*
X104572000Y-138699238D01*
X104524380Y-138556380D01*
X104524380Y-138461142D01*
X104572000Y-138318285D01*
X104619619Y-138270666D01*
X104952952Y-137699238D02*
X104905333Y-137794476D01*
X104857714Y-137842095D01*
X104762476Y-137889714D01*
X104714857Y-137889714D01*
X104619619Y-137842095D01*
X104572000Y-137794476D01*
X104524380Y-137699238D01*
X104524380Y-137508761D01*
X104572000Y-137413523D01*
X104619619Y-137365904D01*
X104714857Y-137318285D01*
X104762476Y-137318285D01*
X104857714Y-137365904D01*
X104905333Y-137413523D01*
X104952952Y-137508761D01*
X104952952Y-137699238D01*
X105000571Y-137794476D01*
X105048190Y-137842095D01*
X105143428Y-137889714D01*
X105333904Y-137889714D01*
X105429142Y-137842095D01*
X105476761Y-137794476D01*
X105524380Y-137699238D01*
X105524380Y-137508761D01*
X105476761Y-137413523D01*
X105429142Y-137365904D01*
X105333904Y-137318285D01*
X105143428Y-137318285D01*
X105048190Y-137365904D01*
X105000571Y-137413523D01*
X104952952Y-137508761D01*
D14*
X105214857Y-135370666D02*
X105233904Y-135389714D01*
X105252952Y-135446857D01*
X105252952Y-135484952D01*
X105233904Y-135542095D01*
X105195809Y-135580190D01*
X105157714Y-135599238D01*
X105081523Y-135618285D01*
X105024380Y-135618285D01*
X104948190Y-135599238D01*
X104910095Y-135580190D01*
X104872000Y-135542095D01*
X104852952Y-135484952D01*
X104852952Y-135446857D01*
X104872000Y-135389714D01*
X104891047Y-135370666D01*
X105024380Y-135142095D02*
X105005333Y-135180190D01*
X104986285Y-135199238D01*
X104948190Y-135218285D01*
X104929142Y-135218285D01*
X104891047Y-135199238D01*
X104872000Y-135180190D01*
X104852952Y-135142095D01*
X104852952Y-135065904D01*
X104872000Y-135027809D01*
X104891047Y-135008761D01*
X104929142Y-134989714D01*
X104948190Y-134989714D01*
X104986285Y-135008761D01*
X105005333Y-135027809D01*
X105024380Y-135065904D01*
X105024380Y-135142095D01*
X105043428Y-135180190D01*
X105062476Y-135199238D01*
X105100571Y-135218285D01*
X105176761Y-135218285D01*
X105214857Y-135199238D01*
X105233904Y-135180190D01*
X105252952Y-135142095D01*
X105252952Y-135065904D01*
X105233904Y-135027809D01*
X105214857Y-135008761D01*
X105176761Y-134989714D01*
X105100571Y-134989714D01*
X105062476Y-135008761D01*
X105043428Y-135027809D01*
X105024380Y-135065904D01*
G04 #@! TO.C,C7*
D11*
X101629142Y-102470666D02*
X101676761Y-102518285D01*
X101724380Y-102661142D01*
X101724380Y-102756380D01*
X101676761Y-102899238D01*
X101581523Y-102994476D01*
X101486285Y-103042095D01*
X101295809Y-103089714D01*
X101152952Y-103089714D01*
X100962476Y-103042095D01*
X100867238Y-102994476D01*
X100772000Y-102899238D01*
X100724380Y-102756380D01*
X100724380Y-102661142D01*
X100772000Y-102518285D01*
X100819619Y-102470666D01*
X100724380Y-102137333D02*
X100724380Y-101470666D01*
X101724380Y-101899238D01*
D14*
X101214857Y-99770666D02*
X101233904Y-99789714D01*
X101252952Y-99846857D01*
X101252952Y-99884952D01*
X101233904Y-99942095D01*
X101195809Y-99980190D01*
X101157714Y-99999238D01*
X101081523Y-100018285D01*
X101024380Y-100018285D01*
X100948190Y-99999238D01*
X100910095Y-99980190D01*
X100872000Y-99942095D01*
X100852952Y-99884952D01*
X100852952Y-99846857D01*
X100872000Y-99789714D01*
X100891047Y-99770666D01*
X100852952Y-99637333D02*
X100852952Y-99370666D01*
X101252952Y-99542095D01*
G04 #@! TO.C,C6*
D11*
X58948142Y-132041666D02*
X58995761Y-132089285D01*
X59043380Y-132232142D01*
X59043380Y-132327380D01*
X58995761Y-132470238D01*
X58900523Y-132565476D01*
X58805285Y-132613095D01*
X58614809Y-132660714D01*
X58471952Y-132660714D01*
X58281476Y-132613095D01*
X58186238Y-132565476D01*
X58091000Y-132470238D01*
X58043380Y-132327380D01*
X58043380Y-132232142D01*
X58091000Y-132089285D01*
X58138619Y-132041666D01*
X58043380Y-131184523D02*
X58043380Y-131375000D01*
X58091000Y-131470238D01*
X58138619Y-131517857D01*
X58281476Y-131613095D01*
X58471952Y-131660714D01*
X58852904Y-131660714D01*
X58948142Y-131613095D01*
X58995761Y-131565476D01*
X59043380Y-131470238D01*
X59043380Y-131279761D01*
X58995761Y-131184523D01*
X58948142Y-131136904D01*
X58852904Y-131089285D01*
X58614809Y-131089285D01*
X58519571Y-131136904D01*
X58471952Y-131184523D01*
X58424333Y-131279761D01*
X58424333Y-131470238D01*
X58471952Y-131565476D01*
X58519571Y-131613095D01*
X58614809Y-131660714D01*
D14*
X58733857Y-128941666D02*
X58752904Y-128960714D01*
X58771952Y-129017857D01*
X58771952Y-129055952D01*
X58752904Y-129113095D01*
X58714809Y-129151190D01*
X58676714Y-129170238D01*
X58600523Y-129189285D01*
X58543380Y-129189285D01*
X58467190Y-129170238D01*
X58429095Y-129151190D01*
X58391000Y-129113095D01*
X58371952Y-129055952D01*
X58371952Y-129017857D01*
X58391000Y-128960714D01*
X58410047Y-128941666D01*
X58371952Y-128598809D02*
X58371952Y-128675000D01*
X58391000Y-128713095D01*
X58410047Y-128732142D01*
X58467190Y-128770238D01*
X58543380Y-128789285D01*
X58695761Y-128789285D01*
X58733857Y-128770238D01*
X58752904Y-128751190D01*
X58771952Y-128713095D01*
X58771952Y-128636904D01*
X58752904Y-128598809D01*
X58733857Y-128579761D01*
X58695761Y-128560714D01*
X58600523Y-128560714D01*
X58562428Y-128579761D01*
X58543380Y-128598809D01*
X58524333Y-128636904D01*
X58524333Y-128713095D01*
X58543380Y-128751190D01*
X58562428Y-128770238D01*
X58600523Y-128789285D01*
G04 #@! TO.C,C5*
D11*
X66187142Y-132089666D02*
X66234761Y-132137285D01*
X66282380Y-132280142D01*
X66282380Y-132375380D01*
X66234761Y-132518238D01*
X66139523Y-132613476D01*
X66044285Y-132661095D01*
X65853809Y-132708714D01*
X65710952Y-132708714D01*
X65520476Y-132661095D01*
X65425238Y-132613476D01*
X65330000Y-132518238D01*
X65282380Y-132375380D01*
X65282380Y-132280142D01*
X65330000Y-132137285D01*
X65377619Y-132089666D01*
X65282380Y-131184904D02*
X65282380Y-131661095D01*
X65758571Y-131708714D01*
X65710952Y-131661095D01*
X65663333Y-131565857D01*
X65663333Y-131327761D01*
X65710952Y-131232523D01*
X65758571Y-131184904D01*
X65853809Y-131137285D01*
X66091904Y-131137285D01*
X66187142Y-131184904D01*
X66234761Y-131232523D01*
X66282380Y-131327761D01*
X66282380Y-131565857D01*
X66234761Y-131661095D01*
X66187142Y-131708714D01*
D14*
X65845857Y-128941666D02*
X65864904Y-128960714D01*
X65883952Y-129017857D01*
X65883952Y-129055952D01*
X65864904Y-129113095D01*
X65826809Y-129151190D01*
X65788714Y-129170238D01*
X65712523Y-129189285D01*
X65655380Y-129189285D01*
X65579190Y-129170238D01*
X65541095Y-129151190D01*
X65503000Y-129113095D01*
X65483952Y-129055952D01*
X65483952Y-129017857D01*
X65503000Y-128960714D01*
X65522047Y-128941666D01*
X65483952Y-128579761D02*
X65483952Y-128770238D01*
X65674428Y-128789285D01*
X65655380Y-128770238D01*
X65636333Y-128732142D01*
X65636333Y-128636904D01*
X65655380Y-128598809D01*
X65674428Y-128579761D01*
X65712523Y-128560714D01*
X65807761Y-128560714D01*
X65845857Y-128579761D01*
X65864904Y-128598809D01*
X65883952Y-128636904D01*
X65883952Y-128732142D01*
X65864904Y-128770238D01*
X65845857Y-128789285D01*
G04 #@! TO.C,C4*
D11*
X68146333Y-138470142D02*
X68098714Y-138517761D01*
X67955857Y-138565380D01*
X67860619Y-138565380D01*
X67717761Y-138517761D01*
X67622523Y-138422523D01*
X67574904Y-138327285D01*
X67527285Y-138136809D01*
X67527285Y-137993952D01*
X67574904Y-137803476D01*
X67622523Y-137708238D01*
X67717761Y-137613000D01*
X67860619Y-137565380D01*
X67955857Y-137565380D01*
X68098714Y-137613000D01*
X68146333Y-137660619D01*
X69003476Y-137898714D02*
X69003476Y-138565380D01*
X68765380Y-137517761D02*
X68527285Y-138232047D01*
X69146333Y-138232047D01*
D14*
X65446333Y-138255857D02*
X65427285Y-138274904D01*
X65370142Y-138293952D01*
X65332047Y-138293952D01*
X65274904Y-138274904D01*
X65236809Y-138236809D01*
X65217761Y-138198714D01*
X65198714Y-138122523D01*
X65198714Y-138065380D01*
X65217761Y-137989190D01*
X65236809Y-137951095D01*
X65274904Y-137913000D01*
X65332047Y-137893952D01*
X65370142Y-137893952D01*
X65427285Y-137913000D01*
X65446333Y-137932047D01*
X65789190Y-138027285D02*
X65789190Y-138293952D01*
X65693952Y-137874904D02*
X65598714Y-138160619D01*
X65846333Y-138160619D01*
G04 #@! TO.C,C3*
D11*
X68076333Y-115643142D02*
X68028714Y-115690761D01*
X67885857Y-115738380D01*
X67790619Y-115738380D01*
X67647761Y-115690761D01*
X67552523Y-115595523D01*
X67504904Y-115500285D01*
X67457285Y-115309809D01*
X67457285Y-115166952D01*
X67504904Y-114976476D01*
X67552523Y-114881238D01*
X67647761Y-114786000D01*
X67790619Y-114738380D01*
X67885857Y-114738380D01*
X68028714Y-114786000D01*
X68076333Y-114833619D01*
X68409666Y-114738380D02*
X69028714Y-114738380D01*
X68695380Y-115119333D01*
X68838238Y-115119333D01*
X68933476Y-115166952D01*
X68981095Y-115214571D01*
X69028714Y-115309809D01*
X69028714Y-115547904D01*
X68981095Y-115643142D01*
X68933476Y-115690761D01*
X68838238Y-115738380D01*
X68552523Y-115738380D01*
X68457285Y-115690761D01*
X68409666Y-115643142D01*
D14*
X68385857Y-117765666D02*
X68404904Y-117784714D01*
X68423952Y-117841857D01*
X68423952Y-117879952D01*
X68404904Y-117937095D01*
X68366809Y-117975190D01*
X68328714Y-117994238D01*
X68252523Y-118013285D01*
X68195380Y-118013285D01*
X68119190Y-117994238D01*
X68081095Y-117975190D01*
X68043000Y-117937095D01*
X68023952Y-117879952D01*
X68023952Y-117841857D01*
X68043000Y-117784714D01*
X68062047Y-117765666D01*
X68023952Y-117632333D02*
X68023952Y-117384714D01*
X68176333Y-117518047D01*
X68176333Y-117460904D01*
X68195380Y-117422809D01*
X68214428Y-117403761D01*
X68252523Y-117384714D01*
X68347761Y-117384714D01*
X68385857Y-117403761D01*
X68404904Y-117422809D01*
X68423952Y-117460904D01*
X68423952Y-117575190D01*
X68404904Y-117613285D01*
X68385857Y-117632333D01*
G04 #@! TO.C,C2*
D11*
X67949333Y-123644142D02*
X67901714Y-123691761D01*
X67758857Y-123739380D01*
X67663619Y-123739380D01*
X67520761Y-123691761D01*
X67425523Y-123596523D01*
X67377904Y-123501285D01*
X67330285Y-123310809D01*
X67330285Y-123167952D01*
X67377904Y-122977476D01*
X67425523Y-122882238D01*
X67520761Y-122787000D01*
X67663619Y-122739380D01*
X67758857Y-122739380D01*
X67901714Y-122787000D01*
X67949333Y-122834619D01*
X68330285Y-122834619D02*
X68377904Y-122787000D01*
X68473142Y-122739380D01*
X68711238Y-122739380D01*
X68806476Y-122787000D01*
X68854095Y-122834619D01*
X68901714Y-122929857D01*
X68901714Y-123025095D01*
X68854095Y-123167952D01*
X68282666Y-123739380D01*
X68901714Y-123739380D01*
D14*
X68385857Y-120940666D02*
X68404904Y-120959714D01*
X68423952Y-121016857D01*
X68423952Y-121054952D01*
X68404904Y-121112095D01*
X68366809Y-121150190D01*
X68328714Y-121169238D01*
X68252523Y-121188285D01*
X68195380Y-121188285D01*
X68119190Y-121169238D01*
X68081095Y-121150190D01*
X68043000Y-121112095D01*
X68023952Y-121054952D01*
X68023952Y-121016857D01*
X68043000Y-120959714D01*
X68062047Y-120940666D01*
X68062047Y-120788285D02*
X68043000Y-120769238D01*
X68023952Y-120731142D01*
X68023952Y-120635904D01*
X68043000Y-120597809D01*
X68062047Y-120578761D01*
X68100142Y-120559714D01*
X68138238Y-120559714D01*
X68195380Y-120578761D01*
X68423952Y-120807333D01*
X68423952Y-120559714D01*
G04 #@! TO.C,C1*
D11*
X68600142Y-132978666D02*
X68647761Y-133026285D01*
X68695380Y-133169142D01*
X68695380Y-133264380D01*
X68647761Y-133407238D01*
X68552523Y-133502476D01*
X68457285Y-133550095D01*
X68266809Y-133597714D01*
X68123952Y-133597714D01*
X67933476Y-133550095D01*
X67838238Y-133502476D01*
X67743000Y-133407238D01*
X67695380Y-133264380D01*
X67695380Y-133169142D01*
X67743000Y-133026285D01*
X67790619Y-132978666D01*
X68695380Y-132026285D02*
X68695380Y-132597714D01*
X68695380Y-132312000D02*
X67695380Y-132312000D01*
X67838238Y-132407238D01*
X67933476Y-132502476D01*
X67981095Y-132597714D01*
D17*
X68401714Y-129008333D02*
X68439809Y-129046428D01*
X68477904Y-129160714D01*
X68477904Y-129236904D01*
X68439809Y-129351190D01*
X68363619Y-129427380D01*
X68287428Y-129465476D01*
X68135047Y-129503571D01*
X68020761Y-129503571D01*
X67868380Y-129465476D01*
X67792190Y-129427380D01*
X67716000Y-129351190D01*
X67677904Y-129236904D01*
X67677904Y-129160714D01*
X67716000Y-129046428D01*
X67754095Y-129008333D01*
X68477904Y-128246428D02*
X68477904Y-128703571D01*
X68477904Y-128475000D02*
X67677904Y-128475000D01*
X67792190Y-128551190D01*
X67868380Y-128627380D01*
X67906476Y-128703571D01*
G04 #@! TD*
M02*
