G04 #@! TF.GenerationSoftware,KiCad,Pcbnew,(5.1.12-1-10_14)*
G04 #@! TF.CreationDate,2021-12-30T21:01:29-05:00*
G04 #@! TF.ProjectId,blinky,626c696e-6b79-42e6-9b69-6361645f7063,rev?*
G04 #@! TF.SameCoordinates,Original*
G04 #@! TF.FileFunction,Legend,Bot*
G04 #@! TF.FilePolarity,Positive*
%FSLAX46Y46*%
G04 Gerber Fmt 4.6, Leading zero omitted, Abs format (unit mm)*
G04 Created by KiCad (PCBNEW (5.1.12-1-10_14)) date 2021-12-30 21:01:29*
%MOMM*%
%LPD*%
G01*
G04 APERTURE LIST*
%ADD10C,0.150000*%
%ADD11C,0.120000*%
%ADD12C,0.375000*%
G04 APERTURE END LIST*
D10*
X128329761Y-118142857D02*
X128377380Y-118285714D01*
X128377380Y-118523809D01*
X128329761Y-118619047D01*
X128282142Y-118666666D01*
X128186904Y-118714285D01*
X128091666Y-118714285D01*
X127996428Y-118666666D01*
X127948809Y-118619047D01*
X127901190Y-118523809D01*
X127853571Y-118333333D01*
X127805952Y-118238095D01*
X127758333Y-118190476D01*
X127663095Y-118142857D01*
X127567857Y-118142857D01*
X127472619Y-118190476D01*
X127425000Y-118238095D01*
X127377380Y-118333333D01*
X127377380Y-118571428D01*
X127425000Y-118714285D01*
X127853571Y-119142857D02*
X127853571Y-119476190D01*
X128377380Y-119619047D02*
X128377380Y-119142857D01*
X127377380Y-119142857D01*
X127377380Y-119619047D01*
X128282142Y-120619047D02*
X128329761Y-120571428D01*
X128377380Y-120428571D01*
X128377380Y-120333333D01*
X128329761Y-120190476D01*
X128234523Y-120095238D01*
X128139285Y-120047619D01*
X127948809Y-120000000D01*
X127805952Y-120000000D01*
X127615476Y-120047619D01*
X127520238Y-120095238D01*
X127425000Y-120190476D01*
X127377380Y-120333333D01*
X127377380Y-120428571D01*
X127425000Y-120571428D01*
X127472619Y-120619047D01*
X127377380Y-121238095D02*
X127377380Y-121428571D01*
X127425000Y-121523809D01*
X127520238Y-121619047D01*
X127710714Y-121666666D01*
X128044047Y-121666666D01*
X128234523Y-121619047D01*
X128329761Y-121523809D01*
X128377380Y-121428571D01*
X128377380Y-121238095D01*
X128329761Y-121142857D01*
X128234523Y-121047619D01*
X128044047Y-121000000D01*
X127710714Y-121000000D01*
X127520238Y-121047619D01*
X127425000Y-121142857D01*
X127377380Y-121238095D01*
X128377380Y-122095238D02*
X127377380Y-122095238D01*
X128377380Y-122666666D01*
X127377380Y-122666666D01*
X128377380Y-123142857D02*
X127377380Y-123142857D01*
X127377380Y-123380952D01*
X127425000Y-123523809D01*
X127520238Y-123619047D01*
X127615476Y-123666666D01*
X127805952Y-123714285D01*
X127948809Y-123714285D01*
X128139285Y-123666666D01*
X128234523Y-123619047D01*
X128329761Y-123523809D01*
X128377380Y-123380952D01*
X128377380Y-123142857D01*
X128377380Y-124904761D02*
X127377380Y-124904761D01*
X127377380Y-125285714D01*
X127425000Y-125380952D01*
X127472619Y-125428571D01*
X127567857Y-125476190D01*
X127710714Y-125476190D01*
X127805952Y-125428571D01*
X127853571Y-125380952D01*
X127901190Y-125285714D01*
X127901190Y-124904761D01*
X128377380Y-126476190D02*
X127901190Y-126142857D01*
X128377380Y-125904761D02*
X127377380Y-125904761D01*
X127377380Y-126285714D01*
X127425000Y-126380952D01*
X127472619Y-126428571D01*
X127567857Y-126476190D01*
X127710714Y-126476190D01*
X127805952Y-126428571D01*
X127853571Y-126380952D01*
X127901190Y-126285714D01*
X127901190Y-125904761D01*
X127377380Y-127095238D02*
X127377380Y-127285714D01*
X127425000Y-127380952D01*
X127520238Y-127476190D01*
X127710714Y-127523809D01*
X128044047Y-127523809D01*
X128234523Y-127476190D01*
X128329761Y-127380952D01*
X128377380Y-127285714D01*
X128377380Y-127095238D01*
X128329761Y-127000000D01*
X128234523Y-126904761D01*
X128044047Y-126857142D01*
X127710714Y-126857142D01*
X127520238Y-126904761D01*
X127425000Y-127000000D01*
X127377380Y-127095238D01*
X127377380Y-127809523D02*
X127377380Y-128380952D01*
X128377380Y-128095238D02*
X127377380Y-128095238D01*
X127377380Y-128904761D02*
X127377380Y-129095238D01*
X127425000Y-129190476D01*
X127520238Y-129285714D01*
X127710714Y-129333333D01*
X128044047Y-129333333D01*
X128234523Y-129285714D01*
X128329761Y-129190476D01*
X128377380Y-129095238D01*
X128377380Y-128904761D01*
X128329761Y-128809523D01*
X128234523Y-128714285D01*
X128044047Y-128666666D01*
X127710714Y-128666666D01*
X127520238Y-128714285D01*
X127425000Y-128809523D01*
X127377380Y-128904761D01*
X127377380Y-129619047D02*
X127377380Y-130190476D01*
X128377380Y-129904761D02*
X127377380Y-129904761D01*
X127901190Y-130714285D02*
X128377380Y-130714285D01*
X127377380Y-130380952D02*
X127901190Y-130714285D01*
X127377380Y-131047619D01*
X128377380Y-131380952D02*
X127377380Y-131380952D01*
X127377380Y-131761904D01*
X127425000Y-131857142D01*
X127472619Y-131904761D01*
X127567857Y-131952380D01*
X127710714Y-131952380D01*
X127805952Y-131904761D01*
X127853571Y-131857142D01*
X127901190Y-131761904D01*
X127901190Y-131380952D01*
X127853571Y-132380952D02*
X127853571Y-132714285D01*
X128377380Y-132857142D02*
X128377380Y-132380952D01*
X127377380Y-132380952D01*
X127377380Y-132857142D01*
X130027380Y-122357142D02*
X130027380Y-121785714D01*
X130027380Y-122071428D02*
X129027380Y-122071428D01*
X129170238Y-121976190D01*
X129265476Y-121880952D01*
X129313095Y-121785714D01*
X129122619Y-122738095D02*
X129075000Y-122785714D01*
X129027380Y-122880952D01*
X129027380Y-123119047D01*
X129075000Y-123214285D01*
X129122619Y-123261904D01*
X129217857Y-123309523D01*
X129313095Y-123309523D01*
X129455952Y-123261904D01*
X130027380Y-122690476D01*
X130027380Y-123309523D01*
X128979761Y-124452380D02*
X130265476Y-123595238D01*
X129027380Y-124690476D02*
X129027380Y-125309523D01*
X129408333Y-124976190D01*
X129408333Y-125119047D01*
X129455952Y-125214285D01*
X129503571Y-125261904D01*
X129598809Y-125309523D01*
X129836904Y-125309523D01*
X129932142Y-125261904D01*
X129979761Y-125214285D01*
X130027380Y-125119047D01*
X130027380Y-124833333D01*
X129979761Y-124738095D01*
X129932142Y-124690476D01*
X130027380Y-126261904D02*
X130027380Y-125690476D01*
X130027380Y-125976190D02*
X129027380Y-125976190D01*
X129170238Y-125880952D01*
X129265476Y-125785714D01*
X129313095Y-125690476D01*
X128979761Y-127404761D02*
X130265476Y-126547619D01*
X129122619Y-127690476D02*
X129075000Y-127738095D01*
X129027380Y-127833333D01*
X129027380Y-128071428D01*
X129075000Y-128166666D01*
X129122619Y-128214285D01*
X129217857Y-128261904D01*
X129313095Y-128261904D01*
X129455952Y-128214285D01*
X130027380Y-127642857D01*
X130027380Y-128261904D01*
X130027380Y-129214285D02*
X130027380Y-128642857D01*
X130027380Y-128928571D02*
X129027380Y-128928571D01*
X129170238Y-128833333D01*
X129265476Y-128738095D01*
X129313095Y-128642857D01*
D11*
X73000000Y-133000000D02*
X65000000Y-134500000D01*
X72000000Y-118500000D02*
X63500000Y-120000000D01*
X76250000Y-111750000D02*
X68000000Y-107000000D01*
X88000000Y-111250000D02*
X91000000Y-101250000D01*
X92750000Y-117750000D02*
X101250000Y-117000000D01*
X92750000Y-132000000D02*
X100000000Y-133750000D01*
X89000000Y-139000000D02*
X92250000Y-143500000D01*
X92750000Y-132000000D02*
X88250000Y-125750000D01*
X89000000Y-139000000D02*
X92750000Y-132000000D01*
X78500000Y-139500000D02*
X89000000Y-139000000D01*
X73000000Y-133000000D02*
X78500000Y-139500000D01*
X76500000Y-126250000D02*
X73000000Y-133000000D01*
X72000000Y-118500000D02*
X76250000Y-111750000D01*
X76500000Y-126250000D02*
X72000000Y-118500000D01*
X88250000Y-125750000D02*
X76500000Y-126250000D01*
X92750000Y-118000000D02*
X88250000Y-125750000D01*
X88000000Y-111250000D02*
X92750000Y-118000000D01*
X76250000Y-111750000D02*
X88000000Y-111250000D01*
X75500000Y-98500000D02*
X91000000Y-101500000D01*
X91000000Y-101500000D02*
X92250000Y-88000000D01*
X98250000Y-107750000D02*
X91000000Y-101500000D01*
X98250000Y-107750000D02*
X107250000Y-100250000D01*
X102750000Y-121750000D02*
X98250000Y-107750000D01*
X102750000Y-121750000D02*
X114000000Y-120750000D01*
X102500000Y-129250000D02*
X102750000Y-121750000D01*
X102500000Y-129250000D02*
X113500000Y-130500000D01*
X96500000Y-140750000D02*
X102500000Y-129250000D01*
X96500000Y-140750000D02*
X106250000Y-147750000D01*
X88000000Y-146250000D02*
X96500000Y-140750000D01*
X88000000Y-146250000D02*
X93750000Y-158000000D01*
X78500000Y-146750000D02*
X88000000Y-146250000D01*
X78500000Y-146750000D02*
X75250000Y-160000000D01*
X68750000Y-142000000D02*
X78500000Y-146750000D01*
X68750000Y-142000000D02*
X57500000Y-147500000D01*
X63500000Y-131000000D02*
X68750000Y-142000000D01*
X63500000Y-131000000D02*
X51000000Y-134250000D01*
X63500000Y-120000000D02*
X63500000Y-131000000D01*
X63500000Y-120000000D02*
X50250000Y-115500000D01*
X68000000Y-107000000D02*
X63500000Y-120000000D01*
X68000000Y-107000000D02*
X57500000Y-98750000D01*
X75500000Y-98500000D02*
X68000000Y-107000000D01*
X74000000Y-87000000D02*
X75500000Y-98500000D01*
D10*
X87528571Y-92952380D02*
X87290476Y-93952380D01*
X87100000Y-93238095D01*
X86909523Y-93952380D01*
X86671428Y-92952380D01*
X86338095Y-93666666D02*
X85861904Y-93666666D01*
X86433333Y-93952380D02*
X86100000Y-92952380D01*
X85766666Y-93952380D01*
X85433333Y-93952380D02*
X85433333Y-92952380D01*
X84861904Y-93952380D02*
X85290476Y-93380952D01*
X84861904Y-92952380D02*
X85433333Y-93523809D01*
X84433333Y-93952380D02*
X84433333Y-92952380D01*
X83957142Y-93952380D02*
X83957142Y-92952380D01*
X83385714Y-93952380D01*
X83385714Y-92952380D01*
X82385714Y-93000000D02*
X82480952Y-92952380D01*
X82623809Y-92952380D01*
X82766666Y-93000000D01*
X82861904Y-93095238D01*
X82909523Y-93190476D01*
X82957142Y-93380952D01*
X82957142Y-93523809D01*
X82909523Y-93714285D01*
X82861904Y-93809523D01*
X82766666Y-93904761D01*
X82623809Y-93952380D01*
X82528571Y-93952380D01*
X82385714Y-93904761D01*
X82338095Y-93857142D01*
X82338095Y-93523809D01*
X82528571Y-93523809D01*
X81147619Y-93952380D02*
X81147619Y-92952380D01*
X80909523Y-92952380D01*
X80766666Y-93000000D01*
X80671428Y-93095238D01*
X80623809Y-93190476D01*
X80576190Y-93380952D01*
X80576190Y-93523809D01*
X80623809Y-93714285D01*
X80671428Y-93809523D01*
X80766666Y-93904761D01*
X80909523Y-93952380D01*
X81147619Y-93952380D01*
X79576190Y-93952380D02*
X79909523Y-93476190D01*
X80147619Y-93952380D02*
X80147619Y-92952380D01*
X79766666Y-92952380D01*
X79671428Y-93000000D01*
X79623809Y-93047619D01*
X79576190Y-93142857D01*
X79576190Y-93285714D01*
X79623809Y-93380952D01*
X79671428Y-93428571D01*
X79766666Y-93476190D01*
X80147619Y-93476190D01*
X79147619Y-93428571D02*
X78814285Y-93428571D01*
X78671428Y-93952380D02*
X79147619Y-93952380D01*
X79147619Y-92952380D01*
X78671428Y-92952380D01*
X78290476Y-93666666D02*
X77814285Y-93666666D01*
X78385714Y-93952380D02*
X78052380Y-92952380D01*
X77719047Y-93952380D01*
X77385714Y-93952380D02*
X77385714Y-92952380D01*
X77052380Y-93666666D01*
X76719047Y-92952380D01*
X76719047Y-93952380D01*
X76290476Y-93904761D02*
X76147619Y-93952380D01*
X75909523Y-93952380D01*
X75814285Y-93904761D01*
X75766666Y-93857142D01*
X75719047Y-93761904D01*
X75719047Y-93666666D01*
X75766666Y-93571428D01*
X75814285Y-93523809D01*
X75909523Y-93476190D01*
X76100000Y-93428571D01*
X76195238Y-93380952D01*
X76242857Y-93333333D01*
X76290476Y-93238095D01*
X76290476Y-93142857D01*
X76242857Y-93047619D01*
X76195238Y-93000000D01*
X76100000Y-92952380D01*
X75861904Y-92952380D01*
X75719047Y-93000000D01*
D12*
X71473214Y-109678571D02*
X71544642Y-109607142D01*
X71616071Y-109392857D01*
X71616071Y-109250000D01*
X71544642Y-109035714D01*
X71401785Y-108892857D01*
X71258928Y-108821428D01*
X70973214Y-108750000D01*
X70758928Y-108750000D01*
X70473214Y-108821428D01*
X70330357Y-108892857D01*
X70187500Y-109035714D01*
X70116071Y-109250000D01*
X70116071Y-109392857D01*
X70187500Y-109607142D01*
X70258928Y-109678571D01*
X71616071Y-111178571D02*
X70901785Y-110678571D01*
X71616071Y-110321428D02*
X70116071Y-110321428D01*
X70116071Y-110892857D01*
X70187500Y-111035714D01*
X70258928Y-111107142D01*
X70401785Y-111178571D01*
X70616071Y-111178571D01*
X70758928Y-111107142D01*
X70830357Y-111035714D01*
X70901785Y-110892857D01*
X70901785Y-110321428D01*
X70258928Y-111750000D02*
X70187500Y-111821428D01*
X70116071Y-111964285D01*
X70116071Y-112321428D01*
X70187500Y-112464285D01*
X70258928Y-112535714D01*
X70401785Y-112607142D01*
X70544642Y-112607142D01*
X70758928Y-112535714D01*
X71616071Y-111678571D01*
X71616071Y-112607142D01*
X70116071Y-113535714D02*
X70116071Y-113678571D01*
X70187500Y-113821428D01*
X70258928Y-113892857D01*
X70401785Y-113964285D01*
X70687500Y-114035714D01*
X71044642Y-114035714D01*
X71330357Y-113964285D01*
X71473214Y-113892857D01*
X71544642Y-113821428D01*
X71616071Y-113678571D01*
X71616071Y-113535714D01*
X71544642Y-113392857D01*
X71473214Y-113321428D01*
X71330357Y-113250000D01*
X71044642Y-113178571D01*
X70687500Y-113178571D01*
X70401785Y-113250000D01*
X70258928Y-113321428D01*
X70187500Y-113392857D01*
X70116071Y-113535714D01*
X70116071Y-114535714D02*
X70116071Y-115464285D01*
X70687500Y-114964285D01*
X70687500Y-115178571D01*
X70758928Y-115321428D01*
X70830357Y-115392857D01*
X70973214Y-115464285D01*
X71330357Y-115464285D01*
X71473214Y-115392857D01*
X71544642Y-115321428D01*
X71616071Y-115178571D01*
X71616071Y-114750000D01*
X71544642Y-114607142D01*
X71473214Y-114535714D01*
X70258928Y-116035714D02*
X70187500Y-116107142D01*
X70116071Y-116250000D01*
X70116071Y-116607142D01*
X70187500Y-116750000D01*
X70258928Y-116821428D01*
X70401785Y-116892857D01*
X70544642Y-116892857D01*
X70758928Y-116821428D01*
X71616071Y-115964285D01*
X71616071Y-116892857D01*
X70830357Y-119178571D02*
X70901785Y-119392857D01*
X70973214Y-119464285D01*
X71116071Y-119535714D01*
X71330357Y-119535714D01*
X71473214Y-119464285D01*
X71544642Y-119392857D01*
X71616071Y-119250000D01*
X71616071Y-118678571D01*
X70116071Y-118678571D01*
X70116071Y-119178571D01*
X70187500Y-119321428D01*
X70258928Y-119392857D01*
X70401785Y-119464285D01*
X70544642Y-119464285D01*
X70687500Y-119392857D01*
X70758928Y-119321428D01*
X70830357Y-119178571D01*
X70830357Y-118678571D01*
X71187500Y-120107142D02*
X71187500Y-120821428D01*
X71616071Y-119964285D02*
X70116071Y-120464285D01*
X71616071Y-120964285D01*
X70116071Y-121250000D02*
X70116071Y-122107142D01*
X71616071Y-121678571D02*
X70116071Y-121678571D01*
X70116071Y-122392857D02*
X70116071Y-123250000D01*
X71616071Y-122821428D02*
X70116071Y-122821428D01*
X70830357Y-123750000D02*
X70830357Y-124250000D01*
X71616071Y-124464285D02*
X71616071Y-123750000D01*
X70116071Y-123750000D01*
X70116071Y-124464285D01*
X71616071Y-125964285D02*
X70901785Y-125464285D01*
X71616071Y-125107142D02*
X70116071Y-125107142D01*
X70116071Y-125678571D01*
X70187500Y-125821428D01*
X70258928Y-125892857D01*
X70401785Y-125964285D01*
X70616071Y-125964285D01*
X70758928Y-125892857D01*
X70830357Y-125821428D01*
X70901785Y-125678571D01*
X70901785Y-125107142D01*
X70901785Y-126892857D02*
X71616071Y-126892857D01*
X70116071Y-126392857D02*
X70901785Y-126892857D01*
X70116071Y-127392857D01*
X73455357Y-111214285D02*
X73455357Y-110714285D01*
X74241071Y-110714285D02*
X72741071Y-110714285D01*
X72741071Y-111428571D01*
X74241071Y-112714285D02*
X74241071Y-112000000D01*
X72741071Y-112000000D01*
X73812500Y-113142857D02*
X73812500Y-113857142D01*
X74241071Y-113000000D02*
X72741071Y-113500000D01*
X74241071Y-114000000D01*
X72741071Y-114285714D02*
X72741071Y-115142857D01*
X74241071Y-114714285D02*
X72741071Y-114714285D01*
X74169642Y-116714285D02*
X74241071Y-116928571D01*
X74241071Y-117285714D01*
X74169642Y-117428571D01*
X74098214Y-117500000D01*
X73955357Y-117571428D01*
X73812500Y-117571428D01*
X73669642Y-117500000D01*
X73598214Y-117428571D01*
X73526785Y-117285714D01*
X73455357Y-117000000D01*
X73383928Y-116857142D01*
X73312500Y-116785714D01*
X73169642Y-116714285D01*
X73026785Y-116714285D01*
X72883928Y-116785714D01*
X72812500Y-116857142D01*
X72741071Y-117000000D01*
X72741071Y-117357142D01*
X72812500Y-117571428D01*
X74241071Y-118214285D02*
X72741071Y-118214285D01*
X74241071Y-118928571D02*
X72741071Y-118928571D01*
X72741071Y-119285714D01*
X72812500Y-119500000D01*
X72955357Y-119642857D01*
X73098214Y-119714285D01*
X73383928Y-119785714D01*
X73598214Y-119785714D01*
X73883928Y-119714285D01*
X74026785Y-119642857D01*
X74169642Y-119500000D01*
X74241071Y-119285714D01*
X74241071Y-118928571D01*
X73455357Y-120428571D02*
X73455357Y-120928571D01*
X74241071Y-121142857D02*
X74241071Y-120428571D01*
X72741071Y-120428571D01*
X72741071Y-121142857D01*
X72741071Y-122928571D02*
X73955357Y-122928571D01*
X74098214Y-123000000D01*
X74169642Y-123071428D01*
X74241071Y-123214285D01*
X74241071Y-123500000D01*
X74169642Y-123642857D01*
X74098214Y-123714285D01*
X73955357Y-123785714D01*
X72741071Y-123785714D01*
X74241071Y-124500000D02*
X72741071Y-124500000D01*
X72741071Y-125071428D01*
X72812500Y-125214285D01*
X72883928Y-125285714D01*
X73026785Y-125357142D01*
X73241071Y-125357142D01*
X73383928Y-125285714D01*
X73455357Y-125214285D01*
X73526785Y-125071428D01*
X73526785Y-124500000D01*
D11*
G04 #@! TO.C,BT1*
X73249000Y-150513500D02*
X69299000Y-149073500D01*
X84419000Y-148433500D02*
X82339000Y-150513500D01*
X84419000Y-144933500D02*
X84419000Y-148433500D01*
X84419000Y-131033500D02*
X82339000Y-128953500D01*
X73249000Y-128953500D02*
X69299000Y-130393500D01*
X82339000Y-150513500D02*
X79879000Y-150513500D01*
X73879000Y-150513500D02*
X73249000Y-150513500D01*
X82339000Y-128953500D02*
X79879000Y-128953500D01*
X73879000Y-128953500D02*
X73249000Y-128953500D01*
X84419000Y-131033500D02*
X84419000Y-134533500D01*
X68312470Y-145736854D02*
G75*
G03*
X69299000Y-149073500I1716530J-1306646D01*
G01*
X69290831Y-130408256D02*
G75*
G03*
X68329000Y-133733500I738169J-2015244D01*
G01*
G04 #@! TO.C,BT2*
X90986500Y-106919000D02*
X94936500Y-108359000D01*
X79816500Y-108999000D02*
X81896500Y-106919000D01*
X79816500Y-112499000D02*
X79816500Y-108999000D01*
X79816500Y-126399000D02*
X81896500Y-128479000D01*
X90986500Y-128479000D02*
X94936500Y-127039000D01*
X81896500Y-106919000D02*
X84356500Y-106919000D01*
X90356500Y-106919000D02*
X90986500Y-106919000D01*
X81896500Y-128479000D02*
X84356500Y-128479000D01*
X90356500Y-128479000D02*
X90986500Y-128479000D01*
X79816500Y-126399000D02*
X79816500Y-122899000D01*
X95923030Y-111695646D02*
G75*
G03*
X94936500Y-108359000I-1716530J1306646D01*
G01*
X94944669Y-127024244D02*
G75*
G03*
X95906500Y-123699000I-738169J2015244D01*
G01*
G04 #@! TD*
M02*
