G04 #@! TF.GenerationSoftware,KiCad,Pcbnew,(5.1.12-1-10_14)*
G04 #@! TF.CreationDate,2021-12-30T21:01:29-05:00*
G04 #@! TF.ProjectId,blinky,626c696e-6b79-42e6-9b69-6361645f7063,rev?*
G04 #@! TF.SameCoordinates,Original*
G04 #@! TF.FileFunction,AssemblyDrawing,Bot*
%FSLAX46Y46*%
G04 Gerber Fmt 4.6, Leading zero omitted, Abs format (unit mm)*
G04 Created by KiCad (PCBNEW (5.1.12-1-10_14)) date 2021-12-30 21:01:29*
%MOMM*%
%LPD*%
G01*
G04 APERTURE LIST*
%ADD10C,0.100000*%
%ADD11C,0.150000*%
G04 APERTURE END LIST*
D10*
G04 #@! TO.C,BT1*
X69349000Y-148923500D02*
X73279000Y-150363500D01*
X73279000Y-150363500D02*
X82279000Y-150363500D01*
X82279000Y-150363500D02*
X84269000Y-148373500D01*
X84269000Y-148373500D02*
X84269000Y-131093500D01*
X84269000Y-131093500D02*
X82279000Y-129103500D01*
X82279000Y-129103500D02*
X73279000Y-129103500D01*
X73279000Y-129103500D02*
X69349000Y-130543500D01*
X69350118Y-130552774D02*
G75*
G03*
X68449000Y-133633500I678882J-1870726D01*
G01*
X68452957Y-145828352D02*
G75*
G03*
X68449000Y-133633500I-7933957J6094852D01*
G01*
X68440492Y-145829645D02*
G75*
G03*
X69349000Y-148923500I1588508J-1213855D01*
G01*
G04 #@! TO.C,BT2*
X94886500Y-108509000D02*
X90956500Y-107069000D01*
X90956500Y-107069000D02*
X81956500Y-107069000D01*
X81956500Y-107069000D02*
X79966500Y-109059000D01*
X79966500Y-109059000D02*
X79966500Y-126339000D01*
X79966500Y-126339000D02*
X81956500Y-128329000D01*
X81956500Y-128329000D02*
X90956500Y-128329000D01*
X90956500Y-128329000D02*
X94886500Y-126889000D01*
X94885382Y-126879726D02*
G75*
G03*
X95786500Y-123799000I-678882J1870726D01*
G01*
X95782543Y-111604148D02*
G75*
G03*
X95786500Y-123799000I7933957J-6094852D01*
G01*
X95795008Y-111602855D02*
G75*
G03*
X94886500Y-108509000I-1588508J1213855D01*
G01*
G04 #@! TD*
G04 #@! TO.C,BT1*
D11*
X65736142Y-137638261D02*
X65783761Y-137590642D01*
X65831380Y-137447785D01*
X65831380Y-137352547D01*
X65783761Y-137209690D01*
X65688523Y-137114452D01*
X65593285Y-137066833D01*
X65402809Y-137019214D01*
X65259952Y-137019214D01*
X65069476Y-137066833D01*
X64974238Y-137114452D01*
X64879000Y-137209690D01*
X64831380Y-137352547D01*
X64831380Y-137447785D01*
X64879000Y-137590642D01*
X64926619Y-137638261D01*
X65831380Y-138638261D02*
X65355190Y-138304928D01*
X65831380Y-138066833D02*
X64831380Y-138066833D01*
X64831380Y-138447785D01*
X64879000Y-138543023D01*
X64926619Y-138590642D01*
X65021857Y-138638261D01*
X65164714Y-138638261D01*
X65259952Y-138590642D01*
X65307571Y-138543023D01*
X65355190Y-138447785D01*
X65355190Y-138066833D01*
X64926619Y-139019214D02*
X64879000Y-139066833D01*
X64831380Y-139162071D01*
X64831380Y-139400166D01*
X64879000Y-139495404D01*
X64926619Y-139543023D01*
X65021857Y-139590642D01*
X65117095Y-139590642D01*
X65259952Y-139543023D01*
X65831380Y-138971595D01*
X65831380Y-139590642D01*
X64831380Y-140209690D02*
X64831380Y-140304928D01*
X64879000Y-140400166D01*
X64926619Y-140447785D01*
X65021857Y-140495404D01*
X65212333Y-140543023D01*
X65450428Y-140543023D01*
X65640904Y-140495404D01*
X65736142Y-140447785D01*
X65783761Y-140400166D01*
X65831380Y-140304928D01*
X65831380Y-140209690D01*
X65783761Y-140114452D01*
X65736142Y-140066833D01*
X65640904Y-140019214D01*
X65450428Y-139971595D01*
X65212333Y-139971595D01*
X65021857Y-140019214D01*
X64926619Y-140066833D01*
X64879000Y-140114452D01*
X64831380Y-140209690D01*
X64831380Y-140876357D02*
X64831380Y-141495404D01*
X65212333Y-141162071D01*
X65212333Y-141304928D01*
X65259952Y-141400166D01*
X65307571Y-141447785D01*
X65402809Y-141495404D01*
X65640904Y-141495404D01*
X65736142Y-141447785D01*
X65783761Y-141400166D01*
X65831380Y-141304928D01*
X65831380Y-141019214D01*
X65783761Y-140923976D01*
X65736142Y-140876357D01*
X64926619Y-141876357D02*
X64879000Y-141923976D01*
X64831380Y-142019214D01*
X64831380Y-142257309D01*
X64879000Y-142352547D01*
X64926619Y-142400166D01*
X65021857Y-142447785D01*
X65117095Y-142447785D01*
X65259952Y-142400166D01*
X65831380Y-141828738D01*
X65831380Y-142447785D01*
X79707571Y-138947785D02*
X79755190Y-139090642D01*
X79802809Y-139138261D01*
X79898047Y-139185880D01*
X80040904Y-139185880D01*
X80136142Y-139138261D01*
X80183761Y-139090642D01*
X80231380Y-138995404D01*
X80231380Y-138614452D01*
X79231380Y-138614452D01*
X79231380Y-138947785D01*
X79279000Y-139043023D01*
X79326619Y-139090642D01*
X79421857Y-139138261D01*
X79517095Y-139138261D01*
X79612333Y-139090642D01*
X79659952Y-139043023D01*
X79707571Y-138947785D01*
X79707571Y-138614452D01*
X79231380Y-139471595D02*
X79231380Y-140043023D01*
X80231380Y-139757309D02*
X79231380Y-139757309D01*
X80231380Y-140900166D02*
X80231380Y-140328738D01*
X80231380Y-140614452D02*
X79231380Y-140614452D01*
X79374238Y-140519214D01*
X79469476Y-140423976D01*
X79517095Y-140328738D01*
G04 #@! TO.C,BT2*
X99213642Y-115603761D02*
X99261261Y-115556142D01*
X99308880Y-115413285D01*
X99308880Y-115318047D01*
X99261261Y-115175190D01*
X99166023Y-115079952D01*
X99070785Y-115032333D01*
X98880309Y-114984714D01*
X98737452Y-114984714D01*
X98546976Y-115032333D01*
X98451738Y-115079952D01*
X98356500Y-115175190D01*
X98308880Y-115318047D01*
X98308880Y-115413285D01*
X98356500Y-115556142D01*
X98404119Y-115603761D01*
X99308880Y-116603761D02*
X98832690Y-116270428D01*
X99308880Y-116032333D02*
X98308880Y-116032333D01*
X98308880Y-116413285D01*
X98356500Y-116508523D01*
X98404119Y-116556142D01*
X98499357Y-116603761D01*
X98642214Y-116603761D01*
X98737452Y-116556142D01*
X98785071Y-116508523D01*
X98832690Y-116413285D01*
X98832690Y-116032333D01*
X98404119Y-116984714D02*
X98356500Y-117032333D01*
X98308880Y-117127571D01*
X98308880Y-117365666D01*
X98356500Y-117460904D01*
X98404119Y-117508523D01*
X98499357Y-117556142D01*
X98594595Y-117556142D01*
X98737452Y-117508523D01*
X99308880Y-116937095D01*
X99308880Y-117556142D01*
X98308880Y-118175190D02*
X98308880Y-118270428D01*
X98356500Y-118365666D01*
X98404119Y-118413285D01*
X98499357Y-118460904D01*
X98689833Y-118508523D01*
X98927928Y-118508523D01*
X99118404Y-118460904D01*
X99213642Y-118413285D01*
X99261261Y-118365666D01*
X99308880Y-118270428D01*
X99308880Y-118175190D01*
X99261261Y-118079952D01*
X99213642Y-118032333D01*
X99118404Y-117984714D01*
X98927928Y-117937095D01*
X98689833Y-117937095D01*
X98499357Y-117984714D01*
X98404119Y-118032333D01*
X98356500Y-118079952D01*
X98308880Y-118175190D01*
X98308880Y-118841857D02*
X98308880Y-119460904D01*
X98689833Y-119127571D01*
X98689833Y-119270428D01*
X98737452Y-119365666D01*
X98785071Y-119413285D01*
X98880309Y-119460904D01*
X99118404Y-119460904D01*
X99213642Y-119413285D01*
X99261261Y-119365666D01*
X99308880Y-119270428D01*
X99308880Y-118984714D01*
X99261261Y-118889476D01*
X99213642Y-118841857D01*
X98404119Y-119841857D02*
X98356500Y-119889476D01*
X98308880Y-119984714D01*
X98308880Y-120222809D01*
X98356500Y-120318047D01*
X98404119Y-120365666D01*
X98499357Y-120413285D01*
X98594595Y-120413285D01*
X98737452Y-120365666D01*
X99308880Y-119794238D01*
X99308880Y-120413285D01*
X84385071Y-116913285D02*
X84432690Y-117056142D01*
X84480309Y-117103761D01*
X84575547Y-117151380D01*
X84718404Y-117151380D01*
X84813642Y-117103761D01*
X84861261Y-117056142D01*
X84908880Y-116960904D01*
X84908880Y-116579952D01*
X83908880Y-116579952D01*
X83908880Y-116913285D01*
X83956500Y-117008523D01*
X84004119Y-117056142D01*
X84099357Y-117103761D01*
X84194595Y-117103761D01*
X84289833Y-117056142D01*
X84337452Y-117008523D01*
X84385071Y-116913285D01*
X84385071Y-116579952D01*
X83908880Y-117437095D02*
X83908880Y-118008523D01*
X84908880Y-117722809D02*
X83908880Y-117722809D01*
X84004119Y-118294238D02*
X83956500Y-118341857D01*
X83908880Y-118437095D01*
X83908880Y-118675190D01*
X83956500Y-118770428D01*
X84004119Y-118818047D01*
X84099357Y-118865666D01*
X84194595Y-118865666D01*
X84337452Y-118818047D01*
X84908880Y-118246619D01*
X84908880Y-118865666D01*
G04 #@! TD*
M02*
