M48
; DRILL file {KiCad (5.1.12-1-10_14)} date Thursday, December 30, 2021 at 09:01:34 PM
; FORMAT={-:-/ absolute / inch / decimal}
; #@! TF.CreationDate,2021-12-30T21:01:34-05:00
; #@! TF.GenerationSoftware,Kicad,Pcbnew,(5.1.12-1-10_14)
; #@! TF.FileFunction,NonPlated,1,4,NPTH
FMAT,2
INCH
T1C0.0177
T2C0.0197
T3C0.0276
T4C0.0454
%
G90
G05
T1
X1.8925Y-4.4295
X1.8997Y-4.4009
X1.9068Y-4.3722
X1.9088Y-5.3461
X1.914Y-4.3436
X1.9174Y-5.3744
X1.9211Y-4.3149
X1.926Y-5.4026
X1.9347Y-5.4309
X1.9433Y-5.4591
X1.9918Y-4.4543
X1.999Y-4.4256
X2.0061Y-4.397
X2.0067Y-5.3162
X2.0133Y-4.3683
X2.0153Y-5.3444
X2.0204Y-4.3397
X2.0239Y-5.3727
X2.0326Y-5.4009
X2.0412Y-5.4292
X4.4062Y-5.4361
X4.4148Y-5.4078
X4.4235Y-5.3796
X4.4265Y-4.3374
X4.4321Y-5.3514
X4.4341Y-4.3659
X4.4407Y-5.3231
X4.4418Y-4.3944
X4.4494Y-4.423
X4.4571Y-4.4515
X4.5041Y-5.466
X4.5127Y-5.4378
X4.5213Y-5.4095
X4.5254Y-4.3109
X4.53Y-5.3813
X4.533Y-4.3394
X4.5386Y-5.353
X4.5406Y-4.3679
X4.5483Y-4.3965
X4.5559Y-4.425
T2
X1.8997Y-4.4009
X1.9347Y-5.4309
X1.999Y-4.4256
X2.0326Y-5.4009
X4.4148Y-5.4078
X4.4494Y-4.423
X4.5127Y-5.4378
X4.5483Y-4.3965
T3
X2.5524Y-5.9937
X2.5923Y-6.0238
X2.6323Y-6.0539
X2.6722Y-6.084
X2.7121Y-6.1141
T4
X1.7412Y-2.9252
X1.7412Y-6.1929
X5.1664Y-2.9252
X5.1664Y-6.1929
T0
M30
