M48
; DRILL file {KiCad (5.1.12-1-10_14)} date Thursday, December 30, 2021 at 09:01:34 PM
; FORMAT={-:-/ absolute / inch / decimal}
; #@! TF.CreationDate,2021-12-30T21:01:34-05:00
; #@! TF.GenerationSoftware,Kicad,Pcbnew,(5.1.12-1-10_14)
; #@! TF.FileFunction,Plated,1,4,PTH
FMAT,2
INCH
T1C0.0118
T2C0.0157
T3C0.0197
T4C0.0394
T5C0.0984
%
G90
G05
T1
X2.2638Y-4.5591
X2.2717Y-4.9438
X2.2717Y-4.9738
X2.5118Y-6.0118
X2.6181Y-5.6339
X2.6339Y-4.6142
X2.6339Y-4.6457
X2.6378Y-5.9921
X2.6614Y-5.9055
X2.6693Y-5.9606
X2.689Y-6.0354
X2.7087Y-6.0669
X2.7367Y-5.9338
X2.867Y-4.2789
X2.867Y-4.384
X2.867Y-4.4891
X2.867Y-4.5943
X2.867Y-4.6994
X2.867Y-4.8045
X2.867Y-4.9096
X2.867Y-5.0147
X2.867Y-5.1198
X2.867Y-5.225
X2.867Y-5.3301
X2.867Y-5.4352
X2.867Y-5.5403
X2.867Y-5.6454
X2.867Y-5.7506
X2.9232Y-3.5531
X2.9722Y-4.2789
X2.9722Y-4.384
X2.9722Y-4.4891
X2.9722Y-4.5943
X2.9722Y-4.6994
X2.9722Y-4.8045
X2.9722Y-4.9096
X2.9722Y-5.0147
X2.9722Y-5.1198
X2.9722Y-5.225
X2.9722Y-5.3301
X2.9722Y-5.4352
X2.9722Y-5.5403
X2.9722Y-5.6454
X2.9722Y-5.7506
X3.0773Y-4.2789
X3.0773Y-4.384
X3.0773Y-4.4891
X3.0773Y-4.5943
X3.0773Y-4.6994
X3.0773Y-4.8045
X3.0773Y-4.9096
X3.0773Y-5.0147
X3.0773Y-5.1198
X3.0773Y-5.225
X3.0773Y-5.3301
X3.0773Y-5.4352
X3.0773Y-5.5403
X3.0773Y-5.6454
X3.0773Y-5.7506
X3.1824Y-4.2789
X3.1824Y-4.384
X3.1824Y-4.4891
X3.1824Y-4.5943
X3.1824Y-4.6994
X3.1824Y-4.8045
X3.1824Y-4.9096
X3.1824Y-5.0147
X3.1824Y-5.1198
X3.1824Y-5.225
X3.1824Y-5.3301
X3.1824Y-5.4352
X3.1824Y-5.5403
X3.1824Y-5.6454
X3.1824Y-5.7506
X3.2875Y-4.2789
X3.2875Y-4.384
X3.2875Y-4.4891
X3.2875Y-4.5943
X3.2875Y-4.6994
X3.2875Y-4.8045
X3.2875Y-4.9096
X3.2875Y-5.0147
X3.2875Y-5.1198
X3.2875Y-5.225
X3.2875Y-5.3301
X3.2875Y-5.4352
X3.2875Y-5.5403
X3.2875Y-5.6454
X3.2875Y-5.7506
X3.3926Y-4.2789
X3.3926Y-4.384
X3.3926Y-4.4891
X3.3926Y-4.5943
X3.3926Y-4.6994
X3.3926Y-4.8045
X3.3926Y-4.9096
X3.3926Y-5.0147
X3.3926Y-5.1198
X3.3926Y-5.225
X3.3926Y-5.3301
X3.3926Y-5.4352
X3.3926Y-5.5403
X3.3926Y-5.6454
X3.3926Y-5.7506
X3.4978Y-4.2789
X3.4978Y-4.384
X3.4978Y-4.4891
X3.4978Y-4.5943
X3.4978Y-4.6994
X3.4978Y-4.8045
X3.4978Y-4.9096
X3.4978Y-5.0147
X3.4978Y-5.1198
X3.4978Y-5.225
X3.4978Y-5.3301
X3.4978Y-5.4352
X3.4978Y-5.5403
X3.4978Y-5.6454
X3.4978Y-5.7506
X3.6029Y-4.2789
X3.6029Y-4.384
X3.6029Y-4.4891
X3.6029Y-4.5943
X3.6029Y-4.6994
X3.6029Y-4.8045
X3.6029Y-4.9096
X3.6029Y-5.0147
X3.6029Y-5.1198
X3.6029Y-5.225
X3.6029Y-5.3301
X3.6029Y-5.4352
X3.6029Y-5.5403
X3.6029Y-5.6454
X3.6029Y-5.7506
X3.7267Y-4.5388
X3.8767Y-5.2938
X3.8767Y-5.3438
X4.1603Y-4.2639
T2
X2.1876Y-4.6517
X2.2617Y-5.0438
X2.2617Y-5.1038
X2.308Y-4.5019
X2.4123Y-4.0907
X2.6117Y-5.3938
X2.6567Y-5.4738
X2.7042Y-5.1763
X2.7319Y-4.774
X2.7367Y-4.5213
X2.7367Y-4.6238
X3.743Y-4.76
X3.8829Y-5.6142
X3.928Y-4.9687
X3.9792Y-3.8545
X3.995Y-5.2482
X4.0658Y-5.2482
X4.1367Y-4.9726
X4.1839Y-5.1222
X4.2136Y-5.5157
T3
X3.1447Y-2.9429
X3.1663Y-2.8907
X3.1663Y-2.9951
X3.2185Y-2.8691
X3.2185Y-3.0167
X3.2707Y-2.8907
X3.2707Y-2.9951
X3.2923Y-2.9429
T4
X2.8317Y-4.0416
X2.8317Y-6.0388
X2.9317Y-4.0416
X2.9317Y-6.0388
X3.0317Y-4.0416
X3.0317Y-6.0388
X3.1317Y-4.0416
X3.1317Y-6.0388
X3.2317Y-4.0416
X3.2317Y-6.0388
X3.3317Y-4.0416
X3.3317Y-6.0388
X3.4317Y-4.0416
X3.4317Y-6.0388
X3.5317Y-4.0416
X3.5317Y-6.0388
X3.6317Y-4.0416
X3.6317Y-6.0388
T5
X3.2185Y-2.9429
T0
M30
