G04 #@! TF.GenerationSoftware,KiCad,Pcbnew,(5.1.12-1-10_14)*
G04 #@! TF.CreationDate,2021-12-30T21:01:29-05:00*
G04 #@! TF.ProjectId,blinky,626c696e-6b79-42e6-9b69-6361645f7063,rev?*
G04 #@! TF.SameCoordinates,Original*
G04 #@! TF.FileFunction,Soldermask,Top*
G04 #@! TF.FilePolarity,Negative*
%FSLAX46Y46*%
G04 Gerber Fmt 4.6, Leading zero omitted, Abs format (unit mm)*
G04 Created by KiCad (PCBNEW (5.1.12-1-10_14)) date 2021-12-30 21:01:29*
%MOMM*%
%LPD*%
G01*
G04 APERTURE LIST*
%ADD10C,0.100000*%
%ADD11C,0.500000*%
%ADD12C,0.800000*%
%ADD13C,5.000000*%
%ADD14C,1.300000*%
%ADD15C,3.000000*%
%ADD16R,1.750000X0.450000*%
%ADD17R,1.755639X0.609807*%
%ADD18R,0.550000X1.500000*%
%ADD19R,1.500000X0.550000*%
%ADD20R,2.692400X1.701800*%
%ADD21R,1.600000X1.000000*%
%ADD22R,0.700000X0.600000*%
%ADD23O,1.700000X1.700000*%
%ADD24R,1.700000X1.700000*%
%ADD25C,0.700000*%
%ADD26R,2.200000X0.900000*%
%ADD27C,0.254000*%
G04 APERTURE END LIST*
D10*
G04 #@! TO.C,D1.11*
G36*
X92358424Y-135042972D02*
G01*
X91792739Y-134477287D01*
X92358424Y-133911602D01*
X92924109Y-134477287D01*
X92358424Y-135042972D01*
G37*
G36*
X93523000Y-133896355D02*
G01*
X92957315Y-133330670D01*
X93523000Y-132764985D01*
X94088685Y-133330670D01*
X93523000Y-133896355D01*
G37*
G04 #@! TD*
G04 #@! TO.C,D1.12*
G36*
X92358424Y-137709638D02*
G01*
X91792739Y-137143953D01*
X92358424Y-136578268D01*
X92924109Y-137143953D01*
X92358424Y-137709638D01*
G37*
G36*
X93523000Y-136563021D02*
G01*
X92957315Y-135997336D01*
X93523000Y-135431651D01*
X94088685Y-135997336D01*
X93523000Y-136563021D01*
G37*
G04 #@! TD*
G04 #@! TO.C,D1.1*
G36*
X92358424Y-108376312D02*
G01*
X91792739Y-107810627D01*
X92358424Y-107244942D01*
X92924109Y-107810627D01*
X92358424Y-108376312D01*
G37*
G36*
X93523000Y-107229695D02*
G01*
X92957315Y-106664010D01*
X93523000Y-106098325D01*
X94088685Y-106664010D01*
X93523000Y-107229695D01*
G37*
G04 #@! TD*
G04 #@! TO.C,D1.10*
G36*
X92358424Y-132376306D02*
G01*
X91792739Y-131810621D01*
X92358424Y-131244936D01*
X92924109Y-131810621D01*
X92358424Y-132376306D01*
G37*
G36*
X93523000Y-131229689D02*
G01*
X92957315Y-130664004D01*
X93523000Y-130098319D01*
X94088685Y-130664004D01*
X93523000Y-131229689D01*
G37*
G04 #@! TD*
G04 #@! TO.C,D1.13*
G36*
X92358424Y-140376304D02*
G01*
X91792739Y-139810619D01*
X92358424Y-139244934D01*
X92924109Y-139810619D01*
X92358424Y-140376304D01*
G37*
G36*
X93523000Y-139229687D02*
G01*
X92957315Y-138664002D01*
X93523000Y-138098317D01*
X94088685Y-138664002D01*
X93523000Y-139229687D01*
G37*
G04 #@! TD*
G04 #@! TO.C,D1.14*
G36*
X92358424Y-143042970D02*
G01*
X91792739Y-142477285D01*
X92358424Y-141911600D01*
X92924109Y-142477285D01*
X92358424Y-143042970D01*
G37*
G36*
X93523000Y-141896353D02*
G01*
X92957315Y-141330668D01*
X93523000Y-140764983D01*
X94088685Y-141330668D01*
X93523000Y-141896353D01*
G37*
G04 #@! TD*
G04 #@! TO.C,D1.9*
G36*
X92358424Y-129709640D02*
G01*
X91792739Y-129143955D01*
X92358424Y-128578270D01*
X92924109Y-129143955D01*
X92358424Y-129709640D01*
G37*
G36*
X93523000Y-128563023D02*
G01*
X92957315Y-127997338D01*
X93523000Y-127431653D01*
X94088685Y-127997338D01*
X93523000Y-128563023D01*
G37*
G04 #@! TD*
G04 #@! TO.C,D1.8*
G36*
X92358424Y-127042974D02*
G01*
X91792739Y-126477289D01*
X92358424Y-125911604D01*
X92924109Y-126477289D01*
X92358424Y-127042974D01*
G37*
G36*
X93523000Y-125896357D02*
G01*
X92957315Y-125330672D01*
X93523000Y-124764987D01*
X94088685Y-125330672D01*
X93523000Y-125896357D01*
G37*
G04 #@! TD*
G04 #@! TO.C,D1.7*
G36*
X92358424Y-124376308D02*
G01*
X91792739Y-123810623D01*
X92358424Y-123244938D01*
X92924109Y-123810623D01*
X92358424Y-124376308D01*
G37*
G36*
X93523000Y-123229691D02*
G01*
X92957315Y-122664006D01*
X93523000Y-122098321D01*
X94088685Y-122664006D01*
X93523000Y-123229691D01*
G37*
G04 #@! TD*
G04 #@! TO.C,D1.6*
G36*
X92358424Y-121709642D02*
G01*
X91792739Y-121143957D01*
X92358424Y-120578272D01*
X92924109Y-121143957D01*
X92358424Y-121709642D01*
G37*
G36*
X93523000Y-120563025D02*
G01*
X92957315Y-119997340D01*
X93523000Y-119431655D01*
X94088685Y-119997340D01*
X93523000Y-120563025D01*
G37*
G04 #@! TD*
G04 #@! TO.C,D1.15*
G36*
X92358424Y-145709636D02*
G01*
X91792739Y-145143951D01*
X92358424Y-144578266D01*
X92924109Y-145143951D01*
X92358424Y-145709636D01*
G37*
G36*
X93523000Y-144563019D02*
G01*
X92957315Y-143997334D01*
X93523000Y-143431649D01*
X94088685Y-143997334D01*
X93523000Y-144563019D01*
G37*
G04 #@! TD*
G04 #@! TO.C,D1.5*
G36*
X92358424Y-119042976D02*
G01*
X91792739Y-118477291D01*
X92358424Y-117911606D01*
X92924109Y-118477291D01*
X92358424Y-119042976D01*
G37*
G36*
X93523000Y-117896359D02*
G01*
X92957315Y-117330674D01*
X93523000Y-116764989D01*
X94088685Y-117330674D01*
X93523000Y-117896359D01*
G37*
G04 #@! TD*
G04 #@! TO.C,D1.4*
G36*
X92358424Y-116376310D02*
G01*
X91792739Y-115810625D01*
X92358424Y-115244940D01*
X92924109Y-115810625D01*
X92358424Y-116376310D01*
G37*
G36*
X93523000Y-115229693D02*
G01*
X92957315Y-114664008D01*
X93523000Y-114098323D01*
X94088685Y-114664008D01*
X93523000Y-115229693D01*
G37*
G04 #@! TD*
G04 #@! TO.C,D1.3*
G36*
X92358424Y-113709644D02*
G01*
X91792739Y-113143959D01*
X92358424Y-112578274D01*
X92924109Y-113143959D01*
X92358424Y-113709644D01*
G37*
G36*
X93523000Y-112563027D02*
G01*
X92957315Y-111997342D01*
X93523000Y-111431657D01*
X94088685Y-111997342D01*
X93523000Y-112563027D01*
G37*
G04 #@! TD*
G04 #@! TO.C,D1.16*
G36*
X92358424Y-148376302D02*
G01*
X91792739Y-147810617D01*
X92358424Y-147244932D01*
X92924109Y-147810617D01*
X92358424Y-148376302D01*
G37*
G36*
X93523000Y-147229685D02*
G01*
X92957315Y-146664000D01*
X93523000Y-146098315D01*
X94088685Y-146664000D01*
X93523000Y-147229685D01*
G37*
G04 #@! TD*
G04 #@! TO.C,D1.2*
G36*
X92358424Y-111042978D02*
G01*
X91792739Y-110477293D01*
X92358424Y-109911608D01*
X92924109Y-110477293D01*
X92358424Y-111042978D01*
G37*
G36*
X93523000Y-109896361D02*
G01*
X92957315Y-109330676D01*
X93523000Y-108764991D01*
X94088685Y-109330676D01*
X93523000Y-109896361D01*
G37*
G04 #@! TD*
G04 #@! TO.C,D2.11*
G36*
X89688424Y-135042972D02*
G01*
X89122739Y-134477287D01*
X89688424Y-133911602D01*
X90254109Y-134477287D01*
X89688424Y-135042972D01*
G37*
G36*
X90853000Y-133896355D02*
G01*
X90287315Y-133330670D01*
X90853000Y-132764985D01*
X91418685Y-133330670D01*
X90853000Y-133896355D01*
G37*
G04 #@! TD*
G04 #@! TO.C,D2.14*
G36*
X89688424Y-143042970D02*
G01*
X89122739Y-142477285D01*
X89688424Y-141911600D01*
X90254109Y-142477285D01*
X89688424Y-143042970D01*
G37*
G36*
X90853000Y-141896353D02*
G01*
X90287315Y-141330668D01*
X90853000Y-140764983D01*
X91418685Y-141330668D01*
X90853000Y-141896353D01*
G37*
G04 #@! TD*
G04 #@! TO.C,D2.1*
G36*
X89688424Y-108376312D02*
G01*
X89122739Y-107810627D01*
X89688424Y-107244942D01*
X90254109Y-107810627D01*
X89688424Y-108376312D01*
G37*
G36*
X90853000Y-107229695D02*
G01*
X90287315Y-106664010D01*
X90853000Y-106098325D01*
X91418685Y-106664010D01*
X90853000Y-107229695D01*
G37*
G04 #@! TD*
G04 #@! TO.C,D2.2*
G36*
X89688424Y-111042978D02*
G01*
X89122739Y-110477293D01*
X89688424Y-109911608D01*
X90254109Y-110477293D01*
X89688424Y-111042978D01*
G37*
G36*
X90853000Y-109896361D02*
G01*
X90287315Y-109330676D01*
X90853000Y-108764991D01*
X91418685Y-109330676D01*
X90853000Y-109896361D01*
G37*
G04 #@! TD*
G04 #@! TO.C,D2.3*
G36*
X89688424Y-113709644D02*
G01*
X89122739Y-113143959D01*
X89688424Y-112578274D01*
X90254109Y-113143959D01*
X89688424Y-113709644D01*
G37*
G36*
X90853000Y-112563027D02*
G01*
X90287315Y-111997342D01*
X90853000Y-111431657D01*
X91418685Y-111997342D01*
X90853000Y-112563027D01*
G37*
G04 #@! TD*
G04 #@! TO.C,D2.13*
G36*
X89688424Y-140376304D02*
G01*
X89122739Y-139810619D01*
X89688424Y-139244934D01*
X90254109Y-139810619D01*
X89688424Y-140376304D01*
G37*
G36*
X90853000Y-139229687D02*
G01*
X90287315Y-138664002D01*
X90853000Y-138098317D01*
X91418685Y-138664002D01*
X90853000Y-139229687D01*
G37*
G04 #@! TD*
G04 #@! TO.C,D2.10*
G36*
X89688424Y-132376306D02*
G01*
X89122739Y-131810621D01*
X89688424Y-131244936D01*
X90254109Y-131810621D01*
X89688424Y-132376306D01*
G37*
G36*
X90853000Y-131229689D02*
G01*
X90287315Y-130664004D01*
X90853000Y-130098319D01*
X91418685Y-130664004D01*
X90853000Y-131229689D01*
G37*
G04 #@! TD*
G04 #@! TO.C,D2.15*
G36*
X89688424Y-145709636D02*
G01*
X89122739Y-145143951D01*
X89688424Y-144578266D01*
X90254109Y-145143951D01*
X89688424Y-145709636D01*
G37*
G36*
X90853000Y-144563019D02*
G01*
X90287315Y-143997334D01*
X90853000Y-143431649D01*
X91418685Y-143997334D01*
X90853000Y-144563019D01*
G37*
G04 #@! TD*
G04 #@! TO.C,D2.12*
G36*
X89688424Y-137709638D02*
G01*
X89122739Y-137143953D01*
X89688424Y-136578268D01*
X90254109Y-137143953D01*
X89688424Y-137709638D01*
G37*
G36*
X90853000Y-136563021D02*
G01*
X90287315Y-135997336D01*
X90853000Y-135431651D01*
X91418685Y-135997336D01*
X90853000Y-136563021D01*
G37*
G04 #@! TD*
G04 #@! TO.C,D2.4*
G36*
X89688424Y-116376310D02*
G01*
X89122739Y-115810625D01*
X89688424Y-115244940D01*
X90254109Y-115810625D01*
X89688424Y-116376310D01*
G37*
G36*
X90853000Y-115229693D02*
G01*
X90287315Y-114664008D01*
X90853000Y-114098323D01*
X91418685Y-114664008D01*
X90853000Y-115229693D01*
G37*
G04 #@! TD*
G04 #@! TO.C,D2.5*
G36*
X89688424Y-119042976D02*
G01*
X89122739Y-118477291D01*
X89688424Y-117911606D01*
X90254109Y-118477291D01*
X89688424Y-119042976D01*
G37*
G36*
X90853000Y-117896359D02*
G01*
X90287315Y-117330674D01*
X90853000Y-116764989D01*
X91418685Y-117330674D01*
X90853000Y-117896359D01*
G37*
G04 #@! TD*
G04 #@! TO.C,D2.6*
G36*
X89688424Y-121709642D02*
G01*
X89122739Y-121143957D01*
X89688424Y-120578272D01*
X90254109Y-121143957D01*
X89688424Y-121709642D01*
G37*
G36*
X90853000Y-120563025D02*
G01*
X90287315Y-119997340D01*
X90853000Y-119431655D01*
X91418685Y-119997340D01*
X90853000Y-120563025D01*
G37*
G04 #@! TD*
G04 #@! TO.C,D2.7*
G36*
X89688424Y-124376308D02*
G01*
X89122739Y-123810623D01*
X89688424Y-123244938D01*
X90254109Y-123810623D01*
X89688424Y-124376308D01*
G37*
G36*
X90853000Y-123229691D02*
G01*
X90287315Y-122664006D01*
X90853000Y-122098321D01*
X91418685Y-122664006D01*
X90853000Y-123229691D01*
G37*
G04 #@! TD*
G04 #@! TO.C,D2.8*
G36*
X89688424Y-127042974D02*
G01*
X89122739Y-126477289D01*
X89688424Y-125911604D01*
X90254109Y-126477289D01*
X89688424Y-127042974D01*
G37*
G36*
X90853000Y-125896357D02*
G01*
X90287315Y-125330672D01*
X90853000Y-124764987D01*
X91418685Y-125330672D01*
X90853000Y-125896357D01*
G37*
G04 #@! TD*
G04 #@! TO.C,D2.9*
G36*
X89688424Y-129709640D02*
G01*
X89122739Y-129143955D01*
X89688424Y-128578270D01*
X90254109Y-129143955D01*
X89688424Y-129709640D01*
G37*
G36*
X90853000Y-128563023D02*
G01*
X90287315Y-127997338D01*
X90853000Y-127431653D01*
X91418685Y-127997338D01*
X90853000Y-128563023D01*
G37*
G04 #@! TD*
G04 #@! TO.C,D2.16*
G36*
X89688424Y-148376302D02*
G01*
X89122739Y-147810617D01*
X89688424Y-147244932D01*
X90254109Y-147810617D01*
X89688424Y-148376302D01*
G37*
G36*
X90853000Y-147229685D02*
G01*
X90287315Y-146664000D01*
X90853000Y-146098315D01*
X91418685Y-146664000D01*
X90853000Y-147229685D01*
G37*
G04 #@! TD*
G04 #@! TO.C,D3.16*
G36*
X87018424Y-148376302D02*
G01*
X86452739Y-147810617D01*
X87018424Y-147244932D01*
X87584109Y-147810617D01*
X87018424Y-148376302D01*
G37*
G36*
X88183000Y-147229685D02*
G01*
X87617315Y-146664000D01*
X88183000Y-146098315D01*
X88748685Y-146664000D01*
X88183000Y-147229685D01*
G37*
G04 #@! TD*
G04 #@! TO.C,D3.11*
G36*
X87018424Y-135042972D02*
G01*
X86452739Y-134477287D01*
X87018424Y-133911602D01*
X87584109Y-134477287D01*
X87018424Y-135042972D01*
G37*
G36*
X88183000Y-133896355D02*
G01*
X87617315Y-133330670D01*
X88183000Y-132764985D01*
X88748685Y-133330670D01*
X88183000Y-133896355D01*
G37*
G04 #@! TD*
G04 #@! TO.C,D3.10*
G36*
X87018424Y-132376306D02*
G01*
X86452739Y-131810621D01*
X87018424Y-131244936D01*
X87584109Y-131810621D01*
X87018424Y-132376306D01*
G37*
G36*
X88183000Y-131229689D02*
G01*
X87617315Y-130664004D01*
X88183000Y-130098319D01*
X88748685Y-130664004D01*
X88183000Y-131229689D01*
G37*
G04 #@! TD*
G04 #@! TO.C,D3.9*
G36*
X87018424Y-129709640D02*
G01*
X86452739Y-129143955D01*
X87018424Y-128578270D01*
X87584109Y-129143955D01*
X87018424Y-129709640D01*
G37*
G36*
X88183000Y-128563023D02*
G01*
X87617315Y-127997338D01*
X88183000Y-127431653D01*
X88748685Y-127997338D01*
X88183000Y-128563023D01*
G37*
G04 #@! TD*
G04 #@! TO.C,D3.8*
G36*
X87018424Y-127042974D02*
G01*
X86452739Y-126477289D01*
X87018424Y-125911604D01*
X87584109Y-126477289D01*
X87018424Y-127042974D01*
G37*
G36*
X88183000Y-125896357D02*
G01*
X87617315Y-125330672D01*
X88183000Y-124764987D01*
X88748685Y-125330672D01*
X88183000Y-125896357D01*
G37*
G04 #@! TD*
G04 #@! TO.C,D3.7*
G36*
X87018424Y-124376308D02*
G01*
X86452739Y-123810623D01*
X87018424Y-123244938D01*
X87584109Y-123810623D01*
X87018424Y-124376308D01*
G37*
G36*
X88183000Y-123229691D02*
G01*
X87617315Y-122664006D01*
X88183000Y-122098321D01*
X88748685Y-122664006D01*
X88183000Y-123229691D01*
G37*
G04 #@! TD*
G04 #@! TO.C,D3.6*
G36*
X87018424Y-121709642D02*
G01*
X86452739Y-121143957D01*
X87018424Y-120578272D01*
X87584109Y-121143957D01*
X87018424Y-121709642D01*
G37*
G36*
X88183000Y-120563025D02*
G01*
X87617315Y-119997340D01*
X88183000Y-119431655D01*
X88748685Y-119997340D01*
X88183000Y-120563025D01*
G37*
G04 #@! TD*
G04 #@! TO.C,D3.15*
G36*
X87018424Y-145709636D02*
G01*
X86452739Y-145143951D01*
X87018424Y-144578266D01*
X87584109Y-145143951D01*
X87018424Y-145709636D01*
G37*
G36*
X88183000Y-144563019D02*
G01*
X87617315Y-143997334D01*
X88183000Y-143431649D01*
X88748685Y-143997334D01*
X88183000Y-144563019D01*
G37*
G04 #@! TD*
G04 #@! TO.C,D3.5*
G36*
X87018424Y-119042976D02*
G01*
X86452739Y-118477291D01*
X87018424Y-117911606D01*
X87584109Y-118477291D01*
X87018424Y-119042976D01*
G37*
G36*
X88183000Y-117896359D02*
G01*
X87617315Y-117330674D01*
X88183000Y-116764989D01*
X88748685Y-117330674D01*
X88183000Y-117896359D01*
G37*
G04 #@! TD*
G04 #@! TO.C,D3.4*
G36*
X87018424Y-116376310D02*
G01*
X86452739Y-115810625D01*
X87018424Y-115244940D01*
X87584109Y-115810625D01*
X87018424Y-116376310D01*
G37*
G36*
X88183000Y-115229693D02*
G01*
X87617315Y-114664008D01*
X88183000Y-114098323D01*
X88748685Y-114664008D01*
X88183000Y-115229693D01*
G37*
G04 #@! TD*
G04 #@! TO.C,D3.2*
G36*
X87018424Y-111042978D02*
G01*
X86452739Y-110477293D01*
X87018424Y-109911608D01*
X87584109Y-110477293D01*
X87018424Y-111042978D01*
G37*
G36*
X88183000Y-109896361D02*
G01*
X87617315Y-109330676D01*
X88183000Y-108764991D01*
X88748685Y-109330676D01*
X88183000Y-109896361D01*
G37*
G04 #@! TD*
G04 #@! TO.C,D3.1*
G36*
X87018424Y-108376312D02*
G01*
X86452739Y-107810627D01*
X87018424Y-107244942D01*
X87584109Y-107810627D01*
X87018424Y-108376312D01*
G37*
G36*
X88183000Y-107229695D02*
G01*
X87617315Y-106664010D01*
X88183000Y-106098325D01*
X88748685Y-106664010D01*
X88183000Y-107229695D01*
G37*
G04 #@! TD*
G04 #@! TO.C,D3.12*
G36*
X87018424Y-137709638D02*
G01*
X86452739Y-137143953D01*
X87018424Y-136578268D01*
X87584109Y-137143953D01*
X87018424Y-137709638D01*
G37*
G36*
X88183000Y-136563021D02*
G01*
X87617315Y-135997336D01*
X88183000Y-135431651D01*
X88748685Y-135997336D01*
X88183000Y-136563021D01*
G37*
G04 #@! TD*
G04 #@! TO.C,D3.13*
G36*
X87018424Y-140376304D02*
G01*
X86452739Y-139810619D01*
X87018424Y-139244934D01*
X87584109Y-139810619D01*
X87018424Y-140376304D01*
G37*
G36*
X88183000Y-139229687D02*
G01*
X87617315Y-138664002D01*
X88183000Y-138098317D01*
X88748685Y-138664002D01*
X88183000Y-139229687D01*
G37*
G04 #@! TD*
G04 #@! TO.C,D3.14*
G36*
X87018424Y-143042970D02*
G01*
X86452739Y-142477285D01*
X87018424Y-141911600D01*
X87584109Y-142477285D01*
X87018424Y-143042970D01*
G37*
G36*
X88183000Y-141896353D02*
G01*
X87617315Y-141330668D01*
X88183000Y-140764983D01*
X88748685Y-141330668D01*
X88183000Y-141896353D01*
G37*
G04 #@! TD*
G04 #@! TO.C,D4.16*
G36*
X84358424Y-148376302D02*
G01*
X83792739Y-147810617D01*
X84358424Y-147244932D01*
X84924109Y-147810617D01*
X84358424Y-148376302D01*
G37*
G36*
X85523000Y-147229685D02*
G01*
X84957315Y-146664000D01*
X85523000Y-146098315D01*
X86088685Y-146664000D01*
X85523000Y-147229685D01*
G37*
G04 #@! TD*
G04 #@! TO.C,D4.11*
G36*
X84358424Y-135042972D02*
G01*
X83792739Y-134477287D01*
X84358424Y-133911602D01*
X84924109Y-134477287D01*
X84358424Y-135042972D01*
G37*
G36*
X85523000Y-133896355D02*
G01*
X84957315Y-133330670D01*
X85523000Y-132764985D01*
X86088685Y-133330670D01*
X85523000Y-133896355D01*
G37*
G04 #@! TD*
G04 #@! TO.C,D4.10*
G36*
X84358424Y-132376306D02*
G01*
X83792739Y-131810621D01*
X84358424Y-131244936D01*
X84924109Y-131810621D01*
X84358424Y-132376306D01*
G37*
G36*
X85523000Y-131229689D02*
G01*
X84957315Y-130664004D01*
X85523000Y-130098319D01*
X86088685Y-130664004D01*
X85523000Y-131229689D01*
G37*
G04 #@! TD*
G04 #@! TO.C,D4.9*
G36*
X84358424Y-129709640D02*
G01*
X83792739Y-129143955D01*
X84358424Y-128578270D01*
X84924109Y-129143955D01*
X84358424Y-129709640D01*
G37*
G36*
X85523000Y-128563023D02*
G01*
X84957315Y-127997338D01*
X85523000Y-127431653D01*
X86088685Y-127997338D01*
X85523000Y-128563023D01*
G37*
G04 #@! TD*
G04 #@! TO.C,D4.8*
G36*
X84358424Y-127042974D02*
G01*
X83792739Y-126477289D01*
X84358424Y-125911604D01*
X84924109Y-126477289D01*
X84358424Y-127042974D01*
G37*
G36*
X85523000Y-125896357D02*
G01*
X84957315Y-125330672D01*
X85523000Y-124764987D01*
X86088685Y-125330672D01*
X85523000Y-125896357D01*
G37*
G04 #@! TD*
G04 #@! TO.C,D4.7*
G36*
X84358424Y-124376308D02*
G01*
X83792739Y-123810623D01*
X84358424Y-123244938D01*
X84924109Y-123810623D01*
X84358424Y-124376308D01*
G37*
G36*
X85523000Y-123229691D02*
G01*
X84957315Y-122664006D01*
X85523000Y-122098321D01*
X86088685Y-122664006D01*
X85523000Y-123229691D01*
G37*
G04 #@! TD*
G04 #@! TO.C,D4.6*
G36*
X84358424Y-121709642D02*
G01*
X83792739Y-121143957D01*
X84358424Y-120578272D01*
X84924109Y-121143957D01*
X84358424Y-121709642D01*
G37*
G36*
X85523000Y-120563025D02*
G01*
X84957315Y-119997340D01*
X85523000Y-119431655D01*
X86088685Y-119997340D01*
X85523000Y-120563025D01*
G37*
G04 #@! TD*
G04 #@! TO.C,D4.15*
G36*
X84358424Y-145709636D02*
G01*
X83792739Y-145143951D01*
X84358424Y-144578266D01*
X84924109Y-145143951D01*
X84358424Y-145709636D01*
G37*
G36*
X85523000Y-144563019D02*
G01*
X84957315Y-143997334D01*
X85523000Y-143431649D01*
X86088685Y-143997334D01*
X85523000Y-144563019D01*
G37*
G04 #@! TD*
G04 #@! TO.C,D4.5*
G36*
X84358424Y-119042976D02*
G01*
X83792739Y-118477291D01*
X84358424Y-117911606D01*
X84924109Y-118477291D01*
X84358424Y-119042976D01*
G37*
G36*
X85523000Y-117896359D02*
G01*
X84957315Y-117330674D01*
X85523000Y-116764989D01*
X86088685Y-117330674D01*
X85523000Y-117896359D01*
G37*
G04 #@! TD*
G04 #@! TO.C,D4.4*
G36*
X84358424Y-116376310D02*
G01*
X83792739Y-115810625D01*
X84358424Y-115244940D01*
X84924109Y-115810625D01*
X84358424Y-116376310D01*
G37*
G36*
X85523000Y-115229693D02*
G01*
X84957315Y-114664008D01*
X85523000Y-114098323D01*
X86088685Y-114664008D01*
X85523000Y-115229693D01*
G37*
G04 #@! TD*
G04 #@! TO.C,D4.3*
G36*
X84358424Y-113709644D02*
G01*
X83792739Y-113143959D01*
X84358424Y-112578274D01*
X84924109Y-113143959D01*
X84358424Y-113709644D01*
G37*
G36*
X85523000Y-112563027D02*
G01*
X84957315Y-111997342D01*
X85523000Y-111431657D01*
X86088685Y-111997342D01*
X85523000Y-112563027D01*
G37*
G04 #@! TD*
G04 #@! TO.C,D4.2*
G36*
X84358424Y-111042978D02*
G01*
X83792739Y-110477293D01*
X84358424Y-109911608D01*
X84924109Y-110477293D01*
X84358424Y-111042978D01*
G37*
G36*
X85523000Y-109896361D02*
G01*
X84957315Y-109330676D01*
X85523000Y-108764991D01*
X86088685Y-109330676D01*
X85523000Y-109896361D01*
G37*
G04 #@! TD*
G04 #@! TO.C,D4.1*
G36*
X84358424Y-108376312D02*
G01*
X83792739Y-107810627D01*
X84358424Y-107244942D01*
X84924109Y-107810627D01*
X84358424Y-108376312D01*
G37*
G36*
X85523000Y-107229695D02*
G01*
X84957315Y-106664010D01*
X85523000Y-106098325D01*
X86088685Y-106664010D01*
X85523000Y-107229695D01*
G37*
G04 #@! TD*
G04 #@! TO.C,D4.12*
G36*
X84358424Y-137709638D02*
G01*
X83792739Y-137143953D01*
X84358424Y-136578268D01*
X84924109Y-137143953D01*
X84358424Y-137709638D01*
G37*
G36*
X85523000Y-136563021D02*
G01*
X84957315Y-135997336D01*
X85523000Y-135431651D01*
X86088685Y-135997336D01*
X85523000Y-136563021D01*
G37*
G04 #@! TD*
G04 #@! TO.C,D4.13*
G36*
X84358424Y-140376304D02*
G01*
X83792739Y-139810619D01*
X84358424Y-139244934D01*
X84924109Y-139810619D01*
X84358424Y-140376304D01*
G37*
G36*
X85523000Y-139229687D02*
G01*
X84957315Y-138664002D01*
X85523000Y-138098317D01*
X86088685Y-138664002D01*
X85523000Y-139229687D01*
G37*
G04 #@! TD*
G04 #@! TO.C,D4.14*
G36*
X84358424Y-143042970D02*
G01*
X83792739Y-142477285D01*
X84358424Y-141911600D01*
X84924109Y-142477285D01*
X84358424Y-143042970D01*
G37*
G36*
X85523000Y-141896353D02*
G01*
X84957315Y-141330668D01*
X85523000Y-140764983D01*
X86088685Y-141330668D01*
X85523000Y-141896353D01*
G37*
G04 #@! TD*
G04 #@! TO.C,D5.16*
G36*
X81688424Y-148376302D02*
G01*
X81122739Y-147810617D01*
X81688424Y-147244932D01*
X82254109Y-147810617D01*
X81688424Y-148376302D01*
G37*
G36*
X82853000Y-147229685D02*
G01*
X82287315Y-146664000D01*
X82853000Y-146098315D01*
X83418685Y-146664000D01*
X82853000Y-147229685D01*
G37*
G04 #@! TD*
G04 #@! TO.C,D5.11*
G36*
X81688424Y-135042972D02*
G01*
X81122739Y-134477287D01*
X81688424Y-133911602D01*
X82254109Y-134477287D01*
X81688424Y-135042972D01*
G37*
G36*
X82853000Y-133896355D02*
G01*
X82287315Y-133330670D01*
X82853000Y-132764985D01*
X83418685Y-133330670D01*
X82853000Y-133896355D01*
G37*
G04 #@! TD*
G04 #@! TO.C,D5.10*
G36*
X81688424Y-132376306D02*
G01*
X81122739Y-131810621D01*
X81688424Y-131244936D01*
X82254109Y-131810621D01*
X81688424Y-132376306D01*
G37*
G36*
X82853000Y-131229689D02*
G01*
X82287315Y-130664004D01*
X82853000Y-130098319D01*
X83418685Y-130664004D01*
X82853000Y-131229689D01*
G37*
G04 #@! TD*
G04 #@! TO.C,D5.9*
G36*
X81688424Y-129709640D02*
G01*
X81122739Y-129143955D01*
X81688424Y-128578270D01*
X82254109Y-129143955D01*
X81688424Y-129709640D01*
G37*
G36*
X82853000Y-128563023D02*
G01*
X82287315Y-127997338D01*
X82853000Y-127431653D01*
X83418685Y-127997338D01*
X82853000Y-128563023D01*
G37*
G04 #@! TD*
G04 #@! TO.C,D5.8*
G36*
X81688424Y-127042974D02*
G01*
X81122739Y-126477289D01*
X81688424Y-125911604D01*
X82254109Y-126477289D01*
X81688424Y-127042974D01*
G37*
G36*
X82853000Y-125896357D02*
G01*
X82287315Y-125330672D01*
X82853000Y-124764987D01*
X83418685Y-125330672D01*
X82853000Y-125896357D01*
G37*
G04 #@! TD*
G04 #@! TO.C,D5.7*
G36*
X81688424Y-124376308D02*
G01*
X81122739Y-123810623D01*
X81688424Y-123244938D01*
X82254109Y-123810623D01*
X81688424Y-124376308D01*
G37*
G36*
X82853000Y-123229691D02*
G01*
X82287315Y-122664006D01*
X82853000Y-122098321D01*
X83418685Y-122664006D01*
X82853000Y-123229691D01*
G37*
G04 #@! TD*
G04 #@! TO.C,D5.6*
G36*
X81688424Y-121709642D02*
G01*
X81122739Y-121143957D01*
X81688424Y-120578272D01*
X82254109Y-121143957D01*
X81688424Y-121709642D01*
G37*
G36*
X82853000Y-120563025D02*
G01*
X82287315Y-119997340D01*
X82853000Y-119431655D01*
X83418685Y-119997340D01*
X82853000Y-120563025D01*
G37*
G04 #@! TD*
G04 #@! TO.C,D5.15*
G36*
X81688424Y-145709636D02*
G01*
X81122739Y-145143951D01*
X81688424Y-144578266D01*
X82254109Y-145143951D01*
X81688424Y-145709636D01*
G37*
G36*
X82853000Y-144563019D02*
G01*
X82287315Y-143997334D01*
X82853000Y-143431649D01*
X83418685Y-143997334D01*
X82853000Y-144563019D01*
G37*
G04 #@! TD*
G04 #@! TO.C,D5.5*
G36*
X81688424Y-119042976D02*
G01*
X81122739Y-118477291D01*
X81688424Y-117911606D01*
X82254109Y-118477291D01*
X81688424Y-119042976D01*
G37*
G36*
X82853000Y-117896359D02*
G01*
X82287315Y-117330674D01*
X82853000Y-116764989D01*
X83418685Y-117330674D01*
X82853000Y-117896359D01*
G37*
G04 #@! TD*
G04 #@! TO.C,D5.4*
G36*
X81688424Y-116376310D02*
G01*
X81122739Y-115810625D01*
X81688424Y-115244940D01*
X82254109Y-115810625D01*
X81688424Y-116376310D01*
G37*
G36*
X82853000Y-115229693D02*
G01*
X82287315Y-114664008D01*
X82853000Y-114098323D01*
X83418685Y-114664008D01*
X82853000Y-115229693D01*
G37*
G04 #@! TD*
G04 #@! TO.C,D5.3*
G36*
X81688424Y-113709644D02*
G01*
X81122739Y-113143959D01*
X81688424Y-112578274D01*
X82254109Y-113143959D01*
X81688424Y-113709644D01*
G37*
G36*
X82853000Y-112563027D02*
G01*
X82287315Y-111997342D01*
X82853000Y-111431657D01*
X83418685Y-111997342D01*
X82853000Y-112563027D01*
G37*
G04 #@! TD*
G04 #@! TO.C,D5.2*
G36*
X81688424Y-111042978D02*
G01*
X81122739Y-110477293D01*
X81688424Y-109911608D01*
X82254109Y-110477293D01*
X81688424Y-111042978D01*
G37*
G36*
X82853000Y-109896361D02*
G01*
X82287315Y-109330676D01*
X82853000Y-108764991D01*
X83418685Y-109330676D01*
X82853000Y-109896361D01*
G37*
G04 #@! TD*
G04 #@! TO.C,D5.1*
G36*
X81688424Y-108376312D02*
G01*
X81122739Y-107810627D01*
X81688424Y-107244942D01*
X82254109Y-107810627D01*
X81688424Y-108376312D01*
G37*
G36*
X82853000Y-107229695D02*
G01*
X82287315Y-106664010D01*
X82853000Y-106098325D01*
X83418685Y-106664010D01*
X82853000Y-107229695D01*
G37*
G04 #@! TD*
G04 #@! TO.C,D5.12*
G36*
X81688424Y-137709638D02*
G01*
X81122739Y-137143953D01*
X81688424Y-136578268D01*
X82254109Y-137143953D01*
X81688424Y-137709638D01*
G37*
G36*
X82853000Y-136563021D02*
G01*
X82287315Y-135997336D01*
X82853000Y-135431651D01*
X83418685Y-135997336D01*
X82853000Y-136563021D01*
G37*
G04 #@! TD*
G04 #@! TO.C,D5.13*
G36*
X81688424Y-140376304D02*
G01*
X81122739Y-139810619D01*
X81688424Y-139244934D01*
X82254109Y-139810619D01*
X81688424Y-140376304D01*
G37*
G36*
X82853000Y-139229687D02*
G01*
X82287315Y-138664002D01*
X82853000Y-138098317D01*
X83418685Y-138664002D01*
X82853000Y-139229687D01*
G37*
G04 #@! TD*
G04 #@! TO.C,D5.14*
G36*
X81688424Y-143042970D02*
G01*
X81122739Y-142477285D01*
X81688424Y-141911600D01*
X82254109Y-142477285D01*
X81688424Y-143042970D01*
G37*
G36*
X82853000Y-141896353D02*
G01*
X82287315Y-141330668D01*
X82853000Y-140764983D01*
X83418685Y-141330668D01*
X82853000Y-141896353D01*
G37*
G04 #@! TD*
G04 #@! TO.C,D6.16*
G36*
X79018424Y-148376302D02*
G01*
X78452739Y-147810617D01*
X79018424Y-147244932D01*
X79584109Y-147810617D01*
X79018424Y-148376302D01*
G37*
G36*
X80183000Y-147229685D02*
G01*
X79617315Y-146664000D01*
X80183000Y-146098315D01*
X80748685Y-146664000D01*
X80183000Y-147229685D01*
G37*
G04 #@! TD*
G04 #@! TO.C,D6.11*
G36*
X79018424Y-135042972D02*
G01*
X78452739Y-134477287D01*
X79018424Y-133911602D01*
X79584109Y-134477287D01*
X79018424Y-135042972D01*
G37*
G36*
X80183000Y-133896355D02*
G01*
X79617315Y-133330670D01*
X80183000Y-132764985D01*
X80748685Y-133330670D01*
X80183000Y-133896355D01*
G37*
G04 #@! TD*
G04 #@! TO.C,D6.10*
G36*
X79018424Y-132376306D02*
G01*
X78452739Y-131810621D01*
X79018424Y-131244936D01*
X79584109Y-131810621D01*
X79018424Y-132376306D01*
G37*
G36*
X80183000Y-131229689D02*
G01*
X79617315Y-130664004D01*
X80183000Y-130098319D01*
X80748685Y-130664004D01*
X80183000Y-131229689D01*
G37*
G04 #@! TD*
G04 #@! TO.C,D6.9*
G36*
X79018424Y-129709640D02*
G01*
X78452739Y-129143955D01*
X79018424Y-128578270D01*
X79584109Y-129143955D01*
X79018424Y-129709640D01*
G37*
G36*
X80183000Y-128563023D02*
G01*
X79617315Y-127997338D01*
X80183000Y-127431653D01*
X80748685Y-127997338D01*
X80183000Y-128563023D01*
G37*
G04 #@! TD*
G04 #@! TO.C,D6.8*
G36*
X79018424Y-127042974D02*
G01*
X78452739Y-126477289D01*
X79018424Y-125911604D01*
X79584109Y-126477289D01*
X79018424Y-127042974D01*
G37*
G36*
X80183000Y-125896357D02*
G01*
X79617315Y-125330672D01*
X80183000Y-124764987D01*
X80748685Y-125330672D01*
X80183000Y-125896357D01*
G37*
G04 #@! TD*
G04 #@! TO.C,D6.7*
G36*
X79018424Y-124376308D02*
G01*
X78452739Y-123810623D01*
X79018424Y-123244938D01*
X79584109Y-123810623D01*
X79018424Y-124376308D01*
G37*
G36*
X80183000Y-123229691D02*
G01*
X79617315Y-122664006D01*
X80183000Y-122098321D01*
X80748685Y-122664006D01*
X80183000Y-123229691D01*
G37*
G04 #@! TD*
G04 #@! TO.C,D6.6*
G36*
X79018424Y-121709642D02*
G01*
X78452739Y-121143957D01*
X79018424Y-120578272D01*
X79584109Y-121143957D01*
X79018424Y-121709642D01*
G37*
G36*
X80183000Y-120563025D02*
G01*
X79617315Y-119997340D01*
X80183000Y-119431655D01*
X80748685Y-119997340D01*
X80183000Y-120563025D01*
G37*
G04 #@! TD*
G04 #@! TO.C,D6.15*
G36*
X79018424Y-145709636D02*
G01*
X78452739Y-145143951D01*
X79018424Y-144578266D01*
X79584109Y-145143951D01*
X79018424Y-145709636D01*
G37*
G36*
X80183000Y-144563019D02*
G01*
X79617315Y-143997334D01*
X80183000Y-143431649D01*
X80748685Y-143997334D01*
X80183000Y-144563019D01*
G37*
G04 #@! TD*
G04 #@! TO.C,D6.5*
G36*
X79018424Y-119042976D02*
G01*
X78452739Y-118477291D01*
X79018424Y-117911606D01*
X79584109Y-118477291D01*
X79018424Y-119042976D01*
G37*
G36*
X80183000Y-117896359D02*
G01*
X79617315Y-117330674D01*
X80183000Y-116764989D01*
X80748685Y-117330674D01*
X80183000Y-117896359D01*
G37*
G04 #@! TD*
G04 #@! TO.C,D6.4*
G36*
X79018424Y-116376310D02*
G01*
X78452739Y-115810625D01*
X79018424Y-115244940D01*
X79584109Y-115810625D01*
X79018424Y-116376310D01*
G37*
G36*
X80183000Y-115229693D02*
G01*
X79617315Y-114664008D01*
X80183000Y-114098323D01*
X80748685Y-114664008D01*
X80183000Y-115229693D01*
G37*
G04 #@! TD*
G04 #@! TO.C,D6.3*
G36*
X79018424Y-113709644D02*
G01*
X78452739Y-113143959D01*
X79018424Y-112578274D01*
X79584109Y-113143959D01*
X79018424Y-113709644D01*
G37*
G36*
X80183000Y-112563027D02*
G01*
X79617315Y-111997342D01*
X80183000Y-111431657D01*
X80748685Y-111997342D01*
X80183000Y-112563027D01*
G37*
G04 #@! TD*
G04 #@! TO.C,D6.2*
G36*
X79018424Y-111042978D02*
G01*
X78452739Y-110477293D01*
X79018424Y-109911608D01*
X79584109Y-110477293D01*
X79018424Y-111042978D01*
G37*
G36*
X80183000Y-109896361D02*
G01*
X79617315Y-109330676D01*
X80183000Y-108764991D01*
X80748685Y-109330676D01*
X80183000Y-109896361D01*
G37*
G04 #@! TD*
G04 #@! TO.C,D6.1*
G36*
X79018424Y-108376312D02*
G01*
X78452739Y-107810627D01*
X79018424Y-107244942D01*
X79584109Y-107810627D01*
X79018424Y-108376312D01*
G37*
G36*
X80183000Y-107229695D02*
G01*
X79617315Y-106664010D01*
X80183000Y-106098325D01*
X80748685Y-106664010D01*
X80183000Y-107229695D01*
G37*
G04 #@! TD*
G04 #@! TO.C,D6.12*
G36*
X79018424Y-137709638D02*
G01*
X78452739Y-137143953D01*
X79018424Y-136578268D01*
X79584109Y-137143953D01*
X79018424Y-137709638D01*
G37*
G36*
X80183000Y-136563021D02*
G01*
X79617315Y-135997336D01*
X80183000Y-135431651D01*
X80748685Y-135997336D01*
X80183000Y-136563021D01*
G37*
G04 #@! TD*
G04 #@! TO.C,D6.13*
G36*
X79018424Y-140376304D02*
G01*
X78452739Y-139810619D01*
X79018424Y-139244934D01*
X79584109Y-139810619D01*
X79018424Y-140376304D01*
G37*
G36*
X80183000Y-139229687D02*
G01*
X79617315Y-138664002D01*
X80183000Y-138098317D01*
X80748685Y-138664002D01*
X80183000Y-139229687D01*
G37*
G04 #@! TD*
G04 #@! TO.C,D6.14*
G36*
X79018424Y-143042970D02*
G01*
X78452739Y-142477285D01*
X79018424Y-141911600D01*
X79584109Y-142477285D01*
X79018424Y-143042970D01*
G37*
G36*
X80183000Y-141896353D02*
G01*
X79617315Y-141330668D01*
X80183000Y-140764983D01*
X80748685Y-141330668D01*
X80183000Y-141896353D01*
G37*
G04 #@! TD*
G04 #@! TO.C,D7.16*
G36*
X76358424Y-148376302D02*
G01*
X75792739Y-147810617D01*
X76358424Y-147244932D01*
X76924109Y-147810617D01*
X76358424Y-148376302D01*
G37*
G36*
X77523000Y-147229685D02*
G01*
X76957315Y-146664000D01*
X77523000Y-146098315D01*
X78088685Y-146664000D01*
X77523000Y-147229685D01*
G37*
G04 #@! TD*
G04 #@! TO.C,D7.11*
G36*
X76358424Y-135042972D02*
G01*
X75792739Y-134477287D01*
X76358424Y-133911602D01*
X76924109Y-134477287D01*
X76358424Y-135042972D01*
G37*
G36*
X77523000Y-133896355D02*
G01*
X76957315Y-133330670D01*
X77523000Y-132764985D01*
X78088685Y-133330670D01*
X77523000Y-133896355D01*
G37*
G04 #@! TD*
G04 #@! TO.C,D7.10*
G36*
X76358424Y-132376306D02*
G01*
X75792739Y-131810621D01*
X76358424Y-131244936D01*
X76924109Y-131810621D01*
X76358424Y-132376306D01*
G37*
G36*
X77523000Y-131229689D02*
G01*
X76957315Y-130664004D01*
X77523000Y-130098319D01*
X78088685Y-130664004D01*
X77523000Y-131229689D01*
G37*
G04 #@! TD*
G04 #@! TO.C,D7.9*
G36*
X76358424Y-129709640D02*
G01*
X75792739Y-129143955D01*
X76358424Y-128578270D01*
X76924109Y-129143955D01*
X76358424Y-129709640D01*
G37*
G36*
X77523000Y-128563023D02*
G01*
X76957315Y-127997338D01*
X77523000Y-127431653D01*
X78088685Y-127997338D01*
X77523000Y-128563023D01*
G37*
G04 #@! TD*
G04 #@! TO.C,D7.8*
G36*
X76358424Y-127042974D02*
G01*
X75792739Y-126477289D01*
X76358424Y-125911604D01*
X76924109Y-126477289D01*
X76358424Y-127042974D01*
G37*
G36*
X77523000Y-125896357D02*
G01*
X76957315Y-125330672D01*
X77523000Y-124764987D01*
X78088685Y-125330672D01*
X77523000Y-125896357D01*
G37*
G04 #@! TD*
G04 #@! TO.C,D7.7*
G36*
X76358424Y-124376308D02*
G01*
X75792739Y-123810623D01*
X76358424Y-123244938D01*
X76924109Y-123810623D01*
X76358424Y-124376308D01*
G37*
G36*
X77523000Y-123229691D02*
G01*
X76957315Y-122664006D01*
X77523000Y-122098321D01*
X78088685Y-122664006D01*
X77523000Y-123229691D01*
G37*
G04 #@! TD*
G04 #@! TO.C,D7.6*
G36*
X76358424Y-121709642D02*
G01*
X75792739Y-121143957D01*
X76358424Y-120578272D01*
X76924109Y-121143957D01*
X76358424Y-121709642D01*
G37*
G36*
X77523000Y-120563025D02*
G01*
X76957315Y-119997340D01*
X77523000Y-119431655D01*
X78088685Y-119997340D01*
X77523000Y-120563025D01*
G37*
G04 #@! TD*
G04 #@! TO.C,D7.15*
G36*
X76358424Y-145709636D02*
G01*
X75792739Y-145143951D01*
X76358424Y-144578266D01*
X76924109Y-145143951D01*
X76358424Y-145709636D01*
G37*
G36*
X77523000Y-144563019D02*
G01*
X76957315Y-143997334D01*
X77523000Y-143431649D01*
X78088685Y-143997334D01*
X77523000Y-144563019D01*
G37*
G04 #@! TD*
G04 #@! TO.C,D7.5*
G36*
X76358424Y-119042976D02*
G01*
X75792739Y-118477291D01*
X76358424Y-117911606D01*
X76924109Y-118477291D01*
X76358424Y-119042976D01*
G37*
G36*
X77523000Y-117896359D02*
G01*
X76957315Y-117330674D01*
X77523000Y-116764989D01*
X78088685Y-117330674D01*
X77523000Y-117896359D01*
G37*
G04 #@! TD*
G04 #@! TO.C,D7.4*
G36*
X76358424Y-116376310D02*
G01*
X75792739Y-115810625D01*
X76358424Y-115244940D01*
X76924109Y-115810625D01*
X76358424Y-116376310D01*
G37*
G36*
X77523000Y-115229693D02*
G01*
X76957315Y-114664008D01*
X77523000Y-114098323D01*
X78088685Y-114664008D01*
X77523000Y-115229693D01*
G37*
G04 #@! TD*
G04 #@! TO.C,D7.3*
G36*
X76358424Y-113709644D02*
G01*
X75792739Y-113143959D01*
X76358424Y-112578274D01*
X76924109Y-113143959D01*
X76358424Y-113709644D01*
G37*
G36*
X77523000Y-112563027D02*
G01*
X76957315Y-111997342D01*
X77523000Y-111431657D01*
X78088685Y-111997342D01*
X77523000Y-112563027D01*
G37*
G04 #@! TD*
G04 #@! TO.C,D7.2*
G36*
X76358424Y-111042978D02*
G01*
X75792739Y-110477293D01*
X76358424Y-109911608D01*
X76924109Y-110477293D01*
X76358424Y-111042978D01*
G37*
G36*
X77523000Y-109896361D02*
G01*
X76957315Y-109330676D01*
X77523000Y-108764991D01*
X78088685Y-109330676D01*
X77523000Y-109896361D01*
G37*
G04 #@! TD*
G04 #@! TO.C,D7.1*
G36*
X76358424Y-108376312D02*
G01*
X75792739Y-107810627D01*
X76358424Y-107244942D01*
X76924109Y-107810627D01*
X76358424Y-108376312D01*
G37*
G36*
X77523000Y-107229695D02*
G01*
X76957315Y-106664010D01*
X77523000Y-106098325D01*
X78088685Y-106664010D01*
X77523000Y-107229695D01*
G37*
G04 #@! TD*
G04 #@! TO.C,D7.12*
G36*
X76358424Y-137709638D02*
G01*
X75792739Y-137143953D01*
X76358424Y-136578268D01*
X76924109Y-137143953D01*
X76358424Y-137709638D01*
G37*
G36*
X77523000Y-136563021D02*
G01*
X76957315Y-135997336D01*
X77523000Y-135431651D01*
X78088685Y-135997336D01*
X77523000Y-136563021D01*
G37*
G04 #@! TD*
G04 #@! TO.C,D7.13*
G36*
X76358424Y-140376304D02*
G01*
X75792739Y-139810619D01*
X76358424Y-139244934D01*
X76924109Y-139810619D01*
X76358424Y-140376304D01*
G37*
G36*
X77523000Y-139229687D02*
G01*
X76957315Y-138664002D01*
X77523000Y-138098317D01*
X78088685Y-138664002D01*
X77523000Y-139229687D01*
G37*
G04 #@! TD*
G04 #@! TO.C,D7.14*
G36*
X76358424Y-143042970D02*
G01*
X75792739Y-142477285D01*
X76358424Y-141911600D01*
X76924109Y-142477285D01*
X76358424Y-143042970D01*
G37*
G36*
X77523000Y-141896353D02*
G01*
X76957315Y-141330668D01*
X77523000Y-140764983D01*
X78088685Y-141330668D01*
X77523000Y-141896353D01*
G37*
G04 #@! TD*
G04 #@! TO.C,D8.16*
G36*
X73688424Y-148376302D02*
G01*
X73122739Y-147810617D01*
X73688424Y-147244932D01*
X74254109Y-147810617D01*
X73688424Y-148376302D01*
G37*
G36*
X74853000Y-147229685D02*
G01*
X74287315Y-146664000D01*
X74853000Y-146098315D01*
X75418685Y-146664000D01*
X74853000Y-147229685D01*
G37*
G04 #@! TD*
G04 #@! TO.C,D8.11*
G36*
X73688424Y-135042972D02*
G01*
X73122739Y-134477287D01*
X73688424Y-133911602D01*
X74254109Y-134477287D01*
X73688424Y-135042972D01*
G37*
G36*
X74853000Y-133896355D02*
G01*
X74287315Y-133330670D01*
X74853000Y-132764985D01*
X75418685Y-133330670D01*
X74853000Y-133896355D01*
G37*
G04 #@! TD*
G04 #@! TO.C,D8.10*
G36*
X73688424Y-132376306D02*
G01*
X73122739Y-131810621D01*
X73688424Y-131244936D01*
X74254109Y-131810621D01*
X73688424Y-132376306D01*
G37*
G36*
X74853000Y-131229689D02*
G01*
X74287315Y-130664004D01*
X74853000Y-130098319D01*
X75418685Y-130664004D01*
X74853000Y-131229689D01*
G37*
G04 #@! TD*
G04 #@! TO.C,D8.9*
G36*
X73688424Y-129709640D02*
G01*
X73122739Y-129143955D01*
X73688424Y-128578270D01*
X74254109Y-129143955D01*
X73688424Y-129709640D01*
G37*
G36*
X74853000Y-128563023D02*
G01*
X74287315Y-127997338D01*
X74853000Y-127431653D01*
X75418685Y-127997338D01*
X74853000Y-128563023D01*
G37*
G04 #@! TD*
G04 #@! TO.C,D8.8*
G36*
X73688424Y-127042974D02*
G01*
X73122739Y-126477289D01*
X73688424Y-125911604D01*
X74254109Y-126477289D01*
X73688424Y-127042974D01*
G37*
G36*
X74853000Y-125896357D02*
G01*
X74287315Y-125330672D01*
X74853000Y-124764987D01*
X75418685Y-125330672D01*
X74853000Y-125896357D01*
G37*
G04 #@! TD*
G04 #@! TO.C,D8.7*
G36*
X73688424Y-124376308D02*
G01*
X73122739Y-123810623D01*
X73688424Y-123244938D01*
X74254109Y-123810623D01*
X73688424Y-124376308D01*
G37*
G36*
X74853000Y-123229691D02*
G01*
X74287315Y-122664006D01*
X74853000Y-122098321D01*
X75418685Y-122664006D01*
X74853000Y-123229691D01*
G37*
G04 #@! TD*
G04 #@! TO.C,D8.6*
G36*
X73688424Y-121709642D02*
G01*
X73122739Y-121143957D01*
X73688424Y-120578272D01*
X74254109Y-121143957D01*
X73688424Y-121709642D01*
G37*
G36*
X74853000Y-120563025D02*
G01*
X74287315Y-119997340D01*
X74853000Y-119431655D01*
X75418685Y-119997340D01*
X74853000Y-120563025D01*
G37*
G04 #@! TD*
G04 #@! TO.C,D8.15*
G36*
X73688424Y-145709636D02*
G01*
X73122739Y-145143951D01*
X73688424Y-144578266D01*
X74254109Y-145143951D01*
X73688424Y-145709636D01*
G37*
G36*
X74853000Y-144563019D02*
G01*
X74287315Y-143997334D01*
X74853000Y-143431649D01*
X75418685Y-143997334D01*
X74853000Y-144563019D01*
G37*
G04 #@! TD*
G04 #@! TO.C,D8.5*
G36*
X73688424Y-119042976D02*
G01*
X73122739Y-118477291D01*
X73688424Y-117911606D01*
X74254109Y-118477291D01*
X73688424Y-119042976D01*
G37*
G36*
X74853000Y-117896359D02*
G01*
X74287315Y-117330674D01*
X74853000Y-116764989D01*
X75418685Y-117330674D01*
X74853000Y-117896359D01*
G37*
G04 #@! TD*
G04 #@! TO.C,D8.4*
G36*
X73688424Y-116376310D02*
G01*
X73122739Y-115810625D01*
X73688424Y-115244940D01*
X74254109Y-115810625D01*
X73688424Y-116376310D01*
G37*
G36*
X74853000Y-115229693D02*
G01*
X74287315Y-114664008D01*
X74853000Y-114098323D01*
X75418685Y-114664008D01*
X74853000Y-115229693D01*
G37*
G04 #@! TD*
G04 #@! TO.C,D8.3*
G36*
X73688424Y-113709644D02*
G01*
X73122739Y-113143959D01*
X73688424Y-112578274D01*
X74254109Y-113143959D01*
X73688424Y-113709644D01*
G37*
G36*
X74853000Y-112563027D02*
G01*
X74287315Y-111997342D01*
X74853000Y-111431657D01*
X75418685Y-111997342D01*
X74853000Y-112563027D01*
G37*
G04 #@! TD*
G04 #@! TO.C,D8.2*
G36*
X73688424Y-111042978D02*
G01*
X73122739Y-110477293D01*
X73688424Y-109911608D01*
X74254109Y-110477293D01*
X73688424Y-111042978D01*
G37*
G36*
X74853000Y-109896361D02*
G01*
X74287315Y-109330676D01*
X74853000Y-108764991D01*
X75418685Y-109330676D01*
X74853000Y-109896361D01*
G37*
G04 #@! TD*
G04 #@! TO.C,D8.1*
G36*
X73688424Y-108376312D02*
G01*
X73122739Y-107810627D01*
X73688424Y-107244942D01*
X74254109Y-107810627D01*
X73688424Y-108376312D01*
G37*
G36*
X74853000Y-107229695D02*
G01*
X74287315Y-106664010D01*
X74853000Y-106098325D01*
X75418685Y-106664010D01*
X74853000Y-107229695D01*
G37*
G04 #@! TD*
G04 #@! TO.C,D8.12*
G36*
X73688424Y-137709638D02*
G01*
X73122739Y-137143953D01*
X73688424Y-136578268D01*
X74254109Y-137143953D01*
X73688424Y-137709638D01*
G37*
G36*
X74853000Y-136563021D02*
G01*
X74287315Y-135997336D01*
X74853000Y-135431651D01*
X75418685Y-135997336D01*
X74853000Y-136563021D01*
G37*
G04 #@! TD*
G04 #@! TO.C,D8.13*
G36*
X73688424Y-140376304D02*
G01*
X73122739Y-139810619D01*
X73688424Y-139244934D01*
X74254109Y-139810619D01*
X73688424Y-140376304D01*
G37*
G36*
X74853000Y-139229687D02*
G01*
X74287315Y-138664002D01*
X74853000Y-138098317D01*
X75418685Y-138664002D01*
X74853000Y-139229687D01*
G37*
G04 #@! TD*
G04 #@! TO.C,D8.14*
G36*
X73688424Y-143042970D02*
G01*
X73122739Y-142477285D01*
X73688424Y-141911600D01*
X74254109Y-142477285D01*
X73688424Y-143042970D01*
G37*
G36*
X74853000Y-141896353D02*
G01*
X74287315Y-141330668D01*
X74853000Y-140764983D01*
X75418685Y-141330668D01*
X74853000Y-141896353D01*
G37*
G04 #@! TD*
G04 #@! TO.C,D9.16*
G36*
X71018424Y-148376302D02*
G01*
X70452739Y-147810617D01*
X71018424Y-147244932D01*
X71584109Y-147810617D01*
X71018424Y-148376302D01*
G37*
G36*
X72183000Y-147229685D02*
G01*
X71617315Y-146664000D01*
X72183000Y-146098315D01*
X72748685Y-146664000D01*
X72183000Y-147229685D01*
G37*
G04 #@! TD*
G04 #@! TO.C,D9.11*
G36*
X71018424Y-135042972D02*
G01*
X70452739Y-134477287D01*
X71018424Y-133911602D01*
X71584109Y-134477287D01*
X71018424Y-135042972D01*
G37*
G36*
X72183000Y-133896355D02*
G01*
X71617315Y-133330670D01*
X72183000Y-132764985D01*
X72748685Y-133330670D01*
X72183000Y-133896355D01*
G37*
G04 #@! TD*
G04 #@! TO.C,D9.10*
G36*
X71018424Y-132376306D02*
G01*
X70452739Y-131810621D01*
X71018424Y-131244936D01*
X71584109Y-131810621D01*
X71018424Y-132376306D01*
G37*
G36*
X72183000Y-131229689D02*
G01*
X71617315Y-130664004D01*
X72183000Y-130098319D01*
X72748685Y-130664004D01*
X72183000Y-131229689D01*
G37*
G04 #@! TD*
G04 #@! TO.C,D9.9*
G36*
X71018424Y-129709640D02*
G01*
X70452739Y-129143955D01*
X71018424Y-128578270D01*
X71584109Y-129143955D01*
X71018424Y-129709640D01*
G37*
G36*
X72183000Y-128563023D02*
G01*
X71617315Y-127997338D01*
X72183000Y-127431653D01*
X72748685Y-127997338D01*
X72183000Y-128563023D01*
G37*
G04 #@! TD*
G04 #@! TO.C,D9.8*
G36*
X71018424Y-127042974D02*
G01*
X70452739Y-126477289D01*
X71018424Y-125911604D01*
X71584109Y-126477289D01*
X71018424Y-127042974D01*
G37*
G36*
X72183000Y-125896357D02*
G01*
X71617315Y-125330672D01*
X72183000Y-124764987D01*
X72748685Y-125330672D01*
X72183000Y-125896357D01*
G37*
G04 #@! TD*
G04 #@! TO.C,D9.7*
G36*
X71018424Y-124376308D02*
G01*
X70452739Y-123810623D01*
X71018424Y-123244938D01*
X71584109Y-123810623D01*
X71018424Y-124376308D01*
G37*
G36*
X72183000Y-123229691D02*
G01*
X71617315Y-122664006D01*
X72183000Y-122098321D01*
X72748685Y-122664006D01*
X72183000Y-123229691D01*
G37*
G04 #@! TD*
G04 #@! TO.C,D9.6*
G36*
X71018424Y-121709642D02*
G01*
X70452739Y-121143957D01*
X71018424Y-120578272D01*
X71584109Y-121143957D01*
X71018424Y-121709642D01*
G37*
G36*
X72183000Y-120563025D02*
G01*
X71617315Y-119997340D01*
X72183000Y-119431655D01*
X72748685Y-119997340D01*
X72183000Y-120563025D01*
G37*
G04 #@! TD*
G04 #@! TO.C,D9.15*
G36*
X71018424Y-145709636D02*
G01*
X70452739Y-145143951D01*
X71018424Y-144578266D01*
X71584109Y-145143951D01*
X71018424Y-145709636D01*
G37*
G36*
X72183000Y-144563019D02*
G01*
X71617315Y-143997334D01*
X72183000Y-143431649D01*
X72748685Y-143997334D01*
X72183000Y-144563019D01*
G37*
G04 #@! TD*
G04 #@! TO.C,D9.5*
G36*
X71018424Y-119042976D02*
G01*
X70452739Y-118477291D01*
X71018424Y-117911606D01*
X71584109Y-118477291D01*
X71018424Y-119042976D01*
G37*
G36*
X72183000Y-117896359D02*
G01*
X71617315Y-117330674D01*
X72183000Y-116764989D01*
X72748685Y-117330674D01*
X72183000Y-117896359D01*
G37*
G04 #@! TD*
G04 #@! TO.C,D9.4*
G36*
X71018424Y-116376310D02*
G01*
X70452739Y-115810625D01*
X71018424Y-115244940D01*
X71584109Y-115810625D01*
X71018424Y-116376310D01*
G37*
G36*
X72183000Y-115229693D02*
G01*
X71617315Y-114664008D01*
X72183000Y-114098323D01*
X72748685Y-114664008D01*
X72183000Y-115229693D01*
G37*
G04 #@! TD*
G04 #@! TO.C,D9.3*
G36*
X71018424Y-113709644D02*
G01*
X70452739Y-113143959D01*
X71018424Y-112578274D01*
X71584109Y-113143959D01*
X71018424Y-113709644D01*
G37*
G36*
X72183000Y-112563027D02*
G01*
X71617315Y-111997342D01*
X72183000Y-111431657D01*
X72748685Y-111997342D01*
X72183000Y-112563027D01*
G37*
G04 #@! TD*
G04 #@! TO.C,D9.2*
G36*
X71018424Y-111042978D02*
G01*
X70452739Y-110477293D01*
X71018424Y-109911608D01*
X71584109Y-110477293D01*
X71018424Y-111042978D01*
G37*
G36*
X72183000Y-109896361D02*
G01*
X71617315Y-109330676D01*
X72183000Y-108764991D01*
X72748685Y-109330676D01*
X72183000Y-109896361D01*
G37*
G04 #@! TD*
G04 #@! TO.C,D9.12*
G36*
X71018424Y-137709638D02*
G01*
X70452739Y-137143953D01*
X71018424Y-136578268D01*
X71584109Y-137143953D01*
X71018424Y-137709638D01*
G37*
G36*
X72183000Y-136563021D02*
G01*
X71617315Y-135997336D01*
X72183000Y-135431651D01*
X72748685Y-135997336D01*
X72183000Y-136563021D01*
G37*
G04 #@! TD*
G04 #@! TO.C,D9.13*
G36*
X71018424Y-140376304D02*
G01*
X70452739Y-139810619D01*
X71018424Y-139244934D01*
X71584109Y-139810619D01*
X71018424Y-140376304D01*
G37*
G36*
X72183000Y-139229687D02*
G01*
X71617315Y-138664002D01*
X72183000Y-138098317D01*
X72748685Y-138664002D01*
X72183000Y-139229687D01*
G37*
G04 #@! TD*
G04 #@! TO.C,D9.14*
G36*
X71018424Y-143042970D02*
G01*
X70452739Y-142477285D01*
X71018424Y-141911600D01*
X71584109Y-142477285D01*
X71018424Y-143042970D01*
G37*
G36*
X72183000Y-141896353D02*
G01*
X71617315Y-141330668D01*
X72183000Y-140764983D01*
X72748685Y-141330668D01*
X72183000Y-141896353D01*
G37*
G04 #@! TD*
G04 #@! TO.C,D3.3*
G36*
X87018424Y-113709644D02*
G01*
X86452739Y-113143959D01*
X87018424Y-112578274D01*
X87584109Y-113143959D01*
X87018424Y-113709644D01*
G37*
G36*
X88183000Y-112563027D02*
G01*
X87617315Y-111997342D01*
X88183000Y-111431657D01*
X88748685Y-111997342D01*
X88183000Y-112563027D01*
G37*
G04 #@! TD*
G04 #@! TO.C,D9.1*
G36*
X71018424Y-108376312D02*
G01*
X70452739Y-107810627D01*
X71018424Y-107244942D01*
X71584109Y-107810627D01*
X71018424Y-108376312D01*
G37*
G36*
X72183000Y-107229695D02*
G01*
X71617315Y-106664010D01*
X72183000Y-106098325D01*
X72748685Y-106664010D01*
X72183000Y-107229695D01*
G37*
G04 #@! TD*
D11*
G04 #@! TO.C,H1*
X50774234Y-112410887D03*
X50774234Y-112410887D03*
X51318559Y-110227722D03*
X50955676Y-111683165D03*
X51137117Y-110955444D03*
X50592793Y-113138609D03*
X48070024Y-112509612D03*
X48614348Y-110326447D03*
X48432907Y-111054168D03*
X48795790Y-109598725D03*
X48251465Y-111781890D03*
X48251465Y-111781890D03*
G04 #@! TD*
G04 #@! TO.C,H2*
X51627115Y-137183460D03*
X51627115Y-137183460D03*
X50969279Y-135031775D03*
X51407836Y-136466232D03*
X51188558Y-135749003D03*
X51846394Y-137900689D03*
X49360002Y-138660855D03*
X48702165Y-136509170D03*
X48921444Y-137226398D03*
X48482886Y-135791941D03*
X49140723Y-137943627D03*
X49140723Y-137943627D03*
G04 #@! TD*
G04 #@! TO.C,H4*
X114622885Y-138118914D03*
X114622885Y-138118914D03*
X115280721Y-135967229D03*
X114842164Y-137401686D03*
X115061442Y-136684457D03*
X114403606Y-138836143D03*
X111917214Y-138075976D03*
X112575050Y-135924291D03*
X112355771Y-136641519D03*
X112794329Y-135207062D03*
X112136493Y-137358748D03*
X112136493Y-137358748D03*
G04 #@! TD*
G04 #@! TO.C,H3*
X115526457Y-111670331D03*
X115526457Y-111670331D03*
X114944114Y-109496998D03*
X115332343Y-110945887D03*
X115138229Y-110221443D03*
X115720571Y-112394776D03*
X113209164Y-113067705D03*
X112626821Y-110894372D03*
X112820936Y-111618817D03*
X112432707Y-110169928D03*
X113015050Y-112343261D03*
X113015050Y-112343261D03*
G04 #@! TD*
D12*
G04 #@! TO.C,H9*
X83075825Y-73424175D03*
X81750000Y-72875000D03*
X80424175Y-73424175D03*
X79875000Y-74750000D03*
X80424175Y-76075825D03*
X81750000Y-76625000D03*
X83075825Y-76075825D03*
X83625000Y-74750000D03*
D13*
X81750000Y-74750000D03*
G04 #@! TD*
D14*
G04 #@! TO.C,H8*
X44225385Y-157299920D03*
G04 #@! TD*
G04 #@! TO.C,H7*
X44225385Y-74299920D03*
G04 #@! TD*
G04 #@! TO.C,H6*
X131225385Y-157299920D03*
G04 #@! TD*
G04 #@! TO.C,H5*
X131225385Y-74299920D03*
G04 #@! TD*
D15*
G04 #@! TO.C,FID3*
X44225385Y-145299920D03*
G04 #@! TD*
G04 #@! TO.C,FID2*
X44225385Y-92299920D03*
G04 #@! TD*
G04 #@! TO.C,FID1*
X131225385Y-109299920D03*
G04 #@! TD*
D16*
G04 #@! TO.C,U4*
X106472000Y-115279000D03*
X106472000Y-115929000D03*
X106472000Y-116579000D03*
X106472000Y-117229000D03*
X106472000Y-117879000D03*
X106472000Y-118529000D03*
X106472000Y-119179000D03*
X106472000Y-119829000D03*
X106472000Y-120479000D03*
X106472000Y-121129000D03*
X106472000Y-121779000D03*
X106472000Y-122429000D03*
X106472000Y-123079000D03*
X106472000Y-123729000D03*
X99272000Y-123729000D03*
X99272000Y-123079000D03*
X99272000Y-122429000D03*
X99272000Y-121779000D03*
X99272000Y-121129000D03*
X99272000Y-120479000D03*
X99272000Y-119829000D03*
X99272000Y-119179000D03*
X99272000Y-118529000D03*
X99272000Y-117879000D03*
X99272000Y-117229000D03*
X99272000Y-116579000D03*
X99272000Y-115929000D03*
X99272000Y-115279000D03*
G04 #@! TD*
D17*
G04 #@! TO.C,U2*
X63322281Y-130333000D03*
G36*
G01*
X64200100Y-129382999D02*
X64200100Y-129382999D01*
G75*
G02*
X63895197Y-129687902I-304903J0D01*
G01*
X62749365Y-129687902D01*
G75*
G02*
X62444462Y-129382999I0J304903D01*
G01*
X62444462Y-129382999D01*
G75*
G02*
X62749365Y-129078096I304903J0D01*
G01*
X63895197Y-129078096D01*
G75*
G02*
X64200100Y-129382999I0J-304903D01*
G01*
G37*
G36*
G01*
X64200100Y-128432999D02*
X64200100Y-128432999D01*
G75*
G02*
X63895197Y-128737902I-304903J0D01*
G01*
X62749365Y-128737902D01*
G75*
G02*
X62444462Y-128432999I0J304903D01*
G01*
X62444462Y-128432999D01*
G75*
G02*
X62749365Y-128128096I304903J0D01*
G01*
X63895197Y-128128096D01*
G75*
G02*
X64200100Y-128432999I0J-304903D01*
G01*
G37*
G36*
G01*
X61849537Y-128432999D02*
X61849537Y-128432999D01*
G75*
G02*
X61544634Y-128737902I-304903J0D01*
G01*
X60398802Y-128737902D01*
G75*
G02*
X60093899Y-128432999I0J304903D01*
G01*
X60093899Y-128432999D01*
G75*
G02*
X60398802Y-128128096I304903J0D01*
G01*
X61544634Y-128128096D01*
G75*
G02*
X61849537Y-128432999I0J-304903D01*
G01*
G37*
G36*
G01*
X61849537Y-130333000D02*
X61849537Y-130333000D01*
G75*
G02*
X61544634Y-130637903I-304903J0D01*
G01*
X60398802Y-130637903D01*
G75*
G02*
X60093899Y-130333000I0J304903D01*
G01*
X60093899Y-130333000D01*
G75*
G02*
X60398802Y-130028097I304903J0D01*
G01*
X61544634Y-130028097D01*
G75*
G02*
X61849537Y-130333000I0J-304903D01*
G01*
G37*
G04 #@! TD*
D18*
G04 #@! TO.C,U1*
X64222000Y-115824000D03*
X63422000Y-115824000D03*
X62622000Y-115824000D03*
X61822000Y-115824000D03*
X61022000Y-115824000D03*
X60222000Y-115824000D03*
X59422000Y-115824000D03*
X58622000Y-115824000D03*
D19*
X57222000Y-117224000D03*
X57222000Y-118024000D03*
X57222000Y-118824000D03*
X57222000Y-119624000D03*
X57222000Y-120424000D03*
X57222000Y-121224000D03*
X57222000Y-122024000D03*
X57222000Y-122824000D03*
D18*
X58622000Y-124224000D03*
X59422000Y-124224000D03*
X60222000Y-124224000D03*
X61022000Y-124224000D03*
X61822000Y-124224000D03*
X62622000Y-124224000D03*
X63422000Y-124224000D03*
X64222000Y-124224000D03*
D19*
X65622000Y-122824000D03*
X65622000Y-122024000D03*
X65622000Y-121224000D03*
X65622000Y-120424000D03*
X65622000Y-119624000D03*
X65622000Y-118824000D03*
X65622000Y-118024000D03*
X65622000Y-117224000D03*
G04 #@! TD*
D20*
G04 #@! TO.C,SW1*
X61272000Y-110155300D03*
X61272000Y-102052700D03*
G04 #@! TD*
D21*
G04 #@! TO.C,SW2*
X59677000Y-135519000D03*
X59677000Y-138019000D03*
X59677000Y-140519000D03*
X62077000Y-135519000D03*
X62077000Y-138019000D03*
X62077000Y-140519000D03*
G04 #@! TD*
G04 #@! TO.C,R10*
G36*
G01*
X103547000Y-134879000D02*
X102997000Y-134879000D01*
G75*
G02*
X102797000Y-134679000I0J200000D01*
G01*
X102797000Y-134279000D01*
G75*
G02*
X102997000Y-134079000I200000J0D01*
G01*
X103547000Y-134079000D01*
G75*
G02*
X103747000Y-134279000I0J-200000D01*
G01*
X103747000Y-134679000D01*
G75*
G02*
X103547000Y-134879000I-200000J0D01*
G01*
G37*
G36*
G01*
X103547000Y-136529000D02*
X102997000Y-136529000D01*
G75*
G02*
X102797000Y-136329000I0J200000D01*
G01*
X102797000Y-135929000D01*
G75*
G02*
X102997000Y-135729000I200000J0D01*
G01*
X103547000Y-135729000D01*
G75*
G02*
X103747000Y-135929000I0J-200000D01*
G01*
X103747000Y-136329000D01*
G75*
G02*
X103547000Y-136529000I-200000J0D01*
G01*
G37*
G04 #@! TD*
G04 #@! TO.C,R9*
G36*
G01*
X101197000Y-135729000D02*
X101747000Y-135729000D01*
G75*
G02*
X101947000Y-135929000I0J-200000D01*
G01*
X101947000Y-136329000D01*
G75*
G02*
X101747000Y-136529000I-200000J0D01*
G01*
X101197000Y-136529000D01*
G75*
G02*
X100997000Y-136329000I0J200000D01*
G01*
X100997000Y-135929000D01*
G75*
G02*
X101197000Y-135729000I200000J0D01*
G01*
G37*
G36*
G01*
X101197000Y-134079000D02*
X101747000Y-134079000D01*
G75*
G02*
X101947000Y-134279000I0J-200000D01*
G01*
X101947000Y-134679000D01*
G75*
G02*
X101747000Y-134879000I-200000J0D01*
G01*
X101197000Y-134879000D01*
G75*
G02*
X100997000Y-134679000I0J200000D01*
G01*
X100997000Y-134279000D01*
G75*
G02*
X101197000Y-134079000I200000J0D01*
G01*
G37*
G04 #@! TD*
G04 #@! TO.C,R8*
G36*
G01*
X99397000Y-135729000D02*
X99947000Y-135729000D01*
G75*
G02*
X100147000Y-135929000I0J-200000D01*
G01*
X100147000Y-136329000D01*
G75*
G02*
X99947000Y-136529000I-200000J0D01*
G01*
X99397000Y-136529000D01*
G75*
G02*
X99197000Y-136329000I0J200000D01*
G01*
X99197000Y-135929000D01*
G75*
G02*
X99397000Y-135729000I200000J0D01*
G01*
G37*
G36*
G01*
X99397000Y-134079000D02*
X99947000Y-134079000D01*
G75*
G02*
X100147000Y-134279000I0J-200000D01*
G01*
X100147000Y-134679000D01*
G75*
G02*
X99947000Y-134879000I-200000J0D01*
G01*
X99397000Y-134879000D01*
G75*
G02*
X99197000Y-134679000I0J200000D01*
G01*
X99197000Y-134279000D01*
G75*
G02*
X99397000Y-134079000I200000J0D01*
G01*
G37*
G04 #@! TD*
G04 #@! TO.C,R7*
G36*
G01*
X99947000Y-127879000D02*
X99397000Y-127879000D01*
G75*
G02*
X99197000Y-127679000I0J200000D01*
G01*
X99197000Y-127279000D01*
G75*
G02*
X99397000Y-127079000I200000J0D01*
G01*
X99947000Y-127079000D01*
G75*
G02*
X100147000Y-127279000I0J-200000D01*
G01*
X100147000Y-127679000D01*
G75*
G02*
X99947000Y-127879000I-200000J0D01*
G01*
G37*
G36*
G01*
X99947000Y-129529000D02*
X99397000Y-129529000D01*
G75*
G02*
X99197000Y-129329000I0J200000D01*
G01*
X99197000Y-128929000D01*
G75*
G02*
X99397000Y-128729000I200000J0D01*
G01*
X99947000Y-128729000D01*
G75*
G02*
X100147000Y-128929000I0J-200000D01*
G01*
X100147000Y-129329000D01*
G75*
G02*
X99947000Y-129529000I-200000J0D01*
G01*
G37*
G04 #@! TD*
G04 #@! TO.C,R6*
G36*
G01*
X96697000Y-116979000D02*
X96697000Y-116429000D01*
G75*
G02*
X96897000Y-116229000I200000J0D01*
G01*
X97297000Y-116229000D01*
G75*
G02*
X97497000Y-116429000I0J-200000D01*
G01*
X97497000Y-116979000D01*
G75*
G02*
X97297000Y-117179000I-200000J0D01*
G01*
X96897000Y-117179000D01*
G75*
G02*
X96697000Y-116979000I0J200000D01*
G01*
G37*
G36*
G01*
X95047000Y-116979000D02*
X95047000Y-116429000D01*
G75*
G02*
X95247000Y-116229000I200000J0D01*
G01*
X95647000Y-116229000D01*
G75*
G02*
X95847000Y-116429000I0J-200000D01*
G01*
X95847000Y-116979000D01*
G75*
G02*
X95647000Y-117179000I-200000J0D01*
G01*
X95247000Y-117179000D01*
G75*
G02*
X95047000Y-116979000I0J200000D01*
G01*
G37*
G04 #@! TD*
G04 #@! TO.C,R5*
G36*
G01*
X95847000Y-118229000D02*
X95847000Y-118779000D01*
G75*
G02*
X95647000Y-118979000I-200000J0D01*
G01*
X95247000Y-118979000D01*
G75*
G02*
X95047000Y-118779000I0J200000D01*
G01*
X95047000Y-118229000D01*
G75*
G02*
X95247000Y-118029000I200000J0D01*
G01*
X95647000Y-118029000D01*
G75*
G02*
X95847000Y-118229000I0J-200000D01*
G01*
G37*
G36*
G01*
X97497000Y-118229000D02*
X97497000Y-118779000D01*
G75*
G02*
X97297000Y-118979000I-200000J0D01*
G01*
X96897000Y-118979000D01*
G75*
G02*
X96697000Y-118779000I0J200000D01*
G01*
X96697000Y-118229000D01*
G75*
G02*
X96897000Y-118029000I200000J0D01*
G01*
X97297000Y-118029000D01*
G75*
G02*
X97497000Y-118229000I0J-200000D01*
G01*
G37*
G04 #@! TD*
G04 #@! TO.C,R4*
G36*
G01*
X103547000Y-99279000D02*
X102997000Y-99279000D01*
G75*
G02*
X102797000Y-99079000I0J200000D01*
G01*
X102797000Y-98679000D01*
G75*
G02*
X102997000Y-98479000I200000J0D01*
G01*
X103547000Y-98479000D01*
G75*
G02*
X103747000Y-98679000I0J-200000D01*
G01*
X103747000Y-99079000D01*
G75*
G02*
X103547000Y-99279000I-200000J0D01*
G01*
G37*
G36*
G01*
X103547000Y-100929000D02*
X102997000Y-100929000D01*
G75*
G02*
X102797000Y-100729000I0J200000D01*
G01*
X102797000Y-100329000D01*
G75*
G02*
X102997000Y-100129000I200000J0D01*
G01*
X103547000Y-100129000D01*
G75*
G02*
X103747000Y-100329000I0J-200000D01*
G01*
X103747000Y-100729000D01*
G75*
G02*
X103547000Y-100929000I-200000J0D01*
G01*
G37*
G04 #@! TD*
G04 #@! TO.C,R3*
G36*
G01*
X98597000Y-100129000D02*
X99147000Y-100129000D01*
G75*
G02*
X99347000Y-100329000I0J-200000D01*
G01*
X99347000Y-100729000D01*
G75*
G02*
X99147000Y-100929000I-200000J0D01*
G01*
X98597000Y-100929000D01*
G75*
G02*
X98397000Y-100729000I0J200000D01*
G01*
X98397000Y-100329000D01*
G75*
G02*
X98597000Y-100129000I200000J0D01*
G01*
G37*
G36*
G01*
X98597000Y-98479000D02*
X99147000Y-98479000D01*
G75*
G02*
X99347000Y-98679000I0J-200000D01*
G01*
X99347000Y-99079000D01*
G75*
G02*
X99147000Y-99279000I-200000J0D01*
G01*
X98597000Y-99279000D01*
G75*
G02*
X98397000Y-99079000I0J200000D01*
G01*
X98397000Y-98679000D01*
G75*
G02*
X98597000Y-98479000I200000J0D01*
G01*
G37*
G04 #@! TD*
G04 #@! TO.C,R2*
G36*
G01*
X65088000Y-141838000D02*
X65088000Y-142388000D01*
G75*
G02*
X64888000Y-142588000I-200000J0D01*
G01*
X64488000Y-142588000D01*
G75*
G02*
X64288000Y-142388000I0J200000D01*
G01*
X64288000Y-141838000D01*
G75*
G02*
X64488000Y-141638000I200000J0D01*
G01*
X64888000Y-141638000D01*
G75*
G02*
X65088000Y-141838000I0J-200000D01*
G01*
G37*
G36*
G01*
X66738000Y-141838000D02*
X66738000Y-142388000D01*
G75*
G02*
X66538000Y-142588000I-200000J0D01*
G01*
X66138000Y-142588000D01*
G75*
G02*
X65938000Y-142388000I0J200000D01*
G01*
X65938000Y-141838000D01*
G75*
G02*
X66138000Y-141638000I200000J0D01*
G01*
X66538000Y-141638000D01*
G75*
G02*
X66738000Y-141838000I0J-200000D01*
G01*
G37*
G04 #@! TD*
G04 #@! TO.C,R1*
G36*
G01*
X65088000Y-139838000D02*
X65088000Y-140388000D01*
G75*
G02*
X64888000Y-140588000I-200000J0D01*
G01*
X64488000Y-140588000D01*
G75*
G02*
X64288000Y-140388000I0J200000D01*
G01*
X64288000Y-139838000D01*
G75*
G02*
X64488000Y-139638000I200000J0D01*
G01*
X64888000Y-139638000D01*
G75*
G02*
X65088000Y-139838000I0J-200000D01*
G01*
G37*
G36*
G01*
X66738000Y-139838000D02*
X66738000Y-140388000D01*
G75*
G02*
X66538000Y-140588000I-200000J0D01*
G01*
X66138000Y-140588000D01*
G75*
G02*
X65938000Y-140388000I0J200000D01*
G01*
X65938000Y-139838000D01*
G75*
G02*
X66138000Y-139638000I200000J0D01*
G01*
X66538000Y-139638000D01*
G75*
G02*
X66738000Y-139838000I0J-200000D01*
G01*
G37*
G04 #@! TD*
D22*
G04 #@! TO.C,Q1*
X99672000Y-140754000D03*
X99672000Y-142654000D03*
X101672000Y-141704000D03*
G04 #@! TD*
D23*
G04 #@! TO.C,J4*
X71926000Y-153386000D03*
X74466000Y-153386000D03*
X77006000Y-153386000D03*
X79546000Y-153386000D03*
X82086000Y-153386000D03*
X84626000Y-153386000D03*
X87166000Y-153386000D03*
X89706000Y-153386000D03*
D24*
X92246000Y-153386000D03*
G04 #@! TD*
D23*
G04 #@! TO.C,J3*
X71926000Y-102656000D03*
X74466000Y-102656000D03*
X77006000Y-102656000D03*
X79546000Y-102656000D03*
X82086000Y-102656000D03*
X84626000Y-102656000D03*
X87166000Y-102656000D03*
X89706000Y-102656000D03*
D24*
X92246000Y-102656000D03*
G04 #@! TD*
G04 #@! TO.C,J1*
G36*
G01*
X64113361Y-153583324D02*
X64534631Y-153024280D01*
G75*
G02*
X65094811Y-152945552I319454J-240726D01*
G01*
X65094811Y-152945552D01*
G75*
G02*
X65173539Y-153505732I-240726J-319454D01*
G01*
X64752269Y-154064776D01*
G75*
G02*
X64192089Y-154143504I-319454J240726D01*
G01*
X64192089Y-154143504D01*
G75*
G02*
X64113361Y-153583324I240726J319454D01*
G01*
G37*
G36*
G01*
X65127628Y-154347629D02*
X65548898Y-153788585D01*
G75*
G02*
X66109078Y-153709857I319454J-240726D01*
G01*
X66109078Y-153709857D01*
G75*
G02*
X66187806Y-154270037I-240726J-319454D01*
G01*
X65766536Y-154829081D01*
G75*
G02*
X65206356Y-154907809I-319454J240726D01*
G01*
X65206356Y-154907809D01*
G75*
G02*
X65127628Y-154347629I240726J319454D01*
G01*
G37*
G36*
G01*
X66141895Y-155111934D02*
X66563165Y-154552890D01*
G75*
G02*
X67123345Y-154474162I319454J-240726D01*
G01*
X67123345Y-154474162D01*
G75*
G02*
X67202073Y-155034342I-240726J-319454D01*
G01*
X66780803Y-155593386D01*
G75*
G02*
X66220623Y-155672114I-319454J240726D01*
G01*
X66220623Y-155672114D01*
G75*
G02*
X66141895Y-155111934I240726J319454D01*
G01*
G37*
G36*
G01*
X67156162Y-155876239D02*
X67577432Y-155317195D01*
G75*
G02*
X68137612Y-155238467I319454J-240726D01*
G01*
X68137612Y-155238467D01*
G75*
G02*
X68216340Y-155798647I-240726J-319454D01*
G01*
X67795070Y-156357691D01*
G75*
G02*
X67234890Y-156436419I-319454J240726D01*
G01*
X67234890Y-156436419D01*
G75*
G02*
X67156162Y-155876239I240726J319454D01*
G01*
G37*
D25*
X64831412Y-152239951D03*
X65845680Y-153004256D03*
X66859947Y-153768561D03*
X67874214Y-154532866D03*
X68888481Y-155297172D03*
G04 #@! TD*
D26*
G04 #@! TO.C,U3*
X104172000Y-108409000D03*
X104172000Y-107139000D03*
X104172000Y-105869000D03*
X104172000Y-104599000D03*
G04 #@! TD*
G04 #@! TO.C,D145*
G36*
G01*
X106522000Y-141960250D02*
X106522000Y-141047750D01*
G75*
G02*
X106765750Y-140804000I243750J0D01*
G01*
X107253250Y-140804000D01*
G75*
G02*
X107497000Y-141047750I0J-243750D01*
G01*
X107497000Y-141960250D01*
G75*
G02*
X107253250Y-142204000I-243750J0D01*
G01*
X106765750Y-142204000D01*
G75*
G02*
X106522000Y-141960250I0J243750D01*
G01*
G37*
G36*
G01*
X104647000Y-141960250D02*
X104647000Y-141047750D01*
G75*
G02*
X104890750Y-140804000I243750J0D01*
G01*
X105378250Y-140804000D01*
G75*
G02*
X105622000Y-141047750I0J-243750D01*
G01*
X105622000Y-141960250D01*
G75*
G02*
X105378250Y-142204000I-243750J0D01*
G01*
X104890750Y-142204000D01*
G75*
G02*
X104647000Y-141960250I0J243750D01*
G01*
G37*
G04 #@! TD*
G04 #@! TO.C,C11*
G36*
G01*
X104822000Y-128629000D02*
X105322000Y-128629000D01*
G75*
G02*
X105547000Y-128854000I0J-225000D01*
G01*
X105547000Y-129304000D01*
G75*
G02*
X105322000Y-129529000I-225000J0D01*
G01*
X104822000Y-129529000D01*
G75*
G02*
X104597000Y-129304000I0J225000D01*
G01*
X104597000Y-128854000D01*
G75*
G02*
X104822000Y-128629000I225000J0D01*
G01*
G37*
G36*
G01*
X104822000Y-127079000D02*
X105322000Y-127079000D01*
G75*
G02*
X105547000Y-127304000I0J-225000D01*
G01*
X105547000Y-127754000D01*
G75*
G02*
X105322000Y-127979000I-225000J0D01*
G01*
X104822000Y-127979000D01*
G75*
G02*
X104597000Y-127754000I0J225000D01*
G01*
X104597000Y-127304000D01*
G75*
G02*
X104822000Y-127079000I225000J0D01*
G01*
G37*
G04 #@! TD*
G04 #@! TO.C,C10*
G36*
G01*
X103022000Y-128629000D02*
X103522000Y-128629000D01*
G75*
G02*
X103747000Y-128854000I0J-225000D01*
G01*
X103747000Y-129304000D01*
G75*
G02*
X103522000Y-129529000I-225000J0D01*
G01*
X103022000Y-129529000D01*
G75*
G02*
X102797000Y-129304000I0J225000D01*
G01*
X102797000Y-128854000D01*
G75*
G02*
X103022000Y-128629000I225000J0D01*
G01*
G37*
G36*
G01*
X103022000Y-127079000D02*
X103522000Y-127079000D01*
G75*
G02*
X103747000Y-127304000I0J-225000D01*
G01*
X103747000Y-127754000D01*
G75*
G02*
X103522000Y-127979000I-225000J0D01*
G01*
X103022000Y-127979000D01*
G75*
G02*
X102797000Y-127754000I0J225000D01*
G01*
X102797000Y-127304000D01*
G75*
G02*
X103022000Y-127079000I225000J0D01*
G01*
G37*
G04 #@! TD*
G04 #@! TO.C,C9*
G36*
G01*
X101222000Y-128629000D02*
X101722000Y-128629000D01*
G75*
G02*
X101947000Y-128854000I0J-225000D01*
G01*
X101947000Y-129304000D01*
G75*
G02*
X101722000Y-129529000I-225000J0D01*
G01*
X101222000Y-129529000D01*
G75*
G02*
X100997000Y-129304000I0J225000D01*
G01*
X100997000Y-128854000D01*
G75*
G02*
X101222000Y-128629000I225000J0D01*
G01*
G37*
G36*
G01*
X101222000Y-127079000D02*
X101722000Y-127079000D01*
G75*
G02*
X101947000Y-127304000I0J-225000D01*
G01*
X101947000Y-127754000D01*
G75*
G02*
X101722000Y-127979000I-225000J0D01*
G01*
X101222000Y-127979000D01*
G75*
G02*
X100997000Y-127754000I0J225000D01*
G01*
X100997000Y-127304000D01*
G75*
G02*
X101222000Y-127079000I225000J0D01*
G01*
G37*
G04 #@! TD*
G04 #@! TO.C,C8*
G36*
G01*
X105322000Y-134979000D02*
X104822000Y-134979000D01*
G75*
G02*
X104597000Y-134754000I0J225000D01*
G01*
X104597000Y-134304000D01*
G75*
G02*
X104822000Y-134079000I225000J0D01*
G01*
X105322000Y-134079000D01*
G75*
G02*
X105547000Y-134304000I0J-225000D01*
G01*
X105547000Y-134754000D01*
G75*
G02*
X105322000Y-134979000I-225000J0D01*
G01*
G37*
G36*
G01*
X105322000Y-136529000D02*
X104822000Y-136529000D01*
G75*
G02*
X104597000Y-136304000I0J225000D01*
G01*
X104597000Y-135854000D01*
G75*
G02*
X104822000Y-135629000I225000J0D01*
G01*
X105322000Y-135629000D01*
G75*
G02*
X105547000Y-135854000I0J-225000D01*
G01*
X105547000Y-136304000D01*
G75*
G02*
X105322000Y-136529000I-225000J0D01*
G01*
G37*
G04 #@! TD*
G04 #@! TO.C,C7*
G36*
G01*
X101322000Y-99379000D02*
X100822000Y-99379000D01*
G75*
G02*
X100597000Y-99154000I0J225000D01*
G01*
X100597000Y-98704000D01*
G75*
G02*
X100822000Y-98479000I225000J0D01*
G01*
X101322000Y-98479000D01*
G75*
G02*
X101547000Y-98704000I0J-225000D01*
G01*
X101547000Y-99154000D01*
G75*
G02*
X101322000Y-99379000I-225000J0D01*
G01*
G37*
G36*
G01*
X101322000Y-100929000D02*
X100822000Y-100929000D01*
G75*
G02*
X100597000Y-100704000I0J225000D01*
G01*
X100597000Y-100254000D01*
G75*
G02*
X100822000Y-100029000I225000J0D01*
G01*
X101322000Y-100029000D01*
G75*
G02*
X101547000Y-100254000I0J-225000D01*
G01*
X101547000Y-100704000D01*
G75*
G02*
X101322000Y-100929000I-225000J0D01*
G01*
G37*
G04 #@! TD*
G04 #@! TO.C,C6*
G36*
G01*
X58841000Y-128550000D02*
X58341000Y-128550000D01*
G75*
G02*
X58116000Y-128325000I0J225000D01*
G01*
X58116000Y-127875000D01*
G75*
G02*
X58341000Y-127650000I225000J0D01*
G01*
X58841000Y-127650000D01*
G75*
G02*
X59066000Y-127875000I0J-225000D01*
G01*
X59066000Y-128325000D01*
G75*
G02*
X58841000Y-128550000I-225000J0D01*
G01*
G37*
G36*
G01*
X58841000Y-130100000D02*
X58341000Y-130100000D01*
G75*
G02*
X58116000Y-129875000I0J225000D01*
G01*
X58116000Y-129425000D01*
G75*
G02*
X58341000Y-129200000I225000J0D01*
G01*
X58841000Y-129200000D01*
G75*
G02*
X59066000Y-129425000I0J-225000D01*
G01*
X59066000Y-129875000D01*
G75*
G02*
X58841000Y-130100000I-225000J0D01*
G01*
G37*
G04 #@! TD*
G04 #@! TO.C,C5*
G36*
G01*
X65953000Y-128550000D02*
X65453000Y-128550000D01*
G75*
G02*
X65228000Y-128325000I0J225000D01*
G01*
X65228000Y-127875000D01*
G75*
G02*
X65453000Y-127650000I225000J0D01*
G01*
X65953000Y-127650000D01*
G75*
G02*
X66178000Y-127875000I0J-225000D01*
G01*
X66178000Y-128325000D01*
G75*
G02*
X65953000Y-128550000I-225000J0D01*
G01*
G37*
G36*
G01*
X65953000Y-130100000D02*
X65453000Y-130100000D01*
G75*
G02*
X65228000Y-129875000I0J225000D01*
G01*
X65228000Y-129425000D01*
G75*
G02*
X65453000Y-129200000I225000J0D01*
G01*
X65953000Y-129200000D01*
G75*
G02*
X66178000Y-129425000I0J-225000D01*
G01*
X66178000Y-129875000D01*
G75*
G02*
X65953000Y-130100000I-225000J0D01*
G01*
G37*
G04 #@! TD*
G04 #@! TO.C,C4*
G36*
G01*
X65838000Y-138363000D02*
X65838000Y-137863000D01*
G75*
G02*
X66063000Y-137638000I225000J0D01*
G01*
X66513000Y-137638000D01*
G75*
G02*
X66738000Y-137863000I0J-225000D01*
G01*
X66738000Y-138363000D01*
G75*
G02*
X66513000Y-138588000I-225000J0D01*
G01*
X66063000Y-138588000D01*
G75*
G02*
X65838000Y-138363000I0J225000D01*
G01*
G37*
G36*
G01*
X64288000Y-138363000D02*
X64288000Y-137863000D01*
G75*
G02*
X64513000Y-137638000I225000J0D01*
G01*
X64963000Y-137638000D01*
G75*
G02*
X65188000Y-137863000I0J-225000D01*
G01*
X65188000Y-138363000D01*
G75*
G02*
X64963000Y-138588000I-225000J0D01*
G01*
X64513000Y-138588000D01*
G75*
G02*
X64288000Y-138363000I0J225000D01*
G01*
G37*
G04 #@! TD*
G04 #@! TO.C,C3*
G36*
G01*
X68493000Y-117374000D02*
X67993000Y-117374000D01*
G75*
G02*
X67768000Y-117149000I0J225000D01*
G01*
X67768000Y-116699000D01*
G75*
G02*
X67993000Y-116474000I225000J0D01*
G01*
X68493000Y-116474000D01*
G75*
G02*
X68718000Y-116699000I0J-225000D01*
G01*
X68718000Y-117149000D01*
G75*
G02*
X68493000Y-117374000I-225000J0D01*
G01*
G37*
G36*
G01*
X68493000Y-118924000D02*
X67993000Y-118924000D01*
G75*
G02*
X67768000Y-118699000I0J225000D01*
G01*
X67768000Y-118249000D01*
G75*
G02*
X67993000Y-118024000I225000J0D01*
G01*
X68493000Y-118024000D01*
G75*
G02*
X68718000Y-118249000I0J-225000D01*
G01*
X68718000Y-118699000D01*
G75*
G02*
X68493000Y-118924000I-225000J0D01*
G01*
G37*
G04 #@! TD*
G04 #@! TO.C,C2*
G36*
G01*
X67993000Y-121199000D02*
X68493000Y-121199000D01*
G75*
G02*
X68718000Y-121424000I0J-225000D01*
G01*
X68718000Y-121874000D01*
G75*
G02*
X68493000Y-122099000I-225000J0D01*
G01*
X67993000Y-122099000D01*
G75*
G02*
X67768000Y-121874000I0J225000D01*
G01*
X67768000Y-121424000D01*
G75*
G02*
X67993000Y-121199000I225000J0D01*
G01*
G37*
G36*
G01*
X67993000Y-119649000D02*
X68493000Y-119649000D01*
G75*
G02*
X68718000Y-119874000I0J-225000D01*
G01*
X68718000Y-120324000D01*
G75*
G02*
X68493000Y-120549000I-225000J0D01*
G01*
X67993000Y-120549000D01*
G75*
G02*
X67768000Y-120324000I0J225000D01*
G01*
X67768000Y-119874000D01*
G75*
G02*
X67993000Y-119649000I225000J0D01*
G01*
G37*
G04 #@! TD*
G04 #@! TO.C,C1*
G36*
G01*
X68766001Y-127975000D02*
X67465999Y-127975000D01*
G75*
G02*
X67216000Y-127725001I0J249999D01*
G01*
X67216000Y-127074999D01*
G75*
G02*
X67465999Y-126825000I249999J0D01*
G01*
X68766001Y-126825000D01*
G75*
G02*
X69016000Y-127074999I0J-249999D01*
G01*
X69016000Y-127725001D01*
G75*
G02*
X68766001Y-127975000I-249999J0D01*
G01*
G37*
G36*
G01*
X68766001Y-130925000D02*
X67465999Y-130925000D01*
G75*
G02*
X67216000Y-130675001I0J249999D01*
G01*
X67216000Y-130024999D01*
G75*
G02*
X67465999Y-129775000I249999J0D01*
G01*
X68766001Y-129775000D01*
G75*
G02*
X69016000Y-130024999I0J-249999D01*
G01*
X69016000Y-130675001D01*
G75*
G02*
X68766001Y-130925000I-249999J0D01*
G01*
G37*
G04 #@! TD*
D27*
X87039063Y-71168648D02*
X87295645Y-71234068D01*
X87549072Y-71298757D01*
X87799021Y-71362631D01*
X88045169Y-71425605D01*
X88287192Y-71487597D01*
X88524768Y-71548521D01*
X88757573Y-71608293D01*
X88985284Y-71666830D01*
X89207578Y-71724047D01*
X89424132Y-71779860D01*
X89634623Y-71834185D01*
X89838728Y-71886938D01*
X90036123Y-71938035D01*
X90226486Y-71987392D01*
X90409493Y-72034923D01*
X90584822Y-72080547D01*
X90752148Y-72124178D01*
X90911149Y-72165731D01*
X91061503Y-72205124D01*
X91202885Y-72242272D01*
X91334972Y-72277091D01*
X91457442Y-72309497D01*
X91569972Y-72339405D01*
X91672237Y-72366731D01*
X91763916Y-72391392D01*
X91844685Y-72413304D01*
X91914221Y-72432381D01*
X91991651Y-72454191D01*
X88887767Y-90204532D01*
X81801220Y-92665138D01*
X75112920Y-90206204D01*
X72103754Y-72442412D01*
X72138613Y-72432621D01*
X72208247Y-72413563D01*
X72289135Y-72391669D01*
X72380951Y-72367024D01*
X72483373Y-72339712D01*
X72596076Y-72309816D01*
X72718738Y-72277420D01*
X72851033Y-72242610D01*
X72992639Y-72205469D01*
X73143232Y-72166082D01*
X73302488Y-72124532D01*
X73470084Y-72080903D01*
X73645694Y-72035281D01*
X73828997Y-71987749D01*
X74019668Y-71938391D01*
X74217384Y-71887291D01*
X74421820Y-71834534D01*
X74632654Y-71780204D01*
X74849561Y-71724385D01*
X75072217Y-71667161D01*
X75300300Y-71608616D01*
X75533485Y-71548835D01*
X75771448Y-71487901D01*
X76013866Y-71425900D01*
X76260415Y-71362914D01*
X76510772Y-71299029D01*
X76764612Y-71234328D01*
X77021613Y-71168896D01*
X82034411Y-69893355D01*
X87039063Y-71168648D01*
D10*
G36*
X87039063Y-71168648D02*
G01*
X87295645Y-71234068D01*
X87549072Y-71298757D01*
X87799021Y-71362631D01*
X88045169Y-71425605D01*
X88287192Y-71487597D01*
X88524768Y-71548521D01*
X88757573Y-71608293D01*
X88985284Y-71666830D01*
X89207578Y-71724047D01*
X89424132Y-71779860D01*
X89634623Y-71834185D01*
X89838728Y-71886938D01*
X90036123Y-71938035D01*
X90226486Y-71987392D01*
X90409493Y-72034923D01*
X90584822Y-72080547D01*
X90752148Y-72124178D01*
X90911149Y-72165731D01*
X91061503Y-72205124D01*
X91202885Y-72242272D01*
X91334972Y-72277091D01*
X91457442Y-72309497D01*
X91569972Y-72339405D01*
X91672237Y-72366731D01*
X91763916Y-72391392D01*
X91844685Y-72413304D01*
X91914221Y-72432381D01*
X91991651Y-72454191D01*
X88887767Y-90204532D01*
X81801220Y-92665138D01*
X75112920Y-90206204D01*
X72103754Y-72442412D01*
X72138613Y-72432621D01*
X72208247Y-72413563D01*
X72289135Y-72391669D01*
X72380951Y-72367024D01*
X72483373Y-72339712D01*
X72596076Y-72309816D01*
X72718738Y-72277420D01*
X72851033Y-72242610D01*
X72992639Y-72205469D01*
X73143232Y-72166082D01*
X73302488Y-72124532D01*
X73470084Y-72080903D01*
X73645694Y-72035281D01*
X73828997Y-71987749D01*
X74019668Y-71938391D01*
X74217384Y-71887291D01*
X74421820Y-71834534D01*
X74632654Y-71780204D01*
X74849561Y-71724385D01*
X75072217Y-71667161D01*
X75300300Y-71608616D01*
X75533485Y-71548835D01*
X75771448Y-71487901D01*
X76013866Y-71425900D01*
X76260415Y-71362914D01*
X76510772Y-71299029D01*
X76764612Y-71234328D01*
X77021613Y-71168896D01*
X82034411Y-69893355D01*
X87039063Y-71168648D01*
G37*
M02*
