M48
; DRILL file {KiCad (5.1.12-1-10_14)} date Wednesday, December 08, 2021 at 02:05:38 PM
; FORMAT={-:-/ absolute / inch / decimal}
; #@! TF.CreationDate,2021-12-08T14:05:38-05:00
; #@! TF.GenerationSoftware,Kicad,Pcbnew,(5.1.12-1-10_14)
; #@! TF.FileFunction,Plated,1,2,PTH
FMAT,2
INCH
T1C0.0157
T2C0.0197
T3C0.0217
T4C0.0394
%
G90
G05
T1
X1.063Y-3.0512
X1.25Y-3.0709
X1.3386Y-2.9035
X1.4421Y-2.3751
X1.4713Y-2.4044
X1.5512Y-3.5512
X1.5729Y-3.7224
X1.5748Y-3.3957
X1.6024Y-3.5512
X1.6929Y-3.1201
X1.6929Y-3.7008
X1.752Y-3.3848
X1.752Y-3.4262
T4
X1.1024Y-3.1693
X1.1024Y-3.2693
X1.1024Y-3.3693
X1.1024Y-3.4693
X1.1024Y-3.5693
X1.1024Y-3.6693
X1.1024Y-3.7693
X1.9Y-3.1677
X1.9Y-3.2677
X1.9Y-3.3677
X1.9Y-3.4677
X1.9Y-3.5677
X1.9Y-3.6677
X1.9Y-3.7677
T2
G00X1.3587Y-2.1821
M15
G01X1.3587Y-2.1565
M16
G05
G00X1.6343Y-2.1821
M15
G01X1.6343Y-2.1565
M16
G05
T3
G00X1.4039Y-2.2756
M15
G01X1.3921Y-2.2756
M16
G05
G00X1.6008Y-2.2756
M15
G01X1.589Y-2.2756
M16
G05
T0
M30
