G04 #@! TF.GenerationSoftware,KiCad,Pcbnew,(5.1.12-1-10_14)*
G04 #@! TF.CreationDate,2021-12-17T21:30:25-05:00*
G04 #@! TF.ProjectId,charlieplexboard,63686172-6c69-4657-906c-6578626f6172,rev?*
G04 #@! TF.SameCoordinates,Original*
G04 #@! TF.FileFunction,Legend,Top*
G04 #@! TF.FilePolarity,Positive*
%FSLAX46Y46*%
G04 Gerber Fmt 4.6, Leading zero omitted, Abs format (unit mm)*
G04 Created by KiCad (PCBNEW (5.1.12-1-10_14)) date 2021-12-17 21:30:25*
%MOMM*%
%LPD*%
G01*
G04 APERTURE LIST*
%ADD10C,0.120000*%
%ADD11C,0.150000*%
G04 APERTURE END LIST*
D10*
X157788000Y-92876000D02*
G75*
G03*
X157788000Y-92876000I-508000J0D01*
G01*
D11*
X175480761Y-105933142D02*
X175433142Y-105980761D01*
X175290285Y-106028380D01*
X175195047Y-106028380D01*
X175052190Y-105980761D01*
X174956952Y-105885523D01*
X174909333Y-105790285D01*
X174861714Y-105599809D01*
X174861714Y-105456952D01*
X174909333Y-105266476D01*
X174956952Y-105171238D01*
X175052190Y-105076000D01*
X175195047Y-105028380D01*
X175290285Y-105028380D01*
X175433142Y-105076000D01*
X175480761Y-105123619D01*
X175861714Y-105742666D02*
X176337904Y-105742666D01*
X175766476Y-106028380D02*
X176099809Y-105028380D01*
X176433142Y-106028380D01*
X177290285Y-106028380D02*
X176718857Y-106028380D01*
X177004571Y-106028380D02*
X177004571Y-105028380D01*
X176909333Y-105171238D01*
X176814095Y-105266476D01*
X176718857Y-105314095D01*
X175480761Y-85105142D02*
X175433142Y-85152761D01*
X175290285Y-85200380D01*
X175195047Y-85200380D01*
X175052190Y-85152761D01*
X174956952Y-85057523D01*
X174909333Y-84962285D01*
X174861714Y-84771809D01*
X174861714Y-84628952D01*
X174909333Y-84438476D01*
X174956952Y-84343238D01*
X175052190Y-84248000D01*
X175195047Y-84200380D01*
X175290285Y-84200380D01*
X175433142Y-84248000D01*
X175480761Y-84295619D01*
X175861714Y-84914666D02*
X176337904Y-84914666D01*
X175766476Y-85200380D02*
X176099809Y-84200380D01*
X176433142Y-85200380D01*
X176814095Y-85200380D02*
X177004571Y-85200380D01*
X177099809Y-85152761D01*
X177147428Y-85105142D01*
X177242666Y-84962285D01*
X177290285Y-84771809D01*
X177290285Y-84390857D01*
X177242666Y-84295619D01*
X177195047Y-84248000D01*
X177099809Y-84200380D01*
X176909333Y-84200380D01*
X176814095Y-84248000D01*
X176766476Y-84295619D01*
X176718857Y-84390857D01*
X176718857Y-84628952D01*
X176766476Y-84724190D01*
X176814095Y-84771809D01*
X176909333Y-84819428D01*
X177099809Y-84819428D01*
X177195047Y-84771809D01*
X177242666Y-84724190D01*
X177290285Y-84628952D01*
X148993333Y-105933142D02*
X148945714Y-105980761D01*
X148802857Y-106028380D01*
X148707619Y-106028380D01*
X148564761Y-105980761D01*
X148469523Y-105885523D01*
X148421904Y-105790285D01*
X148374285Y-105599809D01*
X148374285Y-105456952D01*
X148421904Y-105266476D01*
X148469523Y-105171238D01*
X148564761Y-105076000D01*
X148707619Y-105028380D01*
X148802857Y-105028380D01*
X148945714Y-105076000D01*
X148993333Y-105123619D01*
X149755238Y-105504571D02*
X149898095Y-105552190D01*
X149945714Y-105599809D01*
X149993333Y-105695047D01*
X149993333Y-105837904D01*
X149945714Y-105933142D01*
X149898095Y-105980761D01*
X149802857Y-106028380D01*
X149421904Y-106028380D01*
X149421904Y-105028380D01*
X149755238Y-105028380D01*
X149850476Y-105076000D01*
X149898095Y-105123619D01*
X149945714Y-105218857D01*
X149945714Y-105314095D01*
X149898095Y-105409333D01*
X149850476Y-105456952D01*
X149755238Y-105504571D01*
X149421904Y-105504571D01*
X150469523Y-106028380D02*
X150660000Y-106028380D01*
X150755238Y-105980761D01*
X150802857Y-105933142D01*
X150898095Y-105790285D01*
X150945714Y-105599809D01*
X150945714Y-105218857D01*
X150898095Y-105123619D01*
X150850476Y-105076000D01*
X150755238Y-105028380D01*
X150564761Y-105028380D01*
X150469523Y-105076000D01*
X150421904Y-105123619D01*
X150374285Y-105218857D01*
X150374285Y-105456952D01*
X150421904Y-105552190D01*
X150469523Y-105599809D01*
X150564761Y-105647428D01*
X150755238Y-105647428D01*
X150850476Y-105599809D01*
X150898095Y-105552190D01*
X150945714Y-105456952D01*
X148993333Y-85105142D02*
X148945714Y-85152761D01*
X148802857Y-85200380D01*
X148707619Y-85200380D01*
X148564761Y-85152761D01*
X148469523Y-85057523D01*
X148421904Y-84962285D01*
X148374285Y-84771809D01*
X148374285Y-84628952D01*
X148421904Y-84438476D01*
X148469523Y-84343238D01*
X148564761Y-84248000D01*
X148707619Y-84200380D01*
X148802857Y-84200380D01*
X148945714Y-84248000D01*
X148993333Y-84295619D01*
X149755238Y-84676571D02*
X149898095Y-84724190D01*
X149945714Y-84771809D01*
X149993333Y-84867047D01*
X149993333Y-85009904D01*
X149945714Y-85105142D01*
X149898095Y-85152761D01*
X149802857Y-85200380D01*
X149421904Y-85200380D01*
X149421904Y-84200380D01*
X149755238Y-84200380D01*
X149850476Y-84248000D01*
X149898095Y-84295619D01*
X149945714Y-84390857D01*
X149945714Y-84486095D01*
X149898095Y-84581333D01*
X149850476Y-84628952D01*
X149755238Y-84676571D01*
X149421904Y-84676571D01*
X150945714Y-85200380D02*
X150374285Y-85200380D01*
X150660000Y-85200380D02*
X150660000Y-84200380D01*
X150564761Y-84343238D01*
X150469523Y-84438476D01*
X150374285Y-84486095D01*
X148183809Y-124981000D02*
X149136190Y-124981000D01*
X148374285Y-126300761D02*
X148517142Y-126348380D01*
X148755238Y-126348380D01*
X148850476Y-126300761D01*
X148898095Y-126253142D01*
X148945714Y-126157904D01*
X148945714Y-126062666D01*
X148898095Y-125967428D01*
X148850476Y-125919809D01*
X148755238Y-125872190D01*
X148564761Y-125824571D01*
X148469523Y-125776952D01*
X148421904Y-125729333D01*
X148374285Y-125634095D01*
X148374285Y-125538857D01*
X148421904Y-125443619D01*
X148469523Y-125396000D01*
X148564761Y-125348380D01*
X148802857Y-125348380D01*
X148945714Y-125396000D01*
X149136190Y-124981000D02*
X150136190Y-124981000D01*
X149374285Y-126348380D02*
X149374285Y-125348380D01*
X149612380Y-125348380D01*
X149755238Y-125396000D01*
X149850476Y-125491238D01*
X149898095Y-125586476D01*
X149945714Y-125776952D01*
X149945714Y-125919809D01*
X149898095Y-126110285D01*
X149850476Y-126205523D01*
X149755238Y-126300761D01*
X149612380Y-126348380D01*
X149374285Y-126348380D01*
X150136190Y-124981000D02*
X151136190Y-124981000D01*
X150707619Y-125824571D02*
X150850476Y-125872190D01*
X150898095Y-125919809D01*
X150945714Y-126015047D01*
X150945714Y-126157904D01*
X150898095Y-126253142D01*
X150850476Y-126300761D01*
X150755238Y-126348380D01*
X150374285Y-126348380D01*
X150374285Y-125348380D01*
X150707619Y-125348380D01*
X150802857Y-125396000D01*
X150850476Y-125443619D01*
X150898095Y-125538857D01*
X150898095Y-125634095D01*
X150850476Y-125729333D01*
X150802857Y-125776952D01*
X150707619Y-125824571D01*
X150374285Y-125824571D01*
X148445714Y-118680761D02*
X148588571Y-118728380D01*
X148826666Y-118728380D01*
X148921904Y-118680761D01*
X148969523Y-118633142D01*
X149017142Y-118537904D01*
X149017142Y-118442666D01*
X148969523Y-118347428D01*
X148921904Y-118299809D01*
X148826666Y-118252190D01*
X148636190Y-118204571D01*
X148540952Y-118156952D01*
X148493333Y-118109333D01*
X148445714Y-118014095D01*
X148445714Y-117918857D01*
X148493333Y-117823619D01*
X148540952Y-117776000D01*
X148636190Y-117728380D01*
X148874285Y-117728380D01*
X149017142Y-117776000D01*
X149445714Y-118728380D02*
X149445714Y-117728380D01*
X149683809Y-117728380D01*
X149826666Y-117776000D01*
X149921904Y-117871238D01*
X149969523Y-117966476D01*
X150017142Y-118156952D01*
X150017142Y-118299809D01*
X149969523Y-118490285D01*
X149921904Y-118585523D01*
X149826666Y-118680761D01*
X149683809Y-118728380D01*
X149445714Y-118728380D01*
X150398095Y-118442666D02*
X150874285Y-118442666D01*
X150302857Y-118728380D02*
X150636190Y-117728380D01*
X150969523Y-118728380D01*
X148469523Y-116140761D02*
X148612380Y-116188380D01*
X148850476Y-116188380D01*
X148945714Y-116140761D01*
X148993333Y-116093142D01*
X149040952Y-115997904D01*
X149040952Y-115902666D01*
X148993333Y-115807428D01*
X148945714Y-115759809D01*
X148850476Y-115712190D01*
X148660000Y-115664571D01*
X148564761Y-115616952D01*
X148517142Y-115569333D01*
X148469523Y-115474095D01*
X148469523Y-115378857D01*
X148517142Y-115283619D01*
X148564761Y-115236000D01*
X148660000Y-115188380D01*
X148898095Y-115188380D01*
X149040952Y-115236000D01*
X150040952Y-116093142D02*
X149993333Y-116140761D01*
X149850476Y-116188380D01*
X149755238Y-116188380D01*
X149612380Y-116140761D01*
X149517142Y-116045523D01*
X149469523Y-115950285D01*
X149421904Y-115759809D01*
X149421904Y-115616952D01*
X149469523Y-115426476D01*
X149517142Y-115331238D01*
X149612380Y-115236000D01*
X149755238Y-115188380D01*
X149850476Y-115188380D01*
X149993333Y-115236000D01*
X150040952Y-115283619D01*
X150945714Y-116188380D02*
X150469523Y-116188380D01*
X150469523Y-115188380D01*
X148898095Y-112696000D02*
X148802857Y-112648380D01*
X148660000Y-112648380D01*
X148517142Y-112696000D01*
X148421904Y-112791238D01*
X148374285Y-112886476D01*
X148326666Y-113076952D01*
X148326666Y-113219809D01*
X148374285Y-113410285D01*
X148421904Y-113505523D01*
X148517142Y-113600761D01*
X148660000Y-113648380D01*
X148755238Y-113648380D01*
X148898095Y-113600761D01*
X148945714Y-113553142D01*
X148945714Y-113219809D01*
X148755238Y-113219809D01*
X149374285Y-113648380D02*
X149374285Y-112648380D01*
X149945714Y-113648380D01*
X149945714Y-112648380D01*
X150421904Y-113648380D02*
X150421904Y-112648380D01*
X150660000Y-112648380D01*
X150802857Y-112696000D01*
X150898095Y-112791238D01*
X150945714Y-112886476D01*
X150993333Y-113076952D01*
X150993333Y-113219809D01*
X150945714Y-113410285D01*
X150898095Y-113505523D01*
X150802857Y-113600761D01*
X150660000Y-113648380D01*
X150421904Y-113648380D01*
X148421904Y-110108380D02*
X149040952Y-110108380D01*
X148707619Y-110489333D01*
X148850476Y-110489333D01*
X148945714Y-110536952D01*
X148993333Y-110584571D01*
X149040952Y-110679809D01*
X149040952Y-110917904D01*
X148993333Y-111013142D01*
X148945714Y-111060761D01*
X148850476Y-111108380D01*
X148564761Y-111108380D01*
X148469523Y-111060761D01*
X148421904Y-111013142D01*
X149326666Y-110108380D02*
X149660000Y-111108380D01*
X149993333Y-110108380D01*
X150231428Y-110108380D02*
X150850476Y-110108380D01*
X150517142Y-110489333D01*
X150660000Y-110489333D01*
X150755238Y-110536952D01*
X150802857Y-110584571D01*
X150850476Y-110679809D01*
X150850476Y-110917904D01*
X150802857Y-111013142D01*
X150755238Y-111060761D01*
X150660000Y-111108380D01*
X150374285Y-111108380D01*
X150279047Y-111060761D01*
X150231428Y-111013142D01*
X148471047Y-78596380D02*
X148137714Y-78120190D01*
X147899619Y-78596380D02*
X147899619Y-77596380D01*
X148280571Y-77596380D01*
X148375809Y-77644000D01*
X148423428Y-77691619D01*
X148471047Y-77786857D01*
X148471047Y-77929714D01*
X148423428Y-78024952D01*
X148375809Y-78072571D01*
X148280571Y-78120190D01*
X147899619Y-78120190D01*
X149090095Y-77596380D02*
X149280571Y-77596380D01*
X149375809Y-77644000D01*
X149471047Y-77739238D01*
X149518666Y-77929714D01*
X149518666Y-78263047D01*
X149471047Y-78453523D01*
X149375809Y-78548761D01*
X149280571Y-78596380D01*
X149090095Y-78596380D01*
X148994857Y-78548761D01*
X148899619Y-78453523D01*
X148852000Y-78263047D01*
X148852000Y-77929714D01*
X148899619Y-77739238D01*
X148994857Y-77644000D01*
X149090095Y-77596380D01*
X149947238Y-77596380D02*
X149947238Y-78405904D01*
X149994857Y-78501142D01*
X150042476Y-78548761D01*
X150137714Y-78596380D01*
X150328190Y-78596380D01*
X150423428Y-78548761D01*
X150471047Y-78501142D01*
X150518666Y-78405904D01*
X150518666Y-77596380D01*
X151518666Y-77644000D02*
X151423428Y-77596380D01*
X151280571Y-77596380D01*
X151137714Y-77644000D01*
X151042476Y-77739238D01*
X150994857Y-77834476D01*
X150947238Y-78024952D01*
X150947238Y-78167809D01*
X150994857Y-78358285D01*
X151042476Y-78453523D01*
X151137714Y-78548761D01*
X151280571Y-78596380D01*
X151375809Y-78596380D01*
X151518666Y-78548761D01*
X151566285Y-78501142D01*
X151566285Y-78167809D01*
X151375809Y-78167809D01*
X151994857Y-78596380D02*
X151994857Y-77596380D01*
X151994857Y-78072571D02*
X152566285Y-78072571D01*
X152566285Y-78596380D02*
X152566285Y-77596380D01*
X153756761Y-78548761D02*
X153899619Y-78596380D01*
X154137714Y-78596380D01*
X154232952Y-78548761D01*
X154280571Y-78501142D01*
X154328190Y-78405904D01*
X154328190Y-78310666D01*
X154280571Y-78215428D01*
X154232952Y-78167809D01*
X154137714Y-78120190D01*
X153947238Y-78072571D01*
X153852000Y-78024952D01*
X153804380Y-77977333D01*
X153756761Y-77882095D01*
X153756761Y-77786857D01*
X153804380Y-77691619D01*
X153852000Y-77644000D01*
X153947238Y-77596380D01*
X154185333Y-77596380D01*
X154328190Y-77644000D01*
X154613904Y-77596380D02*
X155185333Y-77596380D01*
X154899619Y-78596380D02*
X154899619Y-77596380D01*
X155518666Y-77596380D02*
X155518666Y-78405904D01*
X155566285Y-78501142D01*
X155613904Y-78548761D01*
X155709142Y-78596380D01*
X155899619Y-78596380D01*
X155994857Y-78548761D01*
X156042476Y-78501142D01*
X156090095Y-78405904D01*
X156090095Y-77596380D01*
X156899619Y-78072571D02*
X156566285Y-78072571D01*
X156566285Y-78596380D02*
X156566285Y-77596380D01*
X157042476Y-77596380D01*
X157756761Y-78072571D02*
X157423428Y-78072571D01*
X157423428Y-78596380D02*
X157423428Y-77596380D01*
X157899619Y-77596380D01*
X159613904Y-78501142D02*
X159566285Y-78548761D01*
X159423428Y-78596380D01*
X159328190Y-78596380D01*
X159185333Y-78548761D01*
X159090095Y-78453523D01*
X159042476Y-78358285D01*
X158994857Y-78167809D01*
X158994857Y-78024952D01*
X159042476Y-77834476D01*
X159090095Y-77739238D01*
X159185333Y-77644000D01*
X159328190Y-77596380D01*
X159423428Y-77596380D01*
X159566285Y-77644000D01*
X159613904Y-77691619D01*
X160042476Y-78596380D02*
X160042476Y-77596380D01*
X160471047Y-78596380D02*
X160471047Y-78072571D01*
X160423428Y-77977333D01*
X160328190Y-77929714D01*
X160185333Y-77929714D01*
X160090095Y-77977333D01*
X160042476Y-78024952D01*
X161375809Y-78596380D02*
X161375809Y-78072571D01*
X161328190Y-77977333D01*
X161232952Y-77929714D01*
X161042476Y-77929714D01*
X160947238Y-77977333D01*
X161375809Y-78548761D02*
X161280571Y-78596380D01*
X161042476Y-78596380D01*
X160947238Y-78548761D01*
X160899619Y-78453523D01*
X160899619Y-78358285D01*
X160947238Y-78263047D01*
X161042476Y-78215428D01*
X161280571Y-78215428D01*
X161375809Y-78167809D01*
X161852000Y-78596380D02*
X161852000Y-77929714D01*
X161852000Y-78120190D02*
X161899619Y-78024952D01*
X161947238Y-77977333D01*
X162042476Y-77929714D01*
X162137714Y-77929714D01*
X162613904Y-78596380D02*
X162518666Y-78548761D01*
X162471047Y-78453523D01*
X162471047Y-77596380D01*
X162994857Y-78596380D02*
X162994857Y-77929714D01*
X162994857Y-77596380D02*
X162947238Y-77644000D01*
X162994857Y-77691619D01*
X163042476Y-77644000D01*
X162994857Y-77596380D01*
X162994857Y-77691619D01*
X163852000Y-78548761D02*
X163756761Y-78596380D01*
X163566285Y-78596380D01*
X163471047Y-78548761D01*
X163423428Y-78453523D01*
X163423428Y-78072571D01*
X163471047Y-77977333D01*
X163566285Y-77929714D01*
X163756761Y-77929714D01*
X163852000Y-77977333D01*
X163899619Y-78072571D01*
X163899619Y-78167809D01*
X163423428Y-78263047D01*
X164328190Y-77929714D02*
X164328190Y-78929714D01*
X164328190Y-77977333D02*
X164423428Y-77929714D01*
X164613904Y-77929714D01*
X164709142Y-77977333D01*
X164756761Y-78024952D01*
X164804380Y-78120190D01*
X164804380Y-78405904D01*
X164756761Y-78501142D01*
X164709142Y-78548761D01*
X164613904Y-78596380D01*
X164423428Y-78596380D01*
X164328190Y-78548761D01*
X165375809Y-78596380D02*
X165280571Y-78548761D01*
X165232952Y-78453523D01*
X165232952Y-77596380D01*
X166137714Y-78548761D02*
X166042476Y-78596380D01*
X165852000Y-78596380D01*
X165756761Y-78548761D01*
X165709142Y-78453523D01*
X165709142Y-78072571D01*
X165756761Y-77977333D01*
X165852000Y-77929714D01*
X166042476Y-77929714D01*
X166137714Y-77977333D01*
X166185333Y-78072571D01*
X166185333Y-78167809D01*
X165709142Y-78263047D01*
X166518666Y-78596380D02*
X167042476Y-77929714D01*
X166518666Y-77929714D02*
X167042476Y-78596380D01*
X168042476Y-77596380D02*
X168613904Y-77596380D01*
X168328190Y-78596380D02*
X168328190Y-77596380D01*
X169328190Y-78548761D02*
X169232952Y-78596380D01*
X169042476Y-78596380D01*
X168947238Y-78548761D01*
X168899619Y-78453523D01*
X168899619Y-78072571D01*
X168947238Y-77977333D01*
X169042476Y-77929714D01*
X169232952Y-77929714D01*
X169328190Y-77977333D01*
X169375809Y-78072571D01*
X169375809Y-78167809D01*
X168899619Y-78263047D01*
X169756761Y-78548761D02*
X169852000Y-78596380D01*
X170042476Y-78596380D01*
X170137714Y-78548761D01*
X170185333Y-78453523D01*
X170185333Y-78405904D01*
X170137714Y-78310666D01*
X170042476Y-78263047D01*
X169899619Y-78263047D01*
X169804380Y-78215428D01*
X169756761Y-78120190D01*
X169756761Y-78072571D01*
X169804380Y-77977333D01*
X169899619Y-77929714D01*
X170042476Y-77929714D01*
X170137714Y-77977333D01*
X170471047Y-77929714D02*
X170852000Y-77929714D01*
X170613904Y-77596380D02*
X170613904Y-78453523D01*
X170661523Y-78548761D01*
X170756761Y-78596380D01*
X170852000Y-78596380D01*
X172280571Y-78072571D02*
X172423428Y-78120190D01*
X172471047Y-78167809D01*
X172518666Y-78263047D01*
X172518666Y-78405904D01*
X172471047Y-78501142D01*
X172423428Y-78548761D01*
X172328190Y-78596380D01*
X171947238Y-78596380D01*
X171947238Y-77596380D01*
X172280571Y-77596380D01*
X172375809Y-77644000D01*
X172423428Y-77691619D01*
X172471047Y-77786857D01*
X172471047Y-77882095D01*
X172423428Y-77977333D01*
X172375809Y-78024952D01*
X172280571Y-78072571D01*
X171947238Y-78072571D01*
X173090095Y-78596380D02*
X172994857Y-78548761D01*
X172947238Y-78501142D01*
X172899619Y-78405904D01*
X172899619Y-78120190D01*
X172947238Y-78024952D01*
X172994857Y-77977333D01*
X173090095Y-77929714D01*
X173232952Y-77929714D01*
X173328190Y-77977333D01*
X173375809Y-78024952D01*
X173423428Y-78120190D01*
X173423428Y-78405904D01*
X173375809Y-78501142D01*
X173328190Y-78548761D01*
X173232952Y-78596380D01*
X173090095Y-78596380D01*
X174280571Y-78596380D02*
X174280571Y-78072571D01*
X174232952Y-77977333D01*
X174137714Y-77929714D01*
X173947238Y-77929714D01*
X173852000Y-77977333D01*
X174280571Y-78548761D02*
X174185333Y-78596380D01*
X173947238Y-78596380D01*
X173852000Y-78548761D01*
X173804380Y-78453523D01*
X173804380Y-78358285D01*
X173852000Y-78263047D01*
X173947238Y-78215428D01*
X174185333Y-78215428D01*
X174280571Y-78167809D01*
X174756761Y-78596380D02*
X174756761Y-77929714D01*
X174756761Y-78120190D02*
X174804380Y-78024952D01*
X174852000Y-77977333D01*
X174947238Y-77929714D01*
X175042476Y-77929714D01*
X175804380Y-78596380D02*
X175804380Y-77596380D01*
X175804380Y-78548761D02*
X175709142Y-78596380D01*
X175518666Y-78596380D01*
X175423428Y-78548761D01*
X175375809Y-78501142D01*
X175328190Y-78405904D01*
X175328190Y-78120190D01*
X175375809Y-78024952D01*
X175423428Y-77977333D01*
X175518666Y-77929714D01*
X175709142Y-77929714D01*
X175804380Y-77977333D01*
D10*
G04 #@! TO.C,J2*
X151886000Y-86272000D02*
X154546000Y-86272000D01*
X151886000Y-86272000D02*
X151886000Y-106652000D01*
X151886000Y-106652000D02*
X154546000Y-106652000D01*
X154546000Y-86272000D02*
X154546000Y-106652000D01*
X154546000Y-83672000D02*
X154546000Y-85002000D01*
X153216000Y-83672000D02*
X154546000Y-83672000D01*
G04 #@! TO.C,J1*
X174104000Y-104052000D02*
X171444000Y-104052000D01*
X174104000Y-104052000D02*
X174104000Y-83672000D01*
X174104000Y-83672000D02*
X171444000Y-83672000D01*
X171444000Y-104052000D02*
X171444000Y-83672000D01*
X171444000Y-106652000D02*
X171444000Y-105322000D01*
X172774000Y-106652000D02*
X171444000Y-106652000D01*
D11*
G04 #@! TO.C,U4*
X160325000Y-91775000D02*
X160325000Y-92350000D01*
X166075000Y-91775000D02*
X166075000Y-92425000D01*
X166075000Y-102425000D02*
X166075000Y-101775000D01*
X160325000Y-102425000D02*
X160325000Y-101775000D01*
X160325000Y-91775000D02*
X166075000Y-91775000D01*
X160325000Y-102425000D02*
X166075000Y-102425000D01*
X160325000Y-92350000D02*
X158725000Y-92350000D01*
D10*
G04 #@! TO.C,R10*
X167456742Y-106577500D02*
X167931258Y-106577500D01*
X167456742Y-107622500D02*
X167931258Y-107622500D01*
G04 #@! TO.C,R9*
X167962500Y-116514742D02*
X167962500Y-116989258D01*
X166917500Y-116514742D02*
X166917500Y-116989258D01*
G04 #@! TO.C,R8*
X173550500Y-113466742D02*
X173550500Y-113941258D01*
X172505500Y-113466742D02*
X172505500Y-113941258D01*
G04 #@! TO.C,R7*
X164916742Y-87019500D02*
X165391258Y-87019500D01*
X164916742Y-88064500D02*
X165391258Y-88064500D01*
G04 #@! TO.C,R6*
X161032742Y-86787500D02*
X161507258Y-86787500D01*
X161032742Y-87832500D02*
X161507258Y-87832500D01*
G04 #@! TO.C,R5*
X157233742Y-84479500D02*
X157708258Y-84479500D01*
X157233742Y-85524500D02*
X157708258Y-85524500D01*
G04 #@! TO.C,J3*
X154546000Y-108818000D02*
X151886000Y-108818000D01*
X154546000Y-124118000D02*
X154546000Y-108818000D01*
X151886000Y-124118000D02*
X151886000Y-108818000D01*
X154546000Y-124118000D02*
X151886000Y-124118000D01*
X154546000Y-125388000D02*
X154546000Y-126718000D01*
X154546000Y-126718000D02*
X153216000Y-126718000D01*
G04 #@! TO.C,C11*
X166930000Y-111304580D02*
X166930000Y-111023420D01*
X167950000Y-111304580D02*
X167950000Y-111023420D01*
G04 #@! TO.C,C10*
X162612000Y-111304580D02*
X162612000Y-111023420D01*
X163632000Y-111304580D02*
X163632000Y-111023420D01*
G04 #@! TO.C,C9*
X158294000Y-111304580D02*
X158294000Y-111023420D01*
X159314000Y-111304580D02*
X159314000Y-111023420D01*
G04 #@! TO.C,C8*
X164394000Y-106451420D02*
X164394000Y-106732580D01*
X163374000Y-106451420D02*
X163374000Y-106732580D01*
G04 #@! TO.C,U4*
D11*
X162438095Y-90302380D02*
X162438095Y-91111904D01*
X162485714Y-91207142D01*
X162533333Y-91254761D01*
X162628571Y-91302380D01*
X162819047Y-91302380D01*
X162914285Y-91254761D01*
X162961904Y-91207142D01*
X163009523Y-91111904D01*
X163009523Y-90302380D01*
X163914285Y-90635714D02*
X163914285Y-91302380D01*
X163676190Y-90254761D02*
X163438095Y-90969047D01*
X164057142Y-90969047D01*
G04 #@! TO.C,R10*
X166432095Y-108077619D02*
X166479714Y-108030000D01*
X166574952Y-107982380D01*
X166813047Y-107982380D01*
X166908285Y-108030000D01*
X166955904Y-108077619D01*
X167003523Y-108172857D01*
X167003523Y-108268095D01*
X166955904Y-108410952D01*
X166384476Y-108982380D01*
X167003523Y-108982380D01*
X167622571Y-107982380D02*
X167717809Y-107982380D01*
X167813047Y-108030000D01*
X167860666Y-108077619D01*
X167908285Y-108172857D01*
X167955904Y-108363333D01*
X167955904Y-108601428D01*
X167908285Y-108791904D01*
X167860666Y-108887142D01*
X167813047Y-108934761D01*
X167717809Y-108982380D01*
X167622571Y-108982380D01*
X167527333Y-108934761D01*
X167479714Y-108887142D01*
X167432095Y-108791904D01*
X167384476Y-108601428D01*
X167384476Y-108363333D01*
X167432095Y-108172857D01*
X167479714Y-108077619D01*
X167527333Y-108030000D01*
X167622571Y-107982380D01*
X168384476Y-108982380D02*
X168384476Y-107982380D01*
X168955904Y-108982380D02*
X168527333Y-108410952D01*
X168955904Y-107982380D02*
X168384476Y-108553809D01*
G04 #@! TO.C,R9*
X165557619Y-118013904D02*
X165510000Y-117966285D01*
X165462380Y-117871047D01*
X165462380Y-117632952D01*
X165510000Y-117537714D01*
X165557619Y-117490095D01*
X165652857Y-117442476D01*
X165748095Y-117442476D01*
X165890952Y-117490095D01*
X166462380Y-118061523D01*
X166462380Y-117442476D01*
X165462380Y-116823428D02*
X165462380Y-116728190D01*
X165510000Y-116632952D01*
X165557619Y-116585333D01*
X165652857Y-116537714D01*
X165843333Y-116490095D01*
X166081428Y-116490095D01*
X166271904Y-116537714D01*
X166367142Y-116585333D01*
X166414761Y-116632952D01*
X166462380Y-116728190D01*
X166462380Y-116823428D01*
X166414761Y-116918666D01*
X166367142Y-116966285D01*
X166271904Y-117013904D01*
X166081428Y-117061523D01*
X165843333Y-117061523D01*
X165652857Y-117013904D01*
X165557619Y-116966285D01*
X165510000Y-116918666D01*
X165462380Y-116823428D01*
X166462380Y-116061523D02*
X165462380Y-116061523D01*
X166462380Y-115490095D02*
X165890952Y-115918666D01*
X165462380Y-115490095D02*
X166033809Y-116061523D01*
G04 #@! TO.C,R8*
X171145619Y-114965904D02*
X171098000Y-114918285D01*
X171050380Y-114823047D01*
X171050380Y-114584952D01*
X171098000Y-114489714D01*
X171145619Y-114442095D01*
X171240857Y-114394476D01*
X171336095Y-114394476D01*
X171478952Y-114442095D01*
X172050380Y-115013523D01*
X172050380Y-114394476D01*
X171050380Y-113775428D02*
X171050380Y-113680190D01*
X171098000Y-113584952D01*
X171145619Y-113537333D01*
X171240857Y-113489714D01*
X171431333Y-113442095D01*
X171669428Y-113442095D01*
X171859904Y-113489714D01*
X171955142Y-113537333D01*
X172002761Y-113584952D01*
X172050380Y-113680190D01*
X172050380Y-113775428D01*
X172002761Y-113870666D01*
X171955142Y-113918285D01*
X171859904Y-113965904D01*
X171669428Y-114013523D01*
X171431333Y-114013523D01*
X171240857Y-113965904D01*
X171145619Y-113918285D01*
X171098000Y-113870666D01*
X171050380Y-113775428D01*
X172050380Y-113013523D02*
X171050380Y-113013523D01*
X172050380Y-112442095D02*
X171478952Y-112870666D01*
X171050380Y-112442095D02*
X171621809Y-113013523D01*
G04 #@! TO.C,R7*
X163892095Y-88519619D02*
X163939714Y-88472000D01*
X164034952Y-88424380D01*
X164273047Y-88424380D01*
X164368285Y-88472000D01*
X164415904Y-88519619D01*
X164463523Y-88614857D01*
X164463523Y-88710095D01*
X164415904Y-88852952D01*
X163844476Y-89424380D01*
X164463523Y-89424380D01*
X165082571Y-88424380D02*
X165177809Y-88424380D01*
X165273047Y-88472000D01*
X165320666Y-88519619D01*
X165368285Y-88614857D01*
X165415904Y-88805333D01*
X165415904Y-89043428D01*
X165368285Y-89233904D01*
X165320666Y-89329142D01*
X165273047Y-89376761D01*
X165177809Y-89424380D01*
X165082571Y-89424380D01*
X164987333Y-89376761D01*
X164939714Y-89329142D01*
X164892095Y-89233904D01*
X164844476Y-89043428D01*
X164844476Y-88805333D01*
X164892095Y-88614857D01*
X164939714Y-88519619D01*
X164987333Y-88472000D01*
X165082571Y-88424380D01*
X165844476Y-89424380D02*
X165844476Y-88424380D01*
X166415904Y-89424380D02*
X165987333Y-88852952D01*
X166415904Y-88424380D02*
X165844476Y-88995809D01*
G04 #@! TO.C,R6*
X160008095Y-88287619D02*
X160055714Y-88240000D01*
X160150952Y-88192380D01*
X160389047Y-88192380D01*
X160484285Y-88240000D01*
X160531904Y-88287619D01*
X160579523Y-88382857D01*
X160579523Y-88478095D01*
X160531904Y-88620952D01*
X159960476Y-89192380D01*
X160579523Y-89192380D01*
X161198571Y-88192380D02*
X161293809Y-88192380D01*
X161389047Y-88240000D01*
X161436666Y-88287619D01*
X161484285Y-88382857D01*
X161531904Y-88573333D01*
X161531904Y-88811428D01*
X161484285Y-89001904D01*
X161436666Y-89097142D01*
X161389047Y-89144761D01*
X161293809Y-89192380D01*
X161198571Y-89192380D01*
X161103333Y-89144761D01*
X161055714Y-89097142D01*
X161008095Y-89001904D01*
X160960476Y-88811428D01*
X160960476Y-88573333D01*
X161008095Y-88382857D01*
X161055714Y-88287619D01*
X161103333Y-88240000D01*
X161198571Y-88192380D01*
X161960476Y-89192380D02*
X161960476Y-88192380D01*
X162531904Y-89192380D02*
X162103333Y-88620952D01*
X162531904Y-88192380D02*
X161960476Y-88763809D01*
G04 #@! TO.C,R5*
X156209095Y-85979619D02*
X156256714Y-85932000D01*
X156351952Y-85884380D01*
X156590047Y-85884380D01*
X156685285Y-85932000D01*
X156732904Y-85979619D01*
X156780523Y-86074857D01*
X156780523Y-86170095D01*
X156732904Y-86312952D01*
X156161476Y-86884380D01*
X156780523Y-86884380D01*
X157399571Y-85884380D02*
X157494809Y-85884380D01*
X157590047Y-85932000D01*
X157637666Y-85979619D01*
X157685285Y-86074857D01*
X157732904Y-86265333D01*
X157732904Y-86503428D01*
X157685285Y-86693904D01*
X157637666Y-86789142D01*
X157590047Y-86836761D01*
X157494809Y-86884380D01*
X157399571Y-86884380D01*
X157304333Y-86836761D01*
X157256714Y-86789142D01*
X157209095Y-86693904D01*
X157161476Y-86503428D01*
X157161476Y-86265333D01*
X157209095Y-86074857D01*
X157256714Y-85979619D01*
X157304333Y-85932000D01*
X157399571Y-85884380D01*
X158161476Y-86884380D02*
X158161476Y-85884380D01*
X158732904Y-86884380D02*
X158304333Y-86312952D01*
X158732904Y-85884380D02*
X158161476Y-86455809D01*
G04 #@! TO.C,J3*
X152882666Y-127170380D02*
X152882666Y-127884666D01*
X152835047Y-128027523D01*
X152739809Y-128122761D01*
X152596952Y-128170380D01*
X152501714Y-128170380D01*
X153263619Y-127170380D02*
X153882666Y-127170380D01*
X153549333Y-127551333D01*
X153692190Y-127551333D01*
X153787428Y-127598952D01*
X153835047Y-127646571D01*
X153882666Y-127741809D01*
X153882666Y-127979904D01*
X153835047Y-128075142D01*
X153787428Y-128122761D01*
X153692190Y-128170380D01*
X153406476Y-128170380D01*
X153311238Y-128122761D01*
X153263619Y-128075142D01*
G04 #@! TO.C,C11*
X169322380Y-112235428D02*
X169322380Y-112806857D01*
X169322380Y-112521142D02*
X168322380Y-112521142D01*
X168465238Y-112616380D01*
X168560476Y-112711619D01*
X168608095Y-112806857D01*
X168322380Y-111616380D02*
X168322380Y-111521142D01*
X168370000Y-111425904D01*
X168417619Y-111378285D01*
X168512857Y-111330666D01*
X168703333Y-111283047D01*
X168941428Y-111283047D01*
X169131904Y-111330666D01*
X169227142Y-111378285D01*
X169274761Y-111425904D01*
X169322380Y-111521142D01*
X169322380Y-111616380D01*
X169274761Y-111711619D01*
X169227142Y-111759238D01*
X169131904Y-111806857D01*
X168941428Y-111854476D01*
X168703333Y-111854476D01*
X168512857Y-111806857D01*
X168417619Y-111759238D01*
X168370000Y-111711619D01*
X168322380Y-111616380D01*
X168655714Y-110425904D02*
X169322380Y-110425904D01*
X168655714Y-110854476D02*
X169179523Y-110854476D01*
X169274761Y-110806857D01*
X169322380Y-110711619D01*
X169322380Y-110568761D01*
X169274761Y-110473523D01*
X169227142Y-110425904D01*
X168798571Y-109616380D02*
X168798571Y-109949714D01*
X169322380Y-109949714D02*
X168322380Y-109949714D01*
X168322380Y-109473523D01*
G04 #@! TO.C,C10*
X165004380Y-112235428D02*
X165004380Y-112806857D01*
X165004380Y-112521142D02*
X164004380Y-112521142D01*
X164147238Y-112616380D01*
X164242476Y-112711619D01*
X164290095Y-112806857D01*
X164004380Y-111616380D02*
X164004380Y-111521142D01*
X164052000Y-111425904D01*
X164099619Y-111378285D01*
X164194857Y-111330666D01*
X164385333Y-111283047D01*
X164623428Y-111283047D01*
X164813904Y-111330666D01*
X164909142Y-111378285D01*
X164956761Y-111425904D01*
X165004380Y-111521142D01*
X165004380Y-111616380D01*
X164956761Y-111711619D01*
X164909142Y-111759238D01*
X164813904Y-111806857D01*
X164623428Y-111854476D01*
X164385333Y-111854476D01*
X164194857Y-111806857D01*
X164099619Y-111759238D01*
X164052000Y-111711619D01*
X164004380Y-111616380D01*
X164337714Y-110425904D02*
X165004380Y-110425904D01*
X164337714Y-110854476D02*
X164861523Y-110854476D01*
X164956761Y-110806857D01*
X165004380Y-110711619D01*
X165004380Y-110568761D01*
X164956761Y-110473523D01*
X164909142Y-110425904D01*
X164480571Y-109616380D02*
X164480571Y-109949714D01*
X165004380Y-109949714D02*
X164004380Y-109949714D01*
X164004380Y-109473523D01*
G04 #@! TO.C,C9*
X159686380Y-112806857D02*
X159686380Y-112711619D01*
X159734000Y-112616380D01*
X159781619Y-112568761D01*
X159876857Y-112521142D01*
X160067333Y-112473523D01*
X160305428Y-112473523D01*
X160495904Y-112521142D01*
X160591142Y-112568761D01*
X160638761Y-112616380D01*
X160686380Y-112711619D01*
X160686380Y-112806857D01*
X160638761Y-112902095D01*
X160591142Y-112949714D01*
X160495904Y-112997333D01*
X160305428Y-113044952D01*
X160067333Y-113044952D01*
X159876857Y-112997333D01*
X159781619Y-112949714D01*
X159734000Y-112902095D01*
X159686380Y-112806857D01*
X160591142Y-112044952D02*
X160638761Y-111997333D01*
X160686380Y-112044952D01*
X160638761Y-112092571D01*
X160591142Y-112044952D01*
X160686380Y-112044952D01*
X160686380Y-111044952D02*
X160686380Y-111616380D01*
X160686380Y-111330666D02*
X159686380Y-111330666D01*
X159829238Y-111425904D01*
X159924476Y-111521142D01*
X159972095Y-111616380D01*
X160019714Y-110187809D02*
X160686380Y-110187809D01*
X160019714Y-110616380D02*
X160543523Y-110616380D01*
X160638761Y-110568761D01*
X160686380Y-110473523D01*
X160686380Y-110330666D01*
X160638761Y-110235428D01*
X160591142Y-110187809D01*
X160162571Y-109378285D02*
X160162571Y-109711619D01*
X160686380Y-109711619D02*
X159686380Y-109711619D01*
X159686380Y-109235428D01*
G04 #@! TO.C,C8*
X161906380Y-108234857D02*
X161906380Y-108139619D01*
X161954000Y-108044380D01*
X162001619Y-107996761D01*
X162096857Y-107949142D01*
X162287333Y-107901523D01*
X162525428Y-107901523D01*
X162715904Y-107949142D01*
X162811142Y-107996761D01*
X162858761Y-108044380D01*
X162906380Y-108139619D01*
X162906380Y-108234857D01*
X162858761Y-108330095D01*
X162811142Y-108377714D01*
X162715904Y-108425333D01*
X162525428Y-108472952D01*
X162287333Y-108472952D01*
X162096857Y-108425333D01*
X162001619Y-108377714D01*
X161954000Y-108330095D01*
X161906380Y-108234857D01*
X162811142Y-107472952D02*
X162858761Y-107425333D01*
X162906380Y-107472952D01*
X162858761Y-107520571D01*
X162811142Y-107472952D01*
X162906380Y-107472952D01*
X162906380Y-106472952D02*
X162906380Y-107044380D01*
X162906380Y-106758666D02*
X161906380Y-106758666D01*
X162049238Y-106853904D01*
X162144476Y-106949142D01*
X162192095Y-107044380D01*
X162239714Y-105615809D02*
X162906380Y-105615809D01*
X162239714Y-106044380D02*
X162763523Y-106044380D01*
X162858761Y-105996761D01*
X162906380Y-105901523D01*
X162906380Y-105758666D01*
X162858761Y-105663428D01*
X162811142Y-105615809D01*
X162382571Y-104806285D02*
X162382571Y-105139619D01*
X162906380Y-105139619D02*
X161906380Y-105139619D01*
X161906380Y-104663428D01*
G04 #@! TD*
M02*
