M48
; DRILL file {KiCad (5.1.12-1-10_14)} date Friday, December 17, 2021 at 09:30:21 PM
; FORMAT={-:-/ absolute / inch / decimal}
; #@! TF.CreationDate,2021-12-17T21:30:21-05:00
; #@! TF.GenerationSoftware,Kicad,Pcbnew,(5.1.12-1-10_14)
; #@! TF.FileFunction,Plated,1,2,PTH
FMAT,2
INCH
T1C0.0157
T2C0.0394
%
G90
G05
T1
X6.1221Y-3.2865
X6.2235Y-3.7565
X6.2521Y-4.2765
X6.2921Y-3.3465
X6.3621Y-3.5365
X6.3721Y-3.8165
X6.3821Y-3.7465
X6.4121Y-3.7065
X6.4221Y-4.2965
X6.4321Y-3.5765
X6.4821Y-4.2765
X6.5021Y-3.8465
X6.5021Y-3.8965
X6.5921Y-4.3065
X6.6346Y-4.169
T2
X6.0321Y-3.3465
X6.0321Y-3.4465
X6.0321Y-3.5465
X6.0321Y-3.6465
X6.0321Y-3.7465
X6.0321Y-3.8465
X6.0321Y-3.9465
X6.0321Y-4.0465
X6.0321Y-4.1465
X6.0321Y-4.3365
X6.0321Y-4.4365
X6.0321Y-4.5365
X6.0321Y-4.6365
X6.0321Y-4.7365
X6.0321Y-4.8365
X6.0321Y-4.9365
X6.8021Y-3.3465
X6.8021Y-3.4465
X6.8021Y-3.5465
X6.8021Y-3.6465
X6.8021Y-3.7465
X6.8021Y-3.8465
X6.8021Y-3.9465
X6.8021Y-4.0465
X6.8021Y-4.1465
T0
M30
