G04 #@! TF.GenerationSoftware,KiCad,Pcbnew,(5.1.12-1-10_14)*
G04 #@! TF.CreationDate,2021-12-17T21:30:25-05:00*
G04 #@! TF.ProjectId,charlieplexboard,63686172-6c69-4657-906c-6578626f6172,rev?*
G04 #@! TF.SameCoordinates,Original*
G04 #@! TF.FileFunction,Copper,L2,Bot*
G04 #@! TF.FilePolarity,Positive*
%FSLAX46Y46*%
G04 Gerber Fmt 4.6, Leading zero omitted, Abs format (unit mm)*
G04 Created by KiCad (PCBNEW (5.1.12-1-10_14)) date 2021-12-17 21:30:25*
%MOMM*%
%LPD*%
G01*
G04 APERTURE LIST*
G04 #@! TA.AperFunction,ComponentPad*
%ADD10O,1.700000X1.700000*%
G04 #@! TD*
G04 #@! TA.AperFunction,ComponentPad*
%ADD11R,1.700000X1.700000*%
G04 #@! TD*
G04 #@! TA.AperFunction,ViaPad*
%ADD12C,0.800000*%
G04 #@! TD*
G04 #@! TA.AperFunction,Conductor*
%ADD13C,0.450000*%
G04 #@! TD*
G04 #@! TA.AperFunction,Conductor*
%ADD14C,0.254000*%
G04 #@! TD*
G04 #@! TA.AperFunction,Conductor*
%ADD15C,0.100000*%
G04 #@! TD*
G04 APERTURE END LIST*
D10*
G04 #@! TO.P,J2,9*
G04 #@! TO.N,/CB9*
X153216000Y-105322000D03*
G04 #@! TO.P,J2,8*
G04 #@! TO.N,/CB8*
X153216000Y-102782000D03*
G04 #@! TO.P,J2,7*
G04 #@! TO.N,/CB7*
X153216000Y-100242000D03*
G04 #@! TO.P,J2,6*
G04 #@! TO.N,/CB6*
X153216000Y-97702000D03*
G04 #@! TO.P,J2,5*
G04 #@! TO.N,/CB5*
X153216000Y-95162000D03*
G04 #@! TO.P,J2,4*
G04 #@! TO.N,/CB4*
X153216000Y-92622000D03*
G04 #@! TO.P,J2,3*
G04 #@! TO.N,/CB3*
X153216000Y-90082000D03*
G04 #@! TO.P,J2,2*
G04 #@! TO.N,/CB2*
X153216000Y-87542000D03*
D11*
G04 #@! TO.P,J2,1*
G04 #@! TO.N,/CB1*
X153216000Y-85002000D03*
G04 #@! TD*
D10*
G04 #@! TO.P,J1,9*
G04 #@! TO.N,/CA9*
X172774000Y-85002000D03*
G04 #@! TO.P,J1,8*
G04 #@! TO.N,/CA8*
X172774000Y-87542000D03*
G04 #@! TO.P,J1,7*
G04 #@! TO.N,/CA7*
X172774000Y-90082000D03*
G04 #@! TO.P,J1,6*
G04 #@! TO.N,/CA6*
X172774000Y-92622000D03*
G04 #@! TO.P,J1,5*
G04 #@! TO.N,/CA5*
X172774000Y-95162000D03*
G04 #@! TO.P,J1,4*
G04 #@! TO.N,/CA4*
X172774000Y-97702000D03*
G04 #@! TO.P,J1,3*
G04 #@! TO.N,/CA3*
X172774000Y-100242000D03*
G04 #@! TO.P,J1,2*
G04 #@! TO.N,/CA2*
X172774000Y-102782000D03*
D11*
G04 #@! TO.P,J1,1*
G04 #@! TO.N,/CA1*
X172774000Y-105322000D03*
G04 #@! TD*
D10*
G04 #@! TO.P,J3,7*
G04 #@! TO.N,+3V3*
X153216000Y-110148000D03*
G04 #@! TO.P,J3,6*
G04 #@! TO.N,GND*
X153216000Y-112688000D03*
G04 #@! TO.P,J3,5*
G04 #@! TO.N,/SCL*
X153216000Y-115228000D03*
G04 #@! TO.P,J3,4*
G04 #@! TO.N,/SDA*
X153216000Y-117768000D03*
G04 #@! TO.P,J3,3*
G04 #@! TO.N,Net-(J3-Pad3)*
X153216000Y-120308000D03*
G04 #@! TO.P,J3,2*
G04 #@! TO.N,Net-(J3-Pad2)*
X153216000Y-122848000D03*
D11*
G04 #@! TO.P,J3,1*
G04 #@! TO.N,/~SDB*
X153216000Y-125388000D03*
G04 #@! TD*
D12*
G04 #@! TO.N,GND*
X158804000Y-108624000D03*
X163122000Y-109132000D03*
X164646000Y-108624000D03*
X167440000Y-109386000D03*
X168519000Y-105893000D03*
X159820000Y-85002000D03*
X158077030Y-95416000D03*
G04 #@! TO.N,/SCL*
X165154000Y-97702000D03*
G04 #@! TO.N,/SDA*
X165154000Y-98972000D03*
G04 #@! TO.N,/~SDB*
X163376000Y-90844000D03*
X162868000Y-94146000D03*
G04 #@! TO.N,Net-(R5-Pad1)*
X161852000Y-96940000D03*
X155502000Y-83478000D03*
G04 #@! TO.N,Net-(R6-Pad2)*
X162106000Y-95162000D03*
X161598000Y-89828000D03*
G04 #@! TD*
D13*
G04 #@! TO.N,/SCL*
X160074000Y-109572081D02*
X154418081Y-115228000D01*
X160074000Y-102782000D02*
X160074000Y-109572081D01*
X154418081Y-115228000D02*
X153216000Y-115228000D01*
X165154000Y-97702000D02*
X160074000Y-102782000D01*
G04 #@! TO.N,/SDA*
X160674010Y-110309990D02*
X153216000Y-117768000D01*
X160674010Y-103451990D02*
X160674010Y-110309990D01*
X165154000Y-98972000D02*
X160674010Y-103451990D01*
G04 #@! TO.N,/~SDB*
X163376000Y-93638000D02*
X162868000Y-94146000D01*
X163376000Y-90844000D02*
X163376000Y-93638000D01*
X162868000Y-94146000D02*
X165662000Y-94146000D01*
X169294001Y-97778001D02*
X169294001Y-119469999D01*
X165662000Y-94146000D02*
X169294001Y-97778001D01*
X163376000Y-125388000D02*
X153216000Y-125388000D01*
X169294001Y-119469999D02*
X163376000Y-125388000D01*
G04 #@! TO.N,Net-(R5-Pad1)*
X155502000Y-90590000D02*
X155502000Y-83478000D01*
X161852000Y-96940000D02*
X155502000Y-90590000D01*
G04 #@! TO.N,Net-(R6-Pad2)*
X161598000Y-94654000D02*
X161598000Y-89828000D01*
X162106000Y-95162000D02*
X161598000Y-94654000D01*
G04 #@! TD*
D14*
G04 #@! TO.N,GND*
X176940001Y-131840000D02*
X147780000Y-131840000D01*
X147780000Y-110001740D01*
X151731000Y-110001740D01*
X151731000Y-110294260D01*
X151788068Y-110581158D01*
X151900010Y-110851411D01*
X152062525Y-111094632D01*
X152269368Y-111301475D01*
X152451534Y-111423195D01*
X152334645Y-111492822D01*
X152118412Y-111687731D01*
X151944359Y-111921080D01*
X151819175Y-112183901D01*
X151774524Y-112331110D01*
X151895845Y-112561000D01*
X153089000Y-112561000D01*
X153089000Y-112541000D01*
X153343000Y-112541000D01*
X153343000Y-112561000D01*
X154536155Y-112561000D01*
X154657476Y-112331110D01*
X154612825Y-112183901D01*
X154487641Y-111921080D01*
X154313588Y-111687731D01*
X154097355Y-111492822D01*
X153980466Y-111423195D01*
X154162632Y-111301475D01*
X154369475Y-111094632D01*
X154531990Y-110851411D01*
X154643932Y-110581158D01*
X154701000Y-110294260D01*
X154701000Y-110001740D01*
X154643932Y-109714842D01*
X154531990Y-109444589D01*
X154369475Y-109201368D01*
X154162632Y-108994525D01*
X153919411Y-108832010D01*
X153649158Y-108720068D01*
X153362260Y-108663000D01*
X153069740Y-108663000D01*
X152782842Y-108720068D01*
X152512589Y-108832010D01*
X152269368Y-108994525D01*
X152062525Y-109201368D01*
X151900010Y-109444589D01*
X151788068Y-109714842D01*
X151731000Y-110001740D01*
X147780000Y-110001740D01*
X147780000Y-84152000D01*
X151727928Y-84152000D01*
X151727928Y-85852000D01*
X151740188Y-85976482D01*
X151776498Y-86096180D01*
X151835463Y-86206494D01*
X151914815Y-86303185D01*
X152011506Y-86382537D01*
X152121820Y-86441502D01*
X152194380Y-86463513D01*
X152062525Y-86595368D01*
X151900010Y-86838589D01*
X151788068Y-87108842D01*
X151731000Y-87395740D01*
X151731000Y-87688260D01*
X151788068Y-87975158D01*
X151900010Y-88245411D01*
X152062525Y-88488632D01*
X152269368Y-88695475D01*
X152443760Y-88812000D01*
X152269368Y-88928525D01*
X152062525Y-89135368D01*
X151900010Y-89378589D01*
X151788068Y-89648842D01*
X151731000Y-89935740D01*
X151731000Y-90228260D01*
X151788068Y-90515158D01*
X151900010Y-90785411D01*
X152062525Y-91028632D01*
X152269368Y-91235475D01*
X152443760Y-91352000D01*
X152269368Y-91468525D01*
X152062525Y-91675368D01*
X151900010Y-91918589D01*
X151788068Y-92188842D01*
X151731000Y-92475740D01*
X151731000Y-92768260D01*
X151788068Y-93055158D01*
X151900010Y-93325411D01*
X152062525Y-93568632D01*
X152269368Y-93775475D01*
X152443760Y-93892000D01*
X152269368Y-94008525D01*
X152062525Y-94215368D01*
X151900010Y-94458589D01*
X151788068Y-94728842D01*
X151731000Y-95015740D01*
X151731000Y-95308260D01*
X151788068Y-95595158D01*
X151900010Y-95865411D01*
X152062525Y-96108632D01*
X152269368Y-96315475D01*
X152443760Y-96432000D01*
X152269368Y-96548525D01*
X152062525Y-96755368D01*
X151900010Y-96998589D01*
X151788068Y-97268842D01*
X151731000Y-97555740D01*
X151731000Y-97848260D01*
X151788068Y-98135158D01*
X151900010Y-98405411D01*
X152062525Y-98648632D01*
X152269368Y-98855475D01*
X152443760Y-98972000D01*
X152269368Y-99088525D01*
X152062525Y-99295368D01*
X151900010Y-99538589D01*
X151788068Y-99808842D01*
X151731000Y-100095740D01*
X151731000Y-100388260D01*
X151788068Y-100675158D01*
X151900010Y-100945411D01*
X152062525Y-101188632D01*
X152269368Y-101395475D01*
X152443760Y-101512000D01*
X152269368Y-101628525D01*
X152062525Y-101835368D01*
X151900010Y-102078589D01*
X151788068Y-102348842D01*
X151731000Y-102635740D01*
X151731000Y-102928260D01*
X151788068Y-103215158D01*
X151900010Y-103485411D01*
X152062525Y-103728632D01*
X152269368Y-103935475D01*
X152443760Y-104052000D01*
X152269368Y-104168525D01*
X152062525Y-104375368D01*
X151900010Y-104618589D01*
X151788068Y-104888842D01*
X151731000Y-105175740D01*
X151731000Y-105468260D01*
X151788068Y-105755158D01*
X151900010Y-106025411D01*
X152062525Y-106268632D01*
X152269368Y-106475475D01*
X152512589Y-106637990D01*
X152782842Y-106749932D01*
X153069740Y-106807000D01*
X153362260Y-106807000D01*
X153649158Y-106749932D01*
X153919411Y-106637990D01*
X154162632Y-106475475D01*
X154369475Y-106268632D01*
X154531990Y-106025411D01*
X154643932Y-105755158D01*
X154701000Y-105468260D01*
X154701000Y-105175740D01*
X154643932Y-104888842D01*
X154531990Y-104618589D01*
X154369475Y-104375368D01*
X154162632Y-104168525D01*
X153988240Y-104052000D01*
X154162632Y-103935475D01*
X154369475Y-103728632D01*
X154531990Y-103485411D01*
X154643932Y-103215158D01*
X154701000Y-102928260D01*
X154701000Y-102635740D01*
X154643932Y-102348842D01*
X154531990Y-102078589D01*
X154369475Y-101835368D01*
X154162632Y-101628525D01*
X153988240Y-101512000D01*
X154162632Y-101395475D01*
X154369475Y-101188632D01*
X154531990Y-100945411D01*
X154643932Y-100675158D01*
X154701000Y-100388260D01*
X154701000Y-100095740D01*
X154643932Y-99808842D01*
X154531990Y-99538589D01*
X154369475Y-99295368D01*
X154162632Y-99088525D01*
X153988240Y-98972000D01*
X154162632Y-98855475D01*
X154369475Y-98648632D01*
X154531990Y-98405411D01*
X154643932Y-98135158D01*
X154701000Y-97848260D01*
X154701000Y-97555740D01*
X154643932Y-97268842D01*
X154531990Y-96998589D01*
X154369475Y-96755368D01*
X154162632Y-96548525D01*
X153988240Y-96432000D01*
X154162632Y-96315475D01*
X154369475Y-96108632D01*
X154531990Y-95865411D01*
X154643932Y-95595158D01*
X154701000Y-95308260D01*
X154701000Y-95015740D01*
X154643932Y-94728842D01*
X154531990Y-94458589D01*
X154369475Y-94215368D01*
X154162632Y-94008525D01*
X153988240Y-93892000D01*
X154162632Y-93775475D01*
X154369475Y-93568632D01*
X154531990Y-93325411D01*
X154643932Y-93055158D01*
X154701000Y-92768260D01*
X154701000Y-92475740D01*
X154643932Y-92188842D01*
X154531990Y-91918589D01*
X154369475Y-91675368D01*
X154162632Y-91468525D01*
X153988240Y-91352000D01*
X154162632Y-91235475D01*
X154369475Y-91028632D01*
X154531990Y-90785411D01*
X154642000Y-90519822D01*
X154642000Y-90547761D01*
X154637840Y-90590000D01*
X154642000Y-90632239D01*
X154642000Y-90632245D01*
X154646252Y-90675411D01*
X154654444Y-90758589D01*
X154667538Y-90801754D01*
X154703619Y-90920699D01*
X154783476Y-91070101D01*
X154890946Y-91201054D01*
X154923765Y-91227988D01*
X160836686Y-97140910D01*
X160856774Y-97241898D01*
X160934795Y-97430256D01*
X161048063Y-97599774D01*
X161192226Y-97743937D01*
X161361744Y-97857205D01*
X161550102Y-97935226D01*
X161750061Y-97975000D01*
X161953939Y-97975000D01*
X162153898Y-97935226D01*
X162342256Y-97857205D01*
X162511774Y-97743937D01*
X162655937Y-97599774D01*
X162769205Y-97430256D01*
X162847226Y-97241898D01*
X162887000Y-97041939D01*
X162887000Y-96838061D01*
X162847226Y-96638102D01*
X162769205Y-96449744D01*
X162655937Y-96280226D01*
X162511774Y-96136063D01*
X162491574Y-96122566D01*
X162596256Y-96079205D01*
X162765774Y-95965937D01*
X162909937Y-95821774D01*
X163023205Y-95652256D01*
X163101226Y-95463898D01*
X163141000Y-95263939D01*
X163141000Y-95146974D01*
X163169898Y-95141226D01*
X163358256Y-95063205D01*
X163443870Y-95006000D01*
X165305777Y-95006000D01*
X168434001Y-98134225D01*
X168434002Y-119113774D01*
X163019777Y-124528000D01*
X154703087Y-124528000D01*
X154691812Y-124413518D01*
X154655502Y-124293820D01*
X154596537Y-124183506D01*
X154517185Y-124086815D01*
X154420494Y-124007463D01*
X154310180Y-123948498D01*
X154237620Y-123926487D01*
X154369475Y-123794632D01*
X154531990Y-123551411D01*
X154643932Y-123281158D01*
X154701000Y-122994260D01*
X154701000Y-122701740D01*
X154643932Y-122414842D01*
X154531990Y-122144589D01*
X154369475Y-121901368D01*
X154162632Y-121694525D01*
X153988240Y-121578000D01*
X154162632Y-121461475D01*
X154369475Y-121254632D01*
X154531990Y-121011411D01*
X154643932Y-120741158D01*
X154701000Y-120454260D01*
X154701000Y-120161740D01*
X154643932Y-119874842D01*
X154531990Y-119604589D01*
X154369475Y-119361368D01*
X154162632Y-119154525D01*
X153988240Y-119038000D01*
X154162632Y-118921475D01*
X154369475Y-118714632D01*
X154531990Y-118471411D01*
X154643932Y-118201158D01*
X154701000Y-117914260D01*
X154701000Y-117621740D01*
X154680673Y-117519550D01*
X161252251Y-110947973D01*
X161285064Y-110921044D01*
X161392534Y-110790092D01*
X161472391Y-110640690D01*
X161521566Y-110478579D01*
X161534010Y-110352236D01*
X161534010Y-110352229D01*
X161538170Y-110309990D01*
X161534010Y-110267751D01*
X161534010Y-103808213D01*
X165354910Y-99987314D01*
X165455898Y-99967226D01*
X165644256Y-99889205D01*
X165813774Y-99775937D01*
X165957937Y-99631774D01*
X166071205Y-99462256D01*
X166149226Y-99273898D01*
X166189000Y-99073939D01*
X166189000Y-98870061D01*
X166149226Y-98670102D01*
X166071205Y-98481744D01*
X165974490Y-98337000D01*
X166071205Y-98192256D01*
X166149226Y-98003898D01*
X166189000Y-97803939D01*
X166189000Y-97600061D01*
X166149226Y-97400102D01*
X166071205Y-97211744D01*
X165957937Y-97042226D01*
X165813774Y-96898063D01*
X165644256Y-96784795D01*
X165455898Y-96706774D01*
X165255939Y-96667000D01*
X165052061Y-96667000D01*
X164852102Y-96706774D01*
X164663744Y-96784795D01*
X164494226Y-96898063D01*
X164350063Y-97042226D01*
X164236795Y-97211744D01*
X164158774Y-97400102D01*
X164138686Y-97501090D01*
X159495765Y-102144012D01*
X159462946Y-102170946D01*
X159355476Y-102301899D01*
X159275619Y-102451301D01*
X159226444Y-102613412D01*
X159214000Y-102739755D01*
X159214000Y-102739761D01*
X159209840Y-102782000D01*
X159214000Y-102824239D01*
X159214001Y-109215856D01*
X154258982Y-114170875D01*
X154162632Y-114074525D01*
X153980466Y-113952805D01*
X154097355Y-113883178D01*
X154313588Y-113688269D01*
X154487641Y-113454920D01*
X154612825Y-113192099D01*
X154657476Y-113044890D01*
X154536155Y-112815000D01*
X153343000Y-112815000D01*
X153343000Y-112835000D01*
X153089000Y-112835000D01*
X153089000Y-112815000D01*
X151895845Y-112815000D01*
X151774524Y-113044890D01*
X151819175Y-113192099D01*
X151944359Y-113454920D01*
X152118412Y-113688269D01*
X152334645Y-113883178D01*
X152451534Y-113952805D01*
X152269368Y-114074525D01*
X152062525Y-114281368D01*
X151900010Y-114524589D01*
X151788068Y-114794842D01*
X151731000Y-115081740D01*
X151731000Y-115374260D01*
X151788068Y-115661158D01*
X151900010Y-115931411D01*
X152062525Y-116174632D01*
X152269368Y-116381475D01*
X152443760Y-116498000D01*
X152269368Y-116614525D01*
X152062525Y-116821368D01*
X151900010Y-117064589D01*
X151788068Y-117334842D01*
X151731000Y-117621740D01*
X151731000Y-117914260D01*
X151788068Y-118201158D01*
X151900010Y-118471411D01*
X152062525Y-118714632D01*
X152269368Y-118921475D01*
X152443760Y-119038000D01*
X152269368Y-119154525D01*
X152062525Y-119361368D01*
X151900010Y-119604589D01*
X151788068Y-119874842D01*
X151731000Y-120161740D01*
X151731000Y-120454260D01*
X151788068Y-120741158D01*
X151900010Y-121011411D01*
X152062525Y-121254632D01*
X152269368Y-121461475D01*
X152443760Y-121578000D01*
X152269368Y-121694525D01*
X152062525Y-121901368D01*
X151900010Y-122144589D01*
X151788068Y-122414842D01*
X151731000Y-122701740D01*
X151731000Y-122994260D01*
X151788068Y-123281158D01*
X151900010Y-123551411D01*
X152062525Y-123794632D01*
X152194380Y-123926487D01*
X152121820Y-123948498D01*
X152011506Y-124007463D01*
X151914815Y-124086815D01*
X151835463Y-124183506D01*
X151776498Y-124293820D01*
X151740188Y-124413518D01*
X151727928Y-124538000D01*
X151727928Y-126238000D01*
X151740188Y-126362482D01*
X151776498Y-126482180D01*
X151835463Y-126592494D01*
X151914815Y-126689185D01*
X152011506Y-126768537D01*
X152121820Y-126827502D01*
X152241518Y-126863812D01*
X152366000Y-126876072D01*
X154066000Y-126876072D01*
X154190482Y-126863812D01*
X154310180Y-126827502D01*
X154420494Y-126768537D01*
X154517185Y-126689185D01*
X154596537Y-126592494D01*
X154655502Y-126482180D01*
X154691812Y-126362482D01*
X154703087Y-126248000D01*
X163333761Y-126248000D01*
X163376000Y-126252160D01*
X163418239Y-126248000D01*
X163418246Y-126248000D01*
X163544589Y-126235556D01*
X163706700Y-126186381D01*
X163856102Y-126106524D01*
X163987054Y-125999054D01*
X164013988Y-125966235D01*
X169872242Y-120107982D01*
X169905055Y-120081053D01*
X170012525Y-119950101D01*
X170092382Y-119800699D01*
X170118666Y-119714049D01*
X170141557Y-119638590D01*
X170144906Y-119604589D01*
X170154001Y-119512245D01*
X170154001Y-119512239D01*
X170158161Y-119470000D01*
X170154001Y-119427761D01*
X170154001Y-104472000D01*
X171285928Y-104472000D01*
X171285928Y-106172000D01*
X171298188Y-106296482D01*
X171334498Y-106416180D01*
X171393463Y-106526494D01*
X171472815Y-106623185D01*
X171569506Y-106702537D01*
X171679820Y-106761502D01*
X171799518Y-106797812D01*
X171924000Y-106810072D01*
X173624000Y-106810072D01*
X173748482Y-106797812D01*
X173868180Y-106761502D01*
X173978494Y-106702537D01*
X174075185Y-106623185D01*
X174154537Y-106526494D01*
X174213502Y-106416180D01*
X174249812Y-106296482D01*
X174262072Y-106172000D01*
X174262072Y-104472000D01*
X174249812Y-104347518D01*
X174213502Y-104227820D01*
X174154537Y-104117506D01*
X174075185Y-104020815D01*
X173978494Y-103941463D01*
X173868180Y-103882498D01*
X173795620Y-103860487D01*
X173927475Y-103728632D01*
X174089990Y-103485411D01*
X174201932Y-103215158D01*
X174259000Y-102928260D01*
X174259000Y-102635740D01*
X174201932Y-102348842D01*
X174089990Y-102078589D01*
X173927475Y-101835368D01*
X173720632Y-101628525D01*
X173546240Y-101512000D01*
X173720632Y-101395475D01*
X173927475Y-101188632D01*
X174089990Y-100945411D01*
X174201932Y-100675158D01*
X174259000Y-100388260D01*
X174259000Y-100095740D01*
X174201932Y-99808842D01*
X174089990Y-99538589D01*
X173927475Y-99295368D01*
X173720632Y-99088525D01*
X173546240Y-98972000D01*
X173720632Y-98855475D01*
X173927475Y-98648632D01*
X174089990Y-98405411D01*
X174201932Y-98135158D01*
X174259000Y-97848260D01*
X174259000Y-97555740D01*
X174201932Y-97268842D01*
X174089990Y-96998589D01*
X173927475Y-96755368D01*
X173720632Y-96548525D01*
X173546240Y-96432000D01*
X173720632Y-96315475D01*
X173927475Y-96108632D01*
X174089990Y-95865411D01*
X174201932Y-95595158D01*
X174259000Y-95308260D01*
X174259000Y-95015740D01*
X174201932Y-94728842D01*
X174089990Y-94458589D01*
X173927475Y-94215368D01*
X173720632Y-94008525D01*
X173546240Y-93892000D01*
X173720632Y-93775475D01*
X173927475Y-93568632D01*
X174089990Y-93325411D01*
X174201932Y-93055158D01*
X174259000Y-92768260D01*
X174259000Y-92475740D01*
X174201932Y-92188842D01*
X174089990Y-91918589D01*
X173927475Y-91675368D01*
X173720632Y-91468525D01*
X173546240Y-91352000D01*
X173720632Y-91235475D01*
X173927475Y-91028632D01*
X174089990Y-90785411D01*
X174201932Y-90515158D01*
X174259000Y-90228260D01*
X174259000Y-89935740D01*
X174201932Y-89648842D01*
X174089990Y-89378589D01*
X173927475Y-89135368D01*
X173720632Y-88928525D01*
X173546240Y-88812000D01*
X173720632Y-88695475D01*
X173927475Y-88488632D01*
X174089990Y-88245411D01*
X174201932Y-87975158D01*
X174259000Y-87688260D01*
X174259000Y-87395740D01*
X174201932Y-87108842D01*
X174089990Y-86838589D01*
X173927475Y-86595368D01*
X173720632Y-86388525D01*
X173546240Y-86272000D01*
X173720632Y-86155475D01*
X173927475Y-85948632D01*
X174089990Y-85705411D01*
X174201932Y-85435158D01*
X174259000Y-85148260D01*
X174259000Y-84855740D01*
X174201932Y-84568842D01*
X174089990Y-84298589D01*
X173927475Y-84055368D01*
X173720632Y-83848525D01*
X173477411Y-83686010D01*
X173207158Y-83574068D01*
X172920260Y-83517000D01*
X172627740Y-83517000D01*
X172340842Y-83574068D01*
X172070589Y-83686010D01*
X171827368Y-83848525D01*
X171620525Y-84055368D01*
X171458010Y-84298589D01*
X171346068Y-84568842D01*
X171289000Y-84855740D01*
X171289000Y-85148260D01*
X171346068Y-85435158D01*
X171458010Y-85705411D01*
X171620525Y-85948632D01*
X171827368Y-86155475D01*
X172001760Y-86272000D01*
X171827368Y-86388525D01*
X171620525Y-86595368D01*
X171458010Y-86838589D01*
X171346068Y-87108842D01*
X171289000Y-87395740D01*
X171289000Y-87688260D01*
X171346068Y-87975158D01*
X171458010Y-88245411D01*
X171620525Y-88488632D01*
X171827368Y-88695475D01*
X172001760Y-88812000D01*
X171827368Y-88928525D01*
X171620525Y-89135368D01*
X171458010Y-89378589D01*
X171346068Y-89648842D01*
X171289000Y-89935740D01*
X171289000Y-90228260D01*
X171346068Y-90515158D01*
X171458010Y-90785411D01*
X171620525Y-91028632D01*
X171827368Y-91235475D01*
X172001760Y-91352000D01*
X171827368Y-91468525D01*
X171620525Y-91675368D01*
X171458010Y-91918589D01*
X171346068Y-92188842D01*
X171289000Y-92475740D01*
X171289000Y-92768260D01*
X171346068Y-93055158D01*
X171458010Y-93325411D01*
X171620525Y-93568632D01*
X171827368Y-93775475D01*
X172001760Y-93892000D01*
X171827368Y-94008525D01*
X171620525Y-94215368D01*
X171458010Y-94458589D01*
X171346068Y-94728842D01*
X171289000Y-95015740D01*
X171289000Y-95308260D01*
X171346068Y-95595158D01*
X171458010Y-95865411D01*
X171620525Y-96108632D01*
X171827368Y-96315475D01*
X172001760Y-96432000D01*
X171827368Y-96548525D01*
X171620525Y-96755368D01*
X171458010Y-96998589D01*
X171346068Y-97268842D01*
X171289000Y-97555740D01*
X171289000Y-97848260D01*
X171346068Y-98135158D01*
X171458010Y-98405411D01*
X171620525Y-98648632D01*
X171827368Y-98855475D01*
X172001760Y-98972000D01*
X171827368Y-99088525D01*
X171620525Y-99295368D01*
X171458010Y-99538589D01*
X171346068Y-99808842D01*
X171289000Y-100095740D01*
X171289000Y-100388260D01*
X171346068Y-100675158D01*
X171458010Y-100945411D01*
X171620525Y-101188632D01*
X171827368Y-101395475D01*
X172001760Y-101512000D01*
X171827368Y-101628525D01*
X171620525Y-101835368D01*
X171458010Y-102078589D01*
X171346068Y-102348842D01*
X171289000Y-102635740D01*
X171289000Y-102928260D01*
X171346068Y-103215158D01*
X171458010Y-103485411D01*
X171620525Y-103728632D01*
X171752380Y-103860487D01*
X171679820Y-103882498D01*
X171569506Y-103941463D01*
X171472815Y-104020815D01*
X171393463Y-104117506D01*
X171334498Y-104227820D01*
X171298188Y-104347518D01*
X171285928Y-104472000D01*
X170154001Y-104472000D01*
X170154001Y-97820239D01*
X170158161Y-97778000D01*
X170154001Y-97735761D01*
X170154001Y-97735755D01*
X170141557Y-97609412D01*
X170138721Y-97600061D01*
X170092382Y-97447302D01*
X170092382Y-97447301D01*
X170012525Y-97297899D01*
X169905055Y-97166947D01*
X169872243Y-97140019D01*
X166299988Y-93567765D01*
X166273054Y-93534946D01*
X166142102Y-93427476D01*
X165992700Y-93347619D01*
X165830589Y-93298444D01*
X165704246Y-93286000D01*
X165704239Y-93286000D01*
X165662000Y-93281840D01*
X165619761Y-93286000D01*
X164236000Y-93286000D01*
X164236000Y-91419870D01*
X164293205Y-91334256D01*
X164371226Y-91145898D01*
X164411000Y-90945939D01*
X164411000Y-90742061D01*
X164371226Y-90542102D01*
X164293205Y-90353744D01*
X164179937Y-90184226D01*
X164035774Y-90040063D01*
X163866256Y-89926795D01*
X163677898Y-89848774D01*
X163477939Y-89809000D01*
X163274061Y-89809000D01*
X163074102Y-89848774D01*
X162885744Y-89926795D01*
X162716226Y-90040063D01*
X162572063Y-90184226D01*
X162568536Y-90189505D01*
X162593226Y-90129898D01*
X162633000Y-89929939D01*
X162633000Y-89726061D01*
X162593226Y-89526102D01*
X162515205Y-89337744D01*
X162401937Y-89168226D01*
X162257774Y-89024063D01*
X162088256Y-88910795D01*
X161899898Y-88832774D01*
X161699939Y-88793000D01*
X161496061Y-88793000D01*
X161296102Y-88832774D01*
X161107744Y-88910795D01*
X160938226Y-89024063D01*
X160794063Y-89168226D01*
X160680795Y-89337744D01*
X160602774Y-89526102D01*
X160563000Y-89726061D01*
X160563000Y-89929939D01*
X160602774Y-90129898D01*
X160680795Y-90318256D01*
X160738001Y-90403871D01*
X160738000Y-94609776D01*
X156362000Y-90233777D01*
X156362000Y-84053870D01*
X156419205Y-83968256D01*
X156497226Y-83779898D01*
X156537000Y-83579939D01*
X156537000Y-83376061D01*
X156497226Y-83176102D01*
X156419205Y-82987744D01*
X156305937Y-82818226D01*
X156161774Y-82674063D01*
X155992256Y-82560795D01*
X155803898Y-82482774D01*
X155603939Y-82443000D01*
X155400061Y-82443000D01*
X155200102Y-82482774D01*
X155011744Y-82560795D01*
X154842226Y-82674063D01*
X154698063Y-82818226D01*
X154584795Y-82987744D01*
X154506774Y-83176102D01*
X154467000Y-83376061D01*
X154467000Y-83579939D01*
X154485944Y-83675176D01*
X154420494Y-83621463D01*
X154310180Y-83562498D01*
X154190482Y-83526188D01*
X154066000Y-83513928D01*
X152366000Y-83513928D01*
X152241518Y-83526188D01*
X152121820Y-83562498D01*
X152011506Y-83621463D01*
X151914815Y-83700815D01*
X151835463Y-83797506D01*
X151776498Y-83907820D01*
X151740188Y-84027518D01*
X151727928Y-84152000D01*
X147780000Y-84152000D01*
X147780000Y-77280000D01*
X176940000Y-77280000D01*
X176940001Y-131840000D01*
G04 #@! TA.AperFunction,Conductor*
D15*
G36*
X176940001Y-131840000D02*
G01*
X147780000Y-131840000D01*
X147780000Y-110001740D01*
X151731000Y-110001740D01*
X151731000Y-110294260D01*
X151788068Y-110581158D01*
X151900010Y-110851411D01*
X152062525Y-111094632D01*
X152269368Y-111301475D01*
X152451534Y-111423195D01*
X152334645Y-111492822D01*
X152118412Y-111687731D01*
X151944359Y-111921080D01*
X151819175Y-112183901D01*
X151774524Y-112331110D01*
X151895845Y-112561000D01*
X153089000Y-112561000D01*
X153089000Y-112541000D01*
X153343000Y-112541000D01*
X153343000Y-112561000D01*
X154536155Y-112561000D01*
X154657476Y-112331110D01*
X154612825Y-112183901D01*
X154487641Y-111921080D01*
X154313588Y-111687731D01*
X154097355Y-111492822D01*
X153980466Y-111423195D01*
X154162632Y-111301475D01*
X154369475Y-111094632D01*
X154531990Y-110851411D01*
X154643932Y-110581158D01*
X154701000Y-110294260D01*
X154701000Y-110001740D01*
X154643932Y-109714842D01*
X154531990Y-109444589D01*
X154369475Y-109201368D01*
X154162632Y-108994525D01*
X153919411Y-108832010D01*
X153649158Y-108720068D01*
X153362260Y-108663000D01*
X153069740Y-108663000D01*
X152782842Y-108720068D01*
X152512589Y-108832010D01*
X152269368Y-108994525D01*
X152062525Y-109201368D01*
X151900010Y-109444589D01*
X151788068Y-109714842D01*
X151731000Y-110001740D01*
X147780000Y-110001740D01*
X147780000Y-84152000D01*
X151727928Y-84152000D01*
X151727928Y-85852000D01*
X151740188Y-85976482D01*
X151776498Y-86096180D01*
X151835463Y-86206494D01*
X151914815Y-86303185D01*
X152011506Y-86382537D01*
X152121820Y-86441502D01*
X152194380Y-86463513D01*
X152062525Y-86595368D01*
X151900010Y-86838589D01*
X151788068Y-87108842D01*
X151731000Y-87395740D01*
X151731000Y-87688260D01*
X151788068Y-87975158D01*
X151900010Y-88245411D01*
X152062525Y-88488632D01*
X152269368Y-88695475D01*
X152443760Y-88812000D01*
X152269368Y-88928525D01*
X152062525Y-89135368D01*
X151900010Y-89378589D01*
X151788068Y-89648842D01*
X151731000Y-89935740D01*
X151731000Y-90228260D01*
X151788068Y-90515158D01*
X151900010Y-90785411D01*
X152062525Y-91028632D01*
X152269368Y-91235475D01*
X152443760Y-91352000D01*
X152269368Y-91468525D01*
X152062525Y-91675368D01*
X151900010Y-91918589D01*
X151788068Y-92188842D01*
X151731000Y-92475740D01*
X151731000Y-92768260D01*
X151788068Y-93055158D01*
X151900010Y-93325411D01*
X152062525Y-93568632D01*
X152269368Y-93775475D01*
X152443760Y-93892000D01*
X152269368Y-94008525D01*
X152062525Y-94215368D01*
X151900010Y-94458589D01*
X151788068Y-94728842D01*
X151731000Y-95015740D01*
X151731000Y-95308260D01*
X151788068Y-95595158D01*
X151900010Y-95865411D01*
X152062525Y-96108632D01*
X152269368Y-96315475D01*
X152443760Y-96432000D01*
X152269368Y-96548525D01*
X152062525Y-96755368D01*
X151900010Y-96998589D01*
X151788068Y-97268842D01*
X151731000Y-97555740D01*
X151731000Y-97848260D01*
X151788068Y-98135158D01*
X151900010Y-98405411D01*
X152062525Y-98648632D01*
X152269368Y-98855475D01*
X152443760Y-98972000D01*
X152269368Y-99088525D01*
X152062525Y-99295368D01*
X151900010Y-99538589D01*
X151788068Y-99808842D01*
X151731000Y-100095740D01*
X151731000Y-100388260D01*
X151788068Y-100675158D01*
X151900010Y-100945411D01*
X152062525Y-101188632D01*
X152269368Y-101395475D01*
X152443760Y-101512000D01*
X152269368Y-101628525D01*
X152062525Y-101835368D01*
X151900010Y-102078589D01*
X151788068Y-102348842D01*
X151731000Y-102635740D01*
X151731000Y-102928260D01*
X151788068Y-103215158D01*
X151900010Y-103485411D01*
X152062525Y-103728632D01*
X152269368Y-103935475D01*
X152443760Y-104052000D01*
X152269368Y-104168525D01*
X152062525Y-104375368D01*
X151900010Y-104618589D01*
X151788068Y-104888842D01*
X151731000Y-105175740D01*
X151731000Y-105468260D01*
X151788068Y-105755158D01*
X151900010Y-106025411D01*
X152062525Y-106268632D01*
X152269368Y-106475475D01*
X152512589Y-106637990D01*
X152782842Y-106749932D01*
X153069740Y-106807000D01*
X153362260Y-106807000D01*
X153649158Y-106749932D01*
X153919411Y-106637990D01*
X154162632Y-106475475D01*
X154369475Y-106268632D01*
X154531990Y-106025411D01*
X154643932Y-105755158D01*
X154701000Y-105468260D01*
X154701000Y-105175740D01*
X154643932Y-104888842D01*
X154531990Y-104618589D01*
X154369475Y-104375368D01*
X154162632Y-104168525D01*
X153988240Y-104052000D01*
X154162632Y-103935475D01*
X154369475Y-103728632D01*
X154531990Y-103485411D01*
X154643932Y-103215158D01*
X154701000Y-102928260D01*
X154701000Y-102635740D01*
X154643932Y-102348842D01*
X154531990Y-102078589D01*
X154369475Y-101835368D01*
X154162632Y-101628525D01*
X153988240Y-101512000D01*
X154162632Y-101395475D01*
X154369475Y-101188632D01*
X154531990Y-100945411D01*
X154643932Y-100675158D01*
X154701000Y-100388260D01*
X154701000Y-100095740D01*
X154643932Y-99808842D01*
X154531990Y-99538589D01*
X154369475Y-99295368D01*
X154162632Y-99088525D01*
X153988240Y-98972000D01*
X154162632Y-98855475D01*
X154369475Y-98648632D01*
X154531990Y-98405411D01*
X154643932Y-98135158D01*
X154701000Y-97848260D01*
X154701000Y-97555740D01*
X154643932Y-97268842D01*
X154531990Y-96998589D01*
X154369475Y-96755368D01*
X154162632Y-96548525D01*
X153988240Y-96432000D01*
X154162632Y-96315475D01*
X154369475Y-96108632D01*
X154531990Y-95865411D01*
X154643932Y-95595158D01*
X154701000Y-95308260D01*
X154701000Y-95015740D01*
X154643932Y-94728842D01*
X154531990Y-94458589D01*
X154369475Y-94215368D01*
X154162632Y-94008525D01*
X153988240Y-93892000D01*
X154162632Y-93775475D01*
X154369475Y-93568632D01*
X154531990Y-93325411D01*
X154643932Y-93055158D01*
X154701000Y-92768260D01*
X154701000Y-92475740D01*
X154643932Y-92188842D01*
X154531990Y-91918589D01*
X154369475Y-91675368D01*
X154162632Y-91468525D01*
X153988240Y-91352000D01*
X154162632Y-91235475D01*
X154369475Y-91028632D01*
X154531990Y-90785411D01*
X154642000Y-90519822D01*
X154642000Y-90547761D01*
X154637840Y-90590000D01*
X154642000Y-90632239D01*
X154642000Y-90632245D01*
X154646252Y-90675411D01*
X154654444Y-90758589D01*
X154667538Y-90801754D01*
X154703619Y-90920699D01*
X154783476Y-91070101D01*
X154890946Y-91201054D01*
X154923765Y-91227988D01*
X160836686Y-97140910D01*
X160856774Y-97241898D01*
X160934795Y-97430256D01*
X161048063Y-97599774D01*
X161192226Y-97743937D01*
X161361744Y-97857205D01*
X161550102Y-97935226D01*
X161750061Y-97975000D01*
X161953939Y-97975000D01*
X162153898Y-97935226D01*
X162342256Y-97857205D01*
X162511774Y-97743937D01*
X162655937Y-97599774D01*
X162769205Y-97430256D01*
X162847226Y-97241898D01*
X162887000Y-97041939D01*
X162887000Y-96838061D01*
X162847226Y-96638102D01*
X162769205Y-96449744D01*
X162655937Y-96280226D01*
X162511774Y-96136063D01*
X162491574Y-96122566D01*
X162596256Y-96079205D01*
X162765774Y-95965937D01*
X162909937Y-95821774D01*
X163023205Y-95652256D01*
X163101226Y-95463898D01*
X163141000Y-95263939D01*
X163141000Y-95146974D01*
X163169898Y-95141226D01*
X163358256Y-95063205D01*
X163443870Y-95006000D01*
X165305777Y-95006000D01*
X168434001Y-98134225D01*
X168434002Y-119113774D01*
X163019777Y-124528000D01*
X154703087Y-124528000D01*
X154691812Y-124413518D01*
X154655502Y-124293820D01*
X154596537Y-124183506D01*
X154517185Y-124086815D01*
X154420494Y-124007463D01*
X154310180Y-123948498D01*
X154237620Y-123926487D01*
X154369475Y-123794632D01*
X154531990Y-123551411D01*
X154643932Y-123281158D01*
X154701000Y-122994260D01*
X154701000Y-122701740D01*
X154643932Y-122414842D01*
X154531990Y-122144589D01*
X154369475Y-121901368D01*
X154162632Y-121694525D01*
X153988240Y-121578000D01*
X154162632Y-121461475D01*
X154369475Y-121254632D01*
X154531990Y-121011411D01*
X154643932Y-120741158D01*
X154701000Y-120454260D01*
X154701000Y-120161740D01*
X154643932Y-119874842D01*
X154531990Y-119604589D01*
X154369475Y-119361368D01*
X154162632Y-119154525D01*
X153988240Y-119038000D01*
X154162632Y-118921475D01*
X154369475Y-118714632D01*
X154531990Y-118471411D01*
X154643932Y-118201158D01*
X154701000Y-117914260D01*
X154701000Y-117621740D01*
X154680673Y-117519550D01*
X161252251Y-110947973D01*
X161285064Y-110921044D01*
X161392534Y-110790092D01*
X161472391Y-110640690D01*
X161521566Y-110478579D01*
X161534010Y-110352236D01*
X161534010Y-110352229D01*
X161538170Y-110309990D01*
X161534010Y-110267751D01*
X161534010Y-103808213D01*
X165354910Y-99987314D01*
X165455898Y-99967226D01*
X165644256Y-99889205D01*
X165813774Y-99775937D01*
X165957937Y-99631774D01*
X166071205Y-99462256D01*
X166149226Y-99273898D01*
X166189000Y-99073939D01*
X166189000Y-98870061D01*
X166149226Y-98670102D01*
X166071205Y-98481744D01*
X165974490Y-98337000D01*
X166071205Y-98192256D01*
X166149226Y-98003898D01*
X166189000Y-97803939D01*
X166189000Y-97600061D01*
X166149226Y-97400102D01*
X166071205Y-97211744D01*
X165957937Y-97042226D01*
X165813774Y-96898063D01*
X165644256Y-96784795D01*
X165455898Y-96706774D01*
X165255939Y-96667000D01*
X165052061Y-96667000D01*
X164852102Y-96706774D01*
X164663744Y-96784795D01*
X164494226Y-96898063D01*
X164350063Y-97042226D01*
X164236795Y-97211744D01*
X164158774Y-97400102D01*
X164138686Y-97501090D01*
X159495765Y-102144012D01*
X159462946Y-102170946D01*
X159355476Y-102301899D01*
X159275619Y-102451301D01*
X159226444Y-102613412D01*
X159214000Y-102739755D01*
X159214000Y-102739761D01*
X159209840Y-102782000D01*
X159214000Y-102824239D01*
X159214001Y-109215856D01*
X154258982Y-114170875D01*
X154162632Y-114074525D01*
X153980466Y-113952805D01*
X154097355Y-113883178D01*
X154313588Y-113688269D01*
X154487641Y-113454920D01*
X154612825Y-113192099D01*
X154657476Y-113044890D01*
X154536155Y-112815000D01*
X153343000Y-112815000D01*
X153343000Y-112835000D01*
X153089000Y-112835000D01*
X153089000Y-112815000D01*
X151895845Y-112815000D01*
X151774524Y-113044890D01*
X151819175Y-113192099D01*
X151944359Y-113454920D01*
X152118412Y-113688269D01*
X152334645Y-113883178D01*
X152451534Y-113952805D01*
X152269368Y-114074525D01*
X152062525Y-114281368D01*
X151900010Y-114524589D01*
X151788068Y-114794842D01*
X151731000Y-115081740D01*
X151731000Y-115374260D01*
X151788068Y-115661158D01*
X151900010Y-115931411D01*
X152062525Y-116174632D01*
X152269368Y-116381475D01*
X152443760Y-116498000D01*
X152269368Y-116614525D01*
X152062525Y-116821368D01*
X151900010Y-117064589D01*
X151788068Y-117334842D01*
X151731000Y-117621740D01*
X151731000Y-117914260D01*
X151788068Y-118201158D01*
X151900010Y-118471411D01*
X152062525Y-118714632D01*
X152269368Y-118921475D01*
X152443760Y-119038000D01*
X152269368Y-119154525D01*
X152062525Y-119361368D01*
X151900010Y-119604589D01*
X151788068Y-119874842D01*
X151731000Y-120161740D01*
X151731000Y-120454260D01*
X151788068Y-120741158D01*
X151900010Y-121011411D01*
X152062525Y-121254632D01*
X152269368Y-121461475D01*
X152443760Y-121578000D01*
X152269368Y-121694525D01*
X152062525Y-121901368D01*
X151900010Y-122144589D01*
X151788068Y-122414842D01*
X151731000Y-122701740D01*
X151731000Y-122994260D01*
X151788068Y-123281158D01*
X151900010Y-123551411D01*
X152062525Y-123794632D01*
X152194380Y-123926487D01*
X152121820Y-123948498D01*
X152011506Y-124007463D01*
X151914815Y-124086815D01*
X151835463Y-124183506D01*
X151776498Y-124293820D01*
X151740188Y-124413518D01*
X151727928Y-124538000D01*
X151727928Y-126238000D01*
X151740188Y-126362482D01*
X151776498Y-126482180D01*
X151835463Y-126592494D01*
X151914815Y-126689185D01*
X152011506Y-126768537D01*
X152121820Y-126827502D01*
X152241518Y-126863812D01*
X152366000Y-126876072D01*
X154066000Y-126876072D01*
X154190482Y-126863812D01*
X154310180Y-126827502D01*
X154420494Y-126768537D01*
X154517185Y-126689185D01*
X154596537Y-126592494D01*
X154655502Y-126482180D01*
X154691812Y-126362482D01*
X154703087Y-126248000D01*
X163333761Y-126248000D01*
X163376000Y-126252160D01*
X163418239Y-126248000D01*
X163418246Y-126248000D01*
X163544589Y-126235556D01*
X163706700Y-126186381D01*
X163856102Y-126106524D01*
X163987054Y-125999054D01*
X164013988Y-125966235D01*
X169872242Y-120107982D01*
X169905055Y-120081053D01*
X170012525Y-119950101D01*
X170092382Y-119800699D01*
X170118666Y-119714049D01*
X170141557Y-119638590D01*
X170144906Y-119604589D01*
X170154001Y-119512245D01*
X170154001Y-119512239D01*
X170158161Y-119470000D01*
X170154001Y-119427761D01*
X170154001Y-104472000D01*
X171285928Y-104472000D01*
X171285928Y-106172000D01*
X171298188Y-106296482D01*
X171334498Y-106416180D01*
X171393463Y-106526494D01*
X171472815Y-106623185D01*
X171569506Y-106702537D01*
X171679820Y-106761502D01*
X171799518Y-106797812D01*
X171924000Y-106810072D01*
X173624000Y-106810072D01*
X173748482Y-106797812D01*
X173868180Y-106761502D01*
X173978494Y-106702537D01*
X174075185Y-106623185D01*
X174154537Y-106526494D01*
X174213502Y-106416180D01*
X174249812Y-106296482D01*
X174262072Y-106172000D01*
X174262072Y-104472000D01*
X174249812Y-104347518D01*
X174213502Y-104227820D01*
X174154537Y-104117506D01*
X174075185Y-104020815D01*
X173978494Y-103941463D01*
X173868180Y-103882498D01*
X173795620Y-103860487D01*
X173927475Y-103728632D01*
X174089990Y-103485411D01*
X174201932Y-103215158D01*
X174259000Y-102928260D01*
X174259000Y-102635740D01*
X174201932Y-102348842D01*
X174089990Y-102078589D01*
X173927475Y-101835368D01*
X173720632Y-101628525D01*
X173546240Y-101512000D01*
X173720632Y-101395475D01*
X173927475Y-101188632D01*
X174089990Y-100945411D01*
X174201932Y-100675158D01*
X174259000Y-100388260D01*
X174259000Y-100095740D01*
X174201932Y-99808842D01*
X174089990Y-99538589D01*
X173927475Y-99295368D01*
X173720632Y-99088525D01*
X173546240Y-98972000D01*
X173720632Y-98855475D01*
X173927475Y-98648632D01*
X174089990Y-98405411D01*
X174201932Y-98135158D01*
X174259000Y-97848260D01*
X174259000Y-97555740D01*
X174201932Y-97268842D01*
X174089990Y-96998589D01*
X173927475Y-96755368D01*
X173720632Y-96548525D01*
X173546240Y-96432000D01*
X173720632Y-96315475D01*
X173927475Y-96108632D01*
X174089990Y-95865411D01*
X174201932Y-95595158D01*
X174259000Y-95308260D01*
X174259000Y-95015740D01*
X174201932Y-94728842D01*
X174089990Y-94458589D01*
X173927475Y-94215368D01*
X173720632Y-94008525D01*
X173546240Y-93892000D01*
X173720632Y-93775475D01*
X173927475Y-93568632D01*
X174089990Y-93325411D01*
X174201932Y-93055158D01*
X174259000Y-92768260D01*
X174259000Y-92475740D01*
X174201932Y-92188842D01*
X174089990Y-91918589D01*
X173927475Y-91675368D01*
X173720632Y-91468525D01*
X173546240Y-91352000D01*
X173720632Y-91235475D01*
X173927475Y-91028632D01*
X174089990Y-90785411D01*
X174201932Y-90515158D01*
X174259000Y-90228260D01*
X174259000Y-89935740D01*
X174201932Y-89648842D01*
X174089990Y-89378589D01*
X173927475Y-89135368D01*
X173720632Y-88928525D01*
X173546240Y-88812000D01*
X173720632Y-88695475D01*
X173927475Y-88488632D01*
X174089990Y-88245411D01*
X174201932Y-87975158D01*
X174259000Y-87688260D01*
X174259000Y-87395740D01*
X174201932Y-87108842D01*
X174089990Y-86838589D01*
X173927475Y-86595368D01*
X173720632Y-86388525D01*
X173546240Y-86272000D01*
X173720632Y-86155475D01*
X173927475Y-85948632D01*
X174089990Y-85705411D01*
X174201932Y-85435158D01*
X174259000Y-85148260D01*
X174259000Y-84855740D01*
X174201932Y-84568842D01*
X174089990Y-84298589D01*
X173927475Y-84055368D01*
X173720632Y-83848525D01*
X173477411Y-83686010D01*
X173207158Y-83574068D01*
X172920260Y-83517000D01*
X172627740Y-83517000D01*
X172340842Y-83574068D01*
X172070589Y-83686010D01*
X171827368Y-83848525D01*
X171620525Y-84055368D01*
X171458010Y-84298589D01*
X171346068Y-84568842D01*
X171289000Y-84855740D01*
X171289000Y-85148260D01*
X171346068Y-85435158D01*
X171458010Y-85705411D01*
X171620525Y-85948632D01*
X171827368Y-86155475D01*
X172001760Y-86272000D01*
X171827368Y-86388525D01*
X171620525Y-86595368D01*
X171458010Y-86838589D01*
X171346068Y-87108842D01*
X171289000Y-87395740D01*
X171289000Y-87688260D01*
X171346068Y-87975158D01*
X171458010Y-88245411D01*
X171620525Y-88488632D01*
X171827368Y-88695475D01*
X172001760Y-88812000D01*
X171827368Y-88928525D01*
X171620525Y-89135368D01*
X171458010Y-89378589D01*
X171346068Y-89648842D01*
X171289000Y-89935740D01*
X171289000Y-90228260D01*
X171346068Y-90515158D01*
X171458010Y-90785411D01*
X171620525Y-91028632D01*
X171827368Y-91235475D01*
X172001760Y-91352000D01*
X171827368Y-91468525D01*
X171620525Y-91675368D01*
X171458010Y-91918589D01*
X171346068Y-92188842D01*
X171289000Y-92475740D01*
X171289000Y-92768260D01*
X171346068Y-93055158D01*
X171458010Y-93325411D01*
X171620525Y-93568632D01*
X171827368Y-93775475D01*
X172001760Y-93892000D01*
X171827368Y-94008525D01*
X171620525Y-94215368D01*
X171458010Y-94458589D01*
X171346068Y-94728842D01*
X171289000Y-95015740D01*
X171289000Y-95308260D01*
X171346068Y-95595158D01*
X171458010Y-95865411D01*
X171620525Y-96108632D01*
X171827368Y-96315475D01*
X172001760Y-96432000D01*
X171827368Y-96548525D01*
X171620525Y-96755368D01*
X171458010Y-96998589D01*
X171346068Y-97268842D01*
X171289000Y-97555740D01*
X171289000Y-97848260D01*
X171346068Y-98135158D01*
X171458010Y-98405411D01*
X171620525Y-98648632D01*
X171827368Y-98855475D01*
X172001760Y-98972000D01*
X171827368Y-99088525D01*
X171620525Y-99295368D01*
X171458010Y-99538589D01*
X171346068Y-99808842D01*
X171289000Y-100095740D01*
X171289000Y-100388260D01*
X171346068Y-100675158D01*
X171458010Y-100945411D01*
X171620525Y-101188632D01*
X171827368Y-101395475D01*
X172001760Y-101512000D01*
X171827368Y-101628525D01*
X171620525Y-101835368D01*
X171458010Y-102078589D01*
X171346068Y-102348842D01*
X171289000Y-102635740D01*
X171289000Y-102928260D01*
X171346068Y-103215158D01*
X171458010Y-103485411D01*
X171620525Y-103728632D01*
X171752380Y-103860487D01*
X171679820Y-103882498D01*
X171569506Y-103941463D01*
X171472815Y-104020815D01*
X171393463Y-104117506D01*
X171334498Y-104227820D01*
X171298188Y-104347518D01*
X171285928Y-104472000D01*
X170154001Y-104472000D01*
X170154001Y-97820239D01*
X170158161Y-97778000D01*
X170154001Y-97735761D01*
X170154001Y-97735755D01*
X170141557Y-97609412D01*
X170138721Y-97600061D01*
X170092382Y-97447302D01*
X170092382Y-97447301D01*
X170012525Y-97297899D01*
X169905055Y-97166947D01*
X169872243Y-97140019D01*
X166299988Y-93567765D01*
X166273054Y-93534946D01*
X166142102Y-93427476D01*
X165992700Y-93347619D01*
X165830589Y-93298444D01*
X165704246Y-93286000D01*
X165704239Y-93286000D01*
X165662000Y-93281840D01*
X165619761Y-93286000D01*
X164236000Y-93286000D01*
X164236000Y-91419870D01*
X164293205Y-91334256D01*
X164371226Y-91145898D01*
X164411000Y-90945939D01*
X164411000Y-90742061D01*
X164371226Y-90542102D01*
X164293205Y-90353744D01*
X164179937Y-90184226D01*
X164035774Y-90040063D01*
X163866256Y-89926795D01*
X163677898Y-89848774D01*
X163477939Y-89809000D01*
X163274061Y-89809000D01*
X163074102Y-89848774D01*
X162885744Y-89926795D01*
X162716226Y-90040063D01*
X162572063Y-90184226D01*
X162568536Y-90189505D01*
X162593226Y-90129898D01*
X162633000Y-89929939D01*
X162633000Y-89726061D01*
X162593226Y-89526102D01*
X162515205Y-89337744D01*
X162401937Y-89168226D01*
X162257774Y-89024063D01*
X162088256Y-88910795D01*
X161899898Y-88832774D01*
X161699939Y-88793000D01*
X161496061Y-88793000D01*
X161296102Y-88832774D01*
X161107744Y-88910795D01*
X160938226Y-89024063D01*
X160794063Y-89168226D01*
X160680795Y-89337744D01*
X160602774Y-89526102D01*
X160563000Y-89726061D01*
X160563000Y-89929939D01*
X160602774Y-90129898D01*
X160680795Y-90318256D01*
X160738001Y-90403871D01*
X160738000Y-94609776D01*
X156362000Y-90233777D01*
X156362000Y-84053870D01*
X156419205Y-83968256D01*
X156497226Y-83779898D01*
X156537000Y-83579939D01*
X156537000Y-83376061D01*
X156497226Y-83176102D01*
X156419205Y-82987744D01*
X156305937Y-82818226D01*
X156161774Y-82674063D01*
X155992256Y-82560795D01*
X155803898Y-82482774D01*
X155603939Y-82443000D01*
X155400061Y-82443000D01*
X155200102Y-82482774D01*
X155011744Y-82560795D01*
X154842226Y-82674063D01*
X154698063Y-82818226D01*
X154584795Y-82987744D01*
X154506774Y-83176102D01*
X154467000Y-83376061D01*
X154467000Y-83579939D01*
X154485944Y-83675176D01*
X154420494Y-83621463D01*
X154310180Y-83562498D01*
X154190482Y-83526188D01*
X154066000Y-83513928D01*
X152366000Y-83513928D01*
X152241518Y-83526188D01*
X152121820Y-83562498D01*
X152011506Y-83621463D01*
X151914815Y-83700815D01*
X151835463Y-83797506D01*
X151776498Y-83907820D01*
X151740188Y-84027518D01*
X151727928Y-84152000D01*
X147780000Y-84152000D01*
X147780000Y-77280000D01*
X176940000Y-77280000D01*
X176940001Y-131840000D01*
G37*
G04 #@! TD.AperFunction*
G04 #@! TD*
M02*
