G04 #@! TF.GenerationSoftware,KiCad,Pcbnew,(5.1.12-1-10_14)*
G04 #@! TF.CreationDate,2021-12-17T21:30:25-05:00*
G04 #@! TF.ProjectId,charlieplexboard,63686172-6c69-4657-906c-6578626f6172,rev?*
G04 #@! TF.SameCoordinates,Original*
G04 #@! TF.FileFunction,Copper,L1,Top*
G04 #@! TF.FilePolarity,Positive*
%FSLAX46Y46*%
G04 Gerber Fmt 4.6, Leading zero omitted, Abs format (unit mm)*
G04 Created by KiCad (PCBNEW (5.1.12-1-10_14)) date 2021-12-17 21:30:25*
%MOMM*%
%LPD*%
G01*
G04 APERTURE LIST*
G04 #@! TA.AperFunction,ComponentPad*
%ADD10O,1.700000X1.700000*%
G04 #@! TD*
G04 #@! TA.AperFunction,ComponentPad*
%ADD11R,1.700000X1.700000*%
G04 #@! TD*
G04 #@! TA.AperFunction,SMDPad,CuDef*
%ADD12R,1.750000X0.450000*%
G04 #@! TD*
G04 #@! TA.AperFunction,ViaPad*
%ADD13C,0.800000*%
G04 #@! TD*
G04 #@! TA.AperFunction,Conductor*
%ADD14C,0.750000*%
G04 #@! TD*
G04 #@! TA.AperFunction,Conductor*
%ADD15C,0.450000*%
G04 #@! TD*
G04 APERTURE END LIST*
D10*
G04 #@! TO.P,J2,9*
G04 #@! TO.N,/CB9*
X153216000Y-105322000D03*
G04 #@! TO.P,J2,8*
G04 #@! TO.N,/CB8*
X153216000Y-102782000D03*
G04 #@! TO.P,J2,7*
G04 #@! TO.N,/CB7*
X153216000Y-100242000D03*
G04 #@! TO.P,J2,6*
G04 #@! TO.N,/CB6*
X153216000Y-97702000D03*
G04 #@! TO.P,J2,5*
G04 #@! TO.N,/CB5*
X153216000Y-95162000D03*
G04 #@! TO.P,J2,4*
G04 #@! TO.N,/CB4*
X153216000Y-92622000D03*
G04 #@! TO.P,J2,3*
G04 #@! TO.N,/CB3*
X153216000Y-90082000D03*
G04 #@! TO.P,J2,2*
G04 #@! TO.N,/CB2*
X153216000Y-87542000D03*
D11*
G04 #@! TO.P,J2,1*
G04 #@! TO.N,/CB1*
X153216000Y-85002000D03*
G04 #@! TD*
D10*
G04 #@! TO.P,J1,9*
G04 #@! TO.N,/CA9*
X172774000Y-85002000D03*
G04 #@! TO.P,J1,8*
G04 #@! TO.N,/CA8*
X172774000Y-87542000D03*
G04 #@! TO.P,J1,7*
G04 #@! TO.N,/CA7*
X172774000Y-90082000D03*
G04 #@! TO.P,J1,6*
G04 #@! TO.N,/CA6*
X172774000Y-92622000D03*
G04 #@! TO.P,J1,5*
G04 #@! TO.N,/CA5*
X172774000Y-95162000D03*
G04 #@! TO.P,J1,4*
G04 #@! TO.N,/CA4*
X172774000Y-97702000D03*
G04 #@! TO.P,J1,3*
G04 #@! TO.N,/CA3*
X172774000Y-100242000D03*
G04 #@! TO.P,J1,2*
G04 #@! TO.N,/CA2*
X172774000Y-102782000D03*
D11*
G04 #@! TO.P,J1,1*
G04 #@! TO.N,/CA1*
X172774000Y-105322000D03*
G04 #@! TD*
D12*
G04 #@! TO.P,U4,28*
G04 #@! TO.N,/CA8*
X166800000Y-92875000D03*
G04 #@! TO.P,U4,27*
G04 #@! TO.N,/CA7*
X166800000Y-93525000D03*
G04 #@! TO.P,U4,26*
G04 #@! TO.N,/CA6*
X166800000Y-94175000D03*
G04 #@! TO.P,U4,25*
G04 #@! TO.N,/CA5*
X166800000Y-94825000D03*
G04 #@! TO.P,U4,24*
G04 #@! TO.N,/CA4*
X166800000Y-95475000D03*
G04 #@! TO.P,U4,23*
G04 #@! TO.N,/CA3*
X166800000Y-96125000D03*
G04 #@! TO.P,U4,22*
G04 #@! TO.N,/CA2*
X166800000Y-96775000D03*
G04 #@! TO.P,U4,21*
G04 #@! TO.N,/CA1*
X166800000Y-97425000D03*
G04 #@! TO.P,U4,20*
G04 #@! TO.N,/SCL*
X166800000Y-98075000D03*
G04 #@! TO.P,U4,19*
G04 #@! TO.N,/SDA*
X166800000Y-98725000D03*
G04 #@! TO.P,U4,18*
G04 #@! TO.N,Net-(R10-Pad1)*
X166800000Y-99375000D03*
G04 #@! TO.P,U4,17*
G04 #@! TO.N,Net-(U4-Pad17)*
X166800000Y-100025000D03*
G04 #@! TO.P,U4,16*
G04 #@! TO.N,Net-(C8-Pad1)*
X166800000Y-100675000D03*
G04 #@! TO.P,U4,15*
G04 #@! TO.N,/CB9*
X166800000Y-101325000D03*
G04 #@! TO.P,U4,14*
G04 #@! TO.N,/CB8*
X159600000Y-101325000D03*
G04 #@! TO.P,U4,13*
G04 #@! TO.N,/CB7*
X159600000Y-100675000D03*
G04 #@! TO.P,U4,12*
G04 #@! TO.N,/CB6*
X159600000Y-100025000D03*
G04 #@! TO.P,U4,11*
G04 #@! TO.N,/CB5*
X159600000Y-99375000D03*
G04 #@! TO.P,U4,10*
G04 #@! TO.N,/CB4*
X159600000Y-98725000D03*
G04 #@! TO.P,U4,9*
G04 #@! TO.N,/CB3*
X159600000Y-98075000D03*
G04 #@! TO.P,U4,8*
G04 #@! TO.N,/CB2*
X159600000Y-97425000D03*
G04 #@! TO.P,U4,7*
G04 #@! TO.N,/CB1*
X159600000Y-96775000D03*
G04 #@! TO.P,U4,6*
G04 #@! TO.N,Net-(R5-Pad1)*
X159600000Y-96125000D03*
G04 #@! TO.P,U4,5*
G04 #@! TO.N,GND*
X159600000Y-95475000D03*
G04 #@! TO.P,U4,4*
G04 #@! TO.N,Net-(R6-Pad2)*
X159600000Y-94825000D03*
G04 #@! TO.P,U4,3*
G04 #@! TO.N,/~SDB*
X159600000Y-94175000D03*
G04 #@! TO.P,U4,2*
G04 #@! TO.N,+3V3*
X159600000Y-93525000D03*
G04 #@! TO.P,U4,1*
G04 #@! TO.N,/CA9*
X159600000Y-92875000D03*
G04 #@! TD*
G04 #@! TO.P,R10,2*
G04 #@! TO.N,GND*
G04 #@! TA.AperFunction,SMDPad,CuDef*
G36*
G01*
X168119000Y-107375000D02*
X168119000Y-106825000D01*
G75*
G02*
X168319000Y-106625000I200000J0D01*
G01*
X168719000Y-106625000D01*
G75*
G02*
X168919000Y-106825000I0J-200000D01*
G01*
X168919000Y-107375000D01*
G75*
G02*
X168719000Y-107575000I-200000J0D01*
G01*
X168319000Y-107575000D01*
G75*
G02*
X168119000Y-107375000I0J200000D01*
G01*
G37*
G04 #@! TD.AperFunction*
G04 #@! TO.P,R10,1*
G04 #@! TO.N,Net-(R10-Pad1)*
G04 #@! TA.AperFunction,SMDPad,CuDef*
G36*
G01*
X166469000Y-107375000D02*
X166469000Y-106825000D01*
G75*
G02*
X166669000Y-106625000I200000J0D01*
G01*
X167069000Y-106625000D01*
G75*
G02*
X167269000Y-106825000I0J-200000D01*
G01*
X167269000Y-107375000D01*
G75*
G02*
X167069000Y-107575000I-200000J0D01*
G01*
X166669000Y-107575000D01*
G75*
G02*
X166469000Y-107375000I0J200000D01*
G01*
G37*
G04 #@! TD.AperFunction*
G04 #@! TD*
G04 #@! TO.P,R9,2*
G04 #@! TO.N,/SDA*
G04 #@! TA.AperFunction,SMDPad,CuDef*
G36*
G01*
X167165000Y-117177000D02*
X167715000Y-117177000D01*
G75*
G02*
X167915000Y-117377000I0J-200000D01*
G01*
X167915000Y-117777000D01*
G75*
G02*
X167715000Y-117977000I-200000J0D01*
G01*
X167165000Y-117977000D01*
G75*
G02*
X166965000Y-117777000I0J200000D01*
G01*
X166965000Y-117377000D01*
G75*
G02*
X167165000Y-117177000I200000J0D01*
G01*
G37*
G04 #@! TD.AperFunction*
G04 #@! TO.P,R9,1*
G04 #@! TO.N,+3V3*
G04 #@! TA.AperFunction,SMDPad,CuDef*
G36*
G01*
X167165000Y-115527000D02*
X167715000Y-115527000D01*
G75*
G02*
X167915000Y-115727000I0J-200000D01*
G01*
X167915000Y-116127000D01*
G75*
G02*
X167715000Y-116327000I-200000J0D01*
G01*
X167165000Y-116327000D01*
G75*
G02*
X166965000Y-116127000I0J200000D01*
G01*
X166965000Y-115727000D01*
G75*
G02*
X167165000Y-115527000I200000J0D01*
G01*
G37*
G04 #@! TD.AperFunction*
G04 #@! TD*
G04 #@! TO.P,R8,2*
G04 #@! TO.N,/SCL*
G04 #@! TA.AperFunction,SMDPad,CuDef*
G36*
G01*
X172753000Y-114129000D02*
X173303000Y-114129000D01*
G75*
G02*
X173503000Y-114329000I0J-200000D01*
G01*
X173503000Y-114729000D01*
G75*
G02*
X173303000Y-114929000I-200000J0D01*
G01*
X172753000Y-114929000D01*
G75*
G02*
X172553000Y-114729000I0J200000D01*
G01*
X172553000Y-114329000D01*
G75*
G02*
X172753000Y-114129000I200000J0D01*
G01*
G37*
G04 #@! TD.AperFunction*
G04 #@! TO.P,R8,1*
G04 #@! TO.N,+3V3*
G04 #@! TA.AperFunction,SMDPad,CuDef*
G36*
G01*
X172753000Y-112479000D02*
X173303000Y-112479000D01*
G75*
G02*
X173503000Y-112679000I0J-200000D01*
G01*
X173503000Y-113079000D01*
G75*
G02*
X173303000Y-113279000I-200000J0D01*
G01*
X172753000Y-113279000D01*
G75*
G02*
X172553000Y-113079000I0J200000D01*
G01*
X172553000Y-112679000D01*
G75*
G02*
X172753000Y-112479000I200000J0D01*
G01*
G37*
G04 #@! TD.AperFunction*
G04 #@! TD*
G04 #@! TO.P,R7,2*
G04 #@! TO.N,/~SDB*
G04 #@! TA.AperFunction,SMDPad,CuDef*
G36*
G01*
X165579000Y-87817000D02*
X165579000Y-87267000D01*
G75*
G02*
X165779000Y-87067000I200000J0D01*
G01*
X166179000Y-87067000D01*
G75*
G02*
X166379000Y-87267000I0J-200000D01*
G01*
X166379000Y-87817000D01*
G75*
G02*
X166179000Y-88017000I-200000J0D01*
G01*
X165779000Y-88017000D01*
G75*
G02*
X165579000Y-87817000I0J200000D01*
G01*
G37*
G04 #@! TD.AperFunction*
G04 #@! TO.P,R7,1*
G04 #@! TO.N,+3V3*
G04 #@! TA.AperFunction,SMDPad,CuDef*
G36*
G01*
X163929000Y-87817000D02*
X163929000Y-87267000D01*
G75*
G02*
X164129000Y-87067000I200000J0D01*
G01*
X164529000Y-87067000D01*
G75*
G02*
X164729000Y-87267000I0J-200000D01*
G01*
X164729000Y-87817000D01*
G75*
G02*
X164529000Y-88017000I-200000J0D01*
G01*
X164129000Y-88017000D01*
G75*
G02*
X163929000Y-87817000I0J200000D01*
G01*
G37*
G04 #@! TD.AperFunction*
G04 #@! TD*
G04 #@! TO.P,R6,2*
G04 #@! TO.N,Net-(R6-Pad2)*
G04 #@! TA.AperFunction,SMDPad,CuDef*
G36*
G01*
X161695000Y-87585000D02*
X161695000Y-87035000D01*
G75*
G02*
X161895000Y-86835000I200000J0D01*
G01*
X162295000Y-86835000D01*
G75*
G02*
X162495000Y-87035000I0J-200000D01*
G01*
X162495000Y-87585000D01*
G75*
G02*
X162295000Y-87785000I-200000J0D01*
G01*
X161895000Y-87785000D01*
G75*
G02*
X161695000Y-87585000I0J200000D01*
G01*
G37*
G04 #@! TD.AperFunction*
G04 #@! TO.P,R6,1*
G04 #@! TO.N,+3V3*
G04 #@! TA.AperFunction,SMDPad,CuDef*
G36*
G01*
X160045000Y-87585000D02*
X160045000Y-87035000D01*
G75*
G02*
X160245000Y-86835000I200000J0D01*
G01*
X160645000Y-86835000D01*
G75*
G02*
X160845000Y-87035000I0J-200000D01*
G01*
X160845000Y-87585000D01*
G75*
G02*
X160645000Y-87785000I-200000J0D01*
G01*
X160245000Y-87785000D01*
G75*
G02*
X160045000Y-87585000I0J200000D01*
G01*
G37*
G04 #@! TD.AperFunction*
G04 #@! TD*
G04 #@! TO.P,R5,2*
G04 #@! TO.N,GND*
G04 #@! TA.AperFunction,SMDPad,CuDef*
G36*
G01*
X157896000Y-85277000D02*
X157896000Y-84727000D01*
G75*
G02*
X158096000Y-84527000I200000J0D01*
G01*
X158496000Y-84527000D01*
G75*
G02*
X158696000Y-84727000I0J-200000D01*
G01*
X158696000Y-85277000D01*
G75*
G02*
X158496000Y-85477000I-200000J0D01*
G01*
X158096000Y-85477000D01*
G75*
G02*
X157896000Y-85277000I0J200000D01*
G01*
G37*
G04 #@! TD.AperFunction*
G04 #@! TO.P,R5,1*
G04 #@! TO.N,Net-(R5-Pad1)*
G04 #@! TA.AperFunction,SMDPad,CuDef*
G36*
G01*
X156246000Y-85277000D02*
X156246000Y-84727000D01*
G75*
G02*
X156446000Y-84527000I200000J0D01*
G01*
X156846000Y-84527000D01*
G75*
G02*
X157046000Y-84727000I0J-200000D01*
G01*
X157046000Y-85277000D01*
G75*
G02*
X156846000Y-85477000I-200000J0D01*
G01*
X156446000Y-85477000D01*
G75*
G02*
X156246000Y-85277000I0J200000D01*
G01*
G37*
G04 #@! TD.AperFunction*
G04 #@! TD*
D10*
G04 #@! TO.P,J3,7*
G04 #@! TO.N,+3V3*
X153216000Y-110148000D03*
G04 #@! TO.P,J3,6*
G04 #@! TO.N,GND*
X153216000Y-112688000D03*
G04 #@! TO.P,J3,5*
G04 #@! TO.N,/SCL*
X153216000Y-115228000D03*
G04 #@! TO.P,J3,4*
G04 #@! TO.N,/SDA*
X153216000Y-117768000D03*
G04 #@! TO.P,J3,3*
G04 #@! TO.N,Net-(J3-Pad3)*
X153216000Y-120308000D03*
G04 #@! TO.P,J3,2*
G04 #@! TO.N,Net-(J3-Pad2)*
X153216000Y-122848000D03*
D11*
G04 #@! TO.P,J3,1*
G04 #@! TO.N,/~SDB*
X153216000Y-125388000D03*
G04 #@! TD*
G04 #@! TO.P,C11,2*
G04 #@! TO.N,GND*
G04 #@! TA.AperFunction,SMDPad,CuDef*
G36*
G01*
X167690000Y-110839000D02*
X167190000Y-110839000D01*
G75*
G02*
X166965000Y-110614000I0J225000D01*
G01*
X166965000Y-110164000D01*
G75*
G02*
X167190000Y-109939000I225000J0D01*
G01*
X167690000Y-109939000D01*
G75*
G02*
X167915000Y-110164000I0J-225000D01*
G01*
X167915000Y-110614000D01*
G75*
G02*
X167690000Y-110839000I-225000J0D01*
G01*
G37*
G04 #@! TD.AperFunction*
G04 #@! TO.P,C11,1*
G04 #@! TO.N,+3V3*
G04 #@! TA.AperFunction,SMDPad,CuDef*
G36*
G01*
X167690000Y-112389000D02*
X167190000Y-112389000D01*
G75*
G02*
X166965000Y-112164000I0J225000D01*
G01*
X166965000Y-111714000D01*
G75*
G02*
X167190000Y-111489000I225000J0D01*
G01*
X167690000Y-111489000D01*
G75*
G02*
X167915000Y-111714000I0J-225000D01*
G01*
X167915000Y-112164000D01*
G75*
G02*
X167690000Y-112389000I-225000J0D01*
G01*
G37*
G04 #@! TD.AperFunction*
G04 #@! TD*
G04 #@! TO.P,C10,2*
G04 #@! TO.N,GND*
G04 #@! TA.AperFunction,SMDPad,CuDef*
G36*
G01*
X163372000Y-110839000D02*
X162872000Y-110839000D01*
G75*
G02*
X162647000Y-110614000I0J225000D01*
G01*
X162647000Y-110164000D01*
G75*
G02*
X162872000Y-109939000I225000J0D01*
G01*
X163372000Y-109939000D01*
G75*
G02*
X163597000Y-110164000I0J-225000D01*
G01*
X163597000Y-110614000D01*
G75*
G02*
X163372000Y-110839000I-225000J0D01*
G01*
G37*
G04 #@! TD.AperFunction*
G04 #@! TO.P,C10,1*
G04 #@! TO.N,+3V3*
G04 #@! TA.AperFunction,SMDPad,CuDef*
G36*
G01*
X163372000Y-112389000D02*
X162872000Y-112389000D01*
G75*
G02*
X162647000Y-112164000I0J225000D01*
G01*
X162647000Y-111714000D01*
G75*
G02*
X162872000Y-111489000I225000J0D01*
G01*
X163372000Y-111489000D01*
G75*
G02*
X163597000Y-111714000I0J-225000D01*
G01*
X163597000Y-112164000D01*
G75*
G02*
X163372000Y-112389000I-225000J0D01*
G01*
G37*
G04 #@! TD.AperFunction*
G04 #@! TD*
G04 #@! TO.P,C9,2*
G04 #@! TO.N,GND*
G04 #@! TA.AperFunction,SMDPad,CuDef*
G36*
G01*
X159054000Y-110839000D02*
X158554000Y-110839000D01*
G75*
G02*
X158329000Y-110614000I0J225000D01*
G01*
X158329000Y-110164000D01*
G75*
G02*
X158554000Y-109939000I225000J0D01*
G01*
X159054000Y-109939000D01*
G75*
G02*
X159279000Y-110164000I0J-225000D01*
G01*
X159279000Y-110614000D01*
G75*
G02*
X159054000Y-110839000I-225000J0D01*
G01*
G37*
G04 #@! TD.AperFunction*
G04 #@! TO.P,C9,1*
G04 #@! TO.N,+3V3*
G04 #@! TA.AperFunction,SMDPad,CuDef*
G36*
G01*
X159054000Y-112389000D02*
X158554000Y-112389000D01*
G75*
G02*
X158329000Y-112164000I0J225000D01*
G01*
X158329000Y-111714000D01*
G75*
G02*
X158554000Y-111489000I225000J0D01*
G01*
X159054000Y-111489000D01*
G75*
G02*
X159279000Y-111714000I0J-225000D01*
G01*
X159279000Y-112164000D01*
G75*
G02*
X159054000Y-112389000I-225000J0D01*
G01*
G37*
G04 #@! TD.AperFunction*
G04 #@! TD*
G04 #@! TO.P,C8,2*
G04 #@! TO.N,GND*
G04 #@! TA.AperFunction,SMDPad,CuDef*
G36*
G01*
X163634000Y-106917000D02*
X164134000Y-106917000D01*
G75*
G02*
X164359000Y-107142000I0J-225000D01*
G01*
X164359000Y-107592000D01*
G75*
G02*
X164134000Y-107817000I-225000J0D01*
G01*
X163634000Y-107817000D01*
G75*
G02*
X163409000Y-107592000I0J225000D01*
G01*
X163409000Y-107142000D01*
G75*
G02*
X163634000Y-106917000I225000J0D01*
G01*
G37*
G04 #@! TD.AperFunction*
G04 #@! TO.P,C8,1*
G04 #@! TO.N,Net-(C8-Pad1)*
G04 #@! TA.AperFunction,SMDPad,CuDef*
G36*
G01*
X163634000Y-105367000D02*
X164134000Y-105367000D01*
G75*
G02*
X164359000Y-105592000I0J-225000D01*
G01*
X164359000Y-106042000D01*
G75*
G02*
X164134000Y-106267000I-225000J0D01*
G01*
X163634000Y-106267000D01*
G75*
G02*
X163409000Y-106042000I0J225000D01*
G01*
X163409000Y-105592000D01*
G75*
G02*
X163634000Y-105367000I225000J0D01*
G01*
G37*
G04 #@! TD.AperFunction*
G04 #@! TD*
D13*
G04 #@! TO.N,GND*
X158804000Y-108624000D03*
X163122000Y-109132000D03*
X164646000Y-108624000D03*
X167440000Y-109386000D03*
X168519000Y-105893000D03*
X159820000Y-85002000D03*
X158077030Y-95416000D03*
G04 #@! TO.N,/SCL*
X165154000Y-97702000D03*
G04 #@! TO.N,/SDA*
X165154000Y-98972000D03*
G04 #@! TO.N,/~SDB*
X163376000Y-90844000D03*
X162868000Y-94146000D03*
G04 #@! TO.N,Net-(R5-Pad1)*
X161852000Y-96940000D03*
X155502000Y-83478000D03*
G04 #@! TO.N,Net-(R6-Pad2)*
X162106000Y-95162000D03*
X161598000Y-89828000D03*
G04 #@! TD*
D14*
G04 #@! TO.N,GND*
X158804000Y-110389000D02*
X158804000Y-108624000D01*
X163122000Y-110389000D02*
X163122000Y-109386000D01*
D15*
X163122000Y-109386000D02*
X163122000Y-109132000D01*
D14*
X163884000Y-107862000D02*
X164646000Y-108624000D01*
X163884000Y-107367000D02*
X163884000Y-107862000D01*
X167440000Y-110389000D02*
X167440000Y-109386000D01*
X168519000Y-107100000D02*
X168519000Y-105893000D01*
X158296000Y-85002000D02*
X159820000Y-85002000D01*
D15*
X158136030Y-95475000D02*
X158077030Y-95416000D01*
X159600000Y-95475000D02*
X158136030Y-95475000D01*
G04 #@! TO.N,Net-(C8-Pad1)*
X167925002Y-100675000D02*
X166800000Y-100675000D01*
X167325999Y-101925001D02*
X167975001Y-101925001D01*
X168050001Y-101850001D02*
X168050001Y-100799999D01*
X167975001Y-101925001D02*
X168050001Y-101850001D01*
X163884000Y-105367000D02*
X167325999Y-101925001D01*
X168050001Y-100799999D02*
X167925002Y-100675000D01*
X163884000Y-105817000D02*
X163884000Y-105367000D01*
D14*
G04 #@! TO.N,+3V3*
X153216000Y-110148000D02*
X155248000Y-110148000D01*
X157039000Y-111939000D02*
X158804000Y-111939000D01*
X155248000Y-110148000D02*
X157039000Y-111939000D01*
X158804000Y-111939000D02*
X163122000Y-111939000D01*
X163122000Y-111939000D02*
X167440000Y-111939000D01*
X172088000Y-111939000D02*
X173028000Y-112879000D01*
X167440000Y-111939000D02*
X172088000Y-111939000D01*
X167440000Y-111939000D02*
X167440000Y-115927000D01*
D15*
X159600000Y-93475010D02*
X158425008Y-93475010D01*
X158425008Y-93475010D02*
X157902040Y-92952042D01*
X159600000Y-93525000D02*
X159600000Y-93475010D01*
D14*
X160394906Y-87360094D02*
X160445000Y-87310000D01*
X157715906Y-87360094D02*
X160394906Y-87360094D01*
D15*
X157902040Y-87546228D02*
X157715906Y-87360094D01*
D14*
X163096990Y-86309990D02*
X164329000Y-87542000D01*
X160970010Y-86309990D02*
X163096990Y-86309990D01*
X160445000Y-86835000D02*
X160970010Y-86309990D01*
X160445000Y-87310000D02*
X160445000Y-86835000D01*
X153216000Y-110148000D02*
X150676000Y-107608000D01*
X154576999Y-83993673D02*
X155720990Y-85137664D01*
X154486001Y-83626999D02*
X154576999Y-83717997D01*
X151945999Y-83626999D02*
X154486001Y-83626999D01*
X155720990Y-85137664D02*
X155720990Y-87024910D01*
X150676000Y-84896998D02*
X151945999Y-83626999D01*
X150676000Y-107608000D02*
X150676000Y-84896998D01*
X154576999Y-83717997D02*
X154576999Y-83993673D01*
D15*
X157902040Y-89205960D02*
X157902040Y-87546228D01*
X157902040Y-92952042D02*
X157902040Y-89205960D01*
D14*
X157715906Y-88376094D02*
X157394040Y-88697960D01*
X157715906Y-87360094D02*
X157715906Y-88376094D01*
X157394040Y-88697960D02*
X157902040Y-89205960D01*
X155720990Y-87024910D02*
X157394040Y-88697960D01*
D15*
G04 #@! TO.N,/CA9*
X172774000Y-85125998D02*
X172774000Y-85002000D01*
X165024998Y-92875000D02*
X172774000Y-85125998D01*
X159600000Y-92875000D02*
X165024998Y-92875000D01*
G04 #@! TO.N,/CA8*
X167441000Y-92875000D02*
X172774000Y-87542000D01*
X166800000Y-92875000D02*
X167441000Y-92875000D01*
G04 #@! TO.N,/CA7*
X169380999Y-93475001D02*
X172774000Y-90082000D01*
X166868999Y-93475001D02*
X169380999Y-93475001D01*
X166819000Y-93525000D02*
X166868999Y-93475001D01*
X166800000Y-93525000D02*
X166819000Y-93525000D01*
G04 #@! TO.N,/CA6*
X171082542Y-92622000D02*
X172774000Y-92622000D01*
X169529542Y-94175000D02*
X171082542Y-92622000D01*
X166800000Y-94175000D02*
X169529542Y-94175000D01*
G04 #@! TO.N,/CA5*
X172437000Y-94825000D02*
X172774000Y-95162000D01*
X166800000Y-94825000D02*
X172437000Y-94825000D01*
G04 #@! TO.N,/CA4*
X170596999Y-95524999D02*
X172774000Y-97702000D01*
X167040999Y-95524999D02*
X170596999Y-95524999D01*
X166991000Y-95475000D02*
X167040999Y-95524999D01*
X166800000Y-95475000D02*
X166991000Y-95475000D01*
G04 #@! TO.N,/CA3*
X166928999Y-96174999D02*
X168706999Y-96174999D01*
X168706999Y-96174999D02*
X172774000Y-100242000D01*
X166879000Y-96125000D02*
X166928999Y-96174999D01*
X166800000Y-96125000D02*
X166879000Y-96125000D01*
G04 #@! TO.N,/CA2*
X171548999Y-101556999D02*
X172774000Y-102782000D01*
X168340999Y-96824999D02*
X171548999Y-100032999D01*
X171548999Y-100032999D02*
X171548999Y-101556999D01*
X167578999Y-96824999D02*
X168340999Y-96824999D01*
X167529000Y-96775000D02*
X167578999Y-96824999D01*
X166800000Y-96775000D02*
X167529000Y-96775000D01*
G04 #@! TO.N,/CA1*
X170948989Y-103496989D02*
X172774000Y-105322000D01*
X170948989Y-100448987D02*
X170948989Y-103496989D01*
X167925002Y-97425000D02*
X170948989Y-100448987D01*
X166800000Y-97425000D02*
X167925002Y-97425000D01*
G04 #@! TO.N,/CB9*
X166800000Y-101325000D02*
X164325000Y-101325000D01*
X160328000Y-105322000D02*
X153216000Y-105322000D01*
X164325000Y-101325000D02*
X160328000Y-105322000D01*
G04 #@! TO.N,/CB8*
X154673000Y-101325000D02*
X153216000Y-102782000D01*
X159600000Y-101325000D02*
X154673000Y-101325000D01*
G04 #@! TO.N,/CB7*
X159441001Y-100625001D02*
X153599001Y-100625001D01*
X159491000Y-100675000D02*
X159441001Y-100625001D01*
X153599001Y-100625001D02*
X153216000Y-100242000D01*
X159600000Y-100675000D02*
X159491000Y-100675000D01*
G04 #@! TO.N,/CB6*
X155539000Y-100025000D02*
X153216000Y-97702000D01*
X159600000Y-100025000D02*
X155539000Y-100025000D01*
G04 #@! TO.N,/CB5*
X153216000Y-95888998D02*
X153216000Y-95162000D01*
X156702002Y-99375000D02*
X153216000Y-95888998D01*
X159600000Y-99375000D02*
X156702002Y-99375000D01*
G04 #@! TO.N,/CB4*
X153216000Y-93348998D02*
X153216000Y-92622000D01*
X159600000Y-98725000D02*
X157000524Y-98725000D01*
X157000524Y-98725000D02*
X155502000Y-97226476D01*
X155502000Y-94908000D02*
X153216000Y-92622000D01*
X155502000Y-97226476D02*
X155502000Y-94908000D01*
G04 #@! TO.N,/CB3*
X159600000Y-98075000D02*
X157329990Y-98075000D01*
X156102010Y-92968010D02*
X153216000Y-90082000D01*
X156102010Y-96847020D02*
X156102010Y-92968010D01*
X157329990Y-98075000D02*
X156102010Y-96847020D01*
G04 #@! TO.N,/CB2*
X157765000Y-97425000D02*
X156702020Y-96362020D01*
X159600000Y-97425000D02*
X157765000Y-97425000D01*
X156702020Y-91028020D02*
X153216000Y-87542000D01*
X156702020Y-96362020D02*
X156702020Y-91028020D01*
G04 #@! TO.N,/CB1*
X157302030Y-96113488D02*
X158013532Y-96824990D01*
X157302030Y-89815028D02*
X157302030Y-96113488D01*
X153216000Y-85728998D02*
X157302030Y-89815028D01*
X153216000Y-85002000D02*
X153216000Y-85728998D01*
X158715000Y-96775000D02*
X159600000Y-96775000D01*
X158665010Y-96824990D02*
X158715000Y-96775000D01*
X158013532Y-96824990D02*
X158665010Y-96824990D01*
G04 #@! TO.N,/SCL*
X166926822Y-116702010D02*
X170854990Y-116702010D01*
X170854990Y-116702010D02*
X173028000Y-114529000D01*
X165452812Y-115228000D02*
X166926822Y-116702010D01*
X153216000Y-115228000D02*
X165452812Y-115228000D01*
X165527000Y-98075000D02*
X165154000Y-97702000D01*
X166800000Y-98075000D02*
X165527000Y-98075000D01*
G04 #@! TO.N,/SDA*
X167249000Y-117768000D02*
X167440000Y-117577000D01*
X153216000Y-117768000D02*
X167249000Y-117768000D01*
X165401000Y-98725000D02*
X165154000Y-98972000D01*
X166800000Y-98725000D02*
X165401000Y-98725000D01*
G04 #@! TO.N,/~SDB*
X165979000Y-88241000D02*
X163376000Y-90844000D01*
X165979000Y-87542000D02*
X165979000Y-88241000D01*
X159629000Y-94146000D02*
X159600000Y-94175000D01*
X162868000Y-94146000D02*
X159629000Y-94146000D01*
G04 #@! TO.N,Net-(R5-Pad1)*
X161037000Y-96125000D02*
X161852000Y-96940000D01*
X159600000Y-96125000D02*
X161037000Y-96125000D01*
X155502000Y-83858000D02*
X156646000Y-85002000D01*
X155502000Y-83478000D02*
X155502000Y-83858000D01*
G04 #@! TO.N,Net-(R6-Pad2)*
X161769000Y-94825000D02*
X162106000Y-95162000D01*
X159600000Y-94825000D02*
X161769000Y-94825000D01*
X161598000Y-87807000D02*
X162095000Y-87310000D01*
X161598000Y-89828000D02*
X161598000Y-87807000D01*
G04 #@! TO.N,Net-(R10-Pad1)*
X167975001Y-99424999D02*
X166849999Y-99424999D01*
X166849999Y-99424999D02*
X166800000Y-99375000D01*
X168650011Y-100100009D02*
X167975001Y-99424999D01*
X168650011Y-102098533D02*
X168650011Y-100100009D01*
X166869000Y-103879544D02*
X168650011Y-102098533D01*
X166869000Y-107100000D02*
X166869000Y-103879544D01*
G04 #@! TD*
M02*
