M48
; DRILL file {KiCad (5.1.12-1-10_14)} date Wednesday, December 01, 2021 at 02:47:11 PM
; FORMAT={-:-/ absolute / inch / decimal}
; #@! TF.CreationDate,2021-12-01T14:47:11-05:00
; #@! TF.GenerationSoftware,Kicad,Pcbnew,(5.1.12-1-10_14)
; #@! TF.FileFunction,Plated,1,4,PTH
FMAT,2
INCH
T1C0.0118
T2C0.0157
%
G90
G05
T1
X6.5Y-3.6614
X6.5285Y-3.1654
X6.5315Y-3.2992
X6.5315Y-3.3465
X6.5315Y-3.4016
X6.5512Y-3.1417
X6.5551Y-3.4252
X6.5591Y-3.3199
X6.5591Y-3.3701
X6.5748Y-3.0906
X6.5787Y-3.1854
X6.5906Y-3.4724
X6.5906Y-3.878
X6.6496Y-3.4252
X6.6535Y-3.3701
X6.685Y-3.5984
X6.685Y-3.6496
X6.685Y-3.7087
X6.6969Y-3.8504
X6.7008Y-3.7677
X6.7323Y-3.1854
X6.7618Y-3.1854
X6.7717Y-3.4646
X6.878Y-3.9291
X6.9528Y-3.8976
X7.0356Y-3.1927
X7.0866Y-3.563
X7.0866Y-3.6654
X7.0866Y-3.874
X7.0866Y-3.9803
X7.0894Y-2.8256
X7.0894Y-3.0382
X7.0896Y-2.7205
X7.0896Y-2.9331
X7.0896Y-3.7717
X7.0906Y-2.5118
X7.1096Y-3.1647
X7.1102Y-4.0039
X7.1102Y-2.5354
X7.1102Y-2.6417
X7.1102Y-2.7441
X7.1102Y-2.8465
X7.1102Y-2.9567
X7.1102Y-3.0591
X7.1102Y-3.374
X7.1102Y-3.4803
X7.1102Y-3.5866
X7.1102Y-3.6929
X7.1102Y-3.7992
X7.1102Y-3.8976
X7.1102Y-3.8976
X7.1299Y-2.4331
X7.1417Y-4.1772
X7.1772Y-2.1457
X7.189Y-2.7205
X7.2159Y-3.0585
X7.2163Y-3.8974
X7.2165Y-2.5315
X7.2165Y-2.6378
X7.2165Y-2.7402
X7.2165Y-2.8465
X7.2165Y-2.9528
X7.2165Y-3.374
X7.2165Y-3.4803
X7.2165Y-3.5827
X7.2165Y-3.6929
X7.2165Y-3.7953
X7.2362Y-3.0827
X7.2362Y-3.9213
X7.3184Y-2.9562
X7.3189Y-2.5354
X7.3189Y-2.6378
X7.3189Y-2.7441
X7.3189Y-2.8504
X7.3189Y-3.374
X7.3189Y-3.4764
X7.3189Y-3.5827
X7.3189Y-3.689
X7.3189Y-3.7913
X7.3386Y-3.8189
X7.3393Y-2.977
X7.4252Y-3.0591
X7.4252Y-3.374
X7.4252Y-3.4803
X7.4252Y-3.5866
X7.4252Y-3.689
X7.4252Y-3.8976
X7.4285Y-2.8458
X7.4291Y-2.5354
X7.4291Y-2.6417
X7.4291Y-2.7441
X7.4449Y-2.878
X7.4488Y-3.7126
X7.4606Y-4.1929
X7.5276Y-2.9567
X7.5276Y-3.7953
X7.5289Y-2.7455
X7.5315Y-2.5354
X7.5315Y-2.6378
X7.5315Y-3.0591
X7.5315Y-3.374
X7.5315Y-3.4803
X7.5315Y-3.5827
X7.5315Y-3.8976
X7.5512Y-3.6063
X7.613Y-2.7272
X7.622Y-2.622
X7.6339Y-2.8504
X7.6339Y-2.9567
X7.6339Y-3.7953
X7.6378Y-2.5315
X7.6378Y-3.0591
X7.6378Y-3.6929
X7.6378Y-3.8976
X7.6457Y-3.3821
X7.6486Y-3.4951
X7.6535Y-2.6575
X7.7165Y-2.6181
X7.7205Y-3.4606
X7.7402Y-2.748
X7.7402Y-2.8504
X7.7402Y-2.9567
X7.7402Y-3.0591
X7.7402Y-3.5866
X7.7402Y-3.7953
X7.7402Y-3.8976
X7.7441Y-2.1063
X7.7441Y-3.6929
X7.7638Y-2.5551
X7.8271Y-2.5142
X7.8346Y-3.3622
X7.8425Y-2.6378
X7.8465Y-2.748
X7.8465Y-2.8504
X7.8465Y-2.9567
X7.8465Y-3.0591
X7.8465Y-3.6929
X7.8465Y-3.7953
X7.8465Y-3.8976
X7.8504Y-3.5866
X7.8504Y-4.2283
X7.8531Y-3.3853
X7.8551Y-3.4961
X7.8657Y-3.2887
X7.8819Y-2.4331
X7.9331Y-2.9252
X7.9331Y-3.1378
X7.9331Y-3.4528
X7.937Y-3.0276
X7.9409Y-2.5157
X7.9449Y-3.5472
X7.9449Y-3.5827
X7.9488Y-3.689
X7.9488Y-3.7953
X7.9528Y-3.8976
X7.9685Y-2.6378
X7.9685Y-2.7374
X7.9764Y-2.4134
X8.0787Y-2.4134
X8.1614Y-2.5354
T2
X6.7874Y-4.1024
X7.2087Y-4.3406
X7.2874Y-1.752
X7.4665Y-1.7539
X7.5002Y-2.0845
X7.5118Y-1.752
X7.5945Y-1.7244
X7.6004Y-2.128
X7.6434Y-2.1125
X7.9331Y-3.2402
X8.187Y-3.1398
X8.189Y-3.0866
X8.3071Y-2.9626
X8.315Y-2.7677
X8.3583Y-3.8819
X8.3622Y-3.7874
X8.4862Y-3.3661
X8.4902Y-3.0787
X8.4902Y-3.1319
X8.4921Y-3.2224
X8.4941Y-3.2677
X8.4941Y-3.3169
T0
M30
