%TF.GenerationSoftware,KiCad,Pcbnew,(5.1.12-1-10_14)*%
%TF.CreationDate,2021-12-01T14:47:09-05:00*%
%TF.ProjectId,blinky,626c696e-6b79-42e6-9b69-6361645f7063,rev?*%
%TF.SameCoordinates,Original*%
%TF.FileFunction,Legend,Bot*%
%TF.FilePolarity,Positive*%
%FSLAX46Y46*%
G04 Gerber Fmt 4.6, Leading zero omitted, Abs format (unit mm)*
G04 Created by KiCad (PCBNEW (5.1.12-1-10_14)) date 2021-12-01 14:47:09*
%MOMM*%
%LPD*%
G01*
G04 APERTURE LIST*
%ADD10C,0.150000*%
%ADD11C,0.500000*%
%ADD12C,0.120000*%
G04 APERTURE END LIST*
D10*
X166661904Y-67607142D02*
X165861904Y-67607142D01*
X166166666Y-67607142D02*
X166128571Y-67683333D01*
X166128571Y-67835714D01*
X166166666Y-67911904D01*
X166204761Y-67950000D01*
X166280952Y-67988095D01*
X166509523Y-67988095D01*
X166585714Y-67950000D01*
X166623809Y-67911904D01*
X166661904Y-67835714D01*
X166661904Y-67683333D01*
X166623809Y-67607142D01*
X166128571Y-68673809D02*
X166661904Y-68673809D01*
X166128571Y-68330952D02*
X166547619Y-68330952D01*
X166623809Y-68369047D01*
X166661904Y-68445238D01*
X166661904Y-68559523D01*
X166623809Y-68635714D01*
X166585714Y-68673809D01*
X166661904Y-69054761D02*
X166128571Y-69054761D01*
X165861904Y-69054761D02*
X165900000Y-69016666D01*
X165938095Y-69054761D01*
X165900000Y-69092857D01*
X165861904Y-69054761D01*
X165938095Y-69054761D01*
X166661904Y-69550000D02*
X166623809Y-69473809D01*
X166547619Y-69435714D01*
X165861904Y-69435714D01*
X166661904Y-70197619D02*
X165861904Y-70197619D01*
X166623809Y-70197619D02*
X166661904Y-70121428D01*
X166661904Y-69969047D01*
X166623809Y-69892857D01*
X166585714Y-69854761D01*
X166509523Y-69816666D01*
X166280952Y-69816666D01*
X166204761Y-69854761D01*
X166166666Y-69892857D01*
X166128571Y-69969047D01*
X166128571Y-70121428D01*
X166166666Y-70197619D01*
X165861904Y-71340476D02*
X165861904Y-71416666D01*
X165900000Y-71492857D01*
X165938095Y-71530952D01*
X166014285Y-71569047D01*
X166166666Y-71607142D01*
X166357142Y-71607142D01*
X166509523Y-71569047D01*
X166585714Y-71530952D01*
X166623809Y-71492857D01*
X166661904Y-71416666D01*
X166661904Y-71340476D01*
X166623809Y-71264285D01*
X166585714Y-71226190D01*
X166509523Y-71188095D01*
X166357142Y-71150000D01*
X166166666Y-71150000D01*
X166014285Y-71188095D01*
X165938095Y-71226190D01*
X165900000Y-71264285D01*
X165861904Y-71340476D01*
X165861904Y-72102380D02*
X165861904Y-72178571D01*
X165900000Y-72254761D01*
X165938095Y-72292857D01*
X166014285Y-72330952D01*
X166166666Y-72369047D01*
X166357142Y-72369047D01*
X166509523Y-72330952D01*
X166585714Y-72292857D01*
X166623809Y-72254761D01*
X166661904Y-72178571D01*
X166661904Y-72102380D01*
X166623809Y-72026190D01*
X166585714Y-71988095D01*
X166509523Y-71950000D01*
X166357142Y-71911904D01*
X166166666Y-71911904D01*
X166014285Y-71950000D01*
X165938095Y-71988095D01*
X165900000Y-72026190D01*
X165861904Y-72102380D01*
X166661904Y-73130952D02*
X166661904Y-72673809D01*
X166661904Y-72902380D02*
X165861904Y-72902380D01*
X165976190Y-72826190D01*
X166052380Y-72750000D01*
X166090476Y-72673809D01*
D11*
X195707142Y-55554761D02*
X194564285Y-55554761D01*
X195135714Y-57554761D02*
X195135714Y-55554761D01*
X193897619Y-55554761D02*
X193897619Y-57173809D01*
X193802380Y-57364285D01*
X193707142Y-57459523D01*
X193516666Y-57554761D01*
X193135714Y-57554761D01*
X192945238Y-57459523D01*
X192850000Y-57364285D01*
X192754761Y-57173809D01*
X192754761Y-55554761D01*
X190659523Y-57554761D02*
X191326190Y-56602380D01*
X191802380Y-57554761D02*
X191802380Y-55554761D01*
X191040476Y-55554761D01*
X190850000Y-55650000D01*
X190754761Y-55745238D01*
X190659523Y-55935714D01*
X190659523Y-56221428D01*
X190754761Y-56411904D01*
X190850000Y-56507142D01*
X191040476Y-56602380D01*
X191802380Y-56602380D01*
X190088095Y-55554761D02*
X188945238Y-55554761D01*
X189516666Y-57554761D02*
X189516666Y-55554761D01*
X187326190Y-57554761D02*
X188278571Y-57554761D01*
X188278571Y-55554761D01*
X186659523Y-56507142D02*
X185992857Y-56507142D01*
X185707142Y-57554761D02*
X186659523Y-57554761D01*
X186659523Y-55554761D01*
X185707142Y-55554761D01*
X197992857Y-60959523D02*
X197707142Y-61054761D01*
X197230952Y-61054761D01*
X197040476Y-60959523D01*
X196945238Y-60864285D01*
X196850000Y-60673809D01*
X196850000Y-60483333D01*
X196945238Y-60292857D01*
X197040476Y-60197619D01*
X197230952Y-60102380D01*
X197611904Y-60007142D01*
X197802380Y-59911904D01*
X197897619Y-59816666D01*
X197992857Y-59626190D01*
X197992857Y-59435714D01*
X197897619Y-59245238D01*
X197802380Y-59150000D01*
X197611904Y-59054761D01*
X197135714Y-59054761D01*
X196850000Y-59150000D01*
X195992857Y-61054761D02*
X195992857Y-59054761D01*
X195230952Y-59054761D01*
X195040476Y-59150000D01*
X194945238Y-59245238D01*
X194850000Y-59435714D01*
X194850000Y-59721428D01*
X194945238Y-59911904D01*
X195040476Y-60007142D01*
X195230952Y-60102380D01*
X195992857Y-60102380D01*
X194088095Y-60483333D02*
X193135714Y-60483333D01*
X194278571Y-61054761D02*
X193611904Y-59054761D01*
X192945238Y-61054761D01*
X191135714Y-60864285D02*
X191230952Y-60959523D01*
X191516666Y-61054761D01*
X191707142Y-61054761D01*
X191992857Y-60959523D01*
X192183333Y-60769047D01*
X192278571Y-60578571D01*
X192373809Y-60197619D01*
X192373809Y-59911904D01*
X192278571Y-59530952D01*
X192183333Y-59340476D01*
X191992857Y-59150000D01*
X191707142Y-59054761D01*
X191516666Y-59054761D01*
X191230952Y-59150000D01*
X191135714Y-59245238D01*
X190278571Y-60007142D02*
X189611904Y-60007142D01*
X189326190Y-61054761D02*
X190278571Y-61054761D01*
X190278571Y-59054761D01*
X189326190Y-59054761D01*
X188469047Y-61054761D02*
X188469047Y-59054761D01*
X187707142Y-59054761D01*
X187516666Y-59150000D01*
X187421428Y-59245238D01*
X187326190Y-59435714D01*
X187326190Y-59721428D01*
X187421428Y-59911904D01*
X187516666Y-60007142D01*
X187707142Y-60102380D01*
X188469047Y-60102380D01*
X186088095Y-59054761D02*
X185707142Y-59054761D01*
X185516666Y-59150000D01*
X185326190Y-59340476D01*
X185230952Y-59721428D01*
X185230952Y-60388095D01*
X185326190Y-60769047D01*
X185516666Y-60959523D01*
X185707142Y-61054761D01*
X186088095Y-61054761D01*
X186278571Y-60959523D01*
X186469047Y-60769047D01*
X186564285Y-60388095D01*
X186564285Y-59721428D01*
X186469047Y-59340476D01*
X186278571Y-59150000D01*
X186088095Y-59054761D01*
X183230952Y-61054761D02*
X183897619Y-60102380D01*
X184373809Y-61054761D02*
X184373809Y-59054761D01*
X183611904Y-59054761D01*
X183421428Y-59150000D01*
X183326190Y-59245238D01*
X183230952Y-59435714D01*
X183230952Y-59721428D01*
X183326190Y-59911904D01*
X183421428Y-60007142D01*
X183611904Y-60102380D01*
X184373809Y-60102380D01*
X182659523Y-59054761D02*
X181516666Y-59054761D01*
X182088095Y-61054761D02*
X182088095Y-59054761D01*
X193278571Y-62745238D02*
X193183333Y-62650000D01*
X192992857Y-62554761D01*
X192516666Y-62554761D01*
X192326190Y-62650000D01*
X192230952Y-62745238D01*
X192135714Y-62935714D01*
X192135714Y-63126190D01*
X192230952Y-63411904D01*
X193373809Y-64554761D01*
X192135714Y-64554761D01*
X190897619Y-62554761D02*
X190707142Y-62554761D01*
X190516666Y-62650000D01*
X190421428Y-62745238D01*
X190326190Y-62935714D01*
X190230952Y-63316666D01*
X190230952Y-63792857D01*
X190326190Y-64173809D01*
X190421428Y-64364285D01*
X190516666Y-64459523D01*
X190707142Y-64554761D01*
X190897619Y-64554761D01*
X191088095Y-64459523D01*
X191183333Y-64364285D01*
X191278571Y-64173809D01*
X191373809Y-63792857D01*
X191373809Y-63316666D01*
X191278571Y-62935714D01*
X191183333Y-62745238D01*
X191088095Y-62650000D01*
X190897619Y-62554761D01*
X189469047Y-62745238D02*
X189373809Y-62650000D01*
X189183333Y-62554761D01*
X188707142Y-62554761D01*
X188516666Y-62650000D01*
X188421428Y-62745238D01*
X188326190Y-62935714D01*
X188326190Y-63126190D01*
X188421428Y-63411904D01*
X189564285Y-64554761D01*
X188326190Y-64554761D01*
X187564285Y-62745238D02*
X187469047Y-62650000D01*
X187278571Y-62554761D01*
X186802380Y-62554761D01*
X186611904Y-62650000D01*
X186516666Y-62745238D01*
X186421428Y-62935714D01*
X186421428Y-63126190D01*
X186516666Y-63411904D01*
X187659523Y-64554761D01*
X186421428Y-64554761D01*
D10*
X192564285Y-68582142D02*
X192611904Y-68629761D01*
X192754761Y-68677380D01*
X192850000Y-68677380D01*
X192992857Y-68629761D01*
X193088095Y-68534523D01*
X193135714Y-68439285D01*
X193183333Y-68248809D01*
X193183333Y-68105952D01*
X193135714Y-67915476D01*
X193088095Y-67820238D01*
X192992857Y-67725000D01*
X192850000Y-67677380D01*
X192754761Y-67677380D01*
X192611904Y-67725000D01*
X192564285Y-67772619D01*
X191564285Y-68677380D02*
X191897619Y-68201190D01*
X192135714Y-68677380D02*
X192135714Y-67677380D01*
X191754761Y-67677380D01*
X191659523Y-67725000D01*
X191611904Y-67772619D01*
X191564285Y-67867857D01*
X191564285Y-68010714D01*
X191611904Y-68105952D01*
X191659523Y-68153571D01*
X191754761Y-68201190D01*
X192135714Y-68201190D01*
X191135714Y-68296428D02*
X190373809Y-68296428D01*
X189945238Y-67772619D02*
X189897619Y-67725000D01*
X189802380Y-67677380D01*
X189564285Y-67677380D01*
X189469047Y-67725000D01*
X189421428Y-67772619D01*
X189373809Y-67867857D01*
X189373809Y-67963095D01*
X189421428Y-68105952D01*
X189992857Y-68677380D01*
X189373809Y-68677380D01*
X188754761Y-67677380D02*
X188659523Y-67677380D01*
X188564285Y-67725000D01*
X188516666Y-67772619D01*
X188469047Y-67867857D01*
X188421428Y-68058333D01*
X188421428Y-68296428D01*
X188469047Y-68486904D01*
X188516666Y-68582142D01*
X188564285Y-68629761D01*
X188659523Y-68677380D01*
X188754761Y-68677380D01*
X188850000Y-68629761D01*
X188897619Y-68582142D01*
X188945238Y-68486904D01*
X188992857Y-68296428D01*
X188992857Y-68058333D01*
X188945238Y-67867857D01*
X188897619Y-67772619D01*
X188850000Y-67725000D01*
X188754761Y-67677380D01*
X188088095Y-67677380D02*
X187469047Y-67677380D01*
X187802380Y-68058333D01*
X187659523Y-68058333D01*
X187564285Y-68105952D01*
X187516666Y-68153571D01*
X187469047Y-68248809D01*
X187469047Y-68486904D01*
X187516666Y-68582142D01*
X187564285Y-68629761D01*
X187659523Y-68677380D01*
X187945238Y-68677380D01*
X188040476Y-68629761D01*
X188088095Y-68582142D01*
X187088095Y-67772619D02*
X187040476Y-67725000D01*
X186945238Y-67677380D01*
X186707142Y-67677380D01*
X186611904Y-67725000D01*
X186564285Y-67772619D01*
X186516666Y-67867857D01*
X186516666Y-67963095D01*
X186564285Y-68105952D01*
X187135714Y-68677380D01*
X186516666Y-68677380D01*
X196040476Y-69803571D02*
X196373809Y-69803571D01*
X196373809Y-70327380D02*
X196373809Y-69327380D01*
X195897619Y-69327380D01*
X195040476Y-70327380D02*
X195516666Y-70327380D01*
X195516666Y-69327380D01*
X194754761Y-70041666D02*
X194278571Y-70041666D01*
X194850000Y-70327380D02*
X194516666Y-69327380D01*
X194183333Y-70327380D01*
X193992857Y-69327380D02*
X193421428Y-69327380D01*
X193707142Y-70327380D02*
X193707142Y-69327380D01*
X192373809Y-70279761D02*
X192230952Y-70327380D01*
X191992857Y-70327380D01*
X191897619Y-70279761D01*
X191850000Y-70232142D01*
X191802380Y-70136904D01*
X191802380Y-70041666D01*
X191850000Y-69946428D01*
X191897619Y-69898809D01*
X191992857Y-69851190D01*
X192183333Y-69803571D01*
X192278571Y-69755952D01*
X192326190Y-69708333D01*
X192373809Y-69613095D01*
X192373809Y-69517857D01*
X192326190Y-69422619D01*
X192278571Y-69375000D01*
X192183333Y-69327380D01*
X191945238Y-69327380D01*
X191802380Y-69375000D01*
X191373809Y-70327380D02*
X191373809Y-69327380D01*
X190897619Y-70327380D02*
X190897619Y-69327380D01*
X190659523Y-69327380D01*
X190516666Y-69375000D01*
X190421428Y-69470238D01*
X190373809Y-69565476D01*
X190326190Y-69755952D01*
X190326190Y-69898809D01*
X190373809Y-70089285D01*
X190421428Y-70184523D01*
X190516666Y-70279761D01*
X190659523Y-70327380D01*
X190897619Y-70327380D01*
X189897619Y-69803571D02*
X189564285Y-69803571D01*
X189421428Y-70327380D02*
X189897619Y-70327380D01*
X189897619Y-69327380D01*
X189421428Y-69327380D01*
X187945238Y-70708333D02*
X187992857Y-70660714D01*
X188088095Y-70517857D01*
X188135714Y-70422619D01*
X188183333Y-70279761D01*
X188230952Y-70041666D01*
X188230952Y-69851190D01*
X188183333Y-69613095D01*
X188135714Y-69470238D01*
X188088095Y-69375000D01*
X187992857Y-69232142D01*
X187945238Y-69184523D01*
X187564285Y-69946428D02*
X186802380Y-69946428D01*
X187183333Y-70327380D02*
X187183333Y-69565476D01*
X186421428Y-70708333D02*
X186373809Y-70660714D01*
X186278571Y-70517857D01*
X186230952Y-70422619D01*
X186183333Y-70279761D01*
X186135714Y-70041666D01*
X186135714Y-69851190D01*
X186183333Y-69613095D01*
X186230952Y-69470238D01*
X186278571Y-69375000D01*
X186373809Y-69232142D01*
X186421428Y-69184523D01*
X184897619Y-69327380D02*
X184897619Y-70136904D01*
X184850000Y-70232142D01*
X184802380Y-70279761D01*
X184707142Y-70327380D01*
X184516666Y-70327380D01*
X184421428Y-70279761D01*
X184373809Y-70232142D01*
X184326190Y-70136904D01*
X184326190Y-69327380D01*
X183850000Y-70327380D02*
X183850000Y-69327380D01*
X183469047Y-69327380D01*
X183373809Y-69375000D01*
X183326190Y-69422619D01*
X183278571Y-69517857D01*
X183278571Y-69660714D01*
X183326190Y-69755952D01*
X183373809Y-69803571D01*
X183469047Y-69851190D01*
X183850000Y-69851190D01*
D12*
%TO.C,J2*%
X209180000Y-102540000D02*
X209180000Y-94540000D01*
X205180000Y-102540000D02*
X209180000Y-102540000D01*
X205180000Y-94540000D02*
X205180000Y-102540000D01*
X209180000Y-94540000D02*
X205180000Y-94540000D01*
%TO.C,BT2*%
X179030000Y-70820000D02*
X182980000Y-72260000D01*
X167860000Y-72900000D02*
X169940000Y-70820000D01*
X167860000Y-76400000D02*
X167860000Y-72900000D01*
X167860000Y-90300000D02*
X169940000Y-92380000D01*
X179030000Y-92380000D02*
X182980000Y-90940000D01*
X169940000Y-70820000D02*
X172400000Y-70820000D01*
X178400000Y-70820000D02*
X179030000Y-70820000D01*
X169940000Y-92380000D02*
X172400000Y-92380000D01*
X178400000Y-92380000D02*
X179030000Y-92380000D01*
X167860000Y-90300000D02*
X167860000Y-86800000D01*
X182988169Y-90925244D02*
G75*
G03*
X183950000Y-87600000I-738169J2015244D01*
G01*
X183966530Y-75596646D02*
G75*
G03*
X182980000Y-72260000I-1716530J1306646D01*
G01*
%TO.C,BT1*%
X200970000Y-92380000D02*
X197020000Y-90940000D01*
X212140000Y-90300000D02*
X210060000Y-92380000D01*
X212140000Y-86800000D02*
X212140000Y-90300000D01*
X212140000Y-72900000D02*
X210060000Y-70820000D01*
X200970000Y-70820000D02*
X197020000Y-72260000D01*
X210060000Y-92380000D02*
X207600000Y-92380000D01*
X201600000Y-92380000D02*
X200970000Y-92380000D01*
X210060000Y-70820000D02*
X207600000Y-70820000D01*
X201600000Y-70820000D02*
X200970000Y-70820000D01*
X212140000Y-72900000D02*
X212140000Y-76400000D01*
X197011831Y-72274756D02*
G75*
G03*
X196050000Y-75600000I738169J-2015244D01*
G01*
X196033470Y-87603354D02*
G75*
G03*
X197020000Y-90940000I1716530J-1306646D01*
G01*
%TO.C,J1*%
X183750000Y-45282000D02*
X183750000Y-52394000D01*
X183750000Y-52394000D02*
X196450000Y-52394000D01*
X196450000Y-52394000D02*
X196450000Y-45282000D01*
X196450000Y-45282000D02*
X183750000Y-45282000D01*
%TO.C,J2*%
D10*
X210013333Y-103992380D02*
X210013333Y-102992380D01*
X209441904Y-103992380D01*
X209441904Y-102992380D01*
X208965714Y-103468571D02*
X208632380Y-103468571D01*
X208489523Y-103992380D02*
X208965714Y-103992380D01*
X208965714Y-102992380D01*
X208489523Y-102992380D01*
X207870476Y-102992380D02*
X207680000Y-102992380D01*
X207584761Y-103040000D01*
X207489523Y-103135238D01*
X207441904Y-103325714D01*
X207441904Y-103659047D01*
X207489523Y-103849523D01*
X207584761Y-103944761D01*
X207680000Y-103992380D01*
X207870476Y-103992380D01*
X207965714Y-103944761D01*
X208060952Y-103849523D01*
X208108571Y-103659047D01*
X208108571Y-103325714D01*
X208060952Y-103135238D01*
X207965714Y-103040000D01*
X207870476Y-102992380D01*
X207013333Y-103992380D02*
X207013333Y-102992380D01*
X206632380Y-102992380D01*
X206537142Y-103040000D01*
X206489523Y-103087619D01*
X206441904Y-103182857D01*
X206441904Y-103325714D01*
X206489523Y-103420952D01*
X206537142Y-103468571D01*
X206632380Y-103516190D01*
X207013333Y-103516190D01*
X206013333Y-103992380D02*
X206013333Y-102992380D01*
X205632380Y-102992380D02*
X204965714Y-103992380D01*
X204965714Y-102992380D02*
X205632380Y-103992380D01*
X204584761Y-103468571D02*
X204251428Y-103468571D01*
X204108571Y-103992380D02*
X204584761Y-103992380D01*
X204584761Y-102992380D01*
X204108571Y-102992380D01*
X203203809Y-103992380D02*
X203680000Y-103992380D01*
X203680000Y-102992380D01*
X210000000Y-95944285D02*
X209904761Y-96039523D01*
X210000000Y-96134761D01*
X210095238Y-96039523D01*
X210000000Y-95944285D01*
X210000000Y-96134761D01*
%TO.C,J1*%
X192142857Y-53161904D02*
X192142857Y-53733333D01*
X192180952Y-53847619D01*
X192257142Y-53923809D01*
X192371428Y-53961904D01*
X192447619Y-53961904D01*
X191800000Y-53733333D02*
X191419047Y-53733333D01*
X191876190Y-53961904D02*
X191609523Y-53161904D01*
X191342857Y-53961904D01*
X190619047Y-53885714D02*
X190657142Y-53923809D01*
X190771428Y-53961904D01*
X190847619Y-53961904D01*
X190961904Y-53923809D01*
X191038095Y-53847619D01*
X191076190Y-53771428D01*
X191114285Y-53619047D01*
X191114285Y-53504761D01*
X191076190Y-53352380D01*
X191038095Y-53276190D01*
X190961904Y-53200000D01*
X190847619Y-53161904D01*
X190771428Y-53161904D01*
X190657142Y-53200000D01*
X190619047Y-53238095D01*
X190276190Y-53961904D02*
X190276190Y-53161904D01*
X189819047Y-53961904D02*
X190161904Y-53504761D01*
X189819047Y-53161904D02*
X190276190Y-53619047D01*
X188866666Y-53961904D02*
X188866666Y-53161904D01*
X188485714Y-53961904D02*
X188485714Y-53161904D01*
X188028571Y-53961904D01*
X188028571Y-53161904D01*
X182686285Y-44012000D02*
X182781523Y-44107238D01*
X182876761Y-44012000D01*
X182781523Y-43916761D01*
X182686285Y-44012000D01*
X182876761Y-44012000D01*
%TD*%
M02*
