%TF.GenerationSoftware,KiCad,Pcbnew,(5.1.12-1-10_14)*%
%TF.CreationDate,2021-12-01T14:47:09-05:00*%
%TF.ProjectId,blinky,626c696e-6b79-42e6-9b69-6361645f7063,rev?*%
%TF.SameCoordinates,Original*%
%TF.FileFunction,Soldermask,Top*%
%TF.FilePolarity,Negative*%
%FSLAX46Y46*%
G04 Gerber Fmt 4.6, Leading zero omitted, Abs format (unit mm)*
G04 Created by KiCad (PCBNEW (5.1.12-1-10_14)) date 2021-12-01 14:47:09*
%MOMM*%
%LPD*%
G01*
G04 APERTURE LIST*
%ADD10R,0.950000X1.550000*%
%ADD11R,1.000000X1.600000*%
%ADD12C,0.900000*%
%ADD13R,1.800000X0.800000*%
%ADD14C,0.100000*%
%ADD15R,1.500000X0.550000*%
%ADD16R,0.550000X1.500000*%
%ADD17C,2.000000*%
%ADD18R,0.450000X1.750000*%
%ADD19R,0.609807X1.755639*%
%ADD20R,2.692400X1.701800*%
%ADD21R,0.600000X0.700000*%
G04 APERTURE END LIST*
D10*
%TO.C,SW2*%
X192500000Y-109300000D03*
D11*
X190000000Y-109300000D03*
D10*
X187500000Y-109300000D03*
X187500000Y-111700000D03*
D11*
X190000000Y-111700000D03*
D10*
X192500000Y-111700000D03*
D12*
X193400000Y-110500000D03*
X186600000Y-110500000D03*
%TD*%
D13*
%TO.C,U3*%
X185945900Y-46095000D03*
X185945900Y-47365000D03*
X185945900Y-48635000D03*
X185945900Y-49905000D03*
%TD*%
D14*
%TO.C,D3.3*%
G36*
X194705424Y-69475634D02*
G01*
X194139739Y-68909949D01*
X194705424Y-68344264D01*
X195271109Y-68909949D01*
X194705424Y-69475634D01*
G37*
G36*
X195870000Y-68329017D02*
G01*
X195304315Y-67763332D01*
X195870000Y-67197647D01*
X196435685Y-67763332D01*
X195870000Y-68329017D01*
G37*
%TD*%
%TO.C,D9.14*%
G36*
X178705424Y-98808960D02*
G01*
X178139739Y-98243275D01*
X178705424Y-97677590D01*
X179271109Y-98243275D01*
X178705424Y-98808960D01*
G37*
G36*
X179870000Y-97662343D02*
G01*
X179304315Y-97096658D01*
X179870000Y-96530973D01*
X180435685Y-97096658D01*
X179870000Y-97662343D01*
G37*
%TD*%
%TO.C,D9.13*%
G36*
X178705424Y-96142294D02*
G01*
X178139739Y-95576609D01*
X178705424Y-95010924D01*
X179271109Y-95576609D01*
X178705424Y-96142294D01*
G37*
G36*
X179870000Y-94995677D02*
G01*
X179304315Y-94429992D01*
X179870000Y-93864307D01*
X180435685Y-94429992D01*
X179870000Y-94995677D01*
G37*
%TD*%
%TO.C,D9.12*%
G36*
X178705424Y-93475628D02*
G01*
X178139739Y-92909943D01*
X178705424Y-92344258D01*
X179271109Y-92909943D01*
X178705424Y-93475628D01*
G37*
G36*
X179870000Y-92329011D02*
G01*
X179304315Y-91763326D01*
X179870000Y-91197641D01*
X180435685Y-91763326D01*
X179870000Y-92329011D01*
G37*
%TD*%
%TO.C,D9.1*%
G36*
X178705424Y-64142302D02*
G01*
X178139739Y-63576617D01*
X178705424Y-63010932D01*
X179271109Y-63576617D01*
X178705424Y-64142302D01*
G37*
G36*
X179870000Y-62995685D02*
G01*
X179304315Y-62430000D01*
X179870000Y-61864315D01*
X180435685Y-62430000D01*
X179870000Y-62995685D01*
G37*
%TD*%
%TO.C,D9.2*%
G36*
X178705424Y-66808968D02*
G01*
X178139739Y-66243283D01*
X178705424Y-65677598D01*
X179271109Y-66243283D01*
X178705424Y-66808968D01*
G37*
G36*
X179870000Y-65662351D02*
G01*
X179304315Y-65096666D01*
X179870000Y-64530981D01*
X180435685Y-65096666D01*
X179870000Y-65662351D01*
G37*
%TD*%
%TO.C,D9.3*%
G36*
X178705424Y-69475634D02*
G01*
X178139739Y-68909949D01*
X178705424Y-68344264D01*
X179271109Y-68909949D01*
X178705424Y-69475634D01*
G37*
G36*
X179870000Y-68329017D02*
G01*
X179304315Y-67763332D01*
X179870000Y-67197647D01*
X180435685Y-67763332D01*
X179870000Y-68329017D01*
G37*
%TD*%
%TO.C,D9.4*%
G36*
X178705424Y-72142300D02*
G01*
X178139739Y-71576615D01*
X178705424Y-71010930D01*
X179271109Y-71576615D01*
X178705424Y-72142300D01*
G37*
G36*
X179870000Y-70995683D02*
G01*
X179304315Y-70429998D01*
X179870000Y-69864313D01*
X180435685Y-70429998D01*
X179870000Y-70995683D01*
G37*
%TD*%
%TO.C,D9.5*%
G36*
X178705424Y-74808966D02*
G01*
X178139739Y-74243281D01*
X178705424Y-73677596D01*
X179271109Y-74243281D01*
X178705424Y-74808966D01*
G37*
G36*
X179870000Y-73662349D02*
G01*
X179304315Y-73096664D01*
X179870000Y-72530979D01*
X180435685Y-73096664D01*
X179870000Y-73662349D01*
G37*
%TD*%
%TO.C,D9.15*%
G36*
X178705424Y-101475626D02*
G01*
X178139739Y-100909941D01*
X178705424Y-100344256D01*
X179271109Y-100909941D01*
X178705424Y-101475626D01*
G37*
G36*
X179870000Y-100329009D02*
G01*
X179304315Y-99763324D01*
X179870000Y-99197639D01*
X180435685Y-99763324D01*
X179870000Y-100329009D01*
G37*
%TD*%
%TO.C,D9.6*%
G36*
X178705424Y-77475632D02*
G01*
X178139739Y-76909947D01*
X178705424Y-76344262D01*
X179271109Y-76909947D01*
X178705424Y-77475632D01*
G37*
G36*
X179870000Y-76329015D02*
G01*
X179304315Y-75763330D01*
X179870000Y-75197645D01*
X180435685Y-75763330D01*
X179870000Y-76329015D01*
G37*
%TD*%
%TO.C,D9.7*%
G36*
X178705424Y-80142298D02*
G01*
X178139739Y-79576613D01*
X178705424Y-79010928D01*
X179271109Y-79576613D01*
X178705424Y-80142298D01*
G37*
G36*
X179870000Y-78995681D02*
G01*
X179304315Y-78429996D01*
X179870000Y-77864311D01*
X180435685Y-78429996D01*
X179870000Y-78995681D01*
G37*
%TD*%
%TO.C,D9.8*%
G36*
X178705424Y-82808964D02*
G01*
X178139739Y-82243279D01*
X178705424Y-81677594D01*
X179271109Y-82243279D01*
X178705424Y-82808964D01*
G37*
G36*
X179870000Y-81662347D02*
G01*
X179304315Y-81096662D01*
X179870000Y-80530977D01*
X180435685Y-81096662D01*
X179870000Y-81662347D01*
G37*
%TD*%
%TO.C,D9.9*%
G36*
X178705424Y-85475630D02*
G01*
X178139739Y-84909945D01*
X178705424Y-84344260D01*
X179271109Y-84909945D01*
X178705424Y-85475630D01*
G37*
G36*
X179870000Y-84329013D02*
G01*
X179304315Y-83763328D01*
X179870000Y-83197643D01*
X180435685Y-83763328D01*
X179870000Y-84329013D01*
G37*
%TD*%
%TO.C,D9.10*%
G36*
X178705424Y-88142296D02*
G01*
X178139739Y-87576611D01*
X178705424Y-87010926D01*
X179271109Y-87576611D01*
X178705424Y-88142296D01*
G37*
G36*
X179870000Y-86995679D02*
G01*
X179304315Y-86429994D01*
X179870000Y-85864309D01*
X180435685Y-86429994D01*
X179870000Y-86995679D01*
G37*
%TD*%
%TO.C,D9.11*%
G36*
X178705424Y-90808962D02*
G01*
X178139739Y-90243277D01*
X178705424Y-89677592D01*
X179271109Y-90243277D01*
X178705424Y-90808962D01*
G37*
G36*
X179870000Y-89662345D02*
G01*
X179304315Y-89096660D01*
X179870000Y-88530975D01*
X180435685Y-89096660D01*
X179870000Y-89662345D01*
G37*
%TD*%
%TO.C,D9.16*%
G36*
X178705424Y-104142292D02*
G01*
X178139739Y-103576607D01*
X178705424Y-103010922D01*
X179271109Y-103576607D01*
X178705424Y-104142292D01*
G37*
G36*
X179870000Y-102995675D02*
G01*
X179304315Y-102429990D01*
X179870000Y-101864305D01*
X180435685Y-102429990D01*
X179870000Y-102995675D01*
G37*
%TD*%
%TO.C,D8.14*%
G36*
X181375424Y-98808960D02*
G01*
X180809739Y-98243275D01*
X181375424Y-97677590D01*
X181941109Y-98243275D01*
X181375424Y-98808960D01*
G37*
G36*
X182540000Y-97662343D02*
G01*
X181974315Y-97096658D01*
X182540000Y-96530973D01*
X183105685Y-97096658D01*
X182540000Y-97662343D01*
G37*
%TD*%
%TO.C,D8.13*%
G36*
X181375424Y-96142294D02*
G01*
X180809739Y-95576609D01*
X181375424Y-95010924D01*
X181941109Y-95576609D01*
X181375424Y-96142294D01*
G37*
G36*
X182540000Y-94995677D02*
G01*
X181974315Y-94429992D01*
X182540000Y-93864307D01*
X183105685Y-94429992D01*
X182540000Y-94995677D01*
G37*
%TD*%
%TO.C,D8.12*%
G36*
X181375424Y-93475628D02*
G01*
X180809739Y-92909943D01*
X181375424Y-92344258D01*
X181941109Y-92909943D01*
X181375424Y-93475628D01*
G37*
G36*
X182540000Y-92329011D02*
G01*
X181974315Y-91763326D01*
X182540000Y-91197641D01*
X183105685Y-91763326D01*
X182540000Y-92329011D01*
G37*
%TD*%
%TO.C,D8.1*%
G36*
X181375424Y-64142302D02*
G01*
X180809739Y-63576617D01*
X181375424Y-63010932D01*
X181941109Y-63576617D01*
X181375424Y-64142302D01*
G37*
G36*
X182540000Y-62995685D02*
G01*
X181974315Y-62430000D01*
X182540000Y-61864315D01*
X183105685Y-62430000D01*
X182540000Y-62995685D01*
G37*
%TD*%
%TO.C,D8.2*%
G36*
X181375424Y-66808968D02*
G01*
X180809739Y-66243283D01*
X181375424Y-65677598D01*
X181941109Y-66243283D01*
X181375424Y-66808968D01*
G37*
G36*
X182540000Y-65662351D02*
G01*
X181974315Y-65096666D01*
X182540000Y-64530981D01*
X183105685Y-65096666D01*
X182540000Y-65662351D01*
G37*
%TD*%
%TO.C,D8.3*%
G36*
X181375424Y-69475634D02*
G01*
X180809739Y-68909949D01*
X181375424Y-68344264D01*
X181941109Y-68909949D01*
X181375424Y-69475634D01*
G37*
G36*
X182540000Y-68329017D02*
G01*
X181974315Y-67763332D01*
X182540000Y-67197647D01*
X183105685Y-67763332D01*
X182540000Y-68329017D01*
G37*
%TD*%
%TO.C,D8.4*%
G36*
X181375424Y-72142300D02*
G01*
X180809739Y-71576615D01*
X181375424Y-71010930D01*
X181941109Y-71576615D01*
X181375424Y-72142300D01*
G37*
G36*
X182540000Y-70995683D02*
G01*
X181974315Y-70429998D01*
X182540000Y-69864313D01*
X183105685Y-70429998D01*
X182540000Y-70995683D01*
G37*
%TD*%
%TO.C,D8.5*%
G36*
X181375424Y-74808966D02*
G01*
X180809739Y-74243281D01*
X181375424Y-73677596D01*
X181941109Y-74243281D01*
X181375424Y-74808966D01*
G37*
G36*
X182540000Y-73662349D02*
G01*
X181974315Y-73096664D01*
X182540000Y-72530979D01*
X183105685Y-73096664D01*
X182540000Y-73662349D01*
G37*
%TD*%
%TO.C,D8.15*%
G36*
X181375424Y-101475626D02*
G01*
X180809739Y-100909941D01*
X181375424Y-100344256D01*
X181941109Y-100909941D01*
X181375424Y-101475626D01*
G37*
G36*
X182540000Y-100329009D02*
G01*
X181974315Y-99763324D01*
X182540000Y-99197639D01*
X183105685Y-99763324D01*
X182540000Y-100329009D01*
G37*
%TD*%
%TO.C,D8.6*%
G36*
X181375424Y-77475632D02*
G01*
X180809739Y-76909947D01*
X181375424Y-76344262D01*
X181941109Y-76909947D01*
X181375424Y-77475632D01*
G37*
G36*
X182540000Y-76329015D02*
G01*
X181974315Y-75763330D01*
X182540000Y-75197645D01*
X183105685Y-75763330D01*
X182540000Y-76329015D01*
G37*
%TD*%
%TO.C,D8.7*%
G36*
X181375424Y-80142298D02*
G01*
X180809739Y-79576613D01*
X181375424Y-79010928D01*
X181941109Y-79576613D01*
X181375424Y-80142298D01*
G37*
G36*
X182540000Y-78995681D02*
G01*
X181974315Y-78429996D01*
X182540000Y-77864311D01*
X183105685Y-78429996D01*
X182540000Y-78995681D01*
G37*
%TD*%
%TO.C,D8.8*%
G36*
X181375424Y-82808964D02*
G01*
X180809739Y-82243279D01*
X181375424Y-81677594D01*
X181941109Y-82243279D01*
X181375424Y-82808964D01*
G37*
G36*
X182540000Y-81662347D02*
G01*
X181974315Y-81096662D01*
X182540000Y-80530977D01*
X183105685Y-81096662D01*
X182540000Y-81662347D01*
G37*
%TD*%
%TO.C,D8.9*%
G36*
X181375424Y-85475630D02*
G01*
X180809739Y-84909945D01*
X181375424Y-84344260D01*
X181941109Y-84909945D01*
X181375424Y-85475630D01*
G37*
G36*
X182540000Y-84329013D02*
G01*
X181974315Y-83763328D01*
X182540000Y-83197643D01*
X183105685Y-83763328D01*
X182540000Y-84329013D01*
G37*
%TD*%
%TO.C,D8.10*%
G36*
X181375424Y-88142296D02*
G01*
X180809739Y-87576611D01*
X181375424Y-87010926D01*
X181941109Y-87576611D01*
X181375424Y-88142296D01*
G37*
G36*
X182540000Y-86995679D02*
G01*
X181974315Y-86429994D01*
X182540000Y-85864309D01*
X183105685Y-86429994D01*
X182540000Y-86995679D01*
G37*
%TD*%
%TO.C,D8.11*%
G36*
X181375424Y-90808962D02*
G01*
X180809739Y-90243277D01*
X181375424Y-89677592D01*
X181941109Y-90243277D01*
X181375424Y-90808962D01*
G37*
G36*
X182540000Y-89662345D02*
G01*
X181974315Y-89096660D01*
X182540000Y-88530975D01*
X183105685Y-89096660D01*
X182540000Y-89662345D01*
G37*
%TD*%
%TO.C,D8.16*%
G36*
X181375424Y-104142292D02*
G01*
X180809739Y-103576607D01*
X181375424Y-103010922D01*
X181941109Y-103576607D01*
X181375424Y-104142292D01*
G37*
G36*
X182540000Y-102995675D02*
G01*
X181974315Y-102429990D01*
X182540000Y-101864305D01*
X183105685Y-102429990D01*
X182540000Y-102995675D01*
G37*
%TD*%
%TO.C,D7.14*%
G36*
X184045424Y-98808960D02*
G01*
X183479739Y-98243275D01*
X184045424Y-97677590D01*
X184611109Y-98243275D01*
X184045424Y-98808960D01*
G37*
G36*
X185210000Y-97662343D02*
G01*
X184644315Y-97096658D01*
X185210000Y-96530973D01*
X185775685Y-97096658D01*
X185210000Y-97662343D01*
G37*
%TD*%
%TO.C,D7.13*%
G36*
X184045424Y-96142294D02*
G01*
X183479739Y-95576609D01*
X184045424Y-95010924D01*
X184611109Y-95576609D01*
X184045424Y-96142294D01*
G37*
G36*
X185210000Y-94995677D02*
G01*
X184644315Y-94429992D01*
X185210000Y-93864307D01*
X185775685Y-94429992D01*
X185210000Y-94995677D01*
G37*
%TD*%
%TO.C,D7.12*%
G36*
X184045424Y-93475628D02*
G01*
X183479739Y-92909943D01*
X184045424Y-92344258D01*
X184611109Y-92909943D01*
X184045424Y-93475628D01*
G37*
G36*
X185210000Y-92329011D02*
G01*
X184644315Y-91763326D01*
X185210000Y-91197641D01*
X185775685Y-91763326D01*
X185210000Y-92329011D01*
G37*
%TD*%
%TO.C,D7.1*%
G36*
X184045424Y-64142302D02*
G01*
X183479739Y-63576617D01*
X184045424Y-63010932D01*
X184611109Y-63576617D01*
X184045424Y-64142302D01*
G37*
G36*
X185210000Y-62995685D02*
G01*
X184644315Y-62430000D01*
X185210000Y-61864315D01*
X185775685Y-62430000D01*
X185210000Y-62995685D01*
G37*
%TD*%
%TO.C,D7.2*%
G36*
X184045424Y-66808968D02*
G01*
X183479739Y-66243283D01*
X184045424Y-65677598D01*
X184611109Y-66243283D01*
X184045424Y-66808968D01*
G37*
G36*
X185210000Y-65662351D02*
G01*
X184644315Y-65096666D01*
X185210000Y-64530981D01*
X185775685Y-65096666D01*
X185210000Y-65662351D01*
G37*
%TD*%
%TO.C,D7.3*%
G36*
X184045424Y-69475634D02*
G01*
X183479739Y-68909949D01*
X184045424Y-68344264D01*
X184611109Y-68909949D01*
X184045424Y-69475634D01*
G37*
G36*
X185210000Y-68329017D02*
G01*
X184644315Y-67763332D01*
X185210000Y-67197647D01*
X185775685Y-67763332D01*
X185210000Y-68329017D01*
G37*
%TD*%
%TO.C,D7.4*%
G36*
X184045424Y-72142300D02*
G01*
X183479739Y-71576615D01*
X184045424Y-71010930D01*
X184611109Y-71576615D01*
X184045424Y-72142300D01*
G37*
G36*
X185210000Y-70995683D02*
G01*
X184644315Y-70429998D01*
X185210000Y-69864313D01*
X185775685Y-70429998D01*
X185210000Y-70995683D01*
G37*
%TD*%
%TO.C,D7.5*%
G36*
X184045424Y-74808966D02*
G01*
X183479739Y-74243281D01*
X184045424Y-73677596D01*
X184611109Y-74243281D01*
X184045424Y-74808966D01*
G37*
G36*
X185210000Y-73662349D02*
G01*
X184644315Y-73096664D01*
X185210000Y-72530979D01*
X185775685Y-73096664D01*
X185210000Y-73662349D01*
G37*
%TD*%
%TO.C,D7.15*%
G36*
X184045424Y-101475626D02*
G01*
X183479739Y-100909941D01*
X184045424Y-100344256D01*
X184611109Y-100909941D01*
X184045424Y-101475626D01*
G37*
G36*
X185210000Y-100329009D02*
G01*
X184644315Y-99763324D01*
X185210000Y-99197639D01*
X185775685Y-99763324D01*
X185210000Y-100329009D01*
G37*
%TD*%
%TO.C,D7.6*%
G36*
X184045424Y-77475632D02*
G01*
X183479739Y-76909947D01*
X184045424Y-76344262D01*
X184611109Y-76909947D01*
X184045424Y-77475632D01*
G37*
G36*
X185210000Y-76329015D02*
G01*
X184644315Y-75763330D01*
X185210000Y-75197645D01*
X185775685Y-75763330D01*
X185210000Y-76329015D01*
G37*
%TD*%
%TO.C,D7.7*%
G36*
X184045424Y-80142298D02*
G01*
X183479739Y-79576613D01*
X184045424Y-79010928D01*
X184611109Y-79576613D01*
X184045424Y-80142298D01*
G37*
G36*
X185210000Y-78995681D02*
G01*
X184644315Y-78429996D01*
X185210000Y-77864311D01*
X185775685Y-78429996D01*
X185210000Y-78995681D01*
G37*
%TD*%
%TO.C,D7.8*%
G36*
X184045424Y-82808964D02*
G01*
X183479739Y-82243279D01*
X184045424Y-81677594D01*
X184611109Y-82243279D01*
X184045424Y-82808964D01*
G37*
G36*
X185210000Y-81662347D02*
G01*
X184644315Y-81096662D01*
X185210000Y-80530977D01*
X185775685Y-81096662D01*
X185210000Y-81662347D01*
G37*
%TD*%
%TO.C,D7.9*%
G36*
X184045424Y-85475630D02*
G01*
X183479739Y-84909945D01*
X184045424Y-84344260D01*
X184611109Y-84909945D01*
X184045424Y-85475630D01*
G37*
G36*
X185210000Y-84329013D02*
G01*
X184644315Y-83763328D01*
X185210000Y-83197643D01*
X185775685Y-83763328D01*
X185210000Y-84329013D01*
G37*
%TD*%
%TO.C,D7.10*%
G36*
X184045424Y-88142296D02*
G01*
X183479739Y-87576611D01*
X184045424Y-87010926D01*
X184611109Y-87576611D01*
X184045424Y-88142296D01*
G37*
G36*
X185210000Y-86995679D02*
G01*
X184644315Y-86429994D01*
X185210000Y-85864309D01*
X185775685Y-86429994D01*
X185210000Y-86995679D01*
G37*
%TD*%
%TO.C,D7.11*%
G36*
X184045424Y-90808962D02*
G01*
X183479739Y-90243277D01*
X184045424Y-89677592D01*
X184611109Y-90243277D01*
X184045424Y-90808962D01*
G37*
G36*
X185210000Y-89662345D02*
G01*
X184644315Y-89096660D01*
X185210000Y-88530975D01*
X185775685Y-89096660D01*
X185210000Y-89662345D01*
G37*
%TD*%
%TO.C,D7.16*%
G36*
X184045424Y-104142292D02*
G01*
X183479739Y-103576607D01*
X184045424Y-103010922D01*
X184611109Y-103576607D01*
X184045424Y-104142292D01*
G37*
G36*
X185210000Y-102995675D02*
G01*
X184644315Y-102429990D01*
X185210000Y-101864305D01*
X185775685Y-102429990D01*
X185210000Y-102995675D01*
G37*
%TD*%
%TO.C,D6.14*%
G36*
X186705424Y-98808960D02*
G01*
X186139739Y-98243275D01*
X186705424Y-97677590D01*
X187271109Y-98243275D01*
X186705424Y-98808960D01*
G37*
G36*
X187870000Y-97662343D02*
G01*
X187304315Y-97096658D01*
X187870000Y-96530973D01*
X188435685Y-97096658D01*
X187870000Y-97662343D01*
G37*
%TD*%
%TO.C,D6.13*%
G36*
X186705424Y-96142294D02*
G01*
X186139739Y-95576609D01*
X186705424Y-95010924D01*
X187271109Y-95576609D01*
X186705424Y-96142294D01*
G37*
G36*
X187870000Y-94995677D02*
G01*
X187304315Y-94429992D01*
X187870000Y-93864307D01*
X188435685Y-94429992D01*
X187870000Y-94995677D01*
G37*
%TD*%
%TO.C,D6.12*%
G36*
X186705424Y-93475628D02*
G01*
X186139739Y-92909943D01*
X186705424Y-92344258D01*
X187271109Y-92909943D01*
X186705424Y-93475628D01*
G37*
G36*
X187870000Y-92329011D02*
G01*
X187304315Y-91763326D01*
X187870000Y-91197641D01*
X188435685Y-91763326D01*
X187870000Y-92329011D01*
G37*
%TD*%
%TO.C,D6.1*%
G36*
X186705424Y-64142302D02*
G01*
X186139739Y-63576617D01*
X186705424Y-63010932D01*
X187271109Y-63576617D01*
X186705424Y-64142302D01*
G37*
G36*
X187870000Y-62995685D02*
G01*
X187304315Y-62430000D01*
X187870000Y-61864315D01*
X188435685Y-62430000D01*
X187870000Y-62995685D01*
G37*
%TD*%
%TO.C,D6.2*%
G36*
X186705424Y-66808968D02*
G01*
X186139739Y-66243283D01*
X186705424Y-65677598D01*
X187271109Y-66243283D01*
X186705424Y-66808968D01*
G37*
G36*
X187870000Y-65662351D02*
G01*
X187304315Y-65096666D01*
X187870000Y-64530981D01*
X188435685Y-65096666D01*
X187870000Y-65662351D01*
G37*
%TD*%
%TO.C,D6.3*%
G36*
X186705424Y-69475634D02*
G01*
X186139739Y-68909949D01*
X186705424Y-68344264D01*
X187271109Y-68909949D01*
X186705424Y-69475634D01*
G37*
G36*
X187870000Y-68329017D02*
G01*
X187304315Y-67763332D01*
X187870000Y-67197647D01*
X188435685Y-67763332D01*
X187870000Y-68329017D01*
G37*
%TD*%
%TO.C,D6.4*%
G36*
X186705424Y-72142300D02*
G01*
X186139739Y-71576615D01*
X186705424Y-71010930D01*
X187271109Y-71576615D01*
X186705424Y-72142300D01*
G37*
G36*
X187870000Y-70995683D02*
G01*
X187304315Y-70429998D01*
X187870000Y-69864313D01*
X188435685Y-70429998D01*
X187870000Y-70995683D01*
G37*
%TD*%
%TO.C,D6.5*%
G36*
X186705424Y-74808966D02*
G01*
X186139739Y-74243281D01*
X186705424Y-73677596D01*
X187271109Y-74243281D01*
X186705424Y-74808966D01*
G37*
G36*
X187870000Y-73662349D02*
G01*
X187304315Y-73096664D01*
X187870000Y-72530979D01*
X188435685Y-73096664D01*
X187870000Y-73662349D01*
G37*
%TD*%
%TO.C,D6.15*%
G36*
X186705424Y-101475626D02*
G01*
X186139739Y-100909941D01*
X186705424Y-100344256D01*
X187271109Y-100909941D01*
X186705424Y-101475626D01*
G37*
G36*
X187870000Y-100329009D02*
G01*
X187304315Y-99763324D01*
X187870000Y-99197639D01*
X188435685Y-99763324D01*
X187870000Y-100329009D01*
G37*
%TD*%
%TO.C,D6.6*%
G36*
X186705424Y-77475632D02*
G01*
X186139739Y-76909947D01*
X186705424Y-76344262D01*
X187271109Y-76909947D01*
X186705424Y-77475632D01*
G37*
G36*
X187870000Y-76329015D02*
G01*
X187304315Y-75763330D01*
X187870000Y-75197645D01*
X188435685Y-75763330D01*
X187870000Y-76329015D01*
G37*
%TD*%
%TO.C,D6.7*%
G36*
X186705424Y-80142298D02*
G01*
X186139739Y-79576613D01*
X186705424Y-79010928D01*
X187271109Y-79576613D01*
X186705424Y-80142298D01*
G37*
G36*
X187870000Y-78995681D02*
G01*
X187304315Y-78429996D01*
X187870000Y-77864311D01*
X188435685Y-78429996D01*
X187870000Y-78995681D01*
G37*
%TD*%
%TO.C,D6.8*%
G36*
X186705424Y-82808964D02*
G01*
X186139739Y-82243279D01*
X186705424Y-81677594D01*
X187271109Y-82243279D01*
X186705424Y-82808964D01*
G37*
G36*
X187870000Y-81662347D02*
G01*
X187304315Y-81096662D01*
X187870000Y-80530977D01*
X188435685Y-81096662D01*
X187870000Y-81662347D01*
G37*
%TD*%
%TO.C,D6.9*%
G36*
X186705424Y-85475630D02*
G01*
X186139739Y-84909945D01*
X186705424Y-84344260D01*
X187271109Y-84909945D01*
X186705424Y-85475630D01*
G37*
G36*
X187870000Y-84329013D02*
G01*
X187304315Y-83763328D01*
X187870000Y-83197643D01*
X188435685Y-83763328D01*
X187870000Y-84329013D01*
G37*
%TD*%
%TO.C,D6.10*%
G36*
X186705424Y-88142296D02*
G01*
X186139739Y-87576611D01*
X186705424Y-87010926D01*
X187271109Y-87576611D01*
X186705424Y-88142296D01*
G37*
G36*
X187870000Y-86995679D02*
G01*
X187304315Y-86429994D01*
X187870000Y-85864309D01*
X188435685Y-86429994D01*
X187870000Y-86995679D01*
G37*
%TD*%
%TO.C,D6.11*%
G36*
X186705424Y-90808962D02*
G01*
X186139739Y-90243277D01*
X186705424Y-89677592D01*
X187271109Y-90243277D01*
X186705424Y-90808962D01*
G37*
G36*
X187870000Y-89662345D02*
G01*
X187304315Y-89096660D01*
X187870000Y-88530975D01*
X188435685Y-89096660D01*
X187870000Y-89662345D01*
G37*
%TD*%
%TO.C,D6.16*%
G36*
X186705424Y-104142292D02*
G01*
X186139739Y-103576607D01*
X186705424Y-103010922D01*
X187271109Y-103576607D01*
X186705424Y-104142292D01*
G37*
G36*
X187870000Y-102995675D02*
G01*
X187304315Y-102429990D01*
X187870000Y-101864305D01*
X188435685Y-102429990D01*
X187870000Y-102995675D01*
G37*
%TD*%
%TO.C,D5.14*%
G36*
X189375424Y-98808960D02*
G01*
X188809739Y-98243275D01*
X189375424Y-97677590D01*
X189941109Y-98243275D01*
X189375424Y-98808960D01*
G37*
G36*
X190540000Y-97662343D02*
G01*
X189974315Y-97096658D01*
X190540000Y-96530973D01*
X191105685Y-97096658D01*
X190540000Y-97662343D01*
G37*
%TD*%
%TO.C,D5.13*%
G36*
X189375424Y-96142294D02*
G01*
X188809739Y-95576609D01*
X189375424Y-95010924D01*
X189941109Y-95576609D01*
X189375424Y-96142294D01*
G37*
G36*
X190540000Y-94995677D02*
G01*
X189974315Y-94429992D01*
X190540000Y-93864307D01*
X191105685Y-94429992D01*
X190540000Y-94995677D01*
G37*
%TD*%
%TO.C,D5.12*%
G36*
X189375424Y-93475628D02*
G01*
X188809739Y-92909943D01*
X189375424Y-92344258D01*
X189941109Y-92909943D01*
X189375424Y-93475628D01*
G37*
G36*
X190540000Y-92329011D02*
G01*
X189974315Y-91763326D01*
X190540000Y-91197641D01*
X191105685Y-91763326D01*
X190540000Y-92329011D01*
G37*
%TD*%
%TO.C,D5.1*%
G36*
X189375424Y-64142302D02*
G01*
X188809739Y-63576617D01*
X189375424Y-63010932D01*
X189941109Y-63576617D01*
X189375424Y-64142302D01*
G37*
G36*
X190540000Y-62995685D02*
G01*
X189974315Y-62430000D01*
X190540000Y-61864315D01*
X191105685Y-62430000D01*
X190540000Y-62995685D01*
G37*
%TD*%
%TO.C,D5.2*%
G36*
X189375424Y-66808968D02*
G01*
X188809739Y-66243283D01*
X189375424Y-65677598D01*
X189941109Y-66243283D01*
X189375424Y-66808968D01*
G37*
G36*
X190540000Y-65662351D02*
G01*
X189974315Y-65096666D01*
X190540000Y-64530981D01*
X191105685Y-65096666D01*
X190540000Y-65662351D01*
G37*
%TD*%
%TO.C,D5.3*%
G36*
X189375424Y-69475634D02*
G01*
X188809739Y-68909949D01*
X189375424Y-68344264D01*
X189941109Y-68909949D01*
X189375424Y-69475634D01*
G37*
G36*
X190540000Y-68329017D02*
G01*
X189974315Y-67763332D01*
X190540000Y-67197647D01*
X191105685Y-67763332D01*
X190540000Y-68329017D01*
G37*
%TD*%
%TO.C,D5.4*%
G36*
X189375424Y-72142300D02*
G01*
X188809739Y-71576615D01*
X189375424Y-71010930D01*
X189941109Y-71576615D01*
X189375424Y-72142300D01*
G37*
G36*
X190540000Y-70995683D02*
G01*
X189974315Y-70429998D01*
X190540000Y-69864313D01*
X191105685Y-70429998D01*
X190540000Y-70995683D01*
G37*
%TD*%
%TO.C,D5.5*%
G36*
X189375424Y-74808966D02*
G01*
X188809739Y-74243281D01*
X189375424Y-73677596D01*
X189941109Y-74243281D01*
X189375424Y-74808966D01*
G37*
G36*
X190540000Y-73662349D02*
G01*
X189974315Y-73096664D01*
X190540000Y-72530979D01*
X191105685Y-73096664D01*
X190540000Y-73662349D01*
G37*
%TD*%
%TO.C,D5.15*%
G36*
X189375424Y-101475626D02*
G01*
X188809739Y-100909941D01*
X189375424Y-100344256D01*
X189941109Y-100909941D01*
X189375424Y-101475626D01*
G37*
G36*
X190540000Y-100329009D02*
G01*
X189974315Y-99763324D01*
X190540000Y-99197639D01*
X191105685Y-99763324D01*
X190540000Y-100329009D01*
G37*
%TD*%
%TO.C,D5.6*%
G36*
X189375424Y-77475632D02*
G01*
X188809739Y-76909947D01*
X189375424Y-76344262D01*
X189941109Y-76909947D01*
X189375424Y-77475632D01*
G37*
G36*
X190540000Y-76329015D02*
G01*
X189974315Y-75763330D01*
X190540000Y-75197645D01*
X191105685Y-75763330D01*
X190540000Y-76329015D01*
G37*
%TD*%
%TO.C,D5.7*%
G36*
X189375424Y-80142298D02*
G01*
X188809739Y-79576613D01*
X189375424Y-79010928D01*
X189941109Y-79576613D01*
X189375424Y-80142298D01*
G37*
G36*
X190540000Y-78995681D02*
G01*
X189974315Y-78429996D01*
X190540000Y-77864311D01*
X191105685Y-78429996D01*
X190540000Y-78995681D01*
G37*
%TD*%
%TO.C,D5.8*%
G36*
X189375424Y-82808964D02*
G01*
X188809739Y-82243279D01*
X189375424Y-81677594D01*
X189941109Y-82243279D01*
X189375424Y-82808964D01*
G37*
G36*
X190540000Y-81662347D02*
G01*
X189974315Y-81096662D01*
X190540000Y-80530977D01*
X191105685Y-81096662D01*
X190540000Y-81662347D01*
G37*
%TD*%
%TO.C,D5.9*%
G36*
X189375424Y-85475630D02*
G01*
X188809739Y-84909945D01*
X189375424Y-84344260D01*
X189941109Y-84909945D01*
X189375424Y-85475630D01*
G37*
G36*
X190540000Y-84329013D02*
G01*
X189974315Y-83763328D01*
X190540000Y-83197643D01*
X191105685Y-83763328D01*
X190540000Y-84329013D01*
G37*
%TD*%
%TO.C,D5.10*%
G36*
X189375424Y-88142296D02*
G01*
X188809739Y-87576611D01*
X189375424Y-87010926D01*
X189941109Y-87576611D01*
X189375424Y-88142296D01*
G37*
G36*
X190540000Y-86995679D02*
G01*
X189974315Y-86429994D01*
X190540000Y-85864309D01*
X191105685Y-86429994D01*
X190540000Y-86995679D01*
G37*
%TD*%
%TO.C,D5.11*%
G36*
X189375424Y-90808962D02*
G01*
X188809739Y-90243277D01*
X189375424Y-89677592D01*
X189941109Y-90243277D01*
X189375424Y-90808962D01*
G37*
G36*
X190540000Y-89662345D02*
G01*
X189974315Y-89096660D01*
X190540000Y-88530975D01*
X191105685Y-89096660D01*
X190540000Y-89662345D01*
G37*
%TD*%
%TO.C,D5.16*%
G36*
X189375424Y-104142292D02*
G01*
X188809739Y-103576607D01*
X189375424Y-103010922D01*
X189941109Y-103576607D01*
X189375424Y-104142292D01*
G37*
G36*
X190540000Y-102995675D02*
G01*
X189974315Y-102429990D01*
X190540000Y-101864305D01*
X191105685Y-102429990D01*
X190540000Y-102995675D01*
G37*
%TD*%
%TO.C,D4.14*%
G36*
X192045424Y-98808960D02*
G01*
X191479739Y-98243275D01*
X192045424Y-97677590D01*
X192611109Y-98243275D01*
X192045424Y-98808960D01*
G37*
G36*
X193210000Y-97662343D02*
G01*
X192644315Y-97096658D01*
X193210000Y-96530973D01*
X193775685Y-97096658D01*
X193210000Y-97662343D01*
G37*
%TD*%
%TO.C,D4.13*%
G36*
X192045424Y-96142294D02*
G01*
X191479739Y-95576609D01*
X192045424Y-95010924D01*
X192611109Y-95576609D01*
X192045424Y-96142294D01*
G37*
G36*
X193210000Y-94995677D02*
G01*
X192644315Y-94429992D01*
X193210000Y-93864307D01*
X193775685Y-94429992D01*
X193210000Y-94995677D01*
G37*
%TD*%
%TO.C,D4.12*%
G36*
X192045424Y-93475628D02*
G01*
X191479739Y-92909943D01*
X192045424Y-92344258D01*
X192611109Y-92909943D01*
X192045424Y-93475628D01*
G37*
G36*
X193210000Y-92329011D02*
G01*
X192644315Y-91763326D01*
X193210000Y-91197641D01*
X193775685Y-91763326D01*
X193210000Y-92329011D01*
G37*
%TD*%
%TO.C,D4.1*%
G36*
X192045424Y-64142302D02*
G01*
X191479739Y-63576617D01*
X192045424Y-63010932D01*
X192611109Y-63576617D01*
X192045424Y-64142302D01*
G37*
G36*
X193210000Y-62995685D02*
G01*
X192644315Y-62430000D01*
X193210000Y-61864315D01*
X193775685Y-62430000D01*
X193210000Y-62995685D01*
G37*
%TD*%
%TO.C,D4.2*%
G36*
X192045424Y-66808968D02*
G01*
X191479739Y-66243283D01*
X192045424Y-65677598D01*
X192611109Y-66243283D01*
X192045424Y-66808968D01*
G37*
G36*
X193210000Y-65662351D02*
G01*
X192644315Y-65096666D01*
X193210000Y-64530981D01*
X193775685Y-65096666D01*
X193210000Y-65662351D01*
G37*
%TD*%
%TO.C,D4.3*%
G36*
X192045424Y-69475634D02*
G01*
X191479739Y-68909949D01*
X192045424Y-68344264D01*
X192611109Y-68909949D01*
X192045424Y-69475634D01*
G37*
G36*
X193210000Y-68329017D02*
G01*
X192644315Y-67763332D01*
X193210000Y-67197647D01*
X193775685Y-67763332D01*
X193210000Y-68329017D01*
G37*
%TD*%
%TO.C,D4.4*%
G36*
X192045424Y-72142300D02*
G01*
X191479739Y-71576615D01*
X192045424Y-71010930D01*
X192611109Y-71576615D01*
X192045424Y-72142300D01*
G37*
G36*
X193210000Y-70995683D02*
G01*
X192644315Y-70429998D01*
X193210000Y-69864313D01*
X193775685Y-70429998D01*
X193210000Y-70995683D01*
G37*
%TD*%
%TO.C,D4.5*%
G36*
X192045424Y-74808966D02*
G01*
X191479739Y-74243281D01*
X192045424Y-73677596D01*
X192611109Y-74243281D01*
X192045424Y-74808966D01*
G37*
G36*
X193210000Y-73662349D02*
G01*
X192644315Y-73096664D01*
X193210000Y-72530979D01*
X193775685Y-73096664D01*
X193210000Y-73662349D01*
G37*
%TD*%
%TO.C,D4.15*%
G36*
X192045424Y-101475626D02*
G01*
X191479739Y-100909941D01*
X192045424Y-100344256D01*
X192611109Y-100909941D01*
X192045424Y-101475626D01*
G37*
G36*
X193210000Y-100329009D02*
G01*
X192644315Y-99763324D01*
X193210000Y-99197639D01*
X193775685Y-99763324D01*
X193210000Y-100329009D01*
G37*
%TD*%
%TO.C,D4.6*%
G36*
X192045424Y-77475632D02*
G01*
X191479739Y-76909947D01*
X192045424Y-76344262D01*
X192611109Y-76909947D01*
X192045424Y-77475632D01*
G37*
G36*
X193210000Y-76329015D02*
G01*
X192644315Y-75763330D01*
X193210000Y-75197645D01*
X193775685Y-75763330D01*
X193210000Y-76329015D01*
G37*
%TD*%
%TO.C,D4.7*%
G36*
X192045424Y-80142298D02*
G01*
X191479739Y-79576613D01*
X192045424Y-79010928D01*
X192611109Y-79576613D01*
X192045424Y-80142298D01*
G37*
G36*
X193210000Y-78995681D02*
G01*
X192644315Y-78429996D01*
X193210000Y-77864311D01*
X193775685Y-78429996D01*
X193210000Y-78995681D01*
G37*
%TD*%
%TO.C,D4.8*%
G36*
X192045424Y-82808964D02*
G01*
X191479739Y-82243279D01*
X192045424Y-81677594D01*
X192611109Y-82243279D01*
X192045424Y-82808964D01*
G37*
G36*
X193210000Y-81662347D02*
G01*
X192644315Y-81096662D01*
X193210000Y-80530977D01*
X193775685Y-81096662D01*
X193210000Y-81662347D01*
G37*
%TD*%
%TO.C,D4.9*%
G36*
X192045424Y-85475630D02*
G01*
X191479739Y-84909945D01*
X192045424Y-84344260D01*
X192611109Y-84909945D01*
X192045424Y-85475630D01*
G37*
G36*
X193210000Y-84329013D02*
G01*
X192644315Y-83763328D01*
X193210000Y-83197643D01*
X193775685Y-83763328D01*
X193210000Y-84329013D01*
G37*
%TD*%
%TO.C,D4.10*%
G36*
X192045424Y-88142296D02*
G01*
X191479739Y-87576611D01*
X192045424Y-87010926D01*
X192611109Y-87576611D01*
X192045424Y-88142296D01*
G37*
G36*
X193210000Y-86995679D02*
G01*
X192644315Y-86429994D01*
X193210000Y-85864309D01*
X193775685Y-86429994D01*
X193210000Y-86995679D01*
G37*
%TD*%
%TO.C,D4.11*%
G36*
X192045424Y-90808962D02*
G01*
X191479739Y-90243277D01*
X192045424Y-89677592D01*
X192611109Y-90243277D01*
X192045424Y-90808962D01*
G37*
G36*
X193210000Y-89662345D02*
G01*
X192644315Y-89096660D01*
X193210000Y-88530975D01*
X193775685Y-89096660D01*
X193210000Y-89662345D01*
G37*
%TD*%
%TO.C,D4.16*%
G36*
X192045424Y-104142292D02*
G01*
X191479739Y-103576607D01*
X192045424Y-103010922D01*
X192611109Y-103576607D01*
X192045424Y-104142292D01*
G37*
G36*
X193210000Y-102995675D02*
G01*
X192644315Y-102429990D01*
X193210000Y-101864305D01*
X193775685Y-102429990D01*
X193210000Y-102995675D01*
G37*
%TD*%
%TO.C,D3.14*%
G36*
X194705424Y-98808960D02*
G01*
X194139739Y-98243275D01*
X194705424Y-97677590D01*
X195271109Y-98243275D01*
X194705424Y-98808960D01*
G37*
G36*
X195870000Y-97662343D02*
G01*
X195304315Y-97096658D01*
X195870000Y-96530973D01*
X196435685Y-97096658D01*
X195870000Y-97662343D01*
G37*
%TD*%
%TO.C,D3.13*%
G36*
X194705424Y-96142294D02*
G01*
X194139739Y-95576609D01*
X194705424Y-95010924D01*
X195271109Y-95576609D01*
X194705424Y-96142294D01*
G37*
G36*
X195870000Y-94995677D02*
G01*
X195304315Y-94429992D01*
X195870000Y-93864307D01*
X196435685Y-94429992D01*
X195870000Y-94995677D01*
G37*
%TD*%
%TO.C,D3.12*%
G36*
X194705424Y-93475628D02*
G01*
X194139739Y-92909943D01*
X194705424Y-92344258D01*
X195271109Y-92909943D01*
X194705424Y-93475628D01*
G37*
G36*
X195870000Y-92329011D02*
G01*
X195304315Y-91763326D01*
X195870000Y-91197641D01*
X196435685Y-91763326D01*
X195870000Y-92329011D01*
G37*
%TD*%
%TO.C,D3.1*%
G36*
X194705424Y-64142302D02*
G01*
X194139739Y-63576617D01*
X194705424Y-63010932D01*
X195271109Y-63576617D01*
X194705424Y-64142302D01*
G37*
G36*
X195870000Y-62995685D02*
G01*
X195304315Y-62430000D01*
X195870000Y-61864315D01*
X196435685Y-62430000D01*
X195870000Y-62995685D01*
G37*
%TD*%
%TO.C,D3.2*%
G36*
X194705424Y-66808968D02*
G01*
X194139739Y-66243283D01*
X194705424Y-65677598D01*
X195271109Y-66243283D01*
X194705424Y-66808968D01*
G37*
G36*
X195870000Y-65662351D02*
G01*
X195304315Y-65096666D01*
X195870000Y-64530981D01*
X196435685Y-65096666D01*
X195870000Y-65662351D01*
G37*
%TD*%
%TO.C,D3.4*%
G36*
X194705424Y-72142300D02*
G01*
X194139739Y-71576615D01*
X194705424Y-71010930D01*
X195271109Y-71576615D01*
X194705424Y-72142300D01*
G37*
G36*
X195870000Y-70995683D02*
G01*
X195304315Y-70429998D01*
X195870000Y-69864313D01*
X196435685Y-70429998D01*
X195870000Y-70995683D01*
G37*
%TD*%
%TO.C,D3.5*%
G36*
X194705424Y-74808966D02*
G01*
X194139739Y-74243281D01*
X194705424Y-73677596D01*
X195271109Y-74243281D01*
X194705424Y-74808966D01*
G37*
G36*
X195870000Y-73662349D02*
G01*
X195304315Y-73096664D01*
X195870000Y-72530979D01*
X196435685Y-73096664D01*
X195870000Y-73662349D01*
G37*
%TD*%
%TO.C,D3.15*%
G36*
X194705424Y-101475626D02*
G01*
X194139739Y-100909941D01*
X194705424Y-100344256D01*
X195271109Y-100909941D01*
X194705424Y-101475626D01*
G37*
G36*
X195870000Y-100329009D02*
G01*
X195304315Y-99763324D01*
X195870000Y-99197639D01*
X196435685Y-99763324D01*
X195870000Y-100329009D01*
G37*
%TD*%
%TO.C,D3.6*%
G36*
X194705424Y-77475632D02*
G01*
X194139739Y-76909947D01*
X194705424Y-76344262D01*
X195271109Y-76909947D01*
X194705424Y-77475632D01*
G37*
G36*
X195870000Y-76329015D02*
G01*
X195304315Y-75763330D01*
X195870000Y-75197645D01*
X196435685Y-75763330D01*
X195870000Y-76329015D01*
G37*
%TD*%
%TO.C,D3.7*%
G36*
X194705424Y-80142298D02*
G01*
X194139739Y-79576613D01*
X194705424Y-79010928D01*
X195271109Y-79576613D01*
X194705424Y-80142298D01*
G37*
G36*
X195870000Y-78995681D02*
G01*
X195304315Y-78429996D01*
X195870000Y-77864311D01*
X196435685Y-78429996D01*
X195870000Y-78995681D01*
G37*
%TD*%
%TO.C,D3.8*%
G36*
X194705424Y-82808964D02*
G01*
X194139739Y-82243279D01*
X194705424Y-81677594D01*
X195271109Y-82243279D01*
X194705424Y-82808964D01*
G37*
G36*
X195870000Y-81662347D02*
G01*
X195304315Y-81096662D01*
X195870000Y-80530977D01*
X196435685Y-81096662D01*
X195870000Y-81662347D01*
G37*
%TD*%
%TO.C,D3.9*%
G36*
X194705424Y-85475630D02*
G01*
X194139739Y-84909945D01*
X194705424Y-84344260D01*
X195271109Y-84909945D01*
X194705424Y-85475630D01*
G37*
G36*
X195870000Y-84329013D02*
G01*
X195304315Y-83763328D01*
X195870000Y-83197643D01*
X196435685Y-83763328D01*
X195870000Y-84329013D01*
G37*
%TD*%
%TO.C,D3.10*%
G36*
X194705424Y-88142296D02*
G01*
X194139739Y-87576611D01*
X194705424Y-87010926D01*
X195271109Y-87576611D01*
X194705424Y-88142296D01*
G37*
G36*
X195870000Y-86995679D02*
G01*
X195304315Y-86429994D01*
X195870000Y-85864309D01*
X196435685Y-86429994D01*
X195870000Y-86995679D01*
G37*
%TD*%
%TO.C,D3.11*%
G36*
X194705424Y-90808962D02*
G01*
X194139739Y-90243277D01*
X194705424Y-89677592D01*
X195271109Y-90243277D01*
X194705424Y-90808962D01*
G37*
G36*
X195870000Y-89662345D02*
G01*
X195304315Y-89096660D01*
X195870000Y-88530975D01*
X196435685Y-89096660D01*
X195870000Y-89662345D01*
G37*
%TD*%
%TO.C,D3.16*%
G36*
X194705424Y-104142292D02*
G01*
X194139739Y-103576607D01*
X194705424Y-103010922D01*
X195271109Y-103576607D01*
X194705424Y-104142292D01*
G37*
G36*
X195870000Y-102995675D02*
G01*
X195304315Y-102429990D01*
X195870000Y-101864305D01*
X196435685Y-102429990D01*
X195870000Y-102995675D01*
G37*
%TD*%
%TO.C,D2.16*%
G36*
X197375424Y-104142292D02*
G01*
X196809739Y-103576607D01*
X197375424Y-103010922D01*
X197941109Y-103576607D01*
X197375424Y-104142292D01*
G37*
G36*
X198540000Y-102995675D02*
G01*
X197974315Y-102429990D01*
X198540000Y-101864305D01*
X199105685Y-102429990D01*
X198540000Y-102995675D01*
G37*
%TD*%
%TO.C,D2.9*%
G36*
X197375424Y-85475630D02*
G01*
X196809739Y-84909945D01*
X197375424Y-84344260D01*
X197941109Y-84909945D01*
X197375424Y-85475630D01*
G37*
G36*
X198540000Y-84329013D02*
G01*
X197974315Y-83763328D01*
X198540000Y-83197643D01*
X199105685Y-83763328D01*
X198540000Y-84329013D01*
G37*
%TD*%
%TO.C,D2.8*%
G36*
X197375424Y-82808964D02*
G01*
X196809739Y-82243279D01*
X197375424Y-81677594D01*
X197941109Y-82243279D01*
X197375424Y-82808964D01*
G37*
G36*
X198540000Y-81662347D02*
G01*
X197974315Y-81096662D01*
X198540000Y-80530977D01*
X199105685Y-81096662D01*
X198540000Y-81662347D01*
G37*
%TD*%
%TO.C,D2.7*%
G36*
X197375424Y-80142298D02*
G01*
X196809739Y-79576613D01*
X197375424Y-79010928D01*
X197941109Y-79576613D01*
X197375424Y-80142298D01*
G37*
G36*
X198540000Y-78995681D02*
G01*
X197974315Y-78429996D01*
X198540000Y-77864311D01*
X199105685Y-78429996D01*
X198540000Y-78995681D01*
G37*
%TD*%
%TO.C,D2.6*%
G36*
X197375424Y-77475632D02*
G01*
X196809739Y-76909947D01*
X197375424Y-76344262D01*
X197941109Y-76909947D01*
X197375424Y-77475632D01*
G37*
G36*
X198540000Y-76329015D02*
G01*
X197974315Y-75763330D01*
X198540000Y-75197645D01*
X199105685Y-75763330D01*
X198540000Y-76329015D01*
G37*
%TD*%
%TO.C,D2.5*%
G36*
X197375424Y-74808966D02*
G01*
X196809739Y-74243281D01*
X197375424Y-73677596D01*
X197941109Y-74243281D01*
X197375424Y-74808966D01*
G37*
G36*
X198540000Y-73662349D02*
G01*
X197974315Y-73096664D01*
X198540000Y-72530979D01*
X199105685Y-73096664D01*
X198540000Y-73662349D01*
G37*
%TD*%
%TO.C,D2.4*%
G36*
X197375424Y-72142300D02*
G01*
X196809739Y-71576615D01*
X197375424Y-71010930D01*
X197941109Y-71576615D01*
X197375424Y-72142300D01*
G37*
G36*
X198540000Y-70995683D02*
G01*
X197974315Y-70429998D01*
X198540000Y-69864313D01*
X199105685Y-70429998D01*
X198540000Y-70995683D01*
G37*
%TD*%
%TO.C,D2.12*%
G36*
X197375424Y-93475628D02*
G01*
X196809739Y-92909943D01*
X197375424Y-92344258D01*
X197941109Y-92909943D01*
X197375424Y-93475628D01*
G37*
G36*
X198540000Y-92329011D02*
G01*
X197974315Y-91763326D01*
X198540000Y-91197641D01*
X199105685Y-91763326D01*
X198540000Y-92329011D01*
G37*
%TD*%
%TO.C,D2.15*%
G36*
X197375424Y-101475626D02*
G01*
X196809739Y-100909941D01*
X197375424Y-100344256D01*
X197941109Y-100909941D01*
X197375424Y-101475626D01*
G37*
G36*
X198540000Y-100329009D02*
G01*
X197974315Y-99763324D01*
X198540000Y-99197639D01*
X199105685Y-99763324D01*
X198540000Y-100329009D01*
G37*
%TD*%
%TO.C,D2.10*%
G36*
X197375424Y-88142296D02*
G01*
X196809739Y-87576611D01*
X197375424Y-87010926D01*
X197941109Y-87576611D01*
X197375424Y-88142296D01*
G37*
G36*
X198540000Y-86995679D02*
G01*
X197974315Y-86429994D01*
X198540000Y-85864309D01*
X199105685Y-86429994D01*
X198540000Y-86995679D01*
G37*
%TD*%
%TO.C,D2.13*%
G36*
X197375424Y-96142294D02*
G01*
X196809739Y-95576609D01*
X197375424Y-95010924D01*
X197941109Y-95576609D01*
X197375424Y-96142294D01*
G37*
G36*
X198540000Y-94995677D02*
G01*
X197974315Y-94429992D01*
X198540000Y-93864307D01*
X199105685Y-94429992D01*
X198540000Y-94995677D01*
G37*
%TD*%
%TO.C,D2.3*%
G36*
X197375424Y-69475634D02*
G01*
X196809739Y-68909949D01*
X197375424Y-68344264D01*
X197941109Y-68909949D01*
X197375424Y-69475634D01*
G37*
G36*
X198540000Y-68329017D02*
G01*
X197974315Y-67763332D01*
X198540000Y-67197647D01*
X199105685Y-67763332D01*
X198540000Y-68329017D01*
G37*
%TD*%
%TO.C,D2.2*%
G36*
X197375424Y-66808968D02*
G01*
X196809739Y-66243283D01*
X197375424Y-65677598D01*
X197941109Y-66243283D01*
X197375424Y-66808968D01*
G37*
G36*
X198540000Y-65662351D02*
G01*
X197974315Y-65096666D01*
X198540000Y-64530981D01*
X199105685Y-65096666D01*
X198540000Y-65662351D01*
G37*
%TD*%
%TO.C,D2.1*%
G36*
X197375424Y-64142302D02*
G01*
X196809739Y-63576617D01*
X197375424Y-63010932D01*
X197941109Y-63576617D01*
X197375424Y-64142302D01*
G37*
G36*
X198540000Y-62995685D02*
G01*
X197974315Y-62430000D01*
X198540000Y-61864315D01*
X199105685Y-62430000D01*
X198540000Y-62995685D01*
G37*
%TD*%
%TO.C,D2.14*%
G36*
X197375424Y-98808960D02*
G01*
X196809739Y-98243275D01*
X197375424Y-97677590D01*
X197941109Y-98243275D01*
X197375424Y-98808960D01*
G37*
G36*
X198540000Y-97662343D02*
G01*
X197974315Y-97096658D01*
X198540000Y-96530973D01*
X199105685Y-97096658D01*
X198540000Y-97662343D01*
G37*
%TD*%
%TO.C,D2.11*%
G36*
X197375424Y-90808962D02*
G01*
X196809739Y-90243277D01*
X197375424Y-89677592D01*
X197941109Y-90243277D01*
X197375424Y-90808962D01*
G37*
G36*
X198540000Y-89662345D02*
G01*
X197974315Y-89096660D01*
X198540000Y-88530975D01*
X199105685Y-89096660D01*
X198540000Y-89662345D01*
G37*
%TD*%
%TO.C,D1.2*%
G36*
X200045424Y-66808968D02*
G01*
X199479739Y-66243283D01*
X200045424Y-65677598D01*
X200611109Y-66243283D01*
X200045424Y-66808968D01*
G37*
G36*
X201210000Y-65662351D02*
G01*
X200644315Y-65096666D01*
X201210000Y-64530981D01*
X201775685Y-65096666D01*
X201210000Y-65662351D01*
G37*
%TD*%
%TO.C,D1.16*%
G36*
X200045424Y-104142292D02*
G01*
X199479739Y-103576607D01*
X200045424Y-103010922D01*
X200611109Y-103576607D01*
X200045424Y-104142292D01*
G37*
G36*
X201210000Y-102995675D02*
G01*
X200644315Y-102429990D01*
X201210000Y-101864305D01*
X201775685Y-102429990D01*
X201210000Y-102995675D01*
G37*
%TD*%
%TO.C,D1.3*%
G36*
X200045424Y-69475634D02*
G01*
X199479739Y-68909949D01*
X200045424Y-68344264D01*
X200611109Y-68909949D01*
X200045424Y-69475634D01*
G37*
G36*
X201210000Y-68329017D02*
G01*
X200644315Y-67763332D01*
X201210000Y-67197647D01*
X201775685Y-67763332D01*
X201210000Y-68329017D01*
G37*
%TD*%
%TO.C,D1.4*%
G36*
X200045424Y-72142300D02*
G01*
X199479739Y-71576615D01*
X200045424Y-71010930D01*
X200611109Y-71576615D01*
X200045424Y-72142300D01*
G37*
G36*
X201210000Y-70995683D02*
G01*
X200644315Y-70429998D01*
X201210000Y-69864313D01*
X201775685Y-70429998D01*
X201210000Y-70995683D01*
G37*
%TD*%
%TO.C,D1.5*%
G36*
X200045424Y-74808966D02*
G01*
X199479739Y-74243281D01*
X200045424Y-73677596D01*
X200611109Y-74243281D01*
X200045424Y-74808966D01*
G37*
G36*
X201210000Y-73662349D02*
G01*
X200644315Y-73096664D01*
X201210000Y-72530979D01*
X201775685Y-73096664D01*
X201210000Y-73662349D01*
G37*
%TD*%
%TO.C,D1.15*%
G36*
X200045424Y-101475626D02*
G01*
X199479739Y-100909941D01*
X200045424Y-100344256D01*
X200611109Y-100909941D01*
X200045424Y-101475626D01*
G37*
G36*
X201210000Y-100329009D02*
G01*
X200644315Y-99763324D01*
X201210000Y-99197639D01*
X201775685Y-99763324D01*
X201210000Y-100329009D01*
G37*
%TD*%
%TO.C,D1.6*%
G36*
X200045424Y-77475632D02*
G01*
X199479739Y-76909947D01*
X200045424Y-76344262D01*
X200611109Y-76909947D01*
X200045424Y-77475632D01*
G37*
G36*
X201210000Y-76329015D02*
G01*
X200644315Y-75763330D01*
X201210000Y-75197645D01*
X201775685Y-75763330D01*
X201210000Y-76329015D01*
G37*
%TD*%
%TO.C,D1.7*%
G36*
X200045424Y-80142298D02*
G01*
X199479739Y-79576613D01*
X200045424Y-79010928D01*
X200611109Y-79576613D01*
X200045424Y-80142298D01*
G37*
G36*
X201210000Y-78995681D02*
G01*
X200644315Y-78429996D01*
X201210000Y-77864311D01*
X201775685Y-78429996D01*
X201210000Y-78995681D01*
G37*
%TD*%
%TO.C,D1.8*%
G36*
X200045424Y-82808964D02*
G01*
X199479739Y-82243279D01*
X200045424Y-81677594D01*
X200611109Y-82243279D01*
X200045424Y-82808964D01*
G37*
G36*
X201210000Y-81662347D02*
G01*
X200644315Y-81096662D01*
X201210000Y-80530977D01*
X201775685Y-81096662D01*
X201210000Y-81662347D01*
G37*
%TD*%
%TO.C,D1.9*%
G36*
X200045424Y-85475630D02*
G01*
X199479739Y-84909945D01*
X200045424Y-84344260D01*
X200611109Y-84909945D01*
X200045424Y-85475630D01*
G37*
G36*
X201210000Y-84329013D02*
G01*
X200644315Y-83763328D01*
X201210000Y-83197643D01*
X201775685Y-83763328D01*
X201210000Y-84329013D01*
G37*
%TD*%
%TO.C,D1.14*%
G36*
X200045424Y-98808960D02*
G01*
X199479739Y-98243275D01*
X200045424Y-97677590D01*
X200611109Y-98243275D01*
X200045424Y-98808960D01*
G37*
G36*
X201210000Y-97662343D02*
G01*
X200644315Y-97096658D01*
X201210000Y-96530973D01*
X201775685Y-97096658D01*
X201210000Y-97662343D01*
G37*
%TD*%
%TO.C,D1.13*%
G36*
X200045424Y-96142294D02*
G01*
X199479739Y-95576609D01*
X200045424Y-95010924D01*
X200611109Y-95576609D01*
X200045424Y-96142294D01*
G37*
G36*
X201210000Y-94995677D02*
G01*
X200644315Y-94429992D01*
X201210000Y-93864307D01*
X201775685Y-94429992D01*
X201210000Y-94995677D01*
G37*
%TD*%
%TO.C,D1.10*%
G36*
X200045424Y-88142296D02*
G01*
X199479739Y-87576611D01*
X200045424Y-87010926D01*
X200611109Y-87576611D01*
X200045424Y-88142296D01*
G37*
G36*
X201210000Y-86995679D02*
G01*
X200644315Y-86429994D01*
X201210000Y-85864309D01*
X201775685Y-86429994D01*
X201210000Y-86995679D01*
G37*
%TD*%
%TO.C,D1.1*%
G36*
X200045424Y-64142302D02*
G01*
X199479739Y-63576617D01*
X200045424Y-63010932D01*
X200611109Y-63576617D01*
X200045424Y-64142302D01*
G37*
G36*
X201210000Y-62995685D02*
G01*
X200644315Y-62430000D01*
X201210000Y-61864315D01*
X201775685Y-62430000D01*
X201210000Y-62995685D01*
G37*
%TD*%
%TO.C,D1.12*%
G36*
X200045424Y-93475628D02*
G01*
X199479739Y-92909943D01*
X200045424Y-92344258D01*
X200611109Y-92909943D01*
X200045424Y-93475628D01*
G37*
G36*
X201210000Y-92329011D02*
G01*
X200644315Y-91763326D01*
X201210000Y-91197641D01*
X201775685Y-91763326D01*
X201210000Y-92329011D01*
G37*
%TD*%
%TO.C,D1.11*%
G36*
X200045424Y-90808962D02*
G01*
X199479739Y-90243277D01*
X200045424Y-89677592D01*
X200611109Y-90243277D01*
X200045424Y-90808962D01*
G37*
G36*
X201210000Y-89662345D02*
G01*
X200644315Y-89096660D01*
X201210000Y-88530975D01*
X201775685Y-89096660D01*
X201210000Y-89662345D01*
G37*
%TD*%
D15*
%TO.C,U1*%
X205800000Y-78200000D03*
X205800000Y-79000000D03*
X205800000Y-79800000D03*
X205800000Y-80600000D03*
X205800000Y-81400000D03*
X205800000Y-82200000D03*
X205800000Y-83000000D03*
X205800000Y-83800000D03*
D16*
X207200000Y-85200000D03*
X208000000Y-85200000D03*
X208800000Y-85200000D03*
X209600000Y-85200000D03*
X210400000Y-85200000D03*
X211200000Y-85200000D03*
X212000000Y-85200000D03*
X212800000Y-85200000D03*
D15*
X214200000Y-83800000D03*
X214200000Y-83000000D03*
X214200000Y-82200000D03*
X214200000Y-81400000D03*
X214200000Y-80600000D03*
X214200000Y-79800000D03*
X214200000Y-79000000D03*
X214200000Y-78200000D03*
D16*
X212800000Y-76800000D03*
X212000000Y-76800000D03*
X211200000Y-76800000D03*
X210400000Y-76800000D03*
X209600000Y-76800000D03*
X208800000Y-76800000D03*
X208000000Y-76800000D03*
X207200000Y-76800000D03*
%TD*%
D17*
%TO.C,H4*%
X219500000Y-110500000D03*
%TD*%
%TO.C,H3*%
X219500000Y-43500000D03*
%TD*%
%TO.C,H2*%
X160500000Y-110500000D03*
%TD*%
%TO.C,H1*%
X160500000Y-43500000D03*
%TD*%
%TO.C,FID3*%
X219500000Y-99000000D03*
%TD*%
%TO.C,FID2*%
X219500000Y-81000000D03*
%TD*%
%TO.C,FID1*%
X160500000Y-86000000D03*
%TD*%
D18*
%TO.C,U4*%
X165775000Y-82400000D03*
X166425000Y-82400000D03*
X167075000Y-82400000D03*
X167725000Y-82400000D03*
X168375000Y-82400000D03*
X169025000Y-82400000D03*
X169675000Y-82400000D03*
X170325000Y-82400000D03*
X170975000Y-82400000D03*
X171625000Y-82400000D03*
X172275000Y-82400000D03*
X172925000Y-82400000D03*
X173575000Y-82400000D03*
X174225000Y-82400000D03*
X174225000Y-89600000D03*
X173575000Y-89600000D03*
X172925000Y-89600000D03*
X172275000Y-89600000D03*
X171625000Y-89600000D03*
X170975000Y-89600000D03*
X170325000Y-89600000D03*
X169675000Y-89600000D03*
X169025000Y-89600000D03*
X168375000Y-89600000D03*
X167725000Y-89600000D03*
X167075000Y-89600000D03*
X166425000Y-89600000D03*
X165775000Y-89600000D03*
%TD*%
D19*
%TO.C,U2*%
X208300000Y-98925281D03*
G36*
G01*
X209250001Y-99803100D02*
X209250001Y-99803100D01*
G75*
G02*
X208945098Y-99498197I0J304903D01*
G01*
X208945098Y-98352365D01*
G75*
G02*
X209250001Y-98047462I304903J0D01*
G01*
X209250001Y-98047462D01*
G75*
G02*
X209554904Y-98352365I0J-304903D01*
G01*
X209554904Y-99498197D01*
G75*
G02*
X209250001Y-99803100I-304903J0D01*
G01*
G37*
G36*
G01*
X210200001Y-99803100D02*
X210200001Y-99803100D01*
G75*
G02*
X209895098Y-99498197I0J304903D01*
G01*
X209895098Y-98352365D01*
G75*
G02*
X210200001Y-98047462I304903J0D01*
G01*
X210200001Y-98047462D01*
G75*
G02*
X210504904Y-98352365I0J-304903D01*
G01*
X210504904Y-99498197D01*
G75*
G02*
X210200001Y-99803100I-304903J0D01*
G01*
G37*
G36*
G01*
X210200001Y-97452537D02*
X210200001Y-97452537D01*
G75*
G02*
X209895098Y-97147634I0J304903D01*
G01*
X209895098Y-96001802D01*
G75*
G02*
X210200001Y-95696899I304903J0D01*
G01*
X210200001Y-95696899D01*
G75*
G02*
X210504904Y-96001802I0J-304903D01*
G01*
X210504904Y-97147634D01*
G75*
G02*
X210200001Y-97452537I-304903J0D01*
G01*
G37*
G36*
G01*
X208300000Y-97452537D02*
X208300000Y-97452537D01*
G75*
G02*
X207995097Y-97147634I0J304903D01*
G01*
X207995097Y-96001802D01*
G75*
G02*
X208300000Y-95696899I304903J0D01*
G01*
X208300000Y-95696899D01*
G75*
G02*
X208604903Y-96001802I0J-304903D01*
G01*
X208604903Y-97147634D01*
G75*
G02*
X208300000Y-97452537I-304903J0D01*
G01*
G37*
%TD*%
D20*
%TO.C,SW1*%
X171000000Y-65948700D03*
X171000000Y-74051300D03*
%TD*%
%TO.C,R10*%
G36*
G01*
X170275000Y-77325000D02*
X169725000Y-77325000D01*
G75*
G02*
X169525000Y-77125000I0J200000D01*
G01*
X169525000Y-76725000D01*
G75*
G02*
X169725000Y-76525000I200000J0D01*
G01*
X170275000Y-76525000D01*
G75*
G02*
X170475000Y-76725000I0J-200000D01*
G01*
X170475000Y-77125000D01*
G75*
G02*
X170275000Y-77325000I-200000J0D01*
G01*
G37*
G36*
G01*
X170275000Y-78975000D02*
X169725000Y-78975000D01*
G75*
G02*
X169525000Y-78775000I0J200000D01*
G01*
X169525000Y-78375000D01*
G75*
G02*
X169725000Y-78175000I200000J0D01*
G01*
X170275000Y-78175000D01*
G75*
G02*
X170475000Y-78375000I0J-200000D01*
G01*
X170475000Y-78775000D01*
G75*
G02*
X170275000Y-78975000I-200000J0D01*
G01*
G37*
%TD*%
%TO.C,R9*%
G36*
G01*
X167725000Y-78175000D02*
X168275000Y-78175000D01*
G75*
G02*
X168475000Y-78375000I0J-200000D01*
G01*
X168475000Y-78775000D01*
G75*
G02*
X168275000Y-78975000I-200000J0D01*
G01*
X167725000Y-78975000D01*
G75*
G02*
X167525000Y-78775000I0J200000D01*
G01*
X167525000Y-78375000D01*
G75*
G02*
X167725000Y-78175000I200000J0D01*
G01*
G37*
G36*
G01*
X167725000Y-76525000D02*
X168275000Y-76525000D01*
G75*
G02*
X168475000Y-76725000I0J-200000D01*
G01*
X168475000Y-77125000D01*
G75*
G02*
X168275000Y-77325000I-200000J0D01*
G01*
X167725000Y-77325000D01*
G75*
G02*
X167525000Y-77125000I0J200000D01*
G01*
X167525000Y-76725000D01*
G75*
G02*
X167725000Y-76525000I200000J0D01*
G01*
G37*
%TD*%
%TO.C,R8*%
G36*
G01*
X165725000Y-78175000D02*
X166275000Y-78175000D01*
G75*
G02*
X166475000Y-78375000I0J-200000D01*
G01*
X166475000Y-78775000D01*
G75*
G02*
X166275000Y-78975000I-200000J0D01*
G01*
X165725000Y-78975000D01*
G75*
G02*
X165525000Y-78775000I0J200000D01*
G01*
X165525000Y-78375000D01*
G75*
G02*
X165725000Y-78175000I200000J0D01*
G01*
G37*
G36*
G01*
X165725000Y-76525000D02*
X166275000Y-76525000D01*
G75*
G02*
X166475000Y-76725000I0J-200000D01*
G01*
X166475000Y-77125000D01*
G75*
G02*
X166275000Y-77325000I-200000J0D01*
G01*
X165725000Y-77325000D01*
G75*
G02*
X165525000Y-77125000I0J200000D01*
G01*
X165525000Y-76725000D01*
G75*
G02*
X165725000Y-76525000I200000J0D01*
G01*
G37*
%TD*%
%TO.C,R7*%
G36*
G01*
X170850000Y-101275000D02*
X170850000Y-100725000D01*
G75*
G02*
X171050000Y-100525000I200000J0D01*
G01*
X171450000Y-100525000D01*
G75*
G02*
X171650000Y-100725000I0J-200000D01*
G01*
X171650000Y-101275000D01*
G75*
G02*
X171450000Y-101475000I-200000J0D01*
G01*
X171050000Y-101475000D01*
G75*
G02*
X170850000Y-101275000I0J200000D01*
G01*
G37*
G36*
G01*
X169200000Y-101275000D02*
X169200000Y-100725000D01*
G75*
G02*
X169400000Y-100525000I200000J0D01*
G01*
X169800000Y-100525000D01*
G75*
G02*
X170000000Y-100725000I0J-200000D01*
G01*
X170000000Y-101275000D01*
G75*
G02*
X169800000Y-101475000I-200000J0D01*
G01*
X169400000Y-101475000D01*
G75*
G02*
X169200000Y-101275000I0J200000D01*
G01*
G37*
%TD*%
%TO.C,R6*%
G36*
G01*
X168575000Y-98725000D02*
X168575000Y-99275000D01*
G75*
G02*
X168375000Y-99475000I-200000J0D01*
G01*
X167975000Y-99475000D01*
G75*
G02*
X167775000Y-99275000I0J200000D01*
G01*
X167775000Y-98725000D01*
G75*
G02*
X167975000Y-98525000I200000J0D01*
G01*
X168375000Y-98525000D01*
G75*
G02*
X168575000Y-98725000I0J-200000D01*
G01*
G37*
G36*
G01*
X170225000Y-98725000D02*
X170225000Y-99275000D01*
G75*
G02*
X170025000Y-99475000I-200000J0D01*
G01*
X169625000Y-99475000D01*
G75*
G02*
X169425000Y-99275000I0J200000D01*
G01*
X169425000Y-98725000D01*
G75*
G02*
X169625000Y-98525000I200000J0D01*
G01*
X170025000Y-98525000D01*
G75*
G02*
X170225000Y-98725000I0J-200000D01*
G01*
G37*
%TD*%
%TO.C,R5*%
G36*
G01*
X171575000Y-102725000D02*
X171575000Y-103275000D01*
G75*
G02*
X171375000Y-103475000I-200000J0D01*
G01*
X170975000Y-103475000D01*
G75*
G02*
X170775000Y-103275000I0J200000D01*
G01*
X170775000Y-102725000D01*
G75*
G02*
X170975000Y-102525000I200000J0D01*
G01*
X171375000Y-102525000D01*
G75*
G02*
X171575000Y-102725000I0J-200000D01*
G01*
G37*
G36*
G01*
X173225000Y-102725000D02*
X173225000Y-103275000D01*
G75*
G02*
X173025000Y-103475000I-200000J0D01*
G01*
X172625000Y-103475000D01*
G75*
G02*
X172425000Y-103275000I0J200000D01*
G01*
X172425000Y-102725000D01*
G75*
G02*
X172625000Y-102525000I200000J0D01*
G01*
X173025000Y-102525000D01*
G75*
G02*
X173225000Y-102725000I0J-200000D01*
G01*
G37*
%TD*%
%TO.C,R4*%
G36*
G01*
X192275000Y-55575000D02*
X191725000Y-55575000D01*
G75*
G02*
X191525000Y-55375000I0J200000D01*
G01*
X191525000Y-54975000D01*
G75*
G02*
X191725000Y-54775000I200000J0D01*
G01*
X192275000Y-54775000D01*
G75*
G02*
X192475000Y-54975000I0J-200000D01*
G01*
X192475000Y-55375000D01*
G75*
G02*
X192275000Y-55575000I-200000J0D01*
G01*
G37*
G36*
G01*
X192275000Y-57225000D02*
X191725000Y-57225000D01*
G75*
G02*
X191525000Y-57025000I0J200000D01*
G01*
X191525000Y-56625000D01*
G75*
G02*
X191725000Y-56425000I200000J0D01*
G01*
X192275000Y-56425000D01*
G75*
G02*
X192475000Y-56625000I0J-200000D01*
G01*
X192475000Y-57025000D01*
G75*
G02*
X192275000Y-57225000I-200000J0D01*
G01*
G37*
%TD*%
%TO.C,R3*%
G36*
G01*
X190275000Y-55575000D02*
X189725000Y-55575000D01*
G75*
G02*
X189525000Y-55375000I0J200000D01*
G01*
X189525000Y-54975000D01*
G75*
G02*
X189725000Y-54775000I200000J0D01*
G01*
X190275000Y-54775000D01*
G75*
G02*
X190475000Y-54975000I0J-200000D01*
G01*
X190475000Y-55375000D01*
G75*
G02*
X190275000Y-55575000I-200000J0D01*
G01*
G37*
G36*
G01*
X190275000Y-57225000D02*
X189725000Y-57225000D01*
G75*
G02*
X189525000Y-57025000I0J200000D01*
G01*
X189525000Y-56625000D01*
G75*
G02*
X189725000Y-56425000I200000J0D01*
G01*
X190275000Y-56425000D01*
G75*
G02*
X190475000Y-56625000I0J-200000D01*
G01*
X190475000Y-57025000D01*
G75*
G02*
X190275000Y-57225000I-200000J0D01*
G01*
G37*
%TD*%
%TO.C,R2*%
G36*
G01*
X212425000Y-69275000D02*
X212425000Y-68725000D01*
G75*
G02*
X212625000Y-68525000I200000J0D01*
G01*
X213025000Y-68525000D01*
G75*
G02*
X213225000Y-68725000I0J-200000D01*
G01*
X213225000Y-69275000D01*
G75*
G02*
X213025000Y-69475000I-200000J0D01*
G01*
X212625000Y-69475000D01*
G75*
G02*
X212425000Y-69275000I0J200000D01*
G01*
G37*
G36*
G01*
X210775000Y-69275000D02*
X210775000Y-68725000D01*
G75*
G02*
X210975000Y-68525000I200000J0D01*
G01*
X211375000Y-68525000D01*
G75*
G02*
X211575000Y-68725000I0J-200000D01*
G01*
X211575000Y-69275000D01*
G75*
G02*
X211375000Y-69475000I-200000J0D01*
G01*
X210975000Y-69475000D01*
G75*
G02*
X210775000Y-69275000I0J200000D01*
G01*
G37*
%TD*%
%TO.C,R1*%
G36*
G01*
X210425000Y-65275000D02*
X210425000Y-64725000D01*
G75*
G02*
X210625000Y-64525000I200000J0D01*
G01*
X211025000Y-64525000D01*
G75*
G02*
X211225000Y-64725000I0J-200000D01*
G01*
X211225000Y-65275000D01*
G75*
G02*
X211025000Y-65475000I-200000J0D01*
G01*
X210625000Y-65475000D01*
G75*
G02*
X210425000Y-65275000I0J200000D01*
G01*
G37*
G36*
G01*
X208775000Y-65275000D02*
X208775000Y-64725000D01*
G75*
G02*
X208975000Y-64525000I200000J0D01*
G01*
X209375000Y-64525000D01*
G75*
G02*
X209575000Y-64725000I0J-200000D01*
G01*
X209575000Y-65275000D01*
G75*
G02*
X209375000Y-65475000I-200000J0D01*
G01*
X208975000Y-65475000D01*
G75*
G02*
X208775000Y-65275000I0J200000D01*
G01*
G37*
%TD*%
D21*
%TO.C,Q1*%
X192050000Y-51000000D03*
X193950000Y-51000000D03*
X193000000Y-49000000D03*
%TD*%
%TO.C,D145*%
G36*
G01*
X193450000Y-45456250D02*
X193450000Y-44543750D01*
G75*
G02*
X193693750Y-44300000I243750J0D01*
G01*
X194181250Y-44300000D01*
G75*
G02*
X194425000Y-44543750I0J-243750D01*
G01*
X194425000Y-45456250D01*
G75*
G02*
X194181250Y-45700000I-243750J0D01*
G01*
X193693750Y-45700000D01*
G75*
G02*
X193450000Y-45456250I0J243750D01*
G01*
G37*
G36*
G01*
X191575000Y-45456250D02*
X191575000Y-44543750D01*
G75*
G02*
X191818750Y-44300000I243750J0D01*
G01*
X192306250Y-44300000D01*
G75*
G02*
X192550000Y-44543750I0J-243750D01*
G01*
X192550000Y-45456250D01*
G75*
G02*
X192306250Y-45700000I-243750J0D01*
G01*
X191818750Y-45700000D01*
G75*
G02*
X191575000Y-45456250I0J243750D01*
G01*
G37*
%TD*%
%TO.C,C11*%
G36*
G01*
X167675000Y-96750000D02*
X167675000Y-97250000D01*
G75*
G02*
X167450000Y-97475000I-225000J0D01*
G01*
X167000000Y-97475000D01*
G75*
G02*
X166775000Y-97250000I0J225000D01*
G01*
X166775000Y-96750000D01*
G75*
G02*
X167000000Y-96525000I225000J0D01*
G01*
X167450000Y-96525000D01*
G75*
G02*
X167675000Y-96750000I0J-225000D01*
G01*
G37*
G36*
G01*
X169225000Y-96750000D02*
X169225000Y-97250000D01*
G75*
G02*
X169000000Y-97475000I-225000J0D01*
G01*
X168550000Y-97475000D01*
G75*
G02*
X168325000Y-97250000I0J225000D01*
G01*
X168325000Y-96750000D01*
G75*
G02*
X168550000Y-96525000I225000J0D01*
G01*
X169000000Y-96525000D01*
G75*
G02*
X169225000Y-96750000I0J-225000D01*
G01*
G37*
%TD*%
%TO.C,C10*%
G36*
G01*
X166675000Y-94750000D02*
X166675000Y-95250000D01*
G75*
G02*
X166450000Y-95475000I-225000J0D01*
G01*
X166000000Y-95475000D01*
G75*
G02*
X165775000Y-95250000I0J225000D01*
G01*
X165775000Y-94750000D01*
G75*
G02*
X166000000Y-94525000I225000J0D01*
G01*
X166450000Y-94525000D01*
G75*
G02*
X166675000Y-94750000I0J-225000D01*
G01*
G37*
G36*
G01*
X168225000Y-94750000D02*
X168225000Y-95250000D01*
G75*
G02*
X168000000Y-95475000I-225000J0D01*
G01*
X167550000Y-95475000D01*
G75*
G02*
X167325000Y-95250000I0J225000D01*
G01*
X167325000Y-94750000D01*
G75*
G02*
X167550000Y-94525000I225000J0D01*
G01*
X168000000Y-94525000D01*
G75*
G02*
X168225000Y-94750000I0J-225000D01*
G01*
G37*
%TD*%
%TO.C,C9*%
G36*
G01*
X165675000Y-92750000D02*
X165675000Y-93250000D01*
G75*
G02*
X165450000Y-93475000I-225000J0D01*
G01*
X165000000Y-93475000D01*
G75*
G02*
X164775000Y-93250000I0J225000D01*
G01*
X164775000Y-92750000D01*
G75*
G02*
X165000000Y-92525000I225000J0D01*
G01*
X165450000Y-92525000D01*
G75*
G02*
X165675000Y-92750000I0J-225000D01*
G01*
G37*
G36*
G01*
X167225000Y-92750000D02*
X167225000Y-93250000D01*
G75*
G02*
X167000000Y-93475000I-225000J0D01*
G01*
X166550000Y-93475000D01*
G75*
G02*
X166325000Y-93250000I0J225000D01*
G01*
X166325000Y-92750000D01*
G75*
G02*
X166550000Y-92525000I225000J0D01*
G01*
X167000000Y-92525000D01*
G75*
G02*
X167225000Y-92750000I0J-225000D01*
G01*
G37*
%TD*%
%TO.C,C8*%
G36*
G01*
X172250000Y-77425000D02*
X171750000Y-77425000D01*
G75*
G02*
X171525000Y-77200000I0J225000D01*
G01*
X171525000Y-76750000D01*
G75*
G02*
X171750000Y-76525000I225000J0D01*
G01*
X172250000Y-76525000D01*
G75*
G02*
X172475000Y-76750000I0J-225000D01*
G01*
X172475000Y-77200000D01*
G75*
G02*
X172250000Y-77425000I-225000J0D01*
G01*
G37*
G36*
G01*
X172250000Y-78975000D02*
X171750000Y-78975000D01*
G75*
G02*
X171525000Y-78750000I0J225000D01*
G01*
X171525000Y-78300000D01*
G75*
G02*
X171750000Y-78075000I225000J0D01*
G01*
X172250000Y-78075000D01*
G75*
G02*
X172475000Y-78300000I0J-225000D01*
G01*
X172475000Y-78750000D01*
G75*
G02*
X172250000Y-78975000I-225000J0D01*
G01*
G37*
%TD*%
%TO.C,C7*%
G36*
G01*
X187750000Y-56325000D02*
X188250000Y-56325000D01*
G75*
G02*
X188475000Y-56550000I0J-225000D01*
G01*
X188475000Y-57000000D01*
G75*
G02*
X188250000Y-57225000I-225000J0D01*
G01*
X187750000Y-57225000D01*
G75*
G02*
X187525000Y-57000000I0J225000D01*
G01*
X187525000Y-56550000D01*
G75*
G02*
X187750000Y-56325000I225000J0D01*
G01*
G37*
G36*
G01*
X187750000Y-54775000D02*
X188250000Y-54775000D01*
G75*
G02*
X188475000Y-55000000I0J-225000D01*
G01*
X188475000Y-55450000D01*
G75*
G02*
X188250000Y-55675000I-225000J0D01*
G01*
X187750000Y-55675000D01*
G75*
G02*
X187525000Y-55450000I0J225000D01*
G01*
X187525000Y-55000000D01*
G75*
G02*
X187750000Y-54775000I225000J0D01*
G01*
G37*
%TD*%
%TO.C,C6*%
G36*
G01*
X214000000Y-91425000D02*
X213500000Y-91425000D01*
G75*
G02*
X213275000Y-91200000I0J225000D01*
G01*
X213275000Y-90750000D01*
G75*
G02*
X213500000Y-90525000I225000J0D01*
G01*
X214000000Y-90525000D01*
G75*
G02*
X214225000Y-90750000I0J-225000D01*
G01*
X214225000Y-91200000D01*
G75*
G02*
X214000000Y-91425000I-225000J0D01*
G01*
G37*
G36*
G01*
X214000000Y-92975000D02*
X213500000Y-92975000D01*
G75*
G02*
X213275000Y-92750000I0J225000D01*
G01*
X213275000Y-92300000D01*
G75*
G02*
X213500000Y-92075000I225000J0D01*
G01*
X214000000Y-92075000D01*
G75*
G02*
X214225000Y-92300000I0J-225000D01*
G01*
X214225000Y-92750000D01*
G75*
G02*
X214000000Y-92975000I-225000J0D01*
G01*
G37*
%TD*%
%TO.C,C5*%
G36*
G01*
X207325000Y-104250000D02*
X207325000Y-103750000D01*
G75*
G02*
X207550000Y-103525000I225000J0D01*
G01*
X208000000Y-103525000D01*
G75*
G02*
X208225000Y-103750000I0J-225000D01*
G01*
X208225000Y-104250000D01*
G75*
G02*
X208000000Y-104475000I-225000J0D01*
G01*
X207550000Y-104475000D01*
G75*
G02*
X207325000Y-104250000I0J225000D01*
G01*
G37*
G36*
G01*
X205775000Y-104250000D02*
X205775000Y-103750000D01*
G75*
G02*
X206000000Y-103525000I225000J0D01*
G01*
X206450000Y-103525000D01*
G75*
G02*
X206675000Y-103750000I0J-225000D01*
G01*
X206675000Y-104250000D01*
G75*
G02*
X206450000Y-104475000I-225000J0D01*
G01*
X206000000Y-104475000D01*
G75*
G02*
X205775000Y-104250000I0J225000D01*
G01*
G37*
%TD*%
%TO.C,C4*%
G36*
G01*
X214500000Y-71925000D02*
X214000000Y-71925000D01*
G75*
G02*
X213775000Y-71700000I0J225000D01*
G01*
X213775000Y-71250000D01*
G75*
G02*
X214000000Y-71025000I225000J0D01*
G01*
X214500000Y-71025000D01*
G75*
G02*
X214725000Y-71250000I0J-225000D01*
G01*
X214725000Y-71700000D01*
G75*
G02*
X214500000Y-71925000I-225000J0D01*
G01*
G37*
G36*
G01*
X214500000Y-73475000D02*
X214000000Y-73475000D01*
G75*
G02*
X213775000Y-73250000I0J225000D01*
G01*
X213775000Y-72800000D01*
G75*
G02*
X214000000Y-72575000I225000J0D01*
G01*
X214500000Y-72575000D01*
G75*
G02*
X214725000Y-72800000I0J-225000D01*
G01*
X214725000Y-73250000D01*
G75*
G02*
X214500000Y-73475000I-225000J0D01*
G01*
G37*
%TD*%
%TO.C,C3*%
G36*
G01*
X206000000Y-71925000D02*
X205500000Y-71925000D01*
G75*
G02*
X205275000Y-71700000I0J225000D01*
G01*
X205275000Y-71250000D01*
G75*
G02*
X205500000Y-71025000I225000J0D01*
G01*
X206000000Y-71025000D01*
G75*
G02*
X206225000Y-71250000I0J-225000D01*
G01*
X206225000Y-71700000D01*
G75*
G02*
X206000000Y-71925000I-225000J0D01*
G01*
G37*
G36*
G01*
X206000000Y-73475000D02*
X205500000Y-73475000D01*
G75*
G02*
X205275000Y-73250000I0J225000D01*
G01*
X205275000Y-72800000D01*
G75*
G02*
X205500000Y-72575000I225000J0D01*
G01*
X206000000Y-72575000D01*
G75*
G02*
X206225000Y-72800000I0J-225000D01*
G01*
X206225000Y-73250000D01*
G75*
G02*
X206000000Y-73475000I-225000J0D01*
G01*
G37*
%TD*%
%TO.C,C2*%
G36*
G01*
X210250000Y-71925000D02*
X209750000Y-71925000D01*
G75*
G02*
X209525000Y-71700000I0J225000D01*
G01*
X209525000Y-71250000D01*
G75*
G02*
X209750000Y-71025000I225000J0D01*
G01*
X210250000Y-71025000D01*
G75*
G02*
X210475000Y-71250000I0J-225000D01*
G01*
X210475000Y-71700000D01*
G75*
G02*
X210250000Y-71925000I-225000J0D01*
G01*
G37*
G36*
G01*
X210250000Y-73475000D02*
X209750000Y-73475000D01*
G75*
G02*
X209525000Y-73250000I0J225000D01*
G01*
X209525000Y-72800000D01*
G75*
G02*
X209750000Y-72575000I225000J0D01*
G01*
X210250000Y-72575000D01*
G75*
G02*
X210475000Y-72800000I0J-225000D01*
G01*
X210475000Y-73250000D01*
G75*
G02*
X210250000Y-73475000I-225000J0D01*
G01*
G37*
%TD*%
%TO.C,C1*%
G36*
G01*
X201840379Y-108958744D02*
X201290975Y-107780542D01*
G75*
G02*
X201411897Y-107448312I226576J105654D01*
G01*
X202000999Y-107173610D01*
G75*
G02*
X202333229Y-107294532I105654J-226576D01*
G01*
X202882633Y-108472734D01*
G75*
G02*
X202761711Y-108804964I-226576J-105654D01*
G01*
X202172609Y-109079666D01*
G75*
G02*
X201840379Y-108958744I-105654J226576D01*
G01*
G37*
G36*
G01*
X199166771Y-110205468D02*
X198617367Y-109027266D01*
G75*
G02*
X198738289Y-108695036I226576J105654D01*
G01*
X199327391Y-108420334D01*
G75*
G02*
X199659621Y-108541256I105654J-226576D01*
G01*
X200209025Y-109719458D01*
G75*
G02*
X200088103Y-110051688I-226576J-105654D01*
G01*
X199499001Y-110326390D01*
G75*
G02*
X199166771Y-110205468I-105654J226576D01*
G01*
G37*
%TD*%
M02*
