%TF.GenerationSoftware,KiCad,Pcbnew,(5.1.12-1-10_14)*%
%TF.CreationDate,2021-12-01T14:47:09-05:00*%
%TF.ProjectId,blinky,626c696e-6b79-42e6-9b69-6361645f7063,rev?*%
%TF.SameCoordinates,Original*%
%TF.FileFunction,AssemblyDrawing,Top*%
%FSLAX46Y46*%
G04 Gerber Fmt 4.6, Leading zero omitted, Abs format (unit mm)*
G04 Created by KiCad (PCBNEW (5.1.12-1-10_14)) date 2021-12-01 14:47:09*
%MOMM*%
%LPD*%
G01*
G04 APERTURE LIST*
%ADD10C,0.150000*%
%ADD11C,0.100000*%
%ADD12C,0.060000*%
%ADD13C,0.080000*%
%ADD14C,0.120000*%
G04 APERTURE END LIST*
D10*
%TO.C,SW2*%
X185500000Y-106700000D02*
X194500000Y-106700000D01*
X185500000Y-112300000D02*
X185500000Y-106700000D01*
X194500000Y-112300000D02*
X185500000Y-112300000D01*
X194500000Y-106700000D02*
X194500000Y-112300000D01*
D11*
%TO.C,U3*%
X185425200Y-44520200D02*
X185425200Y-51479800D01*
X188574800Y-44520200D02*
X185425200Y-44520200D01*
X188574800Y-51479800D02*
X188574800Y-44520200D01*
X185425200Y-51479800D02*
X188574800Y-51479800D01*
X185425200Y-50209800D02*
X185425200Y-50209800D01*
X185425200Y-49600200D02*
X185425200Y-50209800D01*
X185425200Y-49600200D02*
X185425200Y-49600200D01*
X185425200Y-50209800D02*
X185425200Y-49600200D01*
X185425200Y-48939800D02*
X185425200Y-48939800D01*
X185425200Y-48330200D02*
X185425200Y-48939800D01*
X185425200Y-48330200D02*
X185425200Y-48330200D01*
X185425200Y-48939800D02*
X185425200Y-48330200D01*
X185425200Y-47669800D02*
X185425200Y-47669800D01*
X185425200Y-47060200D02*
X185425200Y-47669800D01*
X185425200Y-47060200D02*
X185425200Y-47060200D01*
X185425200Y-47669800D02*
X185425200Y-47060200D01*
X185425200Y-46399800D02*
X185425200Y-46399800D01*
X185425200Y-45790200D02*
X185425200Y-46399800D01*
X185425200Y-45790200D02*
X185425200Y-45790200D01*
X185425200Y-46399800D02*
X185425200Y-45790200D01*
X187304800Y-44520200D02*
G75*
G02*
X186695200Y-44520200I-304800J0D01*
G01*
D10*
%TO.C,U1*%
X213800000Y-84800000D02*
X206200000Y-84800000D01*
X213800000Y-77200000D02*
X213800000Y-84800000D01*
X206200000Y-77200000D02*
X213800000Y-77200000D01*
X206200000Y-84800000D02*
X206200000Y-77200000D01*
D11*
%TO.C,FID3*%
X220500000Y-99000000D02*
G75*
G03*
X220500000Y-99000000I-1000000J0D01*
G01*
%TO.C,FID2*%
X220500000Y-81000000D02*
G75*
G03*
X220500000Y-81000000I-1000000J0D01*
G01*
%TO.C,FID1*%
X161500000Y-86000000D02*
G75*
G03*
X161500000Y-86000000I-1000000J0D01*
G01*
D10*
%TO.C,U4*%
X165900000Y-88650000D02*
X164900000Y-87650000D01*
X175100000Y-88650000D02*
X165900000Y-88650000D01*
X175100000Y-83350000D02*
X175100000Y-88650000D01*
X164900000Y-83350000D02*
X175100000Y-83350000D01*
X164900000Y-87650000D02*
X164900000Y-83350000D01*
%TO.C,U2*%
X210700000Y-96950000D02*
X210700000Y-98550000D01*
X207800000Y-96950000D02*
X210700000Y-96950000D01*
X207800000Y-98550000D02*
X207800000Y-96950000D01*
X210700000Y-98550000D02*
X207800000Y-98550000D01*
D11*
%TO.C,SW1*%
X173286000Y-65948700D02*
G75*
G03*
X173286000Y-65948700I-381000J0D01*
G01*
X175203700Y-65796300D02*
X166796300Y-65796300D01*
X175203700Y-74203700D02*
X175203700Y-65796300D01*
X166796300Y-74203700D02*
X175203700Y-74203700D01*
X166796300Y-65796300D02*
X166796300Y-74203700D01*
%TO.C,R10*%
X170412500Y-76950000D02*
X170412500Y-78550000D01*
X169587500Y-76950000D02*
X170412500Y-76950000D01*
X169587500Y-78550000D02*
X169587500Y-76950000D01*
X170412500Y-78550000D02*
X169587500Y-78550000D01*
%TO.C,R9*%
X167587500Y-78550000D02*
X167587500Y-76950000D01*
X168412500Y-78550000D02*
X167587500Y-78550000D01*
X168412500Y-76950000D02*
X168412500Y-78550000D01*
X167587500Y-76950000D02*
X168412500Y-76950000D01*
%TO.C,R8*%
X165587500Y-78550000D02*
X165587500Y-76950000D01*
X166412500Y-78550000D02*
X165587500Y-78550000D01*
X166412500Y-76950000D02*
X166412500Y-78550000D01*
X165587500Y-76950000D02*
X166412500Y-76950000D01*
%TO.C,R7*%
X171225000Y-101412500D02*
X169625000Y-101412500D01*
X171225000Y-100587500D02*
X171225000Y-101412500D01*
X169625000Y-100587500D02*
X171225000Y-100587500D01*
X169625000Y-101412500D02*
X169625000Y-100587500D01*
%TO.C,R6*%
X168200000Y-98587500D02*
X169800000Y-98587500D01*
X168200000Y-99412500D02*
X168200000Y-98587500D01*
X169800000Y-99412500D02*
X168200000Y-99412500D01*
X169800000Y-98587500D02*
X169800000Y-99412500D01*
%TO.C,R5*%
X171200000Y-102587500D02*
X172800000Y-102587500D01*
X171200000Y-103412500D02*
X171200000Y-102587500D01*
X172800000Y-103412500D02*
X171200000Y-103412500D01*
X172800000Y-102587500D02*
X172800000Y-103412500D01*
%TO.C,R4*%
X192412500Y-55200000D02*
X192412500Y-56800000D01*
X191587500Y-55200000D02*
X192412500Y-55200000D01*
X191587500Y-56800000D02*
X191587500Y-55200000D01*
X192412500Y-56800000D02*
X191587500Y-56800000D01*
%TO.C,R3*%
X190412500Y-55200000D02*
X190412500Y-56800000D01*
X189587500Y-55200000D02*
X190412500Y-55200000D01*
X189587500Y-56800000D02*
X189587500Y-55200000D01*
X190412500Y-56800000D02*
X189587500Y-56800000D01*
%TO.C,R2*%
X212800000Y-69412500D02*
X211200000Y-69412500D01*
X212800000Y-68587500D02*
X212800000Y-69412500D01*
X211200000Y-68587500D02*
X212800000Y-68587500D01*
X211200000Y-69412500D02*
X211200000Y-68587500D01*
%TO.C,R1*%
X210800000Y-65412500D02*
X209200000Y-65412500D01*
X210800000Y-64587500D02*
X210800000Y-65412500D01*
X209200000Y-64587500D02*
X210800000Y-64587500D01*
X209200000Y-65412500D02*
X209200000Y-64587500D01*
D10*
%TO.C,Q1*%
X194500000Y-50700000D02*
X191500000Y-50700000D01*
X194500000Y-49300000D02*
X194500000Y-50700000D01*
X191500000Y-49300000D02*
X194500000Y-49300000D01*
X191500000Y-50700000D02*
X191500000Y-49300000D01*
D11*
%TO.C,D145*%
X194000000Y-45600000D02*
X194000000Y-44400000D01*
X192000000Y-45600000D02*
X194000000Y-45600000D01*
X192000000Y-44700000D02*
X192000000Y-45600000D01*
X192300000Y-44400000D02*
X192000000Y-44700000D01*
X194000000Y-44400000D02*
X192300000Y-44400000D01*
%TO.C,C11*%
X167200000Y-96600000D02*
X168800000Y-96600000D01*
X167200000Y-97400000D02*
X167200000Y-96600000D01*
X168800000Y-97400000D02*
X167200000Y-97400000D01*
X168800000Y-96600000D02*
X168800000Y-97400000D01*
%TO.C,C10*%
X166200000Y-94600000D02*
X167800000Y-94600000D01*
X166200000Y-95400000D02*
X166200000Y-94600000D01*
X167800000Y-95400000D02*
X166200000Y-95400000D01*
X167800000Y-94600000D02*
X167800000Y-95400000D01*
%TO.C,C9*%
X165200000Y-92600000D02*
X166800000Y-92600000D01*
X165200000Y-93400000D02*
X165200000Y-92600000D01*
X166800000Y-93400000D02*
X165200000Y-93400000D01*
X166800000Y-92600000D02*
X166800000Y-93400000D01*
%TO.C,C8*%
X172400000Y-76950000D02*
X172400000Y-78550000D01*
X171600000Y-76950000D02*
X172400000Y-76950000D01*
X171600000Y-78550000D02*
X171600000Y-76950000D01*
X172400000Y-78550000D02*
X171600000Y-78550000D01*
%TO.C,C7*%
X187600000Y-56800000D02*
X187600000Y-55200000D01*
X188400000Y-56800000D02*
X187600000Y-56800000D01*
X188400000Y-55200000D02*
X188400000Y-56800000D01*
X187600000Y-55200000D02*
X188400000Y-55200000D01*
%TO.C,C6*%
X214150000Y-90950000D02*
X214150000Y-92550000D01*
X213350000Y-90950000D02*
X214150000Y-90950000D01*
X213350000Y-92550000D02*
X213350000Y-90950000D01*
X214150000Y-92550000D02*
X213350000Y-92550000D01*
%TO.C,C5*%
X207800000Y-104400000D02*
X206200000Y-104400000D01*
X207800000Y-103600000D02*
X207800000Y-104400000D01*
X206200000Y-103600000D02*
X207800000Y-103600000D01*
X206200000Y-104400000D02*
X206200000Y-103600000D01*
%TO.C,C4*%
X214650000Y-71450000D02*
X214650000Y-73050000D01*
X213850000Y-71450000D02*
X214650000Y-71450000D01*
X213850000Y-73050000D02*
X213850000Y-71450000D01*
X214650000Y-73050000D02*
X213850000Y-73050000D01*
%TO.C,C3*%
X206150000Y-71450000D02*
X206150000Y-73050000D01*
X205350000Y-71450000D02*
X206150000Y-71450000D01*
X205350000Y-73050000D02*
X205350000Y-71450000D01*
X206150000Y-73050000D02*
X205350000Y-73050000D01*
%TO.C,C2*%
X210400000Y-71450000D02*
X210400000Y-73050000D01*
X209600000Y-71450000D02*
X210400000Y-71450000D01*
X209600000Y-73050000D02*
X209600000Y-71450000D01*
X210400000Y-73050000D02*
X209600000Y-73050000D01*
%TO.C,C1*%
X202538187Y-108798857D02*
X199638002Y-110151235D01*
X201861998Y-107348765D02*
X202538187Y-108798857D01*
X198961813Y-108701143D02*
X201861998Y-107348765D01*
X199638002Y-110151235D02*
X198961813Y-108701143D01*
%TD*%
%TO.C,SW2*%
D10*
X188687976Y-109004761D02*
X188830833Y-109052380D01*
X189068928Y-109052380D01*
X189164166Y-109004761D01*
X189211785Y-108957142D01*
X189259404Y-108861904D01*
X189259404Y-108766666D01*
X189211785Y-108671428D01*
X189164166Y-108623809D01*
X189068928Y-108576190D01*
X188878452Y-108528571D01*
X188783214Y-108480952D01*
X188735595Y-108433333D01*
X188687976Y-108338095D01*
X188687976Y-108242857D01*
X188735595Y-108147619D01*
X188783214Y-108100000D01*
X188878452Y-108052380D01*
X189116547Y-108052380D01*
X189259404Y-108100000D01*
X189592738Y-108052380D02*
X189830833Y-109052380D01*
X190021309Y-108338095D01*
X190211785Y-109052380D01*
X190449880Y-108052380D01*
X190783214Y-108147619D02*
X190830833Y-108100000D01*
X190926071Y-108052380D01*
X191164166Y-108052380D01*
X191259404Y-108100000D01*
X191307023Y-108147619D01*
X191354642Y-108242857D01*
X191354642Y-108338095D01*
X191307023Y-108480952D01*
X190735595Y-109052380D01*
X191354642Y-109052380D01*
X187066904Y-111074523D02*
X187066904Y-109804523D01*
X187550714Y-109804523D01*
X187671666Y-109865000D01*
X187732142Y-109925476D01*
X187792619Y-110046428D01*
X187792619Y-110227857D01*
X187732142Y-110348809D01*
X187671666Y-110409285D01*
X187550714Y-110469761D01*
X187066904Y-110469761D01*
X188578809Y-109804523D02*
X188820714Y-109804523D01*
X188941666Y-109865000D01*
X189062619Y-109985952D01*
X189123095Y-110227857D01*
X189123095Y-110651190D01*
X189062619Y-110893095D01*
X188941666Y-111014047D01*
X188820714Y-111074523D01*
X188578809Y-111074523D01*
X188457857Y-111014047D01*
X188336904Y-110893095D01*
X188276428Y-110651190D01*
X188276428Y-110227857D01*
X188336904Y-109985952D01*
X188457857Y-109865000D01*
X188578809Y-109804523D01*
X189546428Y-109804523D02*
X189848809Y-111074523D01*
X190090714Y-110167380D01*
X190332619Y-111074523D01*
X190635000Y-109804523D01*
X191118809Y-110409285D02*
X191542142Y-110409285D01*
X191723571Y-111074523D02*
X191118809Y-111074523D01*
X191118809Y-109804523D01*
X191723571Y-109804523D01*
X192993571Y-111074523D02*
X192570238Y-110469761D01*
X192267857Y-111074523D02*
X192267857Y-109804523D01*
X192751666Y-109804523D01*
X192872619Y-109865000D01*
X192933095Y-109925476D01*
X192993571Y-110046428D01*
X192993571Y-110227857D01*
X192933095Y-110348809D01*
X192872619Y-110409285D01*
X192751666Y-110469761D01*
X192267857Y-110469761D01*
%TO.C,U3*%
X186238095Y-48452380D02*
X186238095Y-49261904D01*
X186285714Y-49357142D01*
X186333333Y-49404761D01*
X186428571Y-49452380D01*
X186619047Y-49452380D01*
X186714285Y-49404761D01*
X186761904Y-49357142D01*
X186809523Y-49261904D01*
X186809523Y-48452380D01*
X187190476Y-48452380D02*
X187809523Y-48452380D01*
X187476190Y-48833333D01*
X187619047Y-48833333D01*
X187714285Y-48880952D01*
X187761904Y-48928571D01*
X187809523Y-49023809D01*
X187809523Y-49261904D01*
X187761904Y-49357142D01*
X187714285Y-49404761D01*
X187619047Y-49452380D01*
X187333333Y-49452380D01*
X187238095Y-49404761D01*
X187190476Y-49357142D01*
D11*
X183730952Y-50150000D02*
X183730952Y-49921428D01*
X184130952Y-50035714D02*
X183730952Y-50035714D01*
X184111904Y-49807142D02*
X184130952Y-49750000D01*
X184130952Y-49654761D01*
X184111904Y-49616666D01*
X184092857Y-49597619D01*
X184054761Y-49578571D01*
X184016666Y-49578571D01*
X183978571Y-49597619D01*
X183959523Y-49616666D01*
X183940476Y-49654761D01*
X183921428Y-49730952D01*
X183902380Y-49769047D01*
X183883333Y-49788095D01*
X183845238Y-49807142D01*
X183807142Y-49807142D01*
X183769047Y-49788095D01*
X183750000Y-49769047D01*
X183730952Y-49730952D01*
X183730952Y-49635714D01*
X183750000Y-49578571D01*
X183730952Y-49330952D02*
X183730952Y-49254761D01*
X183750000Y-49216666D01*
X183788095Y-49178571D01*
X183864285Y-49159523D01*
X183997619Y-49159523D01*
X184073809Y-49178571D01*
X184111904Y-49216666D01*
X184130952Y-49254761D01*
X184130952Y-49330952D01*
X184111904Y-49369047D01*
X184073809Y-49407142D01*
X183997619Y-49426190D01*
X183864285Y-49426190D01*
X183788095Y-49407142D01*
X183750000Y-49369047D01*
X183730952Y-49330952D01*
X184130952Y-48988095D02*
X183730952Y-48988095D01*
X183730952Y-48835714D01*
X183750000Y-48797619D01*
X183769047Y-48778571D01*
X183807142Y-48759523D01*
X183864285Y-48759523D01*
X183902380Y-48778571D01*
X183921428Y-48797619D01*
X183940476Y-48835714D01*
X183940476Y-48988095D01*
X183730952Y-48626190D02*
X183730952Y-48359523D01*
X184130952Y-48530952D01*
X183730952Y-48016666D02*
X183730952Y-48207142D01*
X183921428Y-48226190D01*
X183902380Y-48207142D01*
X183883333Y-48169047D01*
X183883333Y-48073809D01*
X183902380Y-48035714D01*
X183921428Y-48016666D01*
X183959523Y-47997619D01*
X184054761Y-47997619D01*
X184092857Y-48016666D01*
X184111904Y-48035714D01*
X184130952Y-48073809D01*
X184130952Y-48169047D01*
X184111904Y-48207142D01*
X184092857Y-48226190D01*
X183864285Y-47654761D02*
X184130952Y-47654761D01*
X183711904Y-47750000D02*
X183997619Y-47845238D01*
X183997619Y-47597619D01*
X183730952Y-47483333D02*
X183730952Y-47235714D01*
X183883333Y-47369047D01*
X183883333Y-47311904D01*
X183902380Y-47273809D01*
X183921428Y-47254761D01*
X183959523Y-47235714D01*
X184054761Y-47235714D01*
X184092857Y-47254761D01*
X184111904Y-47273809D01*
X184130952Y-47311904D01*
X184130952Y-47426190D01*
X184111904Y-47464285D01*
X184092857Y-47483333D01*
X183902380Y-47007142D02*
X183883333Y-47045238D01*
X183864285Y-47064285D01*
X183826190Y-47083333D01*
X183807142Y-47083333D01*
X183769047Y-47064285D01*
X183750000Y-47045238D01*
X183730952Y-47007142D01*
X183730952Y-46930952D01*
X183750000Y-46892857D01*
X183769047Y-46873809D01*
X183807142Y-46854761D01*
X183826190Y-46854761D01*
X183864285Y-46873809D01*
X183883333Y-46892857D01*
X183902380Y-46930952D01*
X183902380Y-47007142D01*
X183921428Y-47045238D01*
X183940476Y-47064285D01*
X183978571Y-47083333D01*
X184054761Y-47083333D01*
X184092857Y-47064285D01*
X184111904Y-47045238D01*
X184130952Y-47007142D01*
X184130952Y-46930952D01*
X184111904Y-46892857D01*
X184092857Y-46873809D01*
X184054761Y-46854761D01*
X183978571Y-46854761D01*
X183940476Y-46873809D01*
X183921428Y-46892857D01*
X183902380Y-46930952D01*
X183730952Y-46721428D02*
X184130952Y-46626190D01*
X183845238Y-46550000D01*
X184130952Y-46473809D01*
X183730952Y-46378571D01*
X183730952Y-46283333D02*
X183730952Y-46054761D01*
X184130952Y-46169047D02*
X183730952Y-46169047D01*
X183730952Y-45978571D02*
X183730952Y-45750000D01*
X184130952Y-45864285D02*
X183730952Y-45864285D01*
D10*
X186453900Y-44886980D02*
X186453900Y-45125076D01*
X186215804Y-45029838D02*
X186453900Y-45125076D01*
X186691995Y-45029838D01*
X186311042Y-45315552D02*
X186453900Y-45125076D01*
X186596757Y-45315552D01*
X186453900Y-44886980D02*
X186453900Y-45125076D01*
X186215804Y-45029838D02*
X186453900Y-45125076D01*
X186691995Y-45029838D01*
X186311042Y-45315552D02*
X186453900Y-45125076D01*
X186596757Y-45315552D01*
%TO.C,H4*%
X214714285Y-114052380D02*
X214714285Y-113052380D01*
X215047619Y-113766666D01*
X215380952Y-113052380D01*
X215380952Y-114052380D01*
X216000000Y-114052380D02*
X215904761Y-114004761D01*
X215857142Y-113957142D01*
X215809523Y-113861904D01*
X215809523Y-113576190D01*
X215857142Y-113480952D01*
X215904761Y-113433333D01*
X216000000Y-113385714D01*
X216142857Y-113385714D01*
X216238095Y-113433333D01*
X216285714Y-113480952D01*
X216333333Y-113576190D01*
X216333333Y-113861904D01*
X216285714Y-113957142D01*
X216238095Y-114004761D01*
X216142857Y-114052380D01*
X216000000Y-114052380D01*
X217190476Y-113385714D02*
X217190476Y-114052380D01*
X216761904Y-113385714D02*
X216761904Y-113909523D01*
X216809523Y-114004761D01*
X216904761Y-114052380D01*
X217047619Y-114052380D01*
X217142857Y-114004761D01*
X217190476Y-113957142D01*
X217666666Y-113385714D02*
X217666666Y-114052380D01*
X217666666Y-113480952D02*
X217714285Y-113433333D01*
X217809523Y-113385714D01*
X217952380Y-113385714D01*
X218047619Y-113433333D01*
X218095238Y-113528571D01*
X218095238Y-114052380D01*
X218428571Y-113385714D02*
X218809523Y-113385714D01*
X218571428Y-113052380D02*
X218571428Y-113909523D01*
X218619047Y-114004761D01*
X218714285Y-114052380D01*
X218809523Y-114052380D01*
X219142857Y-114052380D02*
X219142857Y-113385714D01*
X219142857Y-113052380D02*
X219095238Y-113100000D01*
X219142857Y-113147619D01*
X219190476Y-113100000D01*
X219142857Y-113052380D01*
X219142857Y-113147619D01*
X219619047Y-113385714D02*
X219619047Y-114052380D01*
X219619047Y-113480952D02*
X219666666Y-113433333D01*
X219761904Y-113385714D01*
X219904761Y-113385714D01*
X220000000Y-113433333D01*
X220047619Y-113528571D01*
X220047619Y-114052380D01*
X220952380Y-113385714D02*
X220952380Y-114195238D01*
X220904761Y-114290476D01*
X220857142Y-114338095D01*
X220761904Y-114385714D01*
X220619047Y-114385714D01*
X220523809Y-114338095D01*
X220952380Y-114004761D02*
X220857142Y-114052380D01*
X220666666Y-114052380D01*
X220571428Y-114004761D01*
X220523809Y-113957142D01*
X220476190Y-113861904D01*
X220476190Y-113576190D01*
X220523809Y-113480952D01*
X220571428Y-113433333D01*
X220666666Y-113385714D01*
X220857142Y-113385714D01*
X220952380Y-113433333D01*
X221428571Y-114052380D02*
X221428571Y-113052380D01*
X221428571Y-113528571D02*
X222000000Y-113528571D01*
X222000000Y-114052380D02*
X222000000Y-113052380D01*
X222619047Y-114052380D02*
X222523809Y-114004761D01*
X222476190Y-113957142D01*
X222428571Y-113861904D01*
X222428571Y-113576190D01*
X222476190Y-113480952D01*
X222523809Y-113433333D01*
X222619047Y-113385714D01*
X222761904Y-113385714D01*
X222857142Y-113433333D01*
X222904761Y-113480952D01*
X222952380Y-113576190D01*
X222952380Y-113861904D01*
X222904761Y-113957142D01*
X222857142Y-114004761D01*
X222761904Y-114052380D01*
X222619047Y-114052380D01*
X223523809Y-114052380D02*
X223428571Y-114004761D01*
X223380952Y-113909523D01*
X223380952Y-113052380D01*
X224285714Y-114004761D02*
X224190476Y-114052380D01*
X224000000Y-114052380D01*
X223904761Y-114004761D01*
X223857142Y-113909523D01*
X223857142Y-113528571D01*
X223904761Y-113433333D01*
X224000000Y-113385714D01*
X224190476Y-113385714D01*
X224285714Y-113433333D01*
X224333333Y-113528571D01*
X224333333Y-113623809D01*
X223857142Y-113719047D01*
X219038095Y-110952380D02*
X219038095Y-109952380D01*
X219038095Y-110428571D02*
X219609523Y-110428571D01*
X219609523Y-110952380D02*
X219609523Y-109952380D01*
X220514285Y-110285714D02*
X220514285Y-110952380D01*
X220276190Y-109904761D02*
X220038095Y-110619047D01*
X220657142Y-110619047D01*
%TO.C,H3*%
X214714285Y-47052380D02*
X214714285Y-46052380D01*
X215047619Y-46766666D01*
X215380952Y-46052380D01*
X215380952Y-47052380D01*
X216000000Y-47052380D02*
X215904761Y-47004761D01*
X215857142Y-46957142D01*
X215809523Y-46861904D01*
X215809523Y-46576190D01*
X215857142Y-46480952D01*
X215904761Y-46433333D01*
X216000000Y-46385714D01*
X216142857Y-46385714D01*
X216238095Y-46433333D01*
X216285714Y-46480952D01*
X216333333Y-46576190D01*
X216333333Y-46861904D01*
X216285714Y-46957142D01*
X216238095Y-47004761D01*
X216142857Y-47052380D01*
X216000000Y-47052380D01*
X217190476Y-46385714D02*
X217190476Y-47052380D01*
X216761904Y-46385714D02*
X216761904Y-46909523D01*
X216809523Y-47004761D01*
X216904761Y-47052380D01*
X217047619Y-47052380D01*
X217142857Y-47004761D01*
X217190476Y-46957142D01*
X217666666Y-46385714D02*
X217666666Y-47052380D01*
X217666666Y-46480952D02*
X217714285Y-46433333D01*
X217809523Y-46385714D01*
X217952380Y-46385714D01*
X218047619Y-46433333D01*
X218095238Y-46528571D01*
X218095238Y-47052380D01*
X218428571Y-46385714D02*
X218809523Y-46385714D01*
X218571428Y-46052380D02*
X218571428Y-46909523D01*
X218619047Y-47004761D01*
X218714285Y-47052380D01*
X218809523Y-47052380D01*
X219142857Y-47052380D02*
X219142857Y-46385714D01*
X219142857Y-46052380D02*
X219095238Y-46100000D01*
X219142857Y-46147619D01*
X219190476Y-46100000D01*
X219142857Y-46052380D01*
X219142857Y-46147619D01*
X219619047Y-46385714D02*
X219619047Y-47052380D01*
X219619047Y-46480952D02*
X219666666Y-46433333D01*
X219761904Y-46385714D01*
X219904761Y-46385714D01*
X220000000Y-46433333D01*
X220047619Y-46528571D01*
X220047619Y-47052380D01*
X220952380Y-46385714D02*
X220952380Y-47195238D01*
X220904761Y-47290476D01*
X220857142Y-47338095D01*
X220761904Y-47385714D01*
X220619047Y-47385714D01*
X220523809Y-47338095D01*
X220952380Y-47004761D02*
X220857142Y-47052380D01*
X220666666Y-47052380D01*
X220571428Y-47004761D01*
X220523809Y-46957142D01*
X220476190Y-46861904D01*
X220476190Y-46576190D01*
X220523809Y-46480952D01*
X220571428Y-46433333D01*
X220666666Y-46385714D01*
X220857142Y-46385714D01*
X220952380Y-46433333D01*
X221428571Y-47052380D02*
X221428571Y-46052380D01*
X221428571Y-46528571D02*
X222000000Y-46528571D01*
X222000000Y-47052380D02*
X222000000Y-46052380D01*
X222619047Y-47052380D02*
X222523809Y-47004761D01*
X222476190Y-46957142D01*
X222428571Y-46861904D01*
X222428571Y-46576190D01*
X222476190Y-46480952D01*
X222523809Y-46433333D01*
X222619047Y-46385714D01*
X222761904Y-46385714D01*
X222857142Y-46433333D01*
X222904761Y-46480952D01*
X222952380Y-46576190D01*
X222952380Y-46861904D01*
X222904761Y-46957142D01*
X222857142Y-47004761D01*
X222761904Y-47052380D01*
X222619047Y-47052380D01*
X223523809Y-47052380D02*
X223428571Y-47004761D01*
X223380952Y-46909523D01*
X223380952Y-46052380D01*
X224285714Y-47004761D02*
X224190476Y-47052380D01*
X224000000Y-47052380D01*
X223904761Y-47004761D01*
X223857142Y-46909523D01*
X223857142Y-46528571D01*
X223904761Y-46433333D01*
X224000000Y-46385714D01*
X224190476Y-46385714D01*
X224285714Y-46433333D01*
X224333333Y-46528571D01*
X224333333Y-46623809D01*
X223857142Y-46719047D01*
X219038095Y-43952380D02*
X219038095Y-42952380D01*
X219038095Y-43428571D02*
X219609523Y-43428571D01*
X219609523Y-43952380D02*
X219609523Y-42952380D01*
X219990476Y-42952380D02*
X220609523Y-42952380D01*
X220276190Y-43333333D01*
X220419047Y-43333333D01*
X220514285Y-43380952D01*
X220561904Y-43428571D01*
X220609523Y-43523809D01*
X220609523Y-43761904D01*
X220561904Y-43857142D01*
X220514285Y-43904761D01*
X220419047Y-43952380D01*
X220133333Y-43952380D01*
X220038095Y-43904761D01*
X219990476Y-43857142D01*
%TO.C,H2*%
X155714285Y-114052380D02*
X155714285Y-113052380D01*
X156047619Y-113766666D01*
X156380952Y-113052380D01*
X156380952Y-114052380D01*
X157000000Y-114052380D02*
X156904761Y-114004761D01*
X156857142Y-113957142D01*
X156809523Y-113861904D01*
X156809523Y-113576190D01*
X156857142Y-113480952D01*
X156904761Y-113433333D01*
X157000000Y-113385714D01*
X157142857Y-113385714D01*
X157238095Y-113433333D01*
X157285714Y-113480952D01*
X157333333Y-113576190D01*
X157333333Y-113861904D01*
X157285714Y-113957142D01*
X157238095Y-114004761D01*
X157142857Y-114052380D01*
X157000000Y-114052380D01*
X158190476Y-113385714D02*
X158190476Y-114052380D01*
X157761904Y-113385714D02*
X157761904Y-113909523D01*
X157809523Y-114004761D01*
X157904761Y-114052380D01*
X158047619Y-114052380D01*
X158142857Y-114004761D01*
X158190476Y-113957142D01*
X158666666Y-113385714D02*
X158666666Y-114052380D01*
X158666666Y-113480952D02*
X158714285Y-113433333D01*
X158809523Y-113385714D01*
X158952380Y-113385714D01*
X159047619Y-113433333D01*
X159095238Y-113528571D01*
X159095238Y-114052380D01*
X159428571Y-113385714D02*
X159809523Y-113385714D01*
X159571428Y-113052380D02*
X159571428Y-113909523D01*
X159619047Y-114004761D01*
X159714285Y-114052380D01*
X159809523Y-114052380D01*
X160142857Y-114052380D02*
X160142857Y-113385714D01*
X160142857Y-113052380D02*
X160095238Y-113100000D01*
X160142857Y-113147619D01*
X160190476Y-113100000D01*
X160142857Y-113052380D01*
X160142857Y-113147619D01*
X160619047Y-113385714D02*
X160619047Y-114052380D01*
X160619047Y-113480952D02*
X160666666Y-113433333D01*
X160761904Y-113385714D01*
X160904761Y-113385714D01*
X161000000Y-113433333D01*
X161047619Y-113528571D01*
X161047619Y-114052380D01*
X161952380Y-113385714D02*
X161952380Y-114195238D01*
X161904761Y-114290476D01*
X161857142Y-114338095D01*
X161761904Y-114385714D01*
X161619047Y-114385714D01*
X161523809Y-114338095D01*
X161952380Y-114004761D02*
X161857142Y-114052380D01*
X161666666Y-114052380D01*
X161571428Y-114004761D01*
X161523809Y-113957142D01*
X161476190Y-113861904D01*
X161476190Y-113576190D01*
X161523809Y-113480952D01*
X161571428Y-113433333D01*
X161666666Y-113385714D01*
X161857142Y-113385714D01*
X161952380Y-113433333D01*
X162428571Y-114052380D02*
X162428571Y-113052380D01*
X162428571Y-113528571D02*
X163000000Y-113528571D01*
X163000000Y-114052380D02*
X163000000Y-113052380D01*
X163619047Y-114052380D02*
X163523809Y-114004761D01*
X163476190Y-113957142D01*
X163428571Y-113861904D01*
X163428571Y-113576190D01*
X163476190Y-113480952D01*
X163523809Y-113433333D01*
X163619047Y-113385714D01*
X163761904Y-113385714D01*
X163857142Y-113433333D01*
X163904761Y-113480952D01*
X163952380Y-113576190D01*
X163952380Y-113861904D01*
X163904761Y-113957142D01*
X163857142Y-114004761D01*
X163761904Y-114052380D01*
X163619047Y-114052380D01*
X164523809Y-114052380D02*
X164428571Y-114004761D01*
X164380952Y-113909523D01*
X164380952Y-113052380D01*
X165285714Y-114004761D02*
X165190476Y-114052380D01*
X165000000Y-114052380D01*
X164904761Y-114004761D01*
X164857142Y-113909523D01*
X164857142Y-113528571D01*
X164904761Y-113433333D01*
X165000000Y-113385714D01*
X165190476Y-113385714D01*
X165285714Y-113433333D01*
X165333333Y-113528571D01*
X165333333Y-113623809D01*
X164857142Y-113719047D01*
X160038095Y-110952380D02*
X160038095Y-109952380D01*
X160038095Y-110428571D02*
X160609523Y-110428571D01*
X160609523Y-110952380D02*
X160609523Y-109952380D01*
X161038095Y-110047619D02*
X161085714Y-110000000D01*
X161180952Y-109952380D01*
X161419047Y-109952380D01*
X161514285Y-110000000D01*
X161561904Y-110047619D01*
X161609523Y-110142857D01*
X161609523Y-110238095D01*
X161561904Y-110380952D01*
X160990476Y-110952380D01*
X161609523Y-110952380D01*
%TO.C,H1*%
X155714285Y-47052380D02*
X155714285Y-46052380D01*
X156047619Y-46766666D01*
X156380952Y-46052380D01*
X156380952Y-47052380D01*
X157000000Y-47052380D02*
X156904761Y-47004761D01*
X156857142Y-46957142D01*
X156809523Y-46861904D01*
X156809523Y-46576190D01*
X156857142Y-46480952D01*
X156904761Y-46433333D01*
X157000000Y-46385714D01*
X157142857Y-46385714D01*
X157238095Y-46433333D01*
X157285714Y-46480952D01*
X157333333Y-46576190D01*
X157333333Y-46861904D01*
X157285714Y-46957142D01*
X157238095Y-47004761D01*
X157142857Y-47052380D01*
X157000000Y-47052380D01*
X158190476Y-46385714D02*
X158190476Y-47052380D01*
X157761904Y-46385714D02*
X157761904Y-46909523D01*
X157809523Y-47004761D01*
X157904761Y-47052380D01*
X158047619Y-47052380D01*
X158142857Y-47004761D01*
X158190476Y-46957142D01*
X158666666Y-46385714D02*
X158666666Y-47052380D01*
X158666666Y-46480952D02*
X158714285Y-46433333D01*
X158809523Y-46385714D01*
X158952380Y-46385714D01*
X159047619Y-46433333D01*
X159095238Y-46528571D01*
X159095238Y-47052380D01*
X159428571Y-46385714D02*
X159809523Y-46385714D01*
X159571428Y-46052380D02*
X159571428Y-46909523D01*
X159619047Y-47004761D01*
X159714285Y-47052380D01*
X159809523Y-47052380D01*
X160142857Y-47052380D02*
X160142857Y-46385714D01*
X160142857Y-46052380D02*
X160095238Y-46100000D01*
X160142857Y-46147619D01*
X160190476Y-46100000D01*
X160142857Y-46052380D01*
X160142857Y-46147619D01*
X160619047Y-46385714D02*
X160619047Y-47052380D01*
X160619047Y-46480952D02*
X160666666Y-46433333D01*
X160761904Y-46385714D01*
X160904761Y-46385714D01*
X161000000Y-46433333D01*
X161047619Y-46528571D01*
X161047619Y-47052380D01*
X161952380Y-46385714D02*
X161952380Y-47195238D01*
X161904761Y-47290476D01*
X161857142Y-47338095D01*
X161761904Y-47385714D01*
X161619047Y-47385714D01*
X161523809Y-47338095D01*
X161952380Y-47004761D02*
X161857142Y-47052380D01*
X161666666Y-47052380D01*
X161571428Y-47004761D01*
X161523809Y-46957142D01*
X161476190Y-46861904D01*
X161476190Y-46576190D01*
X161523809Y-46480952D01*
X161571428Y-46433333D01*
X161666666Y-46385714D01*
X161857142Y-46385714D01*
X161952380Y-46433333D01*
X162428571Y-47052380D02*
X162428571Y-46052380D01*
X162428571Y-46528571D02*
X163000000Y-46528571D01*
X163000000Y-47052380D02*
X163000000Y-46052380D01*
X163619047Y-47052380D02*
X163523809Y-47004761D01*
X163476190Y-46957142D01*
X163428571Y-46861904D01*
X163428571Y-46576190D01*
X163476190Y-46480952D01*
X163523809Y-46433333D01*
X163619047Y-46385714D01*
X163761904Y-46385714D01*
X163857142Y-46433333D01*
X163904761Y-46480952D01*
X163952380Y-46576190D01*
X163952380Y-46861904D01*
X163904761Y-46957142D01*
X163857142Y-47004761D01*
X163761904Y-47052380D01*
X163619047Y-47052380D01*
X164523809Y-47052380D02*
X164428571Y-47004761D01*
X164380952Y-46909523D01*
X164380952Y-46052380D01*
X165285714Y-47004761D02*
X165190476Y-47052380D01*
X165000000Y-47052380D01*
X164904761Y-47004761D01*
X164857142Y-46909523D01*
X164857142Y-46528571D01*
X164904761Y-46433333D01*
X165000000Y-46385714D01*
X165190476Y-46385714D01*
X165285714Y-46433333D01*
X165333333Y-46528571D01*
X165333333Y-46623809D01*
X164857142Y-46719047D01*
X160038095Y-43952380D02*
X160038095Y-42952380D01*
X160038095Y-43428571D02*
X160609523Y-43428571D01*
X160609523Y-43952380D02*
X160609523Y-42952380D01*
X161609523Y-43952380D02*
X161038095Y-43952380D01*
X161323809Y-43952380D02*
X161323809Y-42952380D01*
X161228571Y-43095238D01*
X161133333Y-43190476D01*
X161038095Y-43238095D01*
%TO.C,FID3*%
X217119047Y-100928571D02*
X216785714Y-100928571D01*
X216785714Y-101452380D02*
X216785714Y-100452380D01*
X217261904Y-100452380D01*
X217642857Y-101452380D02*
X217642857Y-100785714D01*
X217642857Y-100452380D02*
X217595238Y-100500000D01*
X217642857Y-100547619D01*
X217690476Y-100500000D01*
X217642857Y-100452380D01*
X217642857Y-100547619D01*
X218547619Y-101452380D02*
X218547619Y-100452380D01*
X218547619Y-101404761D02*
X218452380Y-101452380D01*
X218261904Y-101452380D01*
X218166666Y-101404761D01*
X218119047Y-101357142D01*
X218071428Y-101261904D01*
X218071428Y-100976190D01*
X218119047Y-100880952D01*
X218166666Y-100833333D01*
X218261904Y-100785714D01*
X218452380Y-100785714D01*
X218547619Y-100833333D01*
X219452380Y-100785714D02*
X219452380Y-101452380D01*
X219023809Y-100785714D02*
X219023809Y-101309523D01*
X219071428Y-101404761D01*
X219166666Y-101452380D01*
X219309523Y-101452380D01*
X219404761Y-101404761D01*
X219452380Y-101357142D01*
X220357142Y-101404761D02*
X220261904Y-101452380D01*
X220071428Y-101452380D01*
X219976190Y-101404761D01*
X219928571Y-101357142D01*
X219880952Y-101261904D01*
X219880952Y-100976190D01*
X219928571Y-100880952D01*
X219976190Y-100833333D01*
X220071428Y-100785714D01*
X220261904Y-100785714D01*
X220357142Y-100833333D01*
X220785714Y-101452380D02*
X220785714Y-100785714D01*
X220785714Y-100452380D02*
X220738095Y-100500000D01*
X220785714Y-100547619D01*
X220833333Y-100500000D01*
X220785714Y-100452380D01*
X220785714Y-100547619D01*
X221690476Y-101452380D02*
X221690476Y-100928571D01*
X221642857Y-100833333D01*
X221547619Y-100785714D01*
X221357142Y-100785714D01*
X221261904Y-100833333D01*
X221690476Y-101404761D02*
X221595238Y-101452380D01*
X221357142Y-101452380D01*
X221261904Y-101404761D01*
X221214285Y-101309523D01*
X221214285Y-101214285D01*
X221261904Y-101119047D01*
X221357142Y-101071428D01*
X221595238Y-101071428D01*
X221690476Y-101023809D01*
X222309523Y-101452380D02*
X222214285Y-101404761D01*
X222166666Y-101309523D01*
X222166666Y-100452380D01*
D12*
X219071428Y-98971428D02*
X218938095Y-98971428D01*
X218938095Y-99180952D02*
X218938095Y-98780952D01*
X219128571Y-98780952D01*
X219280952Y-99180952D02*
X219280952Y-98780952D01*
X219471428Y-99180952D02*
X219471428Y-98780952D01*
X219566666Y-98780952D01*
X219623809Y-98800000D01*
X219661904Y-98838095D01*
X219680952Y-98876190D01*
X219700000Y-98952380D01*
X219700000Y-99009523D01*
X219680952Y-99085714D01*
X219661904Y-99123809D01*
X219623809Y-99161904D01*
X219566666Y-99180952D01*
X219471428Y-99180952D01*
X219833333Y-98780952D02*
X220080952Y-98780952D01*
X219947619Y-98933333D01*
X220004761Y-98933333D01*
X220042857Y-98952380D01*
X220061904Y-98971428D01*
X220080952Y-99009523D01*
X220080952Y-99104761D01*
X220061904Y-99142857D01*
X220042857Y-99161904D01*
X220004761Y-99180952D01*
X219890476Y-99180952D01*
X219852380Y-99161904D01*
X219833333Y-99142857D01*
%TO.C,FID2*%
D10*
X217119047Y-82928571D02*
X216785714Y-82928571D01*
X216785714Y-83452380D02*
X216785714Y-82452380D01*
X217261904Y-82452380D01*
X217642857Y-83452380D02*
X217642857Y-82785714D01*
X217642857Y-82452380D02*
X217595238Y-82500000D01*
X217642857Y-82547619D01*
X217690476Y-82500000D01*
X217642857Y-82452380D01*
X217642857Y-82547619D01*
X218547619Y-83452380D02*
X218547619Y-82452380D01*
X218547619Y-83404761D02*
X218452380Y-83452380D01*
X218261904Y-83452380D01*
X218166666Y-83404761D01*
X218119047Y-83357142D01*
X218071428Y-83261904D01*
X218071428Y-82976190D01*
X218119047Y-82880952D01*
X218166666Y-82833333D01*
X218261904Y-82785714D01*
X218452380Y-82785714D01*
X218547619Y-82833333D01*
X219452380Y-82785714D02*
X219452380Y-83452380D01*
X219023809Y-82785714D02*
X219023809Y-83309523D01*
X219071428Y-83404761D01*
X219166666Y-83452380D01*
X219309523Y-83452380D01*
X219404761Y-83404761D01*
X219452380Y-83357142D01*
X220357142Y-83404761D02*
X220261904Y-83452380D01*
X220071428Y-83452380D01*
X219976190Y-83404761D01*
X219928571Y-83357142D01*
X219880952Y-83261904D01*
X219880952Y-82976190D01*
X219928571Y-82880952D01*
X219976190Y-82833333D01*
X220071428Y-82785714D01*
X220261904Y-82785714D01*
X220357142Y-82833333D01*
X220785714Y-83452380D02*
X220785714Y-82785714D01*
X220785714Y-82452380D02*
X220738095Y-82500000D01*
X220785714Y-82547619D01*
X220833333Y-82500000D01*
X220785714Y-82452380D01*
X220785714Y-82547619D01*
X221690476Y-83452380D02*
X221690476Y-82928571D01*
X221642857Y-82833333D01*
X221547619Y-82785714D01*
X221357142Y-82785714D01*
X221261904Y-82833333D01*
X221690476Y-83404761D02*
X221595238Y-83452380D01*
X221357142Y-83452380D01*
X221261904Y-83404761D01*
X221214285Y-83309523D01*
X221214285Y-83214285D01*
X221261904Y-83119047D01*
X221357142Y-83071428D01*
X221595238Y-83071428D01*
X221690476Y-83023809D01*
X222309523Y-83452380D02*
X222214285Y-83404761D01*
X222166666Y-83309523D01*
X222166666Y-82452380D01*
D12*
X219071428Y-80971428D02*
X218938095Y-80971428D01*
X218938095Y-81180952D02*
X218938095Y-80780952D01*
X219128571Y-80780952D01*
X219280952Y-81180952D02*
X219280952Y-80780952D01*
X219471428Y-81180952D02*
X219471428Y-80780952D01*
X219566666Y-80780952D01*
X219623809Y-80800000D01*
X219661904Y-80838095D01*
X219680952Y-80876190D01*
X219700000Y-80952380D01*
X219700000Y-81009523D01*
X219680952Y-81085714D01*
X219661904Y-81123809D01*
X219623809Y-81161904D01*
X219566666Y-81180952D01*
X219471428Y-81180952D01*
X219852380Y-80819047D02*
X219871428Y-80800000D01*
X219909523Y-80780952D01*
X220004761Y-80780952D01*
X220042857Y-80800000D01*
X220061904Y-80819047D01*
X220080952Y-80857142D01*
X220080952Y-80895238D01*
X220061904Y-80952380D01*
X219833333Y-81180952D01*
X220080952Y-81180952D01*
%TO.C,FID1*%
D10*
X158119047Y-87928571D02*
X157785714Y-87928571D01*
X157785714Y-88452380D02*
X157785714Y-87452380D01*
X158261904Y-87452380D01*
X158642857Y-88452380D02*
X158642857Y-87785714D01*
X158642857Y-87452380D02*
X158595238Y-87500000D01*
X158642857Y-87547619D01*
X158690476Y-87500000D01*
X158642857Y-87452380D01*
X158642857Y-87547619D01*
X159547619Y-88452380D02*
X159547619Y-87452380D01*
X159547619Y-88404761D02*
X159452380Y-88452380D01*
X159261904Y-88452380D01*
X159166666Y-88404761D01*
X159119047Y-88357142D01*
X159071428Y-88261904D01*
X159071428Y-87976190D01*
X159119047Y-87880952D01*
X159166666Y-87833333D01*
X159261904Y-87785714D01*
X159452380Y-87785714D01*
X159547619Y-87833333D01*
X160452380Y-87785714D02*
X160452380Y-88452380D01*
X160023809Y-87785714D02*
X160023809Y-88309523D01*
X160071428Y-88404761D01*
X160166666Y-88452380D01*
X160309523Y-88452380D01*
X160404761Y-88404761D01*
X160452380Y-88357142D01*
X161357142Y-88404761D02*
X161261904Y-88452380D01*
X161071428Y-88452380D01*
X160976190Y-88404761D01*
X160928571Y-88357142D01*
X160880952Y-88261904D01*
X160880952Y-87976190D01*
X160928571Y-87880952D01*
X160976190Y-87833333D01*
X161071428Y-87785714D01*
X161261904Y-87785714D01*
X161357142Y-87833333D01*
X161785714Y-88452380D02*
X161785714Y-87785714D01*
X161785714Y-87452380D02*
X161738095Y-87500000D01*
X161785714Y-87547619D01*
X161833333Y-87500000D01*
X161785714Y-87452380D01*
X161785714Y-87547619D01*
X162690476Y-88452380D02*
X162690476Y-87928571D01*
X162642857Y-87833333D01*
X162547619Y-87785714D01*
X162357142Y-87785714D01*
X162261904Y-87833333D01*
X162690476Y-88404761D02*
X162595238Y-88452380D01*
X162357142Y-88452380D01*
X162261904Y-88404761D01*
X162214285Y-88309523D01*
X162214285Y-88214285D01*
X162261904Y-88119047D01*
X162357142Y-88071428D01*
X162595238Y-88071428D01*
X162690476Y-88023809D01*
X163309523Y-88452380D02*
X163214285Y-88404761D01*
X163166666Y-88309523D01*
X163166666Y-87452380D01*
D12*
X160071428Y-85971428D02*
X159938095Y-85971428D01*
X159938095Y-86180952D02*
X159938095Y-85780952D01*
X160128571Y-85780952D01*
X160280952Y-86180952D02*
X160280952Y-85780952D01*
X160471428Y-86180952D02*
X160471428Y-85780952D01*
X160566666Y-85780952D01*
X160623809Y-85800000D01*
X160661904Y-85838095D01*
X160680952Y-85876190D01*
X160700000Y-85952380D01*
X160700000Y-86009523D01*
X160680952Y-86085714D01*
X160661904Y-86123809D01*
X160623809Y-86161904D01*
X160566666Y-86180952D01*
X160471428Y-86180952D01*
X161080952Y-86180952D02*
X160852380Y-86180952D01*
X160966666Y-86180952D02*
X160966666Y-85780952D01*
X160928571Y-85838095D01*
X160890476Y-85876190D01*
X160852380Y-85895238D01*
%TO.C,U4*%
D11*
X176430952Y-88819047D02*
X176030952Y-88819047D01*
X176411904Y-88647619D02*
X176430952Y-88590476D01*
X176430952Y-88495238D01*
X176411904Y-88457142D01*
X176392857Y-88438095D01*
X176354761Y-88419047D01*
X176316666Y-88419047D01*
X176278571Y-88438095D01*
X176259523Y-88457142D01*
X176240476Y-88495238D01*
X176221428Y-88571428D01*
X176202380Y-88609523D01*
X176183333Y-88628571D01*
X176145238Y-88647619D01*
X176107142Y-88647619D01*
X176069047Y-88628571D01*
X176050000Y-88609523D01*
X176030952Y-88571428D01*
X176030952Y-88476190D01*
X176050000Y-88419047D01*
X176030952Y-88285714D02*
X176030952Y-88038095D01*
X176183333Y-88171428D01*
X176183333Y-88114285D01*
X176202380Y-88076190D01*
X176221428Y-88057142D01*
X176259523Y-88038095D01*
X176354761Y-88038095D01*
X176392857Y-88057142D01*
X176411904Y-88076190D01*
X176430952Y-88114285D01*
X176430952Y-88228571D01*
X176411904Y-88266666D01*
X176392857Y-88285714D01*
X176430952Y-87657142D02*
X176430952Y-87885714D01*
X176430952Y-87771428D02*
X176030952Y-87771428D01*
X176088095Y-87809523D01*
X176126190Y-87847619D01*
X176145238Y-87885714D01*
X176221428Y-87352380D02*
X176221428Y-87485714D01*
X176430952Y-87485714D02*
X176030952Y-87485714D01*
X176030952Y-87295238D01*
X176430952Y-86952380D02*
X176430952Y-87142857D01*
X176030952Y-87142857D01*
X176030952Y-86857142D02*
X176030952Y-86609523D01*
X176183333Y-86742857D01*
X176183333Y-86685714D01*
X176202380Y-86647619D01*
X176221428Y-86628571D01*
X176259523Y-86609523D01*
X176354761Y-86609523D01*
X176392857Y-86628571D01*
X176411904Y-86647619D01*
X176430952Y-86685714D01*
X176430952Y-86800000D01*
X176411904Y-86838095D01*
X176392857Y-86857142D01*
X176030952Y-86476190D02*
X176030952Y-86209523D01*
X176430952Y-86380952D01*
X176030952Y-86095238D02*
X176030952Y-85847619D01*
X176183333Y-85980952D01*
X176183333Y-85923809D01*
X176202380Y-85885714D01*
X176221428Y-85866666D01*
X176259523Y-85847619D01*
X176354761Y-85847619D01*
X176392857Y-85866666D01*
X176411904Y-85885714D01*
X176430952Y-85923809D01*
X176430952Y-86038095D01*
X176411904Y-86076190D01*
X176392857Y-86095238D01*
X176430952Y-85466666D02*
X176430952Y-85695238D01*
X176430952Y-85580952D02*
X176030952Y-85580952D01*
X176088095Y-85619047D01*
X176126190Y-85657142D01*
X176145238Y-85695238D01*
X176278571Y-85295238D02*
X176278571Y-84990476D01*
X176411904Y-84819047D02*
X176430952Y-84761904D01*
X176430952Y-84666666D01*
X176411904Y-84628571D01*
X176392857Y-84609523D01*
X176354761Y-84590476D01*
X176316666Y-84590476D01*
X176278571Y-84609523D01*
X176259523Y-84628571D01*
X176240476Y-84666666D01*
X176221428Y-84742857D01*
X176202380Y-84780952D01*
X176183333Y-84800000D01*
X176145238Y-84819047D01*
X176107142Y-84819047D01*
X176069047Y-84800000D01*
X176050000Y-84780952D01*
X176030952Y-84742857D01*
X176030952Y-84647619D01*
X176050000Y-84590476D01*
X176316666Y-84438095D02*
X176316666Y-84247619D01*
X176430952Y-84476190D02*
X176030952Y-84342857D01*
X176430952Y-84209523D01*
X176430952Y-83885714D02*
X176430952Y-84076190D01*
X176030952Y-84076190D01*
X176411904Y-83771428D02*
X176430952Y-83714285D01*
X176430952Y-83619047D01*
X176411904Y-83580952D01*
X176392857Y-83561904D01*
X176354761Y-83542857D01*
X176316666Y-83542857D01*
X176278571Y-83561904D01*
X176259523Y-83580952D01*
X176240476Y-83619047D01*
X176221428Y-83695238D01*
X176202380Y-83733333D01*
X176183333Y-83752380D01*
X176145238Y-83771428D01*
X176107142Y-83771428D01*
X176069047Y-83752380D01*
X176050000Y-83733333D01*
X176030952Y-83695238D01*
X176030952Y-83600000D01*
X176050000Y-83542857D01*
X176069047Y-83390476D02*
X176050000Y-83371428D01*
X176030952Y-83333333D01*
X176030952Y-83238095D01*
X176050000Y-83200000D01*
X176069047Y-83180952D01*
X176107142Y-83161904D01*
X176145238Y-83161904D01*
X176202380Y-83180952D01*
X176430952Y-83409523D01*
X176430952Y-83161904D01*
D10*
X169561904Y-86609523D02*
X170209523Y-86609523D01*
X170285714Y-86571428D01*
X170323809Y-86533333D01*
X170361904Y-86457142D01*
X170361904Y-86304761D01*
X170323809Y-86228571D01*
X170285714Y-86190476D01*
X170209523Y-86152380D01*
X169561904Y-86152380D01*
X169828571Y-85428571D02*
X170361904Y-85428571D01*
X169523809Y-85619047D02*
X170095238Y-85809523D01*
X170095238Y-85314285D01*
%TO.C,U2*%
X208440595Y-97252380D02*
X208440595Y-98061904D01*
X208488214Y-98157142D01*
X208535833Y-98204761D01*
X208631071Y-98252380D01*
X208821547Y-98252380D01*
X208916785Y-98204761D01*
X208964404Y-98157142D01*
X209012023Y-98061904D01*
X209012023Y-97252380D01*
X209440595Y-97347619D02*
X209488214Y-97300000D01*
X209583452Y-97252380D01*
X209821547Y-97252380D01*
X209916785Y-97300000D01*
X209964404Y-97347619D01*
X210012023Y-97442857D01*
X210012023Y-97538095D01*
X209964404Y-97680952D01*
X209392976Y-98252380D01*
X210012023Y-98252380D01*
D11*
X211980952Y-100254761D02*
X211580952Y-100254761D01*
X211866666Y-100121428D01*
X211580952Y-99988095D01*
X211980952Y-99988095D01*
X211980952Y-99797619D02*
X211580952Y-99797619D01*
X211942857Y-99378571D02*
X211961904Y-99397619D01*
X211980952Y-99454761D01*
X211980952Y-99492857D01*
X211961904Y-99550000D01*
X211923809Y-99588095D01*
X211885714Y-99607142D01*
X211809523Y-99626190D01*
X211752380Y-99626190D01*
X211676190Y-99607142D01*
X211638095Y-99588095D01*
X211600000Y-99550000D01*
X211580952Y-99492857D01*
X211580952Y-99454761D01*
X211600000Y-99397619D01*
X211619047Y-99378571D01*
X211580952Y-99016666D02*
X211580952Y-99207142D01*
X211771428Y-99226190D01*
X211752380Y-99207142D01*
X211733333Y-99169047D01*
X211733333Y-99073809D01*
X211752380Y-99035714D01*
X211771428Y-99016666D01*
X211809523Y-98997619D01*
X211904761Y-98997619D01*
X211942857Y-99016666D01*
X211961904Y-99035714D01*
X211980952Y-99073809D01*
X211980952Y-99169047D01*
X211961904Y-99207142D01*
X211942857Y-99226190D01*
X211619047Y-98845238D02*
X211600000Y-98826190D01*
X211580952Y-98788095D01*
X211580952Y-98692857D01*
X211600000Y-98654761D01*
X211619047Y-98635714D01*
X211657142Y-98616666D01*
X211695238Y-98616666D01*
X211752380Y-98635714D01*
X211980952Y-98864285D01*
X211980952Y-98616666D01*
X211619047Y-98464285D02*
X211600000Y-98445238D01*
X211580952Y-98407142D01*
X211580952Y-98311904D01*
X211600000Y-98273809D01*
X211619047Y-98254761D01*
X211657142Y-98235714D01*
X211695238Y-98235714D01*
X211752380Y-98254761D01*
X211980952Y-98483333D01*
X211980952Y-98235714D01*
X211580952Y-97873809D02*
X211580952Y-98064285D01*
X211771428Y-98083333D01*
X211752380Y-98064285D01*
X211733333Y-98026190D01*
X211733333Y-97930952D01*
X211752380Y-97892857D01*
X211771428Y-97873809D01*
X211809523Y-97854761D01*
X211904761Y-97854761D01*
X211942857Y-97873809D01*
X211961904Y-97892857D01*
X211980952Y-97930952D01*
X211980952Y-98026190D01*
X211961904Y-98064285D01*
X211942857Y-98083333D01*
X211828571Y-97683333D02*
X211828571Y-97378571D01*
X211580952Y-97226190D02*
X211580952Y-96978571D01*
X211733333Y-97111904D01*
X211733333Y-97054761D01*
X211752380Y-97016666D01*
X211771428Y-96997619D01*
X211809523Y-96978571D01*
X211904761Y-96978571D01*
X211942857Y-96997619D01*
X211961904Y-97016666D01*
X211980952Y-97054761D01*
X211980952Y-97169047D01*
X211961904Y-97207142D01*
X211942857Y-97226190D01*
X211942857Y-96807142D02*
X211961904Y-96788095D01*
X211980952Y-96807142D01*
X211961904Y-96826190D01*
X211942857Y-96807142D01*
X211980952Y-96807142D01*
X211580952Y-96654761D02*
X211580952Y-96407142D01*
X211733333Y-96540476D01*
X211733333Y-96483333D01*
X211752380Y-96445238D01*
X211771428Y-96426190D01*
X211809523Y-96407142D01*
X211904761Y-96407142D01*
X211942857Y-96426190D01*
X211961904Y-96445238D01*
X211980952Y-96483333D01*
X211980952Y-96597619D01*
X211961904Y-96635714D01*
X211942857Y-96654761D01*
X211790476Y-96159523D02*
X211980952Y-96159523D01*
X211580952Y-96292857D02*
X211790476Y-96159523D01*
X211580952Y-96026190D01*
X211980952Y-95892857D02*
X211580952Y-95892857D01*
X211866666Y-95759523D01*
X211580952Y-95626190D01*
X211980952Y-95626190D01*
X211580952Y-95245238D02*
X211580952Y-95435714D01*
X211771428Y-95454761D01*
X211752380Y-95435714D01*
X211733333Y-95397619D01*
X211733333Y-95302380D01*
X211752380Y-95264285D01*
X211771428Y-95245238D01*
X211809523Y-95226190D01*
X211904761Y-95226190D01*
X211942857Y-95245238D01*
X211961904Y-95264285D01*
X211980952Y-95302380D01*
X211980952Y-95397619D01*
X211961904Y-95435714D01*
X211942857Y-95454761D01*
%TO.C,SW1*%
D10*
X164610380Y-72944476D02*
X164610380Y-72373047D01*
X165610380Y-72658761D02*
X164610380Y-72658761D01*
X165324666Y-72087333D02*
X165324666Y-71611142D01*
X165610380Y-72182571D02*
X164610380Y-71849238D01*
X165610380Y-71515904D01*
X165515142Y-70611142D02*
X165562761Y-70658761D01*
X165610380Y-70801619D01*
X165610380Y-70896857D01*
X165562761Y-71039714D01*
X165467523Y-71134952D01*
X165372285Y-71182571D01*
X165181809Y-71230190D01*
X165038952Y-71230190D01*
X164848476Y-71182571D01*
X164753238Y-71134952D01*
X164658000Y-71039714D01*
X164610380Y-70896857D01*
X164610380Y-70801619D01*
X164658000Y-70658761D01*
X164705619Y-70611142D01*
X164610380Y-70325428D02*
X164610380Y-69754000D01*
X165610380Y-70039714D02*
X164610380Y-70039714D01*
X165610380Y-69420666D02*
X164610380Y-69420666D01*
X165610380Y-68468285D02*
X165610380Y-68944476D01*
X164610380Y-68944476D01*
X165086571Y-68134952D02*
X165086571Y-67801619D01*
X165610380Y-67658761D02*
X165610380Y-68134952D01*
X164610380Y-68134952D01*
X164610380Y-67658761D01*
X170452380Y-70000000D02*
X170690476Y-70000000D01*
X170595238Y-70238095D02*
X170690476Y-70000000D01*
X170595238Y-69761904D01*
X170880952Y-70142857D02*
X170690476Y-70000000D01*
X170880952Y-69857142D01*
%TO.C,R10*%
D11*
X169819047Y-80454761D02*
X169800000Y-80435714D01*
X169780952Y-80397619D01*
X169780952Y-80302380D01*
X169800000Y-80264285D01*
X169819047Y-80245238D01*
X169857142Y-80226190D01*
X169895238Y-80226190D01*
X169952380Y-80245238D01*
X170180952Y-80473809D01*
X170180952Y-80226190D01*
X169780952Y-79978571D02*
X169780952Y-79940476D01*
X169800000Y-79902380D01*
X169819047Y-79883333D01*
X169857142Y-79864285D01*
X169933333Y-79845238D01*
X170028571Y-79845238D01*
X170104761Y-79864285D01*
X170142857Y-79883333D01*
X170161904Y-79902380D01*
X170180952Y-79940476D01*
X170180952Y-79978571D01*
X170161904Y-80016666D01*
X170142857Y-80035714D01*
X170104761Y-80054761D01*
X170028571Y-80073809D01*
X169933333Y-80073809D01*
X169857142Y-80054761D01*
X169819047Y-80035714D01*
X169800000Y-80016666D01*
X169780952Y-79978571D01*
X170180952Y-79673809D02*
X169780952Y-79673809D01*
X170180952Y-79445238D02*
X169952380Y-79616666D01*
X169780952Y-79445238D02*
X170009523Y-79673809D01*
D12*
X170180952Y-78007142D02*
X169990476Y-78140476D01*
X170180952Y-78235714D02*
X169780952Y-78235714D01*
X169780952Y-78083333D01*
X169800000Y-78045238D01*
X169819047Y-78026190D01*
X169857142Y-78007142D01*
X169914285Y-78007142D01*
X169952380Y-78026190D01*
X169971428Y-78045238D01*
X169990476Y-78083333D01*
X169990476Y-78235714D01*
X170180952Y-77626190D02*
X170180952Y-77854761D01*
X170180952Y-77740476D02*
X169780952Y-77740476D01*
X169838095Y-77778571D01*
X169876190Y-77816666D01*
X169895238Y-77854761D01*
X169780952Y-77378571D02*
X169780952Y-77340476D01*
X169800000Y-77302380D01*
X169819047Y-77283333D01*
X169857142Y-77264285D01*
X169933333Y-77245238D01*
X170028571Y-77245238D01*
X170104761Y-77264285D01*
X170142857Y-77283333D01*
X170161904Y-77302380D01*
X170180952Y-77340476D01*
X170180952Y-77378571D01*
X170161904Y-77416666D01*
X170142857Y-77435714D01*
X170104761Y-77454761D01*
X170028571Y-77473809D01*
X169933333Y-77473809D01*
X169857142Y-77454761D01*
X169819047Y-77435714D01*
X169800000Y-77416666D01*
X169780952Y-77378571D01*
%TO.C,R9*%
D11*
X167919047Y-80554761D02*
X167900000Y-80535714D01*
X167880952Y-80497619D01*
X167880952Y-80402380D01*
X167900000Y-80364285D01*
X167919047Y-80345238D01*
X167957142Y-80326190D01*
X167995238Y-80326190D01*
X168052380Y-80345238D01*
X168280952Y-80573809D01*
X168280952Y-80326190D01*
X167880952Y-80078571D02*
X167880952Y-80040476D01*
X167900000Y-80002380D01*
X167919047Y-79983333D01*
X167957142Y-79964285D01*
X168033333Y-79945238D01*
X168128571Y-79945238D01*
X168204761Y-79964285D01*
X168242857Y-79983333D01*
X168261904Y-80002380D01*
X168280952Y-80040476D01*
X168280952Y-80078571D01*
X168261904Y-80116666D01*
X168242857Y-80135714D01*
X168204761Y-80154761D01*
X168128571Y-80173809D01*
X168033333Y-80173809D01*
X167957142Y-80154761D01*
X167919047Y-80135714D01*
X167900000Y-80116666D01*
X167880952Y-80078571D01*
X168280952Y-79773809D02*
X167880952Y-79773809D01*
X168280952Y-79545238D02*
X168052380Y-79716666D01*
X167880952Y-79545238D02*
X168109523Y-79773809D01*
D12*
X168180952Y-77816666D02*
X167990476Y-77950000D01*
X168180952Y-78045238D02*
X167780952Y-78045238D01*
X167780952Y-77892857D01*
X167800000Y-77854761D01*
X167819047Y-77835714D01*
X167857142Y-77816666D01*
X167914285Y-77816666D01*
X167952380Y-77835714D01*
X167971428Y-77854761D01*
X167990476Y-77892857D01*
X167990476Y-78045238D01*
X168180952Y-77626190D02*
X168180952Y-77550000D01*
X168161904Y-77511904D01*
X168142857Y-77492857D01*
X168085714Y-77454761D01*
X168009523Y-77435714D01*
X167857142Y-77435714D01*
X167819047Y-77454761D01*
X167800000Y-77473809D01*
X167780952Y-77511904D01*
X167780952Y-77588095D01*
X167800000Y-77626190D01*
X167819047Y-77645238D01*
X167857142Y-77664285D01*
X167952380Y-77664285D01*
X167990476Y-77645238D01*
X168009523Y-77626190D01*
X168028571Y-77588095D01*
X168028571Y-77511904D01*
X168009523Y-77473809D01*
X167990476Y-77454761D01*
X167952380Y-77435714D01*
%TO.C,R8*%
D11*
X165969047Y-80504761D02*
X165950000Y-80485714D01*
X165930952Y-80447619D01*
X165930952Y-80352380D01*
X165950000Y-80314285D01*
X165969047Y-80295238D01*
X166007142Y-80276190D01*
X166045238Y-80276190D01*
X166102380Y-80295238D01*
X166330952Y-80523809D01*
X166330952Y-80276190D01*
X165930952Y-80028571D02*
X165930952Y-79990476D01*
X165950000Y-79952380D01*
X165969047Y-79933333D01*
X166007142Y-79914285D01*
X166083333Y-79895238D01*
X166178571Y-79895238D01*
X166254761Y-79914285D01*
X166292857Y-79933333D01*
X166311904Y-79952380D01*
X166330952Y-79990476D01*
X166330952Y-80028571D01*
X166311904Y-80066666D01*
X166292857Y-80085714D01*
X166254761Y-80104761D01*
X166178571Y-80123809D01*
X166083333Y-80123809D01*
X166007142Y-80104761D01*
X165969047Y-80085714D01*
X165950000Y-80066666D01*
X165930952Y-80028571D01*
X166330952Y-79723809D02*
X165930952Y-79723809D01*
X166330952Y-79495238D02*
X166102380Y-79666666D01*
X165930952Y-79495238D02*
X166159523Y-79723809D01*
D12*
X166180952Y-77816666D02*
X165990476Y-77950000D01*
X166180952Y-78045238D02*
X165780952Y-78045238D01*
X165780952Y-77892857D01*
X165800000Y-77854761D01*
X165819047Y-77835714D01*
X165857142Y-77816666D01*
X165914285Y-77816666D01*
X165952380Y-77835714D01*
X165971428Y-77854761D01*
X165990476Y-77892857D01*
X165990476Y-78045238D01*
X165952380Y-77588095D02*
X165933333Y-77626190D01*
X165914285Y-77645238D01*
X165876190Y-77664285D01*
X165857142Y-77664285D01*
X165819047Y-77645238D01*
X165800000Y-77626190D01*
X165780952Y-77588095D01*
X165780952Y-77511904D01*
X165800000Y-77473809D01*
X165819047Y-77454761D01*
X165857142Y-77435714D01*
X165876190Y-77435714D01*
X165914285Y-77454761D01*
X165933333Y-77473809D01*
X165952380Y-77511904D01*
X165952380Y-77588095D01*
X165971428Y-77626190D01*
X165990476Y-77645238D01*
X166028571Y-77664285D01*
X166104761Y-77664285D01*
X166142857Y-77645238D01*
X166161904Y-77626190D01*
X166180952Y-77588095D01*
X166180952Y-77511904D01*
X166161904Y-77473809D01*
X166142857Y-77454761D01*
X166104761Y-77435714D01*
X166028571Y-77435714D01*
X165990476Y-77454761D01*
X165971428Y-77473809D01*
X165952380Y-77511904D01*
%TO.C,R7*%
D11*
X173695238Y-102819047D02*
X173714285Y-102800000D01*
X173752380Y-102780952D01*
X173847619Y-102780952D01*
X173885714Y-102800000D01*
X173904761Y-102819047D01*
X173923809Y-102857142D01*
X173923809Y-102895238D01*
X173904761Y-102952380D01*
X173676190Y-103180952D01*
X173923809Y-103180952D01*
X174171428Y-102780952D02*
X174209523Y-102780952D01*
X174247619Y-102800000D01*
X174266666Y-102819047D01*
X174285714Y-102857142D01*
X174304761Y-102933333D01*
X174304761Y-103028571D01*
X174285714Y-103104761D01*
X174266666Y-103142857D01*
X174247619Y-103161904D01*
X174209523Y-103180952D01*
X174171428Y-103180952D01*
X174133333Y-103161904D01*
X174114285Y-103142857D01*
X174095238Y-103104761D01*
X174076190Y-103028571D01*
X174076190Y-102933333D01*
X174095238Y-102857142D01*
X174114285Y-102819047D01*
X174133333Y-102800000D01*
X174171428Y-102780952D01*
X174476190Y-103180952D02*
X174476190Y-102780952D01*
X174704761Y-103180952D02*
X174533333Y-102952380D01*
X174704761Y-102780952D02*
X174476190Y-103009523D01*
D12*
X170358333Y-101180952D02*
X170225000Y-100990476D01*
X170129761Y-101180952D02*
X170129761Y-100780952D01*
X170282142Y-100780952D01*
X170320238Y-100800000D01*
X170339285Y-100819047D01*
X170358333Y-100857142D01*
X170358333Y-100914285D01*
X170339285Y-100952380D01*
X170320238Y-100971428D01*
X170282142Y-100990476D01*
X170129761Y-100990476D01*
X170491666Y-100780952D02*
X170758333Y-100780952D01*
X170586904Y-101180952D01*
%TO.C,R6*%
D11*
X170995238Y-98719047D02*
X171014285Y-98700000D01*
X171052380Y-98680952D01*
X171147619Y-98680952D01*
X171185714Y-98700000D01*
X171204761Y-98719047D01*
X171223809Y-98757142D01*
X171223809Y-98795238D01*
X171204761Y-98852380D01*
X170976190Y-99080952D01*
X171223809Y-99080952D01*
X171471428Y-98680952D02*
X171509523Y-98680952D01*
X171547619Y-98700000D01*
X171566666Y-98719047D01*
X171585714Y-98757142D01*
X171604761Y-98833333D01*
X171604761Y-98928571D01*
X171585714Y-99004761D01*
X171566666Y-99042857D01*
X171547619Y-99061904D01*
X171509523Y-99080952D01*
X171471428Y-99080952D01*
X171433333Y-99061904D01*
X171414285Y-99042857D01*
X171395238Y-99004761D01*
X171376190Y-98928571D01*
X171376190Y-98833333D01*
X171395238Y-98757142D01*
X171414285Y-98719047D01*
X171433333Y-98700000D01*
X171471428Y-98680952D01*
X171776190Y-99080952D02*
X171776190Y-98680952D01*
X172004761Y-99080952D02*
X171833333Y-98852380D01*
X172004761Y-98680952D02*
X171776190Y-98909523D01*
D12*
X168933333Y-99180952D02*
X168800000Y-98990476D01*
X168704761Y-99180952D02*
X168704761Y-98780952D01*
X168857142Y-98780952D01*
X168895238Y-98800000D01*
X168914285Y-98819047D01*
X168933333Y-98857142D01*
X168933333Y-98914285D01*
X168914285Y-98952380D01*
X168895238Y-98971428D01*
X168857142Y-98990476D01*
X168704761Y-98990476D01*
X169276190Y-98780952D02*
X169200000Y-98780952D01*
X169161904Y-98800000D01*
X169142857Y-98819047D01*
X169104761Y-98876190D01*
X169085714Y-98952380D01*
X169085714Y-99104761D01*
X169104761Y-99142857D01*
X169123809Y-99161904D01*
X169161904Y-99180952D01*
X169238095Y-99180952D01*
X169276190Y-99161904D01*
X169295238Y-99142857D01*
X169314285Y-99104761D01*
X169314285Y-99009523D01*
X169295238Y-98971428D01*
X169276190Y-98952380D01*
X169238095Y-98933333D01*
X169161904Y-98933333D01*
X169123809Y-98952380D01*
X169104761Y-98971428D01*
X169085714Y-99009523D01*
%TO.C,R5*%
D11*
X172095238Y-100719047D02*
X172114285Y-100700000D01*
X172152380Y-100680952D01*
X172247619Y-100680952D01*
X172285714Y-100700000D01*
X172304761Y-100719047D01*
X172323809Y-100757142D01*
X172323809Y-100795238D01*
X172304761Y-100852380D01*
X172076190Y-101080952D01*
X172323809Y-101080952D01*
X172571428Y-100680952D02*
X172609523Y-100680952D01*
X172647619Y-100700000D01*
X172666666Y-100719047D01*
X172685714Y-100757142D01*
X172704761Y-100833333D01*
X172704761Y-100928571D01*
X172685714Y-101004761D01*
X172666666Y-101042857D01*
X172647619Y-101061904D01*
X172609523Y-101080952D01*
X172571428Y-101080952D01*
X172533333Y-101061904D01*
X172514285Y-101042857D01*
X172495238Y-101004761D01*
X172476190Y-100928571D01*
X172476190Y-100833333D01*
X172495238Y-100757142D01*
X172514285Y-100719047D01*
X172533333Y-100700000D01*
X172571428Y-100680952D01*
X172876190Y-101080952D02*
X172876190Y-100680952D01*
X173104761Y-101080952D02*
X172933333Y-100852380D01*
X173104761Y-100680952D02*
X172876190Y-100909523D01*
D12*
X171933333Y-103180952D02*
X171800000Y-102990476D01*
X171704761Y-103180952D02*
X171704761Y-102780952D01*
X171857142Y-102780952D01*
X171895238Y-102800000D01*
X171914285Y-102819047D01*
X171933333Y-102857142D01*
X171933333Y-102914285D01*
X171914285Y-102952380D01*
X171895238Y-102971428D01*
X171857142Y-102990476D01*
X171704761Y-102990476D01*
X172295238Y-102780952D02*
X172104761Y-102780952D01*
X172085714Y-102971428D01*
X172104761Y-102952380D01*
X172142857Y-102933333D01*
X172238095Y-102933333D01*
X172276190Y-102952380D01*
X172295238Y-102971428D01*
X172314285Y-103009523D01*
X172314285Y-103104761D01*
X172295238Y-103142857D01*
X172276190Y-103161904D01*
X172238095Y-103180952D01*
X172142857Y-103180952D01*
X172104761Y-103161904D01*
X172085714Y-103142857D01*
%TO.C,R4*%
D10*
X191928571Y-54666666D02*
X192461904Y-54666666D01*
X191623809Y-54857142D02*
X192195238Y-55047619D01*
X192195238Y-54552380D01*
X191661904Y-54323809D02*
X191661904Y-53790476D01*
X192461904Y-54133333D01*
X191661904Y-53333333D02*
X191661904Y-53257142D01*
X191700000Y-53180952D01*
X191738095Y-53142857D01*
X191814285Y-53104761D01*
X191966666Y-53066666D01*
X192157142Y-53066666D01*
X192309523Y-53104761D01*
X192385714Y-53142857D01*
X192423809Y-53180952D01*
X192461904Y-53257142D01*
X192461904Y-53333333D01*
X192423809Y-53409523D01*
X192385714Y-53447619D01*
X192309523Y-53485714D01*
X192157142Y-53523809D01*
X191966666Y-53523809D01*
X191814285Y-53485714D01*
X191738095Y-53447619D01*
X191700000Y-53409523D01*
X191661904Y-53333333D01*
X192461904Y-52761904D02*
X192461904Y-52571428D01*
X192309523Y-52571428D01*
X192271428Y-52647619D01*
X192195238Y-52723809D01*
X192080952Y-52761904D01*
X191890476Y-52761904D01*
X191776190Y-52723809D01*
X191700000Y-52647619D01*
X191661904Y-52533333D01*
X191661904Y-52380952D01*
X191700000Y-52266666D01*
X191776190Y-52190476D01*
X191890476Y-52152380D01*
X192080952Y-52152380D01*
X192195238Y-52190476D01*
X192271428Y-52266666D01*
X192309523Y-52342857D01*
X192461904Y-52342857D01*
X192461904Y-52152380D01*
D12*
X192180952Y-56066666D02*
X191990476Y-56200000D01*
X192180952Y-56295238D02*
X191780952Y-56295238D01*
X191780952Y-56142857D01*
X191800000Y-56104761D01*
X191819047Y-56085714D01*
X191857142Y-56066666D01*
X191914285Y-56066666D01*
X191952380Y-56085714D01*
X191971428Y-56104761D01*
X191990476Y-56142857D01*
X191990476Y-56295238D01*
X191914285Y-55723809D02*
X192180952Y-55723809D01*
X191761904Y-55819047D02*
X192047619Y-55914285D01*
X192047619Y-55666666D01*
%TO.C,R3*%
D10*
X189928571Y-54585714D02*
X190461904Y-54585714D01*
X189623809Y-54776190D02*
X190195238Y-54966666D01*
X190195238Y-54471428D01*
X189661904Y-54242857D02*
X189661904Y-53709523D01*
X190461904Y-54052380D01*
X190461904Y-53442857D02*
X190461904Y-53252380D01*
X190309523Y-53252380D01*
X190271428Y-53328571D01*
X190195238Y-53404761D01*
X190080952Y-53442857D01*
X189890476Y-53442857D01*
X189776190Y-53404761D01*
X189700000Y-53328571D01*
X189661904Y-53214285D01*
X189661904Y-53061904D01*
X189700000Y-52947619D01*
X189776190Y-52871428D01*
X189890476Y-52833333D01*
X190080952Y-52833333D01*
X190195238Y-52871428D01*
X190271428Y-52947619D01*
X190309523Y-53023809D01*
X190461904Y-53023809D01*
X190461904Y-52833333D01*
D12*
X190180952Y-56066666D02*
X189990476Y-56200000D01*
X190180952Y-56295238D02*
X189780952Y-56295238D01*
X189780952Y-56142857D01*
X189800000Y-56104761D01*
X189819047Y-56085714D01*
X189857142Y-56066666D01*
X189914285Y-56066666D01*
X189952380Y-56085714D01*
X189971428Y-56104761D01*
X189990476Y-56142857D01*
X189990476Y-56295238D01*
X189780952Y-55933333D02*
X189780952Y-55685714D01*
X189933333Y-55819047D01*
X189933333Y-55761904D01*
X189952380Y-55723809D01*
X189971428Y-55704761D01*
X190009523Y-55685714D01*
X190104761Y-55685714D01*
X190142857Y-55704761D01*
X190161904Y-55723809D01*
X190180952Y-55761904D01*
X190180952Y-55876190D01*
X190161904Y-55914285D01*
X190142857Y-55933333D01*
%TO.C,R2*%
D11*
X213157142Y-68780952D02*
X213404761Y-68780952D01*
X213271428Y-68933333D01*
X213328571Y-68933333D01*
X213366666Y-68952380D01*
X213385714Y-68971428D01*
X213404761Y-69009523D01*
X213404761Y-69104761D01*
X213385714Y-69142857D01*
X213366666Y-69161904D01*
X213328571Y-69180952D01*
X213214285Y-69180952D01*
X213176190Y-69161904D01*
X213157142Y-69142857D01*
X213538095Y-68780952D02*
X213785714Y-68780952D01*
X213652380Y-68933333D01*
X213709523Y-68933333D01*
X213747619Y-68952380D01*
X213766666Y-68971428D01*
X213785714Y-69009523D01*
X213785714Y-69104761D01*
X213766666Y-69142857D01*
X213747619Y-69161904D01*
X213709523Y-69180952D01*
X213595238Y-69180952D01*
X213557142Y-69161904D01*
X213538095Y-69142857D01*
X214033333Y-68780952D02*
X214071428Y-68780952D01*
X214109523Y-68800000D01*
X214128571Y-68819047D01*
X214147619Y-68857142D01*
X214166666Y-68933333D01*
X214166666Y-69028571D01*
X214147619Y-69104761D01*
X214128571Y-69142857D01*
X214109523Y-69161904D01*
X214071428Y-69180952D01*
X214033333Y-69180952D01*
X213995238Y-69161904D01*
X213976190Y-69142857D01*
X213957142Y-69104761D01*
X213938095Y-69028571D01*
X213938095Y-68933333D01*
X213957142Y-68857142D01*
X213976190Y-68819047D01*
X213995238Y-68800000D01*
X214033333Y-68780952D01*
X214319047Y-69180952D02*
X214414285Y-69180952D01*
X214414285Y-69104761D01*
X214376190Y-69085714D01*
X214338095Y-69047619D01*
X214319047Y-68990476D01*
X214319047Y-68895238D01*
X214338095Y-68838095D01*
X214376190Y-68800000D01*
X214433333Y-68780952D01*
X214509523Y-68780952D01*
X214566666Y-68800000D01*
X214604761Y-68838095D01*
X214623809Y-68895238D01*
X214623809Y-68990476D01*
X214604761Y-69047619D01*
X214566666Y-69085714D01*
X214528571Y-69104761D01*
X214528571Y-69180952D01*
X214623809Y-69180952D01*
D12*
X211933333Y-69180952D02*
X211800000Y-68990476D01*
X211704761Y-69180952D02*
X211704761Y-68780952D01*
X211857142Y-68780952D01*
X211895238Y-68800000D01*
X211914285Y-68819047D01*
X211933333Y-68857142D01*
X211933333Y-68914285D01*
X211914285Y-68952380D01*
X211895238Y-68971428D01*
X211857142Y-68990476D01*
X211704761Y-68990476D01*
X212085714Y-68819047D02*
X212104761Y-68800000D01*
X212142857Y-68780952D01*
X212238095Y-68780952D01*
X212276190Y-68800000D01*
X212295238Y-68819047D01*
X212314285Y-68857142D01*
X212314285Y-68895238D01*
X212295238Y-68952380D01*
X212066666Y-69180952D01*
X212314285Y-69180952D01*
%TO.C,R1*%
D11*
X211433333Y-65180952D02*
X211204761Y-65180952D01*
X211319047Y-65180952D02*
X211319047Y-64780952D01*
X211280952Y-64838095D01*
X211242857Y-64876190D01*
X211204761Y-64895238D01*
X211680952Y-64780952D02*
X211719047Y-64780952D01*
X211757142Y-64800000D01*
X211776190Y-64819047D01*
X211795238Y-64857142D01*
X211814285Y-64933333D01*
X211814285Y-65028571D01*
X211795238Y-65104761D01*
X211776190Y-65142857D01*
X211757142Y-65161904D01*
X211719047Y-65180952D01*
X211680952Y-65180952D01*
X211642857Y-65161904D01*
X211623809Y-65142857D01*
X211604761Y-65104761D01*
X211585714Y-65028571D01*
X211585714Y-64933333D01*
X211604761Y-64857142D01*
X211623809Y-64819047D01*
X211642857Y-64800000D01*
X211680952Y-64780952D01*
X211985714Y-65180952D02*
X211985714Y-64780952D01*
X212023809Y-65028571D02*
X212138095Y-65180952D01*
X212138095Y-64914285D02*
X211985714Y-65066666D01*
X212290476Y-65180952D02*
X212385714Y-65180952D01*
X212385714Y-65104761D01*
X212347619Y-65085714D01*
X212309523Y-65047619D01*
X212290476Y-64990476D01*
X212290476Y-64895238D01*
X212309523Y-64838095D01*
X212347619Y-64800000D01*
X212404761Y-64780952D01*
X212480952Y-64780952D01*
X212538095Y-64800000D01*
X212576190Y-64838095D01*
X212595238Y-64895238D01*
X212595238Y-64990476D01*
X212576190Y-65047619D01*
X212538095Y-65085714D01*
X212500000Y-65104761D01*
X212500000Y-65180952D01*
X212595238Y-65180952D01*
D12*
X209933333Y-65180952D02*
X209800000Y-64990476D01*
X209704761Y-65180952D02*
X209704761Y-64780952D01*
X209857142Y-64780952D01*
X209895238Y-64800000D01*
X209914285Y-64819047D01*
X209933333Y-64857142D01*
X209933333Y-64914285D01*
X209914285Y-64952380D01*
X209895238Y-64971428D01*
X209857142Y-64990476D01*
X209704761Y-64990476D01*
X210314285Y-65180952D02*
X210085714Y-65180952D01*
X210200000Y-65180952D02*
X210200000Y-64780952D01*
X210161904Y-64838095D01*
X210123809Y-64876190D01*
X210085714Y-64895238D01*
%TO.C,Q1*%
D10*
X192921309Y-50438095D02*
X192845119Y-50400000D01*
X192768928Y-50323809D01*
X192654642Y-50209523D01*
X192578452Y-50171428D01*
X192502261Y-50171428D01*
X192540357Y-50361904D02*
X192464166Y-50323809D01*
X192387976Y-50247619D01*
X192349880Y-50095238D01*
X192349880Y-49828571D01*
X192387976Y-49676190D01*
X192464166Y-49600000D01*
X192540357Y-49561904D01*
X192692738Y-49561904D01*
X192768928Y-49600000D01*
X192845119Y-49676190D01*
X192883214Y-49828571D01*
X192883214Y-50095238D01*
X192845119Y-50247619D01*
X192768928Y-50323809D01*
X192692738Y-50361904D01*
X192540357Y-50361904D01*
X193645119Y-50361904D02*
X193187976Y-50361904D01*
X193416547Y-50361904D02*
X193416547Y-49561904D01*
X193340357Y-49676190D01*
X193264166Y-49752380D01*
X193187976Y-49790476D01*
%TO.C,D145*%
X190761904Y-47102380D02*
X190761904Y-46102380D01*
X191809523Y-47102380D02*
X191476190Y-46626190D01*
X191238095Y-47102380D02*
X191238095Y-46102380D01*
X191619047Y-46102380D01*
X191714285Y-46150000D01*
X191761904Y-46197619D01*
X191809523Y-46292857D01*
X191809523Y-46435714D01*
X191761904Y-46530952D01*
X191714285Y-46578571D01*
X191619047Y-46626190D01*
X191238095Y-46626190D01*
X193476190Y-47102380D02*
X193000000Y-47102380D01*
X193000000Y-46102380D01*
X193809523Y-46578571D02*
X194142857Y-46578571D01*
X194285714Y-47102380D02*
X193809523Y-47102380D01*
X193809523Y-46102380D01*
X194285714Y-46102380D01*
X194714285Y-47102380D02*
X194714285Y-46102380D01*
X194952380Y-46102380D01*
X195095238Y-46150000D01*
X195190476Y-46245238D01*
X195238095Y-46340476D01*
X195285714Y-46530952D01*
X195285714Y-46673809D01*
X195238095Y-46864285D01*
X195190476Y-46959523D01*
X195095238Y-47054761D01*
X194952380Y-47102380D01*
X194714285Y-47102380D01*
D13*
X192154761Y-45226190D02*
X192154761Y-44726190D01*
X192273809Y-44726190D01*
X192345238Y-44750000D01*
X192392857Y-44797619D01*
X192416666Y-44845238D01*
X192440476Y-44940476D01*
X192440476Y-45011904D01*
X192416666Y-45107142D01*
X192392857Y-45154761D01*
X192345238Y-45202380D01*
X192273809Y-45226190D01*
X192154761Y-45226190D01*
X192916666Y-45226190D02*
X192630952Y-45226190D01*
X192773809Y-45226190D02*
X192773809Y-44726190D01*
X192726190Y-44797619D01*
X192678571Y-44845238D01*
X192630952Y-44869047D01*
X193345238Y-44892857D02*
X193345238Y-45226190D01*
X193226190Y-44702380D02*
X193107142Y-45059523D01*
X193416666Y-45059523D01*
X193845238Y-44726190D02*
X193607142Y-44726190D01*
X193583333Y-44964285D01*
X193607142Y-44940476D01*
X193654761Y-44916666D01*
X193773809Y-44916666D01*
X193821428Y-44940476D01*
X193845238Y-44964285D01*
X193869047Y-45011904D01*
X193869047Y-45130952D01*
X193845238Y-45178571D01*
X193821428Y-45202380D01*
X193773809Y-45226190D01*
X193654761Y-45226190D01*
X193607142Y-45202380D01*
X193583333Y-45178571D01*
%TO.C,C11*%
D11*
X170071428Y-97180952D02*
X169842857Y-97180952D01*
X169957142Y-97180952D02*
X169957142Y-96780952D01*
X169919047Y-96838095D01*
X169880952Y-96876190D01*
X169842857Y-96895238D01*
X170319047Y-96780952D02*
X170357142Y-96780952D01*
X170395238Y-96800000D01*
X170414285Y-96819047D01*
X170433333Y-96857142D01*
X170452380Y-96933333D01*
X170452380Y-97028571D01*
X170433333Y-97104761D01*
X170414285Y-97142857D01*
X170395238Y-97161904D01*
X170357142Y-97180952D01*
X170319047Y-97180952D01*
X170280952Y-97161904D01*
X170261904Y-97142857D01*
X170242857Y-97104761D01*
X170223809Y-97028571D01*
X170223809Y-96933333D01*
X170242857Y-96857142D01*
X170261904Y-96819047D01*
X170280952Y-96800000D01*
X170319047Y-96780952D01*
X170795238Y-96914285D02*
X170795238Y-97180952D01*
X170623809Y-96914285D02*
X170623809Y-97123809D01*
X170642857Y-97161904D01*
X170680952Y-97180952D01*
X170738095Y-97180952D01*
X170776190Y-97161904D01*
X170795238Y-97142857D01*
X171119047Y-96971428D02*
X170985714Y-96971428D01*
X170985714Y-97180952D02*
X170985714Y-96780952D01*
X171176190Y-96780952D01*
D12*
X167742857Y-97142857D02*
X167723809Y-97161904D01*
X167666666Y-97180952D01*
X167628571Y-97180952D01*
X167571428Y-97161904D01*
X167533333Y-97123809D01*
X167514285Y-97085714D01*
X167495238Y-97009523D01*
X167495238Y-96952380D01*
X167514285Y-96876190D01*
X167533333Y-96838095D01*
X167571428Y-96800000D01*
X167628571Y-96780952D01*
X167666666Y-96780952D01*
X167723809Y-96800000D01*
X167742857Y-96819047D01*
X168123809Y-97180952D02*
X167895238Y-97180952D01*
X168009523Y-97180952D02*
X168009523Y-96780952D01*
X167971428Y-96838095D01*
X167933333Y-96876190D01*
X167895238Y-96895238D01*
X168504761Y-97180952D02*
X168276190Y-97180952D01*
X168390476Y-97180952D02*
X168390476Y-96780952D01*
X168352380Y-96838095D01*
X168314285Y-96876190D01*
X168276190Y-96895238D01*
%TO.C,C10*%
D11*
X169171428Y-95180952D02*
X168942857Y-95180952D01*
X169057142Y-95180952D02*
X169057142Y-94780952D01*
X169019047Y-94838095D01*
X168980952Y-94876190D01*
X168942857Y-94895238D01*
X169419047Y-94780952D02*
X169457142Y-94780952D01*
X169495238Y-94800000D01*
X169514285Y-94819047D01*
X169533333Y-94857142D01*
X169552380Y-94933333D01*
X169552380Y-95028571D01*
X169533333Y-95104761D01*
X169514285Y-95142857D01*
X169495238Y-95161904D01*
X169457142Y-95180952D01*
X169419047Y-95180952D01*
X169380952Y-95161904D01*
X169361904Y-95142857D01*
X169342857Y-95104761D01*
X169323809Y-95028571D01*
X169323809Y-94933333D01*
X169342857Y-94857142D01*
X169361904Y-94819047D01*
X169380952Y-94800000D01*
X169419047Y-94780952D01*
X169895238Y-94914285D02*
X169895238Y-95180952D01*
X169723809Y-94914285D02*
X169723809Y-95123809D01*
X169742857Y-95161904D01*
X169780952Y-95180952D01*
X169838095Y-95180952D01*
X169876190Y-95161904D01*
X169895238Y-95142857D01*
X170219047Y-94971428D02*
X170085714Y-94971428D01*
X170085714Y-95180952D02*
X170085714Y-94780952D01*
X170276190Y-94780952D01*
D12*
X166742857Y-95142857D02*
X166723809Y-95161904D01*
X166666666Y-95180952D01*
X166628571Y-95180952D01*
X166571428Y-95161904D01*
X166533333Y-95123809D01*
X166514285Y-95085714D01*
X166495238Y-95009523D01*
X166495238Y-94952380D01*
X166514285Y-94876190D01*
X166533333Y-94838095D01*
X166571428Y-94800000D01*
X166628571Y-94780952D01*
X166666666Y-94780952D01*
X166723809Y-94800000D01*
X166742857Y-94819047D01*
X167123809Y-95180952D02*
X166895238Y-95180952D01*
X167009523Y-95180952D02*
X167009523Y-94780952D01*
X166971428Y-94838095D01*
X166933333Y-94876190D01*
X166895238Y-94895238D01*
X167371428Y-94780952D02*
X167409523Y-94780952D01*
X167447619Y-94800000D01*
X167466666Y-94819047D01*
X167485714Y-94857142D01*
X167504761Y-94933333D01*
X167504761Y-95028571D01*
X167485714Y-95104761D01*
X167466666Y-95142857D01*
X167447619Y-95161904D01*
X167409523Y-95180952D01*
X167371428Y-95180952D01*
X167333333Y-95161904D01*
X167314285Y-95142857D01*
X167295238Y-95104761D01*
X167276190Y-95028571D01*
X167276190Y-94933333D01*
X167295238Y-94857142D01*
X167314285Y-94819047D01*
X167333333Y-94800000D01*
X167371428Y-94780952D01*
%TO.C,C9*%
D11*
X167942857Y-92780952D02*
X167980952Y-92780952D01*
X168019047Y-92800000D01*
X168038095Y-92819047D01*
X168057142Y-92857142D01*
X168076190Y-92933333D01*
X168076190Y-93028571D01*
X168057142Y-93104761D01*
X168038095Y-93142857D01*
X168019047Y-93161904D01*
X167980952Y-93180952D01*
X167942857Y-93180952D01*
X167904761Y-93161904D01*
X167885714Y-93142857D01*
X167866666Y-93104761D01*
X167847619Y-93028571D01*
X167847619Y-92933333D01*
X167866666Y-92857142D01*
X167885714Y-92819047D01*
X167904761Y-92800000D01*
X167942857Y-92780952D01*
X168247619Y-93142857D02*
X168266666Y-93161904D01*
X168247619Y-93180952D01*
X168228571Y-93161904D01*
X168247619Y-93142857D01*
X168247619Y-93180952D01*
X168647619Y-93180952D02*
X168419047Y-93180952D01*
X168533333Y-93180952D02*
X168533333Y-92780952D01*
X168495238Y-92838095D01*
X168457142Y-92876190D01*
X168419047Y-92895238D01*
X168990476Y-92914285D02*
X168990476Y-93180952D01*
X168819047Y-92914285D02*
X168819047Y-93123809D01*
X168838095Y-93161904D01*
X168876190Y-93180952D01*
X168933333Y-93180952D01*
X168971428Y-93161904D01*
X168990476Y-93142857D01*
X169314285Y-92971428D02*
X169180952Y-92971428D01*
X169180952Y-93180952D02*
X169180952Y-92780952D01*
X169371428Y-92780952D01*
D12*
X165933333Y-93142857D02*
X165914285Y-93161904D01*
X165857142Y-93180952D01*
X165819047Y-93180952D01*
X165761904Y-93161904D01*
X165723809Y-93123809D01*
X165704761Y-93085714D01*
X165685714Y-93009523D01*
X165685714Y-92952380D01*
X165704761Y-92876190D01*
X165723809Y-92838095D01*
X165761904Y-92800000D01*
X165819047Y-92780952D01*
X165857142Y-92780952D01*
X165914285Y-92800000D01*
X165933333Y-92819047D01*
X166123809Y-93180952D02*
X166200000Y-93180952D01*
X166238095Y-93161904D01*
X166257142Y-93142857D01*
X166295238Y-93085714D01*
X166314285Y-93009523D01*
X166314285Y-92857142D01*
X166295238Y-92819047D01*
X166276190Y-92800000D01*
X166238095Y-92780952D01*
X166161904Y-92780952D01*
X166123809Y-92800000D01*
X166104761Y-92819047D01*
X166085714Y-92857142D01*
X166085714Y-92952380D01*
X166104761Y-92990476D01*
X166123809Y-93009523D01*
X166161904Y-93028571D01*
X166238095Y-93028571D01*
X166276190Y-93009523D01*
X166295238Y-92990476D01*
X166314285Y-92952380D01*
%TO.C,C8*%
D11*
X171730952Y-80857142D02*
X171730952Y-80819047D01*
X171750000Y-80780952D01*
X171769047Y-80761904D01*
X171807142Y-80742857D01*
X171883333Y-80723809D01*
X171978571Y-80723809D01*
X172054761Y-80742857D01*
X172092857Y-80761904D01*
X172111904Y-80780952D01*
X172130952Y-80819047D01*
X172130952Y-80857142D01*
X172111904Y-80895238D01*
X172092857Y-80914285D01*
X172054761Y-80933333D01*
X171978571Y-80952380D01*
X171883333Y-80952380D01*
X171807142Y-80933333D01*
X171769047Y-80914285D01*
X171750000Y-80895238D01*
X171730952Y-80857142D01*
X172092857Y-80552380D02*
X172111904Y-80533333D01*
X172130952Y-80552380D01*
X172111904Y-80571428D01*
X172092857Y-80552380D01*
X172130952Y-80552380D01*
X172130952Y-80152380D02*
X172130952Y-80380952D01*
X172130952Y-80266666D02*
X171730952Y-80266666D01*
X171788095Y-80304761D01*
X171826190Y-80342857D01*
X171845238Y-80380952D01*
X171864285Y-79809523D02*
X172130952Y-79809523D01*
X171864285Y-79980952D02*
X172073809Y-79980952D01*
X172111904Y-79961904D01*
X172130952Y-79923809D01*
X172130952Y-79866666D01*
X172111904Y-79828571D01*
X172092857Y-79809523D01*
X171921428Y-79485714D02*
X171921428Y-79619047D01*
X172130952Y-79619047D02*
X171730952Y-79619047D01*
X171730952Y-79428571D01*
D12*
X172142857Y-77816666D02*
X172161904Y-77835714D01*
X172180952Y-77892857D01*
X172180952Y-77930952D01*
X172161904Y-77988095D01*
X172123809Y-78026190D01*
X172085714Y-78045238D01*
X172009523Y-78064285D01*
X171952380Y-78064285D01*
X171876190Y-78045238D01*
X171838095Y-78026190D01*
X171800000Y-77988095D01*
X171780952Y-77930952D01*
X171780952Y-77892857D01*
X171800000Y-77835714D01*
X171819047Y-77816666D01*
X171952380Y-77588095D02*
X171933333Y-77626190D01*
X171914285Y-77645238D01*
X171876190Y-77664285D01*
X171857142Y-77664285D01*
X171819047Y-77645238D01*
X171800000Y-77626190D01*
X171780952Y-77588095D01*
X171780952Y-77511904D01*
X171800000Y-77473809D01*
X171819047Y-77454761D01*
X171857142Y-77435714D01*
X171876190Y-77435714D01*
X171914285Y-77454761D01*
X171933333Y-77473809D01*
X171952380Y-77511904D01*
X171952380Y-77588095D01*
X171971428Y-77626190D01*
X171990476Y-77645238D01*
X172028571Y-77664285D01*
X172104761Y-77664285D01*
X172142857Y-77645238D01*
X172161904Y-77626190D01*
X172180952Y-77588095D01*
X172180952Y-77511904D01*
X172161904Y-77473809D01*
X172142857Y-77454761D01*
X172104761Y-77435714D01*
X172028571Y-77435714D01*
X171990476Y-77454761D01*
X171971428Y-77473809D01*
X171952380Y-77511904D01*
%TO.C,C7*%
D10*
X188361904Y-54476190D02*
X188361904Y-54933333D01*
X188361904Y-54704761D02*
X187561904Y-54704761D01*
X187676190Y-54780952D01*
X187752380Y-54857142D01*
X187790476Y-54933333D01*
X187828571Y-53790476D02*
X188361904Y-53790476D01*
X187828571Y-54133333D02*
X188247619Y-54133333D01*
X188323809Y-54095238D01*
X188361904Y-54019047D01*
X188361904Y-53904761D01*
X188323809Y-53828571D01*
X188285714Y-53790476D01*
X187942857Y-53142857D02*
X187942857Y-53409523D01*
X188361904Y-53409523D02*
X187561904Y-53409523D01*
X187561904Y-53028571D01*
D12*
X188142857Y-56066666D02*
X188161904Y-56085714D01*
X188180952Y-56142857D01*
X188180952Y-56180952D01*
X188161904Y-56238095D01*
X188123809Y-56276190D01*
X188085714Y-56295238D01*
X188009523Y-56314285D01*
X187952380Y-56314285D01*
X187876190Y-56295238D01*
X187838095Y-56276190D01*
X187800000Y-56238095D01*
X187780952Y-56180952D01*
X187780952Y-56142857D01*
X187800000Y-56085714D01*
X187819047Y-56066666D01*
X187780952Y-55933333D02*
X187780952Y-55666666D01*
X188180952Y-55838095D01*
%TO.C,C6*%
D11*
X214719047Y-92502380D02*
X214700000Y-92483333D01*
X214680952Y-92445238D01*
X214680952Y-92350000D01*
X214700000Y-92311904D01*
X214719047Y-92292857D01*
X214757142Y-92273809D01*
X214795238Y-92273809D01*
X214852380Y-92292857D01*
X215080952Y-92521428D01*
X215080952Y-92273809D01*
X215042857Y-92102380D02*
X215061904Y-92083333D01*
X215080952Y-92102380D01*
X215061904Y-92121428D01*
X215042857Y-92102380D01*
X215080952Y-92102380D01*
X214719047Y-91930952D02*
X214700000Y-91911904D01*
X214680952Y-91873809D01*
X214680952Y-91778571D01*
X214700000Y-91740476D01*
X214719047Y-91721428D01*
X214757142Y-91702380D01*
X214795238Y-91702380D01*
X214852380Y-91721428D01*
X215080952Y-91950000D01*
X215080952Y-91702380D01*
X214814285Y-91359523D02*
X215080952Y-91359523D01*
X214814285Y-91530952D02*
X215023809Y-91530952D01*
X215061904Y-91511904D01*
X215080952Y-91473809D01*
X215080952Y-91416666D01*
X215061904Y-91378571D01*
X215042857Y-91359523D01*
X214871428Y-91035714D02*
X214871428Y-91169047D01*
X215080952Y-91169047D02*
X214680952Y-91169047D01*
X214680952Y-90978571D01*
D12*
X213892857Y-91816666D02*
X213911904Y-91835714D01*
X213930952Y-91892857D01*
X213930952Y-91930952D01*
X213911904Y-91988095D01*
X213873809Y-92026190D01*
X213835714Y-92045238D01*
X213759523Y-92064285D01*
X213702380Y-92064285D01*
X213626190Y-92045238D01*
X213588095Y-92026190D01*
X213550000Y-91988095D01*
X213530952Y-91930952D01*
X213530952Y-91892857D01*
X213550000Y-91835714D01*
X213569047Y-91816666D01*
X213530952Y-91473809D02*
X213530952Y-91550000D01*
X213550000Y-91588095D01*
X213569047Y-91607142D01*
X213626190Y-91645238D01*
X213702380Y-91664285D01*
X213854761Y-91664285D01*
X213892857Y-91645238D01*
X213911904Y-91626190D01*
X213930952Y-91588095D01*
X213930952Y-91511904D01*
X213911904Y-91473809D01*
X213892857Y-91454761D01*
X213854761Y-91435714D01*
X213759523Y-91435714D01*
X213721428Y-91454761D01*
X213702380Y-91473809D01*
X213683333Y-91511904D01*
X213683333Y-91588095D01*
X213702380Y-91626190D01*
X213721428Y-91645238D01*
X213759523Y-91664285D01*
%TO.C,C5*%
D11*
X206576190Y-105380952D02*
X206347619Y-105380952D01*
X206461904Y-105380952D02*
X206461904Y-104980952D01*
X206423809Y-105038095D01*
X206385714Y-105076190D01*
X206347619Y-105095238D01*
X206747619Y-105342857D02*
X206766666Y-105361904D01*
X206747619Y-105380952D01*
X206728571Y-105361904D01*
X206747619Y-105342857D01*
X206747619Y-105380952D01*
X207014285Y-104980952D02*
X207052380Y-104980952D01*
X207090476Y-105000000D01*
X207109523Y-105019047D01*
X207128571Y-105057142D01*
X207147619Y-105133333D01*
X207147619Y-105228571D01*
X207128571Y-105304761D01*
X207109523Y-105342857D01*
X207090476Y-105361904D01*
X207052380Y-105380952D01*
X207014285Y-105380952D01*
X206976190Y-105361904D01*
X206957142Y-105342857D01*
X206938095Y-105304761D01*
X206919047Y-105228571D01*
X206919047Y-105133333D01*
X206938095Y-105057142D01*
X206957142Y-105019047D01*
X206976190Y-105000000D01*
X207014285Y-104980952D01*
X207490476Y-105114285D02*
X207490476Y-105380952D01*
X207319047Y-105114285D02*
X207319047Y-105323809D01*
X207338095Y-105361904D01*
X207376190Y-105380952D01*
X207433333Y-105380952D01*
X207471428Y-105361904D01*
X207490476Y-105342857D01*
X207814285Y-105171428D02*
X207680952Y-105171428D01*
X207680952Y-105380952D02*
X207680952Y-104980952D01*
X207871428Y-104980952D01*
D12*
X206933333Y-104142857D02*
X206914285Y-104161904D01*
X206857142Y-104180952D01*
X206819047Y-104180952D01*
X206761904Y-104161904D01*
X206723809Y-104123809D01*
X206704761Y-104085714D01*
X206685714Y-104009523D01*
X206685714Y-103952380D01*
X206704761Y-103876190D01*
X206723809Y-103838095D01*
X206761904Y-103800000D01*
X206819047Y-103780952D01*
X206857142Y-103780952D01*
X206914285Y-103800000D01*
X206933333Y-103819047D01*
X207295238Y-103780952D02*
X207104761Y-103780952D01*
X207085714Y-103971428D01*
X207104761Y-103952380D01*
X207142857Y-103933333D01*
X207238095Y-103933333D01*
X207276190Y-103952380D01*
X207295238Y-103971428D01*
X207314285Y-104009523D01*
X207314285Y-104104761D01*
X207295238Y-104142857D01*
X207276190Y-104161904D01*
X207238095Y-104180952D01*
X207142857Y-104180952D01*
X207104761Y-104161904D01*
X207085714Y-104142857D01*
%TO.C,C4*%
D11*
X215080952Y-72907142D02*
X215080952Y-72869047D01*
X215100000Y-72830952D01*
X215119047Y-72811904D01*
X215157142Y-72792857D01*
X215233333Y-72773809D01*
X215328571Y-72773809D01*
X215404761Y-72792857D01*
X215442857Y-72811904D01*
X215461904Y-72830952D01*
X215480952Y-72869047D01*
X215480952Y-72907142D01*
X215461904Y-72945238D01*
X215442857Y-72964285D01*
X215404761Y-72983333D01*
X215328571Y-73002380D01*
X215233333Y-73002380D01*
X215157142Y-72983333D01*
X215119047Y-72964285D01*
X215100000Y-72945238D01*
X215080952Y-72907142D01*
X215442857Y-72602380D02*
X215461904Y-72583333D01*
X215480952Y-72602380D01*
X215461904Y-72621428D01*
X215442857Y-72602380D01*
X215480952Y-72602380D01*
X215480952Y-72202380D02*
X215480952Y-72430952D01*
X215480952Y-72316666D02*
X215080952Y-72316666D01*
X215138095Y-72354761D01*
X215176190Y-72392857D01*
X215195238Y-72430952D01*
X215214285Y-71859523D02*
X215480952Y-71859523D01*
X215214285Y-72030952D02*
X215423809Y-72030952D01*
X215461904Y-72011904D01*
X215480952Y-71973809D01*
X215480952Y-71916666D01*
X215461904Y-71878571D01*
X215442857Y-71859523D01*
X215271428Y-71535714D02*
X215271428Y-71669047D01*
X215480952Y-71669047D02*
X215080952Y-71669047D01*
X215080952Y-71478571D01*
D12*
X214392857Y-72316666D02*
X214411904Y-72335714D01*
X214430952Y-72392857D01*
X214430952Y-72430952D01*
X214411904Y-72488095D01*
X214373809Y-72526190D01*
X214335714Y-72545238D01*
X214259523Y-72564285D01*
X214202380Y-72564285D01*
X214126190Y-72545238D01*
X214088095Y-72526190D01*
X214050000Y-72488095D01*
X214030952Y-72430952D01*
X214030952Y-72392857D01*
X214050000Y-72335714D01*
X214069047Y-72316666D01*
X214164285Y-71973809D02*
X214430952Y-71973809D01*
X214011904Y-72069047D02*
X214297619Y-72164285D01*
X214297619Y-71916666D01*
%TO.C,C3*%
D11*
X206680952Y-72907142D02*
X206680952Y-72869047D01*
X206700000Y-72830952D01*
X206719047Y-72811904D01*
X206757142Y-72792857D01*
X206833333Y-72773809D01*
X206928571Y-72773809D01*
X207004761Y-72792857D01*
X207042857Y-72811904D01*
X207061904Y-72830952D01*
X207080952Y-72869047D01*
X207080952Y-72907142D01*
X207061904Y-72945238D01*
X207042857Y-72964285D01*
X207004761Y-72983333D01*
X206928571Y-73002380D01*
X206833333Y-73002380D01*
X206757142Y-72983333D01*
X206719047Y-72964285D01*
X206700000Y-72945238D01*
X206680952Y-72907142D01*
X207042857Y-72602380D02*
X207061904Y-72583333D01*
X207080952Y-72602380D01*
X207061904Y-72621428D01*
X207042857Y-72602380D01*
X207080952Y-72602380D01*
X207080952Y-72202380D02*
X207080952Y-72430952D01*
X207080952Y-72316666D02*
X206680952Y-72316666D01*
X206738095Y-72354761D01*
X206776190Y-72392857D01*
X206795238Y-72430952D01*
X206814285Y-71859523D02*
X207080952Y-71859523D01*
X206814285Y-72030952D02*
X207023809Y-72030952D01*
X207061904Y-72011904D01*
X207080952Y-71973809D01*
X207080952Y-71916666D01*
X207061904Y-71878571D01*
X207042857Y-71859523D01*
X206871428Y-71535714D02*
X206871428Y-71669047D01*
X207080952Y-71669047D02*
X206680952Y-71669047D01*
X206680952Y-71478571D01*
D12*
X205892857Y-72316666D02*
X205911904Y-72335714D01*
X205930952Y-72392857D01*
X205930952Y-72430952D01*
X205911904Y-72488095D01*
X205873809Y-72526190D01*
X205835714Y-72545238D01*
X205759523Y-72564285D01*
X205702380Y-72564285D01*
X205626190Y-72545238D01*
X205588095Y-72526190D01*
X205550000Y-72488095D01*
X205530952Y-72430952D01*
X205530952Y-72392857D01*
X205550000Y-72335714D01*
X205569047Y-72316666D01*
X205530952Y-72183333D02*
X205530952Y-71935714D01*
X205683333Y-72069047D01*
X205683333Y-72011904D01*
X205702380Y-71973809D01*
X205721428Y-71954761D01*
X205759523Y-71935714D01*
X205854761Y-71935714D01*
X205892857Y-71954761D01*
X205911904Y-71973809D01*
X205930952Y-72011904D01*
X205930952Y-72126190D01*
X205911904Y-72164285D01*
X205892857Y-72183333D01*
%TO.C,C2*%
D11*
X211380952Y-72438095D02*
X211380952Y-72666666D01*
X211380952Y-72552380D02*
X210980952Y-72552380D01*
X211038095Y-72590476D01*
X211076190Y-72628571D01*
X211095238Y-72666666D01*
X211114285Y-72095238D02*
X211380952Y-72095238D01*
X211114285Y-72266666D02*
X211323809Y-72266666D01*
X211361904Y-72247619D01*
X211380952Y-72209523D01*
X211380952Y-72152380D01*
X211361904Y-72114285D01*
X211342857Y-72095238D01*
X211171428Y-71771428D02*
X211171428Y-71904761D01*
X211380952Y-71904761D02*
X210980952Y-71904761D01*
X210980952Y-71714285D01*
D12*
X210142857Y-72316666D02*
X210161904Y-72335714D01*
X210180952Y-72392857D01*
X210180952Y-72430952D01*
X210161904Y-72488095D01*
X210123809Y-72526190D01*
X210085714Y-72545238D01*
X210009523Y-72564285D01*
X209952380Y-72564285D01*
X209876190Y-72545238D01*
X209838095Y-72526190D01*
X209800000Y-72488095D01*
X209780952Y-72430952D01*
X209780952Y-72392857D01*
X209800000Y-72335714D01*
X209819047Y-72316666D01*
X209819047Y-72164285D02*
X209800000Y-72145238D01*
X209780952Y-72107142D01*
X209780952Y-72011904D01*
X209800000Y-71973809D01*
X209819047Y-71954761D01*
X209857142Y-71935714D01*
X209895238Y-71935714D01*
X209952380Y-71954761D01*
X210180952Y-72183333D01*
X210180952Y-71935714D01*
%TO.C,C1*%
D11*
X199090379Y-108063713D02*
X198883223Y-108160312D01*
X198986801Y-108112013D02*
X198817754Y-107749490D01*
X198807378Y-107817378D01*
X198788951Y-107868004D01*
X198762475Y-107901367D01*
X199145751Y-107596542D02*
X199180277Y-107580442D01*
X199222853Y-107581606D01*
X199248166Y-107590819D01*
X199281529Y-107617295D01*
X199330991Y-107678297D01*
X199371241Y-107764612D01*
X199386177Y-107841714D01*
X199385014Y-107884290D01*
X199375801Y-107909603D01*
X199349324Y-107942965D01*
X199314798Y-107959065D01*
X199272223Y-107957902D01*
X199246910Y-107948689D01*
X199213547Y-107922213D01*
X199164084Y-107861210D01*
X199123835Y-107774895D01*
X199108899Y-107697794D01*
X199110062Y-107655218D01*
X199119275Y-107629905D01*
X199145751Y-107596542D01*
X199491011Y-107435545D02*
X199525537Y-107419445D01*
X199568113Y-107420608D01*
X199593426Y-107429821D01*
X199626789Y-107456297D01*
X199676251Y-107517300D01*
X199716501Y-107603615D01*
X199731437Y-107680716D01*
X199730274Y-107723292D01*
X199721061Y-107748605D01*
X199694585Y-107781968D01*
X199660059Y-107798068D01*
X199617483Y-107796904D01*
X199592170Y-107787691D01*
X199558807Y-107761215D01*
X199509345Y-107700213D01*
X199469095Y-107613898D01*
X199454159Y-107536796D01*
X199455322Y-107494220D01*
X199464535Y-107468907D01*
X199491011Y-107435545D01*
X199978935Y-107355139D02*
X200091634Y-107596821D01*
X199823568Y-107427588D02*
X199912117Y-107617481D01*
X199945480Y-107643957D01*
X199988056Y-107645120D01*
X200039845Y-107620971D01*
X200066321Y-107587608D01*
X200075534Y-107562295D01*
X200296556Y-107270080D02*
X200175715Y-107326429D01*
X200264264Y-107516322D02*
X200095216Y-107153799D01*
X200267846Y-107073300D01*
X200837526Y-106807655D02*
X200768474Y-106839854D01*
X200741998Y-106873217D01*
X200732784Y-106898530D01*
X200722408Y-106966418D01*
X200737344Y-107043520D01*
X200801743Y-107181624D01*
X200835106Y-107208101D01*
X200860419Y-107217314D01*
X200902995Y-107218477D01*
X200972047Y-107186277D01*
X200998523Y-107152915D01*
X201007736Y-107127602D01*
X201008900Y-107085026D01*
X200968650Y-106998711D01*
X200935287Y-106972235D01*
X200909975Y-106963022D01*
X200867399Y-106961858D01*
X200798347Y-106994058D01*
X200771870Y-107027421D01*
X200762657Y-107052734D01*
X200761494Y-107095309D01*
X201180366Y-107047103D02*
X201205679Y-107056316D01*
X201196466Y-107081629D01*
X201171153Y-107072416D01*
X201180366Y-107047103D01*
X201196466Y-107081629D01*
X201165523Y-106654707D02*
X201389942Y-106550059D01*
X201333500Y-106744512D01*
X201385289Y-106720362D01*
X201427865Y-106721526D01*
X201453178Y-106730739D01*
X201486540Y-106757215D01*
X201526790Y-106843530D01*
X201525626Y-106886106D01*
X201516413Y-106911419D01*
X201489937Y-106944781D01*
X201386359Y-106993081D01*
X201343783Y-106991917D01*
X201318470Y-106982704D01*
X201493520Y-106501759D02*
X201783408Y-106807934D01*
X201735202Y-106389061D01*
D14*
X200749907Y-109065294D02*
X200731480Y-109115919D01*
X200644002Y-109198745D01*
X200574950Y-109230944D01*
X200455272Y-109244717D01*
X200354021Y-109207865D01*
X200287295Y-109154913D01*
X200188370Y-109032908D01*
X200140071Y-108929330D01*
X200110198Y-108775126D01*
X200112525Y-108689975D01*
X200149377Y-108588723D01*
X200236855Y-108505898D01*
X200305907Y-108473698D01*
X200425585Y-108459925D01*
X200476211Y-108478351D01*
X201472626Y-108812351D02*
X201058314Y-109005548D01*
X201265470Y-108908949D02*
X200927376Y-108183903D01*
X200906623Y-108319681D01*
X200869770Y-108420932D01*
X200816818Y-108487658D01*
%TD*%
M02*
