  0
SECTION
  2
HEADER
  9
$ACADVER
  1
AC1014
  9
$HANDSEED
  5
FFFF
  9
$MEASUREMENT
 70
     1
  0
ENDSEC
  0
SECTION
  2
TABLES
  0
TABLE
  2
VPORT
  5
8
330
0
100
AcDbSymbolTable
 70
     4
  0
VPORT
  5
2E
330
8
100
AcDbSymbolTableRecord
100
AcDbViewportTableRecord
  2
*ACTIVE
 70
     0
 10
0.0
 20
0.0
 11
1.0
 21
1.0
 12
210.0
 22
148.5
 13
0.0
 23
0.0
 14
10.0
 24
10.0
 15
10.0
 25
10.0
 16
0.0
 26
0.0
 36
1.0
 17
0.0
 27
0.0
 37
0.0
 40
341.0
 41
1.24
 42
50.0
 43
0.0
 44
0.0
 50
0.0
 51
0.0
 71
     0
 72
   100
 73
     1
 74
     3
 75
     0
 76
     0
 77
     0
 78
     0
  0
ENDTAB
  0
TABLE
  2
LTYPE
  5
5
330
0
100
AcDbSymbolTable
 70
     1
  0
LTYPE
  5
14
330
5
100
AcDbSymbolTableRecord
100
AcDbLinetypeTableRecord
  2
BYBLOCK
 70
     0
  3

 72
    65
 73
     0
 40
0.0
  0
LTYPE
  5
15
330
5
100
AcDbSymbolTableRecord
100
AcDbLinetypeTableRecord
  2
BYLAYER
 70
     0
  3

 72
    65
 73
     0
 40
0.0
  0
LTYPE
  5
16
330
5
100
AcDbSymbolTableRecord
100
AcDbLinetypeTableRecord
  2
CONTINUOUS
 70
     0
  3
Solid line
 72
    65
 73
     0
 40
0.0
  0
ENDTAB
  0
TABLE
  2
LAYER
  5
2
100
AcDbSymbolTable
 70
2
  0
LAYER
  5
50
100
AcDbSymbolTableRecord
100
AcDbLayerTableRecord
  2
0
 70
0
  6
CONTINUOUS
  0
LAYER
  5
51
100
AcDbSymbolTableRecord
100
AcDbLayerTableRecord
  2
Layer_1
 70
0
  6
CONTINUOUS
  0
ENDTAB
  0
TABLE
  2
STYLE
  5
3
330
0
100
AcDbSymbolTable
 70
     1
  0
STYLE
  5
11
330
3
100
AcDbSymbolTableRecord
100
AcDbTextStyleTableRecord
  2
STANDARD
 70
     0
 40
0.0
 41
1.0
 50
0.0
 71
     0
 42
2.5
  3
txt
  4

  0
ENDTAB
  0
TABLE
  2
VIEW
  5
6
330
0
100
AcDbSymbolTable
 70
     0
  0
ENDTAB
  0
TABLE
  2
UCS
  5
7
330
0
100
AcDbSymbolTable
 70
     0
  0
ENDTAB
  0
TABLE
  2
APPID
  5
9
330
0
100
AcDbSymbolTable
 70
     2
  0
APPID
  5
12
330
9
100
AcDbSymbolTableRecord
100
AcDbRegAppTableRecord
  2
ACAD
 70
     0
  0
ENDTAB
  0
TABLE
  2
DIMSTYLE
  5
A
330
0
100
AcDbSymbolTable
 70
     1
  0
DIMSTYLE
105
27
330
A
100
AcDbSymbolTableRecord
100
AcDbDimStyleTableRecord
  2
ISO-25
 70
     0
  3

  4

  5

  6

  7

 40
1.0
 41
2.5
 42
0.625
 43
3.75
 44
1.25
 45
0.0
 46
0.0
 47
0.0
 48
0.0
140
2.5
141
2.5
142
0.0
143
0.03937007874016
144
1.0
145
0.0
146
1.0
147
0.625
 71
     0
 72
     0
 73
     0
 74
     0
 75
     0
 76
     0
 77
     1
 78
     8
170
     0
171
     3
172
     1
173
     0
174
     0
175
     0
176
     0
177
     0
178
     0
270
     2
271
     2
272
     2
273
     2
274
     3
340
11
275
     0
280
     0
281
     0
282
     0
283
     0
284
     8
285
     0
286
     0
287
     3
288
     0
  0
ENDTAB
  0
TABLE
  2
BLOCK_RECORD
  5
1
330
0
100
AcDbSymbolTable
 70
     1
  0
BLOCK_RECORD
  5
1F
330
1
100
AcDbSymbolTableRecord
100
AcDbBlockTableRecord
  2
*MODEL_SPACE
  0
BLOCK_RECORD
  5
1B
330
1
100
AcDbSymbolTableRecord
100
AcDbBlockTableRecord
  2
*PAPER_SPACE
  0
ENDTAB
  0
ENDSEC
  0
SECTION
  2
BLOCKS
  0
BLOCK
  5
20
330
1F
100
AcDbEntity
  8
0
100
AcDbBlockBegin
  2
*MODEL_SPACE
 70
     0
 10
0.0
 20
0.0
 30
0.0
  3
*MODEL_SPACE
  1

  0
ENDBLK
  5
21
330
1F
100
AcDbEntity
  8
0
100
AcDbBlockEnd
  0
BLOCK
  5
1C
330
1B
100
AcDbEntity
 67
     1
  8
0
100
AcDbBlockBegin
  2
*PAPER_SPACE
  1

  0
ENDBLK
  5
1D
330
1B
100
AcDbEntity
 67
     1
  8
0
100
AcDbBlockEnd
  0
ENDSEC
  0
SECTION
  2
ENTITIES
  0
SPLINE
  5
100
100
AcDbEntity
  8
Layer_1
 62
7
100
AcDbSpline
 70
8
 71
3
 72
8
 73
4
 74
0
 40
0
 40
0
 40
0
 40
0
 40
1
 40
1
 40
1
 40
1
 10
118.274890
 20
241.118617
 30
0.0
 10
118.145700
 20
241.167087
 30
0.0
 10
117.934290
 20
241.223995
 30
0.0
 10
117.805100
 20
241.245088
 30
0.0
  0
SPLINE
  5
101
100
AcDbEntity
  8
Layer_1
 62
7
100
AcDbSpline
 70
8
 71
3
 72
8
 73
4
 74
0
 40
0
 40
0
 40
0
 40
0
 40
1
 40
1
 40
1
 40
1
 10
117.805100
 20
241.245088
 30
0.0
 10
117.675900
 20
241.266178
 30
0.0
 10
117.533610
 20
241.291038
 30
0.0
 10
117.488890
 20
241.300318
 30
0.0
  0
SPLINE
  5
102
100
AcDbEntity
  8
Layer_1
 62
7
100
AcDbSpline
 70
8
 71
3
 72
8
 73
4
 74
0
 40
0
 40
0
 40
0
 40
0
 40
1
 40
1
 40
1
 40
1
 10
136.483170
 20
241.517225
 30
0.0
 10
135.945700
 20
241.220045
 30
0.0
 10
135.454140
 20
241.000978
 30
0.0
 10
135.414260
 20
241.040861
 30
0.0
  0
SPLINE
  5
103
100
AcDbEntity
  8
Layer_1
 62
7
100
AcDbSpline
 70
8
 71
3
 72
8
 73
4
 74
0
 40
0
 40
0
 40
0
 40
0
 40
1
 40
1
 40
1
 40
1
 10
135.414260
 20
241.040861
 30
0.0
 10
135.405260
 20
241.049861
 30
0.0
 10
135.304020
 20
241.290313
 30
0.0
 10
135.189420
 20
241.575063
 30
0.0
  0
SPLINE
  5
104
100
AcDbEntity
  8
Layer_1
 62
7
100
AcDbSpline
 70
8
 71
3
 72
8
 73
4
 74
0
 40
0
 40
0
 40
0
 40
0
 40
1
 40
1
 40
1
 40
1
 10
135.189420
 20
241.575063
 30
0.0
 10
134.947960
 20
242.175021
 30
0.0
 10
134.599440
 20
242.878376
 30
0.0
 10
134.288250
 20
243.393758
 30
0.0
  0
LWPOLYLINE
  5
105
100
AcDbEntity
  8
Layer_1
 62
7
100
AcDbPolyline
 90
9
 70
0
 10
117.488890
 20
241.300318
 30
0.0
 10
117.407590
 20
241.317198
 30
0.0
 10
117.407590
 20
246.791418
 30
0.0
 10
117.407590
 20
252.265634
 30
0.0
 10
127.237120
 20
252.265634
 30
0.0
 10
137.066650
 20
252.265634
 30
0.0
 10
137.066630
 20
247.052729
 30
0.0
 10
137.066610
 20
241.839826
 30
0.0
 10
136.483170
 20
241.517225
 30
0.0
  0
SPLINE
  5
106
100
AcDbEntity
  8
Layer_1
 62
7
100
AcDbSpline
 70
8
 71
3
 72
8
 73
4
 74
0
 40
0
 40
0
 40
0
 40
0
 40
1
 40
1
 40
1
 40
1
 10
134.196820
 20
243.868871
 30
0.0
 10
134.444800
 20
244.091311
 30
0.0
 10
134.985210
 20
244.451867
 30
0.0
 10
135.465410
 20
244.715246
 30
0.0
  0
SPLINE
  5
107
100
AcDbEntity
  8
Layer_1
 62
7
100
AcDbSpline
 70
8
 71
3
 72
8
 73
4
 74
0
 40
0
 40
0
 40
0
 40
0
 40
1
 40
1
 40
1
 40
1
 10
135.465410
 20
244.715246
 30
0.0
 10
136.030930
 20
245.025420
 30
0.0
 10
136.314990
 20
245.241217
 30
0.0
 10
136.479060
 20
245.485295
 30
0.0
  0
SPLINE
  5
108
100
AcDbEntity
  8
Layer_1
 62
7
100
AcDbSpline
 70
8
 71
3
 72
8
 73
4
 74
0
 40
0
 40
0
 40
0
 40
0
 40
1
 40
1
 40
1
 40
1
 10
136.479060
 20
245.485295
 30
0.0
 10
136.718400
 20
245.841358
 30
0.0
 10
136.807060
 20
246.396898
 30
0.0
 10
136.687770
 20
246.793204
 30
0.0
  0
SPLINE
  5
109
100
AcDbEntity
  8
Layer_1
 62
7
100
AcDbSpline
 70
8
 71
3
 72
8
 73
4
 74
0
 40
0
 40
0
 40
0
 40
0
 40
1
 40
1
 40
1
 40
1
 10
136.687770
 20
246.793204
 30
0.0
 10
136.554980
 20
247.234408
 30
0.0
 10
136.124050
 20
247.564830
 30
0.0
 10
135.641010
 20
247.595828
 30
0.0
  0
SPLINE
  5
10a
100
AcDbEntity
  8
Layer_1
 62
7
100
AcDbSpline
 70
8
 71
3
 72
8
 73
4
 74
0
 40
0
 40
0
 40
0
 40
0
 40
1
 40
1
 40
1
 40
1
 10
135.641010
 20
247.595828
 30
0.0
 10
135.235260
 20
247.621858
 30
0.0
 10
135.048180
 20
247.564058
 30
0.0
 10
134.581920
 20
247.268534
 30
0.0
  0
SPLINE
  5
10b
100
AcDbEntity
  8
Layer_1
 62
7
100
AcDbSpline
 70
8
 71
3
 72
8
 73
4
 74
0
 40
0
 40
0
 40
0
 40
0
 40
1
 40
1
 40
1
 40
1
 10
134.581920
 20
247.268534
 30
0.0
 10
133.697760
 20
246.708143
 30
0.0
 10
133.140800
 20
246.229597
 30
0.0
 10
132.757940
 20
245.701348
 30
0.0
  0
LWPOLYLINE
  5
10c
100
AcDbEntity
  8
Layer_1
 62
7
100
AcDbPolyline
 90
3
 70
0
 10
134.288250
 20
243.393758
 30
0.0
 10
134.070040
 20
243.755139
 30
0.0
 10
134.196820
 20
243.868871
 30
0.0
  0
SPLINE
  5
10d
100
AcDbEntity
  8
Layer_1
 62
7
100
AcDbSpline
 70
8
 71
3
 72
8
 73
4
 74
0
 40
0
 40
0
 40
0
 40
0
 40
1
 40
1
 40
1
 40
1
 10
132.184710
 20
245.806975
 30
0.0
 10
131.957960
 20
245.987209
 30
0.0
 10
131.601710
 20
246.246236
 30
0.0
 10
131.393050
 20
246.382590
 30
0.0
  0
SPLINE
  5
10e
100
AcDbEntity
  8
Layer_1
 62
7
100
AcDbSpline
 70
8
 71
3
 72
8
 73
4
 74
0
 40
0
 40
0
 40
0
 40
0
 40
1
 40
1
 40
1
 40
1
 10
131.393050
 20
246.382590
 30
0.0
 10
130.992990
 20
246.644019
 30
0.0
 10
130.155950
 20
247.070877
 30
0.0
 10
129.776300
 20
247.207071
 30
0.0
  0
SPLINE
  5
10f
100
AcDbEntity
  8
Layer_1
 62
7
100
AcDbSpline
 70
8
 71
3
 72
8
 73
4
 74
0
 40
0
 40
0
 40
0
 40
0
 40
1
 40
1
 40
1
 40
1
 10
129.776300
 20
247.207071
 30
0.0
 10
129.582270
 20
247.276681
 30
0.0
 10
129.553290
 20
247.298581
 30
0.0
 10
129.568000
 20
247.364569
 30
0.0
  0
SPLINE
  5
110
100
AcDbEntity
  8
Layer_1
 62
7
100
AcDbSpline
 70
8
 71
3
 72
8
 73
4
 74
0
 40
0
 40
0
 40
0
 40
0
 40
1
 40
1
 40
1
 40
1
 10
129.568000
 20
247.364569
 30
0.0
 10
129.609600
 20
247.551326
 30
0.0
 10
130.233240
 20
250.744859
 30
0.0
 10
130.253860
 20
250.876744
 30
0.0
  0
LWPOLYLINE
  5
111
100
AcDbEntity
  8
Layer_1
 62
7
100
AcDbPolyline
 90
3
 70
0
 10
132.757940
 20
245.701348
 30
0.0
 10
132.596980
 20
245.479281
 30
0.0
 10
132.184710
 20
245.806975
 30
0.0
  0
SPLINE
  5
112
100
AcDbEntity
  8
Layer_1
 62
7
100
AcDbSpline
 70
8
 71
3
 72
8
 73
4
 74
0
 40
0
 40
0
 40
0
 40
0
 40
1
 40
1
 40
1
 40
1
 10
128.758710
 20
251.358783
 30
0.0
 10
127.923730
 20
251.543068
 30
0.0
 10
127.175920
 20
251.702516
 30
0.0
 10
127.096890
 20
251.713115
 30
0.0
  0
SPLINE
  5
113
100
AcDbEntity
  8
Layer_1
 62
7
100
AcDbSpline
 70
8
 71
3
 72
8
 73
4
 74
0
 40
0
 40
0
 40
0
 40
0
 40
1
 40
1
 40
1
 40
1
 10
127.096890
 20
251.713115
 30
0.0
 10
126.993550
 20
251.726975
 30
0.0
 10
126.501030
 20
251.632835
 30
0.0
 10
125.342490
 20
251.377788
 30
0.0
  0
SPLINE
  5
114
100
AcDbEntity
  8
Layer_1
 62
7
100
AcDbSpline
 70
8
 71
3
 72
8
 73
4
 74
0
 40
0
 40
0
 40
0
 40
0
 40
1
 40
1
 40
1
 40
1
 10
125.342490
 20
251.377788
 30
0.0
 10
123.954420
 20
251.072207
 30
0.0
 10
123.731770
 20
251.014290
 30
0.0
 10
123.731770
 20
250.958812
 30
0.0
  0
SPLINE
  5
115
100
AcDbEntity
  8
Layer_1
 62
7
100
AcDbSpline
 70
8
 71
3
 72
8
 73
4
 74
0
 40
0
 40
0
 40
0
 40
0
 40
1
 40
1
 40
1
 40
1
 10
123.731770
 20
250.958812
 30
0.0
 10
123.731770
 20
250.908462
 30
0.0
 10
124.369520
 20
247.688626
 30
0.0
 10
124.443420
 20
247.365866
 30
0.0
  0
SPLINE
  5
116
100
AcDbEntity
  8
Layer_1
 62
7
100
AcDbSpline
 70
8
 71
3
 72
8
 73
4
 74
0
 40
0
 40
0
 40
0
 40
0
 40
1
 40
1
 40
1
 40
1
 10
124.443420
 20
247.365866
 30
0.0
 10
124.458220
 20
247.301276
 30
0.0
 10
124.427920
 20
247.278836
 30
0.0
 10
124.231740
 20
247.208727
 30
0.0
  0
SPLINE
  5
117
100
AcDbEntity
  8
Layer_1
 62
7
100
AcDbSpline
 70
8
 71
3
 72
8
 73
4
 74
0
 40
0
 40
0
 40
0
 40
0
 40
1
 40
1
 40
1
 40
1
 10
124.231740
 20
247.208727
 30
0.0
 10
123.408310
 20
246.914548
 30
0.0
 10
122.157060
 20
246.155969
 30
0.0
 10
121.555110
 20
245.586008
 30
0.0
  0
SPLINE
  5
118
100
AcDbEntity
  8
Layer_1
 62
7
100
AcDbSpline
 70
8
 71
3
 72
8
 73
4
 74
0
 40
0
 40
0
 40
0
 40
0
 40
1
 40
1
 40
1
 40
1
 10
121.555110
 20
245.586008
 30
0.0
 10
121.480910
 20
245.515778
 30
0.0
 10
121.413540
 20
245.465396
 30
0.0
 10
121.405330
 20
245.474042
 30
0.0
  0
SPLINE
  5
119
100
AcDbEntity
  8
Layer_1
 62
7
100
AcDbSpline
 70
8
 71
3
 72
8
 73
4
 74
0
 40
0
 40
0
 40
0
 40
0
 40
1
 40
1
 40
1
 40
1
 10
121.405330
 20
245.474042
 30
0.0
 10
121.397330
 20
245.482742
 30
0.0
 10
121.357230
 20
245.597767
 30
0.0
 10
121.316730
 20
245.729775
 30
0.0
  0
SPLINE
  5
11a
100
AcDbEntity
  8
Layer_1
 62
7
100
AcDbSpline
 70
8
 71
3
 72
8
 73
4
 74
0
 40
0
 40
0
 40
0
 40
0
 40
1
 40
1
 40
1
 40
1
 10
121.316730
 20
245.729775
 30
0.0
 10
121.236030
 20
245.992504
 30
0.0
 10
121.169530
 20
246.436543
 30
0.0
 10
121.057600
 20
247.459282
 30
0.0
  0
SPLINE
  5
11b
100
AcDbEntity
  8
Layer_1
 62
7
100
AcDbSpline
 70
8
 71
3
 72
8
 73
4
 74
0
 40
0
 40
0
 40
0
 40
0
 40
1
 40
1
 40
1
 40
1
 10
121.057600
 20
247.459282
 30
0.0
 10
120.916500
 20
248.748472
 30
0.0
 10
120.757970
 20
249.229165
 30
0.0
 10
120.390540
 20
249.481969
 30
0.0
  0
SPLINE
  5
11c
100
AcDbEntity
  8
Layer_1
 62
7
100
AcDbSpline
 70
8
 71
3
 72
8
 73
4
 74
0
 40
0
 40
0
 40
0
 40
0
 40
1
 40
1
 40
1
 40
1
 10
120.390540
 20
249.481969
 30
0.0
 10
120.163040
 20
249.638486
 30
0.0
 10
119.974390
 20
249.705531
 30
0.0
 10
119.752850
 20
249.708595
 30
0.0
  0
SPLINE
  5
11d
100
AcDbEntity
  8
Layer_1
 62
7
100
AcDbSpline
 70
8
 71
3
 72
8
 73
4
 74
0
 40
0
 40
0
 40
0
 40
0
 40
1
 40
1
 40
1
 40
1
 10
119.752850
 20
249.708595
 30
0.0
 10
119.273850
 20
249.715195
 30
0.0
 10
118.927120
 20
249.365790
 30
0.0
 10
118.703340
 20
248.650923
 30
0.0
  0
SPLINE
  5
11e
100
AcDbEntity
  8
Layer_1
 62
7
100
AcDbSpline
 70
8
 71
3
 72
8
 73
4
 74
0
 40
0
 40
0
 40
0
 40
0
 40
1
 40
1
 40
1
 40
1
 10
118.703340
 20
248.650923
 30
0.0
 10
118.588390
 20
248.283716
 30
0.0
 10
118.586090
 20
247.564041
 30
0.0
 10
118.698340
 20
247.079833
 30
0.0
  0
SPLINE
  5
11f
100
AcDbEntity
  8
Layer_1
 62
7
100
AcDbSpline
 70
8
 71
3
 72
8
 73
4
 74
0
 40
0
 40
0
 40
0
 40
0
 40
1
 40
1
 40
1
 40
1
 10
118.698340
 20
247.079833
 30
0.0
 10
118.739840
 20
246.900951
 30
0.0
 10
118.784840
 20
246.640757
 30
0.0
 10
118.798510
 20
246.501626
 30
0.0
  0
SPLINE
  5
120
100
AcDbEntity
  8
Layer_1
 62
7
100
AcDbSpline
 70
8
 71
3
 72
8
 73
4
 74
0
 40
0
 40
0
 40
0
 40
0
 40
1
 40
1
 40
1
 40
1
 10
118.798510
 20
246.501626
 30
0.0
 10
118.852110
 20
245.954967
 30
0.0
 10
119.047040
 20
245.260351
 30
0.0
 10
119.275250
 20
244.803141
 30
0.0
  0
SPLINE
  5
121
100
AcDbEntity
  8
Layer_1
 62
7
100
AcDbSpline
 70
8
 71
3
 72
8
 73
4
 74
0
 40
0
 40
0
 40
0
 40
0
 40
1
 40
1
 40
1
 40
1
 10
119.275250
 20
244.803141
 30
0.0
 10
119.427480
 20
244.498153
 30
0.0
 10
119.751870
 20
244.003835
 30
0.0
 10
119.875730
 20
243.888093
 30
0.0
  0
LWPOLYLINE
  5
122
100
AcDbEntity
  8
Layer_1
 62
7
100
AcDbPolyline
 90
3
 70
0
 10
130.253860
 20
250.876744
 30
0.0
 10
130.276860
 20
251.023720
 30
0.0
 10
128.758710
 20
251.358783
 30
0.0
  0
SPLINE
  5
123
100
AcDbEntity
  8
Layer_1
 62
7
100
AcDbSpline
 70
8
 71
3
 72
8
 73
4
 74
0
 40
0
 40
0
 40
0
 40
0
 40
1
 40
1
 40
1
 40
1
 10
119.676760
 20
243.327957
 30
0.0
 10
119.303350
 20
242.712107
 30
0.0
 10
119.089790
 20
242.284181
 30
0.0
 10
118.843920
 20
241.659140
 30
0.0
  0
SPLINE
  5
124
100
AcDbEntity
  8
Layer_1
 62
7
100
AcDbSpline
 70
8
 71
3
 72
8
 73
4
 74
0
 40
0
 40
0
 40
0
 40
0
 40
1
 40
1
 40
1
 40
1
 10
118.843920
 20
241.659140
 30
0.0
 10
118.734460
 20
241.380875
 30
0.0
 10
118.635360
 20
241.124748
 30
0.0
 10
118.623710
 20
241.089965
 30
0.0
  0
SPLINE
  5
125
100
AcDbEntity
  8
Layer_1
 62
7
100
AcDbSpline
 70
8
 71
3
 72
8
 73
4
 74
0
 40
0
 40
0
 40
0
 40
0
 40
1
 40
1
 40
1
 40
1
 10
118.623710
 20
241.089965
 30
0.0
 10
118.596510
 20
241.008825
 30
0.0
 10
118.559610
 20
241.011855
 30
0.0
 10
118.275000
 20
241.118615
 30
0.0
  0
LWPOLYLINE
  5
126
100
AcDbEntity
  8
Layer_1
 62
7
100
AcDbPolyline
 90
3
 70
0
 10
119.875730
 20
243.888093
 30
0.0
 10
119.965530
 20
243.804223
 30
0.0
 10
119.676760
 20
243.327957
 30
0.0
  0
LWPOLYLINE
  5
127
100
AcDbEntity
  8
Layer_1
 62
7
100
AcDbPolyline
 90
2
 70
0
 10
118.275000
 20
241.118615
 30
0.0
 10
118.274890
 20
241.118617
 30
0.0
  0
ENDSEC
  0
SECTION
  2
OBJECTS
  0
DICTIONARY
  5
C
330
0
100
AcDbDictionary
  3
ACAD_GROUP
350
D
  3
ACAD_MLINESTYLE
350
17
  0
DICTIONARY
  5
D
330
C
100
AcDbDictionary
  0
DICTIONARY
  5
1A
330
C
100
AcDbDictionary
  0
DICTIONARY
  5
17
330
C
100
AcDbDictionary
  3
STANDARD
350
18
  0
DICTIONARY
  5
19
330
C
100
AcDbDictionary
  0
ENDSEC
  0
EOF
