  0
SECTION
  2
HEADER
  9
$ACADVER
  1
AC1014
  9
$HANDSEED
  5
FFFF
  9
$MEASUREMENT
 70
     1
  0
ENDSEC
  0
SECTION
  2
TABLES
  0
TABLE
  2
VPORT
  5
8
330
0
100
AcDbSymbolTable
 70
     4
  0
VPORT
  5
2E
330
8
100
AcDbSymbolTableRecord
100
AcDbViewportTableRecord
  2
*ACTIVE
 70
     0
 10
0.0
 20
0.0
 11
1.0
 21
1.0
 12
210.0
 22
148.5
 13
0.0
 23
0.0
 14
10.0
 24
10.0
 15
10.0
 25
10.0
 16
0.0
 26
0.0
 36
1.0
 17
0.0
 27
0.0
 37
0.0
 40
341.0
 41
1.24
 42
50.0
 43
0.0
 44
0.0
 50
0.0
 51
0.0
 71
     0
 72
   100
 73
     1
 74
     3
 75
     0
 76
     0
 77
     0
 78
     0
  0
ENDTAB
  0
TABLE
  2
LTYPE
  5
5
330
0
100
AcDbSymbolTable
 70
     1
  0
LTYPE
  5
14
330
5
100
AcDbSymbolTableRecord
100
AcDbLinetypeTableRecord
  2
BYBLOCK
 70
     0
  3

 72
    65
 73
     0
 40
0.0
  0
LTYPE
  5
15
330
5
100
AcDbSymbolTableRecord
100
AcDbLinetypeTableRecord
  2
BYLAYER
 70
     0
  3

 72
    65
 73
     0
 40
0.0
  0
LTYPE
  5
16
330
5
100
AcDbSymbolTableRecord
100
AcDbLinetypeTableRecord
  2
CONTINUOUS
 70
     0
  3
Solid line
 72
    65
 73
     0
 40
0.0
  0
ENDTAB
  0
TABLE
  2
LAYER
  5
2
100
AcDbSymbolTable
 70
2
  0
LAYER
  5
50
100
AcDbSymbolTableRecord
100
AcDbLayerTableRecord
  2
0
 70
0
  6
CONTINUOUS
  0
LAYER
  5
51
100
AcDbSymbolTableRecord
100
AcDbLayerTableRecord
  2
Layer_1
 70
0
  6
CONTINUOUS
  0
ENDTAB
  0
TABLE
  2
STYLE
  5
3
330
0
100
AcDbSymbolTable
 70
     1
  0
STYLE
  5
11
330
3
100
AcDbSymbolTableRecord
100
AcDbTextStyleTableRecord
  2
STANDARD
 70
     0
 40
0.0
 41
1.0
 50
0.0
 71
     0
 42
2.5
  3
txt
  4

  0
ENDTAB
  0
TABLE
  2
VIEW
  5
6
330
0
100
AcDbSymbolTable
 70
     0
  0
ENDTAB
  0
TABLE
  2
UCS
  5
7
330
0
100
AcDbSymbolTable
 70
     0
  0
ENDTAB
  0
TABLE
  2
APPID
  5
9
330
0
100
AcDbSymbolTable
 70
     2
  0
APPID
  5
12
330
9
100
AcDbSymbolTableRecord
100
AcDbRegAppTableRecord
  2
ACAD
 70
     0
  0
ENDTAB
  0
TABLE
  2
DIMSTYLE
  5
A
330
0
100
AcDbSymbolTable
 70
     1
  0
DIMSTYLE
105
27
330
A
100
AcDbSymbolTableRecord
100
AcDbDimStyleTableRecord
  2
ISO-25
 70
     0
  3

  4

  5

  6

  7

 40
1.0
 41
2.5
 42
0.625
 43
3.75
 44
1.25
 45
0.0
 46
0.0
 47
0.0
 48
0.0
140
2.5
141
2.5
142
0.0
143
0.03937007874016
144
1.0
145
0.0
146
1.0
147
0.625
 71
     0
 72
     0
 73
     0
 74
     0
 75
     0
 76
     0
 77
     1
 78
     8
170
     0
171
     3
172
     1
173
     0
174
     0
175
     0
176
     0
177
     0
178
     0
270
     2
271
     2
272
     2
273
     2
274
     3
340
11
275
     0
280
     0
281
     0
282
     0
283
     0
284
     8
285
     0
286
     0
287
     3
288
     0
  0
ENDTAB
  0
TABLE
  2
BLOCK_RECORD
  5
1
330
0
100
AcDbSymbolTable
 70
     1
  0
BLOCK_RECORD
  5
1F
330
1
100
AcDbSymbolTableRecord
100
AcDbBlockTableRecord
  2
*MODEL_SPACE
  0
BLOCK_RECORD
  5
1B
330
1
100
AcDbSymbolTableRecord
100
AcDbBlockTableRecord
  2
*PAPER_SPACE
  0
ENDTAB
  0
ENDSEC
  0
SECTION
  2
BLOCKS
  0
BLOCK
  5
20
330
1F
100
AcDbEntity
  8
0
100
AcDbBlockBegin
  2
*MODEL_SPACE
 70
     0
 10
0.0
 20
0.0
 30
0.0
  3
*MODEL_SPACE
  1

  0
ENDBLK
  5
21
330
1F
100
AcDbEntity
  8
0
100
AcDbBlockEnd
  0
BLOCK
  5
1C
330
1B
100
AcDbEntity
 67
     1
  8
0
100
AcDbBlockBegin
  2
*PAPER_SPACE
  1

  0
ENDBLK
  5
1D
330
1B
100
AcDbEntity
 67
     1
  8
0
100
AcDbBlockEnd
  0
ENDSEC
  0
SECTION
  2
ENTITIES
  0
SPLINE
  5
100
100
AcDbEntity
  8
Layer_1
 62
7
100
AcDbSpline
 70
8
 71
3
 72
8
 73
4
 74
0
 40
0
 40
0
 40
0
 40
0
 40
1
 40
1
 40
1
 40
1
 10
63.863577
 20
201.248826
 30
0.0
 10
63.975186
 20
201.513698
 30
0.0
 10
64.079887
 20
201.765422
 30
0.0
 10
64.096246
 20
201.808213
 30
0.0
  0
LWPOLYLINE
  5
101
100
AcDbEntity
  8
Layer_1
 62
7
100
AcDbPolyline
 90
5
 70
0
 10
63.940724
 20
195.788830
 30
0.0
 10
63.660655
 20
196.117870
 30
0.0
 10
63.660655
 20
198.442555
 30
0.0
 10
63.660655
 20
200.767245
 30
0.0
 10
63.863577
 20
201.248826
 30
0.0
  0
SPLINE
  5
102
100
AcDbEntity
  8
Layer_1
 62
7
100
AcDbSpline
 70
8
 71
3
 72
8
 73
4
 74
0
 40
0
 40
0
 40
0
 40
0
 40
1
 40
1
 40
1
 40
1
 10
64.381190
 20
201.811583
 30
0.0
 10
64.563345
 20
201.758443
 30
0.0
 10
64.636383
 20
201.720183
 30
0.0
 10
64.636383
 20
201.677879
 30
0.0
  0
SPLINE
  5
103
100
AcDbEntity
  8
Layer_1
 62
7
100
AcDbSpline
 70
8
 71
3
 72
8
 73
4
 74
0
 40
0
 40
0
 40
0
 40
0
 40
1
 40
1
 40
1
 40
1
 10
64.636383
 20
201.677879
 30
0.0
 10
64.636383
 20
201.645289
 30
0.0
 10
64.603863
 20
201.469628
 30
0.0
 10
64.564123
 20
201.287526
 30
0.0
  0
SPLINE
  5
104
100
AcDbEntity
  8
Layer_1
 62
7
100
AcDbSpline
 70
8
 71
3
 72
8
 73
4
 74
0
 40
0
 40
0
 40
0
 40
0
 40
1
 40
1
 40
1
 40
1
 10
64.564123
 20
201.287526
 30
0.0
 10
64.405743
 20
200.561853
 30
0.0
 10
64.338804
 20
199.863766
 30
0.0
 10
64.336306
 20
198.911652
 30
0.0
  0
SPLINE
  5
105
100
AcDbEntity
  8
Layer_1
 62
7
100
AcDbSpline
 70
8
 71
3
 72
8
 73
4
 74
0
 40
0
 40
0
 40
0
 40
0
 40
1
 40
1
 40
1
 40
1
 10
64.336306
 20
198.911652
 30
0.0
 10
64.333306
 20
197.785390
 30
0.0
 10
64.419396
 20
197.010748
 30
0.0
 10
64.655116
 20
196.041450
 30
0.0
  0
SPLINE
  5
106
100
AcDbEntity
  8
Layer_1
 62
7
100
AcDbSpline
 70
8
 71
3
 72
8
 73
4
 74
0
 40
0
 40
0
 40
0
 40
0
 40
1
 40
1
 40
1
 40
1
 10
64.655116
 20
196.041450
 30
0.0
 10
64.705496
 20
195.834280
 30
0.0
 10
64.734086
 20
195.653330
 30
0.0
 10
64.718656
 20
195.639340
 30
0.0
  0
SPLINE
  5
107
100
AcDbEntity
  8
Layer_1
 62
7
100
AcDbSpline
 70
8
 71
3
 72
8
 73
4
 74
0
 40
0
 40
0
 40
0
 40
0
 40
1
 40
1
 40
1
 40
1
 10
64.718656
 20
195.639340
 30
0.0
 10
64.703236
 20
195.625340
 30
0.0
 10
64.601152
 20
195.585140
 30
0.0
 10
64.491834
 20
195.550040
 30
0.0
  0
SPLINE
  5
108
100
AcDbEntity
  8
Layer_1
 62
7
100
AcDbSpline
 70
8
 71
3
 72
8
 73
4
 74
0
 40
0
 40
0
 40
0
 40
0
 40
1
 40
1
 40
1
 40
1
 10
64.491834
 20
195.550040
 30
0.0
 10
64.382517
 20
195.514940
 30
0.0
 10
64.276813
 20
195.480240
 30
0.0
 10
64.256937
 20
195.473040
 30
0.0
  0
SPLINE
  5
109
100
AcDbEntity
  8
Layer_1
 62
7
100
AcDbSpline
 70
8
 71
3
 72
8
 73
4
 74
0
 40
0
 40
0
 40
0
 40
0
 40
1
 40
1
 40
1
 40
1
 10
64.256937
 20
195.473040
 30
0.0
 10
64.237067
 20
195.466040
 30
0.0
 10
64.094769
 20
195.607960
 30
0.0
 10
63.940731
 20
195.788930
 30
0.0
  0
LWPOLYLINE
  5
10a
100
AcDbEntity
  8
Layer_1
 62
7
100
AcDbPolyline
 90
3
 70
0
 10
64.096246
 20
201.808213
 30
0.0
 10
64.125996
 20
201.886023
 30
0.0
 10
64.381190
 20
201.811583
 30
0.0
  0
SPLINE
  5
10b
100
AcDbEntity
  8
Layer_1
 62
7
100
AcDbSpline
 70
8
 71
3
 72
8
 73
4
 74
0
 40
0
 40
0
 40
0
 40
0
 40
1
 40
1
 40
1
 40
1
 10
82.082214
 20
195.545960
 30
0.0
 10
81.948173
 20
195.588360
 30
0.0
 10
81.838405
 20
195.640960
 30
0.0
 10
81.838284
 20
195.662880
 30
0.0
  0
SPLINE
  5
10c
100
AcDbEntity
  8
Layer_1
 62
7
100
AcDbSpline
 70
8
 71
3
 72
8
 73
4
 74
0
 40
0
 40
0
 40
0
 40
0
 40
1
 40
1
 40
1
 40
1
 10
81.838284
 20
195.662880
 30
0.0
 10
81.838159
 20
195.684780
 30
0.0
 10
81.877764
 20
195.863650
 30
0.0
 10
81.926284
 20
196.060400
 30
0.0
  0
SPLINE
  5
10d
100
AcDbEntity
  8
Layer_1
 62
7
100
AcDbSpline
 70
8
 71
3
 72
8
 73
4
 74
0
 40
0
 40
0
 40
0
 40
0
 40
1
 40
1
 40
1
 40
1
 10
81.926284
 20
196.060400
 30
0.0
 10
82.150587
 20
196.969890
 30
0.0
 10
82.244964
 20
197.810775
 30
0.0
 10
82.244260
 20
198.893577
 30
0.0
  0
SPLINE
  5
10e
100
AcDbEntity
  8
Layer_1
 62
7
100
AcDbSpline
 70
8
 71
3
 72
8
 73
4
 74
0
 40
0
 40
0
 40
0
 40
0
 40
1
 40
1
 40
1
 40
1
 10
82.244260
 20
198.893577
 30
0.0
 10
82.243731
 20
199.776626
 30
0.0
 10
82.187080
 20
200.387475
 30
0.0
 10
82.031601
 20
201.188340
 30
0.0
  0
SPLINE
  5
10f
100
AcDbEntity
  8
Layer_1
 62
7
100
AcDbSpline
 70
8
 71
3
 72
8
 73
4
 74
0
 40
0
 40
0
 40
0
 40
0
 40
1
 40
1
 40
1
 40
1
 10
82.031601
 20
201.188340
 30
0.0
 10
81.981441
 20
201.446727
 30
0.0
 10
81.937701
 20
201.672958
 30
0.0
 10
81.934401
 20
201.691080
 30
0.0
  0
SPLINE
  5
110
100
AcDbEntity
  8
Layer_1
 62
7
100
AcDbSpline
 70
8
 71
3
 72
8
 73
4
 74
0
 40
0
 40
0
 40
0
 40
0
 40
1
 40
1
 40
1
 40
1
 10
81.934401
 20
201.691080
 30
0.0
 10
81.931101
 20
201.709200
 30
0.0
 10
82.046341
 20
201.761690
 30
0.0
 10
82.190480
 20
201.807737
 30
0.0
  0
LWPOLYLINE
  5
111
100
AcDbEntity
  8
Layer_1
 62
7
100
AcDbPolyline
 90
2
 70
0
 10
63.940731
 20
195.788930
 30
0.0
 10
63.940724
 20
195.788830
 30
0.0
  0
SPLINE
  5
112
100
AcDbEntity
  8
Layer_1
 62
7
100
AcDbSpline
 70
8
 71
3
 72
8
 73
4
 74
0
 40
0
 40
0
 40
0
 40
0
 40
1
 40
1
 40
1
 40
1
 10
82.883563
 20
195.891240
 30
0.0
 10
82.603739
 20
195.664260
 30
0.0
 10
82.363873
 20
195.476350
 30
0.0
 10
82.350528
 20
195.473680
 30
0.0
  0
SPLINE
  5
113
100
AcDbEntity
  8
Layer_1
 62
7
100
AcDbSpline
 70
8
 71
3
 72
8
 73
4
 74
0
 40
0
 40
0
 40
0
 40
0
 40
1
 40
1
 40
1
 40
1
 10
82.350528
 20
195.473680
 30
0.0
 10
82.337198
 20
195.470680
 30
0.0
 10
82.216598
 20
195.503580
 30
0.0
 10
82.082558
 20
195.545980
 30
0.0
  0
LWPOLYLINE
  5
114
100
AcDbEntity
  8
Layer_1
 62
7
100
AcDbPolyline
 90
7
 70
0
 10
82.190480
 20
201.807737
 30
0.0
 10
82.452556
 20
201.891447
 30
0.0
 10
82.921347
 20
201.557961
 30
0.0
 10
83.390138
 20
201.224475
 30
0.0
 10
83.391238
 20
198.764209
 30
0.0
 10
83.392338
 20
196.303950
 30
0.0
 10
82.883563
 20
195.891240
 30
0.0
  0
LWPOLYLINE
  5
115
100
AcDbEntity
  8
Layer_1
 62
7
100
AcDbPolyline
 90
2
 70
0
 10
82.082558
 20
195.545980
 30
0.0
 10
82.082214
 20
195.545960
 30
0.0
  0
SPLINE
  5
116
100
AcDbEntity
  8
Layer_1
 62
7
100
AcDbSpline
 70
8
 71
3
 72
8
 73
4
 74
0
 40
0
 40
0
 40
0
 40
0
 40
1
 40
1
 40
1
 40
1
 10
64.746179
 20
194.699480
 30
0.0
 10
64.880781
 20
194.740380
 30
0.0
 10
65.000984
 20
194.773780
 30
0.0
 10
65.013297
 20
194.773780
 30
0.0
  0
SPLINE
  5
117
100
AcDbEntity
  8
Layer_1
 62
7
100
AcDbSpline
 70
8
 71
3
 72
8
 73
4
 74
0
 40
0
 40
0
 40
0
 40
0
 40
1
 40
1
 40
1
 40
1
 10
65.013297
 20
194.773780
 30
0.0
 10
65.025597
 20
194.773780
 30
0.0
 10
65.051687
 20
194.731680
 30
0.0
 10
65.071237
 20
194.680280
 30
0.0
  0
SPLINE
  5
118
100
AcDbEntity
  8
Layer_1
 62
7
100
AcDbSpline
 70
8
 71
3
 72
8
 73
4
 74
0
 40
0
 40
0
 40
0
 40
0
 40
1
 40
1
 40
1
 40
1
 10
65.071237
 20
194.680280
 30
0.0
 10
65.100747
 20
194.602680
 30
0.0
 10
65.070443
 20
194.490580
 30
0.0
 10
64.893281
 20
194.020760
 30
0.0
  0
SPLINE
  5
119
100
AcDbEntity
  8
Layer_1
 62
7
100
AcDbSpline
 70
8
 71
3
 72
8
 73
4
 74
0
 40
0
 40
0
 40
0
 40
0
 40
1
 40
1
 40
1
 40
1
 10
64.893281
 20
194.020760
 30
0.0
 10
64.360455
 20
192.608270
 30
0.0
 10
64.204375
 20
191.949420
 30
0.0
 10
64.177035
 20
190.997380
 30
0.0
  0
SPLINE
  5
11a
100
AcDbEntity
  8
Layer_1
 62
7
100
AcDbSpline
 70
8
 71
3
 72
8
 73
4
 74
0
 40
0
 40
0
 40
0
 40
0
 40
1
 40
1
 40
1
 40
1
 10
64.177035
 20
190.997380
 30
0.0
 10
64.147315
 20
189.962390
 30
0.0
 10
64.262305
 20
189.539920
 30
0.0
 10
64.678675
 20
189.154440
 30
0.0
  0
SPLINE
  5
11b
100
AcDbEntity
  8
Layer_1
 62
7
100
AcDbSpline
 70
8
 71
3
 72
8
 73
4
 74
0
 40
0
 40
0
 40
0
 40
0
 40
1
 40
1
 40
1
 40
1
 10
64.678675
 20
189.154440
 30
0.0
 10
64.953984
 20
188.899550
 30
0.0
 10
65.208704
 20
188.800020
 30
0.0
 10
65.594033
 20
188.796760
 30
0.0
  0
SPLINE
  5
11c
100
AcDbEntity
  8
Layer_1
 62
7
100
AcDbSpline
 70
8
 71
3
 72
8
 73
4
 74
0
 40
0
 40
0
 40
0
 40
0
 40
1
 40
1
 40
1
 40
1
 10
65.594033
 20
188.796760
 30
0.0
 10
66.264918
 20
188.790760
 30
0.0
 10
66.635983
 20
189.171930
 30
0.0
 10
66.696496
 20
189.928260
 30
0.0
  0
SPLINE
  5
11d
100
AcDbEntity
  8
Layer_1
 62
7
100
AcDbSpline
 70
8
 71
3
 72
8
 73
4
 74
0
 40
0
 40
0
 40
0
 40
0
 40
1
 40
1
 40
1
 40
1
 10
66.696496
 20
189.928260
 30
0.0
 10
66.711736
 20
190.118760
 30
0.0
 10
66.775666
 20
190.542940
 30
0.0
 10
66.838564
 20
190.870890
 30
0.0
  0
LWPOLYLINE
  5
11e
100
AcDbEntity
  8
Layer_1
 62
7
100
AcDbPolyline
 90
5
 70
0
 10
63.660655
 20
190.936300
 30
0.0
 10
63.660655
 20
193.639720
 30
0.0
 10
64.081051
 20
194.132450
 30
0.0
 10
64.501445
 20
194.625180
 30
0.0
 10
64.746179
 20
194.699480
 30
0.0
  0
SPLINE
  5
11f
100
AcDbEntity
  8
Layer_1
 62
7
100
AcDbSpline
 70
8
 71
3
 72
8
 73
4
 74
0
 40
0
 40
0
 40
0
 40
0
 40
1
 40
1
 40
1
 40
1
 10
67.466031
 20
190.960070
 30
0.0
 10
68.258072
 20
190.177290
 30
0.0
 10
69.135658
 20
189.562700
 30
0.0
 10
70.033347
 20
189.162110
 30
0.0
  0
SPLINE
  5
120
100
AcDbEntity
  8
Layer_1
 62
7
100
AcDbSpline
 70
8
 71
3
 72
8
 73
4
 74
0
 40
0
 40
0
 40
0
 40
0
 40
1
 40
1
 40
1
 40
1
 10
70.033347
 20
189.162110
 30
0.0
 10
72.818261
 20
187.919360
 30
0.0
 10
75.928726
 20
188.340400
 30
0.0
 10
78.386877
 20
190.292870
 30
0.0
  0
SPLINE
  5
121
100
AcDbEntity
  8
Layer_1
 62
7
100
AcDbSpline
 70
8
 71
3
 72
8
 73
4
 74
0
 40
0
 40
0
 40
0
 40
0
 40
1
 40
1
 40
1
 40
1
 10
78.386877
 20
190.292870
 30
0.0
 10
78.907765
 20
190.706600
 30
0.0
 10
79.802012
 20
191.644590
 30
0.0
 10
80.103433
 20
192.093400
 30
0.0
  0
LWPOLYLINE
  5
122
100
AcDbEntity
  8
Layer_1
 62
7
100
AcDbPolyline
 90
3
 70
0
 10
66.838564
 20
190.870890
 30
0.0
 10
66.952922
 20
191.467170
 30
0.0
 10
67.466031
 20
190.960070
 30
0.0
  0
SPLINE
  5
123
100
AcDbEntity
  8
Layer_1
 62
7
100
AcDbSpline
 70
8
 71
3
 72
8
 73
4
 74
0
 40
0
 40
0
 40
0
 40
0
 40
1
 40
1
 40
1
 40
1
 10
80.758894
 20
191.975180
 30
0.0
 10
81.765575
 20
191.642110
 30
0.0
 10
82.131753
 20
191.627300
 30
0.0
 10
83.116723
 20
191.879780
 30
0.0
  0
SPLINE
  5
124
100
AcDbEntity
  8
Layer_1
 62
7
100
AcDbSpline
 70
8
 71
3
 72
8
 73
4
 74
0
 40
0
 40
0
 40
0
 40
0
 40
1
 40
1
 40
1
 40
1
 10
83.116723
 20
191.879780
 30
0.0
 10
83.665381
 20
192.020440
 30
0.0
 10
83.712411
 20
192.026590
 30
0.0
 10
84.182793
 20
192.019060
 30
0.0
  0
SPLINE
  5
125
100
AcDbEntity
  8
Layer_1
 62
7
100
AcDbSpline
 70
8
 71
3
 72
8
 73
4
 74
0
 40
0
 40
0
 40
0
 40
0
 40
1
 40
1
 40
1
 40
1
 10
84.182793
 20
192.019060
 30
0.0
 10
84.612976
 20
192.012060
 30
0.0
 10
84.695341
 20
192.021060
 30
0.0
 10
84.837504
 20
192.085460
 30
0.0
  0
SPLINE
  5
126
100
AcDbEntity
  8
Layer_1
 62
7
100
AcDbSpline
 70
8
 71
3
 72
8
 73
4
 74
0
 40
0
 40
0
 40
0
 40
0
 40
1
 40
1
 40
1
 40
1
 10
84.837504
 20
192.085460
 30
0.0
 10
85.163592
 20
192.234430
 30
0.0
 10
85.328830
 20
192.536260
 30
0.0
 10
85.300292
 20
192.930820
 30
0.0
  0
SPLINE
  5
127
100
AcDbEntity
  8
Layer_1
 62
7
100
AcDbSpline
 70
8
 71
3
 72
8
 73
4
 74
0
 40
0
 40
0
 40
0
 40
0
 40
1
 40
1
 40
1
 40
1
 10
85.300292
 20
192.930820
 30
0.0
 10
85.261872
 20
193.461880
 30
0.0
 10
84.724442
 20
194.003760
 30
0.0
 10
83.992438
 20
194.249480
 30
0.0
  0
SPLINE
  5
128
100
AcDbEntity
  8
Layer_1
 62
7
100
AcDbSpline
 70
8
 71
3
 72
8
 73
4
 74
0
 40
0
 40
0
 40
0
 40
0
 40
1
 40
1
 40
1
 40
1
 10
83.992438
 20
194.249480
 30
0.0
 10
83.689019
 20
194.351340
 30
0.0
 10
83.583141
 20
194.358590
 30
0.0
 10
82.669225
 20
194.340080
 30
0.0
  0
SPLINE
  5
129
100
AcDbEntity
  8
Layer_1
 62
7
100
AcDbSpline
 70
8
 71
3
 72
8
 73
4
 74
0
 40
0
 40
0
 40
0
 40
0
 40
1
 40
1
 40
1
 40
1
 10
82.669225
 20
194.340080
 30
0.0
 10
82.247953
 20
194.331080
 30
0.0
 10
81.880875
 20
194.361280
 30
0.0
 10
81.506561
 20
194.434180
 30
0.0
  0
SPLINE
  5
12a
100
AcDbEntity
  8
Layer_1
 62
7
100
AcDbSpline
 70
8
 71
3
 72
8
 73
4
 74
0
 40
0
 40
0
 40
0
 40
0
 40
1
 40
1
 40
1
 40
1
 10
81.506561
 20
194.434180
 30
0.0
 10
81.410231
 20
194.452980
 30
0.0
 10
81.410121
 20
194.453380
 30
0.0
 10
81.464741
 20
194.586260
 30
0.0
  0
SPLINE
  5
12b
100
AcDbEntity
  8
Layer_1
 62
7
100
AcDbSpline
 70
8
 71
3
 72
8
 73
4
 74
0
 40
0
 40
0
 40
0
 40
0
 40
1
 40
1
 40
1
 40
1
 10
81.464741
 20
194.586260
 30
0.0
 10
81.494871
 20
194.659560
 30
0.0
 10
81.532831
 20
194.733530
 30
0.0
 10
81.549101
 20
194.750660
 30
0.0
  0
SPLINE
  5
12c
100
AcDbEntity
  8
Layer_1
 62
7
100
AcDbSpline
 70
8
 71
3
 72
8
 73
4
 74
0
 40
0
 40
0
 40
0
 40
0
 40
1
 40
1
 40
1
 40
1
 10
81.549101
 20
194.750660
 30
0.0
 10
81.565451
 20
194.767860
 30
0.0
 10
81.712687
 20
194.737160
 30
0.0
 10
81.878375
 20
194.681960
 30
0.0
  0
LWPOLYLINE
  5
12d
100
AcDbEntity
  8
Layer_1
 62
7
100
AcDbPolyline
 90
3
 70
0
 10
80.103433
 20
192.093400
 30
0.0
 10
80.157633
 20
192.174100
 30
0.0
 10
80.758894
 20
191.975180
 30
0.0
  0
SPLINE
  5
12e
100
AcDbEntity
  8
Layer_1
 62
7
100
AcDbSpline
 70
8
 71
3
 72
8
 73
4
 74
0
 40
0
 40
0
 40
0
 40
0
 40
1
 40
1
 40
1
 40
1
 10
82.812124
 20
194.641960
 30
0.0
 10
83.265429
 20
194.684660
 30
0.0
 10
83.814492
 20
194.701660
 30
0.0
 10
84.738121
 20
194.701560
 30
0.0
  0
LWPOLYLINE
  5
12f
100
AcDbEntity
  8
Layer_1
 62
7
100
AcDbPolyline
 90
3
 70
0
 10
81.878375
 20
194.681960
 30
0.0
 10
82.178058
 20
194.582160
 30
0.0
 10
82.812124
 20
194.641960
 30
0.0
  0
SPLINE
  5
130
100
AcDbEntity
  8
Layer_1
 62
7
100
AcDbSpline
 70
8
 71
3
 72
8
 73
4
 74
0
 40
0
 40
0
 40
0
 40
0
 40
1
 40
1
 40
1
 40
1
 10
64.600240
 20
202.664916
 30
0.0
 10
64.471047
 20
202.707846
 30
0.0
 10
64.349082
 20
202.753026
 30
0.0
 10
64.329207
 20
202.765330
 30
0.0
  0
SPLINE
  5
131
100
AcDbEntity
  8
Layer_1
 62
7
100
AcDbSpline
 70
8
 71
3
 72
8
 73
4
 74
0
 40
0
 40
0
 40
0
 40
0
 40
1
 40
1
 40
1
 40
1
 10
64.329207
 20
202.765330
 30
0.0
 10
64.309337
 20
202.777630
 30
0.0
 10
64.150774
 20
202.808550
 30
0.0
 10
63.976861
 20
202.834040
 30
0.0
  0
LWPOLYLINE
  5
132
100
AcDbEntity
  8
Layer_1
 62
7
100
AcDbPolyline
 90
7
 70
0
 10
84.738121
 20
194.701560
 30
0.0
 10
86.030055
 20
194.701400
 30
0.0
 10
86.030055
 20
191.467050
 30
0.0
 10
86.030055
 20
188.232700
 30
0.0
 10
74.845359
 20
188.232700
 30
0.0
 10
63.660655
 20
188.232700
 30
0.0
 10
63.660655
 20
190.936300
 30
0.0
  0
SPLINE
  5
133
100
AcDbEntity
  8
Layer_1
 62
7
100
AcDbSpline
 70
8
 71
3
 72
8
 73
4
 74
0
 40
0
 40
0
 40
0
 40
0
 40
1
 40
1
 40
1
 40
1
 10
82.913164
 20
203.155213
 30
0.0
 10
82.649808
 20
203.010623
 30
0.0
 10
82.376012
 20
202.855971
 30
0.0
 10
82.304728
 20
202.811540
 30
0.0
  0
SPLINE
  5
134
100
AcDbEntity
  8
Layer_1
 62
7
100
AcDbSpline
 70
8
 71
3
 72
8
 73
4
 74
0
 40
0
 40
0
 40
0
 40
0
 40
1
 40
1
 40
1
 40
1
 10
82.304728
 20
202.811540
 30
0.0
 10
82.190465
 20
202.740320
 30
0.0
 10
81.692064
 20
202.563070
 30
0.0
 10
81.676629
 20
202.588163
 30
0.0
  0
SPLINE
  5
135
100
AcDbEntity
  8
Layer_1
 62
7
100
AcDbSpline
 70
8
 71
3
 72
8
 73
4
 74
0
 40
0
 40
0
 40
0
 40
0
 40
1
 40
1
 40
1
 40
1
 10
81.676629
 20
202.588163
 30
0.0
 10
81.673429
 20
202.593463
 30
0.0
 10
81.591769
 20
202.806915
 30
0.0
 10
81.495233
 20
203.062598
 30
0.0
  0
SPLINE
  5
136
100
AcDbEntity
  8
Layer_1
 62
7
100
AcDbSpline
 70
8
 71
3
 72
8
 73
4
 74
0
 40
0
 40
0
 40
0
 40
0
 40
1
 40
1
 40
1
 40
1
 10
81.495233
 20
203.062598
 30
0.0
 10
81.268345
 20
203.663549
 30
0.0
 10
80.905963
 20
204.402572
 30
0.0
 10
80.574888
 20
204.939507
 30
0.0
  0
SPLINE
  5
137
100
AcDbEntity
  8
Layer_1
 62
7
100
AcDbSpline
 70
8
 71
3
 72
8
 73
4
 74
0
 40
0
 40
0
 40
0
 40
0
 40
1
 40
1
 40
1
 40
1
 10
80.574888
 20
204.939507
 30
0.0
 10
80.430258
 20
205.174068
 30
0.0
 10
80.317866
 20
205.370503
 30
0.0
 10
80.325129
 20
205.376027
 30
0.0
  0
SPLINE
  5
138
100
AcDbEntity
  8
Layer_1
 62
7
100
AcDbSpline
 70
8
 71
3
 72
8
 73
4
 74
0
 40
0
 40
0
 40
0
 40
0
 40
1
 40
1
 40
1
 40
1
 10
80.325129
 20
205.376027
 30
0.0
 10
80.332429
 20
205.381527
 30
0.0
 10
80.541608
 20
205.540778
 30
0.0
 10
80.790057
 20
205.729868
 30
0.0
  0
SPLINE
  5
139
100
AcDbEntity
  8
Layer_1
 62
7
100
AcDbSpline
 70
8
 71
3
 72
8
 73
4
 74
0
 40
0
 40
0
 40
0
 40
0
 40
1
 40
1
 40
1
 40
1
 10
80.790057
 20
205.729868
 30
0.0
 10
81.097683
 20
205.963992
 30
0.0
 10
81.405857
 20
206.157516
 30
0.0
 10
81.756123
 20
206.336528
 30
0.0
  0
SPLINE
  5
13a
100
AcDbEntity
  8
Layer_1
 62
7
100
AcDbSpline
 70
8
 71
3
 72
8
 73
4
 74
0
 40
0
 40
0
 40
0
 40
0
 40
1
 40
1
 40
1
 40
1
 10
81.756123
 20
206.336528
 30
0.0
 10
82.381733
 20
206.656264
 30
0.0
 10
82.683188
 20
206.909692
 30
0.0
 10
82.846478
 20
207.253169
 30
0.0
  0
SPLINE
  5
13b
100
AcDbEntity
  8
Layer_1
 62
7
100
AcDbSpline
 70
8
 71
3
 72
8
 73
4
 74
0
 40
0
 40
0
 40
0
 40
0
 40
1
 40
1
 40
1
 40
1
 10
82.846478
 20
207.253169
 30
0.0
 10
83.203743
 20
208.004676
 30
0.0
 10
82.987967
 20
208.772825
 30
0.0
 10
82.336782
 20
209.067655
 30
0.0
  0
SPLINE
  5
13c
100
AcDbEntity
  8
Layer_1
 62
7
100
AcDbSpline
 70
8
 71
3
 72
8
 73
4
 74
0
 40
0
 40
0
 40
0
 40
0
 40
1
 40
1
 40
1
 40
1
 10
82.336782
 20
209.067655
 30
0.0
 10
82.143536
 20
209.155145
 30
0.0
 10
82.062632
 20
209.170716
 30
0.0
 10
81.801922
 20
209.170559
 30
0.0
  0
SPLINE
  5
13d
100
AcDbEntity
  8
Layer_1
 62
7
100
AcDbSpline
 70
8
 71
3
 72
8
 73
4
 74
0
 40
0
 40
0
 40
0
 40
0
 40
1
 40
1
 40
1
 40
1
 10
81.801922
 20
209.170559
 30
0.0
 10
81.465793
 20
209.170380
 30
0.0
 10
81.248567
 20
209.099129
 30
0.0
 10
81.006886
 20
208.909866
 30
0.0
  0
SPLINE
  5
13e
100
AcDbEntity
  8
Layer_1
 62
7
100
AcDbSpline
 70
8
 71
3
 72
8
 73
4
 74
0
 40
0
 40
0
 40
0
 40
0
 40
1
 40
1
 40
1
 40
1
 10
81.006886
 20
208.909866
 30
0.0
 10
80.937316
 20
208.855386
 30
0.0
 10
80.758437
 20
208.739514
 30
0.0
 10
80.609368
 20
208.652368
 30
0.0
  0
SPLINE
  5
13f
100
AcDbEntity
  8
Layer_1
 62
7
100
AcDbSpline
 70
8
 71
3
 72
8
 73
4
 74
0
 40
0
 40
0
 40
0
 40
0
 40
1
 40
1
 40
1
 40
1
 10
80.609368
 20
208.652368
 30
0.0
 10
80.001393
 20
208.296956
 30
0.0
 10
79.437563
 20
207.797944
 30
0.0
 10
79.102045
 20
207.318328
 30
0.0
  0
SPLINE
  5
140
100
AcDbEntity
  8
Layer_1
 62
7
100
AcDbSpline
 70
8
 71
3
 72
8
 73
4
 74
0
 40
0
 40
0
 40
0
 40
0
 40
1
 40
1
 40
1
 40
1
 10
79.102045
 20
207.318328
 30
0.0
 10
79.009895
 20
207.186605
 30
0.0
 10
78.922880
 20
207.065204
 30
0.0
 10
78.908674
 20
207.048548
 30
0.0
  0
SPLINE
  5
141
100
AcDbEntity
  8
Layer_1
 62
7
100
AcDbSpline
 70
8
 71
3
 72
8
 73
4
 74
0
 40
0
 40
0
 40
0
 40
0
 40
1
 40
1
 40
1
 40
1
 10
78.908674
 20
207.048548
 30
0.0
 10
78.894464
 20
207.031908
 30
0.0
 10
78.730599
 20
207.146028
 30
0.0
 10
78.544518
 20
207.302175
 30
0.0
  0
SPLINE
  5
142
100
AcDbEntity
  8
Layer_1
 62
7
100
AcDbSpline
 70
8
 71
3
 72
8
 73
4
 74
0
 40
0
 40
0
 40
0
 40
0
 40
1
 40
1
 40
1
 40
1
 10
78.544518
 20
207.302175
 30
0.0
 10
77.696552
 20
208.013751
 30
0.0
 10
76.739660
 20
208.553260
 30
0.0
 10
75.739775
 20
208.883532
 30
0.0
  0
SPLINE
  5
143
100
AcDbEntity
  8
Layer_1
 62
7
100
AcDbSpline
 70
8
 71
3
 72
8
 73
4
 74
0
 40
0
 40
0
 40
0
 40
0
 40
1
 40
1
 40
1
 40
1
 10
75.739775
 20
208.883532
 30
0.0
 10
75.575800
 20
208.937692
 30
0.0
 10
75.441638
 20
208.996186
 30
0.0
 10
75.441638
 20
209.013513
 30
0.0
  0
SPLINE
  5
144
100
AcDbEntity
  8
Layer_1
 62
7
100
AcDbSpline
 70
8
 71
3
 72
8
 73
4
 74
0
 40
0
 40
0
 40
0
 40
0
 40
1
 40
1
 40
1
 40
1
 10
75.441638
 20
209.013513
 30
0.0
 10
75.441638
 20
209.030843
 30
0.0
 10
75.596858
 20
209.934028
 30
0.0
 10
75.786575
 20
211.020598
 30
0.0
  0
SPLINE
  5
145
100
AcDbEntity
  8
Layer_1
 62
7
100
AcDbSpline
 70
8
 71
3
 72
8
 73
4
 74
0
 40
0
 40
0
 40
0
 40
0
 40
1
 40
1
 40
1
 40
1
 10
75.786575
 20
211.020598
 30
0.0
 10
75.976292
 20
212.107170
 30
0.0
 10
76.126715
 20
213.000977
 30
0.0
 10
76.120852
 20
213.006841
 30
0.0
  0
SPLINE
  5
146
100
AcDbEntity
  8
Layer_1
 62
7
100
AcDbSpline
 70
8
 71
3
 72
8
 73
4
 74
0
 40
0
 40
0
 40
0
 40
0
 40
1
 40
1
 40
1
 40
1
 10
76.120852
 20
213.006841
 30
0.0
 10
76.114952
 20
213.012741
 30
0.0
 10
75.484609
 20
213.176912
 30
0.0
 10
74.720010
 20
213.371749
 30
0.0
  0
LWPOLYLINE
  5
147
100
AcDbEntity
  8
Layer_1
 62
7
100
AcDbPolyline
 90
9
 70
0
 10
63.976861
 20
202.834040
 30
0.0
 10
63.660655
 20
202.880390
 30
0.0
 10
63.660655
 20
208.385617
 30
0.0
 10
63.660655
 20
213.890840
 30
0.0
 10
73.526324
 20
213.890840
 30
0.0
 10
83.391994
 20
213.890840
 30
0.0
 10
83.391994
 20
208.654471
 30
0.0
 10
83.391994
 20
203.418102
 30
0.0
 10
82.913164
 20
203.155213
 30
0.0
  0
SPLINE
  5
148
100
AcDbEntity
  8
Layer_1
 62
7
100
AcDbSpline
 70
8
 71
3
 72
8
 73
4
 74
0
 40
0
 40
0
 40
0
 40
0
 40
1
 40
1
 40
1
 40
1
 10
71.937385
 20
213.371680
 30
0.0
 10
71.171541
 20
213.176806
 30
0.0
 10
70.540157
 20
213.012616
 30
0.0
 10
70.534315
 20
213.006811
 30
0.0
  0
SPLINE
  5
149
100
AcDbEntity
  8
Layer_1
 62
7
100
AcDbSpline
 70
8
 71
3
 72
8
 73
4
 74
0
 40
0
 40
0
 40
0
 40
0
 40
1
 40
1
 40
1
 40
1
 10
70.534315
 20
213.006811
 30
0.0
 10
70.528515
 20
213.001011
 30
0.0
 10
70.680363
 20
212.098603
 30
0.0
 10
70.871850
 20
211.001471
 30
0.0
  0
SPLINE
  5
14a
100
AcDbEntity
  8
Layer_1
 62
7
100
AcDbSpline
 70
8
 71
3
 72
8
 73
4
 74
0
 40
0
 40
0
 40
0
 40
0
 40
1
 40
1
 40
1
 40
1
 10
70.871850
 20
211.001471
 30
0.0
 10
71.063337
 20
209.904339
 30
0.0
 10
71.214477
 20
209.003290
 30
0.0
 10
71.207717
 20
208.999144
 30
0.0
  0
SPLINE
  5
14b
100
AcDbEntity
  8
Layer_1
 62
7
100
AcDbSpline
 70
8
 71
3
 72
8
 73
4
 74
0
 40
0
 40
0
 40
0
 40
0
 40
1
 40
1
 40
1
 40
1
 10
71.207717
 20
208.999144
 30
0.0
 10
71.200917
 20
208.994944
 30
0.0
 10
71.049065
 20
208.945584
 30
0.0
 10
70.870183
 20
208.889337
 30
0.0
  0
SPLINE
  5
14c
100
AcDbEntity
  8
Layer_1
 62
7
100
AcDbSpline
 70
8
 71
3
 72
8
 73
4
 74
0
 40
0
 40
0
 40
0
 40
0
 40
1
 40
1
 40
1
 40
1
 10
70.870183
 20
208.889337
 30
0.0
 10
69.822716
 20
208.559983
 30
0.0
 10
68.683642
 20
207.905846
 30
0.0
 10
67.882349
 20
207.173508
 30
0.0
  0
LWPOLYLINE
  5
14d
100
AcDbEntity
  8
Layer_1
 62
7
100
AcDbPolyline
 90
3
 70
0
 10
74.720010
 20
213.371749
 30
0.0
 10
73.329829
 20
213.725997
 30
0.0
 10
71.937385
 20
213.371680
 30
0.0
  0
SPLINE
  5
14e
100
AcDbEntity
  8
Layer_1
 62
7
100
AcDbSpline
 70
8
 71
3
 72
8
 73
4
 74
0
 40
0
 40
0
 40
0
 40
0
 40
1
 40
1
 40
1
 40
1
 10
67.606903
 20
207.217665
 30
0.0
 10
67.495365
 20
207.557435
 30
0.0
 10
67.425388
 20
207.982646
 30
0.0
 10
67.365103
 20
208.686970
 30
0.0
  0
SPLINE
  5
14f
100
AcDbEntity
  8
Layer_1
 62
7
100
AcDbSpline
 70
8
 71
3
 72
8
 73
4
 74
0
 40
0
 40
0
 40
0
 40
0
 40
1
 40
1
 40
1
 40
1
 10
67.365103
 20
208.686970
 30
0.0
 10
67.245969
 20
210.078792
 30
0.0
 10
67.070185
 20
210.733146
 30
0.0
 10
66.747099
 20
210.987453
 30
0.0
  0
SPLINE
  5
150
100
AcDbEntity
  8
Layer_1
 62
7
100
AcDbSpline
 70
8
 71
3
 72
8
 73
4
 74
0
 40
0
 40
0
 40
0
 40
0
 40
1
 40
1
 40
1
 40
1
 10
66.747099
 20
210.987453
 30
0.0
 10
66.246307
 20
211.381643
 30
0.0
 10
65.777192
 20
211.385048
 30
0.0
 10
65.414338
 20
210.997153
 30
0.0
  0
SPLINE
  5
151
100
AcDbEntity
  8
Layer_1
 62
7
100
AcDbSpline
 70
8
 71
3
 72
8
 73
4
 74
0
 40
0
 40
0
 40
0
 40
0
 40
1
 40
1
 40
1
 40
1
 10
65.414338
 20
210.997153
 30
0.0
 10
64.958601
 20
210.509931
 30
0.0
 10
64.791934
 20
209.574372
 30
0.0
 10
65.009231
 20
208.723136
 30
0.0
  0
SPLINE
  5
152
100
AcDbEntity
  8
Layer_1
 62
7
100
AcDbSpline
 70
8
 71
3
 72
8
 73
4
 74
0
 40
0
 40
0
 40
0
 40
0
 40
1
 40
1
 40
1
 40
1
 10
65.009231
 20
208.723136
 30
0.0
 10
65.062501
 20
208.514438
 30
0.0
 10
65.106111
 20
208.267018
 30
0.0
 10
65.106131
 20
208.173313
 30
0.0
  0
SPLINE
  5
153
100
AcDbEntity
  8
Layer_1
 62
7
100
AcDbSpline
 70
8
 71
3
 72
8
 73
4
 74
0
 40
0
 40
0
 40
0
 40
0
 40
1
 40
1
 40
1
 40
1
 10
65.106131
 20
208.173313
 30
0.0
 10
65.106227
 20
207.762952
 30
0.0
 10
65.344018
 20
206.872159
 30
0.0
 10
65.578905
 20
206.402264
 30
0.0
  0
SPLINE
  5
154
100
AcDbEntity
  8
Layer_1
 62
7
100
AcDbSpline
 70
8
 71
3
 72
8
 73
4
 74
0
 40
0
 40
0
 40
0
 40
0
 40
1
 40
1
 40
1
 40
1
 10
65.578905
 20
206.402264
 30
0.0
 10
65.728461
 20
206.103078
 30
0.0
 10
66.048093
 20
205.623323
 30
0.0
 10
66.183943
 20
205.494124
 30
0.0
  0
LWPOLYLINE
  5
155
100
AcDbEntity
  8
Layer_1
 62
7
100
AcDbPolyline
 90
3
 70
0
 10
67.882349
 20
207.173508
 30
0.0
 10
67.681623
 20
206.990057
 30
0.0
 10
67.606903
 20
207.217665
 30
0.0
  0
SPLINE
  5
156
100
AcDbEntity
  8
Layer_1
 62
7
100
AcDbSpline
 70
8
 71
3
 72
8
 73
4
 74
0
 40
0
 40
0
 40
0
 40
0
 40
1
 40
1
 40
1
 40
1
 10
66.103155
 20
205.096606
 30
0.0
 10
65.826774
 20
204.666428
 30
0.0
 10
65.533269
 20
204.129824
 30
0.0
 10
65.349125
 20
203.718024
 30
0.0
  0
SPLINE
  5
157
100
AcDbEntity
  8
Layer_1
 62
7
100
AcDbSpline
 70
8
 71
3
 72
8
 73
4
 74
0
 40
0
 40
0
 40
0
 40
0
 40
1
 40
1
 40
1
 40
1
 10
65.349125
 20
203.718024
 30
0.0
 10
65.176590
 20
203.332198
 30
0.0
 10
64.925479
 20
202.679809
 30
0.0
 10
64.925479
 20
202.617394
 30
0.0
  0
SPLINE
  5
158
100
AcDbEntity
  8
Layer_1
 62
7
100
AcDbSpline
 70
8
 71
3
 72
8
 73
4
 74
0
 40
0
 40
0
 40
0
 40
0
 40
1
 40
1
 40
1
 40
1
 10
64.925479
 20
202.617394
 30
0.0
 10
64.925479
 20
202.566284
 30
0.0
 10
64.874899
 20
202.573684
 30
0.0
 10
64.600237
 20
202.664944
 30
0.0
  0
LWPOLYLINE
  5
159
100
AcDbEntity
  8
Layer_1
 62
7
100
AcDbPolyline
 90
3
 70
0
 10
66.183943
 20
205.494124
 30
0.0
 10
66.292330
 20
205.391045
 30
0.0
 10
66.103155
 20
205.096606
 30
0.0
  0
LWPOLYLINE
  5
15a
100
AcDbEntity
  8
Layer_1
 62
7
100
AcDbPolyline
 90
1
 70
1
 10
64.600237
 20
202.664944
 30
0.0
  0
ENDSEC
  0
SECTION
  2
OBJECTS
  0
DICTIONARY
  5
C
330
0
100
AcDbDictionary
  3
ACAD_GROUP
350
D
  3
ACAD_MLINESTYLE
350
17
  0
DICTIONARY
  5
D
330
C
100
AcDbDictionary
  0
DICTIONARY
  5
1A
330
C
100
AcDbDictionary
  0
DICTIONARY
  5
17
330
C
100
AcDbDictionary
  3
STANDARD
350
18
  0
DICTIONARY
  5
19
330
C
100
AcDbDictionary
  0
ENDSEC
  0
EOF
