<?xml version="1.0" encoding="UTF-8" standalone="no"?>
<!-- Created with Inkscape (http://www.inkscape.org/) -->

<svg
   width="210mm"
   height="297mm"
   viewBox="0 0 210 297"
   version="1.1"
   id="svg2694"
   inkscape:version="1.1.1 (c3084ef, 2021-09-22)"
   sodipodi:docname="piece1.svg"
   xmlns:inkscape="http://www.inkscape.org/namespaces/inkscape"
   xmlns:sodipodi="http://sodipodi.sourceforge.net/DTD/sodipodi-0.dtd"
   xmlns="http://www.w3.org/2000/svg"
   xmlns:svg="http://www.w3.org/2000/svg">
  <sodipodi:namedview
     id="namedview2696"
     pagecolor="#ffffff"
     bordercolor="#666666"
     borderopacity="1.0"
     inkscape:pageshadow="2"
     inkscape:pageopacity="0.0"
     inkscape:pagecheckerboard="0"
     inkscape:document-units="mm"
     showgrid="false"
     inkscape:zoom="0.77771465"
     inkscape:cx="87.435668"
     inkscape:cy="181.30043"
     inkscape:window-width="2513"
     inkscape:window-height="982"
     inkscape:window-x="0"
     inkscape:window-y="124"
     inkscape:window-maximized="0"
     inkscape:current-layer="layer1" />
  <defs
     id="defs2691" />
  <g
     inkscape:label="Layer 1"
     inkscape:groupmode="layer"
     id="layer1">
    <path
       style="fill:none;stroke:#000000;stroke-width:0.1;stroke-miterlimit:4;stroke-dasharray:none;stroke-dashoffset:0"
       d="m 118.27489,55.881383 c -0.12919,-0.04847 -0.3406,-0.105378 -0.46979,-0.126471 -0.1292,-0.02109 -0.27149,-0.04595 -0.31621,-0.05523 l -0.0813,-0.01688 v -5.47422 -5.474216 h 9.82953 9.82953 l -2e-5,5.212905 -2e-5,5.212903 -0.58344,0.322601 c -0.53747,0.29718 -1.02903,0.516247 -1.06891,0.476364 -0.009,-0.009 -0.11024,-0.249452 -0.22484,-0.534202 -0.24146,-0.599958 -0.58998,-1.303313 -0.90117,-1.818695 l -0.21821,-0.361381 0.12678,-0.113732 c 0.24798,-0.22244 0.78839,-0.582996 1.26859,-0.846375 0.56552,-0.310174 0.84958,-0.525971 1.01365,-0.770049 0.23934,-0.356063 0.328,-0.911603 0.20871,-1.307909 -0.13279,-0.441204 -0.56372,-0.771626 -1.04676,-0.802624 -0.40575,-0.02603 -0.59283,0.03177 -1.05909,0.327294 -0.88416,0.560391 -1.44112,1.038937 -1.82398,1.567186 l -0.16096,0.222067 -0.41227,-0.327694 c -0.22675,-0.180234 -0.583,-0.439261 -0.79166,-0.575615 -0.40006,-0.261429 -1.2371,-0.688287 -1.61675,-0.824481 -0.19403,-0.06961 -0.22301,-0.09151 -0.2083,-0.157498 0.0416,-0.186757 0.66524,-3.38029 0.68586,-3.512175 l 0.023,-0.146976 -1.51815,-0.335063 c -0.83498,-0.184285 -1.58279,-0.343733 -1.66182,-0.354332 -0.10334,-0.01386 -0.59586,0.08028 -1.7544,0.335327 -1.38807,0.305581 -1.61072,0.363498 -1.61072,0.418976 0,0.05035 0.63775,3.270186 0.71165,3.592946 0.0148,0.06459 -0.0155,0.08703 -0.21168,0.157139 -0.82343,0.294179 -2.07468,1.052758 -2.67663,1.622719 -0.0742,0.07023 -0.14157,0.120612 -0.14978,0.111966 -0.008,-0.0087 -0.0481,-0.123725 -0.0886,-0.255733 -0.0807,-0.262729 -0.1472,-0.706768 -0.25913,-1.729507 -0.1411,-1.28919 -0.29963,-1.769883 -0.66706,-2.022687 -0.2275,-0.156517 -0.41615,-0.223562 -0.63769,-0.226626 -0.479,-0.0066 -0.82573,0.342805 -1.04951,1.057672 -0.11495,0.367207 -0.11725,1.086882 -0.005,1.57109 0.0415,0.178882 0.0865,0.439076 0.10017,0.578207 0.0536,0.546659 0.24853,1.241275 0.47674,1.698485 0.15223,0.304988 0.47662,0.799306 0.60048,0.915048 l 0.0898,0.08387 -0.28877,0.476266 c -0.37341,0.61585 -0.58697,1.043776 -0.83284,1.668817 -0.10946,0.278265 -0.20856,0.534392 -0.22021,0.569175 -0.0272,0.08114 -0.0641,0.07811 -0.34871,-0.02865 z"
       id="path2563" />
  </g>
</svg>
