<?xml version="1.0" encoding="UTF-8" standalone="no"?>
<!-- Created with Inkscape (http://www.inkscape.org/) -->

<svg
   width="210mm"
   height="297mm"
   viewBox="0 0 210 297"
   version="1.1"
   id="svg3518"
   inkscape:version="1.1.1 (c3084ef, 2021-09-22)"
   sodipodi:docname="piece1-4.svg"
   xmlns:inkscape="http://www.inkscape.org/namespaces/inkscape"
   xmlns:sodipodi="http://sodipodi.sourceforge.net/DTD/sodipodi-0.dtd"
   xmlns="http://www.w3.org/2000/svg"
   xmlns:svg="http://www.w3.org/2000/svg">
  <sodipodi:namedview
     id="namedview3520"
     pagecolor="#ffffff"
     bordercolor="#666666"
     borderopacity="1.0"
     inkscape:pageshadow="2"
     inkscape:pageopacity="0.0"
     inkscape:pagecheckerboard="0"
     inkscape:document-units="mm"
     showgrid="false"
     inkscape:zoom="0.77771465"
     inkscape:cx="12.858187"
     inkscape:cy="577.33258"
     inkscape:window-width="2329"
     inkscape:window-height="878"
     inkscape:window-x="0"
     inkscape:window-y="228"
     inkscape:window-maximized="0"
     inkscape:current-layer="layer1" />
  <defs
     id="defs3515" />
  <g
     inkscape:label="Layer 1"
     inkscape:groupmode="layer"
     id="layer1">
    <path
       style="fill:#00ff00;stroke:#000000;stroke-width:0.0136585;stroke-miterlimit:4;stroke-dasharray:none;stroke-dashoffset:0"
       d="m 63.940724,101.21117 -0.280069,-0.32904 v -2.324685 -2.32469 l 0.202922,-0.481581 c 0.111609,-0.264872 0.21631,-0.516596 0.232669,-0.559387 l 0.02975,-0.07781 0.255194,0.07444 c 0.182155,0.05314 0.255193,0.0914 0.255193,0.133704 0,0.03259 -0.03252,0.208251 -0.07226,0.390353 -0.15838,0.725673 -0.225319,1.42376 -0.227817,2.375874 -0.003,1.126262 0.08309,1.900904 0.31881,2.870202 0.05038,0.20717 0.07897,0.38812 0.06354,0.40211 -0.01542,0.014 -0.117504,0.0542 -0.226822,0.0893 -0.109317,0.0351 -0.215021,0.0698 -0.234897,0.077 -0.01987,0.007 -0.162168,-0.13492 -0.316206,-0.31589 z"
       id="path2420" />
    <path
       style="fill:#00ff00;stroke:#000000;stroke-width:0.0136585;stroke-miterlimit:4;stroke-dasharray:none;stroke-dashoffset:0"
       d="m 82.082214,101.45404 c -0.134041,-0.0424 -0.243809,-0.095 -0.24393,-0.11692 -1.25e-4,-0.0219 0.03948,-0.20077 0.088,-0.39752 0.224303,-0.90949 0.31868,-1.750375 0.317976,-2.833177 -5.29e-4,-0.883049 -0.05718,-1.493898 -0.212659,-2.294763 -0.05016,-0.258387 -0.0939,-0.484618 -0.0972,-0.50274 -0.0033,-0.01812 0.11194,-0.07061 0.256079,-0.116657 l 0.262076,-0.08371 0.468791,0.333486 0.468791,0.333486 0.0011,2.460266 0.0011,2.460259 -0.508775,0.41271 c -0.279824,0.22698 -0.51969,0.41489 -0.533035,0.41756 -0.01333,0.003 -0.13393,-0.0299 -0.26797,-0.0723 z"
       id="path2459" />
    <path
       style="fill:#00ff00;stroke:#000000;stroke-width:0.0136585;stroke-miterlimit:4;stroke-dasharray:none;stroke-dashoffset:0"
       d="m 63.660655,106.0637 v -2.70342 l 0.420396,-0.49273 0.420394,-0.49273 0.244734,-0.0743 c 0.134602,-0.0409 0.254805,-0.0743 0.267118,-0.0743 0.0123,0 0.03839,0.0421 0.05794,0.0935 0.02951,0.0776 -7.94e-4,0.1897 -0.177956,0.65952 -0.532826,1.41249 -0.688906,2.07134 -0.716246,3.02338 -0.02972,1.03499 0.08527,1.45746 0.50164,1.84294 0.275309,0.25489 0.530029,0.35442 0.915358,0.35768 0.670885,0.006 1.04195,-0.37517 1.102463,-1.1315 0.01524,-0.1905 0.07917,-0.61468 0.142068,-0.94263 l 0.114358,-0.59628 0.513109,0.5071 c 0.792041,0.78278 1.669627,1.39737 2.567316,1.79796 2.784914,1.24275 5.895379,0.82171 8.35353,-1.13076 0.520888,-0.41373 1.415135,-1.35172 1.716556,-1.80053 l 0.0542,-0.0807 0.601261,0.19892 c 1.006681,0.33307 1.372859,0.34788 2.357829,0.0954 0.548658,-0.14066 0.595688,-0.14681 1.06607,-0.13928 0.430183,0.007 0.512548,-0.002 0.654711,-0.0664 0.326088,-0.14897 0.491326,-0.4508 0.462788,-0.84536 -0.03842,-0.53106 -0.57585,-1.07294 -1.307854,-1.31866 -0.303419,-0.10186 -0.409297,-0.10911 -1.323213,-0.0906 -0.421272,0.009 -0.78835,-0.0212 -1.162664,-0.0941 -0.09633,-0.0188 -0.09644,-0.0192 -0.04182,-0.15208 0.03013,-0.0733 0.06809,-0.14727 0.08436,-0.1644 0.01635,-0.0172 0.163586,0.0135 0.329274,0.0687 l 0.299683,0.0998 0.634066,-0.0598 c 0.453305,-0.0427 1.002368,-0.0597 1.925997,-0.0596 l 1.291934,1.6e-4 v 3.23435 3.23435 H 74.845359 63.660655 Z"
       id="path2498" />
    <path
       style="fill:#00ff00;stroke:#000000;stroke-width:0.0136585;stroke-miterlimit:4;stroke-dasharray:none;stroke-dashoffset:0"
       d="m 64.60024,94.335084 c -0.129193,-0.04293 -0.251158,-0.08811 -0.271033,-0.100414 -0.01987,-0.0123 -0.178433,-0.04322 -0.352346,-0.06871 L 63.660655,94.11961 V 88.614383 83.10916 h 9.865669 9.86567 v 5.236369 5.236369 l -0.47883,0.262889 c -0.263356,0.14459 -0.537152,0.299242 -0.608436,0.343673 -0.114263,0.07122 -0.612664,0.24847 -0.628099,0.223377 -0.0032,-0.0053 -0.08486,-0.218752 -0.181396,-0.474435 -0.226888,-0.600951 -0.58927,-1.339974 -0.920345,-1.876909 -0.14463,-0.234561 -0.257022,-0.430996 -0.249759,-0.43652 0.0073,-0.0055 0.216479,-0.164751 0.464928,-0.353841 0.307626,-0.234124 0.6158,-0.427648 0.966066,-0.60666 0.62561,-0.319736 0.927065,-0.573164 1.090355,-0.916641 0.357265,-0.751507 0.141489,-1.519656 -0.509696,-1.814486 -0.193246,-0.08749 -0.27415,-0.103061 -0.53486,-0.102904 -0.336129,1.79e-4 -0.553355,0.07143 -0.795036,0.260693 -0.06957,0.05448 -0.248449,0.170352 -0.397518,0.257498 -0.607975,0.355412 -1.171805,0.854424 -1.507323,1.33404 -0.09215,0.131723 -0.179165,0.253124 -0.193371,0.26978 -0.01421,0.01664 -0.178075,-0.09748 -0.364156,-0.253627 -0.847966,-0.711576 -1.804858,-1.251085 -2.804743,-1.581357 -0.163975,-0.05416 -0.298137,-0.112654 -0.298137,-0.129981 0,-0.01733 0.15522,-0.920515 0.344937,-2.007085 0.189717,-1.086572 0.34014,-1.980379 0.334277,-1.986243 -0.0059,-0.0059 -0.636243,-0.170071 -1.400842,-0.364908 l -1.390181,-0.354248 -1.392444,0.354317 c -0.765844,0.194874 -1.397228,0.359064 -1.40307,0.364869 -0.0058,0.0058 0.146048,0.908208 0.337535,2.00534 0.191487,1.097132 0.342627,1.998181 0.335867,2.002327 -0.0068,0.0042 -0.158652,0.05356 -0.337534,0.109807 -1.047467,0.329354 -2.186541,0.983491 -2.987834,1.715829 l -0.200726,0.183451 -0.07472,-0.227608 c -0.111538,-0.33977 -0.181515,-0.764981 -0.2418,-1.469305 -0.119134,-1.391822 -0.294918,-2.046176 -0.618004,-2.300483 -0.500792,-0.39419 -0.969907,-0.397595 -1.332761,-0.0097 -0.455737,0.487222 -0.622404,1.422781 -0.405107,2.274017 0.05327,0.208698 0.09688,0.456118 0.0969,0.549823 9.6e-5,0.410361 0.237887,1.301154 0.472774,1.771049 0.149556,0.299186 0.469188,0.778941 0.605038,0.90814 l 0.108387,0.103079 -0.189175,0.294439 c -0.276381,0.430178 -0.569886,0.966782 -0.75403,1.378582 -0.172535,0.385826 -0.423646,1.038215 -0.423646,1.10063 0,0.05111 -0.05058,0.04371 -0.325242,-0.04755 z"
       id="path3322" />
  </g>
</svg>
