<?xml version="1.0" encoding="UTF-8" standalone="no"?>
<!-- Created with Inkscape (http://www.inkscape.org/) -->

<svg
   width="210mm"
   height="297mm"
   viewBox="0 0 210 297"
   version="1.1"
   id="svg5"
   inkscape:version="1.1.1 (c3084ef, 2021-09-22)"
   sodipodi:docname="turtle.svg"
   inkscape:export-filename="/Users/spolsky/Dropbox/Arduino/blinky/pcbShape/turtle.png"
   inkscape:export-xdpi="96"
   inkscape:export-ydpi="96"
   xmlns:inkscape="http://www.inkscape.org/namespaces/inkscape"
   xmlns:sodipodi="http://sodipodi.sourceforge.net/DTD/sodipodi-0.dtd"
   xmlns="http://www.w3.org/2000/svg"
   xmlns:svg="http://www.w3.org/2000/svg">
  <sodipodi:namedview
     id="namedview7"
     pagecolor="#ffffff"
     bordercolor="#666666"
     borderopacity="1.0"
     inkscape:pageshadow="2"
     inkscape:pageopacity="0.0"
     inkscape:pagecheckerboard="0"
     inkscape:document-units="mm"
     showgrid="true"
     inkscape:zoom="7.3214746"
     inkscape:cx="302.87614"
     inkscape:cy="341.39298"
     inkscape:window-width="2308"
     inkscape:window-height="1223"
     inkscape:window-x="326"
     inkscape:window-y="39"
     inkscape:window-maximized="0"
     inkscape:current-layer="layer1"
     showguides="true">
    <inkscape:grid
       type="xygrid"
       id="grid1027"
       spacingx="0.13229167"
       spacingy="0.13229167"
       enabled="false" />
  </sodipodi:namedview>
  <defs
     id="defs2" />
  <g
     inkscape:label="Layer 1"
     inkscape:groupmode="layer"
     id="layer1">
    <rect
       style="fill:#ffffff;stroke:#000000;stroke-width:0.1;stroke-miterlimit:4;stroke-dasharray:none;stroke-dashoffset:0"
       id="rect1763"
       width="22.489584"
       height="25.796875"
       x="60.854164"
       y="76.729164" />
    <ellipse
       style="fill:none;stroke:#000044;stroke-width:0.0908899;stroke-miterlimit:4;stroke-dasharray:none;fill-opacity:1"
       id="path163"
       cx="70.538742"
       cy="91.818031"
       rx="8.9057636"
       ry="10.347732" />
    <path
       style="fill:#ffffff;fill-opacity:1;stroke:#000000;stroke-width:0.119163;stroke-linecap:butt;stroke-linejoin:miter;stroke-miterlimit:4;stroke-dasharray:none;stroke-opacity:1"
       d="m 70.577483,77.039472 -2.716042,0.691722 0.905348,5.187909 1.810696,1.037581 1.810695,-1.037581 0.905348,-5.187909 z"
       id="path2300"
       sodipodi:nodetypes="ccccccc" />
    <path
       style="fill:none;stroke:#000000;stroke-width:0.264583px;stroke-linecap:butt;stroke-linejoin:miter;stroke-opacity:1"
       d="m 65.484377,84.666668 c -0.747293,-0.572714 -0.944444,-1.559381 -1.002309,-2.447185 -0.06593,-0.765911 -0.09304,-1.564832 -0.44428,-2.265983 -0.271928,-0.309056 -0.779747,-0.581784 -1.151079,-0.275726 -0.472858,0.384072 -0.570188,1.051033 -0.581849,1.623442 -0.02186,0.418815 0.226304,0.779516 0.192676,1.195961 0.08107,0.895348 0.392929,1.790108 0.963162,2.491909 0.324602,0.389135 0.875126,0.639607 1.37136,0.437466 0.352735,-0.104412 0.629892,-0.379308 0.652319,-0.759884 z"
       id="path1335" />
    <path
       style="fill:none;stroke:#000000;stroke-width:0.264583px;stroke-linecap:butt;stroke-linejoin:miter;stroke-opacity:1"
       d="m 62.838544,95.250001 c -0.613995,1.73226 -1.537124,3.498531 -1.225201,5.385919 0.212502,1.41181 2.303448,1.59628 2.191393,-0.0812 0.240044,-1.604009 0.865364,-3.390808 0.220468,-4.953854 -0.193156,-0.42822 -0.870868,-1.009832 -1.18666,-0.350885 z"
       id="path1530" />
    <path
       style="fill:none;stroke:#000000;stroke-width:0.264583px;stroke-linecap:butt;stroke-linejoin:miter;stroke-opacity:1"
       d="m 76.06771,96.572918 c 0.656473,-0.39927 1.460824,-0.356992 2.190858,-0.243627 0.731517,0.108961 1.475798,0.267668 2.215977,0.139418 0.654767,-0.02865 1.316703,0.283821 1.72561,0.793096 0.250284,0.294794 0.307158,0.767297 0.02874,1.064317 -0.327519,0.384177 -1.073631,0.07492 -1.530976,0.231172 -1.064232,0.314281 -1.592296,0.420097 -2.645834,0 C 77.525217,98.376555 76.829042,98.281339 76.67652,97.782282 76.533041,97.35546 76.4095,96.889956 76.067715,96.572921 Z"
       id="path1731"
       sodipodi:nodetypes="scccccccss" />
    <path
       style="fill:none;stroke:#000000;stroke-width:0.310099px;stroke-linecap:butt;stroke-linejoin:miter;stroke-opacity:1"
       d="m 75.725968,85.995171 c -0.07647,-1.953969 1.179673,-3.323853 2.523785,-3.974336 0.537884,-0.630483 1.937112,-0.427887 1.841031,0.824916 -0.119923,1.074195 -1.071942,1.23523 -1.736309,1.641534 -0.813589,0.619753 -1.606607,1.33041 -2.628507,1.507886 z"
       id="path1930"
       sodipodi:nodetypes="ccccc" />
    <rect
       style="fill:#ffffff;stroke:#000000;stroke-width:0.05;stroke-miterlimit:4;stroke-dasharray:none;stroke-dashoffset:0"
       id="rect937"
       width="0.66146034"
       height="0.79374963"
       x="49.243439"
       y="107.56546"
       transform="rotate(-17.217094)" />
    <rect
       style="fill:#ffffff;stroke:#000000;stroke-width:0.05;stroke-miterlimit:4;stroke-dasharray:none"
       id="rect937-2"
       width="0.66146034"
       height="0.79374963"
       x="104.50349"
       y="66.047768"
       transform="rotate(17.979122)" />
    <rect
       style="fill:#ffffff;stroke:#000000;stroke-width:0.05;stroke-miterlimit:4;stroke-dasharray:none;stroke-dashoffset:0"
       id="rect937-0"
       width="0.66146034"
       height="0.79374963"
       x="-85.508018"
       y="65.808853"
       transform="matrix(-0.9551901,-0.29599304,-0.29599304,0.9551901,0,0)" />
    <rect
       style="fill:#ffffff;stroke:#000000;stroke-width:0.05;stroke-miterlimit:4;stroke-dasharray:none"
       id="rect937-2-3"
       width="0.66146034"
       height="0.79374963"
       x="-29.681778"
       y="109.59316"
       transform="matrix(-0.95116906,0.30867042,0.30867042,0.95116906,0,0)" />
    <path
       style="fill:none;stroke:#000000;stroke-width:0.1;stroke-linecap:butt;stroke-linejoin:miter;stroke-opacity:1;stroke-miterlimit:4;stroke-dasharray:none"
       d="m 60.854169,76.729168 h -1.322917 v 25.796872 h 1.322917 23.812499 V 76.729168 Z"
       id="path1802" />
    <path
       style="fill:none;stroke:#000000;stroke-width:0.1;stroke-linecap:butt;stroke-linejoin:miter;stroke-miterlimit:4;stroke-dasharray:none;stroke-opacity:1"
       d="m 80.697918,95.91146 h 2.645834 l -2e-6,-19.182296 -2.645831,-0.04123 v 19.223526 l -10e-7,-10e-7"
       id="path1972"
       sodipodi:nodetypes="cccccc" />
    <path
       style="fill:none;stroke:#000000;stroke-width:0.1;stroke-linecap:butt;stroke-linejoin:miter;stroke-opacity:1;stroke-miterlimit:4;stroke-dasharray:none"
       d="m 79.507293,87.973957 1.190625,-0.661455 0.03434,2.129006 -0.990021,-0.709371 z"
       id="path2106" />
    <path
       style="fill:none;stroke:#000000;stroke-width:0.1;stroke-linecap:butt;stroke-linejoin:miter;stroke-opacity:1;stroke-miterlimit:4;stroke-dasharray:none"
       d="m 79.642651,95.2839 1.053465,-0.855348 0.0019,1.482908 -1.300274,0.127428"
       id="path2221" />
    <path
       style="fill:none;stroke:#000000;stroke-width:0.1;stroke-linecap:butt;stroke-linejoin:miter;stroke-opacity:1;stroke-miterlimit:4;stroke-dasharray:none"
       d="m 61.330686,88.732134 -0.510458,1.215308 v -2.096003 l 0.7454,0.122516"
       id="path2223" />
    <path
       style="fill:none;stroke:#000000;stroke-width:0.1;stroke-linecap:butt;stroke-linejoin:miter;stroke-opacity:1;stroke-miterlimit:4;stroke-dasharray:none"
       d="m 61.431394,95.28391 -0.611166,-0.710808 0.03614,2.421247 0.820036,-0.95545"
       id="path2225" />
    <path
       style="fill:#00ff00;stroke:#000000;stroke-width:0.0516225;stroke-miterlimit:4;stroke-dasharray:none;stroke-dashoffset:0"
       d="m 231.27172,358.65911 -1.05853,-1.24359 v -8.78622 -8.78623 l 0.76695,-1.82015 c 0.42183,-1.00109 0.81755,-1.95249 0.87938,-2.11422 l 0.11243,-0.29407 0.96451,0.28136 c 0.68846,0.20083 0.96451,0.34546 0.96451,0.50534 0,0.12319 -0.1229,0.78709 -0.27312,1.47535 -0.5986,2.7427 -0.8516,5.38114 -0.86104,8.97968 -0.0112,4.25674 0.31403,7.18452 1.20495,10.84801 0.19042,0.78302 0.29849,1.46692 0.24015,1.51978 -0.0583,0.0529 -0.44411,0.20481 -0.85728,0.33767 -0.41317,0.13286 -0.81268,0.26391 -0.8878,0.29122 -0.0751,0.0273 -0.61292,-0.50995 -1.19511,-1.19393 z"
       id="path2420"
       transform="scale(0.26458333)" />
    <path
       style="fill:#00ff00;stroke:#000000;stroke-width:0.0516225;stroke-miterlimit:4;stroke-dasharray:none;stroke-dashoffset:0"
       d="m 299.83798,359.57707 c -0.50661,-0.16034 -0.92148,-0.3592 -0.92194,-0.44191 -4.7e-4,-0.0827 0.14921,-0.7588 0.3326,-1.50243 0.84776,-3.43744 1.20446,-6.6156 1.2018,-10.70808 -0.002,-3.33751 -0.21611,-5.64623 -0.80375,-8.67312 -0.18959,-0.97658 -0.35491,-1.83163 -0.36738,-1.90012 -0.0125,-0.0685 0.42308,-0.26689 0.96786,-0.44091 l 0.99052,-0.31639 1.77181,1.26042 1.77181,1.26042 0.004,9.29864 0.004,9.29864 -1.92293,1.55983 c -1.0576,0.8579 -1.96418,1.56808 -2.01462,1.57818 -0.0504,0.0101 -0.50619,-0.11284 -1.0128,-0.27317 z"
       id="path2459"
       transform="scale(0.26458333)" />
    <path
       style="fill:#00ff00;stroke:#000000;stroke-width:0.0516225;stroke-miterlimit:4;stroke-dasharray:none;stroke-dashoffset:0"
       d="m 230.21319,376.99941 v -10.21766 l 1.5889,-1.86228 1.58889,-1.86229 0.92498,-0.28095 c 0.50873,-0.15452 0.96304,-0.28095 1.00958,-0.28095 0.0465,0 0.14509,0.15905 0.219,0.35344 0.11154,0.29338 -0.003,0.71699 -0.67259,2.49267 -2.01383,5.33858 -2.60374,7.82869 -2.70707,11.42697 -0.11234,3.91177 0.32229,5.50851 1.89596,6.96545 1.04054,0.96336 2.00326,1.33954 3.45962,1.35184 2.53563,0.0214 3.93808,-1.41796 4.16679,-4.27654 0.0576,-0.71998 0.29924,-2.3232 0.53695,-3.5627 l 0.43222,-2.25365 1.93931,1.91662 c 2.99354,2.95852 6.3104,5.28139 9.70324,6.79543 10.52566,4.697 22.28175,3.10566 31.5724,-4.27374 1.96871,-1.5637 5.34854,-5.10888 6.48777,-6.80515 l 0.20487,-0.30506 2.27248,0.75185 c 3.80478,1.25882 5.18876,1.31479 8.91148,0.36039 2.07367,-0.53163 2.25142,-0.55486 4.02924,-0.52639 1.62589,0.026 1.93719,-0.006 2.4745,-0.251 1.23246,-0.56303 1.85698,-1.70383 1.74912,-3.19509 -0.14519,-2.00715 -2.17644,-4.05518 -4.94307,-4.98391 -1.14678,-0.38496 -1.54695,-0.41235 -5.00112,-0.34238 -1.59221,0.0323 -2.97959,-0.0801 -4.39432,-0.35573 -0.36409,-0.0709 -0.36451,-0.0725 -0.15806,-0.57479 0.11386,-0.27701 0.25734,-0.55661 0.31885,-0.62133 0.0618,-0.0651 0.61828,0.051 1.2445,0.25953 l 1.13266,0.37722 2.39647,-0.22601 c 1.71328,-0.16157 3.78848,-0.22582 7.27936,-0.22538 l 4.8829,6.1e-4 v 12.22431 12.22432 h -42.27291 -42.2729 z"
       id="path2498"
       transform="scale(0.26458333)" />
    <path
       style="fill:#00ff00;stroke:#000000;stroke-width:0.0516225;stroke-miterlimit:4;stroke-dasharray:none;stroke-dashoffset:0"
       d="m 233.76438,332.67077 c -0.48829,-0.16224 -0.94926,-0.33303 -1.02438,-0.37952 -0.0751,-0.0465 -0.67439,-0.16336 -1.3317,-0.25971 l -1.19511,-0.17517 v -20.80715 -20.80714 h 37.28757 37.28757 v 19.791 19.791 l -1.80975,0.9936 c -0.99536,0.54648 -2.03018,1.13099 -2.2996,1.29892 -0.43186,0.26917 -2.31558,0.9391 -2.37392,0.84426 -0.0122,-0.0199 -0.32074,-0.82678 -0.68559,-1.79314 -0.85753,-2.27131 -2.22716,-5.06447 -3.47847,-7.09383 -0.54663,-0.88653 -0.97142,-1.62896 -0.94397,-1.64984 0.0275,-0.0209 0.81819,-0.62268 1.75721,-1.33735 1.16268,-0.88488 2.32743,-1.61631 3.65127,-2.29289 2.36451,-1.20845 3.50387,-2.16629 4.12103,-3.46447 1.35029,-2.84034 0.53476,-5.74358 -1.92641,-6.8579 -0.73038,-0.33068 -1.03616,-0.38952 -2.02152,-0.38893 -1.27041,6.8e-4 -2.09142,0.26996 -3.00486,0.9853 -0.26293,0.20591 -0.93902,0.64385 -1.50243,0.97322 -2.29786,1.34329 -4.42887,3.22932 -5.69697,5.04204 -0.34828,0.49785 -0.67716,0.95669 -0.73085,1.01964 -0.0537,0.0629 -0.67304,-0.36842 -1.37634,-0.95859 -3.20491,-2.68942 -6.82151,-4.72851 -10.6006,-5.97678 -0.61975,-0.20471 -1.12682,-0.42578 -1.12682,-0.49127 0,-0.0655 0.58666,-3.47911 1.3037,-7.58583 0.71704,-4.10673 1.28557,-7.4849 1.26341,-7.50706 -0.0222,-0.0222 -2.4047,-0.64279 -5.29452,-1.37918 l -5.25423,-1.33889 -5.26278,1.33915 c -2.89453,0.73653 -5.28086,1.35709 -5.30294,1.37903 -0.0221,0.0219 0.55199,3.4326 1.27572,7.57924 0.72373,4.14664 1.29497,7.55218 1.26942,7.56785 -0.0256,0.0157 -0.59963,0.20244 -1.27572,0.41502 -3.95893,1.2448 -8.26409,3.71713 -11.2926,6.48502 l -0.75865,0.69336 -0.2824,-0.86025 c -0.42156,-1.28417 -0.68604,-2.89127 -0.91389,-5.55328 -0.45027,-5.26043 -1.11465,-7.73358 -2.33576,-8.69474 -1.89276,-1.48985 -3.66579,-1.50272 -5.03721,-0.0366 -1.72247,1.84147 -2.35239,5.37744 -1.53111,8.59471 0.20135,0.78878 0.36616,1.72391 0.36624,2.07807 3.6e-4,1.55097 0.8991,4.91775 1.78686,6.69373 0.56525,1.13078 1.77331,2.94403 2.28676,3.43234 l 0.40965,0.38959 -0.71499,1.11284 c -1.04459,1.62587 -2.1539,3.65398 -2.84988,5.21039 -0.6521,1.45824 -1.60118,3.92396 -1.60118,4.15986 0,0.19317 -0.19118,0.16522 -1.22926,-0.17971 z"
       id="path3322"
       transform="scale(0.26458333)" />
  </g>
</svg>
