G04 #@! TF.GenerationSoftware,KiCad,Pcbnew,(5.1.12-1-10_14)*
G04 #@! TF.CreationDate,2021-12-27T13:20:27-05:00*
G04 #@! TF.ProjectId,ledtrix,6c656474-7269-4782-9e6b-696361645f70,rev?*
G04 #@! TF.SameCoordinates,Original*
G04 #@! TF.FileFunction,Copper,L1,Top*
G04 #@! TF.FilePolarity,Positive*
%FSLAX46Y46*%
G04 Gerber Fmt 4.6, Leading zero omitted, Abs format (unit mm)*
G04 Created by KiCad (PCBNEW (5.1.12-1-10_14)) date 2021-12-27 13:20:27*
%MOMM*%
%LPD*%
G01*
G04 APERTURE LIST*
G04 #@! TA.AperFunction,WasherPad*
%ADD10C,1.300000*%
G04 #@! TD*
G04 #@! TA.AperFunction,ComponentPad*
%ADD11O,1.700000X1.700000*%
G04 #@! TD*
G04 #@! TA.AperFunction,ComponentPad*
%ADD12R,1.700000X1.700000*%
G04 #@! TD*
G04 #@! TA.AperFunction,SMDPad,CuDef*
%ADD13C,0.100000*%
G04 #@! TD*
G04 #@! TA.AperFunction,ViaPad*
%ADD14C,0.600000*%
G04 #@! TD*
G04 #@! TA.AperFunction,Conductor*
%ADD15C,0.300000*%
G04 #@! TD*
G04 APERTURE END LIST*
D10*
G04 #@! TO.P,H9,*
G04 #@! TO.N,*
X207680000Y-103690990D03*
G04 #@! TD*
G04 #@! TO.P,H8,*
G04 #@! TO.N,*
X172120000Y-62288990D03*
G04 #@! TD*
G04 #@! TO.P,H7,*
G04 #@! TO.N,*
X207680000Y-62542990D03*
G04 #@! TD*
D11*
G04 #@! TO.P,J2,9*
G04 #@! TO.N,/CB9*
X179575000Y-109154990D03*
G04 #@! TO.P,J2,8*
G04 #@! TO.N,/CB8*
X182115000Y-109154990D03*
G04 #@! TO.P,J2,7*
G04 #@! TO.N,/CB7*
X184655000Y-109154990D03*
G04 #@! TO.P,J2,6*
G04 #@! TO.N,/CB6*
X187195000Y-109154990D03*
G04 #@! TO.P,J2,5*
G04 #@! TO.N,/CB5*
X189735000Y-109154990D03*
G04 #@! TO.P,J2,4*
G04 #@! TO.N,/CB4*
X192275000Y-109154990D03*
G04 #@! TO.P,J2,3*
G04 #@! TO.N,/CB3*
X194815000Y-109154990D03*
G04 #@! TO.P,J2,2*
G04 #@! TO.N,/CB2*
X197355000Y-109154990D03*
D12*
G04 #@! TO.P,J2,1*
G04 #@! TO.N,/CB1*
X199895000Y-109154990D03*
G04 #@! TD*
D11*
G04 #@! TO.P,J1,9*
G04 #@! TO.N,/CA9*
X179575000Y-58424990D03*
G04 #@! TO.P,J1,8*
G04 #@! TO.N,/CA8*
X182115000Y-58424990D03*
G04 #@! TO.P,J1,7*
G04 #@! TO.N,/CA7*
X184655000Y-58424990D03*
G04 #@! TO.P,J1,6*
G04 #@! TO.N,/CA6*
X187195000Y-58424990D03*
G04 #@! TO.P,J1,5*
G04 #@! TO.N,/CA5*
X189735000Y-58424990D03*
G04 #@! TO.P,J1,4*
G04 #@! TO.N,/CA4*
X192275000Y-58424990D03*
G04 #@! TO.P,J1,3*
G04 #@! TO.N,/CA3*
X194815000Y-58424990D03*
G04 #@! TO.P,J1,2*
G04 #@! TO.N,/CA2*
X197355000Y-58424990D03*
D12*
G04 #@! TO.P,J1,1*
G04 #@! TO.N,/CA1*
X199895000Y-58424990D03*
G04 #@! TD*
G04 #@! TA.AperFunction,SMDPad,CuDef*
D13*
G04 #@! TO.P,D9.1,1*
G04 #@! TO.N,/CA9*
G36*
X178705424Y-64142302D02*
G01*
X178139739Y-63576617D01*
X178705424Y-63010932D01*
X179271109Y-63576617D01*
X178705424Y-64142302D01*
G37*
G04 #@! TD.AperFunction*
G04 #@! TA.AperFunction,SMDPad,CuDef*
G04 #@! TO.P,D9.1,2*
G04 #@! TO.N,/CA1*
G36*
X179870000Y-62995685D02*
G01*
X179304315Y-62430000D01*
X179870000Y-61864315D01*
X180435685Y-62430000D01*
X179870000Y-62995685D01*
G37*
G04 #@! TD.AperFunction*
G04 #@! TD*
G04 #@! TA.AperFunction,SMDPad,CuDef*
G04 #@! TO.P,D3.3,1*
G04 #@! TO.N,/CA3*
G36*
X194705424Y-69475634D02*
G01*
X194139739Y-68909949D01*
X194705424Y-68344264D01*
X195271109Y-68909949D01*
X194705424Y-69475634D01*
G37*
G04 #@! TD.AperFunction*
G04 #@! TA.AperFunction,SMDPad,CuDef*
G04 #@! TO.P,D3.3,2*
G04 #@! TO.N,/CA4*
G36*
X195870000Y-68329017D02*
G01*
X195304315Y-67763332D01*
X195870000Y-67197647D01*
X196435685Y-67763332D01*
X195870000Y-68329017D01*
G37*
G04 #@! TD.AperFunction*
G04 #@! TD*
G04 #@! TA.AperFunction,SMDPad,CuDef*
G04 #@! TO.P,D9.14,1*
G04 #@! TO.N,/CB9*
G36*
X178705424Y-98808960D02*
G01*
X178139739Y-98243275D01*
X178705424Y-97677590D01*
X179271109Y-98243275D01*
X178705424Y-98808960D01*
G37*
G04 #@! TD.AperFunction*
G04 #@! TA.AperFunction,SMDPad,CuDef*
G04 #@! TO.P,D9.14,2*
G04 #@! TO.N,/CB6*
G36*
X179870000Y-97662343D02*
G01*
X179304315Y-97096658D01*
X179870000Y-96530973D01*
X180435685Y-97096658D01*
X179870000Y-97662343D01*
G37*
G04 #@! TD.AperFunction*
G04 #@! TD*
G04 #@! TA.AperFunction,SMDPad,CuDef*
G04 #@! TO.P,D9.13,1*
G04 #@! TO.N,/CB9*
G36*
X178705424Y-96142294D02*
G01*
X178139739Y-95576609D01*
X178705424Y-95010924D01*
X179271109Y-95576609D01*
X178705424Y-96142294D01*
G37*
G04 #@! TD.AperFunction*
G04 #@! TA.AperFunction,SMDPad,CuDef*
G04 #@! TO.P,D9.13,2*
G04 #@! TO.N,/CB5*
G36*
X179870000Y-94995677D02*
G01*
X179304315Y-94429992D01*
X179870000Y-93864307D01*
X180435685Y-94429992D01*
X179870000Y-94995677D01*
G37*
G04 #@! TD.AperFunction*
G04 #@! TD*
G04 #@! TA.AperFunction,SMDPad,CuDef*
G04 #@! TO.P,D9.12,1*
G04 #@! TO.N,/CB9*
G36*
X178705424Y-93475628D02*
G01*
X178139739Y-92909943D01*
X178705424Y-92344258D01*
X179271109Y-92909943D01*
X178705424Y-93475628D01*
G37*
G04 #@! TD.AperFunction*
G04 #@! TA.AperFunction,SMDPad,CuDef*
G04 #@! TO.P,D9.12,2*
G04 #@! TO.N,/CB4*
G36*
X179870000Y-92329011D02*
G01*
X179304315Y-91763326D01*
X179870000Y-91197641D01*
X180435685Y-91763326D01*
X179870000Y-92329011D01*
G37*
G04 #@! TD.AperFunction*
G04 #@! TD*
G04 #@! TA.AperFunction,SMDPad,CuDef*
G04 #@! TO.P,D9.2,1*
G04 #@! TO.N,/CA9*
G36*
X178705424Y-66808968D02*
G01*
X178139739Y-66243283D01*
X178705424Y-65677598D01*
X179271109Y-66243283D01*
X178705424Y-66808968D01*
G37*
G04 #@! TD.AperFunction*
G04 #@! TA.AperFunction,SMDPad,CuDef*
G04 #@! TO.P,D9.2,2*
G04 #@! TO.N,/CA2*
G36*
X179870000Y-65662351D02*
G01*
X179304315Y-65096666D01*
X179870000Y-64530981D01*
X180435685Y-65096666D01*
X179870000Y-65662351D01*
G37*
G04 #@! TD.AperFunction*
G04 #@! TD*
G04 #@! TA.AperFunction,SMDPad,CuDef*
G04 #@! TO.P,D9.3,1*
G04 #@! TO.N,/CA9*
G36*
X178705424Y-69475634D02*
G01*
X178139739Y-68909949D01*
X178705424Y-68344264D01*
X179271109Y-68909949D01*
X178705424Y-69475634D01*
G37*
G04 #@! TD.AperFunction*
G04 #@! TA.AperFunction,SMDPad,CuDef*
G04 #@! TO.P,D9.3,2*
G04 #@! TO.N,/CA3*
G36*
X179870000Y-68329017D02*
G01*
X179304315Y-67763332D01*
X179870000Y-67197647D01*
X180435685Y-67763332D01*
X179870000Y-68329017D01*
G37*
G04 #@! TD.AperFunction*
G04 #@! TD*
G04 #@! TA.AperFunction,SMDPad,CuDef*
G04 #@! TO.P,D9.4,1*
G04 #@! TO.N,/CA9*
G36*
X178705424Y-72142300D02*
G01*
X178139739Y-71576615D01*
X178705424Y-71010930D01*
X179271109Y-71576615D01*
X178705424Y-72142300D01*
G37*
G04 #@! TD.AperFunction*
G04 #@! TA.AperFunction,SMDPad,CuDef*
G04 #@! TO.P,D9.4,2*
G04 #@! TO.N,/CA4*
G36*
X179870000Y-70995683D02*
G01*
X179304315Y-70429998D01*
X179870000Y-69864313D01*
X180435685Y-70429998D01*
X179870000Y-70995683D01*
G37*
G04 #@! TD.AperFunction*
G04 #@! TD*
G04 #@! TA.AperFunction,SMDPad,CuDef*
G04 #@! TO.P,D9.5,1*
G04 #@! TO.N,/CA9*
G36*
X178705424Y-74808966D02*
G01*
X178139739Y-74243281D01*
X178705424Y-73677596D01*
X179271109Y-74243281D01*
X178705424Y-74808966D01*
G37*
G04 #@! TD.AperFunction*
G04 #@! TA.AperFunction,SMDPad,CuDef*
G04 #@! TO.P,D9.5,2*
G04 #@! TO.N,/CA5*
G36*
X179870000Y-73662349D02*
G01*
X179304315Y-73096664D01*
X179870000Y-72530979D01*
X180435685Y-73096664D01*
X179870000Y-73662349D01*
G37*
G04 #@! TD.AperFunction*
G04 #@! TD*
G04 #@! TA.AperFunction,SMDPad,CuDef*
G04 #@! TO.P,D9.15,1*
G04 #@! TO.N,/CB9*
G36*
X178705424Y-101475626D02*
G01*
X178139739Y-100909941D01*
X178705424Y-100344256D01*
X179271109Y-100909941D01*
X178705424Y-101475626D01*
G37*
G04 #@! TD.AperFunction*
G04 #@! TA.AperFunction,SMDPad,CuDef*
G04 #@! TO.P,D9.15,2*
G04 #@! TO.N,/CB7*
G36*
X179870000Y-100329009D02*
G01*
X179304315Y-99763324D01*
X179870000Y-99197639D01*
X180435685Y-99763324D01*
X179870000Y-100329009D01*
G37*
G04 #@! TD.AperFunction*
G04 #@! TD*
G04 #@! TA.AperFunction,SMDPad,CuDef*
G04 #@! TO.P,D9.6,1*
G04 #@! TO.N,/CA9*
G36*
X178705424Y-77475632D02*
G01*
X178139739Y-76909947D01*
X178705424Y-76344262D01*
X179271109Y-76909947D01*
X178705424Y-77475632D01*
G37*
G04 #@! TD.AperFunction*
G04 #@! TA.AperFunction,SMDPad,CuDef*
G04 #@! TO.P,D9.6,2*
G04 #@! TO.N,/CA6*
G36*
X179870000Y-76329015D02*
G01*
X179304315Y-75763330D01*
X179870000Y-75197645D01*
X180435685Y-75763330D01*
X179870000Y-76329015D01*
G37*
G04 #@! TD.AperFunction*
G04 #@! TD*
G04 #@! TA.AperFunction,SMDPad,CuDef*
G04 #@! TO.P,D9.7,1*
G04 #@! TO.N,/CA9*
G36*
X178705424Y-80142298D02*
G01*
X178139739Y-79576613D01*
X178705424Y-79010928D01*
X179271109Y-79576613D01*
X178705424Y-80142298D01*
G37*
G04 #@! TD.AperFunction*
G04 #@! TA.AperFunction,SMDPad,CuDef*
G04 #@! TO.P,D9.7,2*
G04 #@! TO.N,/CA7*
G36*
X179870000Y-78995681D02*
G01*
X179304315Y-78429996D01*
X179870000Y-77864311D01*
X180435685Y-78429996D01*
X179870000Y-78995681D01*
G37*
G04 #@! TD.AperFunction*
G04 #@! TD*
G04 #@! TA.AperFunction,SMDPad,CuDef*
G04 #@! TO.P,D9.8,1*
G04 #@! TO.N,/CA9*
G36*
X178705424Y-82808964D02*
G01*
X178139739Y-82243279D01*
X178705424Y-81677594D01*
X179271109Y-82243279D01*
X178705424Y-82808964D01*
G37*
G04 #@! TD.AperFunction*
G04 #@! TA.AperFunction,SMDPad,CuDef*
G04 #@! TO.P,D9.8,2*
G04 #@! TO.N,/CA8*
G36*
X179870000Y-81662347D02*
G01*
X179304315Y-81096662D01*
X179870000Y-80530977D01*
X180435685Y-81096662D01*
X179870000Y-81662347D01*
G37*
G04 #@! TD.AperFunction*
G04 #@! TD*
G04 #@! TA.AperFunction,SMDPad,CuDef*
G04 #@! TO.P,D9.9,1*
G04 #@! TO.N,/CB9*
G36*
X178705424Y-85475630D02*
G01*
X178139739Y-84909945D01*
X178705424Y-84344260D01*
X179271109Y-84909945D01*
X178705424Y-85475630D01*
G37*
G04 #@! TD.AperFunction*
G04 #@! TA.AperFunction,SMDPad,CuDef*
G04 #@! TO.P,D9.9,2*
G04 #@! TO.N,/CB1*
G36*
X179870000Y-84329013D02*
G01*
X179304315Y-83763328D01*
X179870000Y-83197643D01*
X180435685Y-83763328D01*
X179870000Y-84329013D01*
G37*
G04 #@! TD.AperFunction*
G04 #@! TD*
G04 #@! TA.AperFunction,SMDPad,CuDef*
G04 #@! TO.P,D9.10,1*
G04 #@! TO.N,/CB9*
G36*
X178705424Y-88142296D02*
G01*
X178139739Y-87576611D01*
X178705424Y-87010926D01*
X179271109Y-87576611D01*
X178705424Y-88142296D01*
G37*
G04 #@! TD.AperFunction*
G04 #@! TA.AperFunction,SMDPad,CuDef*
G04 #@! TO.P,D9.10,2*
G04 #@! TO.N,/CB2*
G36*
X179870000Y-86995679D02*
G01*
X179304315Y-86429994D01*
X179870000Y-85864309D01*
X180435685Y-86429994D01*
X179870000Y-86995679D01*
G37*
G04 #@! TD.AperFunction*
G04 #@! TD*
G04 #@! TA.AperFunction,SMDPad,CuDef*
G04 #@! TO.P,D9.11,1*
G04 #@! TO.N,/CB9*
G36*
X178705424Y-90808962D02*
G01*
X178139739Y-90243277D01*
X178705424Y-89677592D01*
X179271109Y-90243277D01*
X178705424Y-90808962D01*
G37*
G04 #@! TD.AperFunction*
G04 #@! TA.AperFunction,SMDPad,CuDef*
G04 #@! TO.P,D9.11,2*
G04 #@! TO.N,/CB3*
G36*
X179870000Y-89662345D02*
G01*
X179304315Y-89096660D01*
X179870000Y-88530975D01*
X180435685Y-89096660D01*
X179870000Y-89662345D01*
G37*
G04 #@! TD.AperFunction*
G04 #@! TD*
G04 #@! TA.AperFunction,SMDPad,CuDef*
G04 #@! TO.P,D9.16,1*
G04 #@! TO.N,/CB9*
G36*
X178705424Y-104142292D02*
G01*
X178139739Y-103576607D01*
X178705424Y-103010922D01*
X179271109Y-103576607D01*
X178705424Y-104142292D01*
G37*
G04 #@! TD.AperFunction*
G04 #@! TA.AperFunction,SMDPad,CuDef*
G04 #@! TO.P,D9.16,2*
G04 #@! TO.N,/CB8*
G36*
X179870000Y-102995675D02*
G01*
X179304315Y-102429990D01*
X179870000Y-101864305D01*
X180435685Y-102429990D01*
X179870000Y-102995675D01*
G37*
G04 #@! TD.AperFunction*
G04 #@! TD*
G04 #@! TA.AperFunction,SMDPad,CuDef*
G04 #@! TO.P,D8.14,1*
G04 #@! TO.N,/CB8*
G36*
X181375424Y-98808960D02*
G01*
X180809739Y-98243275D01*
X181375424Y-97677590D01*
X181941109Y-98243275D01*
X181375424Y-98808960D01*
G37*
G04 #@! TD.AperFunction*
G04 #@! TA.AperFunction,SMDPad,CuDef*
G04 #@! TO.P,D8.14,2*
G04 #@! TO.N,/CB6*
G36*
X182540000Y-97662343D02*
G01*
X181974315Y-97096658D01*
X182540000Y-96530973D01*
X183105685Y-97096658D01*
X182540000Y-97662343D01*
G37*
G04 #@! TD.AperFunction*
G04 #@! TD*
G04 #@! TA.AperFunction,SMDPad,CuDef*
G04 #@! TO.P,D8.13,1*
G04 #@! TO.N,/CB8*
G36*
X181375424Y-96142294D02*
G01*
X180809739Y-95576609D01*
X181375424Y-95010924D01*
X181941109Y-95576609D01*
X181375424Y-96142294D01*
G37*
G04 #@! TD.AperFunction*
G04 #@! TA.AperFunction,SMDPad,CuDef*
G04 #@! TO.P,D8.13,2*
G04 #@! TO.N,/CB5*
G36*
X182540000Y-94995677D02*
G01*
X181974315Y-94429992D01*
X182540000Y-93864307D01*
X183105685Y-94429992D01*
X182540000Y-94995677D01*
G37*
G04 #@! TD.AperFunction*
G04 #@! TD*
G04 #@! TA.AperFunction,SMDPad,CuDef*
G04 #@! TO.P,D8.12,1*
G04 #@! TO.N,/CB8*
G36*
X181375424Y-93475628D02*
G01*
X180809739Y-92909943D01*
X181375424Y-92344258D01*
X181941109Y-92909943D01*
X181375424Y-93475628D01*
G37*
G04 #@! TD.AperFunction*
G04 #@! TA.AperFunction,SMDPad,CuDef*
G04 #@! TO.P,D8.12,2*
G04 #@! TO.N,/CB4*
G36*
X182540000Y-92329011D02*
G01*
X181974315Y-91763326D01*
X182540000Y-91197641D01*
X183105685Y-91763326D01*
X182540000Y-92329011D01*
G37*
G04 #@! TD.AperFunction*
G04 #@! TD*
G04 #@! TA.AperFunction,SMDPad,CuDef*
G04 #@! TO.P,D8.1,1*
G04 #@! TO.N,/CA8*
G36*
X181375424Y-64142302D02*
G01*
X180809739Y-63576617D01*
X181375424Y-63010932D01*
X181941109Y-63576617D01*
X181375424Y-64142302D01*
G37*
G04 #@! TD.AperFunction*
G04 #@! TA.AperFunction,SMDPad,CuDef*
G04 #@! TO.P,D8.1,2*
G04 #@! TO.N,/CA1*
G36*
X182540000Y-62995685D02*
G01*
X181974315Y-62430000D01*
X182540000Y-61864315D01*
X183105685Y-62430000D01*
X182540000Y-62995685D01*
G37*
G04 #@! TD.AperFunction*
G04 #@! TD*
G04 #@! TA.AperFunction,SMDPad,CuDef*
G04 #@! TO.P,D8.2,1*
G04 #@! TO.N,/CA8*
G36*
X181375424Y-66808968D02*
G01*
X180809739Y-66243283D01*
X181375424Y-65677598D01*
X181941109Y-66243283D01*
X181375424Y-66808968D01*
G37*
G04 #@! TD.AperFunction*
G04 #@! TA.AperFunction,SMDPad,CuDef*
G04 #@! TO.P,D8.2,2*
G04 #@! TO.N,/CA2*
G36*
X182540000Y-65662351D02*
G01*
X181974315Y-65096666D01*
X182540000Y-64530981D01*
X183105685Y-65096666D01*
X182540000Y-65662351D01*
G37*
G04 #@! TD.AperFunction*
G04 #@! TD*
G04 #@! TA.AperFunction,SMDPad,CuDef*
G04 #@! TO.P,D8.3,1*
G04 #@! TO.N,/CA8*
G36*
X181375424Y-69475634D02*
G01*
X180809739Y-68909949D01*
X181375424Y-68344264D01*
X181941109Y-68909949D01*
X181375424Y-69475634D01*
G37*
G04 #@! TD.AperFunction*
G04 #@! TA.AperFunction,SMDPad,CuDef*
G04 #@! TO.P,D8.3,2*
G04 #@! TO.N,/CA3*
G36*
X182540000Y-68329017D02*
G01*
X181974315Y-67763332D01*
X182540000Y-67197647D01*
X183105685Y-67763332D01*
X182540000Y-68329017D01*
G37*
G04 #@! TD.AperFunction*
G04 #@! TD*
G04 #@! TA.AperFunction,SMDPad,CuDef*
G04 #@! TO.P,D8.4,1*
G04 #@! TO.N,/CA8*
G36*
X181375424Y-72142300D02*
G01*
X180809739Y-71576615D01*
X181375424Y-71010930D01*
X181941109Y-71576615D01*
X181375424Y-72142300D01*
G37*
G04 #@! TD.AperFunction*
G04 #@! TA.AperFunction,SMDPad,CuDef*
G04 #@! TO.P,D8.4,2*
G04 #@! TO.N,/CA4*
G36*
X182540000Y-70995683D02*
G01*
X181974315Y-70429998D01*
X182540000Y-69864313D01*
X183105685Y-70429998D01*
X182540000Y-70995683D01*
G37*
G04 #@! TD.AperFunction*
G04 #@! TD*
G04 #@! TA.AperFunction,SMDPad,CuDef*
G04 #@! TO.P,D8.5,1*
G04 #@! TO.N,/CA8*
G36*
X181375424Y-74808966D02*
G01*
X180809739Y-74243281D01*
X181375424Y-73677596D01*
X181941109Y-74243281D01*
X181375424Y-74808966D01*
G37*
G04 #@! TD.AperFunction*
G04 #@! TA.AperFunction,SMDPad,CuDef*
G04 #@! TO.P,D8.5,2*
G04 #@! TO.N,/CA5*
G36*
X182540000Y-73662349D02*
G01*
X181974315Y-73096664D01*
X182540000Y-72530979D01*
X183105685Y-73096664D01*
X182540000Y-73662349D01*
G37*
G04 #@! TD.AperFunction*
G04 #@! TD*
G04 #@! TA.AperFunction,SMDPad,CuDef*
G04 #@! TO.P,D8.15,1*
G04 #@! TO.N,/CB8*
G36*
X181375424Y-101475626D02*
G01*
X180809739Y-100909941D01*
X181375424Y-100344256D01*
X181941109Y-100909941D01*
X181375424Y-101475626D01*
G37*
G04 #@! TD.AperFunction*
G04 #@! TA.AperFunction,SMDPad,CuDef*
G04 #@! TO.P,D8.15,2*
G04 #@! TO.N,/CB7*
G36*
X182540000Y-100329009D02*
G01*
X181974315Y-99763324D01*
X182540000Y-99197639D01*
X183105685Y-99763324D01*
X182540000Y-100329009D01*
G37*
G04 #@! TD.AperFunction*
G04 #@! TD*
G04 #@! TA.AperFunction,SMDPad,CuDef*
G04 #@! TO.P,D8.6,1*
G04 #@! TO.N,/CA8*
G36*
X181375424Y-77475632D02*
G01*
X180809739Y-76909947D01*
X181375424Y-76344262D01*
X181941109Y-76909947D01*
X181375424Y-77475632D01*
G37*
G04 #@! TD.AperFunction*
G04 #@! TA.AperFunction,SMDPad,CuDef*
G04 #@! TO.P,D8.6,2*
G04 #@! TO.N,/CA6*
G36*
X182540000Y-76329015D02*
G01*
X181974315Y-75763330D01*
X182540000Y-75197645D01*
X183105685Y-75763330D01*
X182540000Y-76329015D01*
G37*
G04 #@! TD.AperFunction*
G04 #@! TD*
G04 #@! TA.AperFunction,SMDPad,CuDef*
G04 #@! TO.P,D8.7,1*
G04 #@! TO.N,/CA8*
G36*
X181375424Y-80142298D02*
G01*
X180809739Y-79576613D01*
X181375424Y-79010928D01*
X181941109Y-79576613D01*
X181375424Y-80142298D01*
G37*
G04 #@! TD.AperFunction*
G04 #@! TA.AperFunction,SMDPad,CuDef*
G04 #@! TO.P,D8.7,2*
G04 #@! TO.N,/CA7*
G36*
X182540000Y-78995681D02*
G01*
X181974315Y-78429996D01*
X182540000Y-77864311D01*
X183105685Y-78429996D01*
X182540000Y-78995681D01*
G37*
G04 #@! TD.AperFunction*
G04 #@! TD*
G04 #@! TA.AperFunction,SMDPad,CuDef*
G04 #@! TO.P,D8.8,1*
G04 #@! TO.N,/CA8*
G36*
X181375424Y-82808964D02*
G01*
X180809739Y-82243279D01*
X181375424Y-81677594D01*
X181941109Y-82243279D01*
X181375424Y-82808964D01*
G37*
G04 #@! TD.AperFunction*
G04 #@! TA.AperFunction,SMDPad,CuDef*
G04 #@! TO.P,D8.8,2*
G04 #@! TO.N,/CA9*
G36*
X182540000Y-81662347D02*
G01*
X181974315Y-81096662D01*
X182540000Y-80530977D01*
X183105685Y-81096662D01*
X182540000Y-81662347D01*
G37*
G04 #@! TD.AperFunction*
G04 #@! TD*
G04 #@! TA.AperFunction,SMDPad,CuDef*
G04 #@! TO.P,D8.9,1*
G04 #@! TO.N,/CB8*
G36*
X181375424Y-85475630D02*
G01*
X180809739Y-84909945D01*
X181375424Y-84344260D01*
X181941109Y-84909945D01*
X181375424Y-85475630D01*
G37*
G04 #@! TD.AperFunction*
G04 #@! TA.AperFunction,SMDPad,CuDef*
G04 #@! TO.P,D8.9,2*
G04 #@! TO.N,/CB1*
G36*
X182540000Y-84329013D02*
G01*
X181974315Y-83763328D01*
X182540000Y-83197643D01*
X183105685Y-83763328D01*
X182540000Y-84329013D01*
G37*
G04 #@! TD.AperFunction*
G04 #@! TD*
G04 #@! TA.AperFunction,SMDPad,CuDef*
G04 #@! TO.P,D8.10,1*
G04 #@! TO.N,/CB8*
G36*
X181375424Y-88142296D02*
G01*
X180809739Y-87576611D01*
X181375424Y-87010926D01*
X181941109Y-87576611D01*
X181375424Y-88142296D01*
G37*
G04 #@! TD.AperFunction*
G04 #@! TA.AperFunction,SMDPad,CuDef*
G04 #@! TO.P,D8.10,2*
G04 #@! TO.N,/CB2*
G36*
X182540000Y-86995679D02*
G01*
X181974315Y-86429994D01*
X182540000Y-85864309D01*
X183105685Y-86429994D01*
X182540000Y-86995679D01*
G37*
G04 #@! TD.AperFunction*
G04 #@! TD*
G04 #@! TA.AperFunction,SMDPad,CuDef*
G04 #@! TO.P,D8.11,1*
G04 #@! TO.N,/CB8*
G36*
X181375424Y-90808962D02*
G01*
X180809739Y-90243277D01*
X181375424Y-89677592D01*
X181941109Y-90243277D01*
X181375424Y-90808962D01*
G37*
G04 #@! TD.AperFunction*
G04 #@! TA.AperFunction,SMDPad,CuDef*
G04 #@! TO.P,D8.11,2*
G04 #@! TO.N,/CB3*
G36*
X182540000Y-89662345D02*
G01*
X181974315Y-89096660D01*
X182540000Y-88530975D01*
X183105685Y-89096660D01*
X182540000Y-89662345D01*
G37*
G04 #@! TD.AperFunction*
G04 #@! TD*
G04 #@! TA.AperFunction,SMDPad,CuDef*
G04 #@! TO.P,D8.16,1*
G04 #@! TO.N,/CB8*
G36*
X181375424Y-104142292D02*
G01*
X180809739Y-103576607D01*
X181375424Y-103010922D01*
X181941109Y-103576607D01*
X181375424Y-104142292D01*
G37*
G04 #@! TD.AperFunction*
G04 #@! TA.AperFunction,SMDPad,CuDef*
G04 #@! TO.P,D8.16,2*
G04 #@! TO.N,/CB9*
G36*
X182540000Y-102995675D02*
G01*
X181974315Y-102429990D01*
X182540000Y-101864305D01*
X183105685Y-102429990D01*
X182540000Y-102995675D01*
G37*
G04 #@! TD.AperFunction*
G04 #@! TD*
G04 #@! TA.AperFunction,SMDPad,CuDef*
G04 #@! TO.P,D7.14,1*
G04 #@! TO.N,/CB7*
G36*
X184045424Y-98808960D02*
G01*
X183479739Y-98243275D01*
X184045424Y-97677590D01*
X184611109Y-98243275D01*
X184045424Y-98808960D01*
G37*
G04 #@! TD.AperFunction*
G04 #@! TA.AperFunction,SMDPad,CuDef*
G04 #@! TO.P,D7.14,2*
G04 #@! TO.N,/CB6*
G36*
X185210000Y-97662343D02*
G01*
X184644315Y-97096658D01*
X185210000Y-96530973D01*
X185775685Y-97096658D01*
X185210000Y-97662343D01*
G37*
G04 #@! TD.AperFunction*
G04 #@! TD*
G04 #@! TA.AperFunction,SMDPad,CuDef*
G04 #@! TO.P,D7.13,1*
G04 #@! TO.N,/CB7*
G36*
X184045424Y-96142294D02*
G01*
X183479739Y-95576609D01*
X184045424Y-95010924D01*
X184611109Y-95576609D01*
X184045424Y-96142294D01*
G37*
G04 #@! TD.AperFunction*
G04 #@! TA.AperFunction,SMDPad,CuDef*
G04 #@! TO.P,D7.13,2*
G04 #@! TO.N,/CB5*
G36*
X185210000Y-94995677D02*
G01*
X184644315Y-94429992D01*
X185210000Y-93864307D01*
X185775685Y-94429992D01*
X185210000Y-94995677D01*
G37*
G04 #@! TD.AperFunction*
G04 #@! TD*
G04 #@! TA.AperFunction,SMDPad,CuDef*
G04 #@! TO.P,D7.12,1*
G04 #@! TO.N,/CB7*
G36*
X184045424Y-93475628D02*
G01*
X183479739Y-92909943D01*
X184045424Y-92344258D01*
X184611109Y-92909943D01*
X184045424Y-93475628D01*
G37*
G04 #@! TD.AperFunction*
G04 #@! TA.AperFunction,SMDPad,CuDef*
G04 #@! TO.P,D7.12,2*
G04 #@! TO.N,/CB4*
G36*
X185210000Y-92329011D02*
G01*
X184644315Y-91763326D01*
X185210000Y-91197641D01*
X185775685Y-91763326D01*
X185210000Y-92329011D01*
G37*
G04 #@! TD.AperFunction*
G04 #@! TD*
G04 #@! TA.AperFunction,SMDPad,CuDef*
G04 #@! TO.P,D7.1,1*
G04 #@! TO.N,/CA7*
G36*
X184045424Y-64142302D02*
G01*
X183479739Y-63576617D01*
X184045424Y-63010932D01*
X184611109Y-63576617D01*
X184045424Y-64142302D01*
G37*
G04 #@! TD.AperFunction*
G04 #@! TA.AperFunction,SMDPad,CuDef*
G04 #@! TO.P,D7.1,2*
G04 #@! TO.N,/CA1*
G36*
X185210000Y-62995685D02*
G01*
X184644315Y-62430000D01*
X185210000Y-61864315D01*
X185775685Y-62430000D01*
X185210000Y-62995685D01*
G37*
G04 #@! TD.AperFunction*
G04 #@! TD*
G04 #@! TA.AperFunction,SMDPad,CuDef*
G04 #@! TO.P,D7.2,1*
G04 #@! TO.N,/CA7*
G36*
X184045424Y-66808968D02*
G01*
X183479739Y-66243283D01*
X184045424Y-65677598D01*
X184611109Y-66243283D01*
X184045424Y-66808968D01*
G37*
G04 #@! TD.AperFunction*
G04 #@! TA.AperFunction,SMDPad,CuDef*
G04 #@! TO.P,D7.2,2*
G04 #@! TO.N,/CA2*
G36*
X185210000Y-65662351D02*
G01*
X184644315Y-65096666D01*
X185210000Y-64530981D01*
X185775685Y-65096666D01*
X185210000Y-65662351D01*
G37*
G04 #@! TD.AperFunction*
G04 #@! TD*
G04 #@! TA.AperFunction,SMDPad,CuDef*
G04 #@! TO.P,D7.3,1*
G04 #@! TO.N,/CA7*
G36*
X184045424Y-69475634D02*
G01*
X183479739Y-68909949D01*
X184045424Y-68344264D01*
X184611109Y-68909949D01*
X184045424Y-69475634D01*
G37*
G04 #@! TD.AperFunction*
G04 #@! TA.AperFunction,SMDPad,CuDef*
G04 #@! TO.P,D7.3,2*
G04 #@! TO.N,/CA3*
G36*
X185210000Y-68329017D02*
G01*
X184644315Y-67763332D01*
X185210000Y-67197647D01*
X185775685Y-67763332D01*
X185210000Y-68329017D01*
G37*
G04 #@! TD.AperFunction*
G04 #@! TD*
G04 #@! TA.AperFunction,SMDPad,CuDef*
G04 #@! TO.P,D7.4,1*
G04 #@! TO.N,/CA7*
G36*
X184045424Y-72142300D02*
G01*
X183479739Y-71576615D01*
X184045424Y-71010930D01*
X184611109Y-71576615D01*
X184045424Y-72142300D01*
G37*
G04 #@! TD.AperFunction*
G04 #@! TA.AperFunction,SMDPad,CuDef*
G04 #@! TO.P,D7.4,2*
G04 #@! TO.N,/CA4*
G36*
X185210000Y-70995683D02*
G01*
X184644315Y-70429998D01*
X185210000Y-69864313D01*
X185775685Y-70429998D01*
X185210000Y-70995683D01*
G37*
G04 #@! TD.AperFunction*
G04 #@! TD*
G04 #@! TA.AperFunction,SMDPad,CuDef*
G04 #@! TO.P,D7.5,1*
G04 #@! TO.N,/CA7*
G36*
X184045424Y-74808966D02*
G01*
X183479739Y-74243281D01*
X184045424Y-73677596D01*
X184611109Y-74243281D01*
X184045424Y-74808966D01*
G37*
G04 #@! TD.AperFunction*
G04 #@! TA.AperFunction,SMDPad,CuDef*
G04 #@! TO.P,D7.5,2*
G04 #@! TO.N,/CA5*
G36*
X185210000Y-73662349D02*
G01*
X184644315Y-73096664D01*
X185210000Y-72530979D01*
X185775685Y-73096664D01*
X185210000Y-73662349D01*
G37*
G04 #@! TD.AperFunction*
G04 #@! TD*
G04 #@! TA.AperFunction,SMDPad,CuDef*
G04 #@! TO.P,D7.15,1*
G04 #@! TO.N,/CB7*
G36*
X184045424Y-101475626D02*
G01*
X183479739Y-100909941D01*
X184045424Y-100344256D01*
X184611109Y-100909941D01*
X184045424Y-101475626D01*
G37*
G04 #@! TD.AperFunction*
G04 #@! TA.AperFunction,SMDPad,CuDef*
G04 #@! TO.P,D7.15,2*
G04 #@! TO.N,/CB8*
G36*
X185210000Y-100329009D02*
G01*
X184644315Y-99763324D01*
X185210000Y-99197639D01*
X185775685Y-99763324D01*
X185210000Y-100329009D01*
G37*
G04 #@! TD.AperFunction*
G04 #@! TD*
G04 #@! TA.AperFunction,SMDPad,CuDef*
G04 #@! TO.P,D7.6,1*
G04 #@! TO.N,/CA7*
G36*
X184045424Y-77475632D02*
G01*
X183479739Y-76909947D01*
X184045424Y-76344262D01*
X184611109Y-76909947D01*
X184045424Y-77475632D01*
G37*
G04 #@! TD.AperFunction*
G04 #@! TA.AperFunction,SMDPad,CuDef*
G04 #@! TO.P,D7.6,2*
G04 #@! TO.N,/CA6*
G36*
X185210000Y-76329015D02*
G01*
X184644315Y-75763330D01*
X185210000Y-75197645D01*
X185775685Y-75763330D01*
X185210000Y-76329015D01*
G37*
G04 #@! TD.AperFunction*
G04 #@! TD*
G04 #@! TA.AperFunction,SMDPad,CuDef*
G04 #@! TO.P,D7.7,1*
G04 #@! TO.N,/CA7*
G36*
X184045424Y-80142298D02*
G01*
X183479739Y-79576613D01*
X184045424Y-79010928D01*
X184611109Y-79576613D01*
X184045424Y-80142298D01*
G37*
G04 #@! TD.AperFunction*
G04 #@! TA.AperFunction,SMDPad,CuDef*
G04 #@! TO.P,D7.7,2*
G04 #@! TO.N,/CA8*
G36*
X185210000Y-78995681D02*
G01*
X184644315Y-78429996D01*
X185210000Y-77864311D01*
X185775685Y-78429996D01*
X185210000Y-78995681D01*
G37*
G04 #@! TD.AperFunction*
G04 #@! TD*
G04 #@! TA.AperFunction,SMDPad,CuDef*
G04 #@! TO.P,D7.8,1*
G04 #@! TO.N,/CA7*
G36*
X184045424Y-82808964D02*
G01*
X183479739Y-82243279D01*
X184045424Y-81677594D01*
X184611109Y-82243279D01*
X184045424Y-82808964D01*
G37*
G04 #@! TD.AperFunction*
G04 #@! TA.AperFunction,SMDPad,CuDef*
G04 #@! TO.P,D7.8,2*
G04 #@! TO.N,/CA9*
G36*
X185210000Y-81662347D02*
G01*
X184644315Y-81096662D01*
X185210000Y-80530977D01*
X185775685Y-81096662D01*
X185210000Y-81662347D01*
G37*
G04 #@! TD.AperFunction*
G04 #@! TD*
G04 #@! TA.AperFunction,SMDPad,CuDef*
G04 #@! TO.P,D7.9,1*
G04 #@! TO.N,/CB7*
G36*
X184045424Y-85475630D02*
G01*
X183479739Y-84909945D01*
X184045424Y-84344260D01*
X184611109Y-84909945D01*
X184045424Y-85475630D01*
G37*
G04 #@! TD.AperFunction*
G04 #@! TA.AperFunction,SMDPad,CuDef*
G04 #@! TO.P,D7.9,2*
G04 #@! TO.N,/CB1*
G36*
X185210000Y-84329013D02*
G01*
X184644315Y-83763328D01*
X185210000Y-83197643D01*
X185775685Y-83763328D01*
X185210000Y-84329013D01*
G37*
G04 #@! TD.AperFunction*
G04 #@! TD*
G04 #@! TA.AperFunction,SMDPad,CuDef*
G04 #@! TO.P,D7.10,1*
G04 #@! TO.N,/CB7*
G36*
X184045424Y-88142296D02*
G01*
X183479739Y-87576611D01*
X184045424Y-87010926D01*
X184611109Y-87576611D01*
X184045424Y-88142296D01*
G37*
G04 #@! TD.AperFunction*
G04 #@! TA.AperFunction,SMDPad,CuDef*
G04 #@! TO.P,D7.10,2*
G04 #@! TO.N,/CB2*
G36*
X185210000Y-86995679D02*
G01*
X184644315Y-86429994D01*
X185210000Y-85864309D01*
X185775685Y-86429994D01*
X185210000Y-86995679D01*
G37*
G04 #@! TD.AperFunction*
G04 #@! TD*
G04 #@! TA.AperFunction,SMDPad,CuDef*
G04 #@! TO.P,D7.11,1*
G04 #@! TO.N,/CB7*
G36*
X184045424Y-90808962D02*
G01*
X183479739Y-90243277D01*
X184045424Y-89677592D01*
X184611109Y-90243277D01*
X184045424Y-90808962D01*
G37*
G04 #@! TD.AperFunction*
G04 #@! TA.AperFunction,SMDPad,CuDef*
G04 #@! TO.P,D7.11,2*
G04 #@! TO.N,/CB3*
G36*
X185210000Y-89662345D02*
G01*
X184644315Y-89096660D01*
X185210000Y-88530975D01*
X185775685Y-89096660D01*
X185210000Y-89662345D01*
G37*
G04 #@! TD.AperFunction*
G04 #@! TD*
G04 #@! TA.AperFunction,SMDPad,CuDef*
G04 #@! TO.P,D7.16,1*
G04 #@! TO.N,/CB7*
G36*
X184045424Y-104142292D02*
G01*
X183479739Y-103576607D01*
X184045424Y-103010922D01*
X184611109Y-103576607D01*
X184045424Y-104142292D01*
G37*
G04 #@! TD.AperFunction*
G04 #@! TA.AperFunction,SMDPad,CuDef*
G04 #@! TO.P,D7.16,2*
G04 #@! TO.N,/CB9*
G36*
X185210000Y-102995675D02*
G01*
X184644315Y-102429990D01*
X185210000Y-101864305D01*
X185775685Y-102429990D01*
X185210000Y-102995675D01*
G37*
G04 #@! TD.AperFunction*
G04 #@! TD*
G04 #@! TA.AperFunction,SMDPad,CuDef*
G04 #@! TO.P,D6.14,1*
G04 #@! TO.N,/CB6*
G36*
X186705424Y-98808960D02*
G01*
X186139739Y-98243275D01*
X186705424Y-97677590D01*
X187271109Y-98243275D01*
X186705424Y-98808960D01*
G37*
G04 #@! TD.AperFunction*
G04 #@! TA.AperFunction,SMDPad,CuDef*
G04 #@! TO.P,D6.14,2*
G04 #@! TO.N,/CB7*
G36*
X187870000Y-97662343D02*
G01*
X187304315Y-97096658D01*
X187870000Y-96530973D01*
X188435685Y-97096658D01*
X187870000Y-97662343D01*
G37*
G04 #@! TD.AperFunction*
G04 #@! TD*
G04 #@! TA.AperFunction,SMDPad,CuDef*
G04 #@! TO.P,D6.13,1*
G04 #@! TO.N,/CB6*
G36*
X186705424Y-96142294D02*
G01*
X186139739Y-95576609D01*
X186705424Y-95010924D01*
X187271109Y-95576609D01*
X186705424Y-96142294D01*
G37*
G04 #@! TD.AperFunction*
G04 #@! TA.AperFunction,SMDPad,CuDef*
G04 #@! TO.P,D6.13,2*
G04 #@! TO.N,/CB5*
G36*
X187870000Y-94995677D02*
G01*
X187304315Y-94429992D01*
X187870000Y-93864307D01*
X188435685Y-94429992D01*
X187870000Y-94995677D01*
G37*
G04 #@! TD.AperFunction*
G04 #@! TD*
G04 #@! TA.AperFunction,SMDPad,CuDef*
G04 #@! TO.P,D6.12,1*
G04 #@! TO.N,/CB6*
G36*
X186705424Y-93475628D02*
G01*
X186139739Y-92909943D01*
X186705424Y-92344258D01*
X187271109Y-92909943D01*
X186705424Y-93475628D01*
G37*
G04 #@! TD.AperFunction*
G04 #@! TA.AperFunction,SMDPad,CuDef*
G04 #@! TO.P,D6.12,2*
G04 #@! TO.N,/CB4*
G36*
X187870000Y-92329011D02*
G01*
X187304315Y-91763326D01*
X187870000Y-91197641D01*
X188435685Y-91763326D01*
X187870000Y-92329011D01*
G37*
G04 #@! TD.AperFunction*
G04 #@! TD*
G04 #@! TA.AperFunction,SMDPad,CuDef*
G04 #@! TO.P,D6.1,1*
G04 #@! TO.N,/CA6*
G36*
X186705424Y-64142302D02*
G01*
X186139739Y-63576617D01*
X186705424Y-63010932D01*
X187271109Y-63576617D01*
X186705424Y-64142302D01*
G37*
G04 #@! TD.AperFunction*
G04 #@! TA.AperFunction,SMDPad,CuDef*
G04 #@! TO.P,D6.1,2*
G04 #@! TO.N,/CA1*
G36*
X187870000Y-62995685D02*
G01*
X187304315Y-62430000D01*
X187870000Y-61864315D01*
X188435685Y-62430000D01*
X187870000Y-62995685D01*
G37*
G04 #@! TD.AperFunction*
G04 #@! TD*
G04 #@! TA.AperFunction,SMDPad,CuDef*
G04 #@! TO.P,D6.2,1*
G04 #@! TO.N,/CA6*
G36*
X186705424Y-66808968D02*
G01*
X186139739Y-66243283D01*
X186705424Y-65677598D01*
X187271109Y-66243283D01*
X186705424Y-66808968D01*
G37*
G04 #@! TD.AperFunction*
G04 #@! TA.AperFunction,SMDPad,CuDef*
G04 #@! TO.P,D6.2,2*
G04 #@! TO.N,/CA2*
G36*
X187870000Y-65662351D02*
G01*
X187304315Y-65096666D01*
X187870000Y-64530981D01*
X188435685Y-65096666D01*
X187870000Y-65662351D01*
G37*
G04 #@! TD.AperFunction*
G04 #@! TD*
G04 #@! TA.AperFunction,SMDPad,CuDef*
G04 #@! TO.P,D6.3,1*
G04 #@! TO.N,/CA6*
G36*
X186705424Y-69475634D02*
G01*
X186139739Y-68909949D01*
X186705424Y-68344264D01*
X187271109Y-68909949D01*
X186705424Y-69475634D01*
G37*
G04 #@! TD.AperFunction*
G04 #@! TA.AperFunction,SMDPad,CuDef*
G04 #@! TO.P,D6.3,2*
G04 #@! TO.N,/CA3*
G36*
X187870000Y-68329017D02*
G01*
X187304315Y-67763332D01*
X187870000Y-67197647D01*
X188435685Y-67763332D01*
X187870000Y-68329017D01*
G37*
G04 #@! TD.AperFunction*
G04 #@! TD*
G04 #@! TA.AperFunction,SMDPad,CuDef*
G04 #@! TO.P,D6.4,1*
G04 #@! TO.N,/CA6*
G36*
X186705424Y-72142300D02*
G01*
X186139739Y-71576615D01*
X186705424Y-71010930D01*
X187271109Y-71576615D01*
X186705424Y-72142300D01*
G37*
G04 #@! TD.AperFunction*
G04 #@! TA.AperFunction,SMDPad,CuDef*
G04 #@! TO.P,D6.4,2*
G04 #@! TO.N,/CA4*
G36*
X187870000Y-70995683D02*
G01*
X187304315Y-70429998D01*
X187870000Y-69864313D01*
X188435685Y-70429998D01*
X187870000Y-70995683D01*
G37*
G04 #@! TD.AperFunction*
G04 #@! TD*
G04 #@! TA.AperFunction,SMDPad,CuDef*
G04 #@! TO.P,D6.5,1*
G04 #@! TO.N,/CA6*
G36*
X186705424Y-74808966D02*
G01*
X186139739Y-74243281D01*
X186705424Y-73677596D01*
X187271109Y-74243281D01*
X186705424Y-74808966D01*
G37*
G04 #@! TD.AperFunction*
G04 #@! TA.AperFunction,SMDPad,CuDef*
G04 #@! TO.P,D6.5,2*
G04 #@! TO.N,/CA5*
G36*
X187870000Y-73662349D02*
G01*
X187304315Y-73096664D01*
X187870000Y-72530979D01*
X188435685Y-73096664D01*
X187870000Y-73662349D01*
G37*
G04 #@! TD.AperFunction*
G04 #@! TD*
G04 #@! TA.AperFunction,SMDPad,CuDef*
G04 #@! TO.P,D6.15,1*
G04 #@! TO.N,/CB6*
G36*
X186705424Y-101475626D02*
G01*
X186139739Y-100909941D01*
X186705424Y-100344256D01*
X187271109Y-100909941D01*
X186705424Y-101475626D01*
G37*
G04 #@! TD.AperFunction*
G04 #@! TA.AperFunction,SMDPad,CuDef*
G04 #@! TO.P,D6.15,2*
G04 #@! TO.N,/CB8*
G36*
X187870000Y-100329009D02*
G01*
X187304315Y-99763324D01*
X187870000Y-99197639D01*
X188435685Y-99763324D01*
X187870000Y-100329009D01*
G37*
G04 #@! TD.AperFunction*
G04 #@! TD*
G04 #@! TA.AperFunction,SMDPad,CuDef*
G04 #@! TO.P,D6.6,1*
G04 #@! TO.N,/CA6*
G36*
X186705424Y-77475632D02*
G01*
X186139739Y-76909947D01*
X186705424Y-76344262D01*
X187271109Y-76909947D01*
X186705424Y-77475632D01*
G37*
G04 #@! TD.AperFunction*
G04 #@! TA.AperFunction,SMDPad,CuDef*
G04 #@! TO.P,D6.6,2*
G04 #@! TO.N,/CA7*
G36*
X187870000Y-76329015D02*
G01*
X187304315Y-75763330D01*
X187870000Y-75197645D01*
X188435685Y-75763330D01*
X187870000Y-76329015D01*
G37*
G04 #@! TD.AperFunction*
G04 #@! TD*
G04 #@! TA.AperFunction,SMDPad,CuDef*
G04 #@! TO.P,D6.7,1*
G04 #@! TO.N,/CA6*
G36*
X186705424Y-80142298D02*
G01*
X186139739Y-79576613D01*
X186705424Y-79010928D01*
X187271109Y-79576613D01*
X186705424Y-80142298D01*
G37*
G04 #@! TD.AperFunction*
G04 #@! TA.AperFunction,SMDPad,CuDef*
G04 #@! TO.P,D6.7,2*
G04 #@! TO.N,/CA8*
G36*
X187870000Y-78995681D02*
G01*
X187304315Y-78429996D01*
X187870000Y-77864311D01*
X188435685Y-78429996D01*
X187870000Y-78995681D01*
G37*
G04 #@! TD.AperFunction*
G04 #@! TD*
G04 #@! TA.AperFunction,SMDPad,CuDef*
G04 #@! TO.P,D6.8,1*
G04 #@! TO.N,/CA6*
G36*
X186705424Y-82808964D02*
G01*
X186139739Y-82243279D01*
X186705424Y-81677594D01*
X187271109Y-82243279D01*
X186705424Y-82808964D01*
G37*
G04 #@! TD.AperFunction*
G04 #@! TA.AperFunction,SMDPad,CuDef*
G04 #@! TO.P,D6.8,2*
G04 #@! TO.N,/CA9*
G36*
X187870000Y-81662347D02*
G01*
X187304315Y-81096662D01*
X187870000Y-80530977D01*
X188435685Y-81096662D01*
X187870000Y-81662347D01*
G37*
G04 #@! TD.AperFunction*
G04 #@! TD*
G04 #@! TA.AperFunction,SMDPad,CuDef*
G04 #@! TO.P,D6.9,1*
G04 #@! TO.N,/CB6*
G36*
X186705424Y-85475630D02*
G01*
X186139739Y-84909945D01*
X186705424Y-84344260D01*
X187271109Y-84909945D01*
X186705424Y-85475630D01*
G37*
G04 #@! TD.AperFunction*
G04 #@! TA.AperFunction,SMDPad,CuDef*
G04 #@! TO.P,D6.9,2*
G04 #@! TO.N,/CB1*
G36*
X187870000Y-84329013D02*
G01*
X187304315Y-83763328D01*
X187870000Y-83197643D01*
X188435685Y-83763328D01*
X187870000Y-84329013D01*
G37*
G04 #@! TD.AperFunction*
G04 #@! TD*
G04 #@! TA.AperFunction,SMDPad,CuDef*
G04 #@! TO.P,D6.10,1*
G04 #@! TO.N,/CB6*
G36*
X186705424Y-88142296D02*
G01*
X186139739Y-87576611D01*
X186705424Y-87010926D01*
X187271109Y-87576611D01*
X186705424Y-88142296D01*
G37*
G04 #@! TD.AperFunction*
G04 #@! TA.AperFunction,SMDPad,CuDef*
G04 #@! TO.P,D6.10,2*
G04 #@! TO.N,/CB2*
G36*
X187870000Y-86995679D02*
G01*
X187304315Y-86429994D01*
X187870000Y-85864309D01*
X188435685Y-86429994D01*
X187870000Y-86995679D01*
G37*
G04 #@! TD.AperFunction*
G04 #@! TD*
G04 #@! TA.AperFunction,SMDPad,CuDef*
G04 #@! TO.P,D6.11,1*
G04 #@! TO.N,/CB6*
G36*
X186705424Y-90808962D02*
G01*
X186139739Y-90243277D01*
X186705424Y-89677592D01*
X187271109Y-90243277D01*
X186705424Y-90808962D01*
G37*
G04 #@! TD.AperFunction*
G04 #@! TA.AperFunction,SMDPad,CuDef*
G04 #@! TO.P,D6.11,2*
G04 #@! TO.N,/CB3*
G36*
X187870000Y-89662345D02*
G01*
X187304315Y-89096660D01*
X187870000Y-88530975D01*
X188435685Y-89096660D01*
X187870000Y-89662345D01*
G37*
G04 #@! TD.AperFunction*
G04 #@! TD*
G04 #@! TA.AperFunction,SMDPad,CuDef*
G04 #@! TO.P,D6.16,1*
G04 #@! TO.N,/CB6*
G36*
X186705424Y-104142292D02*
G01*
X186139739Y-103576607D01*
X186705424Y-103010922D01*
X187271109Y-103576607D01*
X186705424Y-104142292D01*
G37*
G04 #@! TD.AperFunction*
G04 #@! TA.AperFunction,SMDPad,CuDef*
G04 #@! TO.P,D6.16,2*
G04 #@! TO.N,/CB9*
G36*
X187870000Y-102995675D02*
G01*
X187304315Y-102429990D01*
X187870000Y-101864305D01*
X188435685Y-102429990D01*
X187870000Y-102995675D01*
G37*
G04 #@! TD.AperFunction*
G04 #@! TD*
G04 #@! TA.AperFunction,SMDPad,CuDef*
G04 #@! TO.P,D5.14,1*
G04 #@! TO.N,/CB5*
G36*
X189375424Y-98808960D02*
G01*
X188809739Y-98243275D01*
X189375424Y-97677590D01*
X189941109Y-98243275D01*
X189375424Y-98808960D01*
G37*
G04 #@! TD.AperFunction*
G04 #@! TA.AperFunction,SMDPad,CuDef*
G04 #@! TO.P,D5.14,2*
G04 #@! TO.N,/CB7*
G36*
X190540000Y-97662343D02*
G01*
X189974315Y-97096658D01*
X190540000Y-96530973D01*
X191105685Y-97096658D01*
X190540000Y-97662343D01*
G37*
G04 #@! TD.AperFunction*
G04 #@! TD*
G04 #@! TA.AperFunction,SMDPad,CuDef*
G04 #@! TO.P,D5.13,1*
G04 #@! TO.N,/CB5*
G36*
X189375424Y-96142294D02*
G01*
X188809739Y-95576609D01*
X189375424Y-95010924D01*
X189941109Y-95576609D01*
X189375424Y-96142294D01*
G37*
G04 #@! TD.AperFunction*
G04 #@! TA.AperFunction,SMDPad,CuDef*
G04 #@! TO.P,D5.13,2*
G04 #@! TO.N,/CB6*
G36*
X190540000Y-94995677D02*
G01*
X189974315Y-94429992D01*
X190540000Y-93864307D01*
X191105685Y-94429992D01*
X190540000Y-94995677D01*
G37*
G04 #@! TD.AperFunction*
G04 #@! TD*
G04 #@! TA.AperFunction,SMDPad,CuDef*
G04 #@! TO.P,D5.12,1*
G04 #@! TO.N,/CB5*
G36*
X189375424Y-93475628D02*
G01*
X188809739Y-92909943D01*
X189375424Y-92344258D01*
X189941109Y-92909943D01*
X189375424Y-93475628D01*
G37*
G04 #@! TD.AperFunction*
G04 #@! TA.AperFunction,SMDPad,CuDef*
G04 #@! TO.P,D5.12,2*
G04 #@! TO.N,/CB4*
G36*
X190540000Y-92329011D02*
G01*
X189974315Y-91763326D01*
X190540000Y-91197641D01*
X191105685Y-91763326D01*
X190540000Y-92329011D01*
G37*
G04 #@! TD.AperFunction*
G04 #@! TD*
G04 #@! TA.AperFunction,SMDPad,CuDef*
G04 #@! TO.P,D5.1,1*
G04 #@! TO.N,/CA5*
G36*
X189375424Y-64142302D02*
G01*
X188809739Y-63576617D01*
X189375424Y-63010932D01*
X189941109Y-63576617D01*
X189375424Y-64142302D01*
G37*
G04 #@! TD.AperFunction*
G04 #@! TA.AperFunction,SMDPad,CuDef*
G04 #@! TO.P,D5.1,2*
G04 #@! TO.N,/CA1*
G36*
X190540000Y-62995685D02*
G01*
X189974315Y-62430000D01*
X190540000Y-61864315D01*
X191105685Y-62430000D01*
X190540000Y-62995685D01*
G37*
G04 #@! TD.AperFunction*
G04 #@! TD*
G04 #@! TA.AperFunction,SMDPad,CuDef*
G04 #@! TO.P,D5.2,1*
G04 #@! TO.N,/CA5*
G36*
X189375424Y-66808968D02*
G01*
X188809739Y-66243283D01*
X189375424Y-65677598D01*
X189941109Y-66243283D01*
X189375424Y-66808968D01*
G37*
G04 #@! TD.AperFunction*
G04 #@! TA.AperFunction,SMDPad,CuDef*
G04 #@! TO.P,D5.2,2*
G04 #@! TO.N,/CA2*
G36*
X190540000Y-65662351D02*
G01*
X189974315Y-65096666D01*
X190540000Y-64530981D01*
X191105685Y-65096666D01*
X190540000Y-65662351D01*
G37*
G04 #@! TD.AperFunction*
G04 #@! TD*
G04 #@! TA.AperFunction,SMDPad,CuDef*
G04 #@! TO.P,D5.3,1*
G04 #@! TO.N,/CA5*
G36*
X189375424Y-69475634D02*
G01*
X188809739Y-68909949D01*
X189375424Y-68344264D01*
X189941109Y-68909949D01*
X189375424Y-69475634D01*
G37*
G04 #@! TD.AperFunction*
G04 #@! TA.AperFunction,SMDPad,CuDef*
G04 #@! TO.P,D5.3,2*
G04 #@! TO.N,/CA3*
G36*
X190540000Y-68329017D02*
G01*
X189974315Y-67763332D01*
X190540000Y-67197647D01*
X191105685Y-67763332D01*
X190540000Y-68329017D01*
G37*
G04 #@! TD.AperFunction*
G04 #@! TD*
G04 #@! TA.AperFunction,SMDPad,CuDef*
G04 #@! TO.P,D5.4,1*
G04 #@! TO.N,/CA5*
G36*
X189375424Y-72142300D02*
G01*
X188809739Y-71576615D01*
X189375424Y-71010930D01*
X189941109Y-71576615D01*
X189375424Y-72142300D01*
G37*
G04 #@! TD.AperFunction*
G04 #@! TA.AperFunction,SMDPad,CuDef*
G04 #@! TO.P,D5.4,2*
G04 #@! TO.N,/CA4*
G36*
X190540000Y-70995683D02*
G01*
X189974315Y-70429998D01*
X190540000Y-69864313D01*
X191105685Y-70429998D01*
X190540000Y-70995683D01*
G37*
G04 #@! TD.AperFunction*
G04 #@! TD*
G04 #@! TA.AperFunction,SMDPad,CuDef*
G04 #@! TO.P,D5.5,1*
G04 #@! TO.N,/CA5*
G36*
X189375424Y-74808966D02*
G01*
X188809739Y-74243281D01*
X189375424Y-73677596D01*
X189941109Y-74243281D01*
X189375424Y-74808966D01*
G37*
G04 #@! TD.AperFunction*
G04 #@! TA.AperFunction,SMDPad,CuDef*
G04 #@! TO.P,D5.5,2*
G04 #@! TO.N,/CA6*
G36*
X190540000Y-73662349D02*
G01*
X189974315Y-73096664D01*
X190540000Y-72530979D01*
X191105685Y-73096664D01*
X190540000Y-73662349D01*
G37*
G04 #@! TD.AperFunction*
G04 #@! TD*
G04 #@! TA.AperFunction,SMDPad,CuDef*
G04 #@! TO.P,D5.15,1*
G04 #@! TO.N,/CB5*
G36*
X189375424Y-101475626D02*
G01*
X188809739Y-100909941D01*
X189375424Y-100344256D01*
X189941109Y-100909941D01*
X189375424Y-101475626D01*
G37*
G04 #@! TD.AperFunction*
G04 #@! TA.AperFunction,SMDPad,CuDef*
G04 #@! TO.P,D5.15,2*
G04 #@! TO.N,/CB8*
G36*
X190540000Y-100329009D02*
G01*
X189974315Y-99763324D01*
X190540000Y-99197639D01*
X191105685Y-99763324D01*
X190540000Y-100329009D01*
G37*
G04 #@! TD.AperFunction*
G04 #@! TD*
G04 #@! TA.AperFunction,SMDPad,CuDef*
G04 #@! TO.P,D5.6,1*
G04 #@! TO.N,/CA5*
G36*
X189375424Y-77475632D02*
G01*
X188809739Y-76909947D01*
X189375424Y-76344262D01*
X189941109Y-76909947D01*
X189375424Y-77475632D01*
G37*
G04 #@! TD.AperFunction*
G04 #@! TA.AperFunction,SMDPad,CuDef*
G04 #@! TO.P,D5.6,2*
G04 #@! TO.N,/CA7*
G36*
X190540000Y-76329015D02*
G01*
X189974315Y-75763330D01*
X190540000Y-75197645D01*
X191105685Y-75763330D01*
X190540000Y-76329015D01*
G37*
G04 #@! TD.AperFunction*
G04 #@! TD*
G04 #@! TA.AperFunction,SMDPad,CuDef*
G04 #@! TO.P,D5.7,1*
G04 #@! TO.N,/CA5*
G36*
X189375424Y-80142298D02*
G01*
X188809739Y-79576613D01*
X189375424Y-79010928D01*
X189941109Y-79576613D01*
X189375424Y-80142298D01*
G37*
G04 #@! TD.AperFunction*
G04 #@! TA.AperFunction,SMDPad,CuDef*
G04 #@! TO.P,D5.7,2*
G04 #@! TO.N,/CA8*
G36*
X190540000Y-78995681D02*
G01*
X189974315Y-78429996D01*
X190540000Y-77864311D01*
X191105685Y-78429996D01*
X190540000Y-78995681D01*
G37*
G04 #@! TD.AperFunction*
G04 #@! TD*
G04 #@! TA.AperFunction,SMDPad,CuDef*
G04 #@! TO.P,D5.8,1*
G04 #@! TO.N,/CA5*
G36*
X189375424Y-82808964D02*
G01*
X188809739Y-82243279D01*
X189375424Y-81677594D01*
X189941109Y-82243279D01*
X189375424Y-82808964D01*
G37*
G04 #@! TD.AperFunction*
G04 #@! TA.AperFunction,SMDPad,CuDef*
G04 #@! TO.P,D5.8,2*
G04 #@! TO.N,/CA9*
G36*
X190540000Y-81662347D02*
G01*
X189974315Y-81096662D01*
X190540000Y-80530977D01*
X191105685Y-81096662D01*
X190540000Y-81662347D01*
G37*
G04 #@! TD.AperFunction*
G04 #@! TD*
G04 #@! TA.AperFunction,SMDPad,CuDef*
G04 #@! TO.P,D5.9,1*
G04 #@! TO.N,/CB5*
G36*
X189375424Y-85475630D02*
G01*
X188809739Y-84909945D01*
X189375424Y-84344260D01*
X189941109Y-84909945D01*
X189375424Y-85475630D01*
G37*
G04 #@! TD.AperFunction*
G04 #@! TA.AperFunction,SMDPad,CuDef*
G04 #@! TO.P,D5.9,2*
G04 #@! TO.N,/CB1*
G36*
X190540000Y-84329013D02*
G01*
X189974315Y-83763328D01*
X190540000Y-83197643D01*
X191105685Y-83763328D01*
X190540000Y-84329013D01*
G37*
G04 #@! TD.AperFunction*
G04 #@! TD*
G04 #@! TA.AperFunction,SMDPad,CuDef*
G04 #@! TO.P,D5.10,1*
G04 #@! TO.N,/CB5*
G36*
X189375424Y-88142296D02*
G01*
X188809739Y-87576611D01*
X189375424Y-87010926D01*
X189941109Y-87576611D01*
X189375424Y-88142296D01*
G37*
G04 #@! TD.AperFunction*
G04 #@! TA.AperFunction,SMDPad,CuDef*
G04 #@! TO.P,D5.10,2*
G04 #@! TO.N,/CB2*
G36*
X190540000Y-86995679D02*
G01*
X189974315Y-86429994D01*
X190540000Y-85864309D01*
X191105685Y-86429994D01*
X190540000Y-86995679D01*
G37*
G04 #@! TD.AperFunction*
G04 #@! TD*
G04 #@! TA.AperFunction,SMDPad,CuDef*
G04 #@! TO.P,D5.11,1*
G04 #@! TO.N,/CB5*
G36*
X189375424Y-90808962D02*
G01*
X188809739Y-90243277D01*
X189375424Y-89677592D01*
X189941109Y-90243277D01*
X189375424Y-90808962D01*
G37*
G04 #@! TD.AperFunction*
G04 #@! TA.AperFunction,SMDPad,CuDef*
G04 #@! TO.P,D5.11,2*
G04 #@! TO.N,/CB3*
G36*
X190540000Y-89662345D02*
G01*
X189974315Y-89096660D01*
X190540000Y-88530975D01*
X191105685Y-89096660D01*
X190540000Y-89662345D01*
G37*
G04 #@! TD.AperFunction*
G04 #@! TD*
G04 #@! TA.AperFunction,SMDPad,CuDef*
G04 #@! TO.P,D5.16,1*
G04 #@! TO.N,/CB5*
G36*
X189375424Y-104142292D02*
G01*
X188809739Y-103576607D01*
X189375424Y-103010922D01*
X189941109Y-103576607D01*
X189375424Y-104142292D01*
G37*
G04 #@! TD.AperFunction*
G04 #@! TA.AperFunction,SMDPad,CuDef*
G04 #@! TO.P,D5.16,2*
G04 #@! TO.N,/CB9*
G36*
X190540000Y-102995675D02*
G01*
X189974315Y-102429990D01*
X190540000Y-101864305D01*
X191105685Y-102429990D01*
X190540000Y-102995675D01*
G37*
G04 #@! TD.AperFunction*
G04 #@! TD*
G04 #@! TA.AperFunction,SMDPad,CuDef*
G04 #@! TO.P,D4.14,1*
G04 #@! TO.N,/CB4*
G36*
X192045424Y-98808960D02*
G01*
X191479739Y-98243275D01*
X192045424Y-97677590D01*
X192611109Y-98243275D01*
X192045424Y-98808960D01*
G37*
G04 #@! TD.AperFunction*
G04 #@! TA.AperFunction,SMDPad,CuDef*
G04 #@! TO.P,D4.14,2*
G04 #@! TO.N,/CB7*
G36*
X193210000Y-97662343D02*
G01*
X192644315Y-97096658D01*
X193210000Y-96530973D01*
X193775685Y-97096658D01*
X193210000Y-97662343D01*
G37*
G04 #@! TD.AperFunction*
G04 #@! TD*
G04 #@! TA.AperFunction,SMDPad,CuDef*
G04 #@! TO.P,D4.13,1*
G04 #@! TO.N,/CB4*
G36*
X192045424Y-96142294D02*
G01*
X191479739Y-95576609D01*
X192045424Y-95010924D01*
X192611109Y-95576609D01*
X192045424Y-96142294D01*
G37*
G04 #@! TD.AperFunction*
G04 #@! TA.AperFunction,SMDPad,CuDef*
G04 #@! TO.P,D4.13,2*
G04 #@! TO.N,/CB6*
G36*
X193210000Y-94995677D02*
G01*
X192644315Y-94429992D01*
X193210000Y-93864307D01*
X193775685Y-94429992D01*
X193210000Y-94995677D01*
G37*
G04 #@! TD.AperFunction*
G04 #@! TD*
G04 #@! TA.AperFunction,SMDPad,CuDef*
G04 #@! TO.P,D4.12,1*
G04 #@! TO.N,/CB4*
G36*
X192045424Y-93475628D02*
G01*
X191479739Y-92909943D01*
X192045424Y-92344258D01*
X192611109Y-92909943D01*
X192045424Y-93475628D01*
G37*
G04 #@! TD.AperFunction*
G04 #@! TA.AperFunction,SMDPad,CuDef*
G04 #@! TO.P,D4.12,2*
G04 #@! TO.N,/CB5*
G36*
X193210000Y-92329011D02*
G01*
X192644315Y-91763326D01*
X193210000Y-91197641D01*
X193775685Y-91763326D01*
X193210000Y-92329011D01*
G37*
G04 #@! TD.AperFunction*
G04 #@! TD*
G04 #@! TA.AperFunction,SMDPad,CuDef*
G04 #@! TO.P,D4.1,1*
G04 #@! TO.N,/CA4*
G36*
X192045424Y-64142302D02*
G01*
X191479739Y-63576617D01*
X192045424Y-63010932D01*
X192611109Y-63576617D01*
X192045424Y-64142302D01*
G37*
G04 #@! TD.AperFunction*
G04 #@! TA.AperFunction,SMDPad,CuDef*
G04 #@! TO.P,D4.1,2*
G04 #@! TO.N,/CA1*
G36*
X193210000Y-62995685D02*
G01*
X192644315Y-62430000D01*
X193210000Y-61864315D01*
X193775685Y-62430000D01*
X193210000Y-62995685D01*
G37*
G04 #@! TD.AperFunction*
G04 #@! TD*
G04 #@! TA.AperFunction,SMDPad,CuDef*
G04 #@! TO.P,D4.2,1*
G04 #@! TO.N,/CA4*
G36*
X192045424Y-66808968D02*
G01*
X191479739Y-66243283D01*
X192045424Y-65677598D01*
X192611109Y-66243283D01*
X192045424Y-66808968D01*
G37*
G04 #@! TD.AperFunction*
G04 #@! TA.AperFunction,SMDPad,CuDef*
G04 #@! TO.P,D4.2,2*
G04 #@! TO.N,/CA2*
G36*
X193210000Y-65662351D02*
G01*
X192644315Y-65096666D01*
X193210000Y-64530981D01*
X193775685Y-65096666D01*
X193210000Y-65662351D01*
G37*
G04 #@! TD.AperFunction*
G04 #@! TD*
G04 #@! TA.AperFunction,SMDPad,CuDef*
G04 #@! TO.P,D4.3,1*
G04 #@! TO.N,/CA4*
G36*
X192045424Y-69475634D02*
G01*
X191479739Y-68909949D01*
X192045424Y-68344264D01*
X192611109Y-68909949D01*
X192045424Y-69475634D01*
G37*
G04 #@! TD.AperFunction*
G04 #@! TA.AperFunction,SMDPad,CuDef*
G04 #@! TO.P,D4.3,2*
G04 #@! TO.N,/CA3*
G36*
X193210000Y-68329017D02*
G01*
X192644315Y-67763332D01*
X193210000Y-67197647D01*
X193775685Y-67763332D01*
X193210000Y-68329017D01*
G37*
G04 #@! TD.AperFunction*
G04 #@! TD*
G04 #@! TA.AperFunction,SMDPad,CuDef*
G04 #@! TO.P,D4.4,1*
G04 #@! TO.N,/CA4*
G36*
X192045424Y-72142300D02*
G01*
X191479739Y-71576615D01*
X192045424Y-71010930D01*
X192611109Y-71576615D01*
X192045424Y-72142300D01*
G37*
G04 #@! TD.AperFunction*
G04 #@! TA.AperFunction,SMDPad,CuDef*
G04 #@! TO.P,D4.4,2*
G04 #@! TO.N,/CA5*
G36*
X193210000Y-70995683D02*
G01*
X192644315Y-70429998D01*
X193210000Y-69864313D01*
X193775685Y-70429998D01*
X193210000Y-70995683D01*
G37*
G04 #@! TD.AperFunction*
G04 #@! TD*
G04 #@! TA.AperFunction,SMDPad,CuDef*
G04 #@! TO.P,D4.5,1*
G04 #@! TO.N,/CA4*
G36*
X192045424Y-74808966D02*
G01*
X191479739Y-74243281D01*
X192045424Y-73677596D01*
X192611109Y-74243281D01*
X192045424Y-74808966D01*
G37*
G04 #@! TD.AperFunction*
G04 #@! TA.AperFunction,SMDPad,CuDef*
G04 #@! TO.P,D4.5,2*
G04 #@! TO.N,/CA6*
G36*
X193210000Y-73662349D02*
G01*
X192644315Y-73096664D01*
X193210000Y-72530979D01*
X193775685Y-73096664D01*
X193210000Y-73662349D01*
G37*
G04 #@! TD.AperFunction*
G04 #@! TD*
G04 #@! TA.AperFunction,SMDPad,CuDef*
G04 #@! TO.P,D4.15,1*
G04 #@! TO.N,/CB4*
G36*
X192045424Y-101475626D02*
G01*
X191479739Y-100909941D01*
X192045424Y-100344256D01*
X192611109Y-100909941D01*
X192045424Y-101475626D01*
G37*
G04 #@! TD.AperFunction*
G04 #@! TA.AperFunction,SMDPad,CuDef*
G04 #@! TO.P,D4.15,2*
G04 #@! TO.N,/CB8*
G36*
X193210000Y-100329009D02*
G01*
X192644315Y-99763324D01*
X193210000Y-99197639D01*
X193775685Y-99763324D01*
X193210000Y-100329009D01*
G37*
G04 #@! TD.AperFunction*
G04 #@! TD*
G04 #@! TA.AperFunction,SMDPad,CuDef*
G04 #@! TO.P,D4.6,1*
G04 #@! TO.N,/CA4*
G36*
X192045424Y-77475632D02*
G01*
X191479739Y-76909947D01*
X192045424Y-76344262D01*
X192611109Y-76909947D01*
X192045424Y-77475632D01*
G37*
G04 #@! TD.AperFunction*
G04 #@! TA.AperFunction,SMDPad,CuDef*
G04 #@! TO.P,D4.6,2*
G04 #@! TO.N,/CA7*
G36*
X193210000Y-76329015D02*
G01*
X192644315Y-75763330D01*
X193210000Y-75197645D01*
X193775685Y-75763330D01*
X193210000Y-76329015D01*
G37*
G04 #@! TD.AperFunction*
G04 #@! TD*
G04 #@! TA.AperFunction,SMDPad,CuDef*
G04 #@! TO.P,D4.7,1*
G04 #@! TO.N,/CA4*
G36*
X192045424Y-80142298D02*
G01*
X191479739Y-79576613D01*
X192045424Y-79010928D01*
X192611109Y-79576613D01*
X192045424Y-80142298D01*
G37*
G04 #@! TD.AperFunction*
G04 #@! TA.AperFunction,SMDPad,CuDef*
G04 #@! TO.P,D4.7,2*
G04 #@! TO.N,/CA8*
G36*
X193210000Y-78995681D02*
G01*
X192644315Y-78429996D01*
X193210000Y-77864311D01*
X193775685Y-78429996D01*
X193210000Y-78995681D01*
G37*
G04 #@! TD.AperFunction*
G04 #@! TD*
G04 #@! TA.AperFunction,SMDPad,CuDef*
G04 #@! TO.P,D4.8,1*
G04 #@! TO.N,/CA4*
G36*
X192045424Y-82808964D02*
G01*
X191479739Y-82243279D01*
X192045424Y-81677594D01*
X192611109Y-82243279D01*
X192045424Y-82808964D01*
G37*
G04 #@! TD.AperFunction*
G04 #@! TA.AperFunction,SMDPad,CuDef*
G04 #@! TO.P,D4.8,2*
G04 #@! TO.N,/CA9*
G36*
X193210000Y-81662347D02*
G01*
X192644315Y-81096662D01*
X193210000Y-80530977D01*
X193775685Y-81096662D01*
X193210000Y-81662347D01*
G37*
G04 #@! TD.AperFunction*
G04 #@! TD*
G04 #@! TA.AperFunction,SMDPad,CuDef*
G04 #@! TO.P,D4.9,1*
G04 #@! TO.N,/CB4*
G36*
X192045424Y-85475630D02*
G01*
X191479739Y-84909945D01*
X192045424Y-84344260D01*
X192611109Y-84909945D01*
X192045424Y-85475630D01*
G37*
G04 #@! TD.AperFunction*
G04 #@! TA.AperFunction,SMDPad,CuDef*
G04 #@! TO.P,D4.9,2*
G04 #@! TO.N,/CB1*
G36*
X193210000Y-84329013D02*
G01*
X192644315Y-83763328D01*
X193210000Y-83197643D01*
X193775685Y-83763328D01*
X193210000Y-84329013D01*
G37*
G04 #@! TD.AperFunction*
G04 #@! TD*
G04 #@! TA.AperFunction,SMDPad,CuDef*
G04 #@! TO.P,D4.10,1*
G04 #@! TO.N,/CB4*
G36*
X192045424Y-88142296D02*
G01*
X191479739Y-87576611D01*
X192045424Y-87010926D01*
X192611109Y-87576611D01*
X192045424Y-88142296D01*
G37*
G04 #@! TD.AperFunction*
G04 #@! TA.AperFunction,SMDPad,CuDef*
G04 #@! TO.P,D4.10,2*
G04 #@! TO.N,/CB2*
G36*
X193210000Y-86995679D02*
G01*
X192644315Y-86429994D01*
X193210000Y-85864309D01*
X193775685Y-86429994D01*
X193210000Y-86995679D01*
G37*
G04 #@! TD.AperFunction*
G04 #@! TD*
G04 #@! TA.AperFunction,SMDPad,CuDef*
G04 #@! TO.P,D4.11,1*
G04 #@! TO.N,/CB4*
G36*
X192045424Y-90808962D02*
G01*
X191479739Y-90243277D01*
X192045424Y-89677592D01*
X192611109Y-90243277D01*
X192045424Y-90808962D01*
G37*
G04 #@! TD.AperFunction*
G04 #@! TA.AperFunction,SMDPad,CuDef*
G04 #@! TO.P,D4.11,2*
G04 #@! TO.N,/CB3*
G36*
X193210000Y-89662345D02*
G01*
X192644315Y-89096660D01*
X193210000Y-88530975D01*
X193775685Y-89096660D01*
X193210000Y-89662345D01*
G37*
G04 #@! TD.AperFunction*
G04 #@! TD*
G04 #@! TA.AperFunction,SMDPad,CuDef*
G04 #@! TO.P,D4.16,1*
G04 #@! TO.N,/CB4*
G36*
X192045424Y-104142292D02*
G01*
X191479739Y-103576607D01*
X192045424Y-103010922D01*
X192611109Y-103576607D01*
X192045424Y-104142292D01*
G37*
G04 #@! TD.AperFunction*
G04 #@! TA.AperFunction,SMDPad,CuDef*
G04 #@! TO.P,D4.16,2*
G04 #@! TO.N,/CB9*
G36*
X193210000Y-102995675D02*
G01*
X192644315Y-102429990D01*
X193210000Y-101864305D01*
X193775685Y-102429990D01*
X193210000Y-102995675D01*
G37*
G04 #@! TD.AperFunction*
G04 #@! TD*
G04 #@! TA.AperFunction,SMDPad,CuDef*
G04 #@! TO.P,D3.14,1*
G04 #@! TO.N,/CB3*
G36*
X194705424Y-98808960D02*
G01*
X194139739Y-98243275D01*
X194705424Y-97677590D01*
X195271109Y-98243275D01*
X194705424Y-98808960D01*
G37*
G04 #@! TD.AperFunction*
G04 #@! TA.AperFunction,SMDPad,CuDef*
G04 #@! TO.P,D3.14,2*
G04 #@! TO.N,/CB7*
G36*
X195870000Y-97662343D02*
G01*
X195304315Y-97096658D01*
X195870000Y-96530973D01*
X196435685Y-97096658D01*
X195870000Y-97662343D01*
G37*
G04 #@! TD.AperFunction*
G04 #@! TD*
G04 #@! TA.AperFunction,SMDPad,CuDef*
G04 #@! TO.P,D3.13,1*
G04 #@! TO.N,/CB3*
G36*
X194705424Y-96142294D02*
G01*
X194139739Y-95576609D01*
X194705424Y-95010924D01*
X195271109Y-95576609D01*
X194705424Y-96142294D01*
G37*
G04 #@! TD.AperFunction*
G04 #@! TA.AperFunction,SMDPad,CuDef*
G04 #@! TO.P,D3.13,2*
G04 #@! TO.N,/CB6*
G36*
X195870000Y-94995677D02*
G01*
X195304315Y-94429992D01*
X195870000Y-93864307D01*
X196435685Y-94429992D01*
X195870000Y-94995677D01*
G37*
G04 #@! TD.AperFunction*
G04 #@! TD*
G04 #@! TA.AperFunction,SMDPad,CuDef*
G04 #@! TO.P,D3.12,1*
G04 #@! TO.N,/CB3*
G36*
X194705424Y-93475628D02*
G01*
X194139739Y-92909943D01*
X194705424Y-92344258D01*
X195271109Y-92909943D01*
X194705424Y-93475628D01*
G37*
G04 #@! TD.AperFunction*
G04 #@! TA.AperFunction,SMDPad,CuDef*
G04 #@! TO.P,D3.12,2*
G04 #@! TO.N,/CB5*
G36*
X195870000Y-92329011D02*
G01*
X195304315Y-91763326D01*
X195870000Y-91197641D01*
X196435685Y-91763326D01*
X195870000Y-92329011D01*
G37*
G04 #@! TD.AperFunction*
G04 #@! TD*
G04 #@! TA.AperFunction,SMDPad,CuDef*
G04 #@! TO.P,D3.1,1*
G04 #@! TO.N,/CA3*
G36*
X194705424Y-64142302D02*
G01*
X194139739Y-63576617D01*
X194705424Y-63010932D01*
X195271109Y-63576617D01*
X194705424Y-64142302D01*
G37*
G04 #@! TD.AperFunction*
G04 #@! TA.AperFunction,SMDPad,CuDef*
G04 #@! TO.P,D3.1,2*
G04 #@! TO.N,/CA1*
G36*
X195870000Y-62995685D02*
G01*
X195304315Y-62430000D01*
X195870000Y-61864315D01*
X196435685Y-62430000D01*
X195870000Y-62995685D01*
G37*
G04 #@! TD.AperFunction*
G04 #@! TD*
G04 #@! TA.AperFunction,SMDPad,CuDef*
G04 #@! TO.P,D3.2,1*
G04 #@! TO.N,/CA3*
G36*
X194705424Y-66808968D02*
G01*
X194139739Y-66243283D01*
X194705424Y-65677598D01*
X195271109Y-66243283D01*
X194705424Y-66808968D01*
G37*
G04 #@! TD.AperFunction*
G04 #@! TA.AperFunction,SMDPad,CuDef*
G04 #@! TO.P,D3.2,2*
G04 #@! TO.N,/CA2*
G36*
X195870000Y-65662351D02*
G01*
X195304315Y-65096666D01*
X195870000Y-64530981D01*
X196435685Y-65096666D01*
X195870000Y-65662351D01*
G37*
G04 #@! TD.AperFunction*
G04 #@! TD*
G04 #@! TA.AperFunction,SMDPad,CuDef*
G04 #@! TO.P,D3.4,1*
G04 #@! TO.N,/CA3*
G36*
X194705424Y-72142300D02*
G01*
X194139739Y-71576615D01*
X194705424Y-71010930D01*
X195271109Y-71576615D01*
X194705424Y-72142300D01*
G37*
G04 #@! TD.AperFunction*
G04 #@! TA.AperFunction,SMDPad,CuDef*
G04 #@! TO.P,D3.4,2*
G04 #@! TO.N,/CA5*
G36*
X195870000Y-70995683D02*
G01*
X195304315Y-70429998D01*
X195870000Y-69864313D01*
X196435685Y-70429998D01*
X195870000Y-70995683D01*
G37*
G04 #@! TD.AperFunction*
G04 #@! TD*
G04 #@! TA.AperFunction,SMDPad,CuDef*
G04 #@! TO.P,D3.5,1*
G04 #@! TO.N,/CA3*
G36*
X194705424Y-74808966D02*
G01*
X194139739Y-74243281D01*
X194705424Y-73677596D01*
X195271109Y-74243281D01*
X194705424Y-74808966D01*
G37*
G04 #@! TD.AperFunction*
G04 #@! TA.AperFunction,SMDPad,CuDef*
G04 #@! TO.P,D3.5,2*
G04 #@! TO.N,/CA6*
G36*
X195870000Y-73662349D02*
G01*
X195304315Y-73096664D01*
X195870000Y-72530979D01*
X196435685Y-73096664D01*
X195870000Y-73662349D01*
G37*
G04 #@! TD.AperFunction*
G04 #@! TD*
G04 #@! TA.AperFunction,SMDPad,CuDef*
G04 #@! TO.P,D3.15,1*
G04 #@! TO.N,/CB3*
G36*
X194705424Y-101475626D02*
G01*
X194139739Y-100909941D01*
X194705424Y-100344256D01*
X195271109Y-100909941D01*
X194705424Y-101475626D01*
G37*
G04 #@! TD.AperFunction*
G04 #@! TA.AperFunction,SMDPad,CuDef*
G04 #@! TO.P,D3.15,2*
G04 #@! TO.N,/CB8*
G36*
X195870000Y-100329009D02*
G01*
X195304315Y-99763324D01*
X195870000Y-99197639D01*
X196435685Y-99763324D01*
X195870000Y-100329009D01*
G37*
G04 #@! TD.AperFunction*
G04 #@! TD*
G04 #@! TA.AperFunction,SMDPad,CuDef*
G04 #@! TO.P,D3.6,1*
G04 #@! TO.N,/CA3*
G36*
X194705424Y-77475632D02*
G01*
X194139739Y-76909947D01*
X194705424Y-76344262D01*
X195271109Y-76909947D01*
X194705424Y-77475632D01*
G37*
G04 #@! TD.AperFunction*
G04 #@! TA.AperFunction,SMDPad,CuDef*
G04 #@! TO.P,D3.6,2*
G04 #@! TO.N,/CA7*
G36*
X195870000Y-76329015D02*
G01*
X195304315Y-75763330D01*
X195870000Y-75197645D01*
X196435685Y-75763330D01*
X195870000Y-76329015D01*
G37*
G04 #@! TD.AperFunction*
G04 #@! TD*
G04 #@! TA.AperFunction,SMDPad,CuDef*
G04 #@! TO.P,D3.7,1*
G04 #@! TO.N,/CA3*
G36*
X194705424Y-80142298D02*
G01*
X194139739Y-79576613D01*
X194705424Y-79010928D01*
X195271109Y-79576613D01*
X194705424Y-80142298D01*
G37*
G04 #@! TD.AperFunction*
G04 #@! TA.AperFunction,SMDPad,CuDef*
G04 #@! TO.P,D3.7,2*
G04 #@! TO.N,/CA8*
G36*
X195870000Y-78995681D02*
G01*
X195304315Y-78429996D01*
X195870000Y-77864311D01*
X196435685Y-78429996D01*
X195870000Y-78995681D01*
G37*
G04 #@! TD.AperFunction*
G04 #@! TD*
G04 #@! TA.AperFunction,SMDPad,CuDef*
G04 #@! TO.P,D3.8,1*
G04 #@! TO.N,/CA3*
G36*
X194705424Y-82808964D02*
G01*
X194139739Y-82243279D01*
X194705424Y-81677594D01*
X195271109Y-82243279D01*
X194705424Y-82808964D01*
G37*
G04 #@! TD.AperFunction*
G04 #@! TA.AperFunction,SMDPad,CuDef*
G04 #@! TO.P,D3.8,2*
G04 #@! TO.N,/CA9*
G36*
X195870000Y-81662347D02*
G01*
X195304315Y-81096662D01*
X195870000Y-80530977D01*
X196435685Y-81096662D01*
X195870000Y-81662347D01*
G37*
G04 #@! TD.AperFunction*
G04 #@! TD*
G04 #@! TA.AperFunction,SMDPad,CuDef*
G04 #@! TO.P,D3.9,1*
G04 #@! TO.N,/CB3*
G36*
X194705424Y-85475630D02*
G01*
X194139739Y-84909945D01*
X194705424Y-84344260D01*
X195271109Y-84909945D01*
X194705424Y-85475630D01*
G37*
G04 #@! TD.AperFunction*
G04 #@! TA.AperFunction,SMDPad,CuDef*
G04 #@! TO.P,D3.9,2*
G04 #@! TO.N,/CB1*
G36*
X195870000Y-84329013D02*
G01*
X195304315Y-83763328D01*
X195870000Y-83197643D01*
X196435685Y-83763328D01*
X195870000Y-84329013D01*
G37*
G04 #@! TD.AperFunction*
G04 #@! TD*
G04 #@! TA.AperFunction,SMDPad,CuDef*
G04 #@! TO.P,D3.10,1*
G04 #@! TO.N,/CB3*
G36*
X194705424Y-88142296D02*
G01*
X194139739Y-87576611D01*
X194705424Y-87010926D01*
X195271109Y-87576611D01*
X194705424Y-88142296D01*
G37*
G04 #@! TD.AperFunction*
G04 #@! TA.AperFunction,SMDPad,CuDef*
G04 #@! TO.P,D3.10,2*
G04 #@! TO.N,/CB2*
G36*
X195870000Y-86995679D02*
G01*
X195304315Y-86429994D01*
X195870000Y-85864309D01*
X196435685Y-86429994D01*
X195870000Y-86995679D01*
G37*
G04 #@! TD.AperFunction*
G04 #@! TD*
G04 #@! TA.AperFunction,SMDPad,CuDef*
G04 #@! TO.P,D3.11,1*
G04 #@! TO.N,/CB3*
G36*
X194705424Y-90808962D02*
G01*
X194139739Y-90243277D01*
X194705424Y-89677592D01*
X195271109Y-90243277D01*
X194705424Y-90808962D01*
G37*
G04 #@! TD.AperFunction*
G04 #@! TA.AperFunction,SMDPad,CuDef*
G04 #@! TO.P,D3.11,2*
G04 #@! TO.N,/CB4*
G36*
X195870000Y-89662345D02*
G01*
X195304315Y-89096660D01*
X195870000Y-88530975D01*
X196435685Y-89096660D01*
X195870000Y-89662345D01*
G37*
G04 #@! TD.AperFunction*
G04 #@! TD*
G04 #@! TA.AperFunction,SMDPad,CuDef*
G04 #@! TO.P,D3.16,1*
G04 #@! TO.N,/CB3*
G36*
X194705424Y-104142292D02*
G01*
X194139739Y-103576607D01*
X194705424Y-103010922D01*
X195271109Y-103576607D01*
X194705424Y-104142292D01*
G37*
G04 #@! TD.AperFunction*
G04 #@! TA.AperFunction,SMDPad,CuDef*
G04 #@! TO.P,D3.16,2*
G04 #@! TO.N,/CB9*
G36*
X195870000Y-102995675D02*
G01*
X195304315Y-102429990D01*
X195870000Y-101864305D01*
X196435685Y-102429990D01*
X195870000Y-102995675D01*
G37*
G04 #@! TD.AperFunction*
G04 #@! TD*
G04 #@! TA.AperFunction,SMDPad,CuDef*
G04 #@! TO.P,D2.16,1*
G04 #@! TO.N,/CB2*
G36*
X197375424Y-104142292D02*
G01*
X196809739Y-103576607D01*
X197375424Y-103010922D01*
X197941109Y-103576607D01*
X197375424Y-104142292D01*
G37*
G04 #@! TD.AperFunction*
G04 #@! TA.AperFunction,SMDPad,CuDef*
G04 #@! TO.P,D2.16,2*
G04 #@! TO.N,/CB9*
G36*
X198540000Y-102995675D02*
G01*
X197974315Y-102429990D01*
X198540000Y-101864305D01*
X199105685Y-102429990D01*
X198540000Y-102995675D01*
G37*
G04 #@! TD.AperFunction*
G04 #@! TD*
G04 #@! TA.AperFunction,SMDPad,CuDef*
G04 #@! TO.P,D2.9,1*
G04 #@! TO.N,/CB2*
G36*
X197375424Y-85475630D02*
G01*
X196809739Y-84909945D01*
X197375424Y-84344260D01*
X197941109Y-84909945D01*
X197375424Y-85475630D01*
G37*
G04 #@! TD.AperFunction*
G04 #@! TA.AperFunction,SMDPad,CuDef*
G04 #@! TO.P,D2.9,2*
G04 #@! TO.N,/CB1*
G36*
X198540000Y-84329013D02*
G01*
X197974315Y-83763328D01*
X198540000Y-83197643D01*
X199105685Y-83763328D01*
X198540000Y-84329013D01*
G37*
G04 #@! TD.AperFunction*
G04 #@! TD*
G04 #@! TA.AperFunction,SMDPad,CuDef*
G04 #@! TO.P,D2.8,1*
G04 #@! TO.N,/CA2*
G36*
X197375424Y-82808964D02*
G01*
X196809739Y-82243279D01*
X197375424Y-81677594D01*
X197941109Y-82243279D01*
X197375424Y-82808964D01*
G37*
G04 #@! TD.AperFunction*
G04 #@! TA.AperFunction,SMDPad,CuDef*
G04 #@! TO.P,D2.8,2*
G04 #@! TO.N,/CA9*
G36*
X198540000Y-81662347D02*
G01*
X197974315Y-81096662D01*
X198540000Y-80530977D01*
X199105685Y-81096662D01*
X198540000Y-81662347D01*
G37*
G04 #@! TD.AperFunction*
G04 #@! TD*
G04 #@! TA.AperFunction,SMDPad,CuDef*
G04 #@! TO.P,D2.7,1*
G04 #@! TO.N,/CA2*
G36*
X197375424Y-80142298D02*
G01*
X196809739Y-79576613D01*
X197375424Y-79010928D01*
X197941109Y-79576613D01*
X197375424Y-80142298D01*
G37*
G04 #@! TD.AperFunction*
G04 #@! TA.AperFunction,SMDPad,CuDef*
G04 #@! TO.P,D2.7,2*
G04 #@! TO.N,/CA8*
G36*
X198540000Y-78995681D02*
G01*
X197974315Y-78429996D01*
X198540000Y-77864311D01*
X199105685Y-78429996D01*
X198540000Y-78995681D01*
G37*
G04 #@! TD.AperFunction*
G04 #@! TD*
G04 #@! TA.AperFunction,SMDPad,CuDef*
G04 #@! TO.P,D2.6,1*
G04 #@! TO.N,/CA2*
G36*
X197375424Y-77475632D02*
G01*
X196809739Y-76909947D01*
X197375424Y-76344262D01*
X197941109Y-76909947D01*
X197375424Y-77475632D01*
G37*
G04 #@! TD.AperFunction*
G04 #@! TA.AperFunction,SMDPad,CuDef*
G04 #@! TO.P,D2.6,2*
G04 #@! TO.N,/CA7*
G36*
X198540000Y-76329015D02*
G01*
X197974315Y-75763330D01*
X198540000Y-75197645D01*
X199105685Y-75763330D01*
X198540000Y-76329015D01*
G37*
G04 #@! TD.AperFunction*
G04 #@! TD*
G04 #@! TA.AperFunction,SMDPad,CuDef*
G04 #@! TO.P,D2.5,1*
G04 #@! TO.N,/CA2*
G36*
X197375424Y-74808966D02*
G01*
X196809739Y-74243281D01*
X197375424Y-73677596D01*
X197941109Y-74243281D01*
X197375424Y-74808966D01*
G37*
G04 #@! TD.AperFunction*
G04 #@! TA.AperFunction,SMDPad,CuDef*
G04 #@! TO.P,D2.5,2*
G04 #@! TO.N,/CA6*
G36*
X198540000Y-73662349D02*
G01*
X197974315Y-73096664D01*
X198540000Y-72530979D01*
X199105685Y-73096664D01*
X198540000Y-73662349D01*
G37*
G04 #@! TD.AperFunction*
G04 #@! TD*
G04 #@! TA.AperFunction,SMDPad,CuDef*
G04 #@! TO.P,D2.4,1*
G04 #@! TO.N,/CA2*
G36*
X197375424Y-72142300D02*
G01*
X196809739Y-71576615D01*
X197375424Y-71010930D01*
X197941109Y-71576615D01*
X197375424Y-72142300D01*
G37*
G04 #@! TD.AperFunction*
G04 #@! TA.AperFunction,SMDPad,CuDef*
G04 #@! TO.P,D2.4,2*
G04 #@! TO.N,/CA5*
G36*
X198540000Y-70995683D02*
G01*
X197974315Y-70429998D01*
X198540000Y-69864313D01*
X199105685Y-70429998D01*
X198540000Y-70995683D01*
G37*
G04 #@! TD.AperFunction*
G04 #@! TD*
G04 #@! TA.AperFunction,SMDPad,CuDef*
G04 #@! TO.P,D2.12,1*
G04 #@! TO.N,/CB2*
G36*
X197375424Y-93475628D02*
G01*
X196809739Y-92909943D01*
X197375424Y-92344258D01*
X197941109Y-92909943D01*
X197375424Y-93475628D01*
G37*
G04 #@! TD.AperFunction*
G04 #@! TA.AperFunction,SMDPad,CuDef*
G04 #@! TO.P,D2.12,2*
G04 #@! TO.N,/CB5*
G36*
X198540000Y-92329011D02*
G01*
X197974315Y-91763326D01*
X198540000Y-91197641D01*
X199105685Y-91763326D01*
X198540000Y-92329011D01*
G37*
G04 #@! TD.AperFunction*
G04 #@! TD*
G04 #@! TA.AperFunction,SMDPad,CuDef*
G04 #@! TO.P,D2.15,1*
G04 #@! TO.N,/CB2*
G36*
X197375424Y-101475626D02*
G01*
X196809739Y-100909941D01*
X197375424Y-100344256D01*
X197941109Y-100909941D01*
X197375424Y-101475626D01*
G37*
G04 #@! TD.AperFunction*
G04 #@! TA.AperFunction,SMDPad,CuDef*
G04 #@! TO.P,D2.15,2*
G04 #@! TO.N,/CB8*
G36*
X198540000Y-100329009D02*
G01*
X197974315Y-99763324D01*
X198540000Y-99197639D01*
X199105685Y-99763324D01*
X198540000Y-100329009D01*
G37*
G04 #@! TD.AperFunction*
G04 #@! TD*
G04 #@! TA.AperFunction,SMDPad,CuDef*
G04 #@! TO.P,D2.10,1*
G04 #@! TO.N,/CB2*
G36*
X197375424Y-88142296D02*
G01*
X196809739Y-87576611D01*
X197375424Y-87010926D01*
X197941109Y-87576611D01*
X197375424Y-88142296D01*
G37*
G04 #@! TD.AperFunction*
G04 #@! TA.AperFunction,SMDPad,CuDef*
G04 #@! TO.P,D2.10,2*
G04 #@! TO.N,/CB3*
G36*
X198540000Y-86995679D02*
G01*
X197974315Y-86429994D01*
X198540000Y-85864309D01*
X199105685Y-86429994D01*
X198540000Y-86995679D01*
G37*
G04 #@! TD.AperFunction*
G04 #@! TD*
G04 #@! TA.AperFunction,SMDPad,CuDef*
G04 #@! TO.P,D2.13,1*
G04 #@! TO.N,/CB2*
G36*
X197375424Y-96142294D02*
G01*
X196809739Y-95576609D01*
X197375424Y-95010924D01*
X197941109Y-95576609D01*
X197375424Y-96142294D01*
G37*
G04 #@! TD.AperFunction*
G04 #@! TA.AperFunction,SMDPad,CuDef*
G04 #@! TO.P,D2.13,2*
G04 #@! TO.N,/CB6*
G36*
X198540000Y-94995677D02*
G01*
X197974315Y-94429992D01*
X198540000Y-93864307D01*
X199105685Y-94429992D01*
X198540000Y-94995677D01*
G37*
G04 #@! TD.AperFunction*
G04 #@! TD*
G04 #@! TA.AperFunction,SMDPad,CuDef*
G04 #@! TO.P,D2.3,1*
G04 #@! TO.N,/CA2*
G36*
X197375424Y-69475634D02*
G01*
X196809739Y-68909949D01*
X197375424Y-68344264D01*
X197941109Y-68909949D01*
X197375424Y-69475634D01*
G37*
G04 #@! TD.AperFunction*
G04 #@! TA.AperFunction,SMDPad,CuDef*
G04 #@! TO.P,D2.3,2*
G04 #@! TO.N,/CA4*
G36*
X198540000Y-68329017D02*
G01*
X197974315Y-67763332D01*
X198540000Y-67197647D01*
X199105685Y-67763332D01*
X198540000Y-68329017D01*
G37*
G04 #@! TD.AperFunction*
G04 #@! TD*
G04 #@! TA.AperFunction,SMDPad,CuDef*
G04 #@! TO.P,D2.2,1*
G04 #@! TO.N,/CA2*
G36*
X197375424Y-66808968D02*
G01*
X196809739Y-66243283D01*
X197375424Y-65677598D01*
X197941109Y-66243283D01*
X197375424Y-66808968D01*
G37*
G04 #@! TD.AperFunction*
G04 #@! TA.AperFunction,SMDPad,CuDef*
G04 #@! TO.P,D2.2,2*
G04 #@! TO.N,/CA3*
G36*
X198540000Y-65662351D02*
G01*
X197974315Y-65096666D01*
X198540000Y-64530981D01*
X199105685Y-65096666D01*
X198540000Y-65662351D01*
G37*
G04 #@! TD.AperFunction*
G04 #@! TD*
G04 #@! TA.AperFunction,SMDPad,CuDef*
G04 #@! TO.P,D2.1,1*
G04 #@! TO.N,/CA2*
G36*
X197375424Y-64142302D02*
G01*
X196809739Y-63576617D01*
X197375424Y-63010932D01*
X197941109Y-63576617D01*
X197375424Y-64142302D01*
G37*
G04 #@! TD.AperFunction*
G04 #@! TA.AperFunction,SMDPad,CuDef*
G04 #@! TO.P,D2.1,2*
G04 #@! TO.N,/CA1*
G36*
X198540000Y-62995685D02*
G01*
X197974315Y-62430000D01*
X198540000Y-61864315D01*
X199105685Y-62430000D01*
X198540000Y-62995685D01*
G37*
G04 #@! TD.AperFunction*
G04 #@! TD*
G04 #@! TA.AperFunction,SMDPad,CuDef*
G04 #@! TO.P,D2.14,1*
G04 #@! TO.N,/CB2*
G36*
X197375424Y-98808960D02*
G01*
X196809739Y-98243275D01*
X197375424Y-97677590D01*
X197941109Y-98243275D01*
X197375424Y-98808960D01*
G37*
G04 #@! TD.AperFunction*
G04 #@! TA.AperFunction,SMDPad,CuDef*
G04 #@! TO.P,D2.14,2*
G04 #@! TO.N,/CB7*
G36*
X198540000Y-97662343D02*
G01*
X197974315Y-97096658D01*
X198540000Y-96530973D01*
X199105685Y-97096658D01*
X198540000Y-97662343D01*
G37*
G04 #@! TD.AperFunction*
G04 #@! TD*
G04 #@! TA.AperFunction,SMDPad,CuDef*
G04 #@! TO.P,D2.11,1*
G04 #@! TO.N,/CB2*
G36*
X197375424Y-90808962D02*
G01*
X196809739Y-90243277D01*
X197375424Y-89677592D01*
X197941109Y-90243277D01*
X197375424Y-90808962D01*
G37*
G04 #@! TD.AperFunction*
G04 #@! TA.AperFunction,SMDPad,CuDef*
G04 #@! TO.P,D2.11,2*
G04 #@! TO.N,/CB4*
G36*
X198540000Y-89662345D02*
G01*
X197974315Y-89096660D01*
X198540000Y-88530975D01*
X199105685Y-89096660D01*
X198540000Y-89662345D01*
G37*
G04 #@! TD.AperFunction*
G04 #@! TD*
G04 #@! TA.AperFunction,SMDPad,CuDef*
G04 #@! TO.P,D1.2,1*
G04 #@! TO.N,/CA1*
G36*
X200045424Y-66808968D02*
G01*
X199479739Y-66243283D01*
X200045424Y-65677598D01*
X200611109Y-66243283D01*
X200045424Y-66808968D01*
G37*
G04 #@! TD.AperFunction*
G04 #@! TA.AperFunction,SMDPad,CuDef*
G04 #@! TO.P,D1.2,2*
G04 #@! TO.N,/CA3*
G36*
X201210000Y-65662351D02*
G01*
X200644315Y-65096666D01*
X201210000Y-64530981D01*
X201775685Y-65096666D01*
X201210000Y-65662351D01*
G37*
G04 #@! TD.AperFunction*
G04 #@! TD*
G04 #@! TA.AperFunction,SMDPad,CuDef*
G04 #@! TO.P,D1.16,1*
G04 #@! TO.N,/CB1*
G36*
X200045424Y-104142292D02*
G01*
X199479739Y-103576607D01*
X200045424Y-103010922D01*
X200611109Y-103576607D01*
X200045424Y-104142292D01*
G37*
G04 #@! TD.AperFunction*
G04 #@! TA.AperFunction,SMDPad,CuDef*
G04 #@! TO.P,D1.16,2*
G04 #@! TO.N,/CB9*
G36*
X201210000Y-102995675D02*
G01*
X200644315Y-102429990D01*
X201210000Y-101864305D01*
X201775685Y-102429990D01*
X201210000Y-102995675D01*
G37*
G04 #@! TD.AperFunction*
G04 #@! TD*
G04 #@! TA.AperFunction,SMDPad,CuDef*
G04 #@! TO.P,D1.3,1*
G04 #@! TO.N,/CA1*
G36*
X200045424Y-69475634D02*
G01*
X199479739Y-68909949D01*
X200045424Y-68344264D01*
X200611109Y-68909949D01*
X200045424Y-69475634D01*
G37*
G04 #@! TD.AperFunction*
G04 #@! TA.AperFunction,SMDPad,CuDef*
G04 #@! TO.P,D1.3,2*
G04 #@! TO.N,/CA4*
G36*
X201210000Y-68329017D02*
G01*
X200644315Y-67763332D01*
X201210000Y-67197647D01*
X201775685Y-67763332D01*
X201210000Y-68329017D01*
G37*
G04 #@! TD.AperFunction*
G04 #@! TD*
G04 #@! TA.AperFunction,SMDPad,CuDef*
G04 #@! TO.P,D1.4,1*
G04 #@! TO.N,/CA1*
G36*
X200045424Y-72142300D02*
G01*
X199479739Y-71576615D01*
X200045424Y-71010930D01*
X200611109Y-71576615D01*
X200045424Y-72142300D01*
G37*
G04 #@! TD.AperFunction*
G04 #@! TA.AperFunction,SMDPad,CuDef*
G04 #@! TO.P,D1.4,2*
G04 #@! TO.N,/CA5*
G36*
X201210000Y-70995683D02*
G01*
X200644315Y-70429998D01*
X201210000Y-69864313D01*
X201775685Y-70429998D01*
X201210000Y-70995683D01*
G37*
G04 #@! TD.AperFunction*
G04 #@! TD*
G04 #@! TA.AperFunction,SMDPad,CuDef*
G04 #@! TO.P,D1.5,1*
G04 #@! TO.N,/CA1*
G36*
X200045424Y-74808966D02*
G01*
X199479739Y-74243281D01*
X200045424Y-73677596D01*
X200611109Y-74243281D01*
X200045424Y-74808966D01*
G37*
G04 #@! TD.AperFunction*
G04 #@! TA.AperFunction,SMDPad,CuDef*
G04 #@! TO.P,D1.5,2*
G04 #@! TO.N,/CA6*
G36*
X201210000Y-73662349D02*
G01*
X200644315Y-73096664D01*
X201210000Y-72530979D01*
X201775685Y-73096664D01*
X201210000Y-73662349D01*
G37*
G04 #@! TD.AperFunction*
G04 #@! TD*
G04 #@! TA.AperFunction,SMDPad,CuDef*
G04 #@! TO.P,D1.15,1*
G04 #@! TO.N,/CB1*
G36*
X200045424Y-101475626D02*
G01*
X199479739Y-100909941D01*
X200045424Y-100344256D01*
X200611109Y-100909941D01*
X200045424Y-101475626D01*
G37*
G04 #@! TD.AperFunction*
G04 #@! TA.AperFunction,SMDPad,CuDef*
G04 #@! TO.P,D1.15,2*
G04 #@! TO.N,/CB8*
G36*
X201210000Y-100329009D02*
G01*
X200644315Y-99763324D01*
X201210000Y-99197639D01*
X201775685Y-99763324D01*
X201210000Y-100329009D01*
G37*
G04 #@! TD.AperFunction*
G04 #@! TD*
G04 #@! TA.AperFunction,SMDPad,CuDef*
G04 #@! TO.P,D1.6,1*
G04 #@! TO.N,/CA1*
G36*
X200045424Y-77475632D02*
G01*
X199479739Y-76909947D01*
X200045424Y-76344262D01*
X200611109Y-76909947D01*
X200045424Y-77475632D01*
G37*
G04 #@! TD.AperFunction*
G04 #@! TA.AperFunction,SMDPad,CuDef*
G04 #@! TO.P,D1.6,2*
G04 #@! TO.N,/CA7*
G36*
X201210000Y-76329015D02*
G01*
X200644315Y-75763330D01*
X201210000Y-75197645D01*
X201775685Y-75763330D01*
X201210000Y-76329015D01*
G37*
G04 #@! TD.AperFunction*
G04 #@! TD*
G04 #@! TA.AperFunction,SMDPad,CuDef*
G04 #@! TO.P,D1.7,1*
G04 #@! TO.N,/CA1*
G36*
X200045424Y-80142298D02*
G01*
X199479739Y-79576613D01*
X200045424Y-79010928D01*
X200611109Y-79576613D01*
X200045424Y-80142298D01*
G37*
G04 #@! TD.AperFunction*
G04 #@! TA.AperFunction,SMDPad,CuDef*
G04 #@! TO.P,D1.7,2*
G04 #@! TO.N,/CA8*
G36*
X201210000Y-78995681D02*
G01*
X200644315Y-78429996D01*
X201210000Y-77864311D01*
X201775685Y-78429996D01*
X201210000Y-78995681D01*
G37*
G04 #@! TD.AperFunction*
G04 #@! TD*
G04 #@! TA.AperFunction,SMDPad,CuDef*
G04 #@! TO.P,D1.8,1*
G04 #@! TO.N,/CA1*
G36*
X200045424Y-82808964D02*
G01*
X199479739Y-82243279D01*
X200045424Y-81677594D01*
X200611109Y-82243279D01*
X200045424Y-82808964D01*
G37*
G04 #@! TD.AperFunction*
G04 #@! TA.AperFunction,SMDPad,CuDef*
G04 #@! TO.P,D1.8,2*
G04 #@! TO.N,/CA9*
G36*
X201210000Y-81662347D02*
G01*
X200644315Y-81096662D01*
X201210000Y-80530977D01*
X201775685Y-81096662D01*
X201210000Y-81662347D01*
G37*
G04 #@! TD.AperFunction*
G04 #@! TD*
G04 #@! TA.AperFunction,SMDPad,CuDef*
G04 #@! TO.P,D1.9,1*
G04 #@! TO.N,/CB1*
G36*
X200045424Y-85475630D02*
G01*
X199479739Y-84909945D01*
X200045424Y-84344260D01*
X200611109Y-84909945D01*
X200045424Y-85475630D01*
G37*
G04 #@! TD.AperFunction*
G04 #@! TA.AperFunction,SMDPad,CuDef*
G04 #@! TO.P,D1.9,2*
G04 #@! TO.N,/CB2*
G36*
X201210000Y-84329013D02*
G01*
X200644315Y-83763328D01*
X201210000Y-83197643D01*
X201775685Y-83763328D01*
X201210000Y-84329013D01*
G37*
G04 #@! TD.AperFunction*
G04 #@! TD*
G04 #@! TA.AperFunction,SMDPad,CuDef*
G04 #@! TO.P,D1.14,1*
G04 #@! TO.N,/CB1*
G36*
X200045424Y-98808960D02*
G01*
X199479739Y-98243275D01*
X200045424Y-97677590D01*
X200611109Y-98243275D01*
X200045424Y-98808960D01*
G37*
G04 #@! TD.AperFunction*
G04 #@! TA.AperFunction,SMDPad,CuDef*
G04 #@! TO.P,D1.14,2*
G04 #@! TO.N,/CB7*
G36*
X201210000Y-97662343D02*
G01*
X200644315Y-97096658D01*
X201210000Y-96530973D01*
X201775685Y-97096658D01*
X201210000Y-97662343D01*
G37*
G04 #@! TD.AperFunction*
G04 #@! TD*
G04 #@! TA.AperFunction,SMDPad,CuDef*
G04 #@! TO.P,D1.13,1*
G04 #@! TO.N,/CB1*
G36*
X200045424Y-96142294D02*
G01*
X199479739Y-95576609D01*
X200045424Y-95010924D01*
X200611109Y-95576609D01*
X200045424Y-96142294D01*
G37*
G04 #@! TD.AperFunction*
G04 #@! TA.AperFunction,SMDPad,CuDef*
G04 #@! TO.P,D1.13,2*
G04 #@! TO.N,/CB6*
G36*
X201210000Y-94995677D02*
G01*
X200644315Y-94429992D01*
X201210000Y-93864307D01*
X201775685Y-94429992D01*
X201210000Y-94995677D01*
G37*
G04 #@! TD.AperFunction*
G04 #@! TD*
G04 #@! TA.AperFunction,SMDPad,CuDef*
G04 #@! TO.P,D1.10,1*
G04 #@! TO.N,/CB1*
G36*
X200045424Y-88142296D02*
G01*
X199479739Y-87576611D01*
X200045424Y-87010926D01*
X200611109Y-87576611D01*
X200045424Y-88142296D01*
G37*
G04 #@! TD.AperFunction*
G04 #@! TA.AperFunction,SMDPad,CuDef*
G04 #@! TO.P,D1.10,2*
G04 #@! TO.N,/CB3*
G36*
X201210000Y-86995679D02*
G01*
X200644315Y-86429994D01*
X201210000Y-85864309D01*
X201775685Y-86429994D01*
X201210000Y-86995679D01*
G37*
G04 #@! TD.AperFunction*
G04 #@! TD*
G04 #@! TA.AperFunction,SMDPad,CuDef*
G04 #@! TO.P,D1.1,1*
G04 #@! TO.N,/CA1*
G36*
X200045424Y-64142302D02*
G01*
X199479739Y-63576617D01*
X200045424Y-63010932D01*
X200611109Y-63576617D01*
X200045424Y-64142302D01*
G37*
G04 #@! TD.AperFunction*
G04 #@! TA.AperFunction,SMDPad,CuDef*
G04 #@! TO.P,D1.1,2*
G04 #@! TO.N,/CA2*
G36*
X201210000Y-62995685D02*
G01*
X200644315Y-62430000D01*
X201210000Y-61864315D01*
X201775685Y-62430000D01*
X201210000Y-62995685D01*
G37*
G04 #@! TD.AperFunction*
G04 #@! TD*
G04 #@! TA.AperFunction,SMDPad,CuDef*
G04 #@! TO.P,D1.12,1*
G04 #@! TO.N,/CB1*
G36*
X200045424Y-93475628D02*
G01*
X199479739Y-92909943D01*
X200045424Y-92344258D01*
X200611109Y-92909943D01*
X200045424Y-93475628D01*
G37*
G04 #@! TD.AperFunction*
G04 #@! TA.AperFunction,SMDPad,CuDef*
G04 #@! TO.P,D1.12,2*
G04 #@! TO.N,/CB5*
G36*
X201210000Y-92329011D02*
G01*
X200644315Y-91763326D01*
X201210000Y-91197641D01*
X201775685Y-91763326D01*
X201210000Y-92329011D01*
G37*
G04 #@! TD.AperFunction*
G04 #@! TD*
G04 #@! TA.AperFunction,SMDPad,CuDef*
G04 #@! TO.P,D1.11,1*
G04 #@! TO.N,/CB1*
G36*
X200045424Y-90808962D02*
G01*
X199479739Y-90243277D01*
X200045424Y-89677592D01*
X200611109Y-90243277D01*
X200045424Y-90808962D01*
G37*
G04 #@! TD.AperFunction*
G04 #@! TA.AperFunction,SMDPad,CuDef*
G04 #@! TO.P,D1.11,2*
G04 #@! TO.N,/CB4*
G36*
X201210000Y-89662345D02*
G01*
X200644315Y-89096660D01*
X201210000Y-88530975D01*
X201775685Y-89096660D01*
X201210000Y-89662345D01*
G37*
G04 #@! TD.AperFunction*
G04 #@! TD*
D14*
G04 #@! TO.N,/CA8*
X180510000Y-64449990D03*
X180510000Y-67119990D03*
X180510000Y-69789990D03*
X180510000Y-72459990D03*
X180510000Y-75129990D03*
X180510000Y-77799990D03*
X180510000Y-80469990D03*
X180510000Y-83139990D03*
G04 #@! TO.N,/CA7*
X183180000Y-64449990D03*
X183180000Y-67119990D03*
X183180000Y-69789990D03*
X183180000Y-72459990D03*
X183180000Y-75129990D03*
X183180000Y-77799990D03*
X183180000Y-80469990D03*
X183180000Y-83139990D03*
G04 #@! TO.N,/CA6*
X185850000Y-64449990D03*
X185850000Y-67119990D03*
X185850000Y-69789990D03*
X185850000Y-72459990D03*
X185850000Y-75129990D03*
X185850000Y-77799990D03*
X185850000Y-80469990D03*
X185850000Y-83139990D03*
G04 #@! TO.N,/CA5*
X188520000Y-64449990D03*
X188520000Y-67119990D03*
X188520000Y-69789990D03*
X188520000Y-72459990D03*
X188520000Y-75129990D03*
X188520000Y-77799990D03*
X188520000Y-80469990D03*
X188520000Y-83139990D03*
G04 #@! TO.N,/CA4*
X191190000Y-64449990D03*
X191190000Y-67119990D03*
X191190000Y-69789990D03*
X191190000Y-72459990D03*
X191190000Y-75129990D03*
X191190000Y-77799990D03*
X191190000Y-80469990D03*
X191190000Y-83139990D03*
G04 #@! TO.N,/CA3*
X193860000Y-64449990D03*
X193860000Y-67119990D03*
X193860000Y-69789990D03*
X193860000Y-72459990D03*
X193860000Y-75129990D03*
X193860000Y-77799990D03*
X193860000Y-80469990D03*
X193860000Y-83139990D03*
G04 #@! TO.N,/CA2*
X196530000Y-64449990D03*
X196530000Y-67119990D03*
X196530000Y-69789990D03*
X196530000Y-72459990D03*
X196530000Y-75129990D03*
X196530000Y-77799990D03*
X196530000Y-80469990D03*
X196530000Y-83139990D03*
G04 #@! TO.N,/CA1*
X199200000Y-64449990D03*
X199200000Y-67119990D03*
X199200000Y-69789990D03*
X199200000Y-72459990D03*
X199200000Y-75129990D03*
X199200000Y-77799990D03*
X199200000Y-80469990D03*
X199200000Y-83139990D03*
G04 #@! TO.N,/CB8*
X180510000Y-85809990D03*
X180510000Y-88479990D03*
X180510000Y-91149990D03*
X180510000Y-93819990D03*
X180510000Y-96489990D03*
X180510000Y-99159990D03*
X180510000Y-101829990D03*
G04 #@! TO.N,/CB7*
X183180000Y-85809990D03*
X183180000Y-88479990D03*
X183180000Y-91149990D03*
X183180000Y-93819990D03*
X183180000Y-96489990D03*
X183180000Y-99159990D03*
X183180000Y-101829990D03*
G04 #@! TO.N,/CB6*
X185850000Y-85809990D03*
X185850000Y-88479990D03*
X185850000Y-91149990D03*
X185850000Y-93819990D03*
X185850000Y-96489990D03*
X185850000Y-99159990D03*
X185850000Y-101829990D03*
G04 #@! TO.N,/CB5*
X188520000Y-85809990D03*
X188520000Y-88479990D03*
X188520000Y-91149990D03*
X188520000Y-93819990D03*
X188520000Y-96489990D03*
X188520000Y-99159990D03*
X188520000Y-101829990D03*
G04 #@! TO.N,/CB4*
X191190000Y-85809990D03*
X191190000Y-88479990D03*
X191190000Y-91149990D03*
X191190000Y-93819990D03*
X191190000Y-96489990D03*
X191190000Y-99159990D03*
X191190000Y-101829990D03*
G04 #@! TO.N,/CB3*
X193860000Y-85809990D03*
X193860000Y-88479990D03*
X193860000Y-91149990D03*
X193860000Y-93819990D03*
X193860000Y-96489990D03*
X193860000Y-99159990D03*
X193860000Y-101829990D03*
G04 #@! TO.N,/CB2*
X196530000Y-85809990D03*
X196530000Y-88479990D03*
X196530000Y-91149990D03*
X196530000Y-93819990D03*
X196530000Y-96489990D03*
X196530000Y-99159990D03*
X196530000Y-101829990D03*
G04 #@! TO.N,/CB1*
X197865000Y-83139990D03*
X199200000Y-85809990D03*
X199200000Y-88479990D03*
X199200000Y-91149990D03*
X199200000Y-93819990D03*
X199200000Y-96489990D03*
X199200000Y-99159990D03*
X199200000Y-101829990D03*
G04 #@! TD*
D15*
G04 #@! TO.N,/CA8*
X185210000Y-78429996D02*
X201210000Y-78429996D01*
X181375424Y-63584566D02*
X180510000Y-64449990D01*
X181375424Y-63576617D02*
X181375424Y-63584566D01*
X181375424Y-66254566D02*
X180510000Y-67119990D01*
X181375424Y-66243283D02*
X181375424Y-66254566D01*
X181375424Y-68924566D02*
X180510000Y-69789990D01*
X181375424Y-68909949D02*
X181375424Y-68924566D01*
X181375424Y-71594566D02*
X180510000Y-72459990D01*
X181375424Y-71576615D02*
X181375424Y-71594566D01*
X181375424Y-74264566D02*
X180510000Y-75129990D01*
X181375424Y-74243281D02*
X181375424Y-74264566D01*
X181375424Y-76934566D02*
X180510000Y-77799990D01*
X181375424Y-76909947D02*
X181375424Y-76934566D01*
X181375424Y-79604566D02*
X180510000Y-80469990D01*
X181375424Y-79576613D02*
X181375424Y-79604566D01*
X180510000Y-83108703D02*
X181375424Y-82243279D01*
X180510000Y-83139990D02*
X180510000Y-83108703D01*
X184202075Y-78429996D02*
X185210000Y-78429996D01*
X183055458Y-79576613D02*
X184202075Y-78429996D01*
X181375424Y-79576613D02*
X183055458Y-79576613D01*
X179883328Y-81096662D02*
X180510000Y-80469990D01*
X179870000Y-81096662D02*
X179883328Y-81096662D01*
G04 #@! TO.N,/CA7*
X179870000Y-78429996D02*
X182540000Y-78429996D01*
X187870000Y-75763330D02*
X201210000Y-75763330D01*
X184045424Y-63584566D02*
X183180000Y-64449990D01*
X184045424Y-63576617D02*
X184045424Y-63584566D01*
X184045424Y-66254566D02*
X183180000Y-67119990D01*
X184045424Y-66243283D02*
X184045424Y-66254566D01*
X184045424Y-68924566D02*
X183180000Y-69789990D01*
X184045424Y-68909949D02*
X184045424Y-68924566D01*
X184045424Y-71594566D02*
X183180000Y-72459990D01*
X184045424Y-71576615D02*
X184045424Y-71594566D01*
X184045424Y-74264566D02*
X183180000Y-75129990D01*
X184045424Y-74243281D02*
X184045424Y-74264566D01*
X184045424Y-76934566D02*
X183180000Y-77799990D01*
X184045424Y-76909947D02*
X184045424Y-76934566D01*
X183180000Y-80442037D02*
X184045424Y-79576613D01*
X183180000Y-80469990D02*
X183180000Y-80442037D01*
X183180000Y-83108703D02*
X184045424Y-82243279D01*
X183180000Y-83139990D02*
X183180000Y-83108703D01*
X185715458Y-76909947D02*
X186862075Y-75763330D01*
X186862075Y-75763330D02*
X187870000Y-75763330D01*
X184045424Y-76909947D02*
X185715458Y-76909947D01*
X182549994Y-78429996D02*
X183180000Y-77799990D01*
X182540000Y-78429996D02*
X182549994Y-78429996D01*
G04 #@! TO.N,/CA6*
X179870000Y-75763330D02*
X185210000Y-75763330D01*
X190540000Y-73096664D02*
X201210000Y-73096664D01*
X185850000Y-64432041D02*
X186705424Y-63576617D01*
X185850000Y-64449990D02*
X185850000Y-64432041D01*
X186705424Y-66264566D02*
X185850000Y-67119990D01*
X186705424Y-66243283D02*
X186705424Y-66264566D01*
X186705424Y-68934566D02*
X185850000Y-69789990D01*
X186705424Y-68909949D02*
X186705424Y-68934566D01*
X186705424Y-71604566D02*
X185850000Y-72459990D01*
X186705424Y-71576615D02*
X186705424Y-71604566D01*
X186705424Y-74274566D02*
X185850000Y-75129990D01*
X186705424Y-74243281D02*
X186705424Y-74274566D01*
X186705424Y-76944566D02*
X185850000Y-77799990D01*
X186705424Y-76909947D02*
X186705424Y-76944566D01*
X186705424Y-79614566D02*
X185850000Y-80469990D01*
X186705424Y-79576613D02*
X186705424Y-79614566D01*
X186705424Y-82284566D02*
X185850000Y-83139990D01*
X186705424Y-82243279D02*
X186705424Y-82284566D01*
X185216660Y-75763330D02*
X185850000Y-75129990D01*
X185210000Y-75763330D02*
X185216660Y-75763330D01*
X189532075Y-73096664D02*
X190540000Y-73096664D01*
X188385458Y-74243281D02*
X189532075Y-73096664D01*
X186705424Y-74243281D02*
X188385458Y-74243281D01*
G04 #@! TO.N,/CA5*
X179870000Y-73096664D02*
X187870000Y-73096664D01*
X193210000Y-70429998D02*
X201210000Y-70429998D01*
X189375424Y-71604566D02*
X188520000Y-72459990D01*
X189375424Y-71576615D02*
X189375424Y-71604566D01*
X189375424Y-68934566D02*
X188520000Y-69789990D01*
X189375424Y-68909949D02*
X189375424Y-68934566D01*
X189375424Y-66264566D02*
X188520000Y-67119990D01*
X189375424Y-66243283D02*
X189375424Y-66264566D01*
X189375424Y-63594566D02*
X188520000Y-64449990D01*
X189375424Y-63576617D02*
X189375424Y-63594566D01*
X188520000Y-83098703D02*
X189375424Y-82243279D01*
X188520000Y-83139990D02*
X188520000Y-83098703D01*
X188520000Y-80432037D02*
X189375424Y-79576613D01*
X188520000Y-80469990D02*
X188520000Y-80432037D01*
X188520000Y-77765371D02*
X189375424Y-76909947D01*
X188520000Y-77799990D02*
X188520000Y-77765371D01*
X188520000Y-75098705D02*
X189375424Y-74243281D01*
X188520000Y-75129990D02*
X188520000Y-75098705D01*
X187883326Y-73096664D02*
X188520000Y-72459990D01*
X187870000Y-73096664D02*
X187883326Y-73096664D01*
X191055458Y-71576615D02*
X192192083Y-70439990D01*
X189375424Y-71576615D02*
X191055458Y-71576615D01*
X193200008Y-70439990D02*
X193210000Y-70429998D01*
X192192083Y-70439990D02*
X193200008Y-70439990D01*
G04 #@! TO.N,/CA4*
X179870000Y-70429998D02*
X190540008Y-70429998D01*
X195870000Y-67763332D02*
X201210000Y-67763332D01*
X192045424Y-63594566D02*
X191190000Y-64449990D01*
X192045424Y-63576617D02*
X192045424Y-63594566D01*
X192045424Y-66264566D02*
X191190000Y-67119990D01*
X192045424Y-66243283D02*
X192045424Y-66264566D01*
X192045424Y-68934566D02*
X191190000Y-69789990D01*
X192045424Y-68909949D02*
X192045424Y-68934566D01*
X191190000Y-83098703D02*
X192045424Y-82243279D01*
X191190000Y-83139990D02*
X191190000Y-83098703D01*
X191190000Y-80432037D02*
X192045424Y-79576613D01*
X191190000Y-80469990D02*
X191190000Y-80432037D01*
X191190000Y-77765371D02*
X192045424Y-76909947D01*
X191190000Y-77799990D02*
X191190000Y-77765371D01*
X191190000Y-75098705D02*
X192045424Y-74243281D01*
X191190000Y-75129990D02*
X191190000Y-75098705D01*
X191190000Y-72432039D02*
X192045424Y-71576615D01*
X191190000Y-72459990D02*
X191190000Y-72432039D01*
X190549992Y-70429998D02*
X191190000Y-69789990D01*
X190540000Y-70429998D02*
X190549992Y-70429998D01*
X194862075Y-67763332D02*
X195870000Y-67763332D01*
X193715458Y-68909949D02*
X194862075Y-67763332D01*
X192045424Y-68909949D02*
X193715458Y-68909949D01*
G04 #@! TO.N,/CA3*
X179870000Y-67763332D02*
X193210000Y-67763332D01*
X198540000Y-65096666D02*
X201226676Y-65096666D01*
X193860000Y-67088707D02*
X194705424Y-66243283D01*
X193860000Y-67119990D02*
X193860000Y-67088707D01*
X193860000Y-64422041D02*
X194705424Y-63576617D01*
X193860000Y-64449990D02*
X193860000Y-64422041D01*
X193860000Y-83088703D02*
X194705424Y-82243279D01*
X193860000Y-83139990D02*
X193860000Y-83088703D01*
X193860000Y-80422037D02*
X194705424Y-79576613D01*
X193860000Y-80469990D02*
X193860000Y-80422037D01*
X193860000Y-77755371D02*
X194705424Y-76909947D01*
X193860000Y-77799990D02*
X193860000Y-77755371D01*
X193860000Y-75088705D02*
X194705424Y-74243281D01*
X193860000Y-75129990D02*
X193860000Y-75088705D01*
X193860000Y-72422039D02*
X194705424Y-71576615D01*
X193860000Y-72459990D02*
X193860000Y-72422039D01*
X193860000Y-69755373D02*
X194705424Y-68909949D01*
X193860000Y-69789990D02*
X193860000Y-69755373D01*
X193216658Y-67763332D02*
X193860000Y-67119990D01*
X193210000Y-67763332D02*
X193216658Y-67763332D01*
X196385458Y-66243283D02*
X197532075Y-65096666D01*
X197532075Y-65096666D02*
X198540000Y-65096666D01*
X194705424Y-66243283D02*
X196385458Y-66243283D01*
G04 #@! TO.N,/CA2*
X179870000Y-65096666D02*
X195870000Y-65096666D01*
X197375424Y-63604566D02*
X196530000Y-64449990D01*
X197375424Y-63576617D02*
X197375424Y-63604566D01*
X197375424Y-66274566D02*
X196530000Y-67119990D01*
X197375424Y-66243283D02*
X197375424Y-66274566D01*
X197375424Y-68944566D02*
X196530000Y-69789990D01*
X197375424Y-68909949D02*
X197375424Y-68944566D01*
X196530000Y-72422039D02*
X197375424Y-71576615D01*
X196530000Y-72459990D02*
X196530000Y-72422039D01*
X196530000Y-75088705D02*
X197375424Y-74243281D01*
X196530000Y-75129990D02*
X196530000Y-75088705D01*
X196530000Y-77755371D02*
X197375424Y-76909947D01*
X196530000Y-77799990D02*
X196530000Y-77755371D01*
X197375424Y-79624566D02*
X196530000Y-80469990D01*
X197375424Y-79576613D02*
X197375424Y-79624566D01*
X196530000Y-83088703D02*
X197375424Y-82243279D01*
X196530000Y-83139990D02*
X196530000Y-83088703D01*
X195883324Y-65096666D02*
X196530000Y-64449990D01*
X195870000Y-65096666D02*
X195883324Y-65096666D01*
X199529966Y-62430000D02*
X201210000Y-62430000D01*
X198383349Y-63576617D02*
X199529966Y-62430000D01*
X197375424Y-63576617D02*
X198383349Y-63576617D01*
G04 #@! TO.N,/CA1*
X179870000Y-62430000D02*
X198540000Y-62430000D01*
X200045424Y-63604566D02*
X199200000Y-64449990D01*
X200045424Y-63576617D02*
X200045424Y-63604566D01*
X200045424Y-66274566D02*
X199200000Y-67119990D01*
X200045424Y-66243283D02*
X200045424Y-66274566D01*
X200045424Y-68944566D02*
X199200000Y-69789990D01*
X200045424Y-68909949D02*
X200045424Y-68944566D01*
X200045424Y-71614566D02*
X199200000Y-72459990D01*
X200045424Y-71576615D02*
X200045424Y-71614566D01*
X199200000Y-75088705D02*
X200045424Y-74243281D01*
X199200000Y-75129990D02*
X199200000Y-75088705D01*
X199200000Y-77755371D02*
X200045424Y-76909947D01*
X199200000Y-77799990D02*
X199200000Y-77755371D01*
X199200000Y-80422037D02*
X200045424Y-79576613D01*
X199200000Y-80469990D02*
X199200000Y-80422037D01*
X200045424Y-82294566D02*
X199200000Y-83139990D01*
X200045424Y-82243279D02*
X200045424Y-82294566D01*
X198540000Y-62430000D02*
X198549990Y-62430000D01*
X198540000Y-59779990D02*
X199895000Y-58424990D01*
X198540000Y-62430000D02*
X198540000Y-59779990D01*
G04 #@! TO.N,/CB9*
X182540000Y-102429990D02*
X201210000Y-102429990D01*
X181532075Y-102429990D02*
X182540000Y-102429990D01*
X180385458Y-103576607D02*
X181532075Y-102429990D01*
X178705424Y-103576607D02*
X180385458Y-103576607D01*
X178705424Y-84909945D02*
X178705424Y-103576607D01*
X179575000Y-104446183D02*
X178705424Y-103576607D01*
X179575000Y-109154990D02*
X179575000Y-104446183D01*
G04 #@! TO.N,/CB8*
X185210000Y-99763324D02*
X201210000Y-99763324D01*
X181375424Y-84944566D02*
X180510000Y-85809990D01*
X181375424Y-84909945D02*
X181375424Y-84944566D01*
X181375424Y-87614566D02*
X180510000Y-88479990D01*
X181375424Y-87576611D02*
X181375424Y-87614566D01*
X181375424Y-90284566D02*
X180510000Y-91149990D01*
X181375424Y-90243277D02*
X181375424Y-90284566D01*
X181375424Y-92954566D02*
X180510000Y-93819990D01*
X181375424Y-92909943D02*
X181375424Y-92954566D01*
X181375424Y-95624566D02*
X180510000Y-96489990D01*
X181375424Y-95576609D02*
X181375424Y-95624566D01*
X181375424Y-98294566D02*
X180510000Y-99159990D01*
X181375424Y-98243275D02*
X181375424Y-98294566D01*
X181375424Y-100964566D02*
X180510000Y-101829990D01*
X181375424Y-100909941D02*
X181375424Y-100964566D01*
X179910000Y-102429990D02*
X180510000Y-101829990D01*
X179870000Y-102429990D02*
X179910000Y-102429990D01*
X184202075Y-99763324D02*
X185210000Y-99763324D01*
X183055458Y-100909941D02*
X184202075Y-99763324D01*
X181375424Y-100909941D02*
X183055458Y-100909941D01*
X181375424Y-108415414D02*
X182115000Y-109154990D01*
X181375424Y-103576607D02*
X181375424Y-108415414D01*
G04 #@! TO.N,/CB7*
X190540000Y-97096658D02*
X201210000Y-97096658D01*
X179870000Y-99763324D02*
X182493334Y-99763324D01*
X187870000Y-97096658D02*
X190540000Y-97096658D01*
X184045424Y-100964566D02*
X183180000Y-101829990D01*
X184045424Y-100909941D02*
X184045424Y-100964566D01*
X184045424Y-98294566D02*
X183180000Y-99159990D01*
X184045424Y-98243275D02*
X184045424Y-98294566D01*
X184045424Y-95624566D02*
X183180000Y-96489990D01*
X184045424Y-95576609D02*
X184045424Y-95624566D01*
X184045424Y-92954566D02*
X183180000Y-93819990D01*
X184045424Y-92909943D02*
X184045424Y-92954566D01*
X184045424Y-90284566D02*
X183180000Y-91149990D01*
X184045424Y-90243277D02*
X184045424Y-90284566D01*
X184045424Y-87614566D02*
X183180000Y-88479990D01*
X184045424Y-87576611D02*
X184045424Y-87614566D01*
X184045424Y-84944566D02*
X183180000Y-85809990D01*
X184045424Y-84909945D02*
X184045424Y-84944566D01*
X183143334Y-99159990D02*
X182540000Y-99763324D01*
X183180000Y-99159990D02*
X183143334Y-99159990D01*
X185715458Y-98243275D02*
X186818743Y-97139990D01*
X184045424Y-98243275D02*
X185715458Y-98243275D01*
X187826668Y-97139990D02*
X187870000Y-97096658D01*
X186818743Y-97139990D02*
X187826668Y-97139990D01*
X184045424Y-108545414D02*
X184655000Y-109154990D01*
X184045424Y-103576607D02*
X184045424Y-108545414D01*
G04 #@! TO.N,/CB6*
X190540000Y-94429992D02*
X201190002Y-94429992D01*
X179870000Y-97096658D02*
X185166668Y-97096658D01*
X186705424Y-84954566D02*
X185850000Y-85809990D01*
X186705424Y-84909945D02*
X186705424Y-84954566D01*
X186705424Y-87624566D02*
X185850000Y-88479990D01*
X186705424Y-87576611D02*
X186705424Y-87624566D01*
X186705424Y-90294566D02*
X185850000Y-91149990D01*
X186705424Y-90243277D02*
X186705424Y-90294566D01*
X186705424Y-92964566D02*
X185850000Y-93819990D01*
X186705424Y-92909943D02*
X186705424Y-92964566D01*
X186705424Y-95576609D02*
X185210000Y-97072033D01*
X185210000Y-97072033D02*
X185210000Y-97096658D01*
X186705424Y-98304566D02*
X185850000Y-99159990D01*
X186705424Y-98243275D02*
X186705424Y-98304566D01*
X186705424Y-100974566D02*
X185850000Y-101829990D01*
X186705424Y-100909941D02*
X186705424Y-100974566D01*
X188385458Y-95576609D02*
X189532075Y-94429992D01*
X189532075Y-94429992D02*
X190540000Y-94429992D01*
X186705424Y-95576609D02*
X188385458Y-95576609D01*
X186705424Y-108665414D02*
X187195000Y-109154990D01*
X186705424Y-103576607D02*
X186705424Y-108665414D01*
G04 #@! TO.N,/CB5*
X193210000Y-91763326D02*
X201193336Y-91763326D01*
X179870000Y-94429992D02*
X187870000Y-94429992D01*
X189375424Y-100974566D02*
X188520000Y-101829990D01*
X189375424Y-100909941D02*
X189375424Y-100974566D01*
X188520000Y-99098699D02*
X189375424Y-98243275D01*
X188520000Y-99159990D02*
X188520000Y-99098699D01*
X188520000Y-96432033D02*
X189375424Y-95576609D01*
X188520000Y-96489990D02*
X188520000Y-96432033D01*
X188520000Y-93765367D02*
X189375424Y-92909943D01*
X188520000Y-93819990D02*
X188520000Y-93765367D01*
X188520000Y-91098701D02*
X189375424Y-90243277D01*
X188520000Y-91149990D02*
X188520000Y-91098701D01*
X189375424Y-87624566D02*
X188520000Y-88479990D01*
X189375424Y-87576611D02*
X189375424Y-87624566D01*
X188520000Y-85765369D02*
X189375424Y-84909945D01*
X188520000Y-85809990D02*
X188520000Y-85765369D01*
X187909998Y-94429992D02*
X188520000Y-93819990D01*
X187870000Y-94429992D02*
X187909998Y-94429992D01*
X191055458Y-92909943D02*
X192202075Y-91763326D01*
X192202075Y-91763326D02*
X193210000Y-91763326D01*
X189375424Y-92909943D02*
X191055458Y-92909943D01*
X189375424Y-108795414D02*
X189735000Y-109154990D01*
X189375424Y-103576607D02*
X189375424Y-108795414D01*
G04 #@! TO.N,/CB4*
X195870000Y-89096660D02*
X201196670Y-89096660D01*
X201196670Y-89096660D02*
X201210000Y-89096660D01*
X179870000Y-91763326D02*
X190540000Y-91763326D01*
X191190000Y-85765369D02*
X192045424Y-84909945D01*
X191190000Y-85809990D02*
X191190000Y-85765369D01*
X192045424Y-87624566D02*
X191190000Y-88479990D01*
X192045424Y-87576611D02*
X192045424Y-87624566D01*
X192045424Y-90294566D02*
X191190000Y-91149990D01*
X192045424Y-90243277D02*
X192045424Y-90294566D01*
X192045424Y-92964566D02*
X191190000Y-93819990D01*
X192045424Y-92909943D02*
X192045424Y-92964566D01*
X192045424Y-95634566D02*
X191190000Y-96489990D01*
X192045424Y-95576609D02*
X192045424Y-95634566D01*
X192045424Y-98304566D02*
X191190000Y-99159990D01*
X192045424Y-98243275D02*
X192045424Y-98304566D01*
X192045424Y-100974566D02*
X191190000Y-101829990D01*
X192045424Y-100909941D02*
X192045424Y-100974566D01*
X190576664Y-91763326D02*
X191190000Y-91149990D01*
X190540000Y-91763326D02*
X190576664Y-91763326D01*
X193715458Y-90243277D02*
X194828745Y-89129990D01*
X192045424Y-90243277D02*
X193715458Y-90243277D01*
X195836670Y-89129990D02*
X195870000Y-89096660D01*
X194828745Y-89129990D02*
X195836670Y-89129990D01*
X192045424Y-108925414D02*
X192275000Y-109154990D01*
X192045424Y-103576607D02*
X192045424Y-108925414D01*
G04 #@! TO.N,/CB3*
X198540000Y-86429994D02*
X201210000Y-86429994D01*
X179870000Y-89096660D02*
X193210000Y-89096660D01*
X194705424Y-100984566D02*
X193860000Y-101829990D01*
X194705424Y-100909941D02*
X194705424Y-100984566D01*
X193860000Y-99088699D02*
X194705424Y-98243275D01*
X193860000Y-99159990D02*
X193860000Y-99088699D01*
X193860000Y-96422033D02*
X194705424Y-95576609D01*
X193860000Y-96489990D02*
X193860000Y-96422033D01*
X193860000Y-93755367D02*
X194705424Y-92909943D01*
X193860000Y-93819990D02*
X193860000Y-93755367D01*
X193860000Y-91088701D02*
X194705424Y-90243277D01*
X193860000Y-91149990D02*
X193860000Y-91088701D01*
X193210000Y-89072035D02*
X194705424Y-87576611D01*
X193210000Y-89096660D02*
X193210000Y-89072035D01*
X194705424Y-84964566D02*
X193860000Y-85809990D01*
X194705424Y-84909945D02*
X194705424Y-84964566D01*
X196385458Y-87576611D02*
X197502079Y-86459990D01*
X194705424Y-87576611D02*
X196385458Y-87576611D01*
X197502079Y-86459990D02*
X198560000Y-86459990D01*
X194705424Y-109045414D02*
X194815000Y-109154990D01*
X194705424Y-103576607D02*
X194705424Y-109045414D01*
G04 #@! TO.N,/CB2*
X179870000Y-86429994D02*
X195870000Y-86429994D01*
X195870000Y-86415369D02*
X197375424Y-84909945D01*
X195870000Y-86429994D02*
X195870000Y-86415369D01*
X197375424Y-87634566D02*
X196530000Y-88479990D01*
X197375424Y-87576611D02*
X197375424Y-87634566D01*
X197375424Y-90304566D02*
X196530000Y-91149990D01*
X197375424Y-90243277D02*
X197375424Y-90304566D01*
X197375424Y-92974566D02*
X196530000Y-93819990D01*
X197375424Y-92909943D02*
X197375424Y-92974566D01*
X197375424Y-95644566D02*
X196530000Y-96489990D01*
X197375424Y-95576609D02*
X197375424Y-95644566D01*
X197375424Y-98314566D02*
X196530000Y-99159990D01*
X197375424Y-98243275D02*
X197375424Y-98314566D01*
X197375424Y-100984566D02*
X196530000Y-101829990D01*
X197375424Y-100909941D02*
X197375424Y-100984566D01*
X200202075Y-83763328D02*
X201210000Y-83763328D01*
X199055458Y-84909945D02*
X200202075Y-83763328D01*
X197375424Y-84909945D02*
X199055458Y-84909945D01*
X197375424Y-109134566D02*
X197355000Y-109154990D01*
X197375424Y-103576607D02*
X197375424Y-109134566D01*
G04 #@! TO.N,/CB1*
X179870000Y-83763328D02*
X198533338Y-83763328D01*
X200045424Y-84964566D02*
X199200000Y-85809990D01*
X200045424Y-84909945D02*
X200045424Y-84964566D01*
X200045424Y-87634566D02*
X199200000Y-88479990D01*
X200045424Y-87576611D02*
X200045424Y-87634566D01*
X200045424Y-90304566D02*
X199200000Y-91149990D01*
X200045424Y-90243277D02*
X200045424Y-90304566D01*
X200045424Y-92974566D02*
X199200000Y-93819990D01*
X200045424Y-92909943D02*
X200045424Y-92974566D01*
X200045424Y-95644566D02*
X199200000Y-96489990D01*
X200045424Y-95576609D02*
X200045424Y-95644566D01*
X200045424Y-98314566D02*
X199200000Y-99159990D01*
X200045424Y-98243275D02*
X200045424Y-98314566D01*
X200045424Y-100984566D02*
X199200000Y-101829990D01*
X200045424Y-100909941D02*
X200045424Y-100984566D01*
X197916662Y-83139990D02*
X198540000Y-83763328D01*
X197865000Y-83139990D02*
X197916662Y-83139990D01*
X200045424Y-109004566D02*
X199895000Y-109154990D01*
X200045424Y-103576607D02*
X200045424Y-109004566D01*
G04 #@! TO.N,/CA9*
X182540000Y-81096662D02*
X201210000Y-81096662D01*
X180385458Y-82243279D02*
X181532075Y-81096662D01*
X181532075Y-81096662D02*
X182540000Y-81096662D01*
X178705424Y-82243279D02*
X180385458Y-82243279D01*
X178705424Y-63576617D02*
X178705424Y-82243279D01*
X178705424Y-59294566D02*
X179575000Y-58424990D01*
X178705424Y-63576617D02*
X178705424Y-59294566D01*
G04 #@! TD*
M02*
