G04 #@! TF.GenerationSoftware,KiCad,Pcbnew,(5.1.12-1-10_14)*
G04 #@! TF.CreationDate,2021-12-27T13:20:27-05:00*
G04 #@! TF.ProjectId,ledtrix,6c656474-7269-4782-9e6b-696361645f70,rev?*
G04 #@! TF.SameCoordinates,Original*
G04 #@! TF.FileFunction,Legend,Top*
G04 #@! TF.FilePolarity,Positive*
%FSLAX46Y46*%
G04 Gerber Fmt 4.6, Leading zero omitted, Abs format (unit mm)*
G04 Created by KiCad (PCBNEW (5.1.12-1-10_14)) date 2021-12-27 13:20:27*
%MOMM*%
%LPD*%
G01*
G04 APERTURE LIST*
%ADD10C,0.120000*%
%ADD11C,0.140000*%
%ADD12C,0.200000*%
G04 APERTURE END LIST*
D10*
G04 #@! TO.C,J2*
X178245000Y-107824990D02*
X178245000Y-110484990D01*
X198625000Y-107824990D02*
X178245000Y-107824990D01*
X198625000Y-110484990D02*
X178245000Y-110484990D01*
X198625000Y-107824990D02*
X198625000Y-110484990D01*
X199895000Y-107824990D02*
X201225000Y-107824990D01*
X201225000Y-107824990D02*
X201225000Y-109154990D01*
G04 #@! TO.C,J1*
X178245000Y-57094990D02*
X178245000Y-59754990D01*
X198625000Y-57094990D02*
X178245000Y-57094990D01*
X198625000Y-59754990D02*
X178245000Y-59754990D01*
X198625000Y-57094990D02*
X198625000Y-59754990D01*
X199895000Y-57094990D02*
X201225000Y-57094990D01*
X201225000Y-57094990D02*
X201225000Y-58424990D01*
G04 #@! TO.C,D9.1*
X179210000Y-63050000D02*
X179510000Y-63050000D01*
X179360000Y-63050000D02*
X179210000Y-63050000D01*
X179210000Y-62900000D02*
X179360000Y-63050000D01*
X177860000Y-63400000D02*
X178860000Y-64400000D01*
D11*
X177810000Y-63500000D02*
X178810000Y-64500000D01*
D12*
X179120849Y-63161192D02*
X179120849Y-62595506D01*
X179686534Y-63161192D02*
X179120849Y-63161192D01*
X179120849Y-62595506D02*
X179686534Y-63161192D01*
D10*
X179308232Y-61934361D02*
X177692493Y-63550100D01*
X177692493Y-63550100D02*
X178731940Y-64589547D01*
X178731940Y-64589547D02*
X180347679Y-62973808D01*
G04 #@! TO.C,D3.3*
X195210000Y-68383332D02*
X195510000Y-68383332D01*
X195360000Y-68383332D02*
X195210000Y-68383332D01*
X195210000Y-68233332D02*
X195360000Y-68383332D01*
X193860000Y-68733332D02*
X194860000Y-69733332D01*
D11*
X193810000Y-68833332D02*
X194810000Y-69833332D01*
D12*
X195120849Y-68494524D02*
X195120849Y-67928838D01*
X195686534Y-68494524D02*
X195120849Y-68494524D01*
X195120849Y-67928838D02*
X195686534Y-68494524D01*
D10*
X195308232Y-67267693D02*
X193692493Y-68883432D01*
X193692493Y-68883432D02*
X194731940Y-69922879D01*
X194731940Y-69922879D02*
X196347679Y-68307140D01*
G04 #@! TO.C,D9.14*
X179210000Y-97716658D02*
X179510000Y-97716658D01*
X179360000Y-97716658D02*
X179210000Y-97716658D01*
X179210000Y-97566658D02*
X179360000Y-97716658D01*
X177860000Y-98066658D02*
X178860000Y-99066658D01*
D11*
X177810000Y-98166658D02*
X178810000Y-99166658D01*
D12*
X179120849Y-97827850D02*
X179120849Y-97262164D01*
X179686534Y-97827850D02*
X179120849Y-97827850D01*
X179120849Y-97262164D02*
X179686534Y-97827850D01*
D10*
X179308232Y-96601019D02*
X177692493Y-98216758D01*
X177692493Y-98216758D02*
X178731940Y-99256205D01*
X178731940Y-99256205D02*
X180347679Y-97640466D01*
G04 #@! TO.C,D9.13*
X179210000Y-95049992D02*
X179510000Y-95049992D01*
X179360000Y-95049992D02*
X179210000Y-95049992D01*
X179210000Y-94899992D02*
X179360000Y-95049992D01*
X177860000Y-95399992D02*
X178860000Y-96399992D01*
D11*
X177810000Y-95499992D02*
X178810000Y-96499992D01*
D12*
X179120849Y-95161184D02*
X179120849Y-94595498D01*
X179686534Y-95161184D02*
X179120849Y-95161184D01*
X179120849Y-94595498D02*
X179686534Y-95161184D01*
D10*
X179308232Y-93934353D02*
X177692493Y-95550092D01*
X177692493Y-95550092D02*
X178731940Y-96589539D01*
X178731940Y-96589539D02*
X180347679Y-94973800D01*
G04 #@! TO.C,D9.12*
X179210000Y-92383326D02*
X179510000Y-92383326D01*
X179360000Y-92383326D02*
X179210000Y-92383326D01*
X179210000Y-92233326D02*
X179360000Y-92383326D01*
X177860000Y-92733326D02*
X178860000Y-93733326D01*
D11*
X177810000Y-92833326D02*
X178810000Y-93833326D01*
D12*
X179120849Y-92494518D02*
X179120849Y-91928832D01*
X179686534Y-92494518D02*
X179120849Y-92494518D01*
X179120849Y-91928832D02*
X179686534Y-92494518D01*
D10*
X179308232Y-91267687D02*
X177692493Y-92883426D01*
X177692493Y-92883426D02*
X178731940Y-93922873D01*
X178731940Y-93922873D02*
X180347679Y-92307134D01*
G04 #@! TO.C,D9.2*
X179210000Y-65716666D02*
X179510000Y-65716666D01*
X179360000Y-65716666D02*
X179210000Y-65716666D01*
X179210000Y-65566666D02*
X179360000Y-65716666D01*
X177860000Y-66066666D02*
X178860000Y-67066666D01*
D11*
X177810000Y-66166666D02*
X178810000Y-67166666D01*
D12*
X179120849Y-65827858D02*
X179120849Y-65262172D01*
X179686534Y-65827858D02*
X179120849Y-65827858D01*
X179120849Y-65262172D02*
X179686534Y-65827858D01*
D10*
X179308232Y-64601027D02*
X177692493Y-66216766D01*
X177692493Y-66216766D02*
X178731940Y-67256213D01*
X178731940Y-67256213D02*
X180347679Y-65640474D01*
G04 #@! TO.C,D9.3*
X179210000Y-68383332D02*
X179510000Y-68383332D01*
X179360000Y-68383332D02*
X179210000Y-68383332D01*
X179210000Y-68233332D02*
X179360000Y-68383332D01*
X177860000Y-68733332D02*
X178860000Y-69733332D01*
D11*
X177810000Y-68833332D02*
X178810000Y-69833332D01*
D12*
X179120849Y-68494524D02*
X179120849Y-67928838D01*
X179686534Y-68494524D02*
X179120849Y-68494524D01*
X179120849Y-67928838D02*
X179686534Y-68494524D01*
D10*
X179308232Y-67267693D02*
X177692493Y-68883432D01*
X177692493Y-68883432D02*
X178731940Y-69922879D01*
X178731940Y-69922879D02*
X180347679Y-68307140D01*
G04 #@! TO.C,D9.4*
X179210000Y-71049998D02*
X179510000Y-71049998D01*
X179360000Y-71049998D02*
X179210000Y-71049998D01*
X179210000Y-70899998D02*
X179360000Y-71049998D01*
X177860000Y-71399998D02*
X178860000Y-72399998D01*
D11*
X177810000Y-71499998D02*
X178810000Y-72499998D01*
D12*
X179120849Y-71161190D02*
X179120849Y-70595504D01*
X179686534Y-71161190D02*
X179120849Y-71161190D01*
X179120849Y-70595504D02*
X179686534Y-71161190D01*
D10*
X179308232Y-69934359D02*
X177692493Y-71550098D01*
X177692493Y-71550098D02*
X178731940Y-72589545D01*
X178731940Y-72589545D02*
X180347679Y-70973806D01*
G04 #@! TO.C,D9.5*
X179210000Y-73716664D02*
X179510000Y-73716664D01*
X179360000Y-73716664D02*
X179210000Y-73716664D01*
X179210000Y-73566664D02*
X179360000Y-73716664D01*
X177860000Y-74066664D02*
X178860000Y-75066664D01*
D11*
X177810000Y-74166664D02*
X178810000Y-75166664D01*
D12*
X179120849Y-73827856D02*
X179120849Y-73262170D01*
X179686534Y-73827856D02*
X179120849Y-73827856D01*
X179120849Y-73262170D02*
X179686534Y-73827856D01*
D10*
X179308232Y-72601025D02*
X177692493Y-74216764D01*
X177692493Y-74216764D02*
X178731940Y-75256211D01*
X178731940Y-75256211D02*
X180347679Y-73640472D01*
G04 #@! TO.C,D9.15*
X179210000Y-100383324D02*
X179510000Y-100383324D01*
X179360000Y-100383324D02*
X179210000Y-100383324D01*
X179210000Y-100233324D02*
X179360000Y-100383324D01*
X177860000Y-100733324D02*
X178860000Y-101733324D01*
D11*
X177810000Y-100833324D02*
X178810000Y-101833324D01*
D12*
X179120849Y-100494516D02*
X179120849Y-99928830D01*
X179686534Y-100494516D02*
X179120849Y-100494516D01*
X179120849Y-99928830D02*
X179686534Y-100494516D01*
D10*
X179308232Y-99267685D02*
X177692493Y-100883424D01*
X177692493Y-100883424D02*
X178731940Y-101922871D01*
X178731940Y-101922871D02*
X180347679Y-100307132D01*
G04 #@! TO.C,D9.6*
X179210000Y-76383330D02*
X179510000Y-76383330D01*
X179360000Y-76383330D02*
X179210000Y-76383330D01*
X179210000Y-76233330D02*
X179360000Y-76383330D01*
X177860000Y-76733330D02*
X178860000Y-77733330D01*
D11*
X177810000Y-76833330D02*
X178810000Y-77833330D01*
D12*
X179120849Y-76494522D02*
X179120849Y-75928836D01*
X179686534Y-76494522D02*
X179120849Y-76494522D01*
X179120849Y-75928836D02*
X179686534Y-76494522D01*
D10*
X179308232Y-75267691D02*
X177692493Y-76883430D01*
X177692493Y-76883430D02*
X178731940Y-77922877D01*
X178731940Y-77922877D02*
X180347679Y-76307138D01*
G04 #@! TO.C,D9.7*
X179210000Y-79049996D02*
X179510000Y-79049996D01*
X179360000Y-79049996D02*
X179210000Y-79049996D01*
X179210000Y-78899996D02*
X179360000Y-79049996D01*
X177860000Y-79399996D02*
X178860000Y-80399996D01*
D11*
X177810000Y-79499996D02*
X178810000Y-80499996D01*
D12*
X179120849Y-79161188D02*
X179120849Y-78595502D01*
X179686534Y-79161188D02*
X179120849Y-79161188D01*
X179120849Y-78595502D02*
X179686534Y-79161188D01*
D10*
X179308232Y-77934357D02*
X177692493Y-79550096D01*
X177692493Y-79550096D02*
X178731940Y-80589543D01*
X178731940Y-80589543D02*
X180347679Y-78973804D01*
G04 #@! TO.C,D9.8*
X179210000Y-81716662D02*
X179510000Y-81716662D01*
X179360000Y-81716662D02*
X179210000Y-81716662D01*
X179210000Y-81566662D02*
X179360000Y-81716662D01*
X177860000Y-82066662D02*
X178860000Y-83066662D01*
D11*
X177810000Y-82166662D02*
X178810000Y-83166662D01*
D12*
X179120849Y-81827854D02*
X179120849Y-81262168D01*
X179686534Y-81827854D02*
X179120849Y-81827854D01*
X179120849Y-81262168D02*
X179686534Y-81827854D01*
D10*
X179308232Y-80601023D02*
X177692493Y-82216762D01*
X177692493Y-82216762D02*
X178731940Y-83256209D01*
X178731940Y-83256209D02*
X180347679Y-81640470D01*
G04 #@! TO.C,D9.9*
X179210000Y-84383328D02*
X179510000Y-84383328D01*
X179360000Y-84383328D02*
X179210000Y-84383328D01*
X179210000Y-84233328D02*
X179360000Y-84383328D01*
X177860000Y-84733328D02*
X178860000Y-85733328D01*
D11*
X177810000Y-84833328D02*
X178810000Y-85833328D01*
D12*
X179120849Y-84494520D02*
X179120849Y-83928834D01*
X179686534Y-84494520D02*
X179120849Y-84494520D01*
X179120849Y-83928834D02*
X179686534Y-84494520D01*
D10*
X179308232Y-83267689D02*
X177692493Y-84883428D01*
X177692493Y-84883428D02*
X178731940Y-85922875D01*
X178731940Y-85922875D02*
X180347679Y-84307136D01*
G04 #@! TO.C,D9.10*
X179210000Y-87049994D02*
X179510000Y-87049994D01*
X179360000Y-87049994D02*
X179210000Y-87049994D01*
X179210000Y-86899994D02*
X179360000Y-87049994D01*
X177860000Y-87399994D02*
X178860000Y-88399994D01*
D11*
X177810000Y-87499994D02*
X178810000Y-88499994D01*
D12*
X179120849Y-87161186D02*
X179120849Y-86595500D01*
X179686534Y-87161186D02*
X179120849Y-87161186D01*
X179120849Y-86595500D02*
X179686534Y-87161186D01*
D10*
X179308232Y-85934355D02*
X177692493Y-87550094D01*
X177692493Y-87550094D02*
X178731940Y-88589541D01*
X178731940Y-88589541D02*
X180347679Y-86973802D01*
G04 #@! TO.C,D9.11*
X179210000Y-89716660D02*
X179510000Y-89716660D01*
X179360000Y-89716660D02*
X179210000Y-89716660D01*
X179210000Y-89566660D02*
X179360000Y-89716660D01*
X177860000Y-90066660D02*
X178860000Y-91066660D01*
D11*
X177810000Y-90166660D02*
X178810000Y-91166660D01*
D12*
X179120849Y-89827852D02*
X179120849Y-89262166D01*
X179686534Y-89827852D02*
X179120849Y-89827852D01*
X179120849Y-89262166D02*
X179686534Y-89827852D01*
D10*
X179308232Y-88601021D02*
X177692493Y-90216760D01*
X177692493Y-90216760D02*
X178731940Y-91256207D01*
X178731940Y-91256207D02*
X180347679Y-89640468D01*
G04 #@! TO.C,D9.16*
X179210000Y-103049990D02*
X179510000Y-103049990D01*
X179360000Y-103049990D02*
X179210000Y-103049990D01*
X179210000Y-102899990D02*
X179360000Y-103049990D01*
X177860000Y-103399990D02*
X178860000Y-104399990D01*
D11*
X177810000Y-103499990D02*
X178810000Y-104499990D01*
D12*
X179120849Y-103161182D02*
X179120849Y-102595496D01*
X179686534Y-103161182D02*
X179120849Y-103161182D01*
X179120849Y-102595496D02*
X179686534Y-103161182D01*
D10*
X179308232Y-101934351D02*
X177692493Y-103550090D01*
X177692493Y-103550090D02*
X178731940Y-104589537D01*
X178731940Y-104589537D02*
X180347679Y-102973798D01*
G04 #@! TO.C,D8.14*
X181880000Y-97716658D02*
X182180000Y-97716658D01*
X182030000Y-97716658D02*
X181880000Y-97716658D01*
X181880000Y-97566658D02*
X182030000Y-97716658D01*
X180530000Y-98066658D02*
X181530000Y-99066658D01*
D11*
X180480000Y-98166658D02*
X181480000Y-99166658D01*
D12*
X181790849Y-97827850D02*
X181790849Y-97262164D01*
X182356534Y-97827850D02*
X181790849Y-97827850D01*
X181790849Y-97262164D02*
X182356534Y-97827850D01*
D10*
X181978232Y-96601019D02*
X180362493Y-98216758D01*
X180362493Y-98216758D02*
X181401940Y-99256205D01*
X181401940Y-99256205D02*
X183017679Y-97640466D01*
G04 #@! TO.C,D8.13*
X181880000Y-95049992D02*
X182180000Y-95049992D01*
X182030000Y-95049992D02*
X181880000Y-95049992D01*
X181880000Y-94899992D02*
X182030000Y-95049992D01*
X180530000Y-95399992D02*
X181530000Y-96399992D01*
D11*
X180480000Y-95499992D02*
X181480000Y-96499992D01*
D12*
X181790849Y-95161184D02*
X181790849Y-94595498D01*
X182356534Y-95161184D02*
X181790849Y-95161184D01*
X181790849Y-94595498D02*
X182356534Y-95161184D01*
D10*
X181978232Y-93934353D02*
X180362493Y-95550092D01*
X180362493Y-95550092D02*
X181401940Y-96589539D01*
X181401940Y-96589539D02*
X183017679Y-94973800D01*
G04 #@! TO.C,D8.12*
X181880000Y-92383326D02*
X182180000Y-92383326D01*
X182030000Y-92383326D02*
X181880000Y-92383326D01*
X181880000Y-92233326D02*
X182030000Y-92383326D01*
X180530000Y-92733326D02*
X181530000Y-93733326D01*
D11*
X180480000Y-92833326D02*
X181480000Y-93833326D01*
D12*
X181790849Y-92494518D02*
X181790849Y-91928832D01*
X182356534Y-92494518D02*
X181790849Y-92494518D01*
X181790849Y-91928832D02*
X182356534Y-92494518D01*
D10*
X181978232Y-91267687D02*
X180362493Y-92883426D01*
X180362493Y-92883426D02*
X181401940Y-93922873D01*
X181401940Y-93922873D02*
X183017679Y-92307134D01*
G04 #@! TO.C,D8.1*
X181880000Y-63050000D02*
X182180000Y-63050000D01*
X182030000Y-63050000D02*
X181880000Y-63050000D01*
X181880000Y-62900000D02*
X182030000Y-63050000D01*
X180530000Y-63400000D02*
X181530000Y-64400000D01*
D11*
X180480000Y-63500000D02*
X181480000Y-64500000D01*
D12*
X181790849Y-63161192D02*
X181790849Y-62595506D01*
X182356534Y-63161192D02*
X181790849Y-63161192D01*
X181790849Y-62595506D02*
X182356534Y-63161192D01*
D10*
X181978232Y-61934361D02*
X180362493Y-63550100D01*
X180362493Y-63550100D02*
X181401940Y-64589547D01*
X181401940Y-64589547D02*
X183017679Y-62973808D01*
G04 #@! TO.C,D8.2*
X181880000Y-65716666D02*
X182180000Y-65716666D01*
X182030000Y-65716666D02*
X181880000Y-65716666D01*
X181880000Y-65566666D02*
X182030000Y-65716666D01*
X180530000Y-66066666D02*
X181530000Y-67066666D01*
D11*
X180480000Y-66166666D02*
X181480000Y-67166666D01*
D12*
X181790849Y-65827858D02*
X181790849Y-65262172D01*
X182356534Y-65827858D02*
X181790849Y-65827858D01*
X181790849Y-65262172D02*
X182356534Y-65827858D01*
D10*
X181978232Y-64601027D02*
X180362493Y-66216766D01*
X180362493Y-66216766D02*
X181401940Y-67256213D01*
X181401940Y-67256213D02*
X183017679Y-65640474D01*
G04 #@! TO.C,D8.3*
X181880000Y-68383332D02*
X182180000Y-68383332D01*
X182030000Y-68383332D02*
X181880000Y-68383332D01*
X181880000Y-68233332D02*
X182030000Y-68383332D01*
X180530000Y-68733332D02*
X181530000Y-69733332D01*
D11*
X180480000Y-68833332D02*
X181480000Y-69833332D01*
D12*
X181790849Y-68494524D02*
X181790849Y-67928838D01*
X182356534Y-68494524D02*
X181790849Y-68494524D01*
X181790849Y-67928838D02*
X182356534Y-68494524D01*
D10*
X181978232Y-67267693D02*
X180362493Y-68883432D01*
X180362493Y-68883432D02*
X181401940Y-69922879D01*
X181401940Y-69922879D02*
X183017679Y-68307140D01*
G04 #@! TO.C,D8.4*
X181880000Y-71049998D02*
X182180000Y-71049998D01*
X182030000Y-71049998D02*
X181880000Y-71049998D01*
X181880000Y-70899998D02*
X182030000Y-71049998D01*
X180530000Y-71399998D02*
X181530000Y-72399998D01*
D11*
X180480000Y-71499998D02*
X181480000Y-72499998D01*
D12*
X181790849Y-71161190D02*
X181790849Y-70595504D01*
X182356534Y-71161190D02*
X181790849Y-71161190D01*
X181790849Y-70595504D02*
X182356534Y-71161190D01*
D10*
X181978232Y-69934359D02*
X180362493Y-71550098D01*
X180362493Y-71550098D02*
X181401940Y-72589545D01*
X181401940Y-72589545D02*
X183017679Y-70973806D01*
G04 #@! TO.C,D8.5*
X181880000Y-73716664D02*
X182180000Y-73716664D01*
X182030000Y-73716664D02*
X181880000Y-73716664D01*
X181880000Y-73566664D02*
X182030000Y-73716664D01*
X180530000Y-74066664D02*
X181530000Y-75066664D01*
D11*
X180480000Y-74166664D02*
X181480000Y-75166664D01*
D12*
X181790849Y-73827856D02*
X181790849Y-73262170D01*
X182356534Y-73827856D02*
X181790849Y-73827856D01*
X181790849Y-73262170D02*
X182356534Y-73827856D01*
D10*
X181978232Y-72601025D02*
X180362493Y-74216764D01*
X180362493Y-74216764D02*
X181401940Y-75256211D01*
X181401940Y-75256211D02*
X183017679Y-73640472D01*
G04 #@! TO.C,D8.15*
X181880000Y-100383324D02*
X182180000Y-100383324D01*
X182030000Y-100383324D02*
X181880000Y-100383324D01*
X181880000Y-100233324D02*
X182030000Y-100383324D01*
X180530000Y-100733324D02*
X181530000Y-101733324D01*
D11*
X180480000Y-100833324D02*
X181480000Y-101833324D01*
D12*
X181790849Y-100494516D02*
X181790849Y-99928830D01*
X182356534Y-100494516D02*
X181790849Y-100494516D01*
X181790849Y-99928830D02*
X182356534Y-100494516D01*
D10*
X181978232Y-99267685D02*
X180362493Y-100883424D01*
X180362493Y-100883424D02*
X181401940Y-101922871D01*
X181401940Y-101922871D02*
X183017679Y-100307132D01*
G04 #@! TO.C,D8.6*
X181880000Y-76383330D02*
X182180000Y-76383330D01*
X182030000Y-76383330D02*
X181880000Y-76383330D01*
X181880000Y-76233330D02*
X182030000Y-76383330D01*
X180530000Y-76733330D02*
X181530000Y-77733330D01*
D11*
X180480000Y-76833330D02*
X181480000Y-77833330D01*
D12*
X181790849Y-76494522D02*
X181790849Y-75928836D01*
X182356534Y-76494522D02*
X181790849Y-76494522D01*
X181790849Y-75928836D02*
X182356534Y-76494522D01*
D10*
X181978232Y-75267691D02*
X180362493Y-76883430D01*
X180362493Y-76883430D02*
X181401940Y-77922877D01*
X181401940Y-77922877D02*
X183017679Y-76307138D01*
G04 #@! TO.C,D8.7*
X181880000Y-79049996D02*
X182180000Y-79049996D01*
X182030000Y-79049996D02*
X181880000Y-79049996D01*
X181880000Y-78899996D02*
X182030000Y-79049996D01*
X180530000Y-79399996D02*
X181530000Y-80399996D01*
D11*
X180480000Y-79499996D02*
X181480000Y-80499996D01*
D12*
X181790849Y-79161188D02*
X181790849Y-78595502D01*
X182356534Y-79161188D02*
X181790849Y-79161188D01*
X181790849Y-78595502D02*
X182356534Y-79161188D01*
D10*
X181978232Y-77934357D02*
X180362493Y-79550096D01*
X180362493Y-79550096D02*
X181401940Y-80589543D01*
X181401940Y-80589543D02*
X183017679Y-78973804D01*
G04 #@! TO.C,D8.8*
X181880000Y-81716662D02*
X182180000Y-81716662D01*
X182030000Y-81716662D02*
X181880000Y-81716662D01*
X181880000Y-81566662D02*
X182030000Y-81716662D01*
X180530000Y-82066662D02*
X181530000Y-83066662D01*
D11*
X180480000Y-82166662D02*
X181480000Y-83166662D01*
D12*
X181790849Y-81827854D02*
X181790849Y-81262168D01*
X182356534Y-81827854D02*
X181790849Y-81827854D01*
X181790849Y-81262168D02*
X182356534Y-81827854D01*
D10*
X181978232Y-80601023D02*
X180362493Y-82216762D01*
X180362493Y-82216762D02*
X181401940Y-83256209D01*
X181401940Y-83256209D02*
X183017679Y-81640470D01*
G04 #@! TO.C,D8.9*
X181880000Y-84383328D02*
X182180000Y-84383328D01*
X182030000Y-84383328D02*
X181880000Y-84383328D01*
X181880000Y-84233328D02*
X182030000Y-84383328D01*
X180530000Y-84733328D02*
X181530000Y-85733328D01*
D11*
X180480000Y-84833328D02*
X181480000Y-85833328D01*
D12*
X181790849Y-84494520D02*
X181790849Y-83928834D01*
X182356534Y-84494520D02*
X181790849Y-84494520D01*
X181790849Y-83928834D02*
X182356534Y-84494520D01*
D10*
X181978232Y-83267689D02*
X180362493Y-84883428D01*
X180362493Y-84883428D02*
X181401940Y-85922875D01*
X181401940Y-85922875D02*
X183017679Y-84307136D01*
G04 #@! TO.C,D8.10*
X181880000Y-87049994D02*
X182180000Y-87049994D01*
X182030000Y-87049994D02*
X181880000Y-87049994D01*
X181880000Y-86899994D02*
X182030000Y-87049994D01*
X180530000Y-87399994D02*
X181530000Y-88399994D01*
D11*
X180480000Y-87499994D02*
X181480000Y-88499994D01*
D12*
X181790849Y-87161186D02*
X181790849Y-86595500D01*
X182356534Y-87161186D02*
X181790849Y-87161186D01*
X181790849Y-86595500D02*
X182356534Y-87161186D01*
D10*
X181978232Y-85934355D02*
X180362493Y-87550094D01*
X180362493Y-87550094D02*
X181401940Y-88589541D01*
X181401940Y-88589541D02*
X183017679Y-86973802D01*
G04 #@! TO.C,D8.11*
X181880000Y-89716660D02*
X182180000Y-89716660D01*
X182030000Y-89716660D02*
X181880000Y-89716660D01*
X181880000Y-89566660D02*
X182030000Y-89716660D01*
X180530000Y-90066660D02*
X181530000Y-91066660D01*
D11*
X180480000Y-90166660D02*
X181480000Y-91166660D01*
D12*
X181790849Y-89827852D02*
X181790849Y-89262166D01*
X182356534Y-89827852D02*
X181790849Y-89827852D01*
X181790849Y-89262166D02*
X182356534Y-89827852D01*
D10*
X181978232Y-88601021D02*
X180362493Y-90216760D01*
X180362493Y-90216760D02*
X181401940Y-91256207D01*
X181401940Y-91256207D02*
X183017679Y-89640468D01*
G04 #@! TO.C,D8.16*
X181880000Y-103049990D02*
X182180000Y-103049990D01*
X182030000Y-103049990D02*
X181880000Y-103049990D01*
X181880000Y-102899990D02*
X182030000Y-103049990D01*
X180530000Y-103399990D02*
X181530000Y-104399990D01*
D11*
X180480000Y-103499990D02*
X181480000Y-104499990D01*
D12*
X181790849Y-103161182D02*
X181790849Y-102595496D01*
X182356534Y-103161182D02*
X181790849Y-103161182D01*
X181790849Y-102595496D02*
X182356534Y-103161182D01*
D10*
X181978232Y-101934351D02*
X180362493Y-103550090D01*
X180362493Y-103550090D02*
X181401940Y-104589537D01*
X181401940Y-104589537D02*
X183017679Y-102973798D01*
G04 #@! TO.C,D7.14*
X184550000Y-97716658D02*
X184850000Y-97716658D01*
X184700000Y-97716658D02*
X184550000Y-97716658D01*
X184550000Y-97566658D02*
X184700000Y-97716658D01*
X183200000Y-98066658D02*
X184200000Y-99066658D01*
D11*
X183150000Y-98166658D02*
X184150000Y-99166658D01*
D12*
X184460849Y-97827850D02*
X184460849Y-97262164D01*
X185026534Y-97827850D02*
X184460849Y-97827850D01*
X184460849Y-97262164D02*
X185026534Y-97827850D01*
D10*
X184648232Y-96601019D02*
X183032493Y-98216758D01*
X183032493Y-98216758D02*
X184071940Y-99256205D01*
X184071940Y-99256205D02*
X185687679Y-97640466D01*
G04 #@! TO.C,D7.13*
X184550000Y-95049992D02*
X184850000Y-95049992D01*
X184700000Y-95049992D02*
X184550000Y-95049992D01*
X184550000Y-94899992D02*
X184700000Y-95049992D01*
X183200000Y-95399992D02*
X184200000Y-96399992D01*
D11*
X183150000Y-95499992D02*
X184150000Y-96499992D01*
D12*
X184460849Y-95161184D02*
X184460849Y-94595498D01*
X185026534Y-95161184D02*
X184460849Y-95161184D01*
X184460849Y-94595498D02*
X185026534Y-95161184D01*
D10*
X184648232Y-93934353D02*
X183032493Y-95550092D01*
X183032493Y-95550092D02*
X184071940Y-96589539D01*
X184071940Y-96589539D02*
X185687679Y-94973800D01*
G04 #@! TO.C,D7.12*
X184550000Y-92383326D02*
X184850000Y-92383326D01*
X184700000Y-92383326D02*
X184550000Y-92383326D01*
X184550000Y-92233326D02*
X184700000Y-92383326D01*
X183200000Y-92733326D02*
X184200000Y-93733326D01*
D11*
X183150000Y-92833326D02*
X184150000Y-93833326D01*
D12*
X184460849Y-92494518D02*
X184460849Y-91928832D01*
X185026534Y-92494518D02*
X184460849Y-92494518D01*
X184460849Y-91928832D02*
X185026534Y-92494518D01*
D10*
X184648232Y-91267687D02*
X183032493Y-92883426D01*
X183032493Y-92883426D02*
X184071940Y-93922873D01*
X184071940Y-93922873D02*
X185687679Y-92307134D01*
G04 #@! TO.C,D7.1*
X184550000Y-63050000D02*
X184850000Y-63050000D01*
X184700000Y-63050000D02*
X184550000Y-63050000D01*
X184550000Y-62900000D02*
X184700000Y-63050000D01*
X183200000Y-63400000D02*
X184200000Y-64400000D01*
D11*
X183150000Y-63500000D02*
X184150000Y-64500000D01*
D12*
X184460849Y-63161192D02*
X184460849Y-62595506D01*
X185026534Y-63161192D02*
X184460849Y-63161192D01*
X184460849Y-62595506D02*
X185026534Y-63161192D01*
D10*
X184648232Y-61934361D02*
X183032493Y-63550100D01*
X183032493Y-63550100D02*
X184071940Y-64589547D01*
X184071940Y-64589547D02*
X185687679Y-62973808D01*
G04 #@! TO.C,D7.2*
X184550000Y-65716666D02*
X184850000Y-65716666D01*
X184700000Y-65716666D02*
X184550000Y-65716666D01*
X184550000Y-65566666D02*
X184700000Y-65716666D01*
X183200000Y-66066666D02*
X184200000Y-67066666D01*
D11*
X183150000Y-66166666D02*
X184150000Y-67166666D01*
D12*
X184460849Y-65827858D02*
X184460849Y-65262172D01*
X185026534Y-65827858D02*
X184460849Y-65827858D01*
X184460849Y-65262172D02*
X185026534Y-65827858D01*
D10*
X184648232Y-64601027D02*
X183032493Y-66216766D01*
X183032493Y-66216766D02*
X184071940Y-67256213D01*
X184071940Y-67256213D02*
X185687679Y-65640474D01*
G04 #@! TO.C,D7.3*
X184550000Y-68383332D02*
X184850000Y-68383332D01*
X184700000Y-68383332D02*
X184550000Y-68383332D01*
X184550000Y-68233332D02*
X184700000Y-68383332D01*
X183200000Y-68733332D02*
X184200000Y-69733332D01*
D11*
X183150000Y-68833332D02*
X184150000Y-69833332D01*
D12*
X184460849Y-68494524D02*
X184460849Y-67928838D01*
X185026534Y-68494524D02*
X184460849Y-68494524D01*
X184460849Y-67928838D02*
X185026534Y-68494524D01*
D10*
X184648232Y-67267693D02*
X183032493Y-68883432D01*
X183032493Y-68883432D02*
X184071940Y-69922879D01*
X184071940Y-69922879D02*
X185687679Y-68307140D01*
G04 #@! TO.C,D7.4*
X184550000Y-71049998D02*
X184850000Y-71049998D01*
X184700000Y-71049998D02*
X184550000Y-71049998D01*
X184550000Y-70899998D02*
X184700000Y-71049998D01*
X183200000Y-71399998D02*
X184200000Y-72399998D01*
D11*
X183150000Y-71499998D02*
X184150000Y-72499998D01*
D12*
X184460849Y-71161190D02*
X184460849Y-70595504D01*
X185026534Y-71161190D02*
X184460849Y-71161190D01*
X184460849Y-70595504D02*
X185026534Y-71161190D01*
D10*
X184648232Y-69934359D02*
X183032493Y-71550098D01*
X183032493Y-71550098D02*
X184071940Y-72589545D01*
X184071940Y-72589545D02*
X185687679Y-70973806D01*
G04 #@! TO.C,D7.5*
X184550000Y-73716664D02*
X184850000Y-73716664D01*
X184700000Y-73716664D02*
X184550000Y-73716664D01*
X184550000Y-73566664D02*
X184700000Y-73716664D01*
X183200000Y-74066664D02*
X184200000Y-75066664D01*
D11*
X183150000Y-74166664D02*
X184150000Y-75166664D01*
D12*
X184460849Y-73827856D02*
X184460849Y-73262170D01*
X185026534Y-73827856D02*
X184460849Y-73827856D01*
X184460849Y-73262170D02*
X185026534Y-73827856D01*
D10*
X184648232Y-72601025D02*
X183032493Y-74216764D01*
X183032493Y-74216764D02*
X184071940Y-75256211D01*
X184071940Y-75256211D02*
X185687679Y-73640472D01*
G04 #@! TO.C,D7.15*
X184550000Y-100383324D02*
X184850000Y-100383324D01*
X184700000Y-100383324D02*
X184550000Y-100383324D01*
X184550000Y-100233324D02*
X184700000Y-100383324D01*
X183200000Y-100733324D02*
X184200000Y-101733324D01*
D11*
X183150000Y-100833324D02*
X184150000Y-101833324D01*
D12*
X184460849Y-100494516D02*
X184460849Y-99928830D01*
X185026534Y-100494516D02*
X184460849Y-100494516D01*
X184460849Y-99928830D02*
X185026534Y-100494516D01*
D10*
X184648232Y-99267685D02*
X183032493Y-100883424D01*
X183032493Y-100883424D02*
X184071940Y-101922871D01*
X184071940Y-101922871D02*
X185687679Y-100307132D01*
G04 #@! TO.C,D7.6*
X184550000Y-76383330D02*
X184850000Y-76383330D01*
X184700000Y-76383330D02*
X184550000Y-76383330D01*
X184550000Y-76233330D02*
X184700000Y-76383330D01*
X183200000Y-76733330D02*
X184200000Y-77733330D01*
D11*
X183150000Y-76833330D02*
X184150000Y-77833330D01*
D12*
X184460849Y-76494522D02*
X184460849Y-75928836D01*
X185026534Y-76494522D02*
X184460849Y-76494522D01*
X184460849Y-75928836D02*
X185026534Y-76494522D01*
D10*
X184648232Y-75267691D02*
X183032493Y-76883430D01*
X183032493Y-76883430D02*
X184071940Y-77922877D01*
X184071940Y-77922877D02*
X185687679Y-76307138D01*
G04 #@! TO.C,D7.7*
X184550000Y-79049996D02*
X184850000Y-79049996D01*
X184700000Y-79049996D02*
X184550000Y-79049996D01*
X184550000Y-78899996D02*
X184700000Y-79049996D01*
X183200000Y-79399996D02*
X184200000Y-80399996D01*
D11*
X183150000Y-79499996D02*
X184150000Y-80499996D01*
D12*
X184460849Y-79161188D02*
X184460849Y-78595502D01*
X185026534Y-79161188D02*
X184460849Y-79161188D01*
X184460849Y-78595502D02*
X185026534Y-79161188D01*
D10*
X184648232Y-77934357D02*
X183032493Y-79550096D01*
X183032493Y-79550096D02*
X184071940Y-80589543D01*
X184071940Y-80589543D02*
X185687679Y-78973804D01*
G04 #@! TO.C,D7.8*
X184550000Y-81716662D02*
X184850000Y-81716662D01*
X184700000Y-81716662D02*
X184550000Y-81716662D01*
X184550000Y-81566662D02*
X184700000Y-81716662D01*
X183200000Y-82066662D02*
X184200000Y-83066662D01*
D11*
X183150000Y-82166662D02*
X184150000Y-83166662D01*
D12*
X184460849Y-81827854D02*
X184460849Y-81262168D01*
X185026534Y-81827854D02*
X184460849Y-81827854D01*
X184460849Y-81262168D02*
X185026534Y-81827854D01*
D10*
X184648232Y-80601023D02*
X183032493Y-82216762D01*
X183032493Y-82216762D02*
X184071940Y-83256209D01*
X184071940Y-83256209D02*
X185687679Y-81640470D01*
G04 #@! TO.C,D7.9*
X184550000Y-84383328D02*
X184850000Y-84383328D01*
X184700000Y-84383328D02*
X184550000Y-84383328D01*
X184550000Y-84233328D02*
X184700000Y-84383328D01*
X183200000Y-84733328D02*
X184200000Y-85733328D01*
D11*
X183150000Y-84833328D02*
X184150000Y-85833328D01*
D12*
X184460849Y-84494520D02*
X184460849Y-83928834D01*
X185026534Y-84494520D02*
X184460849Y-84494520D01*
X184460849Y-83928834D02*
X185026534Y-84494520D01*
D10*
X184648232Y-83267689D02*
X183032493Y-84883428D01*
X183032493Y-84883428D02*
X184071940Y-85922875D01*
X184071940Y-85922875D02*
X185687679Y-84307136D01*
G04 #@! TO.C,D7.10*
X184550000Y-87049994D02*
X184850000Y-87049994D01*
X184700000Y-87049994D02*
X184550000Y-87049994D01*
X184550000Y-86899994D02*
X184700000Y-87049994D01*
X183200000Y-87399994D02*
X184200000Y-88399994D01*
D11*
X183150000Y-87499994D02*
X184150000Y-88499994D01*
D12*
X184460849Y-87161186D02*
X184460849Y-86595500D01*
X185026534Y-87161186D02*
X184460849Y-87161186D01*
X184460849Y-86595500D02*
X185026534Y-87161186D01*
D10*
X184648232Y-85934355D02*
X183032493Y-87550094D01*
X183032493Y-87550094D02*
X184071940Y-88589541D01*
X184071940Y-88589541D02*
X185687679Y-86973802D01*
G04 #@! TO.C,D7.11*
X184550000Y-89716660D02*
X184850000Y-89716660D01*
X184700000Y-89716660D02*
X184550000Y-89716660D01*
X184550000Y-89566660D02*
X184700000Y-89716660D01*
X183200000Y-90066660D02*
X184200000Y-91066660D01*
D11*
X183150000Y-90166660D02*
X184150000Y-91166660D01*
D12*
X184460849Y-89827852D02*
X184460849Y-89262166D01*
X185026534Y-89827852D02*
X184460849Y-89827852D01*
X184460849Y-89262166D02*
X185026534Y-89827852D01*
D10*
X184648232Y-88601021D02*
X183032493Y-90216760D01*
X183032493Y-90216760D02*
X184071940Y-91256207D01*
X184071940Y-91256207D02*
X185687679Y-89640468D01*
G04 #@! TO.C,D7.16*
X184550000Y-103049990D02*
X184850000Y-103049990D01*
X184700000Y-103049990D02*
X184550000Y-103049990D01*
X184550000Y-102899990D02*
X184700000Y-103049990D01*
X183200000Y-103399990D02*
X184200000Y-104399990D01*
D11*
X183150000Y-103499990D02*
X184150000Y-104499990D01*
D12*
X184460849Y-103161182D02*
X184460849Y-102595496D01*
X185026534Y-103161182D02*
X184460849Y-103161182D01*
X184460849Y-102595496D02*
X185026534Y-103161182D01*
D10*
X184648232Y-101934351D02*
X183032493Y-103550090D01*
X183032493Y-103550090D02*
X184071940Y-104589537D01*
X184071940Y-104589537D02*
X185687679Y-102973798D01*
G04 #@! TO.C,D6.14*
X187210000Y-97716658D02*
X187510000Y-97716658D01*
X187360000Y-97716658D02*
X187210000Y-97716658D01*
X187210000Y-97566658D02*
X187360000Y-97716658D01*
X185860000Y-98066658D02*
X186860000Y-99066658D01*
D11*
X185810000Y-98166658D02*
X186810000Y-99166658D01*
D12*
X187120849Y-97827850D02*
X187120849Y-97262164D01*
X187686534Y-97827850D02*
X187120849Y-97827850D01*
X187120849Y-97262164D02*
X187686534Y-97827850D01*
D10*
X187308232Y-96601019D02*
X185692493Y-98216758D01*
X185692493Y-98216758D02*
X186731940Y-99256205D01*
X186731940Y-99256205D02*
X188347679Y-97640466D01*
G04 #@! TO.C,D6.13*
X187210000Y-95049992D02*
X187510000Y-95049992D01*
X187360000Y-95049992D02*
X187210000Y-95049992D01*
X187210000Y-94899992D02*
X187360000Y-95049992D01*
X185860000Y-95399992D02*
X186860000Y-96399992D01*
D11*
X185810000Y-95499992D02*
X186810000Y-96499992D01*
D12*
X187120849Y-95161184D02*
X187120849Y-94595498D01*
X187686534Y-95161184D02*
X187120849Y-95161184D01*
X187120849Y-94595498D02*
X187686534Y-95161184D01*
D10*
X187308232Y-93934353D02*
X185692493Y-95550092D01*
X185692493Y-95550092D02*
X186731940Y-96589539D01*
X186731940Y-96589539D02*
X188347679Y-94973800D01*
G04 #@! TO.C,D6.12*
X187210000Y-92383326D02*
X187510000Y-92383326D01*
X187360000Y-92383326D02*
X187210000Y-92383326D01*
X187210000Y-92233326D02*
X187360000Y-92383326D01*
X185860000Y-92733326D02*
X186860000Y-93733326D01*
D11*
X185810000Y-92833326D02*
X186810000Y-93833326D01*
D12*
X187120849Y-92494518D02*
X187120849Y-91928832D01*
X187686534Y-92494518D02*
X187120849Y-92494518D01*
X187120849Y-91928832D02*
X187686534Y-92494518D01*
D10*
X187308232Y-91267687D02*
X185692493Y-92883426D01*
X185692493Y-92883426D02*
X186731940Y-93922873D01*
X186731940Y-93922873D02*
X188347679Y-92307134D01*
G04 #@! TO.C,D6.1*
X187210000Y-63050000D02*
X187510000Y-63050000D01*
X187360000Y-63050000D02*
X187210000Y-63050000D01*
X187210000Y-62900000D02*
X187360000Y-63050000D01*
X185860000Y-63400000D02*
X186860000Y-64400000D01*
D11*
X185810000Y-63500000D02*
X186810000Y-64500000D01*
D12*
X187120849Y-63161192D02*
X187120849Y-62595506D01*
X187686534Y-63161192D02*
X187120849Y-63161192D01*
X187120849Y-62595506D02*
X187686534Y-63161192D01*
D10*
X187308232Y-61934361D02*
X185692493Y-63550100D01*
X185692493Y-63550100D02*
X186731940Y-64589547D01*
X186731940Y-64589547D02*
X188347679Y-62973808D01*
G04 #@! TO.C,D6.2*
X187210000Y-65716666D02*
X187510000Y-65716666D01*
X187360000Y-65716666D02*
X187210000Y-65716666D01*
X187210000Y-65566666D02*
X187360000Y-65716666D01*
X185860000Y-66066666D02*
X186860000Y-67066666D01*
D11*
X185810000Y-66166666D02*
X186810000Y-67166666D01*
D12*
X187120849Y-65827858D02*
X187120849Y-65262172D01*
X187686534Y-65827858D02*
X187120849Y-65827858D01*
X187120849Y-65262172D02*
X187686534Y-65827858D01*
D10*
X187308232Y-64601027D02*
X185692493Y-66216766D01*
X185692493Y-66216766D02*
X186731940Y-67256213D01*
X186731940Y-67256213D02*
X188347679Y-65640474D01*
G04 #@! TO.C,D6.3*
X187210000Y-68383332D02*
X187510000Y-68383332D01*
X187360000Y-68383332D02*
X187210000Y-68383332D01*
X187210000Y-68233332D02*
X187360000Y-68383332D01*
X185860000Y-68733332D02*
X186860000Y-69733332D01*
D11*
X185810000Y-68833332D02*
X186810000Y-69833332D01*
D12*
X187120849Y-68494524D02*
X187120849Y-67928838D01*
X187686534Y-68494524D02*
X187120849Y-68494524D01*
X187120849Y-67928838D02*
X187686534Y-68494524D01*
D10*
X187308232Y-67267693D02*
X185692493Y-68883432D01*
X185692493Y-68883432D02*
X186731940Y-69922879D01*
X186731940Y-69922879D02*
X188347679Y-68307140D01*
G04 #@! TO.C,D6.4*
X187210000Y-71049998D02*
X187510000Y-71049998D01*
X187360000Y-71049998D02*
X187210000Y-71049998D01*
X187210000Y-70899998D02*
X187360000Y-71049998D01*
X185860000Y-71399998D02*
X186860000Y-72399998D01*
D11*
X185810000Y-71499998D02*
X186810000Y-72499998D01*
D12*
X187120849Y-71161190D02*
X187120849Y-70595504D01*
X187686534Y-71161190D02*
X187120849Y-71161190D01*
X187120849Y-70595504D02*
X187686534Y-71161190D01*
D10*
X187308232Y-69934359D02*
X185692493Y-71550098D01*
X185692493Y-71550098D02*
X186731940Y-72589545D01*
X186731940Y-72589545D02*
X188347679Y-70973806D01*
G04 #@! TO.C,D6.5*
X187210000Y-73716664D02*
X187510000Y-73716664D01*
X187360000Y-73716664D02*
X187210000Y-73716664D01*
X187210000Y-73566664D02*
X187360000Y-73716664D01*
X185860000Y-74066664D02*
X186860000Y-75066664D01*
D11*
X185810000Y-74166664D02*
X186810000Y-75166664D01*
D12*
X187120849Y-73827856D02*
X187120849Y-73262170D01*
X187686534Y-73827856D02*
X187120849Y-73827856D01*
X187120849Y-73262170D02*
X187686534Y-73827856D01*
D10*
X187308232Y-72601025D02*
X185692493Y-74216764D01*
X185692493Y-74216764D02*
X186731940Y-75256211D01*
X186731940Y-75256211D02*
X188347679Y-73640472D01*
G04 #@! TO.C,D6.15*
X187210000Y-100383324D02*
X187510000Y-100383324D01*
X187360000Y-100383324D02*
X187210000Y-100383324D01*
X187210000Y-100233324D02*
X187360000Y-100383324D01*
X185860000Y-100733324D02*
X186860000Y-101733324D01*
D11*
X185810000Y-100833324D02*
X186810000Y-101833324D01*
D12*
X187120849Y-100494516D02*
X187120849Y-99928830D01*
X187686534Y-100494516D02*
X187120849Y-100494516D01*
X187120849Y-99928830D02*
X187686534Y-100494516D01*
D10*
X187308232Y-99267685D02*
X185692493Y-100883424D01*
X185692493Y-100883424D02*
X186731940Y-101922871D01*
X186731940Y-101922871D02*
X188347679Y-100307132D01*
G04 #@! TO.C,D6.6*
X187210000Y-76383330D02*
X187510000Y-76383330D01*
X187360000Y-76383330D02*
X187210000Y-76383330D01*
X187210000Y-76233330D02*
X187360000Y-76383330D01*
X185860000Y-76733330D02*
X186860000Y-77733330D01*
D11*
X185810000Y-76833330D02*
X186810000Y-77833330D01*
D12*
X187120849Y-76494522D02*
X187120849Y-75928836D01*
X187686534Y-76494522D02*
X187120849Y-76494522D01*
X187120849Y-75928836D02*
X187686534Y-76494522D01*
D10*
X187308232Y-75267691D02*
X185692493Y-76883430D01*
X185692493Y-76883430D02*
X186731940Y-77922877D01*
X186731940Y-77922877D02*
X188347679Y-76307138D01*
G04 #@! TO.C,D6.7*
X187210000Y-79049996D02*
X187510000Y-79049996D01*
X187360000Y-79049996D02*
X187210000Y-79049996D01*
X187210000Y-78899996D02*
X187360000Y-79049996D01*
X185860000Y-79399996D02*
X186860000Y-80399996D01*
D11*
X185810000Y-79499996D02*
X186810000Y-80499996D01*
D12*
X187120849Y-79161188D02*
X187120849Y-78595502D01*
X187686534Y-79161188D02*
X187120849Y-79161188D01*
X187120849Y-78595502D02*
X187686534Y-79161188D01*
D10*
X187308232Y-77934357D02*
X185692493Y-79550096D01*
X185692493Y-79550096D02*
X186731940Y-80589543D01*
X186731940Y-80589543D02*
X188347679Y-78973804D01*
G04 #@! TO.C,D6.8*
X187210000Y-81716662D02*
X187510000Y-81716662D01*
X187360000Y-81716662D02*
X187210000Y-81716662D01*
X187210000Y-81566662D02*
X187360000Y-81716662D01*
X185860000Y-82066662D02*
X186860000Y-83066662D01*
D11*
X185810000Y-82166662D02*
X186810000Y-83166662D01*
D12*
X187120849Y-81827854D02*
X187120849Y-81262168D01*
X187686534Y-81827854D02*
X187120849Y-81827854D01*
X187120849Y-81262168D02*
X187686534Y-81827854D01*
D10*
X187308232Y-80601023D02*
X185692493Y-82216762D01*
X185692493Y-82216762D02*
X186731940Y-83256209D01*
X186731940Y-83256209D02*
X188347679Y-81640470D01*
G04 #@! TO.C,D6.9*
X187210000Y-84383328D02*
X187510000Y-84383328D01*
X187360000Y-84383328D02*
X187210000Y-84383328D01*
X187210000Y-84233328D02*
X187360000Y-84383328D01*
X185860000Y-84733328D02*
X186860000Y-85733328D01*
D11*
X185810000Y-84833328D02*
X186810000Y-85833328D01*
D12*
X187120849Y-84494520D02*
X187120849Y-83928834D01*
X187686534Y-84494520D02*
X187120849Y-84494520D01*
X187120849Y-83928834D02*
X187686534Y-84494520D01*
D10*
X187308232Y-83267689D02*
X185692493Y-84883428D01*
X185692493Y-84883428D02*
X186731940Y-85922875D01*
X186731940Y-85922875D02*
X188347679Y-84307136D01*
G04 #@! TO.C,D6.10*
X187210000Y-87049994D02*
X187510000Y-87049994D01*
X187360000Y-87049994D02*
X187210000Y-87049994D01*
X187210000Y-86899994D02*
X187360000Y-87049994D01*
X185860000Y-87399994D02*
X186860000Y-88399994D01*
D11*
X185810000Y-87499994D02*
X186810000Y-88499994D01*
D12*
X187120849Y-87161186D02*
X187120849Y-86595500D01*
X187686534Y-87161186D02*
X187120849Y-87161186D01*
X187120849Y-86595500D02*
X187686534Y-87161186D01*
D10*
X187308232Y-85934355D02*
X185692493Y-87550094D01*
X185692493Y-87550094D02*
X186731940Y-88589541D01*
X186731940Y-88589541D02*
X188347679Y-86973802D01*
G04 #@! TO.C,D6.11*
X187210000Y-89716660D02*
X187510000Y-89716660D01*
X187360000Y-89716660D02*
X187210000Y-89716660D01*
X187210000Y-89566660D02*
X187360000Y-89716660D01*
X185860000Y-90066660D02*
X186860000Y-91066660D01*
D11*
X185810000Y-90166660D02*
X186810000Y-91166660D01*
D12*
X187120849Y-89827852D02*
X187120849Y-89262166D01*
X187686534Y-89827852D02*
X187120849Y-89827852D01*
X187120849Y-89262166D02*
X187686534Y-89827852D01*
D10*
X187308232Y-88601021D02*
X185692493Y-90216760D01*
X185692493Y-90216760D02*
X186731940Y-91256207D01*
X186731940Y-91256207D02*
X188347679Y-89640468D01*
G04 #@! TO.C,D6.16*
X187210000Y-103049990D02*
X187510000Y-103049990D01*
X187360000Y-103049990D02*
X187210000Y-103049990D01*
X187210000Y-102899990D02*
X187360000Y-103049990D01*
X185860000Y-103399990D02*
X186860000Y-104399990D01*
D11*
X185810000Y-103499990D02*
X186810000Y-104499990D01*
D12*
X187120849Y-103161182D02*
X187120849Y-102595496D01*
X187686534Y-103161182D02*
X187120849Y-103161182D01*
X187120849Y-102595496D02*
X187686534Y-103161182D01*
D10*
X187308232Y-101934351D02*
X185692493Y-103550090D01*
X185692493Y-103550090D02*
X186731940Y-104589537D01*
X186731940Y-104589537D02*
X188347679Y-102973798D01*
G04 #@! TO.C,D5.14*
X189880000Y-97716658D02*
X190180000Y-97716658D01*
X190030000Y-97716658D02*
X189880000Y-97716658D01*
X189880000Y-97566658D02*
X190030000Y-97716658D01*
X188530000Y-98066658D02*
X189530000Y-99066658D01*
D11*
X188480000Y-98166658D02*
X189480000Y-99166658D01*
D12*
X189790849Y-97827850D02*
X189790849Y-97262164D01*
X190356534Y-97827850D02*
X189790849Y-97827850D01*
X189790849Y-97262164D02*
X190356534Y-97827850D01*
D10*
X189978232Y-96601019D02*
X188362493Y-98216758D01*
X188362493Y-98216758D02*
X189401940Y-99256205D01*
X189401940Y-99256205D02*
X191017679Y-97640466D01*
G04 #@! TO.C,D5.13*
X189880000Y-95049992D02*
X190180000Y-95049992D01*
X190030000Y-95049992D02*
X189880000Y-95049992D01*
X189880000Y-94899992D02*
X190030000Y-95049992D01*
X188530000Y-95399992D02*
X189530000Y-96399992D01*
D11*
X188480000Y-95499992D02*
X189480000Y-96499992D01*
D12*
X189790849Y-95161184D02*
X189790849Y-94595498D01*
X190356534Y-95161184D02*
X189790849Y-95161184D01*
X189790849Y-94595498D02*
X190356534Y-95161184D01*
D10*
X189978232Y-93934353D02*
X188362493Y-95550092D01*
X188362493Y-95550092D02*
X189401940Y-96589539D01*
X189401940Y-96589539D02*
X191017679Y-94973800D01*
G04 #@! TO.C,D5.12*
X189880000Y-92383326D02*
X190180000Y-92383326D01*
X190030000Y-92383326D02*
X189880000Y-92383326D01*
X189880000Y-92233326D02*
X190030000Y-92383326D01*
X188530000Y-92733326D02*
X189530000Y-93733326D01*
D11*
X188480000Y-92833326D02*
X189480000Y-93833326D01*
D12*
X189790849Y-92494518D02*
X189790849Y-91928832D01*
X190356534Y-92494518D02*
X189790849Y-92494518D01*
X189790849Y-91928832D02*
X190356534Y-92494518D01*
D10*
X189978232Y-91267687D02*
X188362493Y-92883426D01*
X188362493Y-92883426D02*
X189401940Y-93922873D01*
X189401940Y-93922873D02*
X191017679Y-92307134D01*
G04 #@! TO.C,D5.1*
X189880000Y-63050000D02*
X190180000Y-63050000D01*
X190030000Y-63050000D02*
X189880000Y-63050000D01*
X189880000Y-62900000D02*
X190030000Y-63050000D01*
X188530000Y-63400000D02*
X189530000Y-64400000D01*
D11*
X188480000Y-63500000D02*
X189480000Y-64500000D01*
D12*
X189790849Y-63161192D02*
X189790849Y-62595506D01*
X190356534Y-63161192D02*
X189790849Y-63161192D01*
X189790849Y-62595506D02*
X190356534Y-63161192D01*
D10*
X189978232Y-61934361D02*
X188362493Y-63550100D01*
X188362493Y-63550100D02*
X189401940Y-64589547D01*
X189401940Y-64589547D02*
X191017679Y-62973808D01*
G04 #@! TO.C,D5.2*
X189880000Y-65716666D02*
X190180000Y-65716666D01*
X190030000Y-65716666D02*
X189880000Y-65716666D01*
X189880000Y-65566666D02*
X190030000Y-65716666D01*
X188530000Y-66066666D02*
X189530000Y-67066666D01*
D11*
X188480000Y-66166666D02*
X189480000Y-67166666D01*
D12*
X189790849Y-65827858D02*
X189790849Y-65262172D01*
X190356534Y-65827858D02*
X189790849Y-65827858D01*
X189790849Y-65262172D02*
X190356534Y-65827858D01*
D10*
X189978232Y-64601027D02*
X188362493Y-66216766D01*
X188362493Y-66216766D02*
X189401940Y-67256213D01*
X189401940Y-67256213D02*
X191017679Y-65640474D01*
G04 #@! TO.C,D5.3*
X189880000Y-68383332D02*
X190180000Y-68383332D01*
X190030000Y-68383332D02*
X189880000Y-68383332D01*
X189880000Y-68233332D02*
X190030000Y-68383332D01*
X188530000Y-68733332D02*
X189530000Y-69733332D01*
D11*
X188480000Y-68833332D02*
X189480000Y-69833332D01*
D12*
X189790849Y-68494524D02*
X189790849Y-67928838D01*
X190356534Y-68494524D02*
X189790849Y-68494524D01*
X189790849Y-67928838D02*
X190356534Y-68494524D01*
D10*
X189978232Y-67267693D02*
X188362493Y-68883432D01*
X188362493Y-68883432D02*
X189401940Y-69922879D01*
X189401940Y-69922879D02*
X191017679Y-68307140D01*
G04 #@! TO.C,D5.4*
X189880000Y-71049998D02*
X190180000Y-71049998D01*
X190030000Y-71049998D02*
X189880000Y-71049998D01*
X189880000Y-70899998D02*
X190030000Y-71049998D01*
X188530000Y-71399998D02*
X189530000Y-72399998D01*
D11*
X188480000Y-71499998D02*
X189480000Y-72499998D01*
D12*
X189790849Y-71161190D02*
X189790849Y-70595504D01*
X190356534Y-71161190D02*
X189790849Y-71161190D01*
X189790849Y-70595504D02*
X190356534Y-71161190D01*
D10*
X189978232Y-69934359D02*
X188362493Y-71550098D01*
X188362493Y-71550098D02*
X189401940Y-72589545D01*
X189401940Y-72589545D02*
X191017679Y-70973806D01*
G04 #@! TO.C,D5.5*
X189880000Y-73716664D02*
X190180000Y-73716664D01*
X190030000Y-73716664D02*
X189880000Y-73716664D01*
X189880000Y-73566664D02*
X190030000Y-73716664D01*
X188530000Y-74066664D02*
X189530000Y-75066664D01*
D11*
X188480000Y-74166664D02*
X189480000Y-75166664D01*
D12*
X189790849Y-73827856D02*
X189790849Y-73262170D01*
X190356534Y-73827856D02*
X189790849Y-73827856D01*
X189790849Y-73262170D02*
X190356534Y-73827856D01*
D10*
X189978232Y-72601025D02*
X188362493Y-74216764D01*
X188362493Y-74216764D02*
X189401940Y-75256211D01*
X189401940Y-75256211D02*
X191017679Y-73640472D01*
G04 #@! TO.C,D5.15*
X189880000Y-100383324D02*
X190180000Y-100383324D01*
X190030000Y-100383324D02*
X189880000Y-100383324D01*
X189880000Y-100233324D02*
X190030000Y-100383324D01*
X188530000Y-100733324D02*
X189530000Y-101733324D01*
D11*
X188480000Y-100833324D02*
X189480000Y-101833324D01*
D12*
X189790849Y-100494516D02*
X189790849Y-99928830D01*
X190356534Y-100494516D02*
X189790849Y-100494516D01*
X189790849Y-99928830D02*
X190356534Y-100494516D01*
D10*
X189978232Y-99267685D02*
X188362493Y-100883424D01*
X188362493Y-100883424D02*
X189401940Y-101922871D01*
X189401940Y-101922871D02*
X191017679Y-100307132D01*
G04 #@! TO.C,D5.6*
X189880000Y-76383330D02*
X190180000Y-76383330D01*
X190030000Y-76383330D02*
X189880000Y-76383330D01*
X189880000Y-76233330D02*
X190030000Y-76383330D01*
X188530000Y-76733330D02*
X189530000Y-77733330D01*
D11*
X188480000Y-76833330D02*
X189480000Y-77833330D01*
D12*
X189790849Y-76494522D02*
X189790849Y-75928836D01*
X190356534Y-76494522D02*
X189790849Y-76494522D01*
X189790849Y-75928836D02*
X190356534Y-76494522D01*
D10*
X189978232Y-75267691D02*
X188362493Y-76883430D01*
X188362493Y-76883430D02*
X189401940Y-77922877D01*
X189401940Y-77922877D02*
X191017679Y-76307138D01*
G04 #@! TO.C,D5.7*
X189880000Y-79049996D02*
X190180000Y-79049996D01*
X190030000Y-79049996D02*
X189880000Y-79049996D01*
X189880000Y-78899996D02*
X190030000Y-79049996D01*
X188530000Y-79399996D02*
X189530000Y-80399996D01*
D11*
X188480000Y-79499996D02*
X189480000Y-80499996D01*
D12*
X189790849Y-79161188D02*
X189790849Y-78595502D01*
X190356534Y-79161188D02*
X189790849Y-79161188D01*
X189790849Y-78595502D02*
X190356534Y-79161188D01*
D10*
X189978232Y-77934357D02*
X188362493Y-79550096D01*
X188362493Y-79550096D02*
X189401940Y-80589543D01*
X189401940Y-80589543D02*
X191017679Y-78973804D01*
G04 #@! TO.C,D5.8*
X189880000Y-81716662D02*
X190180000Y-81716662D01*
X190030000Y-81716662D02*
X189880000Y-81716662D01*
X189880000Y-81566662D02*
X190030000Y-81716662D01*
X188530000Y-82066662D02*
X189530000Y-83066662D01*
D11*
X188480000Y-82166662D02*
X189480000Y-83166662D01*
D12*
X189790849Y-81827854D02*
X189790849Y-81262168D01*
X190356534Y-81827854D02*
X189790849Y-81827854D01*
X189790849Y-81262168D02*
X190356534Y-81827854D01*
D10*
X189978232Y-80601023D02*
X188362493Y-82216762D01*
X188362493Y-82216762D02*
X189401940Y-83256209D01*
X189401940Y-83256209D02*
X191017679Y-81640470D01*
G04 #@! TO.C,D5.9*
X189880000Y-84383328D02*
X190180000Y-84383328D01*
X190030000Y-84383328D02*
X189880000Y-84383328D01*
X189880000Y-84233328D02*
X190030000Y-84383328D01*
X188530000Y-84733328D02*
X189530000Y-85733328D01*
D11*
X188480000Y-84833328D02*
X189480000Y-85833328D01*
D12*
X189790849Y-84494520D02*
X189790849Y-83928834D01*
X190356534Y-84494520D02*
X189790849Y-84494520D01*
X189790849Y-83928834D02*
X190356534Y-84494520D01*
D10*
X189978232Y-83267689D02*
X188362493Y-84883428D01*
X188362493Y-84883428D02*
X189401940Y-85922875D01*
X189401940Y-85922875D02*
X191017679Y-84307136D01*
G04 #@! TO.C,D5.10*
X189880000Y-87049994D02*
X190180000Y-87049994D01*
X190030000Y-87049994D02*
X189880000Y-87049994D01*
X189880000Y-86899994D02*
X190030000Y-87049994D01*
X188530000Y-87399994D02*
X189530000Y-88399994D01*
D11*
X188480000Y-87499994D02*
X189480000Y-88499994D01*
D12*
X189790849Y-87161186D02*
X189790849Y-86595500D01*
X190356534Y-87161186D02*
X189790849Y-87161186D01*
X189790849Y-86595500D02*
X190356534Y-87161186D01*
D10*
X189978232Y-85934355D02*
X188362493Y-87550094D01*
X188362493Y-87550094D02*
X189401940Y-88589541D01*
X189401940Y-88589541D02*
X191017679Y-86973802D01*
G04 #@! TO.C,D5.11*
X189880000Y-89716660D02*
X190180000Y-89716660D01*
X190030000Y-89716660D02*
X189880000Y-89716660D01*
X189880000Y-89566660D02*
X190030000Y-89716660D01*
X188530000Y-90066660D02*
X189530000Y-91066660D01*
D11*
X188480000Y-90166660D02*
X189480000Y-91166660D01*
D12*
X189790849Y-89827852D02*
X189790849Y-89262166D01*
X190356534Y-89827852D02*
X189790849Y-89827852D01*
X189790849Y-89262166D02*
X190356534Y-89827852D01*
D10*
X189978232Y-88601021D02*
X188362493Y-90216760D01*
X188362493Y-90216760D02*
X189401940Y-91256207D01*
X189401940Y-91256207D02*
X191017679Y-89640468D01*
G04 #@! TO.C,D5.16*
X189880000Y-103049990D02*
X190180000Y-103049990D01*
X190030000Y-103049990D02*
X189880000Y-103049990D01*
X189880000Y-102899990D02*
X190030000Y-103049990D01*
X188530000Y-103399990D02*
X189530000Y-104399990D01*
D11*
X188480000Y-103499990D02*
X189480000Y-104499990D01*
D12*
X189790849Y-103161182D02*
X189790849Y-102595496D01*
X190356534Y-103161182D02*
X189790849Y-103161182D01*
X189790849Y-102595496D02*
X190356534Y-103161182D01*
D10*
X189978232Y-101934351D02*
X188362493Y-103550090D01*
X188362493Y-103550090D02*
X189401940Y-104589537D01*
X189401940Y-104589537D02*
X191017679Y-102973798D01*
G04 #@! TO.C,D4.14*
X192550000Y-97716658D02*
X192850000Y-97716658D01*
X192700000Y-97716658D02*
X192550000Y-97716658D01*
X192550000Y-97566658D02*
X192700000Y-97716658D01*
X191200000Y-98066658D02*
X192200000Y-99066658D01*
D11*
X191150000Y-98166658D02*
X192150000Y-99166658D01*
D12*
X192460849Y-97827850D02*
X192460849Y-97262164D01*
X193026534Y-97827850D02*
X192460849Y-97827850D01*
X192460849Y-97262164D02*
X193026534Y-97827850D01*
D10*
X192648232Y-96601019D02*
X191032493Y-98216758D01*
X191032493Y-98216758D02*
X192071940Y-99256205D01*
X192071940Y-99256205D02*
X193687679Y-97640466D01*
G04 #@! TO.C,D4.13*
X192550000Y-95049992D02*
X192850000Y-95049992D01*
X192700000Y-95049992D02*
X192550000Y-95049992D01*
X192550000Y-94899992D02*
X192700000Y-95049992D01*
X191200000Y-95399992D02*
X192200000Y-96399992D01*
D11*
X191150000Y-95499992D02*
X192150000Y-96499992D01*
D12*
X192460849Y-95161184D02*
X192460849Y-94595498D01*
X193026534Y-95161184D02*
X192460849Y-95161184D01*
X192460849Y-94595498D02*
X193026534Y-95161184D01*
D10*
X192648232Y-93934353D02*
X191032493Y-95550092D01*
X191032493Y-95550092D02*
X192071940Y-96589539D01*
X192071940Y-96589539D02*
X193687679Y-94973800D01*
G04 #@! TO.C,D4.12*
X192550000Y-92383326D02*
X192850000Y-92383326D01*
X192700000Y-92383326D02*
X192550000Y-92383326D01*
X192550000Y-92233326D02*
X192700000Y-92383326D01*
X191200000Y-92733326D02*
X192200000Y-93733326D01*
D11*
X191150000Y-92833326D02*
X192150000Y-93833326D01*
D12*
X192460849Y-92494518D02*
X192460849Y-91928832D01*
X193026534Y-92494518D02*
X192460849Y-92494518D01*
X192460849Y-91928832D02*
X193026534Y-92494518D01*
D10*
X192648232Y-91267687D02*
X191032493Y-92883426D01*
X191032493Y-92883426D02*
X192071940Y-93922873D01*
X192071940Y-93922873D02*
X193687679Y-92307134D01*
G04 #@! TO.C,D4.1*
X192550000Y-63050000D02*
X192850000Y-63050000D01*
X192700000Y-63050000D02*
X192550000Y-63050000D01*
X192550000Y-62900000D02*
X192700000Y-63050000D01*
X191200000Y-63400000D02*
X192200000Y-64400000D01*
D11*
X191150000Y-63500000D02*
X192150000Y-64500000D01*
D12*
X192460849Y-63161192D02*
X192460849Y-62595506D01*
X193026534Y-63161192D02*
X192460849Y-63161192D01*
X192460849Y-62595506D02*
X193026534Y-63161192D01*
D10*
X192648232Y-61934361D02*
X191032493Y-63550100D01*
X191032493Y-63550100D02*
X192071940Y-64589547D01*
X192071940Y-64589547D02*
X193687679Y-62973808D01*
G04 #@! TO.C,D4.2*
X192550000Y-65716666D02*
X192850000Y-65716666D01*
X192700000Y-65716666D02*
X192550000Y-65716666D01*
X192550000Y-65566666D02*
X192700000Y-65716666D01*
X191200000Y-66066666D02*
X192200000Y-67066666D01*
D11*
X191150000Y-66166666D02*
X192150000Y-67166666D01*
D12*
X192460849Y-65827858D02*
X192460849Y-65262172D01*
X193026534Y-65827858D02*
X192460849Y-65827858D01*
X192460849Y-65262172D02*
X193026534Y-65827858D01*
D10*
X192648232Y-64601027D02*
X191032493Y-66216766D01*
X191032493Y-66216766D02*
X192071940Y-67256213D01*
X192071940Y-67256213D02*
X193687679Y-65640474D01*
G04 #@! TO.C,D4.3*
X192550000Y-68383332D02*
X192850000Y-68383332D01*
X192700000Y-68383332D02*
X192550000Y-68383332D01*
X192550000Y-68233332D02*
X192700000Y-68383332D01*
X191200000Y-68733332D02*
X192200000Y-69733332D01*
D11*
X191150000Y-68833332D02*
X192150000Y-69833332D01*
D12*
X192460849Y-68494524D02*
X192460849Y-67928838D01*
X193026534Y-68494524D02*
X192460849Y-68494524D01*
X192460849Y-67928838D02*
X193026534Y-68494524D01*
D10*
X192648232Y-67267693D02*
X191032493Y-68883432D01*
X191032493Y-68883432D02*
X192071940Y-69922879D01*
X192071940Y-69922879D02*
X193687679Y-68307140D01*
G04 #@! TO.C,D4.4*
X192550000Y-71049998D02*
X192850000Y-71049998D01*
X192700000Y-71049998D02*
X192550000Y-71049998D01*
X192550000Y-70899998D02*
X192700000Y-71049998D01*
X191200000Y-71399998D02*
X192200000Y-72399998D01*
D11*
X191150000Y-71499998D02*
X192150000Y-72499998D01*
D12*
X192460849Y-71161190D02*
X192460849Y-70595504D01*
X193026534Y-71161190D02*
X192460849Y-71161190D01*
X192460849Y-70595504D02*
X193026534Y-71161190D01*
D10*
X192648232Y-69934359D02*
X191032493Y-71550098D01*
X191032493Y-71550098D02*
X192071940Y-72589545D01*
X192071940Y-72589545D02*
X193687679Y-70973806D01*
G04 #@! TO.C,D4.5*
X192550000Y-73716664D02*
X192850000Y-73716664D01*
X192700000Y-73716664D02*
X192550000Y-73716664D01*
X192550000Y-73566664D02*
X192700000Y-73716664D01*
X191200000Y-74066664D02*
X192200000Y-75066664D01*
D11*
X191150000Y-74166664D02*
X192150000Y-75166664D01*
D12*
X192460849Y-73827856D02*
X192460849Y-73262170D01*
X193026534Y-73827856D02*
X192460849Y-73827856D01*
X192460849Y-73262170D02*
X193026534Y-73827856D01*
D10*
X192648232Y-72601025D02*
X191032493Y-74216764D01*
X191032493Y-74216764D02*
X192071940Y-75256211D01*
X192071940Y-75256211D02*
X193687679Y-73640472D01*
G04 #@! TO.C,D4.15*
X192550000Y-100383324D02*
X192850000Y-100383324D01*
X192700000Y-100383324D02*
X192550000Y-100383324D01*
X192550000Y-100233324D02*
X192700000Y-100383324D01*
X191200000Y-100733324D02*
X192200000Y-101733324D01*
D11*
X191150000Y-100833324D02*
X192150000Y-101833324D01*
D12*
X192460849Y-100494516D02*
X192460849Y-99928830D01*
X193026534Y-100494516D02*
X192460849Y-100494516D01*
X192460849Y-99928830D02*
X193026534Y-100494516D01*
D10*
X192648232Y-99267685D02*
X191032493Y-100883424D01*
X191032493Y-100883424D02*
X192071940Y-101922871D01*
X192071940Y-101922871D02*
X193687679Y-100307132D01*
G04 #@! TO.C,D4.6*
X192550000Y-76383330D02*
X192850000Y-76383330D01*
X192700000Y-76383330D02*
X192550000Y-76383330D01*
X192550000Y-76233330D02*
X192700000Y-76383330D01*
X191200000Y-76733330D02*
X192200000Y-77733330D01*
D11*
X191150000Y-76833330D02*
X192150000Y-77833330D01*
D12*
X192460849Y-76494522D02*
X192460849Y-75928836D01*
X193026534Y-76494522D02*
X192460849Y-76494522D01*
X192460849Y-75928836D02*
X193026534Y-76494522D01*
D10*
X192648232Y-75267691D02*
X191032493Y-76883430D01*
X191032493Y-76883430D02*
X192071940Y-77922877D01*
X192071940Y-77922877D02*
X193687679Y-76307138D01*
G04 #@! TO.C,D4.7*
X192550000Y-79049996D02*
X192850000Y-79049996D01*
X192700000Y-79049996D02*
X192550000Y-79049996D01*
X192550000Y-78899996D02*
X192700000Y-79049996D01*
X191200000Y-79399996D02*
X192200000Y-80399996D01*
D11*
X191150000Y-79499996D02*
X192150000Y-80499996D01*
D12*
X192460849Y-79161188D02*
X192460849Y-78595502D01*
X193026534Y-79161188D02*
X192460849Y-79161188D01*
X192460849Y-78595502D02*
X193026534Y-79161188D01*
D10*
X192648232Y-77934357D02*
X191032493Y-79550096D01*
X191032493Y-79550096D02*
X192071940Y-80589543D01*
X192071940Y-80589543D02*
X193687679Y-78973804D01*
G04 #@! TO.C,D4.8*
X192550000Y-81716662D02*
X192850000Y-81716662D01*
X192700000Y-81716662D02*
X192550000Y-81716662D01*
X192550000Y-81566662D02*
X192700000Y-81716662D01*
X191200000Y-82066662D02*
X192200000Y-83066662D01*
D11*
X191150000Y-82166662D02*
X192150000Y-83166662D01*
D12*
X192460849Y-81827854D02*
X192460849Y-81262168D01*
X193026534Y-81827854D02*
X192460849Y-81827854D01*
X192460849Y-81262168D02*
X193026534Y-81827854D01*
D10*
X192648232Y-80601023D02*
X191032493Y-82216762D01*
X191032493Y-82216762D02*
X192071940Y-83256209D01*
X192071940Y-83256209D02*
X193687679Y-81640470D01*
G04 #@! TO.C,D4.9*
X192550000Y-84383328D02*
X192850000Y-84383328D01*
X192700000Y-84383328D02*
X192550000Y-84383328D01*
X192550000Y-84233328D02*
X192700000Y-84383328D01*
X191200000Y-84733328D02*
X192200000Y-85733328D01*
D11*
X191150000Y-84833328D02*
X192150000Y-85833328D01*
D12*
X192460849Y-84494520D02*
X192460849Y-83928834D01*
X193026534Y-84494520D02*
X192460849Y-84494520D01*
X192460849Y-83928834D02*
X193026534Y-84494520D01*
D10*
X192648232Y-83267689D02*
X191032493Y-84883428D01*
X191032493Y-84883428D02*
X192071940Y-85922875D01*
X192071940Y-85922875D02*
X193687679Y-84307136D01*
G04 #@! TO.C,D4.10*
X192550000Y-87049994D02*
X192850000Y-87049994D01*
X192700000Y-87049994D02*
X192550000Y-87049994D01*
X192550000Y-86899994D02*
X192700000Y-87049994D01*
X191200000Y-87399994D02*
X192200000Y-88399994D01*
D11*
X191150000Y-87499994D02*
X192150000Y-88499994D01*
D12*
X192460849Y-87161186D02*
X192460849Y-86595500D01*
X193026534Y-87161186D02*
X192460849Y-87161186D01*
X192460849Y-86595500D02*
X193026534Y-87161186D01*
D10*
X192648232Y-85934355D02*
X191032493Y-87550094D01*
X191032493Y-87550094D02*
X192071940Y-88589541D01*
X192071940Y-88589541D02*
X193687679Y-86973802D01*
G04 #@! TO.C,D4.11*
X192550000Y-89716660D02*
X192850000Y-89716660D01*
X192700000Y-89716660D02*
X192550000Y-89716660D01*
X192550000Y-89566660D02*
X192700000Y-89716660D01*
X191200000Y-90066660D02*
X192200000Y-91066660D01*
D11*
X191150000Y-90166660D02*
X192150000Y-91166660D01*
D12*
X192460849Y-89827852D02*
X192460849Y-89262166D01*
X193026534Y-89827852D02*
X192460849Y-89827852D01*
X192460849Y-89262166D02*
X193026534Y-89827852D01*
D10*
X192648232Y-88601021D02*
X191032493Y-90216760D01*
X191032493Y-90216760D02*
X192071940Y-91256207D01*
X192071940Y-91256207D02*
X193687679Y-89640468D01*
G04 #@! TO.C,D4.16*
X192550000Y-103049990D02*
X192850000Y-103049990D01*
X192700000Y-103049990D02*
X192550000Y-103049990D01*
X192550000Y-102899990D02*
X192700000Y-103049990D01*
X191200000Y-103399990D02*
X192200000Y-104399990D01*
D11*
X191150000Y-103499990D02*
X192150000Y-104499990D01*
D12*
X192460849Y-103161182D02*
X192460849Y-102595496D01*
X193026534Y-103161182D02*
X192460849Y-103161182D01*
X192460849Y-102595496D02*
X193026534Y-103161182D01*
D10*
X192648232Y-101934351D02*
X191032493Y-103550090D01*
X191032493Y-103550090D02*
X192071940Y-104589537D01*
X192071940Y-104589537D02*
X193687679Y-102973798D01*
G04 #@! TO.C,D3.14*
X195210000Y-97716658D02*
X195510000Y-97716658D01*
X195360000Y-97716658D02*
X195210000Y-97716658D01*
X195210000Y-97566658D02*
X195360000Y-97716658D01*
X193860000Y-98066658D02*
X194860000Y-99066658D01*
D11*
X193810000Y-98166658D02*
X194810000Y-99166658D01*
D12*
X195120849Y-97827850D02*
X195120849Y-97262164D01*
X195686534Y-97827850D02*
X195120849Y-97827850D01*
X195120849Y-97262164D02*
X195686534Y-97827850D01*
D10*
X195308232Y-96601019D02*
X193692493Y-98216758D01*
X193692493Y-98216758D02*
X194731940Y-99256205D01*
X194731940Y-99256205D02*
X196347679Y-97640466D01*
G04 #@! TO.C,D3.13*
X195210000Y-95049992D02*
X195510000Y-95049992D01*
X195360000Y-95049992D02*
X195210000Y-95049992D01*
X195210000Y-94899992D02*
X195360000Y-95049992D01*
X193860000Y-95399992D02*
X194860000Y-96399992D01*
D11*
X193810000Y-95499992D02*
X194810000Y-96499992D01*
D12*
X195120849Y-95161184D02*
X195120849Y-94595498D01*
X195686534Y-95161184D02*
X195120849Y-95161184D01*
X195120849Y-94595498D02*
X195686534Y-95161184D01*
D10*
X195308232Y-93934353D02*
X193692493Y-95550092D01*
X193692493Y-95550092D02*
X194731940Y-96589539D01*
X194731940Y-96589539D02*
X196347679Y-94973800D01*
G04 #@! TO.C,D3.12*
X195210000Y-92383326D02*
X195510000Y-92383326D01*
X195360000Y-92383326D02*
X195210000Y-92383326D01*
X195210000Y-92233326D02*
X195360000Y-92383326D01*
X193860000Y-92733326D02*
X194860000Y-93733326D01*
D11*
X193810000Y-92833326D02*
X194810000Y-93833326D01*
D12*
X195120849Y-92494518D02*
X195120849Y-91928832D01*
X195686534Y-92494518D02*
X195120849Y-92494518D01*
X195120849Y-91928832D02*
X195686534Y-92494518D01*
D10*
X195308232Y-91267687D02*
X193692493Y-92883426D01*
X193692493Y-92883426D02*
X194731940Y-93922873D01*
X194731940Y-93922873D02*
X196347679Y-92307134D01*
G04 #@! TO.C,D3.1*
X195210000Y-63050000D02*
X195510000Y-63050000D01*
X195360000Y-63050000D02*
X195210000Y-63050000D01*
X195210000Y-62900000D02*
X195360000Y-63050000D01*
X193860000Y-63400000D02*
X194860000Y-64400000D01*
D11*
X193810000Y-63500000D02*
X194810000Y-64500000D01*
D12*
X195120849Y-63161192D02*
X195120849Y-62595506D01*
X195686534Y-63161192D02*
X195120849Y-63161192D01*
X195120849Y-62595506D02*
X195686534Y-63161192D01*
D10*
X195308232Y-61934361D02*
X193692493Y-63550100D01*
X193692493Y-63550100D02*
X194731940Y-64589547D01*
X194731940Y-64589547D02*
X196347679Y-62973808D01*
G04 #@! TO.C,D3.2*
X195210000Y-65716666D02*
X195510000Y-65716666D01*
X195360000Y-65716666D02*
X195210000Y-65716666D01*
X195210000Y-65566666D02*
X195360000Y-65716666D01*
X193860000Y-66066666D02*
X194860000Y-67066666D01*
D11*
X193810000Y-66166666D02*
X194810000Y-67166666D01*
D12*
X195120849Y-65827858D02*
X195120849Y-65262172D01*
X195686534Y-65827858D02*
X195120849Y-65827858D01*
X195120849Y-65262172D02*
X195686534Y-65827858D01*
D10*
X195308232Y-64601027D02*
X193692493Y-66216766D01*
X193692493Y-66216766D02*
X194731940Y-67256213D01*
X194731940Y-67256213D02*
X196347679Y-65640474D01*
G04 #@! TO.C,D3.4*
X195210000Y-71049998D02*
X195510000Y-71049998D01*
X195360000Y-71049998D02*
X195210000Y-71049998D01*
X195210000Y-70899998D02*
X195360000Y-71049998D01*
X193860000Y-71399998D02*
X194860000Y-72399998D01*
D11*
X193810000Y-71499998D02*
X194810000Y-72499998D01*
D12*
X195120849Y-71161190D02*
X195120849Y-70595504D01*
X195686534Y-71161190D02*
X195120849Y-71161190D01*
X195120849Y-70595504D02*
X195686534Y-71161190D01*
D10*
X195308232Y-69934359D02*
X193692493Y-71550098D01*
X193692493Y-71550098D02*
X194731940Y-72589545D01*
X194731940Y-72589545D02*
X196347679Y-70973806D01*
G04 #@! TO.C,D3.5*
X195210000Y-73716664D02*
X195510000Y-73716664D01*
X195360000Y-73716664D02*
X195210000Y-73716664D01*
X195210000Y-73566664D02*
X195360000Y-73716664D01*
X193860000Y-74066664D02*
X194860000Y-75066664D01*
D11*
X193810000Y-74166664D02*
X194810000Y-75166664D01*
D12*
X195120849Y-73827856D02*
X195120849Y-73262170D01*
X195686534Y-73827856D02*
X195120849Y-73827856D01*
X195120849Y-73262170D02*
X195686534Y-73827856D01*
D10*
X195308232Y-72601025D02*
X193692493Y-74216764D01*
X193692493Y-74216764D02*
X194731940Y-75256211D01*
X194731940Y-75256211D02*
X196347679Y-73640472D01*
G04 #@! TO.C,D3.15*
X195210000Y-100383324D02*
X195510000Y-100383324D01*
X195360000Y-100383324D02*
X195210000Y-100383324D01*
X195210000Y-100233324D02*
X195360000Y-100383324D01*
X193860000Y-100733324D02*
X194860000Y-101733324D01*
D11*
X193810000Y-100833324D02*
X194810000Y-101833324D01*
D12*
X195120849Y-100494516D02*
X195120849Y-99928830D01*
X195686534Y-100494516D02*
X195120849Y-100494516D01*
X195120849Y-99928830D02*
X195686534Y-100494516D01*
D10*
X195308232Y-99267685D02*
X193692493Y-100883424D01*
X193692493Y-100883424D02*
X194731940Y-101922871D01*
X194731940Y-101922871D02*
X196347679Y-100307132D01*
G04 #@! TO.C,D3.6*
X195210000Y-76383330D02*
X195510000Y-76383330D01*
X195360000Y-76383330D02*
X195210000Y-76383330D01*
X195210000Y-76233330D02*
X195360000Y-76383330D01*
X193860000Y-76733330D02*
X194860000Y-77733330D01*
D11*
X193810000Y-76833330D02*
X194810000Y-77833330D01*
D12*
X195120849Y-76494522D02*
X195120849Y-75928836D01*
X195686534Y-76494522D02*
X195120849Y-76494522D01*
X195120849Y-75928836D02*
X195686534Y-76494522D01*
D10*
X195308232Y-75267691D02*
X193692493Y-76883430D01*
X193692493Y-76883430D02*
X194731940Y-77922877D01*
X194731940Y-77922877D02*
X196347679Y-76307138D01*
G04 #@! TO.C,D3.7*
X195210000Y-79049996D02*
X195510000Y-79049996D01*
X195360000Y-79049996D02*
X195210000Y-79049996D01*
X195210000Y-78899996D02*
X195360000Y-79049996D01*
X193860000Y-79399996D02*
X194860000Y-80399996D01*
D11*
X193810000Y-79499996D02*
X194810000Y-80499996D01*
D12*
X195120849Y-79161188D02*
X195120849Y-78595502D01*
X195686534Y-79161188D02*
X195120849Y-79161188D01*
X195120849Y-78595502D02*
X195686534Y-79161188D01*
D10*
X195308232Y-77934357D02*
X193692493Y-79550096D01*
X193692493Y-79550096D02*
X194731940Y-80589543D01*
X194731940Y-80589543D02*
X196347679Y-78973804D01*
G04 #@! TO.C,D3.8*
X195210000Y-81716662D02*
X195510000Y-81716662D01*
X195360000Y-81716662D02*
X195210000Y-81716662D01*
X195210000Y-81566662D02*
X195360000Y-81716662D01*
X193860000Y-82066662D02*
X194860000Y-83066662D01*
D11*
X193810000Y-82166662D02*
X194810000Y-83166662D01*
D12*
X195120849Y-81827854D02*
X195120849Y-81262168D01*
X195686534Y-81827854D02*
X195120849Y-81827854D01*
X195120849Y-81262168D02*
X195686534Y-81827854D01*
D10*
X195308232Y-80601023D02*
X193692493Y-82216762D01*
X193692493Y-82216762D02*
X194731940Y-83256209D01*
X194731940Y-83256209D02*
X196347679Y-81640470D01*
G04 #@! TO.C,D3.9*
X195210000Y-84383328D02*
X195510000Y-84383328D01*
X195360000Y-84383328D02*
X195210000Y-84383328D01*
X195210000Y-84233328D02*
X195360000Y-84383328D01*
X193860000Y-84733328D02*
X194860000Y-85733328D01*
D11*
X193810000Y-84833328D02*
X194810000Y-85833328D01*
D12*
X195120849Y-84494520D02*
X195120849Y-83928834D01*
X195686534Y-84494520D02*
X195120849Y-84494520D01*
X195120849Y-83928834D02*
X195686534Y-84494520D01*
D10*
X195308232Y-83267689D02*
X193692493Y-84883428D01*
X193692493Y-84883428D02*
X194731940Y-85922875D01*
X194731940Y-85922875D02*
X196347679Y-84307136D01*
G04 #@! TO.C,D3.10*
X195210000Y-87049994D02*
X195510000Y-87049994D01*
X195360000Y-87049994D02*
X195210000Y-87049994D01*
X195210000Y-86899994D02*
X195360000Y-87049994D01*
X193860000Y-87399994D02*
X194860000Y-88399994D01*
D11*
X193810000Y-87499994D02*
X194810000Y-88499994D01*
D12*
X195120849Y-87161186D02*
X195120849Y-86595500D01*
X195686534Y-87161186D02*
X195120849Y-87161186D01*
X195120849Y-86595500D02*
X195686534Y-87161186D01*
D10*
X195308232Y-85934355D02*
X193692493Y-87550094D01*
X193692493Y-87550094D02*
X194731940Y-88589541D01*
X194731940Y-88589541D02*
X196347679Y-86973802D01*
G04 #@! TO.C,D3.11*
X195210000Y-89716660D02*
X195510000Y-89716660D01*
X195360000Y-89716660D02*
X195210000Y-89716660D01*
X195210000Y-89566660D02*
X195360000Y-89716660D01*
X193860000Y-90066660D02*
X194860000Y-91066660D01*
D11*
X193810000Y-90166660D02*
X194810000Y-91166660D01*
D12*
X195120849Y-89827852D02*
X195120849Y-89262166D01*
X195686534Y-89827852D02*
X195120849Y-89827852D01*
X195120849Y-89262166D02*
X195686534Y-89827852D01*
D10*
X195308232Y-88601021D02*
X193692493Y-90216760D01*
X193692493Y-90216760D02*
X194731940Y-91256207D01*
X194731940Y-91256207D02*
X196347679Y-89640468D01*
G04 #@! TO.C,D3.16*
X195210000Y-103049990D02*
X195510000Y-103049990D01*
X195360000Y-103049990D02*
X195210000Y-103049990D01*
X195210000Y-102899990D02*
X195360000Y-103049990D01*
X193860000Y-103399990D02*
X194860000Y-104399990D01*
D11*
X193810000Y-103499990D02*
X194810000Y-104499990D01*
D12*
X195120849Y-103161182D02*
X195120849Y-102595496D01*
X195686534Y-103161182D02*
X195120849Y-103161182D01*
X195120849Y-102595496D02*
X195686534Y-103161182D01*
D10*
X195308232Y-101934351D02*
X193692493Y-103550090D01*
X193692493Y-103550090D02*
X194731940Y-104589537D01*
X194731940Y-104589537D02*
X196347679Y-102973798D01*
G04 #@! TO.C,D2.16*
X197880000Y-103049990D02*
X198180000Y-103049990D01*
X198030000Y-103049990D02*
X197880000Y-103049990D01*
X197880000Y-102899990D02*
X198030000Y-103049990D01*
X196530000Y-103399990D02*
X197530000Y-104399990D01*
D11*
X196480000Y-103499990D02*
X197480000Y-104499990D01*
D12*
X197790849Y-103161182D02*
X197790849Y-102595496D01*
X198356534Y-103161182D02*
X197790849Y-103161182D01*
X197790849Y-102595496D02*
X198356534Y-103161182D01*
D10*
X197978232Y-101934351D02*
X196362493Y-103550090D01*
X196362493Y-103550090D02*
X197401940Y-104589537D01*
X197401940Y-104589537D02*
X199017679Y-102973798D01*
G04 #@! TO.C,D2.9*
X197880000Y-84383328D02*
X198180000Y-84383328D01*
X198030000Y-84383328D02*
X197880000Y-84383328D01*
X197880000Y-84233328D02*
X198030000Y-84383328D01*
X196530000Y-84733328D02*
X197530000Y-85733328D01*
D11*
X196480000Y-84833328D02*
X197480000Y-85833328D01*
D12*
X197790849Y-84494520D02*
X197790849Y-83928834D01*
X198356534Y-84494520D02*
X197790849Y-84494520D01*
X197790849Y-83928834D02*
X198356534Y-84494520D01*
D10*
X197978232Y-83267689D02*
X196362493Y-84883428D01*
X196362493Y-84883428D02*
X197401940Y-85922875D01*
X197401940Y-85922875D02*
X199017679Y-84307136D01*
G04 #@! TO.C,D2.8*
X197880000Y-81716662D02*
X198180000Y-81716662D01*
X198030000Y-81716662D02*
X197880000Y-81716662D01*
X197880000Y-81566662D02*
X198030000Y-81716662D01*
X196530000Y-82066662D02*
X197530000Y-83066662D01*
D11*
X196480000Y-82166662D02*
X197480000Y-83166662D01*
D12*
X197790849Y-81827854D02*
X197790849Y-81262168D01*
X198356534Y-81827854D02*
X197790849Y-81827854D01*
X197790849Y-81262168D02*
X198356534Y-81827854D01*
D10*
X197978232Y-80601023D02*
X196362493Y-82216762D01*
X196362493Y-82216762D02*
X197401940Y-83256209D01*
X197401940Y-83256209D02*
X199017679Y-81640470D01*
G04 #@! TO.C,D2.7*
X197880000Y-79049996D02*
X198180000Y-79049996D01*
X198030000Y-79049996D02*
X197880000Y-79049996D01*
X197880000Y-78899996D02*
X198030000Y-79049996D01*
X196530000Y-79399996D02*
X197530000Y-80399996D01*
D11*
X196480000Y-79499996D02*
X197480000Y-80499996D01*
D12*
X197790849Y-79161188D02*
X197790849Y-78595502D01*
X198356534Y-79161188D02*
X197790849Y-79161188D01*
X197790849Y-78595502D02*
X198356534Y-79161188D01*
D10*
X197978232Y-77934357D02*
X196362493Y-79550096D01*
X196362493Y-79550096D02*
X197401940Y-80589543D01*
X197401940Y-80589543D02*
X199017679Y-78973804D01*
G04 #@! TO.C,D2.6*
X197880000Y-76383330D02*
X198180000Y-76383330D01*
X198030000Y-76383330D02*
X197880000Y-76383330D01*
X197880000Y-76233330D02*
X198030000Y-76383330D01*
X196530000Y-76733330D02*
X197530000Y-77733330D01*
D11*
X196480000Y-76833330D02*
X197480000Y-77833330D01*
D12*
X197790849Y-76494522D02*
X197790849Y-75928836D01*
X198356534Y-76494522D02*
X197790849Y-76494522D01*
X197790849Y-75928836D02*
X198356534Y-76494522D01*
D10*
X197978232Y-75267691D02*
X196362493Y-76883430D01*
X196362493Y-76883430D02*
X197401940Y-77922877D01*
X197401940Y-77922877D02*
X199017679Y-76307138D01*
G04 #@! TO.C,D2.5*
X197880000Y-73716664D02*
X198180000Y-73716664D01*
X198030000Y-73716664D02*
X197880000Y-73716664D01*
X197880000Y-73566664D02*
X198030000Y-73716664D01*
X196530000Y-74066664D02*
X197530000Y-75066664D01*
D11*
X196480000Y-74166664D02*
X197480000Y-75166664D01*
D12*
X197790849Y-73827856D02*
X197790849Y-73262170D01*
X198356534Y-73827856D02*
X197790849Y-73827856D01*
X197790849Y-73262170D02*
X198356534Y-73827856D01*
D10*
X197978232Y-72601025D02*
X196362493Y-74216764D01*
X196362493Y-74216764D02*
X197401940Y-75256211D01*
X197401940Y-75256211D02*
X199017679Y-73640472D01*
G04 #@! TO.C,D2.4*
X197880000Y-71049998D02*
X198180000Y-71049998D01*
X198030000Y-71049998D02*
X197880000Y-71049998D01*
X197880000Y-70899998D02*
X198030000Y-71049998D01*
X196530000Y-71399998D02*
X197530000Y-72399998D01*
D11*
X196480000Y-71499998D02*
X197480000Y-72499998D01*
D12*
X197790849Y-71161190D02*
X197790849Y-70595504D01*
X198356534Y-71161190D02*
X197790849Y-71161190D01*
X197790849Y-70595504D02*
X198356534Y-71161190D01*
D10*
X197978232Y-69934359D02*
X196362493Y-71550098D01*
X196362493Y-71550098D02*
X197401940Y-72589545D01*
X197401940Y-72589545D02*
X199017679Y-70973806D01*
G04 #@! TO.C,D2.12*
X197880000Y-92383326D02*
X198180000Y-92383326D01*
X198030000Y-92383326D02*
X197880000Y-92383326D01*
X197880000Y-92233326D02*
X198030000Y-92383326D01*
X196530000Y-92733326D02*
X197530000Y-93733326D01*
D11*
X196480000Y-92833326D02*
X197480000Y-93833326D01*
D12*
X197790849Y-92494518D02*
X197790849Y-91928832D01*
X198356534Y-92494518D02*
X197790849Y-92494518D01*
X197790849Y-91928832D02*
X198356534Y-92494518D01*
D10*
X197978232Y-91267687D02*
X196362493Y-92883426D01*
X196362493Y-92883426D02*
X197401940Y-93922873D01*
X197401940Y-93922873D02*
X199017679Y-92307134D01*
G04 #@! TO.C,D2.15*
X197880000Y-100383324D02*
X198180000Y-100383324D01*
X198030000Y-100383324D02*
X197880000Y-100383324D01*
X197880000Y-100233324D02*
X198030000Y-100383324D01*
X196530000Y-100733324D02*
X197530000Y-101733324D01*
D11*
X196480000Y-100833324D02*
X197480000Y-101833324D01*
D12*
X197790849Y-100494516D02*
X197790849Y-99928830D01*
X198356534Y-100494516D02*
X197790849Y-100494516D01*
X197790849Y-99928830D02*
X198356534Y-100494516D01*
D10*
X197978232Y-99267685D02*
X196362493Y-100883424D01*
X196362493Y-100883424D02*
X197401940Y-101922871D01*
X197401940Y-101922871D02*
X199017679Y-100307132D01*
G04 #@! TO.C,D2.10*
X197880000Y-87049994D02*
X198180000Y-87049994D01*
X198030000Y-87049994D02*
X197880000Y-87049994D01*
X197880000Y-86899994D02*
X198030000Y-87049994D01*
X196530000Y-87399994D02*
X197530000Y-88399994D01*
D11*
X196480000Y-87499994D02*
X197480000Y-88499994D01*
D12*
X197790849Y-87161186D02*
X197790849Y-86595500D01*
X198356534Y-87161186D02*
X197790849Y-87161186D01*
X197790849Y-86595500D02*
X198356534Y-87161186D01*
D10*
X197978232Y-85934355D02*
X196362493Y-87550094D01*
X196362493Y-87550094D02*
X197401940Y-88589541D01*
X197401940Y-88589541D02*
X199017679Y-86973802D01*
G04 #@! TO.C,D2.13*
X197880000Y-95049992D02*
X198180000Y-95049992D01*
X198030000Y-95049992D02*
X197880000Y-95049992D01*
X197880000Y-94899992D02*
X198030000Y-95049992D01*
X196530000Y-95399992D02*
X197530000Y-96399992D01*
D11*
X196480000Y-95499992D02*
X197480000Y-96499992D01*
D12*
X197790849Y-95161184D02*
X197790849Y-94595498D01*
X198356534Y-95161184D02*
X197790849Y-95161184D01*
X197790849Y-94595498D02*
X198356534Y-95161184D01*
D10*
X197978232Y-93934353D02*
X196362493Y-95550092D01*
X196362493Y-95550092D02*
X197401940Y-96589539D01*
X197401940Y-96589539D02*
X199017679Y-94973800D01*
G04 #@! TO.C,D2.3*
X197880000Y-68383332D02*
X198180000Y-68383332D01*
X198030000Y-68383332D02*
X197880000Y-68383332D01*
X197880000Y-68233332D02*
X198030000Y-68383332D01*
X196530000Y-68733332D02*
X197530000Y-69733332D01*
D11*
X196480000Y-68833332D02*
X197480000Y-69833332D01*
D12*
X197790849Y-68494524D02*
X197790849Y-67928838D01*
X198356534Y-68494524D02*
X197790849Y-68494524D01*
X197790849Y-67928838D02*
X198356534Y-68494524D01*
D10*
X197978232Y-67267693D02*
X196362493Y-68883432D01*
X196362493Y-68883432D02*
X197401940Y-69922879D01*
X197401940Y-69922879D02*
X199017679Y-68307140D01*
G04 #@! TO.C,D2.2*
X197880000Y-65716666D02*
X198180000Y-65716666D01*
X198030000Y-65716666D02*
X197880000Y-65716666D01*
X197880000Y-65566666D02*
X198030000Y-65716666D01*
X196530000Y-66066666D02*
X197530000Y-67066666D01*
D11*
X196480000Y-66166666D02*
X197480000Y-67166666D01*
D12*
X197790849Y-65827858D02*
X197790849Y-65262172D01*
X198356534Y-65827858D02*
X197790849Y-65827858D01*
X197790849Y-65262172D02*
X198356534Y-65827858D01*
D10*
X197978232Y-64601027D02*
X196362493Y-66216766D01*
X196362493Y-66216766D02*
X197401940Y-67256213D01*
X197401940Y-67256213D02*
X199017679Y-65640474D01*
G04 #@! TO.C,D2.1*
X197880000Y-63050000D02*
X198180000Y-63050000D01*
X198030000Y-63050000D02*
X197880000Y-63050000D01*
X197880000Y-62900000D02*
X198030000Y-63050000D01*
X196530000Y-63400000D02*
X197530000Y-64400000D01*
D11*
X196480000Y-63500000D02*
X197480000Y-64500000D01*
D12*
X197790849Y-63161192D02*
X197790849Y-62595506D01*
X198356534Y-63161192D02*
X197790849Y-63161192D01*
X197790849Y-62595506D02*
X198356534Y-63161192D01*
D10*
X197978232Y-61934361D02*
X196362493Y-63550100D01*
X196362493Y-63550100D02*
X197401940Y-64589547D01*
X197401940Y-64589547D02*
X199017679Y-62973808D01*
G04 #@! TO.C,D2.14*
X197880000Y-97716658D02*
X198180000Y-97716658D01*
X198030000Y-97716658D02*
X197880000Y-97716658D01*
X197880000Y-97566658D02*
X198030000Y-97716658D01*
X196530000Y-98066658D02*
X197530000Y-99066658D01*
D11*
X196480000Y-98166658D02*
X197480000Y-99166658D01*
D12*
X197790849Y-97827850D02*
X197790849Y-97262164D01*
X198356534Y-97827850D02*
X197790849Y-97827850D01*
X197790849Y-97262164D02*
X198356534Y-97827850D01*
D10*
X197978232Y-96601019D02*
X196362493Y-98216758D01*
X196362493Y-98216758D02*
X197401940Y-99256205D01*
X197401940Y-99256205D02*
X199017679Y-97640466D01*
G04 #@! TO.C,D2.11*
X197880000Y-89716660D02*
X198180000Y-89716660D01*
X198030000Y-89716660D02*
X197880000Y-89716660D01*
X197880000Y-89566660D02*
X198030000Y-89716660D01*
X196530000Y-90066660D02*
X197530000Y-91066660D01*
D11*
X196480000Y-90166660D02*
X197480000Y-91166660D01*
D12*
X197790849Y-89827852D02*
X197790849Y-89262166D01*
X198356534Y-89827852D02*
X197790849Y-89827852D01*
X197790849Y-89262166D02*
X198356534Y-89827852D01*
D10*
X197978232Y-88601021D02*
X196362493Y-90216760D01*
X196362493Y-90216760D02*
X197401940Y-91256207D01*
X197401940Y-91256207D02*
X199017679Y-89640468D01*
G04 #@! TO.C,D1.2*
X200550000Y-65716666D02*
X200850000Y-65716666D01*
X200700000Y-65716666D02*
X200550000Y-65716666D01*
X200550000Y-65566666D02*
X200700000Y-65716666D01*
X199200000Y-66066666D02*
X200200000Y-67066666D01*
D11*
X199150000Y-66166666D02*
X200150000Y-67166666D01*
D12*
X200460849Y-65827858D02*
X200460849Y-65262172D01*
X201026534Y-65827858D02*
X200460849Y-65827858D01*
X200460849Y-65262172D02*
X201026534Y-65827858D01*
D10*
X200648232Y-64601027D02*
X199032493Y-66216766D01*
X199032493Y-66216766D02*
X200071940Y-67256213D01*
X200071940Y-67256213D02*
X201687679Y-65640474D01*
G04 #@! TO.C,D1.16*
X200550000Y-103049990D02*
X200850000Y-103049990D01*
X200700000Y-103049990D02*
X200550000Y-103049990D01*
X200550000Y-102899990D02*
X200700000Y-103049990D01*
X199200000Y-103399990D02*
X200200000Y-104399990D01*
D11*
X199150000Y-103499990D02*
X200150000Y-104499990D01*
D12*
X200460849Y-103161182D02*
X200460849Y-102595496D01*
X201026534Y-103161182D02*
X200460849Y-103161182D01*
X200460849Y-102595496D02*
X201026534Y-103161182D01*
D10*
X200648232Y-101934351D02*
X199032493Y-103550090D01*
X199032493Y-103550090D02*
X200071940Y-104589537D01*
X200071940Y-104589537D02*
X201687679Y-102973798D01*
G04 #@! TO.C,D1.3*
X200550000Y-68383332D02*
X200850000Y-68383332D01*
X200700000Y-68383332D02*
X200550000Y-68383332D01*
X200550000Y-68233332D02*
X200700000Y-68383332D01*
X199200000Y-68733332D02*
X200200000Y-69733332D01*
D11*
X199150000Y-68833332D02*
X200150000Y-69833332D01*
D12*
X200460849Y-68494524D02*
X200460849Y-67928838D01*
X201026534Y-68494524D02*
X200460849Y-68494524D01*
X200460849Y-67928838D02*
X201026534Y-68494524D01*
D10*
X200648232Y-67267693D02*
X199032493Y-68883432D01*
X199032493Y-68883432D02*
X200071940Y-69922879D01*
X200071940Y-69922879D02*
X201687679Y-68307140D01*
G04 #@! TO.C,D1.4*
X200550000Y-71049998D02*
X200850000Y-71049998D01*
X200700000Y-71049998D02*
X200550000Y-71049998D01*
X200550000Y-70899998D02*
X200700000Y-71049998D01*
X199200000Y-71399998D02*
X200200000Y-72399998D01*
D11*
X199150000Y-71499998D02*
X200150000Y-72499998D01*
D12*
X200460849Y-71161190D02*
X200460849Y-70595504D01*
X201026534Y-71161190D02*
X200460849Y-71161190D01*
X200460849Y-70595504D02*
X201026534Y-71161190D01*
D10*
X200648232Y-69934359D02*
X199032493Y-71550098D01*
X199032493Y-71550098D02*
X200071940Y-72589545D01*
X200071940Y-72589545D02*
X201687679Y-70973806D01*
G04 #@! TO.C,D1.5*
X200550000Y-73716664D02*
X200850000Y-73716664D01*
X200700000Y-73716664D02*
X200550000Y-73716664D01*
X200550000Y-73566664D02*
X200700000Y-73716664D01*
X199200000Y-74066664D02*
X200200000Y-75066664D01*
D11*
X199150000Y-74166664D02*
X200150000Y-75166664D01*
D12*
X200460849Y-73827856D02*
X200460849Y-73262170D01*
X201026534Y-73827856D02*
X200460849Y-73827856D01*
X200460849Y-73262170D02*
X201026534Y-73827856D01*
D10*
X200648232Y-72601025D02*
X199032493Y-74216764D01*
X199032493Y-74216764D02*
X200071940Y-75256211D01*
X200071940Y-75256211D02*
X201687679Y-73640472D01*
G04 #@! TO.C,D1.15*
X200550000Y-100383324D02*
X200850000Y-100383324D01*
X200700000Y-100383324D02*
X200550000Y-100383324D01*
X200550000Y-100233324D02*
X200700000Y-100383324D01*
X199200000Y-100733324D02*
X200200000Y-101733324D01*
D11*
X199150000Y-100833324D02*
X200150000Y-101833324D01*
D12*
X200460849Y-100494516D02*
X200460849Y-99928830D01*
X201026534Y-100494516D02*
X200460849Y-100494516D01*
X200460849Y-99928830D02*
X201026534Y-100494516D01*
D10*
X200648232Y-99267685D02*
X199032493Y-100883424D01*
X199032493Y-100883424D02*
X200071940Y-101922871D01*
X200071940Y-101922871D02*
X201687679Y-100307132D01*
G04 #@! TO.C,D1.6*
X200550000Y-76383330D02*
X200850000Y-76383330D01*
X200700000Y-76383330D02*
X200550000Y-76383330D01*
X200550000Y-76233330D02*
X200700000Y-76383330D01*
X199200000Y-76733330D02*
X200200000Y-77733330D01*
D11*
X199150000Y-76833330D02*
X200150000Y-77833330D01*
D12*
X200460849Y-76494522D02*
X200460849Y-75928836D01*
X201026534Y-76494522D02*
X200460849Y-76494522D01*
X200460849Y-75928836D02*
X201026534Y-76494522D01*
D10*
X200648232Y-75267691D02*
X199032493Y-76883430D01*
X199032493Y-76883430D02*
X200071940Y-77922877D01*
X200071940Y-77922877D02*
X201687679Y-76307138D01*
G04 #@! TO.C,D1.7*
X200550000Y-79049996D02*
X200850000Y-79049996D01*
X200700000Y-79049996D02*
X200550000Y-79049996D01*
X200550000Y-78899996D02*
X200700000Y-79049996D01*
X199200000Y-79399996D02*
X200200000Y-80399996D01*
D11*
X199150000Y-79499996D02*
X200150000Y-80499996D01*
D12*
X200460849Y-79161188D02*
X200460849Y-78595502D01*
X201026534Y-79161188D02*
X200460849Y-79161188D01*
X200460849Y-78595502D02*
X201026534Y-79161188D01*
D10*
X200648232Y-77934357D02*
X199032493Y-79550096D01*
X199032493Y-79550096D02*
X200071940Y-80589543D01*
X200071940Y-80589543D02*
X201687679Y-78973804D01*
G04 #@! TO.C,D1.8*
X200550000Y-81716662D02*
X200850000Y-81716662D01*
X200700000Y-81716662D02*
X200550000Y-81716662D01*
X200550000Y-81566662D02*
X200700000Y-81716662D01*
X199200000Y-82066662D02*
X200200000Y-83066662D01*
D11*
X199150000Y-82166662D02*
X200150000Y-83166662D01*
D12*
X200460849Y-81827854D02*
X200460849Y-81262168D01*
X201026534Y-81827854D02*
X200460849Y-81827854D01*
X200460849Y-81262168D02*
X201026534Y-81827854D01*
D10*
X200648232Y-80601023D02*
X199032493Y-82216762D01*
X199032493Y-82216762D02*
X200071940Y-83256209D01*
X200071940Y-83256209D02*
X201687679Y-81640470D01*
G04 #@! TO.C,D1.9*
X200550000Y-84383328D02*
X200850000Y-84383328D01*
X200700000Y-84383328D02*
X200550000Y-84383328D01*
X200550000Y-84233328D02*
X200700000Y-84383328D01*
X199200000Y-84733328D02*
X200200000Y-85733328D01*
D11*
X199150000Y-84833328D02*
X200150000Y-85833328D01*
D12*
X200460849Y-84494520D02*
X200460849Y-83928834D01*
X201026534Y-84494520D02*
X200460849Y-84494520D01*
X200460849Y-83928834D02*
X201026534Y-84494520D01*
D10*
X200648232Y-83267689D02*
X199032493Y-84883428D01*
X199032493Y-84883428D02*
X200071940Y-85922875D01*
X200071940Y-85922875D02*
X201687679Y-84307136D01*
G04 #@! TO.C,D1.14*
X200550000Y-97716658D02*
X200850000Y-97716658D01*
X200700000Y-97716658D02*
X200550000Y-97716658D01*
X200550000Y-97566658D02*
X200700000Y-97716658D01*
X199200000Y-98066658D02*
X200200000Y-99066658D01*
D11*
X199150000Y-98166658D02*
X200150000Y-99166658D01*
D12*
X200460849Y-97827850D02*
X200460849Y-97262164D01*
X201026534Y-97827850D02*
X200460849Y-97827850D01*
X200460849Y-97262164D02*
X201026534Y-97827850D01*
D10*
X200648232Y-96601019D02*
X199032493Y-98216758D01*
X199032493Y-98216758D02*
X200071940Y-99256205D01*
X200071940Y-99256205D02*
X201687679Y-97640466D01*
G04 #@! TO.C,D1.13*
X200550000Y-95049992D02*
X200850000Y-95049992D01*
X200700000Y-95049992D02*
X200550000Y-95049992D01*
X200550000Y-94899992D02*
X200700000Y-95049992D01*
X199200000Y-95399992D02*
X200200000Y-96399992D01*
D11*
X199150000Y-95499992D02*
X200150000Y-96499992D01*
D12*
X200460849Y-95161184D02*
X200460849Y-94595498D01*
X201026534Y-95161184D02*
X200460849Y-95161184D01*
X200460849Y-94595498D02*
X201026534Y-95161184D01*
D10*
X200648232Y-93934353D02*
X199032493Y-95550092D01*
X199032493Y-95550092D02*
X200071940Y-96589539D01*
X200071940Y-96589539D02*
X201687679Y-94973800D01*
G04 #@! TO.C,D1.10*
X200550000Y-87049994D02*
X200850000Y-87049994D01*
X200700000Y-87049994D02*
X200550000Y-87049994D01*
X200550000Y-86899994D02*
X200700000Y-87049994D01*
X199200000Y-87399994D02*
X200200000Y-88399994D01*
D11*
X199150000Y-87499994D02*
X200150000Y-88499994D01*
D12*
X200460849Y-87161186D02*
X200460849Y-86595500D01*
X201026534Y-87161186D02*
X200460849Y-87161186D01*
X200460849Y-86595500D02*
X201026534Y-87161186D01*
D10*
X200648232Y-85934355D02*
X199032493Y-87550094D01*
X199032493Y-87550094D02*
X200071940Y-88589541D01*
X200071940Y-88589541D02*
X201687679Y-86973802D01*
G04 #@! TO.C,D1.1*
X200550000Y-63050000D02*
X200850000Y-63050000D01*
X200700000Y-63050000D02*
X200550000Y-63050000D01*
X200550000Y-62900000D02*
X200700000Y-63050000D01*
X199200000Y-63400000D02*
X200200000Y-64400000D01*
D11*
X199150000Y-63500000D02*
X200150000Y-64500000D01*
D12*
X200460849Y-63161192D02*
X200460849Y-62595506D01*
X201026534Y-63161192D02*
X200460849Y-63161192D01*
X200460849Y-62595506D02*
X201026534Y-63161192D01*
D10*
X200648232Y-61934361D02*
X199032493Y-63550100D01*
X199032493Y-63550100D02*
X200071940Y-64589547D01*
X200071940Y-64589547D02*
X201687679Y-62973808D01*
G04 #@! TO.C,D1.12*
X200550000Y-92383326D02*
X200850000Y-92383326D01*
X200700000Y-92383326D02*
X200550000Y-92383326D01*
X200550000Y-92233326D02*
X200700000Y-92383326D01*
X199200000Y-92733326D02*
X200200000Y-93733326D01*
D11*
X199150000Y-92833326D02*
X200150000Y-93833326D01*
D12*
X200460849Y-92494518D02*
X200460849Y-91928832D01*
X201026534Y-92494518D02*
X200460849Y-92494518D01*
X200460849Y-91928832D02*
X201026534Y-92494518D01*
D10*
X200648232Y-91267687D02*
X199032493Y-92883426D01*
X199032493Y-92883426D02*
X200071940Y-93922873D01*
X200071940Y-93922873D02*
X201687679Y-92307134D01*
G04 #@! TO.C,D1.11*
X200550000Y-89716660D02*
X200850000Y-89716660D01*
X200700000Y-89716660D02*
X200550000Y-89716660D01*
X200550000Y-89566660D02*
X200700000Y-89716660D01*
X199200000Y-90066660D02*
X200200000Y-91066660D01*
D11*
X199150000Y-90166660D02*
X200150000Y-91166660D01*
D12*
X200460849Y-89827852D02*
X200460849Y-89262166D01*
X201026534Y-89827852D02*
X200460849Y-89827852D01*
X200460849Y-89262166D02*
X201026534Y-89827852D01*
D10*
X200648232Y-88601021D02*
X199032493Y-90216760D01*
X199032493Y-90216760D02*
X200071940Y-91256207D01*
X200071940Y-91256207D02*
X201687679Y-89640468D01*
G04 #@! TD*
M02*
