G04 #@! TF.GenerationSoftware,KiCad,Pcbnew,(5.1.12-1-10_14)*
G04 #@! TF.CreationDate,2021-12-27T13:20:27-05:00*
G04 #@! TF.ProjectId,ledtrix,6c656474-7269-4782-9e6b-696361645f70,rev?*
G04 #@! TF.SameCoordinates,Original*
G04 #@! TF.FileFunction,Legend,Bot*
G04 #@! TF.FilePolarity,Positive*
%FSLAX46Y46*%
G04 Gerber Fmt 4.6, Leading zero omitted, Abs format (unit mm)*
G04 Created by KiCad (PCBNEW (5.1.12-1-10_14)) date 2021-12-27 13:20:27*
%MOMM*%
%LPD*%
G01*
G04 APERTURE LIST*
%ADD10C,0.150000*%
G04 APERTURE END LIST*
D10*
X207132380Y-79767942D02*
X207846666Y-79767942D01*
X207989523Y-79720323D01*
X208084761Y-79625085D01*
X208132380Y-79482228D01*
X208132380Y-79386990D01*
X208132380Y-80720323D02*
X208132380Y-80244132D01*
X207132380Y-80244132D01*
X208037142Y-81625085D02*
X208084761Y-81577466D01*
X208132380Y-81434609D01*
X208132380Y-81339370D01*
X208084761Y-81196513D01*
X207989523Y-81101275D01*
X207894285Y-81053656D01*
X207703809Y-81006037D01*
X207560952Y-81006037D01*
X207370476Y-81053656D01*
X207275238Y-81101275D01*
X207180000Y-81196513D01*
X207132380Y-81339370D01*
X207132380Y-81434609D01*
X207180000Y-81577466D01*
X207227619Y-81625085D01*
X207132380Y-82339370D02*
X207846666Y-82339370D01*
X207989523Y-82291751D01*
X208084761Y-82196513D01*
X208132380Y-82053656D01*
X208132380Y-81958418D01*
X208132380Y-83291751D02*
X208132380Y-82815561D01*
X207132380Y-82815561D01*
X208037142Y-84196513D02*
X208084761Y-84148894D01*
X208132380Y-84006037D01*
X208132380Y-83910799D01*
X208084761Y-83767942D01*
X207989523Y-83672704D01*
X207894285Y-83625085D01*
X207703809Y-83577466D01*
X207560952Y-83577466D01*
X207370476Y-83625085D01*
X207275238Y-83672704D01*
X207180000Y-83767942D01*
X207132380Y-83910799D01*
X207132380Y-84006037D01*
X207180000Y-84148894D01*
X207227619Y-84196513D01*
X207132380Y-84910799D02*
X207846666Y-84910799D01*
X207989523Y-84863180D01*
X208084761Y-84767942D01*
X208132380Y-84625085D01*
X208132380Y-84529847D01*
X208132380Y-85863180D02*
X208132380Y-85386990D01*
X207132380Y-85386990D01*
X208037142Y-86767942D02*
X208084761Y-86720323D01*
X208132380Y-86577466D01*
X208132380Y-86482228D01*
X208084761Y-86339370D01*
X207989523Y-86244132D01*
X207894285Y-86196513D01*
X207703809Y-86148894D01*
X207560952Y-86148894D01*
X207370476Y-86196513D01*
X207275238Y-86244132D01*
X207180000Y-86339370D01*
X207132380Y-86482228D01*
X207132380Y-86577466D01*
X207180000Y-86720323D01*
X207227619Y-86767942D01*
X207132380Y-87482228D02*
X207846666Y-87482228D01*
X207989523Y-87434609D01*
X208084761Y-87339370D01*
X208132380Y-87196513D01*
X208132380Y-87101275D01*
X208132380Y-88434609D02*
X208132380Y-87958418D01*
X207132380Y-87958418D01*
X208037142Y-89339370D02*
X208084761Y-89291751D01*
X208132380Y-89148894D01*
X208132380Y-89053656D01*
X208084761Y-88910799D01*
X207989523Y-88815561D01*
X207894285Y-88767942D01*
X207703809Y-88720323D01*
X207560952Y-88720323D01*
X207370476Y-88767942D01*
X207275238Y-88815561D01*
X207180000Y-88910799D01*
X207132380Y-89053656D01*
X207132380Y-89148894D01*
X207180000Y-89291751D01*
X207227619Y-89339370D01*
X193509523Y-66337370D02*
X193985714Y-66337370D01*
X193985714Y-65337370D01*
X193176190Y-65813561D02*
X192842857Y-65813561D01*
X192700000Y-66337370D02*
X193176190Y-66337370D01*
X193176190Y-65337370D01*
X192700000Y-65337370D01*
X192271428Y-66337370D02*
X192271428Y-65337370D01*
X192033333Y-65337370D01*
X191890476Y-65384990D01*
X191795238Y-65480228D01*
X191747619Y-65575466D01*
X191700000Y-65765942D01*
X191700000Y-65908799D01*
X191747619Y-66099275D01*
X191795238Y-66194513D01*
X191890476Y-66289751D01*
X192033333Y-66337370D01*
X192271428Y-66337370D01*
X191414285Y-65337370D02*
X190842857Y-65337370D01*
X191128571Y-66337370D02*
X191128571Y-65337370D01*
X189938095Y-66337370D02*
X190271428Y-65861180D01*
X190509523Y-66337370D02*
X190509523Y-65337370D01*
X190128571Y-65337370D01*
X190033333Y-65384990D01*
X189985714Y-65432609D01*
X189938095Y-65527847D01*
X189938095Y-65670704D01*
X189985714Y-65765942D01*
X190033333Y-65813561D01*
X190128571Y-65861180D01*
X190509523Y-65861180D01*
X189509523Y-66337370D02*
X189509523Y-65337370D01*
X189128571Y-65337370D02*
X188461904Y-66337370D01*
X188461904Y-65337370D02*
X189128571Y-66337370D01*
X187366666Y-65432609D02*
X187319047Y-65384990D01*
X187223809Y-65337370D01*
X186985714Y-65337370D01*
X186890476Y-65384990D01*
X186842857Y-65432609D01*
X186795238Y-65527847D01*
X186795238Y-65623085D01*
X186842857Y-65765942D01*
X187414285Y-66337370D01*
X186795238Y-66337370D01*
X186366666Y-66242132D02*
X186319047Y-66289751D01*
X186366666Y-66337370D01*
X186414285Y-66289751D01*
X186366666Y-66242132D01*
X186366666Y-66337370D01*
X185700000Y-65337370D02*
X185604761Y-65337370D01*
X185509523Y-65384990D01*
X185461904Y-65432609D01*
X185414285Y-65527847D01*
X185366666Y-65718323D01*
X185366666Y-65956418D01*
X185414285Y-66146894D01*
X185461904Y-66242132D01*
X185509523Y-66289751D01*
X185604761Y-66337370D01*
X185700000Y-66337370D01*
X185795238Y-66289751D01*
X185842857Y-66242132D01*
X185890476Y-66146894D01*
X185938095Y-65956418D01*
X185938095Y-65718323D01*
X185890476Y-65527847D01*
X185842857Y-65432609D01*
X185795238Y-65384990D01*
X185700000Y-65337370D01*
M02*
