G04 #@! TF.GenerationSoftware,KiCad,Pcbnew,(5.1.12-1-10_14)*
G04 #@! TF.CreationDate,2021-12-27T13:20:27-05:00*
G04 #@! TF.ProjectId,ledtrix,6c656474-7269-4782-9e6b-696361645f70,rev?*
G04 #@! TF.SameCoordinates,Original*
G04 #@! TF.FileFunction,Soldermask,Top*
G04 #@! TF.FilePolarity,Negative*
%FSLAX46Y46*%
G04 Gerber Fmt 4.6, Leading zero omitted, Abs format (unit mm)*
G04 Created by KiCad (PCBNEW (5.1.12-1-10_14)) date 2021-12-27 13:20:27*
%MOMM*%
%LPD*%
G01*
G04 APERTURE LIST*
%ADD10C,1.300000*%
%ADD11C,0.500000*%
%ADD12O,1.700000X1.700000*%
%ADD13R,1.700000X1.700000*%
%ADD14C,0.100000*%
G04 APERTURE END LIST*
D10*
G04 #@! TO.C,H9*
X207680000Y-103690990D03*
G04 #@! TD*
G04 #@! TO.C,H8*
X172120000Y-62288990D03*
G04 #@! TD*
G04 #@! TO.C,H7*
X207680000Y-62542990D03*
G04 #@! TD*
D11*
G04 #@! TO.C,H5*
X177200000Y-98054990D03*
X177200000Y-98054990D03*
X177200000Y-95804990D03*
X177200000Y-97304990D03*
X177200000Y-96554990D03*
X177200000Y-98804990D03*
X174600000Y-98804990D03*
X174600000Y-96554990D03*
X174600000Y-97304990D03*
X174600000Y-95804990D03*
X174600000Y-98054990D03*
X174600000Y-98054990D03*
G04 #@! TD*
G04 #@! TO.C,H4*
X205140000Y-98054990D03*
X205140000Y-98054990D03*
X205140000Y-95804990D03*
X205140000Y-97304990D03*
X205140000Y-96554990D03*
X205140000Y-98804990D03*
X202540000Y-98804990D03*
X202540000Y-96554990D03*
X202540000Y-97304990D03*
X202540000Y-95804990D03*
X202540000Y-98054990D03*
X202540000Y-98054990D03*
G04 #@! TD*
G04 #@! TO.C,H2*
X174600000Y-67000000D03*
X174600000Y-67000000D03*
X174600000Y-69250000D03*
X174600000Y-67750000D03*
X174600000Y-68500000D03*
X174600000Y-66250000D03*
X177200000Y-66250000D03*
X177200000Y-68500000D03*
X177200000Y-67750000D03*
X177200000Y-69250000D03*
X177200000Y-67000000D03*
X177200000Y-67000000D03*
G04 #@! TD*
G04 #@! TO.C,H1*
X202600000Y-67000000D03*
X202600000Y-67000000D03*
X202600000Y-69250000D03*
X202600000Y-67750000D03*
X202600000Y-68500000D03*
X202600000Y-66250000D03*
X205200000Y-66250000D03*
X205200000Y-68500000D03*
X205200000Y-67750000D03*
X205200000Y-69250000D03*
X205200000Y-67000000D03*
X205200000Y-67000000D03*
G04 #@! TD*
D12*
G04 #@! TO.C,J2*
X179575000Y-109154990D03*
X182115000Y-109154990D03*
X184655000Y-109154990D03*
X187195000Y-109154990D03*
X189735000Y-109154990D03*
X192275000Y-109154990D03*
X194815000Y-109154990D03*
X197355000Y-109154990D03*
D13*
X199895000Y-109154990D03*
G04 #@! TD*
D12*
G04 #@! TO.C,J1*
X179575000Y-58424990D03*
X182115000Y-58424990D03*
X184655000Y-58424990D03*
X187195000Y-58424990D03*
X189735000Y-58424990D03*
X192275000Y-58424990D03*
X194815000Y-58424990D03*
X197355000Y-58424990D03*
D13*
X199895000Y-58424990D03*
G04 #@! TD*
D14*
G04 #@! TO.C,D9.1*
G36*
X178705424Y-64142302D02*
G01*
X178139739Y-63576617D01*
X178705424Y-63010932D01*
X179271109Y-63576617D01*
X178705424Y-64142302D01*
G37*
G36*
X179870000Y-62995685D02*
G01*
X179304315Y-62430000D01*
X179870000Y-61864315D01*
X180435685Y-62430000D01*
X179870000Y-62995685D01*
G37*
G04 #@! TD*
G04 #@! TO.C,D3.3*
G36*
X194705424Y-69475634D02*
G01*
X194139739Y-68909949D01*
X194705424Y-68344264D01*
X195271109Y-68909949D01*
X194705424Y-69475634D01*
G37*
G36*
X195870000Y-68329017D02*
G01*
X195304315Y-67763332D01*
X195870000Y-67197647D01*
X196435685Y-67763332D01*
X195870000Y-68329017D01*
G37*
G04 #@! TD*
G04 #@! TO.C,D9.14*
G36*
X178705424Y-98808960D02*
G01*
X178139739Y-98243275D01*
X178705424Y-97677590D01*
X179271109Y-98243275D01*
X178705424Y-98808960D01*
G37*
G36*
X179870000Y-97662343D02*
G01*
X179304315Y-97096658D01*
X179870000Y-96530973D01*
X180435685Y-97096658D01*
X179870000Y-97662343D01*
G37*
G04 #@! TD*
G04 #@! TO.C,D9.13*
G36*
X178705424Y-96142294D02*
G01*
X178139739Y-95576609D01*
X178705424Y-95010924D01*
X179271109Y-95576609D01*
X178705424Y-96142294D01*
G37*
G36*
X179870000Y-94995677D02*
G01*
X179304315Y-94429992D01*
X179870000Y-93864307D01*
X180435685Y-94429992D01*
X179870000Y-94995677D01*
G37*
G04 #@! TD*
G04 #@! TO.C,D9.12*
G36*
X178705424Y-93475628D02*
G01*
X178139739Y-92909943D01*
X178705424Y-92344258D01*
X179271109Y-92909943D01*
X178705424Y-93475628D01*
G37*
G36*
X179870000Y-92329011D02*
G01*
X179304315Y-91763326D01*
X179870000Y-91197641D01*
X180435685Y-91763326D01*
X179870000Y-92329011D01*
G37*
G04 #@! TD*
G04 #@! TO.C,D9.2*
G36*
X178705424Y-66808968D02*
G01*
X178139739Y-66243283D01*
X178705424Y-65677598D01*
X179271109Y-66243283D01*
X178705424Y-66808968D01*
G37*
G36*
X179870000Y-65662351D02*
G01*
X179304315Y-65096666D01*
X179870000Y-64530981D01*
X180435685Y-65096666D01*
X179870000Y-65662351D01*
G37*
G04 #@! TD*
G04 #@! TO.C,D9.3*
G36*
X178705424Y-69475634D02*
G01*
X178139739Y-68909949D01*
X178705424Y-68344264D01*
X179271109Y-68909949D01*
X178705424Y-69475634D01*
G37*
G36*
X179870000Y-68329017D02*
G01*
X179304315Y-67763332D01*
X179870000Y-67197647D01*
X180435685Y-67763332D01*
X179870000Y-68329017D01*
G37*
G04 #@! TD*
G04 #@! TO.C,D9.4*
G36*
X178705424Y-72142300D02*
G01*
X178139739Y-71576615D01*
X178705424Y-71010930D01*
X179271109Y-71576615D01*
X178705424Y-72142300D01*
G37*
G36*
X179870000Y-70995683D02*
G01*
X179304315Y-70429998D01*
X179870000Y-69864313D01*
X180435685Y-70429998D01*
X179870000Y-70995683D01*
G37*
G04 #@! TD*
G04 #@! TO.C,D9.5*
G36*
X178705424Y-74808966D02*
G01*
X178139739Y-74243281D01*
X178705424Y-73677596D01*
X179271109Y-74243281D01*
X178705424Y-74808966D01*
G37*
G36*
X179870000Y-73662349D02*
G01*
X179304315Y-73096664D01*
X179870000Y-72530979D01*
X180435685Y-73096664D01*
X179870000Y-73662349D01*
G37*
G04 #@! TD*
G04 #@! TO.C,D9.15*
G36*
X178705424Y-101475626D02*
G01*
X178139739Y-100909941D01*
X178705424Y-100344256D01*
X179271109Y-100909941D01*
X178705424Y-101475626D01*
G37*
G36*
X179870000Y-100329009D02*
G01*
X179304315Y-99763324D01*
X179870000Y-99197639D01*
X180435685Y-99763324D01*
X179870000Y-100329009D01*
G37*
G04 #@! TD*
G04 #@! TO.C,D9.6*
G36*
X178705424Y-77475632D02*
G01*
X178139739Y-76909947D01*
X178705424Y-76344262D01*
X179271109Y-76909947D01*
X178705424Y-77475632D01*
G37*
G36*
X179870000Y-76329015D02*
G01*
X179304315Y-75763330D01*
X179870000Y-75197645D01*
X180435685Y-75763330D01*
X179870000Y-76329015D01*
G37*
G04 #@! TD*
G04 #@! TO.C,D9.7*
G36*
X178705424Y-80142298D02*
G01*
X178139739Y-79576613D01*
X178705424Y-79010928D01*
X179271109Y-79576613D01*
X178705424Y-80142298D01*
G37*
G36*
X179870000Y-78995681D02*
G01*
X179304315Y-78429996D01*
X179870000Y-77864311D01*
X180435685Y-78429996D01*
X179870000Y-78995681D01*
G37*
G04 #@! TD*
G04 #@! TO.C,D9.8*
G36*
X178705424Y-82808964D02*
G01*
X178139739Y-82243279D01*
X178705424Y-81677594D01*
X179271109Y-82243279D01*
X178705424Y-82808964D01*
G37*
G36*
X179870000Y-81662347D02*
G01*
X179304315Y-81096662D01*
X179870000Y-80530977D01*
X180435685Y-81096662D01*
X179870000Y-81662347D01*
G37*
G04 #@! TD*
G04 #@! TO.C,D9.9*
G36*
X178705424Y-85475630D02*
G01*
X178139739Y-84909945D01*
X178705424Y-84344260D01*
X179271109Y-84909945D01*
X178705424Y-85475630D01*
G37*
G36*
X179870000Y-84329013D02*
G01*
X179304315Y-83763328D01*
X179870000Y-83197643D01*
X180435685Y-83763328D01*
X179870000Y-84329013D01*
G37*
G04 #@! TD*
G04 #@! TO.C,D9.10*
G36*
X178705424Y-88142296D02*
G01*
X178139739Y-87576611D01*
X178705424Y-87010926D01*
X179271109Y-87576611D01*
X178705424Y-88142296D01*
G37*
G36*
X179870000Y-86995679D02*
G01*
X179304315Y-86429994D01*
X179870000Y-85864309D01*
X180435685Y-86429994D01*
X179870000Y-86995679D01*
G37*
G04 #@! TD*
G04 #@! TO.C,D9.11*
G36*
X178705424Y-90808962D02*
G01*
X178139739Y-90243277D01*
X178705424Y-89677592D01*
X179271109Y-90243277D01*
X178705424Y-90808962D01*
G37*
G36*
X179870000Y-89662345D02*
G01*
X179304315Y-89096660D01*
X179870000Y-88530975D01*
X180435685Y-89096660D01*
X179870000Y-89662345D01*
G37*
G04 #@! TD*
G04 #@! TO.C,D9.16*
G36*
X178705424Y-104142292D02*
G01*
X178139739Y-103576607D01*
X178705424Y-103010922D01*
X179271109Y-103576607D01*
X178705424Y-104142292D01*
G37*
G36*
X179870000Y-102995675D02*
G01*
X179304315Y-102429990D01*
X179870000Y-101864305D01*
X180435685Y-102429990D01*
X179870000Y-102995675D01*
G37*
G04 #@! TD*
G04 #@! TO.C,D8.14*
G36*
X181375424Y-98808960D02*
G01*
X180809739Y-98243275D01*
X181375424Y-97677590D01*
X181941109Y-98243275D01*
X181375424Y-98808960D01*
G37*
G36*
X182540000Y-97662343D02*
G01*
X181974315Y-97096658D01*
X182540000Y-96530973D01*
X183105685Y-97096658D01*
X182540000Y-97662343D01*
G37*
G04 #@! TD*
G04 #@! TO.C,D8.13*
G36*
X181375424Y-96142294D02*
G01*
X180809739Y-95576609D01*
X181375424Y-95010924D01*
X181941109Y-95576609D01*
X181375424Y-96142294D01*
G37*
G36*
X182540000Y-94995677D02*
G01*
X181974315Y-94429992D01*
X182540000Y-93864307D01*
X183105685Y-94429992D01*
X182540000Y-94995677D01*
G37*
G04 #@! TD*
G04 #@! TO.C,D8.12*
G36*
X181375424Y-93475628D02*
G01*
X180809739Y-92909943D01*
X181375424Y-92344258D01*
X181941109Y-92909943D01*
X181375424Y-93475628D01*
G37*
G36*
X182540000Y-92329011D02*
G01*
X181974315Y-91763326D01*
X182540000Y-91197641D01*
X183105685Y-91763326D01*
X182540000Y-92329011D01*
G37*
G04 #@! TD*
G04 #@! TO.C,D8.1*
G36*
X181375424Y-64142302D02*
G01*
X180809739Y-63576617D01*
X181375424Y-63010932D01*
X181941109Y-63576617D01*
X181375424Y-64142302D01*
G37*
G36*
X182540000Y-62995685D02*
G01*
X181974315Y-62430000D01*
X182540000Y-61864315D01*
X183105685Y-62430000D01*
X182540000Y-62995685D01*
G37*
G04 #@! TD*
G04 #@! TO.C,D8.2*
G36*
X181375424Y-66808968D02*
G01*
X180809739Y-66243283D01*
X181375424Y-65677598D01*
X181941109Y-66243283D01*
X181375424Y-66808968D01*
G37*
G36*
X182540000Y-65662351D02*
G01*
X181974315Y-65096666D01*
X182540000Y-64530981D01*
X183105685Y-65096666D01*
X182540000Y-65662351D01*
G37*
G04 #@! TD*
G04 #@! TO.C,D8.3*
G36*
X181375424Y-69475634D02*
G01*
X180809739Y-68909949D01*
X181375424Y-68344264D01*
X181941109Y-68909949D01*
X181375424Y-69475634D01*
G37*
G36*
X182540000Y-68329017D02*
G01*
X181974315Y-67763332D01*
X182540000Y-67197647D01*
X183105685Y-67763332D01*
X182540000Y-68329017D01*
G37*
G04 #@! TD*
G04 #@! TO.C,D8.4*
G36*
X181375424Y-72142300D02*
G01*
X180809739Y-71576615D01*
X181375424Y-71010930D01*
X181941109Y-71576615D01*
X181375424Y-72142300D01*
G37*
G36*
X182540000Y-70995683D02*
G01*
X181974315Y-70429998D01*
X182540000Y-69864313D01*
X183105685Y-70429998D01*
X182540000Y-70995683D01*
G37*
G04 #@! TD*
G04 #@! TO.C,D8.5*
G36*
X181375424Y-74808966D02*
G01*
X180809739Y-74243281D01*
X181375424Y-73677596D01*
X181941109Y-74243281D01*
X181375424Y-74808966D01*
G37*
G36*
X182540000Y-73662349D02*
G01*
X181974315Y-73096664D01*
X182540000Y-72530979D01*
X183105685Y-73096664D01*
X182540000Y-73662349D01*
G37*
G04 #@! TD*
G04 #@! TO.C,D8.15*
G36*
X181375424Y-101475626D02*
G01*
X180809739Y-100909941D01*
X181375424Y-100344256D01*
X181941109Y-100909941D01*
X181375424Y-101475626D01*
G37*
G36*
X182540000Y-100329009D02*
G01*
X181974315Y-99763324D01*
X182540000Y-99197639D01*
X183105685Y-99763324D01*
X182540000Y-100329009D01*
G37*
G04 #@! TD*
G04 #@! TO.C,D8.6*
G36*
X181375424Y-77475632D02*
G01*
X180809739Y-76909947D01*
X181375424Y-76344262D01*
X181941109Y-76909947D01*
X181375424Y-77475632D01*
G37*
G36*
X182540000Y-76329015D02*
G01*
X181974315Y-75763330D01*
X182540000Y-75197645D01*
X183105685Y-75763330D01*
X182540000Y-76329015D01*
G37*
G04 #@! TD*
G04 #@! TO.C,D8.7*
G36*
X181375424Y-80142298D02*
G01*
X180809739Y-79576613D01*
X181375424Y-79010928D01*
X181941109Y-79576613D01*
X181375424Y-80142298D01*
G37*
G36*
X182540000Y-78995681D02*
G01*
X181974315Y-78429996D01*
X182540000Y-77864311D01*
X183105685Y-78429996D01*
X182540000Y-78995681D01*
G37*
G04 #@! TD*
G04 #@! TO.C,D8.8*
G36*
X181375424Y-82808964D02*
G01*
X180809739Y-82243279D01*
X181375424Y-81677594D01*
X181941109Y-82243279D01*
X181375424Y-82808964D01*
G37*
G36*
X182540000Y-81662347D02*
G01*
X181974315Y-81096662D01*
X182540000Y-80530977D01*
X183105685Y-81096662D01*
X182540000Y-81662347D01*
G37*
G04 #@! TD*
G04 #@! TO.C,D8.9*
G36*
X181375424Y-85475630D02*
G01*
X180809739Y-84909945D01*
X181375424Y-84344260D01*
X181941109Y-84909945D01*
X181375424Y-85475630D01*
G37*
G36*
X182540000Y-84329013D02*
G01*
X181974315Y-83763328D01*
X182540000Y-83197643D01*
X183105685Y-83763328D01*
X182540000Y-84329013D01*
G37*
G04 #@! TD*
G04 #@! TO.C,D8.10*
G36*
X181375424Y-88142296D02*
G01*
X180809739Y-87576611D01*
X181375424Y-87010926D01*
X181941109Y-87576611D01*
X181375424Y-88142296D01*
G37*
G36*
X182540000Y-86995679D02*
G01*
X181974315Y-86429994D01*
X182540000Y-85864309D01*
X183105685Y-86429994D01*
X182540000Y-86995679D01*
G37*
G04 #@! TD*
G04 #@! TO.C,D8.11*
G36*
X181375424Y-90808962D02*
G01*
X180809739Y-90243277D01*
X181375424Y-89677592D01*
X181941109Y-90243277D01*
X181375424Y-90808962D01*
G37*
G36*
X182540000Y-89662345D02*
G01*
X181974315Y-89096660D01*
X182540000Y-88530975D01*
X183105685Y-89096660D01*
X182540000Y-89662345D01*
G37*
G04 #@! TD*
G04 #@! TO.C,D8.16*
G36*
X181375424Y-104142292D02*
G01*
X180809739Y-103576607D01*
X181375424Y-103010922D01*
X181941109Y-103576607D01*
X181375424Y-104142292D01*
G37*
G36*
X182540000Y-102995675D02*
G01*
X181974315Y-102429990D01*
X182540000Y-101864305D01*
X183105685Y-102429990D01*
X182540000Y-102995675D01*
G37*
G04 #@! TD*
G04 #@! TO.C,D7.14*
G36*
X184045424Y-98808960D02*
G01*
X183479739Y-98243275D01*
X184045424Y-97677590D01*
X184611109Y-98243275D01*
X184045424Y-98808960D01*
G37*
G36*
X185210000Y-97662343D02*
G01*
X184644315Y-97096658D01*
X185210000Y-96530973D01*
X185775685Y-97096658D01*
X185210000Y-97662343D01*
G37*
G04 #@! TD*
G04 #@! TO.C,D7.13*
G36*
X184045424Y-96142294D02*
G01*
X183479739Y-95576609D01*
X184045424Y-95010924D01*
X184611109Y-95576609D01*
X184045424Y-96142294D01*
G37*
G36*
X185210000Y-94995677D02*
G01*
X184644315Y-94429992D01*
X185210000Y-93864307D01*
X185775685Y-94429992D01*
X185210000Y-94995677D01*
G37*
G04 #@! TD*
G04 #@! TO.C,D7.12*
G36*
X184045424Y-93475628D02*
G01*
X183479739Y-92909943D01*
X184045424Y-92344258D01*
X184611109Y-92909943D01*
X184045424Y-93475628D01*
G37*
G36*
X185210000Y-92329011D02*
G01*
X184644315Y-91763326D01*
X185210000Y-91197641D01*
X185775685Y-91763326D01*
X185210000Y-92329011D01*
G37*
G04 #@! TD*
G04 #@! TO.C,D7.1*
G36*
X184045424Y-64142302D02*
G01*
X183479739Y-63576617D01*
X184045424Y-63010932D01*
X184611109Y-63576617D01*
X184045424Y-64142302D01*
G37*
G36*
X185210000Y-62995685D02*
G01*
X184644315Y-62430000D01*
X185210000Y-61864315D01*
X185775685Y-62430000D01*
X185210000Y-62995685D01*
G37*
G04 #@! TD*
G04 #@! TO.C,D7.2*
G36*
X184045424Y-66808968D02*
G01*
X183479739Y-66243283D01*
X184045424Y-65677598D01*
X184611109Y-66243283D01*
X184045424Y-66808968D01*
G37*
G36*
X185210000Y-65662351D02*
G01*
X184644315Y-65096666D01*
X185210000Y-64530981D01*
X185775685Y-65096666D01*
X185210000Y-65662351D01*
G37*
G04 #@! TD*
G04 #@! TO.C,D7.3*
G36*
X184045424Y-69475634D02*
G01*
X183479739Y-68909949D01*
X184045424Y-68344264D01*
X184611109Y-68909949D01*
X184045424Y-69475634D01*
G37*
G36*
X185210000Y-68329017D02*
G01*
X184644315Y-67763332D01*
X185210000Y-67197647D01*
X185775685Y-67763332D01*
X185210000Y-68329017D01*
G37*
G04 #@! TD*
G04 #@! TO.C,D7.4*
G36*
X184045424Y-72142300D02*
G01*
X183479739Y-71576615D01*
X184045424Y-71010930D01*
X184611109Y-71576615D01*
X184045424Y-72142300D01*
G37*
G36*
X185210000Y-70995683D02*
G01*
X184644315Y-70429998D01*
X185210000Y-69864313D01*
X185775685Y-70429998D01*
X185210000Y-70995683D01*
G37*
G04 #@! TD*
G04 #@! TO.C,D7.5*
G36*
X184045424Y-74808966D02*
G01*
X183479739Y-74243281D01*
X184045424Y-73677596D01*
X184611109Y-74243281D01*
X184045424Y-74808966D01*
G37*
G36*
X185210000Y-73662349D02*
G01*
X184644315Y-73096664D01*
X185210000Y-72530979D01*
X185775685Y-73096664D01*
X185210000Y-73662349D01*
G37*
G04 #@! TD*
G04 #@! TO.C,D7.15*
G36*
X184045424Y-101475626D02*
G01*
X183479739Y-100909941D01*
X184045424Y-100344256D01*
X184611109Y-100909941D01*
X184045424Y-101475626D01*
G37*
G36*
X185210000Y-100329009D02*
G01*
X184644315Y-99763324D01*
X185210000Y-99197639D01*
X185775685Y-99763324D01*
X185210000Y-100329009D01*
G37*
G04 #@! TD*
G04 #@! TO.C,D7.6*
G36*
X184045424Y-77475632D02*
G01*
X183479739Y-76909947D01*
X184045424Y-76344262D01*
X184611109Y-76909947D01*
X184045424Y-77475632D01*
G37*
G36*
X185210000Y-76329015D02*
G01*
X184644315Y-75763330D01*
X185210000Y-75197645D01*
X185775685Y-75763330D01*
X185210000Y-76329015D01*
G37*
G04 #@! TD*
G04 #@! TO.C,D7.7*
G36*
X184045424Y-80142298D02*
G01*
X183479739Y-79576613D01*
X184045424Y-79010928D01*
X184611109Y-79576613D01*
X184045424Y-80142298D01*
G37*
G36*
X185210000Y-78995681D02*
G01*
X184644315Y-78429996D01*
X185210000Y-77864311D01*
X185775685Y-78429996D01*
X185210000Y-78995681D01*
G37*
G04 #@! TD*
G04 #@! TO.C,D7.8*
G36*
X184045424Y-82808964D02*
G01*
X183479739Y-82243279D01*
X184045424Y-81677594D01*
X184611109Y-82243279D01*
X184045424Y-82808964D01*
G37*
G36*
X185210000Y-81662347D02*
G01*
X184644315Y-81096662D01*
X185210000Y-80530977D01*
X185775685Y-81096662D01*
X185210000Y-81662347D01*
G37*
G04 #@! TD*
G04 #@! TO.C,D7.9*
G36*
X184045424Y-85475630D02*
G01*
X183479739Y-84909945D01*
X184045424Y-84344260D01*
X184611109Y-84909945D01*
X184045424Y-85475630D01*
G37*
G36*
X185210000Y-84329013D02*
G01*
X184644315Y-83763328D01*
X185210000Y-83197643D01*
X185775685Y-83763328D01*
X185210000Y-84329013D01*
G37*
G04 #@! TD*
G04 #@! TO.C,D7.10*
G36*
X184045424Y-88142296D02*
G01*
X183479739Y-87576611D01*
X184045424Y-87010926D01*
X184611109Y-87576611D01*
X184045424Y-88142296D01*
G37*
G36*
X185210000Y-86995679D02*
G01*
X184644315Y-86429994D01*
X185210000Y-85864309D01*
X185775685Y-86429994D01*
X185210000Y-86995679D01*
G37*
G04 #@! TD*
G04 #@! TO.C,D7.11*
G36*
X184045424Y-90808962D02*
G01*
X183479739Y-90243277D01*
X184045424Y-89677592D01*
X184611109Y-90243277D01*
X184045424Y-90808962D01*
G37*
G36*
X185210000Y-89662345D02*
G01*
X184644315Y-89096660D01*
X185210000Y-88530975D01*
X185775685Y-89096660D01*
X185210000Y-89662345D01*
G37*
G04 #@! TD*
G04 #@! TO.C,D7.16*
G36*
X184045424Y-104142292D02*
G01*
X183479739Y-103576607D01*
X184045424Y-103010922D01*
X184611109Y-103576607D01*
X184045424Y-104142292D01*
G37*
G36*
X185210000Y-102995675D02*
G01*
X184644315Y-102429990D01*
X185210000Y-101864305D01*
X185775685Y-102429990D01*
X185210000Y-102995675D01*
G37*
G04 #@! TD*
G04 #@! TO.C,D6.14*
G36*
X186705424Y-98808960D02*
G01*
X186139739Y-98243275D01*
X186705424Y-97677590D01*
X187271109Y-98243275D01*
X186705424Y-98808960D01*
G37*
G36*
X187870000Y-97662343D02*
G01*
X187304315Y-97096658D01*
X187870000Y-96530973D01*
X188435685Y-97096658D01*
X187870000Y-97662343D01*
G37*
G04 #@! TD*
G04 #@! TO.C,D6.13*
G36*
X186705424Y-96142294D02*
G01*
X186139739Y-95576609D01*
X186705424Y-95010924D01*
X187271109Y-95576609D01*
X186705424Y-96142294D01*
G37*
G36*
X187870000Y-94995677D02*
G01*
X187304315Y-94429992D01*
X187870000Y-93864307D01*
X188435685Y-94429992D01*
X187870000Y-94995677D01*
G37*
G04 #@! TD*
G04 #@! TO.C,D6.12*
G36*
X186705424Y-93475628D02*
G01*
X186139739Y-92909943D01*
X186705424Y-92344258D01*
X187271109Y-92909943D01*
X186705424Y-93475628D01*
G37*
G36*
X187870000Y-92329011D02*
G01*
X187304315Y-91763326D01*
X187870000Y-91197641D01*
X188435685Y-91763326D01*
X187870000Y-92329011D01*
G37*
G04 #@! TD*
G04 #@! TO.C,D6.1*
G36*
X186705424Y-64142302D02*
G01*
X186139739Y-63576617D01*
X186705424Y-63010932D01*
X187271109Y-63576617D01*
X186705424Y-64142302D01*
G37*
G36*
X187870000Y-62995685D02*
G01*
X187304315Y-62430000D01*
X187870000Y-61864315D01*
X188435685Y-62430000D01*
X187870000Y-62995685D01*
G37*
G04 #@! TD*
G04 #@! TO.C,D6.2*
G36*
X186705424Y-66808968D02*
G01*
X186139739Y-66243283D01*
X186705424Y-65677598D01*
X187271109Y-66243283D01*
X186705424Y-66808968D01*
G37*
G36*
X187870000Y-65662351D02*
G01*
X187304315Y-65096666D01*
X187870000Y-64530981D01*
X188435685Y-65096666D01*
X187870000Y-65662351D01*
G37*
G04 #@! TD*
G04 #@! TO.C,D6.3*
G36*
X186705424Y-69475634D02*
G01*
X186139739Y-68909949D01*
X186705424Y-68344264D01*
X187271109Y-68909949D01*
X186705424Y-69475634D01*
G37*
G36*
X187870000Y-68329017D02*
G01*
X187304315Y-67763332D01*
X187870000Y-67197647D01*
X188435685Y-67763332D01*
X187870000Y-68329017D01*
G37*
G04 #@! TD*
G04 #@! TO.C,D6.4*
G36*
X186705424Y-72142300D02*
G01*
X186139739Y-71576615D01*
X186705424Y-71010930D01*
X187271109Y-71576615D01*
X186705424Y-72142300D01*
G37*
G36*
X187870000Y-70995683D02*
G01*
X187304315Y-70429998D01*
X187870000Y-69864313D01*
X188435685Y-70429998D01*
X187870000Y-70995683D01*
G37*
G04 #@! TD*
G04 #@! TO.C,D6.5*
G36*
X186705424Y-74808966D02*
G01*
X186139739Y-74243281D01*
X186705424Y-73677596D01*
X187271109Y-74243281D01*
X186705424Y-74808966D01*
G37*
G36*
X187870000Y-73662349D02*
G01*
X187304315Y-73096664D01*
X187870000Y-72530979D01*
X188435685Y-73096664D01*
X187870000Y-73662349D01*
G37*
G04 #@! TD*
G04 #@! TO.C,D6.15*
G36*
X186705424Y-101475626D02*
G01*
X186139739Y-100909941D01*
X186705424Y-100344256D01*
X187271109Y-100909941D01*
X186705424Y-101475626D01*
G37*
G36*
X187870000Y-100329009D02*
G01*
X187304315Y-99763324D01*
X187870000Y-99197639D01*
X188435685Y-99763324D01*
X187870000Y-100329009D01*
G37*
G04 #@! TD*
G04 #@! TO.C,D6.6*
G36*
X186705424Y-77475632D02*
G01*
X186139739Y-76909947D01*
X186705424Y-76344262D01*
X187271109Y-76909947D01*
X186705424Y-77475632D01*
G37*
G36*
X187870000Y-76329015D02*
G01*
X187304315Y-75763330D01*
X187870000Y-75197645D01*
X188435685Y-75763330D01*
X187870000Y-76329015D01*
G37*
G04 #@! TD*
G04 #@! TO.C,D6.7*
G36*
X186705424Y-80142298D02*
G01*
X186139739Y-79576613D01*
X186705424Y-79010928D01*
X187271109Y-79576613D01*
X186705424Y-80142298D01*
G37*
G36*
X187870000Y-78995681D02*
G01*
X187304315Y-78429996D01*
X187870000Y-77864311D01*
X188435685Y-78429996D01*
X187870000Y-78995681D01*
G37*
G04 #@! TD*
G04 #@! TO.C,D6.8*
G36*
X186705424Y-82808964D02*
G01*
X186139739Y-82243279D01*
X186705424Y-81677594D01*
X187271109Y-82243279D01*
X186705424Y-82808964D01*
G37*
G36*
X187870000Y-81662347D02*
G01*
X187304315Y-81096662D01*
X187870000Y-80530977D01*
X188435685Y-81096662D01*
X187870000Y-81662347D01*
G37*
G04 #@! TD*
G04 #@! TO.C,D6.9*
G36*
X186705424Y-85475630D02*
G01*
X186139739Y-84909945D01*
X186705424Y-84344260D01*
X187271109Y-84909945D01*
X186705424Y-85475630D01*
G37*
G36*
X187870000Y-84329013D02*
G01*
X187304315Y-83763328D01*
X187870000Y-83197643D01*
X188435685Y-83763328D01*
X187870000Y-84329013D01*
G37*
G04 #@! TD*
G04 #@! TO.C,D6.10*
G36*
X186705424Y-88142296D02*
G01*
X186139739Y-87576611D01*
X186705424Y-87010926D01*
X187271109Y-87576611D01*
X186705424Y-88142296D01*
G37*
G36*
X187870000Y-86995679D02*
G01*
X187304315Y-86429994D01*
X187870000Y-85864309D01*
X188435685Y-86429994D01*
X187870000Y-86995679D01*
G37*
G04 #@! TD*
G04 #@! TO.C,D6.11*
G36*
X186705424Y-90808962D02*
G01*
X186139739Y-90243277D01*
X186705424Y-89677592D01*
X187271109Y-90243277D01*
X186705424Y-90808962D01*
G37*
G36*
X187870000Y-89662345D02*
G01*
X187304315Y-89096660D01*
X187870000Y-88530975D01*
X188435685Y-89096660D01*
X187870000Y-89662345D01*
G37*
G04 #@! TD*
G04 #@! TO.C,D6.16*
G36*
X186705424Y-104142292D02*
G01*
X186139739Y-103576607D01*
X186705424Y-103010922D01*
X187271109Y-103576607D01*
X186705424Y-104142292D01*
G37*
G36*
X187870000Y-102995675D02*
G01*
X187304315Y-102429990D01*
X187870000Y-101864305D01*
X188435685Y-102429990D01*
X187870000Y-102995675D01*
G37*
G04 #@! TD*
G04 #@! TO.C,D5.14*
G36*
X189375424Y-98808960D02*
G01*
X188809739Y-98243275D01*
X189375424Y-97677590D01*
X189941109Y-98243275D01*
X189375424Y-98808960D01*
G37*
G36*
X190540000Y-97662343D02*
G01*
X189974315Y-97096658D01*
X190540000Y-96530973D01*
X191105685Y-97096658D01*
X190540000Y-97662343D01*
G37*
G04 #@! TD*
G04 #@! TO.C,D5.13*
G36*
X189375424Y-96142294D02*
G01*
X188809739Y-95576609D01*
X189375424Y-95010924D01*
X189941109Y-95576609D01*
X189375424Y-96142294D01*
G37*
G36*
X190540000Y-94995677D02*
G01*
X189974315Y-94429992D01*
X190540000Y-93864307D01*
X191105685Y-94429992D01*
X190540000Y-94995677D01*
G37*
G04 #@! TD*
G04 #@! TO.C,D5.12*
G36*
X189375424Y-93475628D02*
G01*
X188809739Y-92909943D01*
X189375424Y-92344258D01*
X189941109Y-92909943D01*
X189375424Y-93475628D01*
G37*
G36*
X190540000Y-92329011D02*
G01*
X189974315Y-91763326D01*
X190540000Y-91197641D01*
X191105685Y-91763326D01*
X190540000Y-92329011D01*
G37*
G04 #@! TD*
G04 #@! TO.C,D5.1*
G36*
X189375424Y-64142302D02*
G01*
X188809739Y-63576617D01*
X189375424Y-63010932D01*
X189941109Y-63576617D01*
X189375424Y-64142302D01*
G37*
G36*
X190540000Y-62995685D02*
G01*
X189974315Y-62430000D01*
X190540000Y-61864315D01*
X191105685Y-62430000D01*
X190540000Y-62995685D01*
G37*
G04 #@! TD*
G04 #@! TO.C,D5.2*
G36*
X189375424Y-66808968D02*
G01*
X188809739Y-66243283D01*
X189375424Y-65677598D01*
X189941109Y-66243283D01*
X189375424Y-66808968D01*
G37*
G36*
X190540000Y-65662351D02*
G01*
X189974315Y-65096666D01*
X190540000Y-64530981D01*
X191105685Y-65096666D01*
X190540000Y-65662351D01*
G37*
G04 #@! TD*
G04 #@! TO.C,D5.3*
G36*
X189375424Y-69475634D02*
G01*
X188809739Y-68909949D01*
X189375424Y-68344264D01*
X189941109Y-68909949D01*
X189375424Y-69475634D01*
G37*
G36*
X190540000Y-68329017D02*
G01*
X189974315Y-67763332D01*
X190540000Y-67197647D01*
X191105685Y-67763332D01*
X190540000Y-68329017D01*
G37*
G04 #@! TD*
G04 #@! TO.C,D5.4*
G36*
X189375424Y-72142300D02*
G01*
X188809739Y-71576615D01*
X189375424Y-71010930D01*
X189941109Y-71576615D01*
X189375424Y-72142300D01*
G37*
G36*
X190540000Y-70995683D02*
G01*
X189974315Y-70429998D01*
X190540000Y-69864313D01*
X191105685Y-70429998D01*
X190540000Y-70995683D01*
G37*
G04 #@! TD*
G04 #@! TO.C,D5.5*
G36*
X189375424Y-74808966D02*
G01*
X188809739Y-74243281D01*
X189375424Y-73677596D01*
X189941109Y-74243281D01*
X189375424Y-74808966D01*
G37*
G36*
X190540000Y-73662349D02*
G01*
X189974315Y-73096664D01*
X190540000Y-72530979D01*
X191105685Y-73096664D01*
X190540000Y-73662349D01*
G37*
G04 #@! TD*
G04 #@! TO.C,D5.15*
G36*
X189375424Y-101475626D02*
G01*
X188809739Y-100909941D01*
X189375424Y-100344256D01*
X189941109Y-100909941D01*
X189375424Y-101475626D01*
G37*
G36*
X190540000Y-100329009D02*
G01*
X189974315Y-99763324D01*
X190540000Y-99197639D01*
X191105685Y-99763324D01*
X190540000Y-100329009D01*
G37*
G04 #@! TD*
G04 #@! TO.C,D5.6*
G36*
X189375424Y-77475632D02*
G01*
X188809739Y-76909947D01*
X189375424Y-76344262D01*
X189941109Y-76909947D01*
X189375424Y-77475632D01*
G37*
G36*
X190540000Y-76329015D02*
G01*
X189974315Y-75763330D01*
X190540000Y-75197645D01*
X191105685Y-75763330D01*
X190540000Y-76329015D01*
G37*
G04 #@! TD*
G04 #@! TO.C,D5.7*
G36*
X189375424Y-80142298D02*
G01*
X188809739Y-79576613D01*
X189375424Y-79010928D01*
X189941109Y-79576613D01*
X189375424Y-80142298D01*
G37*
G36*
X190540000Y-78995681D02*
G01*
X189974315Y-78429996D01*
X190540000Y-77864311D01*
X191105685Y-78429996D01*
X190540000Y-78995681D01*
G37*
G04 #@! TD*
G04 #@! TO.C,D5.8*
G36*
X189375424Y-82808964D02*
G01*
X188809739Y-82243279D01*
X189375424Y-81677594D01*
X189941109Y-82243279D01*
X189375424Y-82808964D01*
G37*
G36*
X190540000Y-81662347D02*
G01*
X189974315Y-81096662D01*
X190540000Y-80530977D01*
X191105685Y-81096662D01*
X190540000Y-81662347D01*
G37*
G04 #@! TD*
G04 #@! TO.C,D5.9*
G36*
X189375424Y-85475630D02*
G01*
X188809739Y-84909945D01*
X189375424Y-84344260D01*
X189941109Y-84909945D01*
X189375424Y-85475630D01*
G37*
G36*
X190540000Y-84329013D02*
G01*
X189974315Y-83763328D01*
X190540000Y-83197643D01*
X191105685Y-83763328D01*
X190540000Y-84329013D01*
G37*
G04 #@! TD*
G04 #@! TO.C,D5.10*
G36*
X189375424Y-88142296D02*
G01*
X188809739Y-87576611D01*
X189375424Y-87010926D01*
X189941109Y-87576611D01*
X189375424Y-88142296D01*
G37*
G36*
X190540000Y-86995679D02*
G01*
X189974315Y-86429994D01*
X190540000Y-85864309D01*
X191105685Y-86429994D01*
X190540000Y-86995679D01*
G37*
G04 #@! TD*
G04 #@! TO.C,D5.11*
G36*
X189375424Y-90808962D02*
G01*
X188809739Y-90243277D01*
X189375424Y-89677592D01*
X189941109Y-90243277D01*
X189375424Y-90808962D01*
G37*
G36*
X190540000Y-89662345D02*
G01*
X189974315Y-89096660D01*
X190540000Y-88530975D01*
X191105685Y-89096660D01*
X190540000Y-89662345D01*
G37*
G04 #@! TD*
G04 #@! TO.C,D5.16*
G36*
X189375424Y-104142292D02*
G01*
X188809739Y-103576607D01*
X189375424Y-103010922D01*
X189941109Y-103576607D01*
X189375424Y-104142292D01*
G37*
G36*
X190540000Y-102995675D02*
G01*
X189974315Y-102429990D01*
X190540000Y-101864305D01*
X191105685Y-102429990D01*
X190540000Y-102995675D01*
G37*
G04 #@! TD*
G04 #@! TO.C,D4.14*
G36*
X192045424Y-98808960D02*
G01*
X191479739Y-98243275D01*
X192045424Y-97677590D01*
X192611109Y-98243275D01*
X192045424Y-98808960D01*
G37*
G36*
X193210000Y-97662343D02*
G01*
X192644315Y-97096658D01*
X193210000Y-96530973D01*
X193775685Y-97096658D01*
X193210000Y-97662343D01*
G37*
G04 #@! TD*
G04 #@! TO.C,D4.13*
G36*
X192045424Y-96142294D02*
G01*
X191479739Y-95576609D01*
X192045424Y-95010924D01*
X192611109Y-95576609D01*
X192045424Y-96142294D01*
G37*
G36*
X193210000Y-94995677D02*
G01*
X192644315Y-94429992D01*
X193210000Y-93864307D01*
X193775685Y-94429992D01*
X193210000Y-94995677D01*
G37*
G04 #@! TD*
G04 #@! TO.C,D4.12*
G36*
X192045424Y-93475628D02*
G01*
X191479739Y-92909943D01*
X192045424Y-92344258D01*
X192611109Y-92909943D01*
X192045424Y-93475628D01*
G37*
G36*
X193210000Y-92329011D02*
G01*
X192644315Y-91763326D01*
X193210000Y-91197641D01*
X193775685Y-91763326D01*
X193210000Y-92329011D01*
G37*
G04 #@! TD*
G04 #@! TO.C,D4.1*
G36*
X192045424Y-64142302D02*
G01*
X191479739Y-63576617D01*
X192045424Y-63010932D01*
X192611109Y-63576617D01*
X192045424Y-64142302D01*
G37*
G36*
X193210000Y-62995685D02*
G01*
X192644315Y-62430000D01*
X193210000Y-61864315D01*
X193775685Y-62430000D01*
X193210000Y-62995685D01*
G37*
G04 #@! TD*
G04 #@! TO.C,D4.2*
G36*
X192045424Y-66808968D02*
G01*
X191479739Y-66243283D01*
X192045424Y-65677598D01*
X192611109Y-66243283D01*
X192045424Y-66808968D01*
G37*
G36*
X193210000Y-65662351D02*
G01*
X192644315Y-65096666D01*
X193210000Y-64530981D01*
X193775685Y-65096666D01*
X193210000Y-65662351D01*
G37*
G04 #@! TD*
G04 #@! TO.C,D4.3*
G36*
X192045424Y-69475634D02*
G01*
X191479739Y-68909949D01*
X192045424Y-68344264D01*
X192611109Y-68909949D01*
X192045424Y-69475634D01*
G37*
G36*
X193210000Y-68329017D02*
G01*
X192644315Y-67763332D01*
X193210000Y-67197647D01*
X193775685Y-67763332D01*
X193210000Y-68329017D01*
G37*
G04 #@! TD*
G04 #@! TO.C,D4.4*
G36*
X192045424Y-72142300D02*
G01*
X191479739Y-71576615D01*
X192045424Y-71010930D01*
X192611109Y-71576615D01*
X192045424Y-72142300D01*
G37*
G36*
X193210000Y-70995683D02*
G01*
X192644315Y-70429998D01*
X193210000Y-69864313D01*
X193775685Y-70429998D01*
X193210000Y-70995683D01*
G37*
G04 #@! TD*
G04 #@! TO.C,D4.5*
G36*
X192045424Y-74808966D02*
G01*
X191479739Y-74243281D01*
X192045424Y-73677596D01*
X192611109Y-74243281D01*
X192045424Y-74808966D01*
G37*
G36*
X193210000Y-73662349D02*
G01*
X192644315Y-73096664D01*
X193210000Y-72530979D01*
X193775685Y-73096664D01*
X193210000Y-73662349D01*
G37*
G04 #@! TD*
G04 #@! TO.C,D4.15*
G36*
X192045424Y-101475626D02*
G01*
X191479739Y-100909941D01*
X192045424Y-100344256D01*
X192611109Y-100909941D01*
X192045424Y-101475626D01*
G37*
G36*
X193210000Y-100329009D02*
G01*
X192644315Y-99763324D01*
X193210000Y-99197639D01*
X193775685Y-99763324D01*
X193210000Y-100329009D01*
G37*
G04 #@! TD*
G04 #@! TO.C,D4.6*
G36*
X192045424Y-77475632D02*
G01*
X191479739Y-76909947D01*
X192045424Y-76344262D01*
X192611109Y-76909947D01*
X192045424Y-77475632D01*
G37*
G36*
X193210000Y-76329015D02*
G01*
X192644315Y-75763330D01*
X193210000Y-75197645D01*
X193775685Y-75763330D01*
X193210000Y-76329015D01*
G37*
G04 #@! TD*
G04 #@! TO.C,D4.7*
G36*
X192045424Y-80142298D02*
G01*
X191479739Y-79576613D01*
X192045424Y-79010928D01*
X192611109Y-79576613D01*
X192045424Y-80142298D01*
G37*
G36*
X193210000Y-78995681D02*
G01*
X192644315Y-78429996D01*
X193210000Y-77864311D01*
X193775685Y-78429996D01*
X193210000Y-78995681D01*
G37*
G04 #@! TD*
G04 #@! TO.C,D4.8*
G36*
X192045424Y-82808964D02*
G01*
X191479739Y-82243279D01*
X192045424Y-81677594D01*
X192611109Y-82243279D01*
X192045424Y-82808964D01*
G37*
G36*
X193210000Y-81662347D02*
G01*
X192644315Y-81096662D01*
X193210000Y-80530977D01*
X193775685Y-81096662D01*
X193210000Y-81662347D01*
G37*
G04 #@! TD*
G04 #@! TO.C,D4.9*
G36*
X192045424Y-85475630D02*
G01*
X191479739Y-84909945D01*
X192045424Y-84344260D01*
X192611109Y-84909945D01*
X192045424Y-85475630D01*
G37*
G36*
X193210000Y-84329013D02*
G01*
X192644315Y-83763328D01*
X193210000Y-83197643D01*
X193775685Y-83763328D01*
X193210000Y-84329013D01*
G37*
G04 #@! TD*
G04 #@! TO.C,D4.10*
G36*
X192045424Y-88142296D02*
G01*
X191479739Y-87576611D01*
X192045424Y-87010926D01*
X192611109Y-87576611D01*
X192045424Y-88142296D01*
G37*
G36*
X193210000Y-86995679D02*
G01*
X192644315Y-86429994D01*
X193210000Y-85864309D01*
X193775685Y-86429994D01*
X193210000Y-86995679D01*
G37*
G04 #@! TD*
G04 #@! TO.C,D4.11*
G36*
X192045424Y-90808962D02*
G01*
X191479739Y-90243277D01*
X192045424Y-89677592D01*
X192611109Y-90243277D01*
X192045424Y-90808962D01*
G37*
G36*
X193210000Y-89662345D02*
G01*
X192644315Y-89096660D01*
X193210000Y-88530975D01*
X193775685Y-89096660D01*
X193210000Y-89662345D01*
G37*
G04 #@! TD*
G04 #@! TO.C,D4.16*
G36*
X192045424Y-104142292D02*
G01*
X191479739Y-103576607D01*
X192045424Y-103010922D01*
X192611109Y-103576607D01*
X192045424Y-104142292D01*
G37*
G36*
X193210000Y-102995675D02*
G01*
X192644315Y-102429990D01*
X193210000Y-101864305D01*
X193775685Y-102429990D01*
X193210000Y-102995675D01*
G37*
G04 #@! TD*
G04 #@! TO.C,D3.14*
G36*
X194705424Y-98808960D02*
G01*
X194139739Y-98243275D01*
X194705424Y-97677590D01*
X195271109Y-98243275D01*
X194705424Y-98808960D01*
G37*
G36*
X195870000Y-97662343D02*
G01*
X195304315Y-97096658D01*
X195870000Y-96530973D01*
X196435685Y-97096658D01*
X195870000Y-97662343D01*
G37*
G04 #@! TD*
G04 #@! TO.C,D3.13*
G36*
X194705424Y-96142294D02*
G01*
X194139739Y-95576609D01*
X194705424Y-95010924D01*
X195271109Y-95576609D01*
X194705424Y-96142294D01*
G37*
G36*
X195870000Y-94995677D02*
G01*
X195304315Y-94429992D01*
X195870000Y-93864307D01*
X196435685Y-94429992D01*
X195870000Y-94995677D01*
G37*
G04 #@! TD*
G04 #@! TO.C,D3.12*
G36*
X194705424Y-93475628D02*
G01*
X194139739Y-92909943D01*
X194705424Y-92344258D01*
X195271109Y-92909943D01*
X194705424Y-93475628D01*
G37*
G36*
X195870000Y-92329011D02*
G01*
X195304315Y-91763326D01*
X195870000Y-91197641D01*
X196435685Y-91763326D01*
X195870000Y-92329011D01*
G37*
G04 #@! TD*
G04 #@! TO.C,D3.1*
G36*
X194705424Y-64142302D02*
G01*
X194139739Y-63576617D01*
X194705424Y-63010932D01*
X195271109Y-63576617D01*
X194705424Y-64142302D01*
G37*
G36*
X195870000Y-62995685D02*
G01*
X195304315Y-62430000D01*
X195870000Y-61864315D01*
X196435685Y-62430000D01*
X195870000Y-62995685D01*
G37*
G04 #@! TD*
G04 #@! TO.C,D3.2*
G36*
X194705424Y-66808968D02*
G01*
X194139739Y-66243283D01*
X194705424Y-65677598D01*
X195271109Y-66243283D01*
X194705424Y-66808968D01*
G37*
G36*
X195870000Y-65662351D02*
G01*
X195304315Y-65096666D01*
X195870000Y-64530981D01*
X196435685Y-65096666D01*
X195870000Y-65662351D01*
G37*
G04 #@! TD*
G04 #@! TO.C,D3.4*
G36*
X194705424Y-72142300D02*
G01*
X194139739Y-71576615D01*
X194705424Y-71010930D01*
X195271109Y-71576615D01*
X194705424Y-72142300D01*
G37*
G36*
X195870000Y-70995683D02*
G01*
X195304315Y-70429998D01*
X195870000Y-69864313D01*
X196435685Y-70429998D01*
X195870000Y-70995683D01*
G37*
G04 #@! TD*
G04 #@! TO.C,D3.5*
G36*
X194705424Y-74808966D02*
G01*
X194139739Y-74243281D01*
X194705424Y-73677596D01*
X195271109Y-74243281D01*
X194705424Y-74808966D01*
G37*
G36*
X195870000Y-73662349D02*
G01*
X195304315Y-73096664D01*
X195870000Y-72530979D01*
X196435685Y-73096664D01*
X195870000Y-73662349D01*
G37*
G04 #@! TD*
G04 #@! TO.C,D3.15*
G36*
X194705424Y-101475626D02*
G01*
X194139739Y-100909941D01*
X194705424Y-100344256D01*
X195271109Y-100909941D01*
X194705424Y-101475626D01*
G37*
G36*
X195870000Y-100329009D02*
G01*
X195304315Y-99763324D01*
X195870000Y-99197639D01*
X196435685Y-99763324D01*
X195870000Y-100329009D01*
G37*
G04 #@! TD*
G04 #@! TO.C,D3.6*
G36*
X194705424Y-77475632D02*
G01*
X194139739Y-76909947D01*
X194705424Y-76344262D01*
X195271109Y-76909947D01*
X194705424Y-77475632D01*
G37*
G36*
X195870000Y-76329015D02*
G01*
X195304315Y-75763330D01*
X195870000Y-75197645D01*
X196435685Y-75763330D01*
X195870000Y-76329015D01*
G37*
G04 #@! TD*
G04 #@! TO.C,D3.7*
G36*
X194705424Y-80142298D02*
G01*
X194139739Y-79576613D01*
X194705424Y-79010928D01*
X195271109Y-79576613D01*
X194705424Y-80142298D01*
G37*
G36*
X195870000Y-78995681D02*
G01*
X195304315Y-78429996D01*
X195870000Y-77864311D01*
X196435685Y-78429996D01*
X195870000Y-78995681D01*
G37*
G04 #@! TD*
G04 #@! TO.C,D3.8*
G36*
X194705424Y-82808964D02*
G01*
X194139739Y-82243279D01*
X194705424Y-81677594D01*
X195271109Y-82243279D01*
X194705424Y-82808964D01*
G37*
G36*
X195870000Y-81662347D02*
G01*
X195304315Y-81096662D01*
X195870000Y-80530977D01*
X196435685Y-81096662D01*
X195870000Y-81662347D01*
G37*
G04 #@! TD*
G04 #@! TO.C,D3.9*
G36*
X194705424Y-85475630D02*
G01*
X194139739Y-84909945D01*
X194705424Y-84344260D01*
X195271109Y-84909945D01*
X194705424Y-85475630D01*
G37*
G36*
X195870000Y-84329013D02*
G01*
X195304315Y-83763328D01*
X195870000Y-83197643D01*
X196435685Y-83763328D01*
X195870000Y-84329013D01*
G37*
G04 #@! TD*
G04 #@! TO.C,D3.10*
G36*
X194705424Y-88142296D02*
G01*
X194139739Y-87576611D01*
X194705424Y-87010926D01*
X195271109Y-87576611D01*
X194705424Y-88142296D01*
G37*
G36*
X195870000Y-86995679D02*
G01*
X195304315Y-86429994D01*
X195870000Y-85864309D01*
X196435685Y-86429994D01*
X195870000Y-86995679D01*
G37*
G04 #@! TD*
G04 #@! TO.C,D3.11*
G36*
X194705424Y-90808962D02*
G01*
X194139739Y-90243277D01*
X194705424Y-89677592D01*
X195271109Y-90243277D01*
X194705424Y-90808962D01*
G37*
G36*
X195870000Y-89662345D02*
G01*
X195304315Y-89096660D01*
X195870000Y-88530975D01*
X196435685Y-89096660D01*
X195870000Y-89662345D01*
G37*
G04 #@! TD*
G04 #@! TO.C,D3.16*
G36*
X194705424Y-104142292D02*
G01*
X194139739Y-103576607D01*
X194705424Y-103010922D01*
X195271109Y-103576607D01*
X194705424Y-104142292D01*
G37*
G36*
X195870000Y-102995675D02*
G01*
X195304315Y-102429990D01*
X195870000Y-101864305D01*
X196435685Y-102429990D01*
X195870000Y-102995675D01*
G37*
G04 #@! TD*
G04 #@! TO.C,D2.16*
G36*
X197375424Y-104142292D02*
G01*
X196809739Y-103576607D01*
X197375424Y-103010922D01*
X197941109Y-103576607D01*
X197375424Y-104142292D01*
G37*
G36*
X198540000Y-102995675D02*
G01*
X197974315Y-102429990D01*
X198540000Y-101864305D01*
X199105685Y-102429990D01*
X198540000Y-102995675D01*
G37*
G04 #@! TD*
G04 #@! TO.C,D2.9*
G36*
X197375424Y-85475630D02*
G01*
X196809739Y-84909945D01*
X197375424Y-84344260D01*
X197941109Y-84909945D01*
X197375424Y-85475630D01*
G37*
G36*
X198540000Y-84329013D02*
G01*
X197974315Y-83763328D01*
X198540000Y-83197643D01*
X199105685Y-83763328D01*
X198540000Y-84329013D01*
G37*
G04 #@! TD*
G04 #@! TO.C,D2.8*
G36*
X197375424Y-82808964D02*
G01*
X196809739Y-82243279D01*
X197375424Y-81677594D01*
X197941109Y-82243279D01*
X197375424Y-82808964D01*
G37*
G36*
X198540000Y-81662347D02*
G01*
X197974315Y-81096662D01*
X198540000Y-80530977D01*
X199105685Y-81096662D01*
X198540000Y-81662347D01*
G37*
G04 #@! TD*
G04 #@! TO.C,D2.7*
G36*
X197375424Y-80142298D02*
G01*
X196809739Y-79576613D01*
X197375424Y-79010928D01*
X197941109Y-79576613D01*
X197375424Y-80142298D01*
G37*
G36*
X198540000Y-78995681D02*
G01*
X197974315Y-78429996D01*
X198540000Y-77864311D01*
X199105685Y-78429996D01*
X198540000Y-78995681D01*
G37*
G04 #@! TD*
G04 #@! TO.C,D2.6*
G36*
X197375424Y-77475632D02*
G01*
X196809739Y-76909947D01*
X197375424Y-76344262D01*
X197941109Y-76909947D01*
X197375424Y-77475632D01*
G37*
G36*
X198540000Y-76329015D02*
G01*
X197974315Y-75763330D01*
X198540000Y-75197645D01*
X199105685Y-75763330D01*
X198540000Y-76329015D01*
G37*
G04 #@! TD*
G04 #@! TO.C,D2.5*
G36*
X197375424Y-74808966D02*
G01*
X196809739Y-74243281D01*
X197375424Y-73677596D01*
X197941109Y-74243281D01*
X197375424Y-74808966D01*
G37*
G36*
X198540000Y-73662349D02*
G01*
X197974315Y-73096664D01*
X198540000Y-72530979D01*
X199105685Y-73096664D01*
X198540000Y-73662349D01*
G37*
G04 #@! TD*
G04 #@! TO.C,D2.4*
G36*
X197375424Y-72142300D02*
G01*
X196809739Y-71576615D01*
X197375424Y-71010930D01*
X197941109Y-71576615D01*
X197375424Y-72142300D01*
G37*
G36*
X198540000Y-70995683D02*
G01*
X197974315Y-70429998D01*
X198540000Y-69864313D01*
X199105685Y-70429998D01*
X198540000Y-70995683D01*
G37*
G04 #@! TD*
G04 #@! TO.C,D2.12*
G36*
X197375424Y-93475628D02*
G01*
X196809739Y-92909943D01*
X197375424Y-92344258D01*
X197941109Y-92909943D01*
X197375424Y-93475628D01*
G37*
G36*
X198540000Y-92329011D02*
G01*
X197974315Y-91763326D01*
X198540000Y-91197641D01*
X199105685Y-91763326D01*
X198540000Y-92329011D01*
G37*
G04 #@! TD*
G04 #@! TO.C,D2.15*
G36*
X197375424Y-101475626D02*
G01*
X196809739Y-100909941D01*
X197375424Y-100344256D01*
X197941109Y-100909941D01*
X197375424Y-101475626D01*
G37*
G36*
X198540000Y-100329009D02*
G01*
X197974315Y-99763324D01*
X198540000Y-99197639D01*
X199105685Y-99763324D01*
X198540000Y-100329009D01*
G37*
G04 #@! TD*
G04 #@! TO.C,D2.10*
G36*
X197375424Y-88142296D02*
G01*
X196809739Y-87576611D01*
X197375424Y-87010926D01*
X197941109Y-87576611D01*
X197375424Y-88142296D01*
G37*
G36*
X198540000Y-86995679D02*
G01*
X197974315Y-86429994D01*
X198540000Y-85864309D01*
X199105685Y-86429994D01*
X198540000Y-86995679D01*
G37*
G04 #@! TD*
G04 #@! TO.C,D2.13*
G36*
X197375424Y-96142294D02*
G01*
X196809739Y-95576609D01*
X197375424Y-95010924D01*
X197941109Y-95576609D01*
X197375424Y-96142294D01*
G37*
G36*
X198540000Y-94995677D02*
G01*
X197974315Y-94429992D01*
X198540000Y-93864307D01*
X199105685Y-94429992D01*
X198540000Y-94995677D01*
G37*
G04 #@! TD*
G04 #@! TO.C,D2.3*
G36*
X197375424Y-69475634D02*
G01*
X196809739Y-68909949D01*
X197375424Y-68344264D01*
X197941109Y-68909949D01*
X197375424Y-69475634D01*
G37*
G36*
X198540000Y-68329017D02*
G01*
X197974315Y-67763332D01*
X198540000Y-67197647D01*
X199105685Y-67763332D01*
X198540000Y-68329017D01*
G37*
G04 #@! TD*
G04 #@! TO.C,D2.2*
G36*
X197375424Y-66808968D02*
G01*
X196809739Y-66243283D01*
X197375424Y-65677598D01*
X197941109Y-66243283D01*
X197375424Y-66808968D01*
G37*
G36*
X198540000Y-65662351D02*
G01*
X197974315Y-65096666D01*
X198540000Y-64530981D01*
X199105685Y-65096666D01*
X198540000Y-65662351D01*
G37*
G04 #@! TD*
G04 #@! TO.C,D2.1*
G36*
X197375424Y-64142302D02*
G01*
X196809739Y-63576617D01*
X197375424Y-63010932D01*
X197941109Y-63576617D01*
X197375424Y-64142302D01*
G37*
G36*
X198540000Y-62995685D02*
G01*
X197974315Y-62430000D01*
X198540000Y-61864315D01*
X199105685Y-62430000D01*
X198540000Y-62995685D01*
G37*
G04 #@! TD*
G04 #@! TO.C,D2.14*
G36*
X197375424Y-98808960D02*
G01*
X196809739Y-98243275D01*
X197375424Y-97677590D01*
X197941109Y-98243275D01*
X197375424Y-98808960D01*
G37*
G36*
X198540000Y-97662343D02*
G01*
X197974315Y-97096658D01*
X198540000Y-96530973D01*
X199105685Y-97096658D01*
X198540000Y-97662343D01*
G37*
G04 #@! TD*
G04 #@! TO.C,D2.11*
G36*
X197375424Y-90808962D02*
G01*
X196809739Y-90243277D01*
X197375424Y-89677592D01*
X197941109Y-90243277D01*
X197375424Y-90808962D01*
G37*
G36*
X198540000Y-89662345D02*
G01*
X197974315Y-89096660D01*
X198540000Y-88530975D01*
X199105685Y-89096660D01*
X198540000Y-89662345D01*
G37*
G04 #@! TD*
G04 #@! TO.C,D1.2*
G36*
X200045424Y-66808968D02*
G01*
X199479739Y-66243283D01*
X200045424Y-65677598D01*
X200611109Y-66243283D01*
X200045424Y-66808968D01*
G37*
G36*
X201210000Y-65662351D02*
G01*
X200644315Y-65096666D01*
X201210000Y-64530981D01*
X201775685Y-65096666D01*
X201210000Y-65662351D01*
G37*
G04 #@! TD*
G04 #@! TO.C,D1.16*
G36*
X200045424Y-104142292D02*
G01*
X199479739Y-103576607D01*
X200045424Y-103010922D01*
X200611109Y-103576607D01*
X200045424Y-104142292D01*
G37*
G36*
X201210000Y-102995675D02*
G01*
X200644315Y-102429990D01*
X201210000Y-101864305D01*
X201775685Y-102429990D01*
X201210000Y-102995675D01*
G37*
G04 #@! TD*
G04 #@! TO.C,D1.3*
G36*
X200045424Y-69475634D02*
G01*
X199479739Y-68909949D01*
X200045424Y-68344264D01*
X200611109Y-68909949D01*
X200045424Y-69475634D01*
G37*
G36*
X201210000Y-68329017D02*
G01*
X200644315Y-67763332D01*
X201210000Y-67197647D01*
X201775685Y-67763332D01*
X201210000Y-68329017D01*
G37*
G04 #@! TD*
G04 #@! TO.C,D1.4*
G36*
X200045424Y-72142300D02*
G01*
X199479739Y-71576615D01*
X200045424Y-71010930D01*
X200611109Y-71576615D01*
X200045424Y-72142300D01*
G37*
G36*
X201210000Y-70995683D02*
G01*
X200644315Y-70429998D01*
X201210000Y-69864313D01*
X201775685Y-70429998D01*
X201210000Y-70995683D01*
G37*
G04 #@! TD*
G04 #@! TO.C,D1.5*
G36*
X200045424Y-74808966D02*
G01*
X199479739Y-74243281D01*
X200045424Y-73677596D01*
X200611109Y-74243281D01*
X200045424Y-74808966D01*
G37*
G36*
X201210000Y-73662349D02*
G01*
X200644315Y-73096664D01*
X201210000Y-72530979D01*
X201775685Y-73096664D01*
X201210000Y-73662349D01*
G37*
G04 #@! TD*
G04 #@! TO.C,D1.15*
G36*
X200045424Y-101475626D02*
G01*
X199479739Y-100909941D01*
X200045424Y-100344256D01*
X200611109Y-100909941D01*
X200045424Y-101475626D01*
G37*
G36*
X201210000Y-100329009D02*
G01*
X200644315Y-99763324D01*
X201210000Y-99197639D01*
X201775685Y-99763324D01*
X201210000Y-100329009D01*
G37*
G04 #@! TD*
G04 #@! TO.C,D1.6*
G36*
X200045424Y-77475632D02*
G01*
X199479739Y-76909947D01*
X200045424Y-76344262D01*
X200611109Y-76909947D01*
X200045424Y-77475632D01*
G37*
G36*
X201210000Y-76329015D02*
G01*
X200644315Y-75763330D01*
X201210000Y-75197645D01*
X201775685Y-75763330D01*
X201210000Y-76329015D01*
G37*
G04 #@! TD*
G04 #@! TO.C,D1.7*
G36*
X200045424Y-80142298D02*
G01*
X199479739Y-79576613D01*
X200045424Y-79010928D01*
X200611109Y-79576613D01*
X200045424Y-80142298D01*
G37*
G36*
X201210000Y-78995681D02*
G01*
X200644315Y-78429996D01*
X201210000Y-77864311D01*
X201775685Y-78429996D01*
X201210000Y-78995681D01*
G37*
G04 #@! TD*
G04 #@! TO.C,D1.8*
G36*
X200045424Y-82808964D02*
G01*
X199479739Y-82243279D01*
X200045424Y-81677594D01*
X200611109Y-82243279D01*
X200045424Y-82808964D01*
G37*
G36*
X201210000Y-81662347D02*
G01*
X200644315Y-81096662D01*
X201210000Y-80530977D01*
X201775685Y-81096662D01*
X201210000Y-81662347D01*
G37*
G04 #@! TD*
G04 #@! TO.C,D1.9*
G36*
X200045424Y-85475630D02*
G01*
X199479739Y-84909945D01*
X200045424Y-84344260D01*
X200611109Y-84909945D01*
X200045424Y-85475630D01*
G37*
G36*
X201210000Y-84329013D02*
G01*
X200644315Y-83763328D01*
X201210000Y-83197643D01*
X201775685Y-83763328D01*
X201210000Y-84329013D01*
G37*
G04 #@! TD*
G04 #@! TO.C,D1.14*
G36*
X200045424Y-98808960D02*
G01*
X199479739Y-98243275D01*
X200045424Y-97677590D01*
X200611109Y-98243275D01*
X200045424Y-98808960D01*
G37*
G36*
X201210000Y-97662343D02*
G01*
X200644315Y-97096658D01*
X201210000Y-96530973D01*
X201775685Y-97096658D01*
X201210000Y-97662343D01*
G37*
G04 #@! TD*
G04 #@! TO.C,D1.13*
G36*
X200045424Y-96142294D02*
G01*
X199479739Y-95576609D01*
X200045424Y-95010924D01*
X200611109Y-95576609D01*
X200045424Y-96142294D01*
G37*
G36*
X201210000Y-94995677D02*
G01*
X200644315Y-94429992D01*
X201210000Y-93864307D01*
X201775685Y-94429992D01*
X201210000Y-94995677D01*
G37*
G04 #@! TD*
G04 #@! TO.C,D1.10*
G36*
X200045424Y-88142296D02*
G01*
X199479739Y-87576611D01*
X200045424Y-87010926D01*
X200611109Y-87576611D01*
X200045424Y-88142296D01*
G37*
G36*
X201210000Y-86995679D02*
G01*
X200644315Y-86429994D01*
X201210000Y-85864309D01*
X201775685Y-86429994D01*
X201210000Y-86995679D01*
G37*
G04 #@! TD*
G04 #@! TO.C,D1.1*
G36*
X200045424Y-64142302D02*
G01*
X199479739Y-63576617D01*
X200045424Y-63010932D01*
X200611109Y-63576617D01*
X200045424Y-64142302D01*
G37*
G36*
X201210000Y-62995685D02*
G01*
X200644315Y-62430000D01*
X201210000Y-61864315D01*
X201775685Y-62430000D01*
X201210000Y-62995685D01*
G37*
G04 #@! TD*
G04 #@! TO.C,D1.12*
G36*
X200045424Y-93475628D02*
G01*
X199479739Y-92909943D01*
X200045424Y-92344258D01*
X200611109Y-92909943D01*
X200045424Y-93475628D01*
G37*
G36*
X201210000Y-92329011D02*
G01*
X200644315Y-91763326D01*
X201210000Y-91197641D01*
X201775685Y-91763326D01*
X201210000Y-92329011D01*
G37*
G04 #@! TD*
G04 #@! TO.C,D1.11*
G36*
X200045424Y-90808962D02*
G01*
X199479739Y-90243277D01*
X200045424Y-89677592D01*
X200611109Y-90243277D01*
X200045424Y-90808962D01*
G37*
G36*
X201210000Y-89662345D02*
G01*
X200644315Y-89096660D01*
X201210000Y-88530975D01*
X201775685Y-89096660D01*
X201210000Y-89662345D01*
G37*
G04 #@! TD*
M02*
