G04 #@! TF.GenerationSoftware,KiCad,Pcbnew,(5.1.12-1-10_14)*
G04 #@! TF.CreationDate,2021-12-27T13:20:27-05:00*
G04 #@! TF.ProjectId,ledtrix,6c656474-7269-4782-9e6b-696361645f70,rev?*
G04 #@! TF.SameCoordinates,Original*
G04 #@! TF.FileFunction,AssemblyDrawing,Top*
%FSLAX46Y46*%
G04 Gerber Fmt 4.6, Leading zero omitted, Abs format (unit mm)*
G04 Created by KiCad (PCBNEW (5.1.12-1-10_14)) date 2021-12-27 13:20:27*
%MOMM*%
%LPD*%
G01*
G04 APERTURE LIST*
%ADD10C,0.100000*%
%ADD11C,0.150000*%
G04 APERTURE END LIST*
D10*
G04 #@! TO.C,J2*
X201165000Y-108519990D02*
X201165000Y-110424990D01*
X201165000Y-110424990D02*
X178305000Y-110424990D01*
X178305000Y-110424990D02*
X178305000Y-107884990D01*
X178305000Y-107884990D02*
X200530000Y-107884990D01*
X200530000Y-107884990D02*
X201165000Y-108519990D01*
G04 #@! TO.C,J1*
X201165000Y-57789990D02*
X201165000Y-59694990D01*
X201165000Y-59694990D02*
X178305000Y-59694990D01*
X178305000Y-59694990D02*
X178305000Y-57154990D01*
X178305000Y-57154990D02*
X200530000Y-57154990D01*
X200530000Y-57154990D02*
X201165000Y-57789990D01*
G04 #@! TD*
G04 #@! TO.C,H9*
D11*
X202894285Y-107643370D02*
X202894285Y-106643370D01*
X203227619Y-107357656D01*
X203560952Y-106643370D01*
X203560952Y-107643370D01*
X204180000Y-107643370D02*
X204084761Y-107595751D01*
X204037142Y-107548132D01*
X203989523Y-107452894D01*
X203989523Y-107167180D01*
X204037142Y-107071942D01*
X204084761Y-107024323D01*
X204180000Y-106976704D01*
X204322857Y-106976704D01*
X204418095Y-107024323D01*
X204465714Y-107071942D01*
X204513333Y-107167180D01*
X204513333Y-107452894D01*
X204465714Y-107548132D01*
X204418095Y-107595751D01*
X204322857Y-107643370D01*
X204180000Y-107643370D01*
X205370476Y-106976704D02*
X205370476Y-107643370D01*
X204941904Y-106976704D02*
X204941904Y-107500513D01*
X204989523Y-107595751D01*
X205084761Y-107643370D01*
X205227619Y-107643370D01*
X205322857Y-107595751D01*
X205370476Y-107548132D01*
X205846666Y-106976704D02*
X205846666Y-107643370D01*
X205846666Y-107071942D02*
X205894285Y-107024323D01*
X205989523Y-106976704D01*
X206132380Y-106976704D01*
X206227619Y-107024323D01*
X206275238Y-107119561D01*
X206275238Y-107643370D01*
X206608571Y-106976704D02*
X206989523Y-106976704D01*
X206751428Y-106643370D02*
X206751428Y-107500513D01*
X206799047Y-107595751D01*
X206894285Y-107643370D01*
X206989523Y-107643370D01*
X207322857Y-107643370D02*
X207322857Y-106976704D01*
X207322857Y-106643370D02*
X207275238Y-106690990D01*
X207322857Y-106738609D01*
X207370476Y-106690990D01*
X207322857Y-106643370D01*
X207322857Y-106738609D01*
X207799047Y-106976704D02*
X207799047Y-107643370D01*
X207799047Y-107071942D02*
X207846666Y-107024323D01*
X207941904Y-106976704D01*
X208084761Y-106976704D01*
X208180000Y-107024323D01*
X208227619Y-107119561D01*
X208227619Y-107643370D01*
X209132380Y-106976704D02*
X209132380Y-107786228D01*
X209084761Y-107881466D01*
X209037142Y-107929085D01*
X208941904Y-107976704D01*
X208799047Y-107976704D01*
X208703809Y-107929085D01*
X209132380Y-107595751D02*
X209037142Y-107643370D01*
X208846666Y-107643370D01*
X208751428Y-107595751D01*
X208703809Y-107548132D01*
X208656190Y-107452894D01*
X208656190Y-107167180D01*
X208703809Y-107071942D01*
X208751428Y-107024323D01*
X208846666Y-106976704D01*
X209037142Y-106976704D01*
X209132380Y-107024323D01*
X209608571Y-107643370D02*
X209608571Y-106643370D01*
X209608571Y-107119561D02*
X210180000Y-107119561D01*
X210180000Y-107643370D02*
X210180000Y-106643370D01*
X210799047Y-107643370D02*
X210703809Y-107595751D01*
X210656190Y-107548132D01*
X210608571Y-107452894D01*
X210608571Y-107167180D01*
X210656190Y-107071942D01*
X210703809Y-107024323D01*
X210799047Y-106976704D01*
X210941904Y-106976704D01*
X211037142Y-107024323D01*
X211084761Y-107071942D01*
X211132380Y-107167180D01*
X211132380Y-107452894D01*
X211084761Y-107548132D01*
X211037142Y-107595751D01*
X210941904Y-107643370D01*
X210799047Y-107643370D01*
X211703809Y-107643370D02*
X211608571Y-107595751D01*
X211560952Y-107500513D01*
X211560952Y-106643370D01*
X212465714Y-107595751D02*
X212370476Y-107643370D01*
X212180000Y-107643370D01*
X212084761Y-107595751D01*
X212037142Y-107500513D01*
X212037142Y-107119561D01*
X212084761Y-107024323D01*
X212180000Y-106976704D01*
X212370476Y-106976704D01*
X212465714Y-107024323D01*
X212513333Y-107119561D01*
X212513333Y-107214799D01*
X212037142Y-107310037D01*
X207218095Y-104143370D02*
X207218095Y-103143370D01*
X207218095Y-103619561D02*
X207789523Y-103619561D01*
X207789523Y-104143370D02*
X207789523Y-103143370D01*
X208313333Y-104143370D02*
X208503809Y-104143370D01*
X208599047Y-104095751D01*
X208646666Y-104048132D01*
X208741904Y-103905275D01*
X208789523Y-103714799D01*
X208789523Y-103333847D01*
X208741904Y-103238609D01*
X208694285Y-103190990D01*
X208599047Y-103143370D01*
X208408571Y-103143370D01*
X208313333Y-103190990D01*
X208265714Y-103238609D01*
X208218095Y-103333847D01*
X208218095Y-103571942D01*
X208265714Y-103667180D01*
X208313333Y-103714799D01*
X208408571Y-103762418D01*
X208599047Y-103762418D01*
X208694285Y-103714799D01*
X208741904Y-103667180D01*
X208789523Y-103571942D01*
G04 #@! TO.C,H8*
X167334285Y-66241370D02*
X167334285Y-65241370D01*
X167667619Y-65955656D01*
X168000952Y-65241370D01*
X168000952Y-66241370D01*
X168620000Y-66241370D02*
X168524761Y-66193751D01*
X168477142Y-66146132D01*
X168429523Y-66050894D01*
X168429523Y-65765180D01*
X168477142Y-65669942D01*
X168524761Y-65622323D01*
X168620000Y-65574704D01*
X168762857Y-65574704D01*
X168858095Y-65622323D01*
X168905714Y-65669942D01*
X168953333Y-65765180D01*
X168953333Y-66050894D01*
X168905714Y-66146132D01*
X168858095Y-66193751D01*
X168762857Y-66241370D01*
X168620000Y-66241370D01*
X169810476Y-65574704D02*
X169810476Y-66241370D01*
X169381904Y-65574704D02*
X169381904Y-66098513D01*
X169429523Y-66193751D01*
X169524761Y-66241370D01*
X169667619Y-66241370D01*
X169762857Y-66193751D01*
X169810476Y-66146132D01*
X170286666Y-65574704D02*
X170286666Y-66241370D01*
X170286666Y-65669942D02*
X170334285Y-65622323D01*
X170429523Y-65574704D01*
X170572380Y-65574704D01*
X170667619Y-65622323D01*
X170715238Y-65717561D01*
X170715238Y-66241370D01*
X171048571Y-65574704D02*
X171429523Y-65574704D01*
X171191428Y-65241370D02*
X171191428Y-66098513D01*
X171239047Y-66193751D01*
X171334285Y-66241370D01*
X171429523Y-66241370D01*
X171762857Y-66241370D02*
X171762857Y-65574704D01*
X171762857Y-65241370D02*
X171715238Y-65288990D01*
X171762857Y-65336609D01*
X171810476Y-65288990D01*
X171762857Y-65241370D01*
X171762857Y-65336609D01*
X172239047Y-65574704D02*
X172239047Y-66241370D01*
X172239047Y-65669942D02*
X172286666Y-65622323D01*
X172381904Y-65574704D01*
X172524761Y-65574704D01*
X172620000Y-65622323D01*
X172667619Y-65717561D01*
X172667619Y-66241370D01*
X173572380Y-65574704D02*
X173572380Y-66384228D01*
X173524761Y-66479466D01*
X173477142Y-66527085D01*
X173381904Y-66574704D01*
X173239047Y-66574704D01*
X173143809Y-66527085D01*
X173572380Y-66193751D02*
X173477142Y-66241370D01*
X173286666Y-66241370D01*
X173191428Y-66193751D01*
X173143809Y-66146132D01*
X173096190Y-66050894D01*
X173096190Y-65765180D01*
X173143809Y-65669942D01*
X173191428Y-65622323D01*
X173286666Y-65574704D01*
X173477142Y-65574704D01*
X173572380Y-65622323D01*
X174048571Y-66241370D02*
X174048571Y-65241370D01*
X174048571Y-65717561D02*
X174620000Y-65717561D01*
X174620000Y-66241370D02*
X174620000Y-65241370D01*
X175239047Y-66241370D02*
X175143809Y-66193751D01*
X175096190Y-66146132D01*
X175048571Y-66050894D01*
X175048571Y-65765180D01*
X175096190Y-65669942D01*
X175143809Y-65622323D01*
X175239047Y-65574704D01*
X175381904Y-65574704D01*
X175477142Y-65622323D01*
X175524761Y-65669942D01*
X175572380Y-65765180D01*
X175572380Y-66050894D01*
X175524761Y-66146132D01*
X175477142Y-66193751D01*
X175381904Y-66241370D01*
X175239047Y-66241370D01*
X176143809Y-66241370D02*
X176048571Y-66193751D01*
X176000952Y-66098513D01*
X176000952Y-65241370D01*
X176905714Y-66193751D02*
X176810476Y-66241370D01*
X176620000Y-66241370D01*
X176524761Y-66193751D01*
X176477142Y-66098513D01*
X176477142Y-65717561D01*
X176524761Y-65622323D01*
X176620000Y-65574704D01*
X176810476Y-65574704D01*
X176905714Y-65622323D01*
X176953333Y-65717561D01*
X176953333Y-65812799D01*
X176477142Y-65908037D01*
X171658095Y-62741370D02*
X171658095Y-61741370D01*
X171658095Y-62217561D02*
X172229523Y-62217561D01*
X172229523Y-62741370D02*
X172229523Y-61741370D01*
X172848571Y-62169942D02*
X172753333Y-62122323D01*
X172705714Y-62074704D01*
X172658095Y-61979466D01*
X172658095Y-61931847D01*
X172705714Y-61836609D01*
X172753333Y-61788990D01*
X172848571Y-61741370D01*
X173039047Y-61741370D01*
X173134285Y-61788990D01*
X173181904Y-61836609D01*
X173229523Y-61931847D01*
X173229523Y-61979466D01*
X173181904Y-62074704D01*
X173134285Y-62122323D01*
X173039047Y-62169942D01*
X172848571Y-62169942D01*
X172753333Y-62217561D01*
X172705714Y-62265180D01*
X172658095Y-62360418D01*
X172658095Y-62550894D01*
X172705714Y-62646132D01*
X172753333Y-62693751D01*
X172848571Y-62741370D01*
X173039047Y-62741370D01*
X173134285Y-62693751D01*
X173181904Y-62646132D01*
X173229523Y-62550894D01*
X173229523Y-62360418D01*
X173181904Y-62265180D01*
X173134285Y-62217561D01*
X173039047Y-62169942D01*
G04 #@! TO.C,H7*
X202894285Y-66495370D02*
X202894285Y-65495370D01*
X203227619Y-66209656D01*
X203560952Y-65495370D01*
X203560952Y-66495370D01*
X204180000Y-66495370D02*
X204084761Y-66447751D01*
X204037142Y-66400132D01*
X203989523Y-66304894D01*
X203989523Y-66019180D01*
X204037142Y-65923942D01*
X204084761Y-65876323D01*
X204180000Y-65828704D01*
X204322857Y-65828704D01*
X204418095Y-65876323D01*
X204465714Y-65923942D01*
X204513333Y-66019180D01*
X204513333Y-66304894D01*
X204465714Y-66400132D01*
X204418095Y-66447751D01*
X204322857Y-66495370D01*
X204180000Y-66495370D01*
X205370476Y-65828704D02*
X205370476Y-66495370D01*
X204941904Y-65828704D02*
X204941904Y-66352513D01*
X204989523Y-66447751D01*
X205084761Y-66495370D01*
X205227619Y-66495370D01*
X205322857Y-66447751D01*
X205370476Y-66400132D01*
X205846666Y-65828704D02*
X205846666Y-66495370D01*
X205846666Y-65923942D02*
X205894285Y-65876323D01*
X205989523Y-65828704D01*
X206132380Y-65828704D01*
X206227619Y-65876323D01*
X206275238Y-65971561D01*
X206275238Y-66495370D01*
X206608571Y-65828704D02*
X206989523Y-65828704D01*
X206751428Y-65495370D02*
X206751428Y-66352513D01*
X206799047Y-66447751D01*
X206894285Y-66495370D01*
X206989523Y-66495370D01*
X207322857Y-66495370D02*
X207322857Y-65828704D01*
X207322857Y-65495370D02*
X207275238Y-65542990D01*
X207322857Y-65590609D01*
X207370476Y-65542990D01*
X207322857Y-65495370D01*
X207322857Y-65590609D01*
X207799047Y-65828704D02*
X207799047Y-66495370D01*
X207799047Y-65923942D02*
X207846666Y-65876323D01*
X207941904Y-65828704D01*
X208084761Y-65828704D01*
X208180000Y-65876323D01*
X208227619Y-65971561D01*
X208227619Y-66495370D01*
X209132380Y-65828704D02*
X209132380Y-66638228D01*
X209084761Y-66733466D01*
X209037142Y-66781085D01*
X208941904Y-66828704D01*
X208799047Y-66828704D01*
X208703809Y-66781085D01*
X209132380Y-66447751D02*
X209037142Y-66495370D01*
X208846666Y-66495370D01*
X208751428Y-66447751D01*
X208703809Y-66400132D01*
X208656190Y-66304894D01*
X208656190Y-66019180D01*
X208703809Y-65923942D01*
X208751428Y-65876323D01*
X208846666Y-65828704D01*
X209037142Y-65828704D01*
X209132380Y-65876323D01*
X209608571Y-66495370D02*
X209608571Y-65495370D01*
X209608571Y-65971561D02*
X210180000Y-65971561D01*
X210180000Y-66495370D02*
X210180000Y-65495370D01*
X210799047Y-66495370D02*
X210703809Y-66447751D01*
X210656190Y-66400132D01*
X210608571Y-66304894D01*
X210608571Y-66019180D01*
X210656190Y-65923942D01*
X210703809Y-65876323D01*
X210799047Y-65828704D01*
X210941904Y-65828704D01*
X211037142Y-65876323D01*
X211084761Y-65923942D01*
X211132380Y-66019180D01*
X211132380Y-66304894D01*
X211084761Y-66400132D01*
X211037142Y-66447751D01*
X210941904Y-66495370D01*
X210799047Y-66495370D01*
X211703809Y-66495370D02*
X211608571Y-66447751D01*
X211560952Y-66352513D01*
X211560952Y-65495370D01*
X212465714Y-66447751D02*
X212370476Y-66495370D01*
X212180000Y-66495370D01*
X212084761Y-66447751D01*
X212037142Y-66352513D01*
X212037142Y-65971561D01*
X212084761Y-65876323D01*
X212180000Y-65828704D01*
X212370476Y-65828704D01*
X212465714Y-65876323D01*
X212513333Y-65971561D01*
X212513333Y-66066799D01*
X212037142Y-66162037D01*
X207218095Y-62995370D02*
X207218095Y-61995370D01*
X207218095Y-62471561D02*
X207789523Y-62471561D01*
X207789523Y-62995370D02*
X207789523Y-61995370D01*
X208170476Y-61995370D02*
X208837142Y-61995370D01*
X208408571Y-62995370D01*
G04 #@! TO.C,J2*
X177602142Y-110202609D02*
X177649761Y-110250228D01*
X177697380Y-110393085D01*
X177697380Y-110488323D01*
X177649761Y-110631180D01*
X177554523Y-110726418D01*
X177459285Y-110774037D01*
X177268809Y-110821656D01*
X177125952Y-110821656D01*
X176935476Y-110774037D01*
X176840238Y-110726418D01*
X176745000Y-110631180D01*
X176697380Y-110488323D01*
X176697380Y-110393085D01*
X176745000Y-110250228D01*
X176792619Y-110202609D01*
X177697380Y-109631180D02*
X177649761Y-109726418D01*
X177602142Y-109774037D01*
X177506904Y-109821656D01*
X177221190Y-109821656D01*
X177125952Y-109774037D01*
X177078333Y-109726418D01*
X177030714Y-109631180D01*
X177030714Y-109488323D01*
X177078333Y-109393085D01*
X177125952Y-109345466D01*
X177221190Y-109297847D01*
X177506904Y-109297847D01*
X177602142Y-109345466D01*
X177649761Y-109393085D01*
X177697380Y-109488323D01*
X177697380Y-109631180D01*
X177030714Y-108869275D02*
X177697380Y-108869275D01*
X177125952Y-108869275D02*
X177078333Y-108821656D01*
X177030714Y-108726418D01*
X177030714Y-108583561D01*
X177078333Y-108488323D01*
X177173571Y-108440704D01*
X177697380Y-108440704D01*
X177030714Y-107964513D02*
X177697380Y-107964513D01*
X177125952Y-107964513D02*
X177078333Y-107916894D01*
X177030714Y-107821656D01*
X177030714Y-107678799D01*
X177078333Y-107583561D01*
X177173571Y-107535942D01*
X177697380Y-107535942D01*
X189401666Y-108607370D02*
X189401666Y-109321656D01*
X189354047Y-109464513D01*
X189258809Y-109559751D01*
X189115952Y-109607370D01*
X189020714Y-109607370D01*
X189830238Y-108702609D02*
X189877857Y-108654990D01*
X189973095Y-108607370D01*
X190211190Y-108607370D01*
X190306428Y-108654990D01*
X190354047Y-108702609D01*
X190401666Y-108797847D01*
X190401666Y-108893085D01*
X190354047Y-109035942D01*
X189782619Y-109607370D01*
X190401666Y-109607370D01*
G04 #@! TO.C,J1*
X177602142Y-59472609D02*
X177649761Y-59520228D01*
X177697380Y-59663085D01*
X177697380Y-59758323D01*
X177649761Y-59901180D01*
X177554523Y-59996418D01*
X177459285Y-60044037D01*
X177268809Y-60091656D01*
X177125952Y-60091656D01*
X176935476Y-60044037D01*
X176840238Y-59996418D01*
X176745000Y-59901180D01*
X176697380Y-59758323D01*
X176697380Y-59663085D01*
X176745000Y-59520228D01*
X176792619Y-59472609D01*
X177697380Y-58901180D02*
X177649761Y-58996418D01*
X177602142Y-59044037D01*
X177506904Y-59091656D01*
X177221190Y-59091656D01*
X177125952Y-59044037D01*
X177078333Y-58996418D01*
X177030714Y-58901180D01*
X177030714Y-58758323D01*
X177078333Y-58663085D01*
X177125952Y-58615466D01*
X177221190Y-58567847D01*
X177506904Y-58567847D01*
X177602142Y-58615466D01*
X177649761Y-58663085D01*
X177697380Y-58758323D01*
X177697380Y-58901180D01*
X177030714Y-58139275D02*
X177697380Y-58139275D01*
X177125952Y-58139275D02*
X177078333Y-58091656D01*
X177030714Y-57996418D01*
X177030714Y-57853561D01*
X177078333Y-57758323D01*
X177173571Y-57710704D01*
X177697380Y-57710704D01*
X177030714Y-57234513D02*
X177697380Y-57234513D01*
X177125952Y-57234513D02*
X177078333Y-57186894D01*
X177030714Y-57091656D01*
X177030714Y-56948799D01*
X177078333Y-56853561D01*
X177173571Y-56805942D01*
X177697380Y-56805942D01*
X189401666Y-57877370D02*
X189401666Y-58591656D01*
X189354047Y-58734513D01*
X189258809Y-58829751D01*
X189115952Y-58877370D01*
X189020714Y-58877370D01*
X190401666Y-58877370D02*
X189830238Y-58877370D01*
X190115952Y-58877370D02*
X190115952Y-57877370D01*
X190020714Y-58020228D01*
X189925476Y-58115466D01*
X189830238Y-58163085D01*
G04 #@! TD*
M02*
