G04 #@! TF.GenerationSoftware,KiCad,Pcbnew,(5.1.12-1-10_14)*
G04 #@! TF.CreationDate,2021-12-27T13:20:27-05:00*
G04 #@! TF.ProjectId,ledtrix,6c656474-7269-4782-9e6b-696361645f70,rev?*
G04 #@! TF.SameCoordinates,Original*
G04 #@! TF.FileFunction,Copper,L2,Bot*
G04 #@! TF.FilePolarity,Positive*
%FSLAX46Y46*%
G04 Gerber Fmt 4.6, Leading zero omitted, Abs format (unit mm)*
G04 Created by KiCad (PCBNEW (5.1.12-1-10_14)) date 2021-12-27 13:20:27*
%MOMM*%
%LPD*%
G01*
G04 APERTURE LIST*
G04 #@! TA.AperFunction,WasherPad*
%ADD10C,1.300000*%
G04 #@! TD*
G04 #@! TA.AperFunction,ComponentPad*
%ADD11O,1.700000X1.700000*%
G04 #@! TD*
G04 #@! TA.AperFunction,ComponentPad*
%ADD12R,1.700000X1.700000*%
G04 #@! TD*
G04 #@! TA.AperFunction,ViaPad*
%ADD13C,0.600000*%
G04 #@! TD*
G04 #@! TA.AperFunction,Conductor*
%ADD14C,0.300000*%
G04 #@! TD*
G04 APERTURE END LIST*
D10*
G04 #@! TO.P,H9,*
G04 #@! TO.N,*
X207680000Y-103690990D03*
G04 #@! TD*
G04 #@! TO.P,H8,*
G04 #@! TO.N,*
X172120000Y-62288990D03*
G04 #@! TD*
G04 #@! TO.P,H7,*
G04 #@! TO.N,*
X207680000Y-62542990D03*
G04 #@! TD*
D11*
G04 #@! TO.P,J2,9*
G04 #@! TO.N,/CB9*
X179575000Y-109154990D03*
G04 #@! TO.P,J2,8*
G04 #@! TO.N,/CB8*
X182115000Y-109154990D03*
G04 #@! TO.P,J2,7*
G04 #@! TO.N,/CB7*
X184655000Y-109154990D03*
G04 #@! TO.P,J2,6*
G04 #@! TO.N,/CB6*
X187195000Y-109154990D03*
G04 #@! TO.P,J2,5*
G04 #@! TO.N,/CB5*
X189735000Y-109154990D03*
G04 #@! TO.P,J2,4*
G04 #@! TO.N,/CB4*
X192275000Y-109154990D03*
G04 #@! TO.P,J2,3*
G04 #@! TO.N,/CB3*
X194815000Y-109154990D03*
G04 #@! TO.P,J2,2*
G04 #@! TO.N,/CB2*
X197355000Y-109154990D03*
D12*
G04 #@! TO.P,J2,1*
G04 #@! TO.N,/CB1*
X199895000Y-109154990D03*
G04 #@! TD*
D11*
G04 #@! TO.P,J1,9*
G04 #@! TO.N,/CA9*
X179575000Y-58424990D03*
G04 #@! TO.P,J1,8*
G04 #@! TO.N,/CA8*
X182115000Y-58424990D03*
G04 #@! TO.P,J1,7*
G04 #@! TO.N,/CA7*
X184655000Y-58424990D03*
G04 #@! TO.P,J1,6*
G04 #@! TO.N,/CA6*
X187195000Y-58424990D03*
G04 #@! TO.P,J1,5*
G04 #@! TO.N,/CA5*
X189735000Y-58424990D03*
G04 #@! TO.P,J1,4*
G04 #@! TO.N,/CA4*
X192275000Y-58424990D03*
G04 #@! TO.P,J1,3*
G04 #@! TO.N,/CA3*
X194815000Y-58424990D03*
G04 #@! TO.P,J1,2*
G04 #@! TO.N,/CA2*
X197355000Y-58424990D03*
D12*
G04 #@! TO.P,J1,1*
G04 #@! TO.N,/CA1*
X199895000Y-58424990D03*
G04 #@! TD*
D13*
G04 #@! TO.N,/CA8*
X180510000Y-64449990D03*
X180510000Y-67119990D03*
X180510000Y-69789990D03*
X180510000Y-72459990D03*
X180510000Y-75129990D03*
X180510000Y-77799990D03*
X180510000Y-80469990D03*
X180510000Y-83139990D03*
G04 #@! TO.N,/CA7*
X183180000Y-64449990D03*
X183180000Y-67119990D03*
X183180000Y-69789990D03*
X183180000Y-72459990D03*
X183180000Y-75129990D03*
X183180000Y-77799990D03*
X183180000Y-80469990D03*
X183180000Y-83139990D03*
G04 #@! TO.N,/CA6*
X185850000Y-64449990D03*
X185850000Y-67119990D03*
X185850000Y-69789990D03*
X185850000Y-72459990D03*
X185850000Y-75129990D03*
X185850000Y-77799990D03*
X185850000Y-80469990D03*
X185850000Y-83139990D03*
G04 #@! TO.N,/CA5*
X188520000Y-64449990D03*
X188520000Y-67119990D03*
X188520000Y-69789990D03*
X188520000Y-72459990D03*
X188520000Y-75129990D03*
X188520000Y-77799990D03*
X188520000Y-80469990D03*
X188520000Y-83139990D03*
G04 #@! TO.N,/CA4*
X191190000Y-64449990D03*
X191190000Y-67119990D03*
X191190000Y-69789990D03*
X191190000Y-72459990D03*
X191190000Y-75129990D03*
X191190000Y-77799990D03*
X191190000Y-80469990D03*
X191190000Y-83139990D03*
G04 #@! TO.N,/CA3*
X193860000Y-64449990D03*
X193860000Y-67119990D03*
X193860000Y-69789990D03*
X193860000Y-72459990D03*
X193860000Y-75129990D03*
X193860000Y-77799990D03*
X193860000Y-80469990D03*
X193860000Y-83139990D03*
G04 #@! TO.N,/CA2*
X196530000Y-64449990D03*
X196530000Y-67119990D03*
X196530000Y-69789990D03*
X196530000Y-72459990D03*
X196530000Y-75129990D03*
X196530000Y-77799990D03*
X196530000Y-80469990D03*
X196530000Y-83139990D03*
G04 #@! TO.N,/CA1*
X199200000Y-64449990D03*
X199200000Y-67119990D03*
X199200000Y-69789990D03*
X199200000Y-72459990D03*
X199200000Y-75129990D03*
X199200000Y-77799990D03*
X199200000Y-80469990D03*
X199200000Y-83139990D03*
G04 #@! TO.N,/CB8*
X180510000Y-85809990D03*
X180510000Y-88479990D03*
X180510000Y-91149990D03*
X180510000Y-93819990D03*
X180510000Y-96489990D03*
X180510000Y-99159990D03*
X180510000Y-101829990D03*
G04 #@! TO.N,/CB7*
X183180000Y-85809990D03*
X183180000Y-88479990D03*
X183180000Y-91149990D03*
X183180000Y-93819990D03*
X183180000Y-96489990D03*
X183180000Y-99159990D03*
X183180000Y-101829990D03*
G04 #@! TO.N,/CB6*
X185850000Y-85809990D03*
X185850000Y-88479990D03*
X185850000Y-91149990D03*
X185850000Y-93819990D03*
X185850000Y-96489990D03*
X185850000Y-99159990D03*
X185850000Y-101829990D03*
G04 #@! TO.N,/CB5*
X188520000Y-85809990D03*
X188520000Y-88479990D03*
X188520000Y-91149990D03*
X188520000Y-93819990D03*
X188520000Y-96489990D03*
X188520000Y-99159990D03*
X188520000Y-101829990D03*
G04 #@! TO.N,/CB4*
X191190000Y-85809990D03*
X191190000Y-88479990D03*
X191190000Y-91149990D03*
X191190000Y-93819990D03*
X191190000Y-96489990D03*
X191190000Y-99159990D03*
X191190000Y-101829990D03*
G04 #@! TO.N,/CB3*
X193860000Y-85809990D03*
X193860000Y-88479990D03*
X193860000Y-91149990D03*
X193860000Y-93819990D03*
X193860000Y-96489990D03*
X193860000Y-99159990D03*
X193860000Y-101829990D03*
G04 #@! TO.N,/CB2*
X196530000Y-85809990D03*
X196530000Y-88479990D03*
X196530000Y-91149990D03*
X196530000Y-93819990D03*
X196530000Y-96489990D03*
X196530000Y-99159990D03*
X196530000Y-101829990D03*
G04 #@! TO.N,/CB1*
X197865000Y-83139990D03*
X199200000Y-85809990D03*
X199200000Y-88479990D03*
X199200000Y-91149990D03*
X199200000Y-93819990D03*
X199200000Y-96489990D03*
X199200000Y-99159990D03*
X199200000Y-101829990D03*
G04 #@! TD*
D14*
G04 #@! TO.N,/CA8*
X180510000Y-64449990D02*
X180510000Y-80469990D01*
X180510000Y-80469990D02*
X180510000Y-83139990D01*
X180510000Y-60029990D02*
X182115000Y-58424990D01*
X180510000Y-64449990D02*
X180510000Y-60029990D01*
G04 #@! TO.N,/CA7*
X183180000Y-64449990D02*
X183180000Y-77799990D01*
X183180000Y-77799990D02*
X183180000Y-83139990D01*
X183180000Y-64449990D02*
X183180000Y-60454990D01*
X184655000Y-58979990D02*
X184655000Y-58424990D01*
X183180000Y-60454990D02*
X184655000Y-58979990D01*
G04 #@! TO.N,/CA6*
X185850000Y-64449990D02*
X185850000Y-75129990D01*
X185850000Y-75129990D02*
X185850000Y-83139990D01*
X185850000Y-59769990D02*
X187195000Y-58424990D01*
X185850000Y-64449990D02*
X185850000Y-59769990D01*
G04 #@! TO.N,/CA5*
X188520000Y-72459990D02*
X188520000Y-64449990D01*
X188520000Y-72459990D02*
X188520000Y-83139990D01*
X188520000Y-59639990D02*
X189735000Y-58424990D01*
X188520000Y-64449990D02*
X188520000Y-59639990D01*
G04 #@! TO.N,/CA4*
X191190000Y-64449990D02*
X191190000Y-69789990D01*
X191190000Y-83139990D02*
X191190000Y-69789990D01*
X191190000Y-59509990D02*
X192275000Y-58424990D01*
X191190000Y-64449990D02*
X191190000Y-59509990D01*
G04 #@! TO.N,/CA3*
X193860000Y-64449990D02*
X193860000Y-67119990D01*
X193860000Y-67119990D02*
X193860000Y-83139990D01*
X193860000Y-59379990D02*
X194815000Y-58424990D01*
X193860000Y-64449990D02*
X193860000Y-59379990D01*
G04 #@! TO.N,/CA2*
X196530000Y-64449990D02*
X196530000Y-83139990D01*
X196530000Y-59249990D02*
X197355000Y-58424990D01*
X196530000Y-64449990D02*
X196530000Y-59249990D01*
G04 #@! TO.N,/CA1*
X199200000Y-64449990D02*
X199200000Y-83139990D01*
X199200000Y-59119990D02*
X199895000Y-58424990D01*
X199200000Y-64449990D02*
X199200000Y-59119990D01*
G04 #@! TO.N,/CB8*
X180510000Y-85809990D02*
X180510000Y-101829990D01*
X182115000Y-103434990D02*
X180510000Y-101829990D01*
X182115000Y-109154990D02*
X182115000Y-103434990D01*
G04 #@! TO.N,/CB7*
X183180000Y-101829990D02*
X183180000Y-85809990D01*
X184655000Y-103304990D02*
X183180000Y-101829990D01*
X184655000Y-109154990D02*
X184655000Y-103304990D01*
G04 #@! TO.N,/CB6*
X185850000Y-85809990D02*
X185850000Y-101829990D01*
X187195000Y-103174990D02*
X185850000Y-101829990D01*
X187195000Y-109154990D02*
X187195000Y-103174990D01*
G04 #@! TO.N,/CB5*
X188520000Y-85809990D02*
X188520000Y-101829990D01*
X189735000Y-103044990D02*
X188520000Y-101829990D01*
X189735000Y-109154990D02*
X189735000Y-103044990D01*
G04 #@! TO.N,/CB4*
X191190000Y-85809990D02*
X191190000Y-101829990D01*
X192275000Y-102914990D02*
X191190000Y-101829990D01*
X192275000Y-109154990D02*
X192275000Y-102914990D01*
G04 #@! TO.N,/CB3*
X193860000Y-85809990D02*
X193860000Y-101829990D01*
X194815000Y-102784990D02*
X193860000Y-101829990D01*
X194815000Y-109154990D02*
X194815000Y-102784990D01*
G04 #@! TO.N,/CB2*
X196530000Y-85809990D02*
X196530000Y-101829990D01*
X197355000Y-102654990D02*
X196530000Y-101829990D01*
X197355000Y-109154990D02*
X197355000Y-102654990D01*
G04 #@! TO.N,/CB1*
X199200000Y-85809990D02*
X199200000Y-101829990D01*
X197865000Y-83139990D02*
X198515000Y-83789990D01*
X198515000Y-85124990D02*
X199200000Y-85809990D01*
X198515000Y-83789990D02*
X198515000Y-85124990D01*
X199895000Y-102524990D02*
X199200000Y-101829990D01*
X199895000Y-109154990D02*
X199895000Y-102524990D01*
G04 #@! TD*
M02*
