G04 #@! TF.GenerationSoftware,KiCad,Pcbnew,(5.1.12-1-10_14)*
G04 #@! TF.CreationDate,2021-12-27T13:20:27-05:00*
G04 #@! TF.ProjectId,ledtrix,6c656474-7269-4782-9e6b-696361645f70,rev?*
G04 #@! TF.SameCoordinates,Original*
G04 #@! TF.FileFunction,Soldermask,Bot*
G04 #@! TF.FilePolarity,Negative*
%FSLAX46Y46*%
G04 Gerber Fmt 4.6, Leading zero omitted, Abs format (unit mm)*
G04 Created by KiCad (PCBNEW (5.1.12-1-10_14)) date 2021-12-27 13:20:27*
%MOMM*%
%LPD*%
G01*
G04 APERTURE LIST*
%ADD10C,1.300000*%
%ADD11C,0.500000*%
%ADD12O,1.700000X1.700000*%
%ADD13R,1.700000X1.700000*%
G04 APERTURE END LIST*
D10*
G04 #@! TO.C,H9*
X207680000Y-103690990D03*
G04 #@! TD*
G04 #@! TO.C,H8*
X172120000Y-62288990D03*
G04 #@! TD*
G04 #@! TO.C,H7*
X207680000Y-62542990D03*
G04 #@! TD*
D11*
G04 #@! TO.C,H5*
X177200000Y-98054990D03*
X177200000Y-98054990D03*
X177200000Y-95804990D03*
X177200000Y-97304990D03*
X177200000Y-96554990D03*
X177200000Y-98804990D03*
X174600000Y-98804990D03*
X174600000Y-96554990D03*
X174600000Y-97304990D03*
X174600000Y-95804990D03*
X174600000Y-98054990D03*
X174600000Y-98054990D03*
G04 #@! TD*
G04 #@! TO.C,H4*
X205140000Y-98054990D03*
X205140000Y-98054990D03*
X205140000Y-95804990D03*
X205140000Y-97304990D03*
X205140000Y-96554990D03*
X205140000Y-98804990D03*
X202540000Y-98804990D03*
X202540000Y-96554990D03*
X202540000Y-97304990D03*
X202540000Y-95804990D03*
X202540000Y-98054990D03*
X202540000Y-98054990D03*
G04 #@! TD*
G04 #@! TO.C,H2*
X174600000Y-67000000D03*
X174600000Y-67000000D03*
X174600000Y-69250000D03*
X174600000Y-67750000D03*
X174600000Y-68500000D03*
X174600000Y-66250000D03*
X177200000Y-66250000D03*
X177200000Y-68500000D03*
X177200000Y-67750000D03*
X177200000Y-69250000D03*
X177200000Y-67000000D03*
X177200000Y-67000000D03*
G04 #@! TD*
G04 #@! TO.C,H1*
X202600000Y-67000000D03*
X202600000Y-67000000D03*
X202600000Y-69250000D03*
X202600000Y-67750000D03*
X202600000Y-68500000D03*
X202600000Y-66250000D03*
X205200000Y-66250000D03*
X205200000Y-68500000D03*
X205200000Y-67750000D03*
X205200000Y-69250000D03*
X205200000Y-67000000D03*
X205200000Y-67000000D03*
G04 #@! TD*
D12*
G04 #@! TO.C,J2*
X179575000Y-109154990D03*
X182115000Y-109154990D03*
X184655000Y-109154990D03*
X187195000Y-109154990D03*
X189735000Y-109154990D03*
X192275000Y-109154990D03*
X194815000Y-109154990D03*
X197355000Y-109154990D03*
D13*
X199895000Y-109154990D03*
G04 #@! TD*
D12*
G04 #@! TO.C,J1*
X179575000Y-58424990D03*
X182115000Y-58424990D03*
X184655000Y-58424990D03*
X187195000Y-58424990D03*
X189735000Y-58424990D03*
X192275000Y-58424990D03*
X194815000Y-58424990D03*
X197355000Y-58424990D03*
D13*
X199895000Y-58424990D03*
G04 #@! TD*
M02*
