M48
; DRILL file {KiCad (5.1.12-1-10_14)} date Monday, December 27, 2021 at 01:20:29 PM
; FORMAT={-:-/ absolute / inch / decimal}
; #@! TF.CreationDate,2021-12-27T13:20:29-05:00
; #@! TF.GenerationSoftware,Kicad,Pcbnew,(5.1.12-1-10_14)
; #@! TF.FileFunction,NonPlated,1,2,NPTH
FMAT,2
INCH
T1C0.0197
T2C0.0454
%
G90
G05
T1
X6.874Y-2.6083
X6.874Y-2.6378
X6.874Y-2.6378
X6.874Y-2.6673
X6.874Y-2.6969
X6.874Y-2.7264
X6.874Y-3.7718
X6.874Y-3.8014
X6.874Y-3.8309
X6.874Y-3.8604
X6.874Y-3.8604
X6.874Y-3.89
X6.9764Y-2.6083
X6.9764Y-2.6378
X6.9764Y-2.6378
X6.9764Y-2.6673
X6.9764Y-2.6969
X6.9764Y-2.7264
X6.9764Y-3.7718
X6.9764Y-3.8014
X6.9764Y-3.8309
X6.9764Y-3.8604
X6.9764Y-3.8604
X6.9764Y-3.89
X7.974Y-3.7718
X7.974Y-3.8014
X7.974Y-3.8309
X7.974Y-3.8604
X7.974Y-3.8604
X7.974Y-3.89
X7.9764Y-2.6083
X7.9764Y-2.6378
X7.9764Y-2.6378
X7.9764Y-2.6673
X7.9764Y-2.6969
X7.9764Y-2.7264
X8.0764Y-3.7718
X8.0764Y-3.8014
X8.0764Y-3.8309
X8.0764Y-3.8604
X8.0764Y-3.8604
X8.0764Y-3.89
X8.0787Y-2.6083
X8.0787Y-2.6378
X8.0787Y-2.6378
X8.0787Y-2.6673
X8.0787Y-2.6969
X8.0787Y-2.7264
T2
X6.7764Y-2.4523
X8.1764Y-2.4623
X8.1764Y-4.0823
T0
M30
