M48
; DRILL file {KiCad (5.1.12-1-10_14)} date Monday, December 27, 2021 at 01:20:29 PM
; FORMAT={-:-/ absolute / inch / decimal}
; #@! TF.CreationDate,2021-12-27T13:20:29-05:00
; #@! TF.GenerationSoftware,Kicad,Pcbnew,(5.1.12-1-10_14)
; #@! TF.FileFunction,Plated,1,2,PTH
FMAT,2
INCH
T1C0.0118
T2C0.0394
%
G90
G05
T1
X7.1067Y-2.5374
X7.1067Y-2.6425
X7.1067Y-2.7476
X7.1067Y-2.8528
X7.1067Y-2.9579
X7.1067Y-3.063
X7.1067Y-3.1681
X7.1067Y-3.2732
X7.1067Y-3.3783
X7.1067Y-3.4835
X7.1067Y-3.5886
X7.1067Y-3.6937
X7.1067Y-3.7988
X7.1067Y-3.9039
X7.1067Y-4.0091
X7.2118Y-2.5374
X7.2118Y-2.6425
X7.2118Y-2.7476
X7.2118Y-2.8528
X7.2118Y-2.9579
X7.2118Y-3.063
X7.2118Y-3.1681
X7.2118Y-3.2732
X7.2118Y-3.3783
X7.2118Y-3.4835
X7.2118Y-3.5886
X7.2118Y-3.6937
X7.2118Y-3.7988
X7.2118Y-3.9039
X7.2118Y-4.0091
X7.3169Y-2.5374
X7.3169Y-2.6425
X7.3169Y-2.7476
X7.3169Y-2.8528
X7.3169Y-2.9579
X7.3169Y-3.063
X7.3169Y-3.1681
X7.3169Y-3.2732
X7.3169Y-3.3783
X7.3169Y-3.4835
X7.3169Y-3.5886
X7.3169Y-3.6937
X7.3169Y-3.7988
X7.3169Y-3.9039
X7.3169Y-4.0091
X7.422Y-2.5374
X7.422Y-2.6425
X7.422Y-2.7476
X7.422Y-2.8528
X7.422Y-2.9579
X7.422Y-3.063
X7.422Y-3.1681
X7.422Y-3.2732
X7.422Y-3.3783
X7.422Y-3.4835
X7.422Y-3.5886
X7.422Y-3.6937
X7.422Y-3.7988
X7.422Y-3.9039
X7.422Y-4.0091
X7.5272Y-2.5374
X7.5272Y-2.6425
X7.5272Y-2.7476
X7.5272Y-2.8528
X7.5272Y-2.9579
X7.5272Y-3.063
X7.5272Y-3.1681
X7.5272Y-3.2732
X7.5272Y-3.3783
X7.5272Y-3.4835
X7.5272Y-3.5886
X7.5272Y-3.6937
X7.5272Y-3.7988
X7.5272Y-3.9039
X7.5272Y-4.0091
X7.6323Y-2.5374
X7.6323Y-2.6425
X7.6323Y-2.7476
X7.6323Y-2.8528
X7.6323Y-2.9579
X7.6323Y-3.063
X7.6323Y-3.1681
X7.6323Y-3.2732
X7.6323Y-3.3783
X7.6323Y-3.4835
X7.6323Y-3.5886
X7.6323Y-3.6937
X7.6323Y-3.7988
X7.6323Y-3.9039
X7.6323Y-4.0091
X7.7374Y-2.5374
X7.7374Y-2.6425
X7.7374Y-2.7476
X7.7374Y-2.8528
X7.7374Y-2.9579
X7.7374Y-3.063
X7.7374Y-3.1681
X7.7374Y-3.2732
X7.7374Y-3.3783
X7.7374Y-3.4835
X7.7374Y-3.5886
X7.7374Y-3.6937
X7.7374Y-3.7988
X7.7374Y-3.9039
X7.7374Y-4.0091
X7.79Y-3.2732
X7.8425Y-2.5374
X7.8425Y-2.6425
X7.8425Y-2.7476
X7.8425Y-2.8528
X7.8425Y-2.9579
X7.8425Y-3.063
X7.8425Y-3.1681
X7.8425Y-3.2732
X7.8425Y-3.3783
X7.8425Y-3.4835
X7.8425Y-3.5886
X7.8425Y-3.6937
X7.8425Y-3.7988
X7.8425Y-3.9039
X7.8425Y-4.0091
T2
X7.0699Y-2.3002
X7.0699Y-4.2974
X7.1699Y-2.3002
X7.1699Y-4.2974
X7.2699Y-2.3002
X7.2699Y-4.2974
X7.3699Y-2.3002
X7.3699Y-4.2974
X7.4699Y-2.3002
X7.4699Y-4.2974
X7.5699Y-2.3002
X7.5699Y-4.2974
X7.6699Y-2.3002
X7.6699Y-4.2974
X7.7699Y-2.3002
X7.7699Y-4.2974
X7.8699Y-2.3002
X7.8699Y-4.2974
T0
M30
