G04 #@! TF.GenerationSoftware,KiCad,Pcbnew,(5.1.12-1-10_14)*
G04 #@! TF.CreationDate,2021-12-27T13:20:27-05:00*
G04 #@! TF.ProjectId,ledtrix,6c656474-7269-4782-9e6b-696361645f70,rev?*
G04 #@! TF.SameCoordinates,Original*
G04 #@! TF.FileFunction,Profile,NP*
%FSLAX46Y46*%
G04 Gerber Fmt 4.6, Leading zero omitted, Abs format (unit mm)*
G04 Created by KiCad (PCBNEW (5.1.12-1-10_14)) date 2021-12-27 13:20:27*
%MOMM*%
%LPD*%
G01*
G04 APERTURE LIST*
G04 #@! TA.AperFunction,Profile*
%ADD10C,0.050000*%
G04 #@! TD*
G04 APERTURE END LIST*
D10*
X177200000Y-56584990D02*
X177200000Y-57970990D01*
X202600000Y-59748990D02*
X202600000Y-57984990D01*
X202600000Y-108288390D02*
X202600000Y-110984990D01*
X177200000Y-110984990D02*
X202600000Y-110984990D01*
X177200000Y-108284990D02*
X177200000Y-110984990D01*
X202600000Y-56584990D02*
X177200000Y-56584990D01*
X202600000Y-57984990D02*
X202600000Y-56584990D01*
X202600000Y-108288390D02*
X202600000Y-106484990D01*
X177200000Y-106484990D02*
X177200000Y-108288390D01*
X177200000Y-59748990D02*
X177200000Y-57970990D01*
X202600000Y-95308990D02*
X202600000Y-69654990D01*
X205140000Y-95308990D02*
X202600000Y-95308990D01*
X205140000Y-69654990D02*
X205140000Y-95308990D01*
X202600000Y-69654990D02*
X205140000Y-69654990D01*
X174660000Y-95308990D02*
X174660000Y-69654990D01*
X177200000Y-95308990D02*
X174660000Y-95308990D01*
X177200000Y-69654990D02*
X177200000Y-95308990D01*
X174660000Y-69654990D02*
X177200000Y-69654990D01*
X169580000Y-59748990D02*
X174660000Y-59748990D01*
X169580000Y-106484990D02*
X169580000Y-59748990D01*
X174660000Y-106484990D02*
X169580000Y-106484990D01*
X174660000Y-99118990D02*
X174660000Y-106484990D01*
X177200000Y-99118990D02*
X174660000Y-99118990D01*
X177200000Y-106484990D02*
X177200000Y-99118990D01*
X202600000Y-99118990D02*
X202600000Y-106484990D01*
X205140000Y-99118990D02*
X202600000Y-99118990D01*
X205140000Y-106484990D02*
X205140000Y-99118990D01*
X210220000Y-106484990D02*
X205140000Y-106484990D01*
X210220000Y-59748990D02*
X210220000Y-106484990D01*
X205140000Y-59748990D02*
X210220000Y-59748990D01*
X205140000Y-65844990D02*
X205140000Y-59748990D01*
X202600000Y-65844990D02*
X205140000Y-65844990D01*
X202600000Y-59748990D02*
X202600000Y-65844990D01*
X177200000Y-65844990D02*
X177200000Y-59748990D01*
X174660000Y-65844990D02*
X177200000Y-65844990D01*
X174660000Y-59748990D02*
X174660000Y-65844990D01*
M02*
