G04 #@! TF.GenerationSoftware,KiCad,Pcbnew,(5.1.12-1-10_14)*
G04 #@! TF.CreationDate,2021-12-17T20:41:21-05:00*
G04 #@! TF.ProjectId,ClonedESP32DevBoard,436c6f6e-6564-4455-9350-333244657642,rev?*
G04 #@! TF.SameCoordinates,Original*
G04 #@! TF.FileFunction,Copper,L1,Top*
G04 #@! TF.FilePolarity,Positive*
%FSLAX46Y46*%
G04 Gerber Fmt 4.6, Leading zero omitted, Abs format (unit mm)*
G04 Created by KiCad (PCBNEW (5.1.12-1-10_14)) date 2021-12-17 20:41:21*
%MOMM*%
%LPD*%
G01*
G04 APERTURE LIST*
G04 #@! TA.AperFunction,ComponentPad*
%ADD10O,1.700000X1.700000*%
G04 #@! TD*
G04 #@! TA.AperFunction,ComponentPad*
%ADD11R,1.700000X1.700000*%
G04 #@! TD*
G04 #@! TA.AperFunction,SMDPad,CuDef*
%ADD12R,0.700000X0.700000*%
G04 #@! TD*
G04 #@! TA.AperFunction,SMDPad,CuDef*
%ADD13R,1.450000X1.450000*%
G04 #@! TD*
G04 #@! TA.AperFunction,SMDPad,CuDef*
%ADD14R,0.400000X0.800000*%
G04 #@! TD*
G04 #@! TA.AperFunction,SMDPad,CuDef*
%ADD15R,0.800000X0.400000*%
G04 #@! TD*
G04 #@! TA.AperFunction,SMDPad,CuDef*
%ADD16R,1.755639X0.609807*%
G04 #@! TD*
G04 #@! TA.AperFunction,SMDPad,CuDef*
%ADD17R,1.600000X1.000000*%
G04 #@! TD*
G04 #@! TA.AperFunction,SMDPad,CuDef*
%ADD18R,1.701800X2.692400*%
G04 #@! TD*
G04 #@! TA.AperFunction,SMDPad,CuDef*
%ADD19R,0.900000X0.800000*%
G04 #@! TD*
G04 #@! TA.AperFunction,ViaPad*
%ADD20C,0.800000*%
G04 #@! TD*
G04 #@! TA.AperFunction,Conductor*
%ADD21C,0.750000*%
G04 #@! TD*
G04 #@! TA.AperFunction,Conductor*
%ADD22C,0.500000*%
G04 #@! TD*
G04 #@! TA.AperFunction,Conductor*
%ADD23C,0.400000*%
G04 #@! TD*
G04 APERTURE END LIST*
D10*
G04 #@! TO.P,BT1,2*
G04 #@! TO.N,GND*
X111843800Y-104167700D03*
D11*
G04 #@! TO.P,BT1,1*
G04 #@! TO.N,Net-(BT1-Pad1)*
X111843800Y-101627700D03*
G04 #@! TD*
D10*
G04 #@! TO.P,J4,16*
G04 #@! TO.N,GND*
X75433800Y-140087700D03*
G04 #@! TO.P,J4,15*
X75433800Y-137547700D03*
G04 #@! TO.P,J4,14*
G04 #@! TO.N,/GPIO19*
X75433800Y-135007700D03*
G04 #@! TO.P,J4,13*
G04 #@! TO.N,/GPIO18*
X75433800Y-132467700D03*
G04 #@! TO.P,J4,12*
G04 #@! TO.N,GND*
X75433800Y-129927700D03*
G04 #@! TO.P,J4,11*
G04 #@! TO.N,/GPIO4*
X75433800Y-127387700D03*
G04 #@! TO.P,J4,10*
G04 #@! TO.N,/GPIO5*
X75433800Y-124847700D03*
G04 #@! TO.P,J4,9*
G04 #@! TO.N,/GPIO6*
X75433800Y-122307700D03*
G04 #@! TO.P,J4,8*
G04 #@! TO.N,/GPIO7*
X75433800Y-119767700D03*
G04 #@! TO.P,J4,7*
G04 #@! TO.N,GND*
X75433800Y-117227700D03*
G04 #@! TO.P,J4,6*
G04 #@! TO.N,/GPIO8*
X75433800Y-114687700D03*
G04 #@! TO.P,J4,5*
G04 #@! TO.N,/GPIO9*
X75433800Y-112147700D03*
G04 #@! TO.P,J4,4*
G04 #@! TO.N,GND*
X75433800Y-109607700D03*
G04 #@! TO.P,J4,3*
G04 #@! TO.N,/U0RXD*
X75433800Y-107067700D03*
G04 #@! TO.P,J4,2*
G04 #@! TO.N,/U0TXD*
X75433800Y-104527700D03*
D11*
G04 #@! TO.P,J4,1*
G04 #@! TO.N,GND*
X75433800Y-101987700D03*
G04 #@! TD*
D10*
G04 #@! TO.P,J3,16*
G04 #@! TO.N,GND*
X42113800Y-140167700D03*
G04 #@! TO.P,J3,15*
X42113800Y-137627700D03*
G04 #@! TO.P,J3,14*
G04 #@! TO.N,+5V*
X42113800Y-135087700D03*
G04 #@! TO.P,J3,13*
X42113800Y-132547700D03*
G04 #@! TO.P,J3,12*
G04 #@! TO.N,GND*
X42113800Y-130007700D03*
G04 #@! TO.P,J3,11*
G04 #@! TO.N,/GPIO10*
X42113800Y-127467700D03*
G04 #@! TO.P,J3,10*
G04 #@! TO.N,/GPIO1*
X42113800Y-124927700D03*
G04 #@! TO.P,J3,9*
G04 #@! TO.N,/GPIO0*
X42113800Y-122387700D03*
G04 #@! TO.P,J3,8*
G04 #@! TO.N,GND*
X42113800Y-119847700D03*
G04 #@! TO.P,J3,7*
G04 #@! TO.N,/CHIP_PU*
X42113800Y-117307700D03*
G04 #@! TO.P,J3,6*
G04 #@! TO.N,GND*
X42113800Y-114767700D03*
G04 #@! TO.P,J3,5*
G04 #@! TO.N,/GPIO3*
X42113800Y-112227700D03*
G04 #@! TO.P,J3,4*
G04 #@! TO.N,/GPIO2*
X42113800Y-109687700D03*
G04 #@! TO.P,J3,3*
G04 #@! TO.N,+3V3*
X42113800Y-107147700D03*
G04 #@! TO.P,J3,2*
X42113800Y-104607700D03*
D11*
G04 #@! TO.P,J3,1*
G04 #@! TO.N,GND*
X42113800Y-102067700D03*
G04 #@! TD*
G04 #@! TO.P,R4,2*
G04 #@! TO.N,/CHIP_PU*
G04 #@! TA.AperFunction,SMDPad,CuDef*
G36*
G01*
X50973800Y-119077701D02*
X50973800Y-118177699D01*
G75*
G02*
X51223799Y-117927700I249999J0D01*
G01*
X51748801Y-117927700D01*
G75*
G02*
X51998800Y-118177699I0J-249999D01*
G01*
X51998800Y-119077701D01*
G75*
G02*
X51748801Y-119327700I-249999J0D01*
G01*
X51223799Y-119327700D01*
G75*
G02*
X50973800Y-119077701I0J249999D01*
G01*
G37*
G04 #@! TD.AperFunction*
G04 #@! TO.P,R4,1*
G04 #@! TO.N,+3V3*
G04 #@! TA.AperFunction,SMDPad,CuDef*
G36*
G01*
X49148800Y-119077701D02*
X49148800Y-118177699D01*
G75*
G02*
X49398799Y-117927700I249999J0D01*
G01*
X49923801Y-117927700D01*
G75*
G02*
X50173800Y-118177699I0J-249999D01*
G01*
X50173800Y-119077701D01*
G75*
G02*
X49923801Y-119327700I-249999J0D01*
G01*
X49398799Y-119327700D01*
G75*
G02*
X49148800Y-119077701I0J249999D01*
G01*
G37*
G04 #@! TD.AperFunction*
G04 #@! TD*
D12*
G04 #@! TO.P,IC1,61*
G04 #@! TO.N,GND*
X68523800Y-105677700D03*
G04 #@! TO.P,IC1,60*
X68523800Y-115577700D03*
G04 #@! TO.P,IC1,59*
X56623800Y-115577700D03*
G04 #@! TO.P,IC1,58*
X56623800Y-105677700D03*
D13*
G04 #@! TO.P,IC1,57*
X64548800Y-110627700D03*
G04 #@! TO.P,IC1,56*
X64548800Y-112602700D03*
G04 #@! TO.P,IC1,55*
X62573800Y-112602700D03*
G04 #@! TO.P,IC1,54*
X60598800Y-112602700D03*
G04 #@! TO.P,IC1,53*
X60598800Y-110627700D03*
G04 #@! TO.P,IC1,52*
X60598800Y-108652700D03*
G04 #@! TO.P,IC1,51*
X62573800Y-108652700D03*
G04 #@! TO.P,IC1,50*
X64548800Y-108652700D03*
G04 #@! TO.P,IC1,49*
X62573800Y-110627700D03*
D14*
G04 #@! TO.P,IC1,48*
X57773800Y-105727700D03*
G04 #@! TO.P,IC1,47*
X58573800Y-105727700D03*
G04 #@! TO.P,IC1,46*
X59373800Y-105727700D03*
G04 #@! TO.P,IC1,45*
X60173800Y-105727700D03*
G04 #@! TO.P,IC1,44*
X60973800Y-105727700D03*
G04 #@! TO.P,IC1,43*
X61773800Y-105727700D03*
G04 #@! TO.P,IC1,42*
X62573800Y-105727700D03*
G04 #@! TO.P,IC1,41*
X63373800Y-105727700D03*
G04 #@! TO.P,IC1,40*
X64173800Y-105727700D03*
G04 #@! TO.P,IC1,39*
X64973800Y-105727700D03*
G04 #@! TO.P,IC1,38*
X65773800Y-105727700D03*
G04 #@! TO.P,IC1,37*
X66573800Y-105727700D03*
G04 #@! TO.P,IC1,36*
X67373800Y-105727700D03*
D15*
G04 #@! TO.P,IC1,35*
G04 #@! TO.N,Net-(IC1-Pad35)*
X68473800Y-106627700D03*
G04 #@! TO.P,IC1,34*
G04 #@! TO.N,Net-(IC1-Pad34)*
X68473800Y-107427700D03*
G04 #@! TO.P,IC1,33*
G04 #@! TO.N,Net-(IC1-Pad33)*
X68473800Y-108227700D03*
G04 #@! TO.P,IC1,32*
G04 #@! TO.N,Net-(IC1-Pad32)*
X68473800Y-109027700D03*
G04 #@! TO.P,IC1,31*
G04 #@! TO.N,/U0TXD*
X68473800Y-109827700D03*
G04 #@! TO.P,IC1,30*
G04 #@! TO.N,/U0RXD*
X68473800Y-110627700D03*
G04 #@! TO.P,IC1,29*
G04 #@! TO.N,Net-(IC1-Pad29)*
X68473800Y-111427700D03*
G04 #@! TO.P,IC1,28*
G04 #@! TO.N,Net-(IC1-Pad28)*
X68473800Y-112227700D03*
G04 #@! TO.P,IC1,27*
G04 #@! TO.N,/GPIO19*
X68473800Y-113027700D03*
G04 #@! TO.P,IC1,26*
G04 #@! TO.N,/GPIO18*
X68473800Y-113827700D03*
G04 #@! TO.P,IC1,25*
G04 #@! TO.N,Net-(IC1-Pad25)*
X68473800Y-114627700D03*
D14*
G04 #@! TO.P,IC1,24*
G04 #@! TO.N,Net-(IC1-Pad24)*
X67373800Y-115527700D03*
G04 #@! TO.P,IC1,23*
G04 #@! TO.N,/GPIO9*
X66573800Y-115527700D03*
G04 #@! TO.P,IC1,22*
G04 #@! TO.N,/GPIO8*
X65773800Y-115527700D03*
G04 #@! TO.P,IC1,21*
G04 #@! TO.N,/GPIO7*
X64973800Y-115527700D03*
G04 #@! TO.P,IC1,20*
G04 #@! TO.N,/GPIO6*
X64173800Y-115527700D03*
G04 #@! TO.P,IC1,19*
G04 #@! TO.N,/GPIO5*
X63373800Y-115527700D03*
G04 #@! TO.P,IC1,18*
G04 #@! TO.N,/GPIO4*
X62573800Y-115527700D03*
G04 #@! TO.P,IC1,17*
G04 #@! TO.N,Net-(IC1-Pad17)*
X61773800Y-115527700D03*
G04 #@! TO.P,IC1,16*
G04 #@! TO.N,/GPIO10*
X60973800Y-115527700D03*
G04 #@! TO.P,IC1,15*
G04 #@! TO.N,Net-(IC1-Pad15)*
X60173800Y-115527700D03*
G04 #@! TO.P,IC1,14*
G04 #@! TO.N,GND*
X59373800Y-115527700D03*
G04 #@! TO.P,IC1,13*
G04 #@! TO.N,/GPIO1*
X58573800Y-115527700D03*
G04 #@! TO.P,IC1,12*
G04 #@! TO.N,/GPIO0*
X57773800Y-115527700D03*
D15*
G04 #@! TO.P,IC1,11*
G04 #@! TO.N,GND*
X56673800Y-114627700D03*
G04 #@! TO.P,IC1,10*
G04 #@! TO.N,Net-(IC1-Pad10)*
X56673800Y-113827700D03*
G04 #@! TO.P,IC1,9*
G04 #@! TO.N,Net-(IC1-Pad9)*
X56673800Y-113027700D03*
G04 #@! TO.P,IC1,8*
G04 #@! TO.N,/CHIP_PU*
X56673800Y-112227700D03*
G04 #@! TO.P,IC1,7*
G04 #@! TO.N,Net-(IC1-Pad7)*
X56673800Y-111427700D03*
G04 #@! TO.P,IC1,6*
G04 #@! TO.N,/GPIO3*
X56673800Y-110627700D03*
G04 #@! TO.P,IC1,5*
G04 #@! TO.N,/GPIO2*
X56673800Y-109827700D03*
G04 #@! TO.P,IC1,4*
G04 #@! TO.N,Net-(IC1-Pad4)*
X56673800Y-109027700D03*
G04 #@! TO.P,IC1,3*
G04 #@! TO.N,+3V3*
X56673800Y-108227700D03*
G04 #@! TO.P,IC1,2*
G04 #@! TO.N,GND*
X56673800Y-107427700D03*
G04 #@! TO.P,IC1,1*
X56673800Y-106627700D03*
G04 #@! TD*
G04 #@! TO.P,C10,2*
G04 #@! TO.N,GND*
G04 #@! TA.AperFunction,SMDPad,CuDef*
G36*
G01*
X50123800Y-113152700D02*
X50123800Y-114102700D01*
G75*
G02*
X49873800Y-114352700I-250000J0D01*
G01*
X49373800Y-114352700D01*
G75*
G02*
X49123800Y-114102700I0J250000D01*
G01*
X49123800Y-113152700D01*
G75*
G02*
X49373800Y-112902700I250000J0D01*
G01*
X49873800Y-112902700D01*
G75*
G02*
X50123800Y-113152700I0J-250000D01*
G01*
G37*
G04 #@! TD.AperFunction*
G04 #@! TO.P,C10,1*
G04 #@! TO.N,/CHIP_PU*
G04 #@! TA.AperFunction,SMDPad,CuDef*
G36*
G01*
X52023800Y-113152700D02*
X52023800Y-114102700D01*
G75*
G02*
X51773800Y-114352700I-250000J0D01*
G01*
X51273800Y-114352700D01*
G75*
G02*
X51023800Y-114102700I0J250000D01*
G01*
X51023800Y-113152700D01*
G75*
G02*
X51273800Y-112902700I250000J0D01*
G01*
X51773800Y-112902700D01*
G75*
G02*
X52023800Y-113152700I0J-250000D01*
G01*
G37*
G04 #@! TD.AperFunction*
G04 #@! TD*
G04 #@! TO.P,C9,2*
G04 #@! TO.N,GND*
G04 #@! TA.AperFunction,SMDPad,CuDef*
G36*
G01*
X50123800Y-103152700D02*
X50123800Y-104102700D01*
G75*
G02*
X49873800Y-104352700I-250000J0D01*
G01*
X49373800Y-104352700D01*
G75*
G02*
X49123800Y-104102700I0J250000D01*
G01*
X49123800Y-103152700D01*
G75*
G02*
X49373800Y-102902700I250000J0D01*
G01*
X49873800Y-102902700D01*
G75*
G02*
X50123800Y-103152700I0J-250000D01*
G01*
G37*
G04 #@! TD.AperFunction*
G04 #@! TO.P,C9,1*
G04 #@! TO.N,+3V3*
G04 #@! TA.AperFunction,SMDPad,CuDef*
G36*
G01*
X52023800Y-103152700D02*
X52023800Y-104102700D01*
G75*
G02*
X51773800Y-104352700I-250000J0D01*
G01*
X51273800Y-104352700D01*
G75*
G02*
X51023800Y-104102700I0J250000D01*
G01*
X51023800Y-103152700D01*
G75*
G02*
X51273800Y-102902700I250000J0D01*
G01*
X51773800Y-102902700D01*
G75*
G02*
X52023800Y-103152700I0J-250000D01*
G01*
G37*
G04 #@! TD.AperFunction*
G04 #@! TD*
G04 #@! TO.P,C8,2*
G04 #@! TO.N,GND*
G04 #@! TA.AperFunction,SMDPad,CuDef*
G36*
G01*
X50123800Y-108152700D02*
X50123800Y-109102700D01*
G75*
G02*
X49873800Y-109352700I-250000J0D01*
G01*
X49373800Y-109352700D01*
G75*
G02*
X49123800Y-109102700I0J250000D01*
G01*
X49123800Y-108152700D01*
G75*
G02*
X49373800Y-107902700I250000J0D01*
G01*
X49873800Y-107902700D01*
G75*
G02*
X50123800Y-108152700I0J-250000D01*
G01*
G37*
G04 #@! TD.AperFunction*
G04 #@! TO.P,C8,1*
G04 #@! TO.N,+3V3*
G04 #@! TA.AperFunction,SMDPad,CuDef*
G36*
G01*
X52023800Y-108152700D02*
X52023800Y-109102700D01*
G75*
G02*
X51773800Y-109352700I-250000J0D01*
G01*
X51273800Y-109352700D01*
G75*
G02*
X51023800Y-109102700I0J250000D01*
G01*
X51023800Y-108152700D01*
G75*
G02*
X51273800Y-107902700I250000J0D01*
G01*
X51773800Y-107902700D01*
G75*
G02*
X52023800Y-108152700I0J-250000D01*
G01*
G37*
G04 #@! TD.AperFunction*
G04 #@! TD*
D16*
G04 #@! TO.P,U2,1*
G04 #@! TO.N,Net-(BT1-Pad1)*
X96019081Y-104577700D03*
G04 #@! TO.P,U2,2*
G04 #@! TO.N,GND*
G04 #@! TA.AperFunction,SMDPad,CuDef*
G36*
G01*
X96896900Y-103627699D02*
X96896900Y-103627699D01*
G75*
G02*
X96591997Y-103932602I-304903J0D01*
G01*
X95446165Y-103932602D01*
G75*
G02*
X95141262Y-103627699I0J304903D01*
G01*
X95141262Y-103627699D01*
G75*
G02*
X95446165Y-103322796I304903J0D01*
G01*
X96591997Y-103322796D01*
G75*
G02*
X96896900Y-103627699I0J-304903D01*
G01*
G37*
G04 #@! TD.AperFunction*
G04 #@! TO.P,U2,3*
G04 #@! TO.N,Net-(BT1-Pad1)*
G04 #@! TA.AperFunction,SMDPad,CuDef*
G36*
G01*
X96896900Y-102677699D02*
X96896900Y-102677699D01*
G75*
G02*
X96591997Y-102982602I-304903J0D01*
G01*
X95446165Y-102982602D01*
G75*
G02*
X95141262Y-102677699I0J304903D01*
G01*
X95141262Y-102677699D01*
G75*
G02*
X95446165Y-102372796I304903J0D01*
G01*
X96591997Y-102372796D01*
G75*
G02*
X96896900Y-102677699I0J-304903D01*
G01*
G37*
G04 #@! TD.AperFunction*
G04 #@! TO.P,U2,4*
G04 #@! TO.N,Net-(U2-Pad4)*
G04 #@! TA.AperFunction,SMDPad,CuDef*
G36*
G01*
X94546337Y-102677699D02*
X94546337Y-102677699D01*
G75*
G02*
X94241434Y-102982602I-304903J0D01*
G01*
X93095602Y-102982602D01*
G75*
G02*
X92790699Y-102677699I0J304903D01*
G01*
X92790699Y-102677699D01*
G75*
G02*
X93095602Y-102372796I304903J0D01*
G01*
X94241434Y-102372796D01*
G75*
G02*
X94546337Y-102677699I0J-304903D01*
G01*
G37*
G04 #@! TD.AperFunction*
G04 #@! TO.P,U2,5*
G04 #@! TO.N,/BAT3V*
G04 #@! TA.AperFunction,SMDPad,CuDef*
G36*
G01*
X94546337Y-104577700D02*
X94546337Y-104577700D01*
G75*
G02*
X94241434Y-104882603I-304903J0D01*
G01*
X93095602Y-104882603D01*
G75*
G02*
X92790699Y-104577700I0J304903D01*
G01*
X92790699Y-104577700D01*
G75*
G02*
X93095602Y-104272797I304903J0D01*
G01*
X94241434Y-104272797D01*
G75*
G02*
X94546337Y-104577700I0J-304903D01*
G01*
G37*
G04 #@! TD.AperFunction*
G04 #@! TD*
G04 #@! TO.P,U1,8*
G04 #@! TO.N,N/C*
G04 #@! TA.AperFunction,SMDPad,CuDef*
G36*
G01*
X109138800Y-132927700D02*
X108738800Y-132927700D01*
G75*
G02*
X108538800Y-132727700I0J200000D01*
G01*
X108538800Y-131377700D01*
G75*
G02*
X108738800Y-131177700I200000J0D01*
G01*
X109138800Y-131177700D01*
G75*
G02*
X109338800Y-131377700I0J-200000D01*
G01*
X109338800Y-132727700D01*
G75*
G02*
X109138800Y-132927700I-200000J0D01*
G01*
G37*
G04 #@! TD.AperFunction*
G04 #@! TO.P,U1,7*
G04 #@! TA.AperFunction,SMDPad,CuDef*
G36*
G01*
X110408800Y-132927700D02*
X110008800Y-132927700D01*
G75*
G02*
X109808800Y-132727700I0J200000D01*
G01*
X109808800Y-131377700D01*
G75*
G02*
X110008800Y-131177700I200000J0D01*
G01*
X110408800Y-131177700D01*
G75*
G02*
X110608800Y-131377700I0J-200000D01*
G01*
X110608800Y-132727700D01*
G75*
G02*
X110408800Y-132927700I-200000J0D01*
G01*
G37*
G04 #@! TD.AperFunction*
G04 #@! TO.P,U1,6*
G04 #@! TA.AperFunction,SMDPad,CuDef*
G36*
G01*
X111678800Y-132927700D02*
X111278800Y-132927700D01*
G75*
G02*
X111078800Y-132727700I0J200000D01*
G01*
X111078800Y-131377700D01*
G75*
G02*
X111278800Y-131177700I200000J0D01*
G01*
X111678800Y-131177700D01*
G75*
G02*
X111878800Y-131377700I0J-200000D01*
G01*
X111878800Y-132727700D01*
G75*
G02*
X111678800Y-132927700I-200000J0D01*
G01*
G37*
G04 #@! TD.AperFunction*
G04 #@! TO.P,U1,5*
G04 #@! TO.N,/USB3v*
G04 #@! TA.AperFunction,SMDPad,CuDef*
G36*
G01*
X112948800Y-132927700D02*
X112548800Y-132927700D01*
G75*
G02*
X112348800Y-132727700I0J200000D01*
G01*
X112348800Y-131377700D01*
G75*
G02*
X112548800Y-131177700I200000J0D01*
G01*
X112948800Y-131177700D01*
G75*
G02*
X113148800Y-131377700I0J-200000D01*
G01*
X113148800Y-132727700D01*
G75*
G02*
X112948800Y-132927700I-200000J0D01*
G01*
G37*
G04 #@! TD.AperFunction*
G04 #@! TO.P,U1,4*
G04 #@! TO.N,Net-(U1-Pad4)*
G04 #@! TA.AperFunction,SMDPad,CuDef*
G36*
G01*
X112948800Y-138077700D02*
X112548800Y-138077700D01*
G75*
G02*
X112348800Y-137877700I0J200000D01*
G01*
X112348800Y-136527700D01*
G75*
G02*
X112548800Y-136327700I200000J0D01*
G01*
X112948800Y-136327700D01*
G75*
G02*
X113148800Y-136527700I0J-200000D01*
G01*
X113148800Y-137877700D01*
G75*
G02*
X112948800Y-138077700I-200000J0D01*
G01*
G37*
G04 #@! TD.AperFunction*
G04 #@! TO.P,U1,3*
G04 #@! TO.N,+5V*
G04 #@! TA.AperFunction,SMDPad,CuDef*
G36*
G01*
X111678800Y-138077700D02*
X111278800Y-138077700D01*
G75*
G02*
X111078800Y-137877700I0J200000D01*
G01*
X111078800Y-136527700D01*
G75*
G02*
X111278800Y-136327700I200000J0D01*
G01*
X111678800Y-136327700D01*
G75*
G02*
X111878800Y-136527700I0J-200000D01*
G01*
X111878800Y-137877700D01*
G75*
G02*
X111678800Y-138077700I-200000J0D01*
G01*
G37*
G04 #@! TD.AperFunction*
G04 #@! TO.P,U1,2*
G04 #@! TO.N,GND*
G04 #@! TA.AperFunction,SMDPad,CuDef*
G36*
G01*
X110408800Y-138077700D02*
X110008800Y-138077700D01*
G75*
G02*
X109808800Y-137877700I0J200000D01*
G01*
X109808800Y-136527700D01*
G75*
G02*
X110008800Y-136327700I200000J0D01*
G01*
X110408800Y-136327700D01*
G75*
G02*
X110608800Y-136527700I0J-200000D01*
G01*
X110608800Y-137877700D01*
G75*
G02*
X110408800Y-138077700I-200000J0D01*
G01*
G37*
G04 #@! TD.AperFunction*
G04 #@! TO.P,U1,1*
G04 #@! TO.N,+5V*
G04 #@! TA.AperFunction,SMDPad,CuDef*
G36*
G01*
X109138800Y-138077700D02*
X108738800Y-138077700D01*
G75*
G02*
X108538800Y-137877700I0J200000D01*
G01*
X108538800Y-136527700D01*
G75*
G02*
X108738800Y-136327700I200000J0D01*
G01*
X109138800Y-136327700D01*
G75*
G02*
X109338800Y-136527700I0J-200000D01*
G01*
X109338800Y-137877700D01*
G75*
G02*
X109138800Y-138077700I-200000J0D01*
G01*
G37*
G04 #@! TD.AperFunction*
G04 #@! TD*
D17*
G04 #@! TO.P,SW3,3*
G04 #@! TO.N,/USB3v*
X112043800Y-119127700D03*
G04 #@! TO.P,SW3,2*
G04 #@! TO.N,+3V3*
X112043800Y-116627700D03*
G04 #@! TO.P,SW3,1*
G04 #@! TO.N,/BAT3V*
X112043800Y-114127700D03*
G04 #@! TO.P,SW3,6*
G04 #@! TO.N,/USB3v*
X109643800Y-119127700D03*
G04 #@! TO.P,SW3,5*
G04 #@! TO.N,+3V3*
X109643800Y-116627700D03*
G04 #@! TO.P,SW3,4*
G04 #@! TO.N,/BAT3V*
X109643800Y-114127700D03*
G04 #@! TD*
D18*
G04 #@! TO.P,SW2,1*
G04 #@! TO.N,/CHIP_PU*
X62522500Y-138627700D03*
G04 #@! TO.P,SW2,2*
G04 #@! TO.N,GND*
X70625100Y-138627700D03*
G04 #@! TD*
G04 #@! TO.P,SW1,1*
G04 #@! TO.N,/GPIO9*
X48522500Y-138627700D03*
G04 #@! TO.P,SW1,2*
G04 #@! TO.N,GND*
X56625100Y-138627700D03*
G04 #@! TD*
G04 #@! TO.P,R6,2*
G04 #@! TO.N,/GPIO8*
G04 #@! TA.AperFunction,SMDPad,CuDef*
G36*
G01*
X90443800Y-114177699D02*
X90443800Y-115077701D01*
G75*
G02*
X90193801Y-115327700I-249999J0D01*
G01*
X89668799Y-115327700D01*
G75*
G02*
X89418800Y-115077701I0J249999D01*
G01*
X89418800Y-114177699D01*
G75*
G02*
X89668799Y-113927700I249999J0D01*
G01*
X90193801Y-113927700D01*
G75*
G02*
X90443800Y-114177699I0J-249999D01*
G01*
G37*
G04 #@! TD.AperFunction*
G04 #@! TO.P,R6,1*
G04 #@! TO.N,+3V3*
G04 #@! TA.AperFunction,SMDPad,CuDef*
G36*
G01*
X92268800Y-114177699D02*
X92268800Y-115077701D01*
G75*
G02*
X92018801Y-115327700I-249999J0D01*
G01*
X91493799Y-115327700D01*
G75*
G02*
X91243800Y-115077701I0J249999D01*
G01*
X91243800Y-114177699D01*
G75*
G02*
X91493799Y-113927700I249999J0D01*
G01*
X92018801Y-113927700D01*
G75*
G02*
X92268800Y-114177699I0J-249999D01*
G01*
G37*
G04 #@! TD.AperFunction*
G04 #@! TD*
G04 #@! TO.P,R3,2*
G04 #@! TO.N,Net-(D3-Pad2)*
G04 #@! TA.AperFunction,SMDPad,CuDef*
G36*
G01*
X103443800Y-137177699D02*
X103443800Y-138077701D01*
G75*
G02*
X103193801Y-138327700I-249999J0D01*
G01*
X102668799Y-138327700D01*
G75*
G02*
X102418800Y-138077701I0J249999D01*
G01*
X102418800Y-137177699D01*
G75*
G02*
X102668799Y-136927700I249999J0D01*
G01*
X103193801Y-136927700D01*
G75*
G02*
X103443800Y-137177699I0J-249999D01*
G01*
G37*
G04 #@! TD.AperFunction*
G04 #@! TO.P,R3,1*
G04 #@! TO.N,+5V*
G04 #@! TA.AperFunction,SMDPad,CuDef*
G36*
G01*
X105268800Y-137177699D02*
X105268800Y-138077701D01*
G75*
G02*
X105018801Y-138327700I-249999J0D01*
G01*
X104493799Y-138327700D01*
G75*
G02*
X104243800Y-138077701I0J249999D01*
G01*
X104243800Y-137177699D01*
G75*
G02*
X104493799Y-136927700I249999J0D01*
G01*
X105018801Y-136927700D01*
G75*
G02*
X105268800Y-137177699I0J-249999D01*
G01*
G37*
G04 #@! TD.AperFunction*
G04 #@! TD*
G04 #@! TO.P,R2,2*
G04 #@! TO.N,Net-(Q2-Pad1)*
G04 #@! TA.AperFunction,SMDPad,CuDef*
G36*
G01*
X53023801Y-125227700D02*
X52123799Y-125227700D01*
G75*
G02*
X51873800Y-124977701I0J249999D01*
G01*
X51873800Y-124452699D01*
G75*
G02*
X52123799Y-124202700I249999J0D01*
G01*
X53023801Y-124202700D01*
G75*
G02*
X53273800Y-124452699I0J-249999D01*
G01*
X53273800Y-124977701D01*
G75*
G02*
X53023801Y-125227700I-249999J0D01*
G01*
G37*
G04 #@! TD.AperFunction*
G04 #@! TO.P,R2,1*
G04 #@! TO.N,/RTS*
G04 #@! TA.AperFunction,SMDPad,CuDef*
G36*
G01*
X53023801Y-127052700D02*
X52123799Y-127052700D01*
G75*
G02*
X51873800Y-126802701I0J249999D01*
G01*
X51873800Y-126277699D01*
G75*
G02*
X52123799Y-126027700I249999J0D01*
G01*
X53023801Y-126027700D01*
G75*
G02*
X53273800Y-126277699I0J-249999D01*
G01*
X53273800Y-126802701D01*
G75*
G02*
X53023801Y-127052700I-249999J0D01*
G01*
G37*
G04 #@! TD.AperFunction*
G04 #@! TD*
G04 #@! TO.P,R1,2*
G04 #@! TO.N,/DTR*
G04 #@! TA.AperFunction,SMDPad,CuDef*
G36*
G01*
X65023801Y-125227700D02*
X64123799Y-125227700D01*
G75*
G02*
X63873800Y-124977701I0J249999D01*
G01*
X63873800Y-124452699D01*
G75*
G02*
X64123799Y-124202700I249999J0D01*
G01*
X65023801Y-124202700D01*
G75*
G02*
X65273800Y-124452699I0J-249999D01*
G01*
X65273800Y-124977701D01*
G75*
G02*
X65023801Y-125227700I-249999J0D01*
G01*
G37*
G04 #@! TD.AperFunction*
G04 #@! TO.P,R1,1*
G04 #@! TO.N,Net-(Q1-Pad1)*
G04 #@! TA.AperFunction,SMDPad,CuDef*
G36*
G01*
X65023801Y-127052700D02*
X64123799Y-127052700D01*
G75*
G02*
X63873800Y-126802701I0J249999D01*
G01*
X63873800Y-126277699D01*
G75*
G02*
X64123799Y-126027700I249999J0D01*
G01*
X65023801Y-126027700D01*
G75*
G02*
X65273800Y-126277699I0J-249999D01*
G01*
X65273800Y-126802701D01*
G75*
G02*
X65023801Y-127052700I-249999J0D01*
G01*
G37*
G04 #@! TD.AperFunction*
G04 #@! TD*
D19*
G04 #@! TO.P,Q2,3*
G04 #@! TO.N,/DTR*
X58573800Y-125627700D03*
G04 #@! TO.P,Q2,2*
G04 #@! TO.N,/GPIO9*
X56573800Y-126577700D03*
G04 #@! TO.P,Q2,1*
G04 #@! TO.N,Net-(Q2-Pad1)*
X56573800Y-124677700D03*
G04 #@! TD*
G04 #@! TO.P,Q1,3*
G04 #@! TO.N,/CHIP_PU*
X70573800Y-125627700D03*
G04 #@! TO.P,Q1,2*
G04 #@! TO.N,/RTS*
X68573800Y-126577700D03*
G04 #@! TO.P,Q1,1*
G04 #@! TO.N,Net-(Q1-Pad1)*
X68573800Y-124677700D03*
G04 #@! TD*
D10*
G04 #@! TO.P,J1,9*
G04 #@! TO.N,Net-(J1-Pad9)*
X84143800Y-123847700D03*
G04 #@! TO.P,J1,8*
G04 #@! TO.N,Net-(J1-Pad8)*
X96843800Y-123847700D03*
G04 #@! TO.P,J1,10*
G04 #@! TO.N,/RTS*
X84143800Y-126387700D03*
G04 #@! TO.P,J1,7*
G04 #@! TO.N,Net-(J1-Pad7)*
X96843800Y-126387700D03*
G04 #@! TO.P,J1,11*
G04 #@! TO.N,/U0TXD*
X84143800Y-128927700D03*
G04 #@! TO.P,J1,6*
G04 #@! TO.N,Net-(J1-Pad6)*
X96843800Y-128927700D03*
G04 #@! TO.P,J1,12*
G04 #@! TO.N,/U0RXD*
X84143800Y-131467700D03*
G04 #@! TO.P,J1,5*
G04 #@! TO.N,Net-(J1-Pad5)*
X96843800Y-131467700D03*
G04 #@! TO.P,J1,13*
G04 #@! TO.N,Net-(J1-Pad13)*
X84143800Y-134007700D03*
G04 #@! TO.P,J1,4*
G04 #@! TO.N,Net-(J1-Pad4)*
X96843800Y-134007700D03*
G04 #@! TO.P,J1,14*
G04 #@! TO.N,/DTR*
X84143800Y-136547700D03*
G04 #@! TO.P,J1,3*
G04 #@! TO.N,GND*
X96843800Y-136547700D03*
G04 #@! TO.P,J1,15*
G04 #@! TO.N,Net-(J1-Pad15)*
X84143800Y-139087700D03*
G04 #@! TO.P,J1,2*
G04 #@! TO.N,Net-(J1-Pad2)*
X96843800Y-139087700D03*
G04 #@! TO.P,J1,16*
G04 #@! TO.N,Net-(J1-Pad16)*
X84143800Y-141627700D03*
D11*
G04 #@! TO.P,J1,1*
G04 #@! TO.N,VBUS*
X96843800Y-141627700D03*
G04 #@! TD*
G04 #@! TO.P,D3,2*
G04 #@! TO.N,Net-(D3-Pad2)*
G04 #@! TA.AperFunction,SMDPad,CuDef*
G36*
G01*
X103387550Y-131077700D02*
X104300050Y-131077700D01*
G75*
G02*
X104543800Y-131321450I0J-243750D01*
G01*
X104543800Y-131808950D01*
G75*
G02*
X104300050Y-132052700I-243750J0D01*
G01*
X103387550Y-132052700D01*
G75*
G02*
X103143800Y-131808950I0J243750D01*
G01*
X103143800Y-131321450D01*
G75*
G02*
X103387550Y-131077700I243750J0D01*
G01*
G37*
G04 #@! TD.AperFunction*
G04 #@! TO.P,D3,1*
G04 #@! TO.N,GND*
G04 #@! TA.AperFunction,SMDPad,CuDef*
G36*
G01*
X103387550Y-129202700D02*
X104300050Y-129202700D01*
G75*
G02*
X104543800Y-129446450I0J-243750D01*
G01*
X104543800Y-129933950D01*
G75*
G02*
X104300050Y-130177700I-243750J0D01*
G01*
X103387550Y-130177700D01*
G75*
G02*
X103143800Y-129933950I0J243750D01*
G01*
X103143800Y-129446450D01*
G75*
G02*
X103387550Y-129202700I243750J0D01*
G01*
G37*
G04 #@! TD.AperFunction*
G04 #@! TD*
G04 #@! TO.P,D2,2*
G04 #@! TO.N,VBUS*
G04 #@! TA.AperFunction,SMDPad,CuDef*
G36*
G01*
X104068800Y-140002700D02*
X104068800Y-141252700D01*
G75*
G02*
X103818800Y-141502700I-250000J0D01*
G01*
X103068800Y-141502700D01*
G75*
G02*
X102818800Y-141252700I0J250000D01*
G01*
X102818800Y-140002700D01*
G75*
G02*
X103068800Y-139752700I250000J0D01*
G01*
X103818800Y-139752700D01*
G75*
G02*
X104068800Y-140002700I0J-250000D01*
G01*
G37*
G04 #@! TD.AperFunction*
G04 #@! TO.P,D2,1*
G04 #@! TO.N,+5V*
G04 #@! TA.AperFunction,SMDPad,CuDef*
G36*
G01*
X106868800Y-140002700D02*
X106868800Y-141252700D01*
G75*
G02*
X106618800Y-141502700I-250000J0D01*
G01*
X105868800Y-141502700D01*
G75*
G02*
X105618800Y-141252700I0J250000D01*
G01*
X105618800Y-140002700D01*
G75*
G02*
X105868800Y-139752700I250000J0D01*
G01*
X106618800Y-139752700D01*
G75*
G02*
X106868800Y-140002700I0J-250000D01*
G01*
G37*
G04 #@! TD.AperFunction*
G04 #@! TD*
D12*
G04 #@! TO.P,D1,3*
G04 #@! TO.N,+3V3*
X83688800Y-115047700D03*
G04 #@! TO.P,D1,4*
G04 #@! TO.N,/GPIO8*
X83688800Y-116147700D03*
G04 #@! TO.P,D1,1*
G04 #@! TO.N,Net-(D1-Pad1)*
X85518800Y-116147700D03*
G04 #@! TO.P,D1,2*
G04 #@! TO.N,GND*
X85518800Y-115047700D03*
G04 #@! TD*
G04 #@! TO.P,C7,2*
G04 #@! TO.N,GND*
G04 #@! TA.AperFunction,SMDPad,CuDef*
G36*
G01*
X104743799Y-104527700D02*
X106943801Y-104527700D01*
G75*
G02*
X107193800Y-104777699I0J-249999D01*
G01*
X107193800Y-105427701D01*
G75*
G02*
X106943801Y-105677700I-249999J0D01*
G01*
X104743799Y-105677700D01*
G75*
G02*
X104493800Y-105427701I0J249999D01*
G01*
X104493800Y-104777699D01*
G75*
G02*
X104743799Y-104527700I249999J0D01*
G01*
G37*
G04 #@! TD.AperFunction*
G04 #@! TO.P,C7,1*
G04 #@! TO.N,Net-(BT1-Pad1)*
G04 #@! TA.AperFunction,SMDPad,CuDef*
G36*
G01*
X104743799Y-101577700D02*
X106943801Y-101577700D01*
G75*
G02*
X107193800Y-101827699I0J-249999D01*
G01*
X107193800Y-102477701D01*
G75*
G02*
X106943801Y-102727700I-249999J0D01*
G01*
X104743799Y-102727700D01*
G75*
G02*
X104493800Y-102477701I0J249999D01*
G01*
X104493800Y-101827699D01*
G75*
G02*
X104743799Y-101577700I249999J0D01*
G01*
G37*
G04 #@! TD.AperFunction*
G04 #@! TD*
G04 #@! TO.P,C6,2*
G04 #@! TO.N,GND*
G04 #@! TA.AperFunction,SMDPad,CuDef*
G36*
G01*
X95293800Y-108102700D02*
X95293800Y-107152700D01*
G75*
G02*
X95543800Y-106902700I250000J0D01*
G01*
X96043800Y-106902700D01*
G75*
G02*
X96293800Y-107152700I0J-250000D01*
G01*
X96293800Y-108102700D01*
G75*
G02*
X96043800Y-108352700I-250000J0D01*
G01*
X95543800Y-108352700D01*
G75*
G02*
X95293800Y-108102700I0J250000D01*
G01*
G37*
G04 #@! TD.AperFunction*
G04 #@! TO.P,C6,1*
G04 #@! TO.N,/BAT3V*
G04 #@! TA.AperFunction,SMDPad,CuDef*
G36*
G01*
X93393800Y-108102700D02*
X93393800Y-107152700D01*
G75*
G02*
X93643800Y-106902700I250000J0D01*
G01*
X94143800Y-106902700D01*
G75*
G02*
X94393800Y-107152700I0J-250000D01*
G01*
X94393800Y-108102700D01*
G75*
G02*
X94143800Y-108352700I-250000J0D01*
G01*
X93643800Y-108352700D01*
G75*
G02*
X93393800Y-108102700I0J250000D01*
G01*
G37*
G04 #@! TD.AperFunction*
G04 #@! TD*
G04 #@! TO.P,C5,2*
G04 #@! TO.N,GND*
G04 #@! TA.AperFunction,SMDPad,CuDef*
G36*
G01*
X99368800Y-104077700D02*
X100318800Y-104077700D01*
G75*
G02*
X100568800Y-104327700I0J-250000D01*
G01*
X100568800Y-104827700D01*
G75*
G02*
X100318800Y-105077700I-250000J0D01*
G01*
X99368800Y-105077700D01*
G75*
G02*
X99118800Y-104827700I0J250000D01*
G01*
X99118800Y-104327700D01*
G75*
G02*
X99368800Y-104077700I250000J0D01*
G01*
G37*
G04 #@! TD.AperFunction*
G04 #@! TO.P,C5,1*
G04 #@! TO.N,Net-(BT1-Pad1)*
G04 #@! TA.AperFunction,SMDPad,CuDef*
G36*
G01*
X99368800Y-102177700D02*
X100318800Y-102177700D01*
G75*
G02*
X100568800Y-102427700I0J-250000D01*
G01*
X100568800Y-102927700D01*
G75*
G02*
X100318800Y-103177700I-250000J0D01*
G01*
X99368800Y-103177700D01*
G75*
G02*
X99118800Y-102927700I0J250000D01*
G01*
X99118800Y-102427700D01*
G75*
G02*
X99368800Y-102177700I250000J0D01*
G01*
G37*
G04 #@! TD.AperFunction*
G04 #@! TD*
G04 #@! TO.P,C4,2*
G04 #@! TO.N,GND*
G04 #@! TA.AperFunction,SMDPad,CuDef*
G36*
G01*
X111393800Y-128152700D02*
X111393800Y-129102700D01*
G75*
G02*
X111143800Y-129352700I-250000J0D01*
G01*
X110643800Y-129352700D01*
G75*
G02*
X110393800Y-129102700I0J250000D01*
G01*
X110393800Y-128152700D01*
G75*
G02*
X110643800Y-127902700I250000J0D01*
G01*
X111143800Y-127902700D01*
G75*
G02*
X111393800Y-128152700I0J-250000D01*
G01*
G37*
G04 #@! TD.AperFunction*
G04 #@! TO.P,C4,1*
G04 #@! TO.N,/USB3v*
G04 #@! TA.AperFunction,SMDPad,CuDef*
G36*
G01*
X113293800Y-128152700D02*
X113293800Y-129102700D01*
G75*
G02*
X113043800Y-129352700I-250000J0D01*
G01*
X112543800Y-129352700D01*
G75*
G02*
X112293800Y-129102700I0J250000D01*
G01*
X112293800Y-128152700D01*
G75*
G02*
X112543800Y-127902700I250000J0D01*
G01*
X113043800Y-127902700D01*
G75*
G02*
X113293800Y-128152700I0J-250000D01*
G01*
G37*
G04 #@! TD.AperFunction*
G04 #@! TD*
G04 #@! TO.P,C3,2*
G04 #@! TO.N,GND*
G04 #@! TA.AperFunction,SMDPad,CuDef*
G36*
G01*
X112293800Y-141102700D02*
X112293800Y-140152700D01*
G75*
G02*
X112543800Y-139902700I250000J0D01*
G01*
X113043800Y-139902700D01*
G75*
G02*
X113293800Y-140152700I0J-250000D01*
G01*
X113293800Y-141102700D01*
G75*
G02*
X113043800Y-141352700I-250000J0D01*
G01*
X112543800Y-141352700D01*
G75*
G02*
X112293800Y-141102700I0J250000D01*
G01*
G37*
G04 #@! TD.AperFunction*
G04 #@! TO.P,C3,1*
G04 #@! TO.N,+5V*
G04 #@! TA.AperFunction,SMDPad,CuDef*
G36*
G01*
X110393800Y-141102700D02*
X110393800Y-140152700D01*
G75*
G02*
X110643800Y-139902700I250000J0D01*
G01*
X111143800Y-139902700D01*
G75*
G02*
X111393800Y-140152700I0J-250000D01*
G01*
X111393800Y-141102700D01*
G75*
G02*
X111143800Y-141352700I-250000J0D01*
G01*
X110643800Y-141352700D01*
G75*
G02*
X110393800Y-141102700I0J250000D01*
G01*
G37*
G04 #@! TD.AperFunction*
G04 #@! TD*
G04 #@! TO.P,C2,2*
G04 #@! TO.N,GND*
G04 #@! TA.AperFunction,SMDPad,CuDef*
G36*
G01*
X69023800Y-132102700D02*
X69023800Y-131152700D01*
G75*
G02*
X69273800Y-130902700I250000J0D01*
G01*
X69773800Y-130902700D01*
G75*
G02*
X70023800Y-131152700I0J-250000D01*
G01*
X70023800Y-132102700D01*
G75*
G02*
X69773800Y-132352700I-250000J0D01*
G01*
X69273800Y-132352700D01*
G75*
G02*
X69023800Y-132102700I0J250000D01*
G01*
G37*
G04 #@! TD.AperFunction*
G04 #@! TO.P,C2,1*
G04 #@! TO.N,/CHIP_PU*
G04 #@! TA.AperFunction,SMDPad,CuDef*
G36*
G01*
X67123800Y-132102700D02*
X67123800Y-131152700D01*
G75*
G02*
X67373800Y-130902700I250000J0D01*
G01*
X67873800Y-130902700D01*
G75*
G02*
X68123800Y-131152700I0J-250000D01*
G01*
X68123800Y-132102700D01*
G75*
G02*
X67873800Y-132352700I-250000J0D01*
G01*
X67373800Y-132352700D01*
G75*
G02*
X67123800Y-132102700I0J250000D01*
G01*
G37*
G04 #@! TD.AperFunction*
G04 #@! TD*
G04 #@! TO.P,C1,2*
G04 #@! TO.N,GND*
G04 #@! TA.AperFunction,SMDPad,CuDef*
G36*
G01*
X55023800Y-132102700D02*
X55023800Y-131152700D01*
G75*
G02*
X55273800Y-130902700I250000J0D01*
G01*
X55773800Y-130902700D01*
G75*
G02*
X56023800Y-131152700I0J-250000D01*
G01*
X56023800Y-132102700D01*
G75*
G02*
X55773800Y-132352700I-250000J0D01*
G01*
X55273800Y-132352700D01*
G75*
G02*
X55023800Y-132102700I0J250000D01*
G01*
G37*
G04 #@! TD.AperFunction*
G04 #@! TO.P,C1,1*
G04 #@! TO.N,/GPIO9*
G04 #@! TA.AperFunction,SMDPad,CuDef*
G36*
G01*
X53123800Y-132102700D02*
X53123800Y-131152700D01*
G75*
G02*
X53373800Y-130902700I250000J0D01*
G01*
X53873800Y-130902700D01*
G75*
G02*
X54123800Y-131152700I0J-250000D01*
G01*
X54123800Y-132102700D01*
G75*
G02*
X53873800Y-132352700I-250000J0D01*
G01*
X53373800Y-132352700D01*
G75*
G02*
X53123800Y-132102700I0J250000D01*
G01*
G37*
G04 #@! TD.AperFunction*
G04 #@! TD*
D20*
G04 #@! TO.N,GND*
X105823800Y-106737700D03*
X99863800Y-106117700D03*
X97113800Y-107647700D03*
X91713800Y-103557700D03*
X87313800Y-115087700D03*
X102383800Y-129667700D03*
X109483800Y-128587700D03*
X110173800Y-135237700D03*
X112813800Y-139077700D03*
X58453800Y-138577700D03*
X72603800Y-138577700D03*
X70943800Y-131607700D03*
X56643800Y-131607700D03*
X48023800Y-108667700D03*
X48023800Y-113617700D03*
X49663800Y-105167700D03*
X62573800Y-104257700D03*
X68563800Y-116837700D03*
X54413800Y-114637700D03*
G04 #@! TO.N,/GPIO9*
X66363800Y-113807700D03*
X50903800Y-121387700D03*
G04 #@! TO.N,/GPIO8*
X65383800Y-114287700D03*
G04 #@! TO.N,/DTR*
X61333800Y-125627700D03*
G04 #@! TO.N,/GPIO7*
X65685171Y-116636329D03*
G04 #@! TO.N,/GPIO6*
X64558696Y-116641225D03*
G04 #@! TO.N,/GPIO5*
X63378381Y-116600910D03*
G04 #@! TO.N,/GPIO4*
X62353800Y-116707700D03*
G04 #@! TO.N,/GPIO10*
X60963800Y-116747700D03*
G04 #@! TO.N,/GPIO1*
X58603800Y-117767700D03*
G04 #@! TO.N,/GPIO0*
X57783800Y-116697700D03*
G04 #@! TO.N,/GPIO3*
X53763800Y-110617700D03*
G04 #@! TO.N,/GPIO2*
X54723800Y-109817700D03*
G04 #@! TD*
D21*
G04 #@! TO.N,GND*
X105843800Y-106717700D02*
X105823800Y-106737700D01*
X105843800Y-105102700D02*
X105843800Y-106717700D01*
X99843800Y-106097700D02*
X99863800Y-106117700D01*
X99843800Y-104577700D02*
X99843800Y-106097700D01*
X97093800Y-107627700D02*
X97113800Y-107647700D01*
X95793800Y-107627700D02*
X97093800Y-107627700D01*
D22*
X91783799Y-103627699D02*
X91713800Y-103557700D01*
X96019081Y-103627699D02*
X91783799Y-103627699D01*
X87273800Y-115047700D02*
X87313800Y-115087700D01*
X85518800Y-115047700D02*
X87273800Y-115047700D01*
X102406300Y-129690200D02*
X102383800Y-129667700D01*
X103843800Y-129690200D02*
X102406300Y-129690200D01*
X109523800Y-128627700D02*
X109483800Y-128587700D01*
X110893800Y-128627700D02*
X109523800Y-128627700D01*
D21*
X110208800Y-135272700D02*
X110173800Y-135237700D01*
X110208800Y-137202700D02*
X110208800Y-135272700D01*
X112793800Y-139097700D02*
X112813800Y-139077700D01*
X112793800Y-140627700D02*
X112793800Y-139097700D01*
D23*
X58403800Y-138627700D02*
X58453800Y-138577700D01*
X56625100Y-138627700D02*
X58403800Y-138627700D01*
X72553800Y-138627700D02*
X72603800Y-138577700D01*
X70625100Y-138627700D02*
X72553800Y-138627700D01*
X70923800Y-131627700D02*
X70943800Y-131607700D01*
X69523800Y-131627700D02*
X70923800Y-131627700D01*
X56623800Y-131627700D02*
X56643800Y-131607700D01*
X55523800Y-131627700D02*
X56623800Y-131627700D01*
D21*
X48063800Y-108627700D02*
X48023800Y-108667700D01*
X49623800Y-108627700D02*
X48063800Y-108627700D01*
X48033800Y-113627700D02*
X48023800Y-113617700D01*
X49623800Y-113627700D02*
X48033800Y-113627700D01*
X49623800Y-105127700D02*
X49663800Y-105167700D01*
X49623800Y-103627700D02*
X49623800Y-105127700D01*
X60598800Y-108652700D02*
X64548800Y-108652700D01*
X60598800Y-110627700D02*
X64548800Y-110627700D01*
X60598800Y-112602700D02*
X64548800Y-112602700D01*
X60598800Y-108652700D02*
X60598800Y-112602700D01*
X62573800Y-108652700D02*
X62573800Y-112602700D01*
X64548800Y-108652700D02*
X64548800Y-112602700D01*
X56623800Y-105677700D02*
X68523800Y-105677700D01*
X62573800Y-108652700D02*
X62573800Y-105727700D01*
X62573800Y-105727700D02*
X62573800Y-104257700D01*
D23*
X56673800Y-105727700D02*
X56623800Y-105677700D01*
X56673800Y-107427700D02*
X56673800Y-105727700D01*
X59373800Y-113827700D02*
X60598800Y-112602700D01*
X59373800Y-115527700D02*
X59373800Y-113827700D01*
X56623800Y-114677700D02*
X56673800Y-114627700D01*
X56623800Y-115577700D02*
X56623800Y-114677700D01*
X68523800Y-116797700D02*
X68563800Y-116837700D01*
X68523800Y-115577700D02*
X68523800Y-116797700D01*
X54423800Y-114627700D02*
X54413800Y-114637700D01*
X56673800Y-114627700D02*
X54423800Y-114627700D01*
G04 #@! TO.N,/GPIO9*
X48522500Y-136729000D02*
X53623800Y-131627700D01*
X48522500Y-138627700D02*
X48522500Y-136729000D01*
X53623800Y-129527700D02*
X56573800Y-126577700D01*
X53623800Y-131627700D02*
X53623800Y-129527700D01*
X66573800Y-114017700D02*
X66363800Y-113807700D01*
X66573800Y-115527700D02*
X66573800Y-114017700D01*
X50903800Y-126501956D02*
X50903800Y-121387700D01*
X53293046Y-127452710D02*
X51854554Y-127452710D01*
X53623800Y-127140210D02*
X53605546Y-127140210D01*
X51854554Y-127452710D02*
X50903800Y-126501956D01*
X53605546Y-127140210D02*
X53293046Y-127452710D01*
X53623800Y-131627700D02*
X53623800Y-127140210D01*
G04 #@! TO.N,/CHIP_PU*
X52923800Y-112227700D02*
X51523800Y-113627700D01*
X56673800Y-112227700D02*
X52923800Y-112227700D01*
X51523800Y-118590200D02*
X51486300Y-118627700D01*
X51523800Y-113627700D02*
X51523800Y-118590200D01*
X45773800Y-120967700D02*
X42113800Y-117307700D01*
X49846300Y-120967700D02*
X45773800Y-120967700D01*
X51486300Y-119327700D02*
X49846300Y-120967700D01*
X51486300Y-118627700D02*
X51486300Y-119327700D01*
X62522500Y-136729000D02*
X67623800Y-131627700D01*
X62522500Y-138627700D02*
X62522500Y-136729000D01*
X70573800Y-126147702D02*
X70573800Y-125627700D01*
X67623800Y-129097702D02*
X70573800Y-126147702D01*
X67623800Y-131627700D02*
X67623800Y-129097702D01*
X70573800Y-125627700D02*
X70573800Y-122977700D01*
X66223800Y-118627700D02*
X51486300Y-118627700D01*
X70573800Y-122977700D02*
X66223800Y-118627700D01*
D21*
G04 #@! TO.N,+5V*
X106243800Y-139115200D02*
X104756300Y-137627700D01*
X106243800Y-140627700D02*
X106243800Y-139115200D01*
X106243800Y-140627700D02*
X110893800Y-140627700D01*
X111478800Y-140042700D02*
X111478800Y-137202700D01*
X110893800Y-140627700D02*
X111478800Y-140042700D01*
X108938800Y-138672700D02*
X108938800Y-137202700D01*
X110893800Y-140627700D02*
X108938800Y-138672700D01*
X42113800Y-135087700D02*
X42113800Y-132547700D01*
X103243800Y-143627700D02*
X106243800Y-140627700D01*
X42113800Y-135518698D02*
X50222802Y-143627700D01*
X50222802Y-143627700D02*
X103243800Y-143627700D01*
X42113800Y-135087700D02*
X42113800Y-135518698D01*
G04 #@! TO.N,/USB3v*
X112748800Y-128672700D02*
X112793800Y-128627700D01*
X112748800Y-132052700D02*
X112748800Y-128672700D01*
G04 #@! TO.N,/BAT3V*
X109643800Y-114127700D02*
X112043800Y-114127700D01*
G04 #@! TO.N,/USB3v*
X109643800Y-119127700D02*
X112043800Y-119127700D01*
X112793800Y-119877700D02*
X112043800Y-119127700D01*
X112793800Y-128627700D02*
X112793800Y-119877700D01*
G04 #@! TO.N,/BAT3V*
X100393800Y-114127700D02*
X93893800Y-107627700D01*
X112043800Y-114127700D02*
X100393800Y-114127700D01*
X93668518Y-107402418D02*
X93893800Y-107627700D01*
X93668518Y-104577700D02*
X93668518Y-107402418D01*
G04 #@! TO.N,+3V3*
X109643800Y-116627700D02*
X112043800Y-116627700D01*
G04 #@! TO.N,/GPIO8*
X89931300Y-114681944D02*
X89931300Y-114627700D01*
G04 #@! TO.N,+3V3*
X54588801Y-100562699D02*
X51523800Y-103627700D01*
X89931300Y-111965200D02*
X78528799Y-100562699D01*
X51523800Y-103627700D02*
X51523800Y-108627700D01*
D23*
X55553800Y-108227700D02*
X56673800Y-108227700D01*
D21*
X51923800Y-108227700D02*
X51523800Y-108627700D01*
X55553800Y-108227700D02*
X51923800Y-108227700D01*
X42113800Y-107147700D02*
X42113800Y-104607700D01*
X42113800Y-104607700D02*
X46752056Y-104607700D01*
X50797057Y-100562699D02*
X55848801Y-100562699D01*
X46752056Y-104607700D02*
X50797057Y-100562699D01*
X55848801Y-100562699D02*
X54588801Y-100562699D01*
X78528799Y-100562699D02*
X55848801Y-100562699D01*
X89931300Y-111965200D02*
X89931300Y-112102700D01*
X109643800Y-116627700D02*
X97213802Y-116627700D01*
D22*
X87091298Y-111965200D02*
X89931300Y-111965200D01*
X84008798Y-115047700D02*
X87091298Y-111965200D01*
X83688800Y-115047700D02*
X84008798Y-115047700D01*
D21*
X49153800Y-118120200D02*
X49661300Y-118627700D01*
X48973800Y-117807700D02*
X49153800Y-117987700D01*
X47048799Y-115832699D02*
X48973800Y-117757700D01*
X51523800Y-108627700D02*
X47048799Y-113102701D01*
X48973800Y-117757700D02*
X48973800Y-117807700D01*
X49153800Y-117987700D02*
X49153800Y-118120200D01*
X47048799Y-113102701D02*
X47048799Y-115832699D01*
X95213802Y-114627700D02*
X97213802Y-116627700D01*
X91756300Y-114627700D02*
X95213802Y-114627700D01*
X91756300Y-113927700D02*
X91756300Y-114627700D01*
X89931300Y-112102700D02*
X91756300Y-113927700D01*
D22*
G04 #@! TO.N,/GPIO8*
X83278798Y-116147700D02*
X83688800Y-116147700D01*
X81818798Y-114687700D02*
X83278798Y-116147700D01*
X75433800Y-114687700D02*
X81818798Y-114687700D01*
X86521300Y-118037700D02*
X89931300Y-114627700D01*
X85898798Y-118037700D02*
X86521300Y-118037700D01*
X84008798Y-116147700D02*
X85898798Y-118037700D01*
X83688800Y-116147700D02*
X84008798Y-116147700D01*
D23*
X65773800Y-114677700D02*
X65383800Y-114287700D01*
X65773800Y-115527700D02*
X65773800Y-114677700D01*
D21*
G04 #@! TO.N,VBUS*
X102443800Y-141627700D02*
X103443800Y-140627700D01*
X96843800Y-141627700D02*
X102443800Y-141627700D01*
D23*
G04 #@! TO.N,Net-(D3-Pad2)*
X102931300Y-132477700D02*
X103843800Y-131565200D01*
X102931300Y-137627700D02*
X102931300Y-132477700D01*
G04 #@! TO.N,/RTS*
X57423801Y-126540200D02*
X58336311Y-127452710D01*
X67698790Y-127452710D02*
X68573800Y-126577700D01*
X57343801Y-125777699D02*
X57423801Y-125857699D01*
X55803799Y-125777699D02*
X57343801Y-125777699D01*
X55723799Y-126540200D02*
X55723799Y-125857699D01*
X57423801Y-125857699D02*
X57423801Y-126540200D01*
X55723799Y-125857699D02*
X55803799Y-125777699D01*
X52573800Y-126540200D02*
X55723799Y-126540200D01*
X61108790Y-139992690D02*
X61108790Y-127452710D01*
X67769603Y-136297699D02*
X63693401Y-140373901D01*
X75993803Y-136297699D02*
X67769603Y-136297699D01*
X81043800Y-131247702D02*
X75993803Y-136297699D01*
X61490001Y-140373901D02*
X61108790Y-139992690D01*
X81043800Y-130177698D02*
X81043800Y-131247702D01*
X84143800Y-127077698D02*
X81043800Y-130177698D01*
X84143800Y-126387700D02*
X84143800Y-127077698D01*
X61108790Y-127452710D02*
X67698790Y-127452710D01*
X63693401Y-140373901D02*
X61490001Y-140373901D01*
X58336311Y-127452710D02*
X61108790Y-127452710D01*
G04 #@! TO.N,/U0TXD*
X70133800Y-109827700D02*
X68473800Y-109827700D01*
X75433800Y-104527700D02*
X70133800Y-109827700D01*
G04 #@! TO.N,/U0RXD*
X71873800Y-110627700D02*
X75433800Y-107067700D01*
X68473800Y-110627700D02*
X71873800Y-110627700D01*
G04 #@! TO.N,/DTR*
X63661300Y-125627700D02*
X64573800Y-124715200D01*
X58573800Y-125627700D02*
X61333800Y-125627700D01*
X61333800Y-125627700D02*
X63661300Y-125627700D01*
G04 #@! TO.N,Net-(Q1-Pad1)*
X66711300Y-126540200D02*
X68573800Y-124677700D01*
X64573800Y-126540200D02*
X66711300Y-126540200D01*
G04 #@! TO.N,Net-(Q2-Pad1)*
X56536300Y-124715200D02*
X56573800Y-124677700D01*
X52573800Y-124715200D02*
X56536300Y-124715200D01*
G04 #@! TO.N,/GPIO19*
X76023802Y-128667700D02*
X77223800Y-129867698D01*
X74863798Y-128667700D02*
X76023802Y-128667700D01*
X74183799Y-127987701D02*
X74863798Y-128667700D01*
X72813810Y-125027710D02*
X74183799Y-126397699D01*
X74183799Y-126397699D02*
X74183799Y-127987701D01*
X72813810Y-116799166D02*
X72813810Y-125027710D01*
X69042344Y-113027700D02*
X72813810Y-116799166D01*
X68473800Y-113027700D02*
X69042344Y-113027700D01*
X77223800Y-133217700D02*
X75433800Y-135007700D01*
X77223800Y-129867698D02*
X77223800Y-133217700D01*
G04 #@! TO.N,/GPIO18*
X68993802Y-113827700D02*
X72213800Y-117047698D01*
X68473800Y-113827700D02*
X68993802Y-113827700D01*
X72213800Y-129247700D02*
X75433800Y-132467700D01*
X72213800Y-117047698D02*
X72213800Y-129247700D01*
G04 #@! TO.N,/GPIO7*
X64973800Y-115924958D02*
X65685171Y-116636329D01*
X64973800Y-115527700D02*
X64973800Y-115924958D01*
G04 #@! TO.N,/GPIO6*
X64173800Y-116256329D02*
X64558696Y-116641225D01*
X64173800Y-115527700D02*
X64173800Y-116256329D01*
G04 #@! TO.N,/GPIO5*
X63373800Y-116596329D02*
X63378381Y-116600910D01*
X63373800Y-115527700D02*
X63373800Y-116596329D01*
G04 #@! TO.N,/GPIO4*
X62573800Y-116487700D02*
X62353800Y-116707700D01*
X62573800Y-115527700D02*
X62573800Y-116487700D01*
G04 #@! TO.N,/GPIO10*
X60973800Y-116737700D02*
X60963800Y-116747700D01*
X60973800Y-115527700D02*
X60973800Y-116737700D01*
G04 #@! TO.N,/GPIO1*
X58573800Y-117737700D02*
X58603800Y-117767700D01*
X58603800Y-115557700D02*
X58603800Y-117767700D01*
X58573800Y-115527700D02*
X58603800Y-115557700D01*
G04 #@! TO.N,/GPIO0*
X57773800Y-116697700D02*
X57783800Y-116707700D01*
X57773800Y-115527700D02*
X57773800Y-116697700D01*
G04 #@! TO.N,/GPIO3*
X53773800Y-110627700D02*
X53763800Y-110617700D01*
X56673800Y-110627700D02*
X53773800Y-110627700D01*
G04 #@! TO.N,/GPIO2*
X54733800Y-109827700D02*
X54723800Y-109817700D01*
X56673800Y-109827700D02*
X54733800Y-109827700D01*
D21*
G04 #@! TO.N,Net-(BT1-Pad1)*
X106368800Y-101627700D02*
X105843800Y-102152700D01*
X111843800Y-101627700D02*
X106368800Y-101627700D01*
X100368800Y-102152700D02*
X99843800Y-102677700D01*
X105843800Y-102152700D02*
X100368800Y-102152700D01*
X96019082Y-102677700D02*
X96019081Y-102677699D01*
X96886385Y-104577700D02*
X97893800Y-103570285D01*
X96019081Y-104577700D02*
X96886385Y-104577700D01*
X97893800Y-103570285D02*
X97893800Y-102677700D01*
X97893800Y-102677700D02*
X96019082Y-102677700D01*
X99843800Y-102677700D02*
X97893800Y-102677700D01*
G04 #@! TD*
M02*
