G04 #@! TF.GenerationSoftware,KiCad,Pcbnew,(5.1.12-1-10_14)*
G04 #@! TF.CreationDate,2021-12-17T20:41:21-05:00*
G04 #@! TF.ProjectId,ClonedESP32DevBoard,436c6f6e-6564-4455-9350-333244657642,rev?*
G04 #@! TF.SameCoordinates,Original*
G04 #@! TF.FileFunction,Copper,L2,Bot*
G04 #@! TF.FilePolarity,Positive*
%FSLAX46Y46*%
G04 Gerber Fmt 4.6, Leading zero omitted, Abs format (unit mm)*
G04 Created by KiCad (PCBNEW (5.1.12-1-10_14)) date 2021-12-17 20:41:21*
%MOMM*%
%LPD*%
G01*
G04 APERTURE LIST*
G04 #@! TA.AperFunction,ComponentPad*
%ADD10O,1.700000X1.700000*%
G04 #@! TD*
G04 #@! TA.AperFunction,ComponentPad*
%ADD11R,1.700000X1.700000*%
G04 #@! TD*
G04 #@! TA.AperFunction,ViaPad*
%ADD12C,0.800000*%
G04 #@! TD*
G04 #@! TA.AperFunction,Conductor*
%ADD13C,0.400000*%
G04 #@! TD*
G04 #@! TA.AperFunction,Conductor*
%ADD14C,0.254000*%
G04 #@! TD*
G04 #@! TA.AperFunction,Conductor*
%ADD15C,0.100000*%
G04 #@! TD*
G04 APERTURE END LIST*
D10*
G04 #@! TO.P,BT1,2*
G04 #@! TO.N,GND*
X111843800Y-104167700D03*
D11*
G04 #@! TO.P,BT1,1*
G04 #@! TO.N,Net-(BT1-Pad1)*
X111843800Y-101627700D03*
G04 #@! TD*
D10*
G04 #@! TO.P,J4,16*
G04 #@! TO.N,GND*
X75433800Y-140087700D03*
G04 #@! TO.P,J4,15*
X75433800Y-137547700D03*
G04 #@! TO.P,J4,14*
G04 #@! TO.N,/GPIO19*
X75433800Y-135007700D03*
G04 #@! TO.P,J4,13*
G04 #@! TO.N,/GPIO18*
X75433800Y-132467700D03*
G04 #@! TO.P,J4,12*
G04 #@! TO.N,GND*
X75433800Y-129927700D03*
G04 #@! TO.P,J4,11*
G04 #@! TO.N,/GPIO4*
X75433800Y-127387700D03*
G04 #@! TO.P,J4,10*
G04 #@! TO.N,/GPIO5*
X75433800Y-124847700D03*
G04 #@! TO.P,J4,9*
G04 #@! TO.N,/GPIO6*
X75433800Y-122307700D03*
G04 #@! TO.P,J4,8*
G04 #@! TO.N,/GPIO7*
X75433800Y-119767700D03*
G04 #@! TO.P,J4,7*
G04 #@! TO.N,GND*
X75433800Y-117227700D03*
G04 #@! TO.P,J4,6*
G04 #@! TO.N,/GPIO8*
X75433800Y-114687700D03*
G04 #@! TO.P,J4,5*
G04 #@! TO.N,/GPIO9*
X75433800Y-112147700D03*
G04 #@! TO.P,J4,4*
G04 #@! TO.N,GND*
X75433800Y-109607700D03*
G04 #@! TO.P,J4,3*
G04 #@! TO.N,/U0RXD*
X75433800Y-107067700D03*
G04 #@! TO.P,J4,2*
G04 #@! TO.N,/U0TXD*
X75433800Y-104527700D03*
D11*
G04 #@! TO.P,J4,1*
G04 #@! TO.N,GND*
X75433800Y-101987700D03*
G04 #@! TD*
D10*
G04 #@! TO.P,J3,16*
G04 #@! TO.N,GND*
X42113800Y-140167700D03*
G04 #@! TO.P,J3,15*
X42113800Y-137627700D03*
G04 #@! TO.P,J3,14*
G04 #@! TO.N,+5V*
X42113800Y-135087700D03*
G04 #@! TO.P,J3,13*
X42113800Y-132547700D03*
G04 #@! TO.P,J3,12*
G04 #@! TO.N,GND*
X42113800Y-130007700D03*
G04 #@! TO.P,J3,11*
G04 #@! TO.N,/GPIO10*
X42113800Y-127467700D03*
G04 #@! TO.P,J3,10*
G04 #@! TO.N,/GPIO1*
X42113800Y-124927700D03*
G04 #@! TO.P,J3,9*
G04 #@! TO.N,/GPIO0*
X42113800Y-122387700D03*
G04 #@! TO.P,J3,8*
G04 #@! TO.N,GND*
X42113800Y-119847700D03*
G04 #@! TO.P,J3,7*
G04 #@! TO.N,/CHIP_PU*
X42113800Y-117307700D03*
G04 #@! TO.P,J3,6*
G04 #@! TO.N,GND*
X42113800Y-114767700D03*
G04 #@! TO.P,J3,5*
G04 #@! TO.N,/GPIO3*
X42113800Y-112227700D03*
G04 #@! TO.P,J3,4*
G04 #@! TO.N,/GPIO2*
X42113800Y-109687700D03*
G04 #@! TO.P,J3,3*
G04 #@! TO.N,+3V3*
X42113800Y-107147700D03*
G04 #@! TO.P,J3,2*
X42113800Y-104607700D03*
D11*
G04 #@! TO.P,J3,1*
G04 #@! TO.N,GND*
X42113800Y-102067700D03*
G04 #@! TD*
D10*
G04 #@! TO.P,J1,9*
G04 #@! TO.N,Net-(J1-Pad9)*
X84143800Y-123847700D03*
G04 #@! TO.P,J1,8*
G04 #@! TO.N,Net-(J1-Pad8)*
X96843800Y-123847700D03*
G04 #@! TO.P,J1,10*
G04 #@! TO.N,/RTS*
X84143800Y-126387700D03*
G04 #@! TO.P,J1,7*
G04 #@! TO.N,Net-(J1-Pad7)*
X96843800Y-126387700D03*
G04 #@! TO.P,J1,11*
G04 #@! TO.N,/U0TXD*
X84143800Y-128927700D03*
G04 #@! TO.P,J1,6*
G04 #@! TO.N,Net-(J1-Pad6)*
X96843800Y-128927700D03*
G04 #@! TO.P,J1,12*
G04 #@! TO.N,/U0RXD*
X84143800Y-131467700D03*
G04 #@! TO.P,J1,5*
G04 #@! TO.N,Net-(J1-Pad5)*
X96843800Y-131467700D03*
G04 #@! TO.P,J1,13*
G04 #@! TO.N,Net-(J1-Pad13)*
X84143800Y-134007700D03*
G04 #@! TO.P,J1,4*
G04 #@! TO.N,Net-(J1-Pad4)*
X96843800Y-134007700D03*
G04 #@! TO.P,J1,14*
G04 #@! TO.N,/DTR*
X84143800Y-136547700D03*
G04 #@! TO.P,J1,3*
G04 #@! TO.N,GND*
X96843800Y-136547700D03*
G04 #@! TO.P,J1,15*
G04 #@! TO.N,Net-(J1-Pad15)*
X84143800Y-139087700D03*
G04 #@! TO.P,J1,2*
G04 #@! TO.N,Net-(J1-Pad2)*
X96843800Y-139087700D03*
G04 #@! TO.P,J1,16*
G04 #@! TO.N,Net-(J1-Pad16)*
X84143800Y-141627700D03*
D11*
G04 #@! TO.P,J1,1*
G04 #@! TO.N,VBUS*
X96843800Y-141627700D03*
G04 #@! TD*
D12*
G04 #@! TO.N,GND*
X105823800Y-106737700D03*
X99863800Y-106117700D03*
X97113800Y-107647700D03*
X91713800Y-103557700D03*
X87313800Y-115087700D03*
X102383800Y-129667700D03*
X109483800Y-128587700D03*
X110173800Y-135237700D03*
X112813800Y-139077700D03*
X58453800Y-138577700D03*
X72603800Y-138577700D03*
X70943800Y-131607700D03*
X56643800Y-131607700D03*
X48023800Y-108667700D03*
X48023800Y-113617700D03*
X49663800Y-105167700D03*
X62573800Y-104257700D03*
X68563800Y-116837700D03*
X54413800Y-114637700D03*
G04 #@! TO.N,/GPIO9*
X66363800Y-113807700D03*
X50903800Y-121387700D03*
G04 #@! TO.N,/GPIO8*
X65383800Y-114287700D03*
G04 #@! TO.N,/DTR*
X61333800Y-125627700D03*
G04 #@! TO.N,/GPIO7*
X65685171Y-116636329D03*
G04 #@! TO.N,/GPIO6*
X64558696Y-116641225D03*
G04 #@! TO.N,/GPIO5*
X63378381Y-116600910D03*
G04 #@! TO.N,/GPIO4*
X62353800Y-116707700D03*
G04 #@! TO.N,/GPIO10*
X60963800Y-116747700D03*
G04 #@! TO.N,/GPIO1*
X58603800Y-117767700D03*
G04 #@! TO.N,/GPIO0*
X57783800Y-116697700D03*
G04 #@! TO.N,/GPIO3*
X53763800Y-110617700D03*
G04 #@! TO.N,/GPIO2*
X54723800Y-109817700D03*
G04 #@! TD*
D13*
G04 #@! TO.N,/GPIO9*
X68023800Y-112147700D02*
X75433800Y-112147700D01*
X66363800Y-113807700D02*
X68023800Y-112147700D01*
X58679799Y-113487699D02*
X66043799Y-113487699D01*
X66043799Y-113487699D02*
X66363800Y-113807700D01*
X50903800Y-121263698D02*
X50903800Y-121387700D01*
X56269799Y-115897699D02*
X50903800Y-121263698D01*
X56343801Y-115897699D02*
X56269799Y-115897699D01*
X58679799Y-113561701D02*
X56343801Y-115897699D01*
X58679799Y-113487699D02*
X58679799Y-113561701D01*
G04 #@! TO.N,/GPIO8*
X65783800Y-114687700D02*
X75433800Y-114687700D01*
X65383800Y-114287700D02*
X65783800Y-114687700D01*
G04 #@! TO.N,/U0TXD*
X75433800Y-105217698D02*
X80983800Y-110767698D01*
X75433800Y-104527700D02*
X75433800Y-105217698D01*
X80983800Y-125767700D02*
X84143800Y-128927700D01*
X80983800Y-110767698D02*
X80983800Y-125767700D01*
G04 #@! TO.N,/U0RXD*
X80383790Y-127707690D02*
X84143800Y-131467700D01*
X80383790Y-112707688D02*
X80383790Y-127707690D01*
X75433800Y-107757698D02*
X80383790Y-112707688D01*
X75433800Y-107067700D02*
X75433800Y-107757698D01*
G04 #@! TO.N,/DTR*
X72003799Y-136297699D02*
X61333800Y-125627700D01*
X76033801Y-136297699D02*
X72003799Y-136297699D01*
X76283802Y-136547700D02*
X76033801Y-136297699D01*
X84143800Y-136547700D02*
X76283802Y-136547700D01*
G04 #@! TO.N,/GPIO7*
X68816542Y-119767700D02*
X75433800Y-119767700D01*
X65685171Y-116636329D02*
X68816542Y-119767700D01*
G04 #@! TO.N,/GPIO6*
X70225171Y-122307700D02*
X75433800Y-122307700D01*
X64558696Y-116641225D02*
X70225171Y-122307700D01*
G04 #@! TO.N,/GPIO5*
X63778380Y-117000909D02*
X63787009Y-117000909D01*
X63378381Y-116600910D02*
X63778380Y-117000909D01*
X71633800Y-124847700D02*
X75433800Y-124847700D01*
X63787009Y-117000909D02*
X71633800Y-124847700D01*
G04 #@! TO.N,/GPIO4*
X73033800Y-127387700D02*
X75433800Y-127387700D01*
X62353800Y-116707700D02*
X73033800Y-127387700D01*
G04 #@! TO.N,/GPIO10*
X50243800Y-127467700D02*
X42113800Y-127467700D01*
X60963800Y-116747700D02*
X50243800Y-127467700D01*
G04 #@! TO.N,/GPIO1*
X53383790Y-122987710D02*
X44053790Y-122987710D01*
X44053790Y-122987710D02*
X42113800Y-124927700D01*
X58603800Y-117767700D02*
X53383790Y-122987710D01*
G04 #@! TO.N,/GPIO0*
X52669485Y-122387700D02*
X42113800Y-122387700D01*
X57783800Y-117273385D02*
X52669485Y-122387700D01*
X57783800Y-116707700D02*
X57783800Y-117273385D01*
G04 #@! TO.N,/GPIO3*
X52153800Y-112227700D02*
X42113800Y-112227700D01*
X53763800Y-110617700D02*
X52153800Y-112227700D01*
G04 #@! TO.N,/GPIO2*
X42243800Y-109817700D02*
X42113800Y-109687700D01*
X54723800Y-109817700D02*
X42243800Y-109817700D01*
G04 #@! TD*
D14*
G04 #@! TO.N,GND*
X114143801Y-144507700D02*
X35453800Y-144507700D01*
X35453800Y-140524590D01*
X40672324Y-140524590D01*
X40716975Y-140671799D01*
X40842159Y-140934620D01*
X41016212Y-141167969D01*
X41232445Y-141362878D01*
X41482548Y-141511857D01*
X41756909Y-141609181D01*
X41986800Y-141488514D01*
X41986800Y-140294700D01*
X42240800Y-140294700D01*
X42240800Y-141488514D01*
X42470691Y-141609181D01*
X42745052Y-141511857D01*
X42995155Y-141362878D01*
X43211388Y-141167969D01*
X43385441Y-140934620D01*
X43510625Y-140671799D01*
X43555276Y-140524590D01*
X43513058Y-140444590D01*
X73992324Y-140444590D01*
X74036975Y-140591799D01*
X74162159Y-140854620D01*
X74336212Y-141087969D01*
X74552445Y-141282878D01*
X74802548Y-141431857D01*
X75076909Y-141529181D01*
X75306800Y-141408514D01*
X75306800Y-140214700D01*
X75560800Y-140214700D01*
X75560800Y-141408514D01*
X75790691Y-141529181D01*
X76065052Y-141431857D01*
X76315155Y-141282878D01*
X76531388Y-141087969D01*
X76705441Y-140854620D01*
X76830625Y-140591799D01*
X76875276Y-140444590D01*
X76753955Y-140214700D01*
X75560800Y-140214700D01*
X75306800Y-140214700D01*
X74113645Y-140214700D01*
X73992324Y-140444590D01*
X43513058Y-140444590D01*
X43433955Y-140294700D01*
X42240800Y-140294700D01*
X41986800Y-140294700D01*
X40793645Y-140294700D01*
X40672324Y-140524590D01*
X35453800Y-140524590D01*
X35453800Y-137984590D01*
X40672324Y-137984590D01*
X40716975Y-138131799D01*
X40842159Y-138394620D01*
X41016212Y-138627969D01*
X41232445Y-138822878D01*
X41358055Y-138897700D01*
X41232445Y-138972522D01*
X41016212Y-139167431D01*
X40842159Y-139400780D01*
X40716975Y-139663601D01*
X40672324Y-139810810D01*
X40793645Y-140040700D01*
X41986800Y-140040700D01*
X41986800Y-137754700D01*
X42240800Y-137754700D01*
X42240800Y-140040700D01*
X43433955Y-140040700D01*
X43555276Y-139810810D01*
X43510625Y-139663601D01*
X43385441Y-139400780D01*
X43211388Y-139167431D01*
X42995155Y-138972522D01*
X42869545Y-138897700D01*
X42995155Y-138822878D01*
X43211388Y-138627969D01*
X43385441Y-138394620D01*
X43510625Y-138131799D01*
X43555276Y-137984590D01*
X43513058Y-137904590D01*
X73992324Y-137904590D01*
X74036975Y-138051799D01*
X74162159Y-138314620D01*
X74336212Y-138547969D01*
X74552445Y-138742878D01*
X74678055Y-138817700D01*
X74552445Y-138892522D01*
X74336212Y-139087431D01*
X74162159Y-139320780D01*
X74036975Y-139583601D01*
X73992324Y-139730810D01*
X74113645Y-139960700D01*
X75306800Y-139960700D01*
X75306800Y-137674700D01*
X75560800Y-137674700D01*
X75560800Y-139960700D01*
X76753955Y-139960700D01*
X76875276Y-139730810D01*
X76830625Y-139583601D01*
X76705441Y-139320780D01*
X76531388Y-139087431D01*
X76315155Y-138892522D01*
X76189545Y-138817700D01*
X76315155Y-138742878D01*
X76531388Y-138547969D01*
X76705441Y-138314620D01*
X76830625Y-138051799D01*
X76875276Y-137904590D01*
X76753955Y-137674700D01*
X75560800Y-137674700D01*
X75306800Y-137674700D01*
X74113645Y-137674700D01*
X73992324Y-137904590D01*
X43513058Y-137904590D01*
X43433955Y-137754700D01*
X42240800Y-137754700D01*
X41986800Y-137754700D01*
X40793645Y-137754700D01*
X40672324Y-137984590D01*
X35453800Y-137984590D01*
X35453800Y-132401440D01*
X40628800Y-132401440D01*
X40628800Y-132693960D01*
X40685868Y-132980858D01*
X40797810Y-133251111D01*
X40960325Y-133494332D01*
X41167168Y-133701175D01*
X41341560Y-133817700D01*
X41167168Y-133934225D01*
X40960325Y-134141068D01*
X40797810Y-134384289D01*
X40685868Y-134654542D01*
X40628800Y-134941440D01*
X40628800Y-135233960D01*
X40685868Y-135520858D01*
X40797810Y-135791111D01*
X40960325Y-136034332D01*
X41167168Y-136241175D01*
X41349334Y-136362895D01*
X41232445Y-136432522D01*
X41016212Y-136627431D01*
X40842159Y-136860780D01*
X40716975Y-137123601D01*
X40672324Y-137270810D01*
X40793645Y-137500700D01*
X41986800Y-137500700D01*
X41986800Y-137480700D01*
X42240800Y-137480700D01*
X42240800Y-137500700D01*
X43433955Y-137500700D01*
X43555276Y-137270810D01*
X43510625Y-137123601D01*
X43385441Y-136860780D01*
X43211388Y-136627431D01*
X42995155Y-136432522D01*
X42878266Y-136362895D01*
X43060432Y-136241175D01*
X43267275Y-136034332D01*
X43429790Y-135791111D01*
X43541732Y-135520858D01*
X43598800Y-135233960D01*
X43598800Y-134941440D01*
X43541732Y-134654542D01*
X43429790Y-134384289D01*
X43267275Y-134141068D01*
X43060432Y-133934225D01*
X42886040Y-133817700D01*
X43060432Y-133701175D01*
X43267275Y-133494332D01*
X43429790Y-133251111D01*
X43541732Y-132980858D01*
X43598800Y-132693960D01*
X43598800Y-132401440D01*
X43541732Y-132114542D01*
X43429790Y-131844289D01*
X43267275Y-131601068D01*
X43060432Y-131394225D01*
X42878266Y-131272505D01*
X42995155Y-131202878D01*
X43211388Y-131007969D01*
X43385441Y-130774620D01*
X43510625Y-130511799D01*
X43555276Y-130364590D01*
X43433955Y-130134700D01*
X42240800Y-130134700D01*
X42240800Y-130154700D01*
X41986800Y-130154700D01*
X41986800Y-130134700D01*
X40793645Y-130134700D01*
X40672324Y-130364590D01*
X40716975Y-130511799D01*
X40842159Y-130774620D01*
X41016212Y-131007969D01*
X41232445Y-131202878D01*
X41349334Y-131272505D01*
X41167168Y-131394225D01*
X40960325Y-131601068D01*
X40797810Y-131844289D01*
X40685868Y-132114542D01*
X40628800Y-132401440D01*
X35453800Y-132401440D01*
X35453800Y-122241440D01*
X40628800Y-122241440D01*
X40628800Y-122533960D01*
X40685868Y-122820858D01*
X40797810Y-123091111D01*
X40960325Y-123334332D01*
X41167168Y-123541175D01*
X41341560Y-123657700D01*
X41167168Y-123774225D01*
X40960325Y-123981068D01*
X40797810Y-124224289D01*
X40685868Y-124494542D01*
X40628800Y-124781440D01*
X40628800Y-125073960D01*
X40685868Y-125360858D01*
X40797810Y-125631111D01*
X40960325Y-125874332D01*
X41167168Y-126081175D01*
X41341560Y-126197700D01*
X41167168Y-126314225D01*
X40960325Y-126521068D01*
X40797810Y-126764289D01*
X40685868Y-127034542D01*
X40628800Y-127321440D01*
X40628800Y-127613960D01*
X40685868Y-127900858D01*
X40797810Y-128171111D01*
X40960325Y-128414332D01*
X41167168Y-128621175D01*
X41349334Y-128742895D01*
X41232445Y-128812522D01*
X41016212Y-129007431D01*
X40842159Y-129240780D01*
X40716975Y-129503601D01*
X40672324Y-129650810D01*
X40793645Y-129880700D01*
X41986800Y-129880700D01*
X41986800Y-129860700D01*
X42240800Y-129860700D01*
X42240800Y-129880700D01*
X43433955Y-129880700D01*
X43555276Y-129650810D01*
X43510625Y-129503601D01*
X43385441Y-129240780D01*
X43211388Y-129007431D01*
X42995155Y-128812522D01*
X42878266Y-128742895D01*
X43060432Y-128621175D01*
X43267275Y-128414332D01*
X43341865Y-128302700D01*
X50202782Y-128302700D01*
X50243800Y-128306740D01*
X50284818Y-128302700D01*
X50284819Y-128302700D01*
X50407489Y-128290618D01*
X50564887Y-128242872D01*
X50709946Y-128165336D01*
X50837091Y-128060991D01*
X50863246Y-128029121D01*
X61120576Y-117771792D01*
X61265698Y-117742926D01*
X61454056Y-117664905D01*
X61623574Y-117551637D01*
X61678800Y-117496411D01*
X61694026Y-117511637D01*
X61863544Y-117624905D01*
X62051902Y-117702926D01*
X62197026Y-117731793D01*
X72414363Y-127949132D01*
X72440509Y-127980991D01*
X72472368Y-128007137D01*
X72472370Y-128007139D01*
X72567654Y-128085336D01*
X72712713Y-128162872D01*
X72870111Y-128210618D01*
X73033800Y-128226740D01*
X73074818Y-128222700D01*
X74205735Y-128222700D01*
X74280325Y-128334332D01*
X74487168Y-128541175D01*
X74669334Y-128662895D01*
X74552445Y-128732522D01*
X74336212Y-128927431D01*
X74162159Y-129160780D01*
X74036975Y-129423601D01*
X73992324Y-129570810D01*
X74113645Y-129800700D01*
X75306800Y-129800700D01*
X75306800Y-129780700D01*
X75560800Y-129780700D01*
X75560800Y-129800700D01*
X76753955Y-129800700D01*
X76875276Y-129570810D01*
X76830625Y-129423601D01*
X76705441Y-129160780D01*
X76531388Y-128927431D01*
X76315155Y-128732522D01*
X76198266Y-128662895D01*
X76380432Y-128541175D01*
X76587275Y-128334332D01*
X76749790Y-128091111D01*
X76861732Y-127820858D01*
X76918800Y-127533960D01*
X76918800Y-127241440D01*
X76861732Y-126954542D01*
X76749790Y-126684289D01*
X76587275Y-126441068D01*
X76380432Y-126234225D01*
X76206040Y-126117700D01*
X76380432Y-126001175D01*
X76587275Y-125794332D01*
X76749790Y-125551111D01*
X76861732Y-125280858D01*
X76918800Y-124993960D01*
X76918800Y-124701440D01*
X76861732Y-124414542D01*
X76749790Y-124144289D01*
X76587275Y-123901068D01*
X76380432Y-123694225D01*
X76206040Y-123577700D01*
X76380432Y-123461175D01*
X76587275Y-123254332D01*
X76749790Y-123011111D01*
X76861732Y-122740858D01*
X76918800Y-122453960D01*
X76918800Y-122161440D01*
X76861732Y-121874542D01*
X76749790Y-121604289D01*
X76587275Y-121361068D01*
X76380432Y-121154225D01*
X76206040Y-121037700D01*
X76380432Y-120921175D01*
X76587275Y-120714332D01*
X76749790Y-120471111D01*
X76861732Y-120200858D01*
X76918800Y-119913960D01*
X76918800Y-119621440D01*
X76861732Y-119334542D01*
X76749790Y-119064289D01*
X76587275Y-118821068D01*
X76380432Y-118614225D01*
X76198266Y-118492505D01*
X76315155Y-118422878D01*
X76531388Y-118227969D01*
X76705441Y-117994620D01*
X76830625Y-117731799D01*
X76875276Y-117584590D01*
X76753955Y-117354700D01*
X75560800Y-117354700D01*
X75560800Y-117374700D01*
X75306800Y-117374700D01*
X75306800Y-117354700D01*
X74113645Y-117354700D01*
X73992324Y-117584590D01*
X74036975Y-117731799D01*
X74162159Y-117994620D01*
X74336212Y-118227969D01*
X74552445Y-118422878D01*
X74669334Y-118492505D01*
X74487168Y-118614225D01*
X74280325Y-118821068D01*
X74205735Y-118932700D01*
X69162410Y-118932700D01*
X66709264Y-116479554D01*
X66680397Y-116334431D01*
X66602376Y-116146073D01*
X66489108Y-115976555D01*
X66344945Y-115832392D01*
X66175427Y-115719124D01*
X65987069Y-115641103D01*
X65787110Y-115601329D01*
X65583232Y-115601329D01*
X65383273Y-115641103D01*
X65194915Y-115719124D01*
X65118270Y-115770337D01*
X65048952Y-115724020D01*
X64860594Y-115645999D01*
X64660635Y-115606225D01*
X64456757Y-115606225D01*
X64256798Y-115645999D01*
X64068440Y-115724020D01*
X63998706Y-115770614D01*
X63868637Y-115683705D01*
X63680279Y-115605684D01*
X63480320Y-115565910D01*
X63276442Y-115565910D01*
X63076483Y-115605684D01*
X62888125Y-115683705D01*
X62772599Y-115760897D01*
X62655698Y-115712474D01*
X62455739Y-115672700D01*
X62251861Y-115672700D01*
X62051902Y-115712474D01*
X61863544Y-115790495D01*
X61694026Y-115903763D01*
X61638800Y-115958989D01*
X61623574Y-115943763D01*
X61454056Y-115830495D01*
X61265698Y-115752474D01*
X61065739Y-115712700D01*
X60861861Y-115712700D01*
X60661902Y-115752474D01*
X60473544Y-115830495D01*
X60304026Y-115943763D01*
X60159863Y-116087926D01*
X60046595Y-116257444D01*
X59968574Y-116445802D01*
X59939708Y-116590924D01*
X59413733Y-117116899D01*
X59407737Y-117107926D01*
X59263574Y-116963763D01*
X59094056Y-116850495D01*
X58905698Y-116772474D01*
X58818800Y-116755189D01*
X58818800Y-116595761D01*
X58779026Y-116395802D01*
X58701005Y-116207444D01*
X58587737Y-116037926D01*
X58443574Y-115893763D01*
X58274056Y-115780495D01*
X58085698Y-115702474D01*
X57885739Y-115662700D01*
X57759667Y-115662700D01*
X59099669Y-114322699D01*
X64348800Y-114322699D01*
X64348800Y-114389639D01*
X64388574Y-114589598D01*
X64466595Y-114777956D01*
X64579863Y-114947474D01*
X64724026Y-115091637D01*
X64893544Y-115204905D01*
X65081902Y-115282926D01*
X65228366Y-115312059D01*
X65317654Y-115385336D01*
X65462713Y-115462872D01*
X65620111Y-115510618D01*
X65742781Y-115522700D01*
X65742791Y-115522700D01*
X65783799Y-115526739D01*
X65824807Y-115522700D01*
X74205735Y-115522700D01*
X74280325Y-115634332D01*
X74487168Y-115841175D01*
X74669334Y-115962895D01*
X74552445Y-116032522D01*
X74336212Y-116227431D01*
X74162159Y-116460780D01*
X74036975Y-116723601D01*
X73992324Y-116870810D01*
X74113645Y-117100700D01*
X75306800Y-117100700D01*
X75306800Y-117080700D01*
X75560800Y-117080700D01*
X75560800Y-117100700D01*
X76753955Y-117100700D01*
X76875276Y-116870810D01*
X76830625Y-116723601D01*
X76705441Y-116460780D01*
X76531388Y-116227431D01*
X76315155Y-116032522D01*
X76198266Y-115962895D01*
X76380432Y-115841175D01*
X76587275Y-115634332D01*
X76749790Y-115391111D01*
X76861732Y-115120858D01*
X76918800Y-114833960D01*
X76918800Y-114541440D01*
X76861732Y-114254542D01*
X76749790Y-113984289D01*
X76587275Y-113741068D01*
X76380432Y-113534225D01*
X76206040Y-113417700D01*
X76380432Y-113301175D01*
X76587275Y-113094332D01*
X76749790Y-112851111D01*
X76861732Y-112580858D01*
X76918800Y-112293960D01*
X76918800Y-112001440D01*
X76861732Y-111714542D01*
X76749790Y-111444289D01*
X76587275Y-111201068D01*
X76380432Y-110994225D01*
X76198266Y-110872505D01*
X76315155Y-110802878D01*
X76531388Y-110607969D01*
X76705441Y-110374620D01*
X76758487Y-110263252D01*
X79548790Y-113053556D01*
X79548791Y-127666661D01*
X79544750Y-127707690D01*
X79560872Y-127871378D01*
X79608618Y-128028776D01*
X79684698Y-128171111D01*
X79686155Y-128173836D01*
X79790500Y-128300981D01*
X79822364Y-128327131D01*
X82684993Y-131189761D01*
X82658800Y-131321440D01*
X82658800Y-131613960D01*
X82715868Y-131900858D01*
X82827810Y-132171111D01*
X82990325Y-132414332D01*
X83197168Y-132621175D01*
X83371560Y-132737700D01*
X83197168Y-132854225D01*
X82990325Y-133061068D01*
X82827810Y-133304289D01*
X82715868Y-133574542D01*
X82658800Y-133861440D01*
X82658800Y-134153960D01*
X82715868Y-134440858D01*
X82827810Y-134711111D01*
X82990325Y-134954332D01*
X83197168Y-135161175D01*
X83371560Y-135277700D01*
X83197168Y-135394225D01*
X82990325Y-135601068D01*
X82915735Y-135712700D01*
X76748728Y-135712700D01*
X76749790Y-135711111D01*
X76861732Y-135440858D01*
X76918800Y-135153960D01*
X76918800Y-134861440D01*
X76861732Y-134574542D01*
X76749790Y-134304289D01*
X76587275Y-134061068D01*
X76380432Y-133854225D01*
X76206040Y-133737700D01*
X76380432Y-133621175D01*
X76587275Y-133414332D01*
X76749790Y-133171111D01*
X76861732Y-132900858D01*
X76918800Y-132613960D01*
X76918800Y-132321440D01*
X76861732Y-132034542D01*
X76749790Y-131764289D01*
X76587275Y-131521068D01*
X76380432Y-131314225D01*
X76198266Y-131192505D01*
X76315155Y-131122878D01*
X76531388Y-130927969D01*
X76705441Y-130694620D01*
X76830625Y-130431799D01*
X76875276Y-130284590D01*
X76753955Y-130054700D01*
X75560800Y-130054700D01*
X75560800Y-130074700D01*
X75306800Y-130074700D01*
X75306800Y-130054700D01*
X74113645Y-130054700D01*
X73992324Y-130284590D01*
X74036975Y-130431799D01*
X74162159Y-130694620D01*
X74336212Y-130927969D01*
X74552445Y-131122878D01*
X74669334Y-131192505D01*
X74487168Y-131314225D01*
X74280325Y-131521068D01*
X74117810Y-131764289D01*
X74005868Y-132034542D01*
X73948800Y-132321440D01*
X73948800Y-132613960D01*
X74005868Y-132900858D01*
X74117810Y-133171111D01*
X74280325Y-133414332D01*
X74487168Y-133621175D01*
X74661560Y-133737700D01*
X74487168Y-133854225D01*
X74280325Y-134061068D01*
X74117810Y-134304289D01*
X74005868Y-134574542D01*
X73948800Y-134861440D01*
X73948800Y-135153960D01*
X74005868Y-135440858D01*
X74014915Y-135462699D01*
X72349667Y-135462699D01*
X62357893Y-125470926D01*
X62329026Y-125325802D01*
X62251005Y-125137444D01*
X62137737Y-124967926D01*
X61993574Y-124823763D01*
X61824056Y-124710495D01*
X61635698Y-124632474D01*
X61435739Y-124592700D01*
X61231861Y-124592700D01*
X61031902Y-124632474D01*
X60843544Y-124710495D01*
X60674026Y-124823763D01*
X60529863Y-124967926D01*
X60416595Y-125137444D01*
X60338574Y-125325802D01*
X60298800Y-125525761D01*
X60298800Y-125729639D01*
X60338574Y-125929598D01*
X60416595Y-126117956D01*
X60529863Y-126287474D01*
X60674026Y-126431637D01*
X60843544Y-126544905D01*
X61031902Y-126622926D01*
X61177026Y-126651793D01*
X71384358Y-136859126D01*
X71410508Y-136890990D01*
X71537653Y-136995335D01*
X71682712Y-137072871D01*
X71840110Y-137120617D01*
X71962780Y-137132699D01*
X71962790Y-137132699D01*
X72003798Y-137136738D01*
X72044806Y-137132699D01*
X74009950Y-137132699D01*
X73992324Y-137190810D01*
X74113645Y-137420700D01*
X75306800Y-137420700D01*
X75306800Y-137400700D01*
X75560800Y-137400700D01*
X75560800Y-137420700D01*
X76753955Y-137420700D01*
X76774009Y-137382700D01*
X82915735Y-137382700D01*
X82990325Y-137494332D01*
X83197168Y-137701175D01*
X83371560Y-137817700D01*
X83197168Y-137934225D01*
X82990325Y-138141068D01*
X82827810Y-138384289D01*
X82715868Y-138654542D01*
X82658800Y-138941440D01*
X82658800Y-139233960D01*
X82715868Y-139520858D01*
X82827810Y-139791111D01*
X82990325Y-140034332D01*
X83197168Y-140241175D01*
X83371560Y-140357700D01*
X83197168Y-140474225D01*
X82990325Y-140681068D01*
X82827810Y-140924289D01*
X82715868Y-141194542D01*
X82658800Y-141481440D01*
X82658800Y-141773960D01*
X82715868Y-142060858D01*
X82827810Y-142331111D01*
X82990325Y-142574332D01*
X83197168Y-142781175D01*
X83440389Y-142943690D01*
X83710642Y-143055632D01*
X83997540Y-143112700D01*
X84290060Y-143112700D01*
X84576958Y-143055632D01*
X84847211Y-142943690D01*
X85090432Y-142781175D01*
X85297275Y-142574332D01*
X85459790Y-142331111D01*
X85571732Y-142060858D01*
X85628800Y-141773960D01*
X85628800Y-141481440D01*
X85571732Y-141194542D01*
X85459790Y-140924289D01*
X85361843Y-140777700D01*
X95355728Y-140777700D01*
X95355728Y-142477700D01*
X95367988Y-142602182D01*
X95404298Y-142721880D01*
X95463263Y-142832194D01*
X95542615Y-142928885D01*
X95639306Y-143008237D01*
X95749620Y-143067202D01*
X95869318Y-143103512D01*
X95993800Y-143115772D01*
X97693800Y-143115772D01*
X97818282Y-143103512D01*
X97937980Y-143067202D01*
X98048294Y-143008237D01*
X98144985Y-142928885D01*
X98224337Y-142832194D01*
X98283302Y-142721880D01*
X98319612Y-142602182D01*
X98331872Y-142477700D01*
X98331872Y-140777700D01*
X98319612Y-140653218D01*
X98283302Y-140533520D01*
X98224337Y-140423206D01*
X98144985Y-140326515D01*
X98048294Y-140247163D01*
X97937980Y-140188198D01*
X97865420Y-140166187D01*
X97997275Y-140034332D01*
X98159790Y-139791111D01*
X98271732Y-139520858D01*
X98328800Y-139233960D01*
X98328800Y-138941440D01*
X98271732Y-138654542D01*
X98159790Y-138384289D01*
X97997275Y-138141068D01*
X97790432Y-137934225D01*
X97608266Y-137812505D01*
X97725155Y-137742878D01*
X97941388Y-137547969D01*
X98115441Y-137314620D01*
X98240625Y-137051799D01*
X98285276Y-136904590D01*
X98163955Y-136674700D01*
X96970800Y-136674700D01*
X96970800Y-136694700D01*
X96716800Y-136694700D01*
X96716800Y-136674700D01*
X95523645Y-136674700D01*
X95402324Y-136904590D01*
X95446975Y-137051799D01*
X95572159Y-137314620D01*
X95746212Y-137547969D01*
X95962445Y-137742878D01*
X96079334Y-137812505D01*
X95897168Y-137934225D01*
X95690325Y-138141068D01*
X95527810Y-138384289D01*
X95415868Y-138654542D01*
X95358800Y-138941440D01*
X95358800Y-139233960D01*
X95415868Y-139520858D01*
X95527810Y-139791111D01*
X95690325Y-140034332D01*
X95822180Y-140166187D01*
X95749620Y-140188198D01*
X95639306Y-140247163D01*
X95542615Y-140326515D01*
X95463263Y-140423206D01*
X95404298Y-140533520D01*
X95367988Y-140653218D01*
X95355728Y-140777700D01*
X85361843Y-140777700D01*
X85297275Y-140681068D01*
X85090432Y-140474225D01*
X84916040Y-140357700D01*
X85090432Y-140241175D01*
X85297275Y-140034332D01*
X85459790Y-139791111D01*
X85571732Y-139520858D01*
X85628800Y-139233960D01*
X85628800Y-138941440D01*
X85571732Y-138654542D01*
X85459790Y-138384289D01*
X85297275Y-138141068D01*
X85090432Y-137934225D01*
X84916040Y-137817700D01*
X85090432Y-137701175D01*
X85297275Y-137494332D01*
X85459790Y-137251111D01*
X85571732Y-136980858D01*
X85628800Y-136693960D01*
X85628800Y-136401440D01*
X85571732Y-136114542D01*
X85459790Y-135844289D01*
X85297275Y-135601068D01*
X85090432Y-135394225D01*
X84916040Y-135277700D01*
X85090432Y-135161175D01*
X85297275Y-134954332D01*
X85459790Y-134711111D01*
X85571732Y-134440858D01*
X85628800Y-134153960D01*
X85628800Y-133861440D01*
X85571732Y-133574542D01*
X85459790Y-133304289D01*
X85297275Y-133061068D01*
X85090432Y-132854225D01*
X84916040Y-132737700D01*
X85090432Y-132621175D01*
X85297275Y-132414332D01*
X85459790Y-132171111D01*
X85571732Y-131900858D01*
X85628800Y-131613960D01*
X85628800Y-131321440D01*
X85571732Y-131034542D01*
X85459790Y-130764289D01*
X85297275Y-130521068D01*
X85090432Y-130314225D01*
X84916040Y-130197700D01*
X85090432Y-130081175D01*
X85297275Y-129874332D01*
X85459790Y-129631111D01*
X85571732Y-129360858D01*
X85628800Y-129073960D01*
X85628800Y-128781440D01*
X85571732Y-128494542D01*
X85459790Y-128224289D01*
X85297275Y-127981068D01*
X85090432Y-127774225D01*
X84916040Y-127657700D01*
X85090432Y-127541175D01*
X85297275Y-127334332D01*
X85459790Y-127091111D01*
X85571732Y-126820858D01*
X85628800Y-126533960D01*
X85628800Y-126241440D01*
X85571732Y-125954542D01*
X85459790Y-125684289D01*
X85297275Y-125441068D01*
X85090432Y-125234225D01*
X84916040Y-125117700D01*
X85090432Y-125001175D01*
X85297275Y-124794332D01*
X85459790Y-124551111D01*
X85571732Y-124280858D01*
X85628800Y-123993960D01*
X85628800Y-123701440D01*
X95358800Y-123701440D01*
X95358800Y-123993960D01*
X95415868Y-124280858D01*
X95527810Y-124551111D01*
X95690325Y-124794332D01*
X95897168Y-125001175D01*
X96071560Y-125117700D01*
X95897168Y-125234225D01*
X95690325Y-125441068D01*
X95527810Y-125684289D01*
X95415868Y-125954542D01*
X95358800Y-126241440D01*
X95358800Y-126533960D01*
X95415868Y-126820858D01*
X95527810Y-127091111D01*
X95690325Y-127334332D01*
X95897168Y-127541175D01*
X96071560Y-127657700D01*
X95897168Y-127774225D01*
X95690325Y-127981068D01*
X95527810Y-128224289D01*
X95415868Y-128494542D01*
X95358800Y-128781440D01*
X95358800Y-129073960D01*
X95415868Y-129360858D01*
X95527810Y-129631111D01*
X95690325Y-129874332D01*
X95897168Y-130081175D01*
X96071560Y-130197700D01*
X95897168Y-130314225D01*
X95690325Y-130521068D01*
X95527810Y-130764289D01*
X95415868Y-131034542D01*
X95358800Y-131321440D01*
X95358800Y-131613960D01*
X95415868Y-131900858D01*
X95527810Y-132171111D01*
X95690325Y-132414332D01*
X95897168Y-132621175D01*
X96071560Y-132737700D01*
X95897168Y-132854225D01*
X95690325Y-133061068D01*
X95527810Y-133304289D01*
X95415868Y-133574542D01*
X95358800Y-133861440D01*
X95358800Y-134153960D01*
X95415868Y-134440858D01*
X95527810Y-134711111D01*
X95690325Y-134954332D01*
X95897168Y-135161175D01*
X96079334Y-135282895D01*
X95962445Y-135352522D01*
X95746212Y-135547431D01*
X95572159Y-135780780D01*
X95446975Y-136043601D01*
X95402324Y-136190810D01*
X95523645Y-136420700D01*
X96716800Y-136420700D01*
X96716800Y-136400700D01*
X96970800Y-136400700D01*
X96970800Y-136420700D01*
X98163955Y-136420700D01*
X98285276Y-136190810D01*
X98240625Y-136043601D01*
X98115441Y-135780780D01*
X97941388Y-135547431D01*
X97725155Y-135352522D01*
X97608266Y-135282895D01*
X97790432Y-135161175D01*
X97997275Y-134954332D01*
X98159790Y-134711111D01*
X98271732Y-134440858D01*
X98328800Y-134153960D01*
X98328800Y-133861440D01*
X98271732Y-133574542D01*
X98159790Y-133304289D01*
X97997275Y-133061068D01*
X97790432Y-132854225D01*
X97616040Y-132737700D01*
X97790432Y-132621175D01*
X97997275Y-132414332D01*
X98159790Y-132171111D01*
X98271732Y-131900858D01*
X98328800Y-131613960D01*
X98328800Y-131321440D01*
X98271732Y-131034542D01*
X98159790Y-130764289D01*
X97997275Y-130521068D01*
X97790432Y-130314225D01*
X97616040Y-130197700D01*
X97790432Y-130081175D01*
X97997275Y-129874332D01*
X98159790Y-129631111D01*
X98271732Y-129360858D01*
X98328800Y-129073960D01*
X98328800Y-128781440D01*
X98271732Y-128494542D01*
X98159790Y-128224289D01*
X97997275Y-127981068D01*
X97790432Y-127774225D01*
X97616040Y-127657700D01*
X97790432Y-127541175D01*
X97997275Y-127334332D01*
X98159790Y-127091111D01*
X98271732Y-126820858D01*
X98328800Y-126533960D01*
X98328800Y-126241440D01*
X98271732Y-125954542D01*
X98159790Y-125684289D01*
X97997275Y-125441068D01*
X97790432Y-125234225D01*
X97616040Y-125117700D01*
X97790432Y-125001175D01*
X97997275Y-124794332D01*
X98159790Y-124551111D01*
X98271732Y-124280858D01*
X98328800Y-123993960D01*
X98328800Y-123701440D01*
X98271732Y-123414542D01*
X98159790Y-123144289D01*
X97997275Y-122901068D01*
X97790432Y-122694225D01*
X97547211Y-122531710D01*
X97276958Y-122419768D01*
X96990060Y-122362700D01*
X96697540Y-122362700D01*
X96410642Y-122419768D01*
X96140389Y-122531710D01*
X95897168Y-122694225D01*
X95690325Y-122901068D01*
X95527810Y-123144289D01*
X95415868Y-123414542D01*
X95358800Y-123701440D01*
X85628800Y-123701440D01*
X85571732Y-123414542D01*
X85459790Y-123144289D01*
X85297275Y-122901068D01*
X85090432Y-122694225D01*
X84847211Y-122531710D01*
X84576958Y-122419768D01*
X84290060Y-122362700D01*
X83997540Y-122362700D01*
X83710642Y-122419768D01*
X83440389Y-122531710D01*
X83197168Y-122694225D01*
X82990325Y-122901068D01*
X82827810Y-123144289D01*
X82715868Y-123414542D01*
X82658800Y-123701440D01*
X82658800Y-123993960D01*
X82715868Y-124280858D01*
X82827810Y-124551111D01*
X82990325Y-124794332D01*
X83197168Y-125001175D01*
X83371560Y-125117700D01*
X83197168Y-125234225D01*
X82990325Y-125441068D01*
X82827810Y-125684289D01*
X82715868Y-125954542D01*
X82658800Y-126241440D01*
X82658800Y-126261832D01*
X81818800Y-125421833D01*
X81818800Y-110808705D01*
X81822839Y-110767697D01*
X81818800Y-110726689D01*
X81818800Y-110726679D01*
X81806718Y-110604009D01*
X81758972Y-110446611D01*
X81681436Y-110301552D01*
X81577091Y-110174407D01*
X81545228Y-110148258D01*
X76701040Y-105304071D01*
X76749790Y-105231111D01*
X76861732Y-104960858D01*
X76918800Y-104673960D01*
X76918800Y-104524590D01*
X110402324Y-104524590D01*
X110446975Y-104671799D01*
X110572159Y-104934620D01*
X110746212Y-105167969D01*
X110962445Y-105362878D01*
X111212548Y-105511857D01*
X111486909Y-105609181D01*
X111716800Y-105488514D01*
X111716800Y-104294700D01*
X111970800Y-104294700D01*
X111970800Y-105488514D01*
X112200691Y-105609181D01*
X112475052Y-105511857D01*
X112725155Y-105362878D01*
X112941388Y-105167969D01*
X113115441Y-104934620D01*
X113240625Y-104671799D01*
X113285276Y-104524590D01*
X113163955Y-104294700D01*
X111970800Y-104294700D01*
X111716800Y-104294700D01*
X110523645Y-104294700D01*
X110402324Y-104524590D01*
X76918800Y-104524590D01*
X76918800Y-104381440D01*
X76861732Y-104094542D01*
X76749790Y-103824289D01*
X76587275Y-103581068D01*
X76455420Y-103449213D01*
X76527980Y-103427202D01*
X76638294Y-103368237D01*
X76734985Y-103288885D01*
X76814337Y-103192194D01*
X76873302Y-103081880D01*
X76909612Y-102962182D01*
X76921872Y-102837700D01*
X76918800Y-102273450D01*
X76760050Y-102114700D01*
X75560800Y-102114700D01*
X75560800Y-102134700D01*
X75306800Y-102134700D01*
X75306800Y-102114700D01*
X74107550Y-102114700D01*
X73948800Y-102273450D01*
X73945728Y-102837700D01*
X73957988Y-102962182D01*
X73994298Y-103081880D01*
X74053263Y-103192194D01*
X74132615Y-103288885D01*
X74229306Y-103368237D01*
X74339620Y-103427202D01*
X74412180Y-103449213D01*
X74280325Y-103581068D01*
X74117810Y-103824289D01*
X74005868Y-104094542D01*
X73948800Y-104381440D01*
X73948800Y-104673960D01*
X74005868Y-104960858D01*
X74117810Y-105231111D01*
X74280325Y-105474332D01*
X74487168Y-105681175D01*
X74661560Y-105797700D01*
X74487168Y-105914225D01*
X74280325Y-106121068D01*
X74117810Y-106364289D01*
X74005868Y-106634542D01*
X73948800Y-106921440D01*
X73948800Y-107213960D01*
X74005868Y-107500858D01*
X74117810Y-107771111D01*
X74280325Y-108014332D01*
X74487168Y-108221175D01*
X74669334Y-108342895D01*
X74552445Y-108412522D01*
X74336212Y-108607431D01*
X74162159Y-108840780D01*
X74036975Y-109103601D01*
X73992324Y-109250810D01*
X74113645Y-109480700D01*
X75306800Y-109480700D01*
X75306800Y-109460700D01*
X75560800Y-109460700D01*
X75560800Y-109480700D01*
X75580800Y-109480700D01*
X75580800Y-109734700D01*
X75560800Y-109734700D01*
X75560800Y-109754700D01*
X75306800Y-109754700D01*
X75306800Y-109734700D01*
X74113645Y-109734700D01*
X73992324Y-109964590D01*
X74036975Y-110111799D01*
X74162159Y-110374620D01*
X74336212Y-110607969D01*
X74552445Y-110802878D01*
X74669334Y-110872505D01*
X74487168Y-110994225D01*
X74280325Y-111201068D01*
X74205735Y-111312700D01*
X68064818Y-111312700D01*
X68023800Y-111308660D01*
X67982782Y-111312700D01*
X67982781Y-111312700D01*
X67860111Y-111324782D01*
X67702713Y-111372528D01*
X67557654Y-111450064D01*
X67430509Y-111554409D01*
X67404363Y-111586268D01*
X66298303Y-112692329D01*
X66207488Y-112664781D01*
X66084818Y-112652699D01*
X66084817Y-112652699D01*
X66043799Y-112648659D01*
X66002781Y-112652699D01*
X58720817Y-112652699D01*
X58679799Y-112648659D01*
X58638780Y-112652699D01*
X58516110Y-112664781D01*
X58358712Y-112712527D01*
X58213653Y-112790063D01*
X58086508Y-112894408D01*
X57982163Y-113021553D01*
X57916807Y-113143825D01*
X55925927Y-115134706D01*
X55803653Y-115200063D01*
X55676508Y-115304408D01*
X55650362Y-115336267D01*
X50588680Y-120397951D01*
X50413544Y-120470495D01*
X50244026Y-120583763D01*
X50099863Y-120727926D01*
X49986595Y-120897444D01*
X49908574Y-121085802D01*
X49868800Y-121285761D01*
X49868800Y-121489639D01*
X49881344Y-121552700D01*
X43341865Y-121552700D01*
X43267275Y-121441068D01*
X43060432Y-121234225D01*
X42878266Y-121112505D01*
X42995155Y-121042878D01*
X43211388Y-120847969D01*
X43385441Y-120614620D01*
X43510625Y-120351799D01*
X43555276Y-120204590D01*
X43433955Y-119974700D01*
X42240800Y-119974700D01*
X42240800Y-119994700D01*
X41986800Y-119994700D01*
X41986800Y-119974700D01*
X40793645Y-119974700D01*
X40672324Y-120204590D01*
X40716975Y-120351799D01*
X40842159Y-120614620D01*
X41016212Y-120847969D01*
X41232445Y-121042878D01*
X41349334Y-121112505D01*
X41167168Y-121234225D01*
X40960325Y-121441068D01*
X40797810Y-121684289D01*
X40685868Y-121954542D01*
X40628800Y-122241440D01*
X35453800Y-122241440D01*
X35453800Y-117161440D01*
X40628800Y-117161440D01*
X40628800Y-117453960D01*
X40685868Y-117740858D01*
X40797810Y-118011111D01*
X40960325Y-118254332D01*
X41167168Y-118461175D01*
X41349334Y-118582895D01*
X41232445Y-118652522D01*
X41016212Y-118847431D01*
X40842159Y-119080780D01*
X40716975Y-119343601D01*
X40672324Y-119490810D01*
X40793645Y-119720700D01*
X41986800Y-119720700D01*
X41986800Y-119700700D01*
X42240800Y-119700700D01*
X42240800Y-119720700D01*
X43433955Y-119720700D01*
X43555276Y-119490810D01*
X43510625Y-119343601D01*
X43385441Y-119080780D01*
X43211388Y-118847431D01*
X42995155Y-118652522D01*
X42878266Y-118582895D01*
X43060432Y-118461175D01*
X43267275Y-118254332D01*
X43429790Y-118011111D01*
X43541732Y-117740858D01*
X43598800Y-117453960D01*
X43598800Y-117161440D01*
X43541732Y-116874542D01*
X43429790Y-116604289D01*
X43267275Y-116361068D01*
X43060432Y-116154225D01*
X42878266Y-116032505D01*
X42995155Y-115962878D01*
X43211388Y-115767969D01*
X43385441Y-115534620D01*
X43510625Y-115271799D01*
X43555276Y-115124590D01*
X43433955Y-114894700D01*
X42240800Y-114894700D01*
X42240800Y-114914700D01*
X41986800Y-114914700D01*
X41986800Y-114894700D01*
X40793645Y-114894700D01*
X40672324Y-115124590D01*
X40716975Y-115271799D01*
X40842159Y-115534620D01*
X41016212Y-115767969D01*
X41232445Y-115962878D01*
X41349334Y-116032505D01*
X41167168Y-116154225D01*
X40960325Y-116361068D01*
X40797810Y-116604289D01*
X40685868Y-116874542D01*
X40628800Y-117161440D01*
X35453800Y-117161440D01*
X35453800Y-102917700D01*
X40625728Y-102917700D01*
X40637988Y-103042182D01*
X40674298Y-103161880D01*
X40733263Y-103272194D01*
X40812615Y-103368885D01*
X40909306Y-103448237D01*
X41019620Y-103507202D01*
X41092180Y-103529213D01*
X40960325Y-103661068D01*
X40797810Y-103904289D01*
X40685868Y-104174542D01*
X40628800Y-104461440D01*
X40628800Y-104753960D01*
X40685868Y-105040858D01*
X40797810Y-105311111D01*
X40960325Y-105554332D01*
X41167168Y-105761175D01*
X41341560Y-105877700D01*
X41167168Y-105994225D01*
X40960325Y-106201068D01*
X40797810Y-106444289D01*
X40685868Y-106714542D01*
X40628800Y-107001440D01*
X40628800Y-107293960D01*
X40685868Y-107580858D01*
X40797810Y-107851111D01*
X40960325Y-108094332D01*
X41167168Y-108301175D01*
X41341560Y-108417700D01*
X41167168Y-108534225D01*
X40960325Y-108741068D01*
X40797810Y-108984289D01*
X40685868Y-109254542D01*
X40628800Y-109541440D01*
X40628800Y-109833960D01*
X40685868Y-110120858D01*
X40797810Y-110391111D01*
X40960325Y-110634332D01*
X41167168Y-110841175D01*
X41341560Y-110957700D01*
X41167168Y-111074225D01*
X40960325Y-111281068D01*
X40797810Y-111524289D01*
X40685868Y-111794542D01*
X40628800Y-112081440D01*
X40628800Y-112373960D01*
X40685868Y-112660858D01*
X40797810Y-112931111D01*
X40960325Y-113174332D01*
X41167168Y-113381175D01*
X41349334Y-113502895D01*
X41232445Y-113572522D01*
X41016212Y-113767431D01*
X40842159Y-114000780D01*
X40716975Y-114263601D01*
X40672324Y-114410810D01*
X40793645Y-114640700D01*
X41986800Y-114640700D01*
X41986800Y-114620700D01*
X42240800Y-114620700D01*
X42240800Y-114640700D01*
X43433955Y-114640700D01*
X43555276Y-114410810D01*
X43510625Y-114263601D01*
X43385441Y-114000780D01*
X43211388Y-113767431D01*
X42995155Y-113572522D01*
X42878266Y-113502895D01*
X43060432Y-113381175D01*
X43267275Y-113174332D01*
X43341865Y-113062700D01*
X52112782Y-113062700D01*
X52153800Y-113066740D01*
X52194818Y-113062700D01*
X52194819Y-113062700D01*
X52317489Y-113050618D01*
X52474887Y-113002872D01*
X52619946Y-112925336D01*
X52747091Y-112820991D01*
X52773246Y-112789121D01*
X53920576Y-111641792D01*
X54065698Y-111612926D01*
X54254056Y-111534905D01*
X54423574Y-111421637D01*
X54567737Y-111277474D01*
X54681005Y-111107956D01*
X54759026Y-110919598D01*
X54772333Y-110852700D01*
X54825739Y-110852700D01*
X55025698Y-110812926D01*
X55214056Y-110734905D01*
X55383574Y-110621637D01*
X55527737Y-110477474D01*
X55641005Y-110307956D01*
X55719026Y-110119598D01*
X55758800Y-109919639D01*
X55758800Y-109715761D01*
X55719026Y-109515802D01*
X55641005Y-109327444D01*
X55527737Y-109157926D01*
X55383574Y-109013763D01*
X55214056Y-108900495D01*
X55025698Y-108822474D01*
X54825739Y-108782700D01*
X54621861Y-108782700D01*
X54421902Y-108822474D01*
X54233544Y-108900495D01*
X54110515Y-108982700D01*
X43428728Y-108982700D01*
X43267275Y-108741068D01*
X43060432Y-108534225D01*
X42886040Y-108417700D01*
X43060432Y-108301175D01*
X43267275Y-108094332D01*
X43429790Y-107851111D01*
X43541732Y-107580858D01*
X43598800Y-107293960D01*
X43598800Y-107001440D01*
X43541732Y-106714542D01*
X43429790Y-106444289D01*
X43267275Y-106201068D01*
X43060432Y-105994225D01*
X42886040Y-105877700D01*
X43060432Y-105761175D01*
X43267275Y-105554332D01*
X43429790Y-105311111D01*
X43541732Y-105040858D01*
X43598800Y-104753960D01*
X43598800Y-104461440D01*
X43541732Y-104174542D01*
X43429790Y-103904289D01*
X43267275Y-103661068D01*
X43135420Y-103529213D01*
X43207980Y-103507202D01*
X43318294Y-103448237D01*
X43414985Y-103368885D01*
X43494337Y-103272194D01*
X43553302Y-103161880D01*
X43589612Y-103042182D01*
X43601872Y-102917700D01*
X43598800Y-102353450D01*
X43440050Y-102194700D01*
X42240800Y-102194700D01*
X42240800Y-102214700D01*
X41986800Y-102214700D01*
X41986800Y-102194700D01*
X40787550Y-102194700D01*
X40628800Y-102353450D01*
X40625728Y-102917700D01*
X35453800Y-102917700D01*
X35453800Y-101217700D01*
X40625728Y-101217700D01*
X40628800Y-101781950D01*
X40787550Y-101940700D01*
X41986800Y-101940700D01*
X41986800Y-100741450D01*
X42240800Y-100741450D01*
X42240800Y-101940700D01*
X43440050Y-101940700D01*
X43598800Y-101781950D01*
X43601872Y-101217700D01*
X43593993Y-101137700D01*
X73945728Y-101137700D01*
X73948800Y-101701950D01*
X74107550Y-101860700D01*
X75306800Y-101860700D01*
X75306800Y-100661450D01*
X75560800Y-100661450D01*
X75560800Y-101860700D01*
X76760050Y-101860700D01*
X76918800Y-101701950D01*
X76921872Y-101137700D01*
X76909612Y-101013218D01*
X76873302Y-100893520D01*
X76814337Y-100783206D01*
X76809819Y-100777700D01*
X110355728Y-100777700D01*
X110355728Y-102477700D01*
X110367988Y-102602182D01*
X110404298Y-102721880D01*
X110463263Y-102832194D01*
X110542615Y-102928885D01*
X110639306Y-103008237D01*
X110749620Y-103067202D01*
X110830266Y-103091666D01*
X110746212Y-103167431D01*
X110572159Y-103400780D01*
X110446975Y-103663601D01*
X110402324Y-103810810D01*
X110523645Y-104040700D01*
X111716800Y-104040700D01*
X111716800Y-104020700D01*
X111970800Y-104020700D01*
X111970800Y-104040700D01*
X113163955Y-104040700D01*
X113285276Y-103810810D01*
X113240625Y-103663601D01*
X113115441Y-103400780D01*
X112941388Y-103167431D01*
X112857334Y-103091666D01*
X112937980Y-103067202D01*
X113048294Y-103008237D01*
X113144985Y-102928885D01*
X113224337Y-102832194D01*
X113283302Y-102721880D01*
X113319612Y-102602182D01*
X113331872Y-102477700D01*
X113331872Y-100777700D01*
X113319612Y-100653218D01*
X113283302Y-100533520D01*
X113224337Y-100423206D01*
X113144985Y-100326515D01*
X113048294Y-100247163D01*
X112937980Y-100188198D01*
X112818282Y-100151888D01*
X112693800Y-100139628D01*
X110993800Y-100139628D01*
X110869318Y-100151888D01*
X110749620Y-100188198D01*
X110639306Y-100247163D01*
X110542615Y-100326515D01*
X110463263Y-100423206D01*
X110404298Y-100533520D01*
X110367988Y-100653218D01*
X110355728Y-100777700D01*
X76809819Y-100777700D01*
X76734985Y-100686515D01*
X76638294Y-100607163D01*
X76527980Y-100548198D01*
X76408282Y-100511888D01*
X76283800Y-100499628D01*
X75719550Y-100502700D01*
X75560800Y-100661450D01*
X75306800Y-100661450D01*
X75148050Y-100502700D01*
X74583800Y-100499628D01*
X74459318Y-100511888D01*
X74339620Y-100548198D01*
X74229306Y-100607163D01*
X74132615Y-100686515D01*
X74053263Y-100783206D01*
X73994298Y-100893520D01*
X73957988Y-101013218D01*
X73945728Y-101137700D01*
X43593993Y-101137700D01*
X43589612Y-101093218D01*
X43553302Y-100973520D01*
X43494337Y-100863206D01*
X43414985Y-100766515D01*
X43318294Y-100687163D01*
X43207980Y-100628198D01*
X43088282Y-100591888D01*
X42963800Y-100579628D01*
X42399550Y-100582700D01*
X42240800Y-100741450D01*
X41986800Y-100741450D01*
X41828050Y-100582700D01*
X41263800Y-100579628D01*
X41139318Y-100591888D01*
X41019620Y-100628198D01*
X40909306Y-100687163D01*
X40812615Y-100766515D01*
X40733263Y-100863206D01*
X40674298Y-100973520D01*
X40637988Y-101093218D01*
X40625728Y-101217700D01*
X35453800Y-101217700D01*
X35453800Y-98837700D01*
X114143800Y-98837700D01*
X114143801Y-144507700D01*
G04 #@! TA.AperFunction,Conductor*
D15*
G36*
X114143801Y-144507700D02*
G01*
X35453800Y-144507700D01*
X35453800Y-140524590D01*
X40672324Y-140524590D01*
X40716975Y-140671799D01*
X40842159Y-140934620D01*
X41016212Y-141167969D01*
X41232445Y-141362878D01*
X41482548Y-141511857D01*
X41756909Y-141609181D01*
X41986800Y-141488514D01*
X41986800Y-140294700D01*
X42240800Y-140294700D01*
X42240800Y-141488514D01*
X42470691Y-141609181D01*
X42745052Y-141511857D01*
X42995155Y-141362878D01*
X43211388Y-141167969D01*
X43385441Y-140934620D01*
X43510625Y-140671799D01*
X43555276Y-140524590D01*
X43513058Y-140444590D01*
X73992324Y-140444590D01*
X74036975Y-140591799D01*
X74162159Y-140854620D01*
X74336212Y-141087969D01*
X74552445Y-141282878D01*
X74802548Y-141431857D01*
X75076909Y-141529181D01*
X75306800Y-141408514D01*
X75306800Y-140214700D01*
X75560800Y-140214700D01*
X75560800Y-141408514D01*
X75790691Y-141529181D01*
X76065052Y-141431857D01*
X76315155Y-141282878D01*
X76531388Y-141087969D01*
X76705441Y-140854620D01*
X76830625Y-140591799D01*
X76875276Y-140444590D01*
X76753955Y-140214700D01*
X75560800Y-140214700D01*
X75306800Y-140214700D01*
X74113645Y-140214700D01*
X73992324Y-140444590D01*
X43513058Y-140444590D01*
X43433955Y-140294700D01*
X42240800Y-140294700D01*
X41986800Y-140294700D01*
X40793645Y-140294700D01*
X40672324Y-140524590D01*
X35453800Y-140524590D01*
X35453800Y-137984590D01*
X40672324Y-137984590D01*
X40716975Y-138131799D01*
X40842159Y-138394620D01*
X41016212Y-138627969D01*
X41232445Y-138822878D01*
X41358055Y-138897700D01*
X41232445Y-138972522D01*
X41016212Y-139167431D01*
X40842159Y-139400780D01*
X40716975Y-139663601D01*
X40672324Y-139810810D01*
X40793645Y-140040700D01*
X41986800Y-140040700D01*
X41986800Y-137754700D01*
X42240800Y-137754700D01*
X42240800Y-140040700D01*
X43433955Y-140040700D01*
X43555276Y-139810810D01*
X43510625Y-139663601D01*
X43385441Y-139400780D01*
X43211388Y-139167431D01*
X42995155Y-138972522D01*
X42869545Y-138897700D01*
X42995155Y-138822878D01*
X43211388Y-138627969D01*
X43385441Y-138394620D01*
X43510625Y-138131799D01*
X43555276Y-137984590D01*
X43513058Y-137904590D01*
X73992324Y-137904590D01*
X74036975Y-138051799D01*
X74162159Y-138314620D01*
X74336212Y-138547969D01*
X74552445Y-138742878D01*
X74678055Y-138817700D01*
X74552445Y-138892522D01*
X74336212Y-139087431D01*
X74162159Y-139320780D01*
X74036975Y-139583601D01*
X73992324Y-139730810D01*
X74113645Y-139960700D01*
X75306800Y-139960700D01*
X75306800Y-137674700D01*
X75560800Y-137674700D01*
X75560800Y-139960700D01*
X76753955Y-139960700D01*
X76875276Y-139730810D01*
X76830625Y-139583601D01*
X76705441Y-139320780D01*
X76531388Y-139087431D01*
X76315155Y-138892522D01*
X76189545Y-138817700D01*
X76315155Y-138742878D01*
X76531388Y-138547969D01*
X76705441Y-138314620D01*
X76830625Y-138051799D01*
X76875276Y-137904590D01*
X76753955Y-137674700D01*
X75560800Y-137674700D01*
X75306800Y-137674700D01*
X74113645Y-137674700D01*
X73992324Y-137904590D01*
X43513058Y-137904590D01*
X43433955Y-137754700D01*
X42240800Y-137754700D01*
X41986800Y-137754700D01*
X40793645Y-137754700D01*
X40672324Y-137984590D01*
X35453800Y-137984590D01*
X35453800Y-132401440D01*
X40628800Y-132401440D01*
X40628800Y-132693960D01*
X40685868Y-132980858D01*
X40797810Y-133251111D01*
X40960325Y-133494332D01*
X41167168Y-133701175D01*
X41341560Y-133817700D01*
X41167168Y-133934225D01*
X40960325Y-134141068D01*
X40797810Y-134384289D01*
X40685868Y-134654542D01*
X40628800Y-134941440D01*
X40628800Y-135233960D01*
X40685868Y-135520858D01*
X40797810Y-135791111D01*
X40960325Y-136034332D01*
X41167168Y-136241175D01*
X41349334Y-136362895D01*
X41232445Y-136432522D01*
X41016212Y-136627431D01*
X40842159Y-136860780D01*
X40716975Y-137123601D01*
X40672324Y-137270810D01*
X40793645Y-137500700D01*
X41986800Y-137500700D01*
X41986800Y-137480700D01*
X42240800Y-137480700D01*
X42240800Y-137500700D01*
X43433955Y-137500700D01*
X43555276Y-137270810D01*
X43510625Y-137123601D01*
X43385441Y-136860780D01*
X43211388Y-136627431D01*
X42995155Y-136432522D01*
X42878266Y-136362895D01*
X43060432Y-136241175D01*
X43267275Y-136034332D01*
X43429790Y-135791111D01*
X43541732Y-135520858D01*
X43598800Y-135233960D01*
X43598800Y-134941440D01*
X43541732Y-134654542D01*
X43429790Y-134384289D01*
X43267275Y-134141068D01*
X43060432Y-133934225D01*
X42886040Y-133817700D01*
X43060432Y-133701175D01*
X43267275Y-133494332D01*
X43429790Y-133251111D01*
X43541732Y-132980858D01*
X43598800Y-132693960D01*
X43598800Y-132401440D01*
X43541732Y-132114542D01*
X43429790Y-131844289D01*
X43267275Y-131601068D01*
X43060432Y-131394225D01*
X42878266Y-131272505D01*
X42995155Y-131202878D01*
X43211388Y-131007969D01*
X43385441Y-130774620D01*
X43510625Y-130511799D01*
X43555276Y-130364590D01*
X43433955Y-130134700D01*
X42240800Y-130134700D01*
X42240800Y-130154700D01*
X41986800Y-130154700D01*
X41986800Y-130134700D01*
X40793645Y-130134700D01*
X40672324Y-130364590D01*
X40716975Y-130511799D01*
X40842159Y-130774620D01*
X41016212Y-131007969D01*
X41232445Y-131202878D01*
X41349334Y-131272505D01*
X41167168Y-131394225D01*
X40960325Y-131601068D01*
X40797810Y-131844289D01*
X40685868Y-132114542D01*
X40628800Y-132401440D01*
X35453800Y-132401440D01*
X35453800Y-122241440D01*
X40628800Y-122241440D01*
X40628800Y-122533960D01*
X40685868Y-122820858D01*
X40797810Y-123091111D01*
X40960325Y-123334332D01*
X41167168Y-123541175D01*
X41341560Y-123657700D01*
X41167168Y-123774225D01*
X40960325Y-123981068D01*
X40797810Y-124224289D01*
X40685868Y-124494542D01*
X40628800Y-124781440D01*
X40628800Y-125073960D01*
X40685868Y-125360858D01*
X40797810Y-125631111D01*
X40960325Y-125874332D01*
X41167168Y-126081175D01*
X41341560Y-126197700D01*
X41167168Y-126314225D01*
X40960325Y-126521068D01*
X40797810Y-126764289D01*
X40685868Y-127034542D01*
X40628800Y-127321440D01*
X40628800Y-127613960D01*
X40685868Y-127900858D01*
X40797810Y-128171111D01*
X40960325Y-128414332D01*
X41167168Y-128621175D01*
X41349334Y-128742895D01*
X41232445Y-128812522D01*
X41016212Y-129007431D01*
X40842159Y-129240780D01*
X40716975Y-129503601D01*
X40672324Y-129650810D01*
X40793645Y-129880700D01*
X41986800Y-129880700D01*
X41986800Y-129860700D01*
X42240800Y-129860700D01*
X42240800Y-129880700D01*
X43433955Y-129880700D01*
X43555276Y-129650810D01*
X43510625Y-129503601D01*
X43385441Y-129240780D01*
X43211388Y-129007431D01*
X42995155Y-128812522D01*
X42878266Y-128742895D01*
X43060432Y-128621175D01*
X43267275Y-128414332D01*
X43341865Y-128302700D01*
X50202782Y-128302700D01*
X50243800Y-128306740D01*
X50284818Y-128302700D01*
X50284819Y-128302700D01*
X50407489Y-128290618D01*
X50564887Y-128242872D01*
X50709946Y-128165336D01*
X50837091Y-128060991D01*
X50863246Y-128029121D01*
X61120576Y-117771792D01*
X61265698Y-117742926D01*
X61454056Y-117664905D01*
X61623574Y-117551637D01*
X61678800Y-117496411D01*
X61694026Y-117511637D01*
X61863544Y-117624905D01*
X62051902Y-117702926D01*
X62197026Y-117731793D01*
X72414363Y-127949132D01*
X72440509Y-127980991D01*
X72472368Y-128007137D01*
X72472370Y-128007139D01*
X72567654Y-128085336D01*
X72712713Y-128162872D01*
X72870111Y-128210618D01*
X73033800Y-128226740D01*
X73074818Y-128222700D01*
X74205735Y-128222700D01*
X74280325Y-128334332D01*
X74487168Y-128541175D01*
X74669334Y-128662895D01*
X74552445Y-128732522D01*
X74336212Y-128927431D01*
X74162159Y-129160780D01*
X74036975Y-129423601D01*
X73992324Y-129570810D01*
X74113645Y-129800700D01*
X75306800Y-129800700D01*
X75306800Y-129780700D01*
X75560800Y-129780700D01*
X75560800Y-129800700D01*
X76753955Y-129800700D01*
X76875276Y-129570810D01*
X76830625Y-129423601D01*
X76705441Y-129160780D01*
X76531388Y-128927431D01*
X76315155Y-128732522D01*
X76198266Y-128662895D01*
X76380432Y-128541175D01*
X76587275Y-128334332D01*
X76749790Y-128091111D01*
X76861732Y-127820858D01*
X76918800Y-127533960D01*
X76918800Y-127241440D01*
X76861732Y-126954542D01*
X76749790Y-126684289D01*
X76587275Y-126441068D01*
X76380432Y-126234225D01*
X76206040Y-126117700D01*
X76380432Y-126001175D01*
X76587275Y-125794332D01*
X76749790Y-125551111D01*
X76861732Y-125280858D01*
X76918800Y-124993960D01*
X76918800Y-124701440D01*
X76861732Y-124414542D01*
X76749790Y-124144289D01*
X76587275Y-123901068D01*
X76380432Y-123694225D01*
X76206040Y-123577700D01*
X76380432Y-123461175D01*
X76587275Y-123254332D01*
X76749790Y-123011111D01*
X76861732Y-122740858D01*
X76918800Y-122453960D01*
X76918800Y-122161440D01*
X76861732Y-121874542D01*
X76749790Y-121604289D01*
X76587275Y-121361068D01*
X76380432Y-121154225D01*
X76206040Y-121037700D01*
X76380432Y-120921175D01*
X76587275Y-120714332D01*
X76749790Y-120471111D01*
X76861732Y-120200858D01*
X76918800Y-119913960D01*
X76918800Y-119621440D01*
X76861732Y-119334542D01*
X76749790Y-119064289D01*
X76587275Y-118821068D01*
X76380432Y-118614225D01*
X76198266Y-118492505D01*
X76315155Y-118422878D01*
X76531388Y-118227969D01*
X76705441Y-117994620D01*
X76830625Y-117731799D01*
X76875276Y-117584590D01*
X76753955Y-117354700D01*
X75560800Y-117354700D01*
X75560800Y-117374700D01*
X75306800Y-117374700D01*
X75306800Y-117354700D01*
X74113645Y-117354700D01*
X73992324Y-117584590D01*
X74036975Y-117731799D01*
X74162159Y-117994620D01*
X74336212Y-118227969D01*
X74552445Y-118422878D01*
X74669334Y-118492505D01*
X74487168Y-118614225D01*
X74280325Y-118821068D01*
X74205735Y-118932700D01*
X69162410Y-118932700D01*
X66709264Y-116479554D01*
X66680397Y-116334431D01*
X66602376Y-116146073D01*
X66489108Y-115976555D01*
X66344945Y-115832392D01*
X66175427Y-115719124D01*
X65987069Y-115641103D01*
X65787110Y-115601329D01*
X65583232Y-115601329D01*
X65383273Y-115641103D01*
X65194915Y-115719124D01*
X65118270Y-115770337D01*
X65048952Y-115724020D01*
X64860594Y-115645999D01*
X64660635Y-115606225D01*
X64456757Y-115606225D01*
X64256798Y-115645999D01*
X64068440Y-115724020D01*
X63998706Y-115770614D01*
X63868637Y-115683705D01*
X63680279Y-115605684D01*
X63480320Y-115565910D01*
X63276442Y-115565910D01*
X63076483Y-115605684D01*
X62888125Y-115683705D01*
X62772599Y-115760897D01*
X62655698Y-115712474D01*
X62455739Y-115672700D01*
X62251861Y-115672700D01*
X62051902Y-115712474D01*
X61863544Y-115790495D01*
X61694026Y-115903763D01*
X61638800Y-115958989D01*
X61623574Y-115943763D01*
X61454056Y-115830495D01*
X61265698Y-115752474D01*
X61065739Y-115712700D01*
X60861861Y-115712700D01*
X60661902Y-115752474D01*
X60473544Y-115830495D01*
X60304026Y-115943763D01*
X60159863Y-116087926D01*
X60046595Y-116257444D01*
X59968574Y-116445802D01*
X59939708Y-116590924D01*
X59413733Y-117116899D01*
X59407737Y-117107926D01*
X59263574Y-116963763D01*
X59094056Y-116850495D01*
X58905698Y-116772474D01*
X58818800Y-116755189D01*
X58818800Y-116595761D01*
X58779026Y-116395802D01*
X58701005Y-116207444D01*
X58587737Y-116037926D01*
X58443574Y-115893763D01*
X58274056Y-115780495D01*
X58085698Y-115702474D01*
X57885739Y-115662700D01*
X57759667Y-115662700D01*
X59099669Y-114322699D01*
X64348800Y-114322699D01*
X64348800Y-114389639D01*
X64388574Y-114589598D01*
X64466595Y-114777956D01*
X64579863Y-114947474D01*
X64724026Y-115091637D01*
X64893544Y-115204905D01*
X65081902Y-115282926D01*
X65228366Y-115312059D01*
X65317654Y-115385336D01*
X65462713Y-115462872D01*
X65620111Y-115510618D01*
X65742781Y-115522700D01*
X65742791Y-115522700D01*
X65783799Y-115526739D01*
X65824807Y-115522700D01*
X74205735Y-115522700D01*
X74280325Y-115634332D01*
X74487168Y-115841175D01*
X74669334Y-115962895D01*
X74552445Y-116032522D01*
X74336212Y-116227431D01*
X74162159Y-116460780D01*
X74036975Y-116723601D01*
X73992324Y-116870810D01*
X74113645Y-117100700D01*
X75306800Y-117100700D01*
X75306800Y-117080700D01*
X75560800Y-117080700D01*
X75560800Y-117100700D01*
X76753955Y-117100700D01*
X76875276Y-116870810D01*
X76830625Y-116723601D01*
X76705441Y-116460780D01*
X76531388Y-116227431D01*
X76315155Y-116032522D01*
X76198266Y-115962895D01*
X76380432Y-115841175D01*
X76587275Y-115634332D01*
X76749790Y-115391111D01*
X76861732Y-115120858D01*
X76918800Y-114833960D01*
X76918800Y-114541440D01*
X76861732Y-114254542D01*
X76749790Y-113984289D01*
X76587275Y-113741068D01*
X76380432Y-113534225D01*
X76206040Y-113417700D01*
X76380432Y-113301175D01*
X76587275Y-113094332D01*
X76749790Y-112851111D01*
X76861732Y-112580858D01*
X76918800Y-112293960D01*
X76918800Y-112001440D01*
X76861732Y-111714542D01*
X76749790Y-111444289D01*
X76587275Y-111201068D01*
X76380432Y-110994225D01*
X76198266Y-110872505D01*
X76315155Y-110802878D01*
X76531388Y-110607969D01*
X76705441Y-110374620D01*
X76758487Y-110263252D01*
X79548790Y-113053556D01*
X79548791Y-127666661D01*
X79544750Y-127707690D01*
X79560872Y-127871378D01*
X79608618Y-128028776D01*
X79684698Y-128171111D01*
X79686155Y-128173836D01*
X79790500Y-128300981D01*
X79822364Y-128327131D01*
X82684993Y-131189761D01*
X82658800Y-131321440D01*
X82658800Y-131613960D01*
X82715868Y-131900858D01*
X82827810Y-132171111D01*
X82990325Y-132414332D01*
X83197168Y-132621175D01*
X83371560Y-132737700D01*
X83197168Y-132854225D01*
X82990325Y-133061068D01*
X82827810Y-133304289D01*
X82715868Y-133574542D01*
X82658800Y-133861440D01*
X82658800Y-134153960D01*
X82715868Y-134440858D01*
X82827810Y-134711111D01*
X82990325Y-134954332D01*
X83197168Y-135161175D01*
X83371560Y-135277700D01*
X83197168Y-135394225D01*
X82990325Y-135601068D01*
X82915735Y-135712700D01*
X76748728Y-135712700D01*
X76749790Y-135711111D01*
X76861732Y-135440858D01*
X76918800Y-135153960D01*
X76918800Y-134861440D01*
X76861732Y-134574542D01*
X76749790Y-134304289D01*
X76587275Y-134061068D01*
X76380432Y-133854225D01*
X76206040Y-133737700D01*
X76380432Y-133621175D01*
X76587275Y-133414332D01*
X76749790Y-133171111D01*
X76861732Y-132900858D01*
X76918800Y-132613960D01*
X76918800Y-132321440D01*
X76861732Y-132034542D01*
X76749790Y-131764289D01*
X76587275Y-131521068D01*
X76380432Y-131314225D01*
X76198266Y-131192505D01*
X76315155Y-131122878D01*
X76531388Y-130927969D01*
X76705441Y-130694620D01*
X76830625Y-130431799D01*
X76875276Y-130284590D01*
X76753955Y-130054700D01*
X75560800Y-130054700D01*
X75560800Y-130074700D01*
X75306800Y-130074700D01*
X75306800Y-130054700D01*
X74113645Y-130054700D01*
X73992324Y-130284590D01*
X74036975Y-130431799D01*
X74162159Y-130694620D01*
X74336212Y-130927969D01*
X74552445Y-131122878D01*
X74669334Y-131192505D01*
X74487168Y-131314225D01*
X74280325Y-131521068D01*
X74117810Y-131764289D01*
X74005868Y-132034542D01*
X73948800Y-132321440D01*
X73948800Y-132613960D01*
X74005868Y-132900858D01*
X74117810Y-133171111D01*
X74280325Y-133414332D01*
X74487168Y-133621175D01*
X74661560Y-133737700D01*
X74487168Y-133854225D01*
X74280325Y-134061068D01*
X74117810Y-134304289D01*
X74005868Y-134574542D01*
X73948800Y-134861440D01*
X73948800Y-135153960D01*
X74005868Y-135440858D01*
X74014915Y-135462699D01*
X72349667Y-135462699D01*
X62357893Y-125470926D01*
X62329026Y-125325802D01*
X62251005Y-125137444D01*
X62137737Y-124967926D01*
X61993574Y-124823763D01*
X61824056Y-124710495D01*
X61635698Y-124632474D01*
X61435739Y-124592700D01*
X61231861Y-124592700D01*
X61031902Y-124632474D01*
X60843544Y-124710495D01*
X60674026Y-124823763D01*
X60529863Y-124967926D01*
X60416595Y-125137444D01*
X60338574Y-125325802D01*
X60298800Y-125525761D01*
X60298800Y-125729639D01*
X60338574Y-125929598D01*
X60416595Y-126117956D01*
X60529863Y-126287474D01*
X60674026Y-126431637D01*
X60843544Y-126544905D01*
X61031902Y-126622926D01*
X61177026Y-126651793D01*
X71384358Y-136859126D01*
X71410508Y-136890990D01*
X71537653Y-136995335D01*
X71682712Y-137072871D01*
X71840110Y-137120617D01*
X71962780Y-137132699D01*
X71962790Y-137132699D01*
X72003798Y-137136738D01*
X72044806Y-137132699D01*
X74009950Y-137132699D01*
X73992324Y-137190810D01*
X74113645Y-137420700D01*
X75306800Y-137420700D01*
X75306800Y-137400700D01*
X75560800Y-137400700D01*
X75560800Y-137420700D01*
X76753955Y-137420700D01*
X76774009Y-137382700D01*
X82915735Y-137382700D01*
X82990325Y-137494332D01*
X83197168Y-137701175D01*
X83371560Y-137817700D01*
X83197168Y-137934225D01*
X82990325Y-138141068D01*
X82827810Y-138384289D01*
X82715868Y-138654542D01*
X82658800Y-138941440D01*
X82658800Y-139233960D01*
X82715868Y-139520858D01*
X82827810Y-139791111D01*
X82990325Y-140034332D01*
X83197168Y-140241175D01*
X83371560Y-140357700D01*
X83197168Y-140474225D01*
X82990325Y-140681068D01*
X82827810Y-140924289D01*
X82715868Y-141194542D01*
X82658800Y-141481440D01*
X82658800Y-141773960D01*
X82715868Y-142060858D01*
X82827810Y-142331111D01*
X82990325Y-142574332D01*
X83197168Y-142781175D01*
X83440389Y-142943690D01*
X83710642Y-143055632D01*
X83997540Y-143112700D01*
X84290060Y-143112700D01*
X84576958Y-143055632D01*
X84847211Y-142943690D01*
X85090432Y-142781175D01*
X85297275Y-142574332D01*
X85459790Y-142331111D01*
X85571732Y-142060858D01*
X85628800Y-141773960D01*
X85628800Y-141481440D01*
X85571732Y-141194542D01*
X85459790Y-140924289D01*
X85361843Y-140777700D01*
X95355728Y-140777700D01*
X95355728Y-142477700D01*
X95367988Y-142602182D01*
X95404298Y-142721880D01*
X95463263Y-142832194D01*
X95542615Y-142928885D01*
X95639306Y-143008237D01*
X95749620Y-143067202D01*
X95869318Y-143103512D01*
X95993800Y-143115772D01*
X97693800Y-143115772D01*
X97818282Y-143103512D01*
X97937980Y-143067202D01*
X98048294Y-143008237D01*
X98144985Y-142928885D01*
X98224337Y-142832194D01*
X98283302Y-142721880D01*
X98319612Y-142602182D01*
X98331872Y-142477700D01*
X98331872Y-140777700D01*
X98319612Y-140653218D01*
X98283302Y-140533520D01*
X98224337Y-140423206D01*
X98144985Y-140326515D01*
X98048294Y-140247163D01*
X97937980Y-140188198D01*
X97865420Y-140166187D01*
X97997275Y-140034332D01*
X98159790Y-139791111D01*
X98271732Y-139520858D01*
X98328800Y-139233960D01*
X98328800Y-138941440D01*
X98271732Y-138654542D01*
X98159790Y-138384289D01*
X97997275Y-138141068D01*
X97790432Y-137934225D01*
X97608266Y-137812505D01*
X97725155Y-137742878D01*
X97941388Y-137547969D01*
X98115441Y-137314620D01*
X98240625Y-137051799D01*
X98285276Y-136904590D01*
X98163955Y-136674700D01*
X96970800Y-136674700D01*
X96970800Y-136694700D01*
X96716800Y-136694700D01*
X96716800Y-136674700D01*
X95523645Y-136674700D01*
X95402324Y-136904590D01*
X95446975Y-137051799D01*
X95572159Y-137314620D01*
X95746212Y-137547969D01*
X95962445Y-137742878D01*
X96079334Y-137812505D01*
X95897168Y-137934225D01*
X95690325Y-138141068D01*
X95527810Y-138384289D01*
X95415868Y-138654542D01*
X95358800Y-138941440D01*
X95358800Y-139233960D01*
X95415868Y-139520858D01*
X95527810Y-139791111D01*
X95690325Y-140034332D01*
X95822180Y-140166187D01*
X95749620Y-140188198D01*
X95639306Y-140247163D01*
X95542615Y-140326515D01*
X95463263Y-140423206D01*
X95404298Y-140533520D01*
X95367988Y-140653218D01*
X95355728Y-140777700D01*
X85361843Y-140777700D01*
X85297275Y-140681068D01*
X85090432Y-140474225D01*
X84916040Y-140357700D01*
X85090432Y-140241175D01*
X85297275Y-140034332D01*
X85459790Y-139791111D01*
X85571732Y-139520858D01*
X85628800Y-139233960D01*
X85628800Y-138941440D01*
X85571732Y-138654542D01*
X85459790Y-138384289D01*
X85297275Y-138141068D01*
X85090432Y-137934225D01*
X84916040Y-137817700D01*
X85090432Y-137701175D01*
X85297275Y-137494332D01*
X85459790Y-137251111D01*
X85571732Y-136980858D01*
X85628800Y-136693960D01*
X85628800Y-136401440D01*
X85571732Y-136114542D01*
X85459790Y-135844289D01*
X85297275Y-135601068D01*
X85090432Y-135394225D01*
X84916040Y-135277700D01*
X85090432Y-135161175D01*
X85297275Y-134954332D01*
X85459790Y-134711111D01*
X85571732Y-134440858D01*
X85628800Y-134153960D01*
X85628800Y-133861440D01*
X85571732Y-133574542D01*
X85459790Y-133304289D01*
X85297275Y-133061068D01*
X85090432Y-132854225D01*
X84916040Y-132737700D01*
X85090432Y-132621175D01*
X85297275Y-132414332D01*
X85459790Y-132171111D01*
X85571732Y-131900858D01*
X85628800Y-131613960D01*
X85628800Y-131321440D01*
X85571732Y-131034542D01*
X85459790Y-130764289D01*
X85297275Y-130521068D01*
X85090432Y-130314225D01*
X84916040Y-130197700D01*
X85090432Y-130081175D01*
X85297275Y-129874332D01*
X85459790Y-129631111D01*
X85571732Y-129360858D01*
X85628800Y-129073960D01*
X85628800Y-128781440D01*
X85571732Y-128494542D01*
X85459790Y-128224289D01*
X85297275Y-127981068D01*
X85090432Y-127774225D01*
X84916040Y-127657700D01*
X85090432Y-127541175D01*
X85297275Y-127334332D01*
X85459790Y-127091111D01*
X85571732Y-126820858D01*
X85628800Y-126533960D01*
X85628800Y-126241440D01*
X85571732Y-125954542D01*
X85459790Y-125684289D01*
X85297275Y-125441068D01*
X85090432Y-125234225D01*
X84916040Y-125117700D01*
X85090432Y-125001175D01*
X85297275Y-124794332D01*
X85459790Y-124551111D01*
X85571732Y-124280858D01*
X85628800Y-123993960D01*
X85628800Y-123701440D01*
X95358800Y-123701440D01*
X95358800Y-123993960D01*
X95415868Y-124280858D01*
X95527810Y-124551111D01*
X95690325Y-124794332D01*
X95897168Y-125001175D01*
X96071560Y-125117700D01*
X95897168Y-125234225D01*
X95690325Y-125441068D01*
X95527810Y-125684289D01*
X95415868Y-125954542D01*
X95358800Y-126241440D01*
X95358800Y-126533960D01*
X95415868Y-126820858D01*
X95527810Y-127091111D01*
X95690325Y-127334332D01*
X95897168Y-127541175D01*
X96071560Y-127657700D01*
X95897168Y-127774225D01*
X95690325Y-127981068D01*
X95527810Y-128224289D01*
X95415868Y-128494542D01*
X95358800Y-128781440D01*
X95358800Y-129073960D01*
X95415868Y-129360858D01*
X95527810Y-129631111D01*
X95690325Y-129874332D01*
X95897168Y-130081175D01*
X96071560Y-130197700D01*
X95897168Y-130314225D01*
X95690325Y-130521068D01*
X95527810Y-130764289D01*
X95415868Y-131034542D01*
X95358800Y-131321440D01*
X95358800Y-131613960D01*
X95415868Y-131900858D01*
X95527810Y-132171111D01*
X95690325Y-132414332D01*
X95897168Y-132621175D01*
X96071560Y-132737700D01*
X95897168Y-132854225D01*
X95690325Y-133061068D01*
X95527810Y-133304289D01*
X95415868Y-133574542D01*
X95358800Y-133861440D01*
X95358800Y-134153960D01*
X95415868Y-134440858D01*
X95527810Y-134711111D01*
X95690325Y-134954332D01*
X95897168Y-135161175D01*
X96079334Y-135282895D01*
X95962445Y-135352522D01*
X95746212Y-135547431D01*
X95572159Y-135780780D01*
X95446975Y-136043601D01*
X95402324Y-136190810D01*
X95523645Y-136420700D01*
X96716800Y-136420700D01*
X96716800Y-136400700D01*
X96970800Y-136400700D01*
X96970800Y-136420700D01*
X98163955Y-136420700D01*
X98285276Y-136190810D01*
X98240625Y-136043601D01*
X98115441Y-135780780D01*
X97941388Y-135547431D01*
X97725155Y-135352522D01*
X97608266Y-135282895D01*
X97790432Y-135161175D01*
X97997275Y-134954332D01*
X98159790Y-134711111D01*
X98271732Y-134440858D01*
X98328800Y-134153960D01*
X98328800Y-133861440D01*
X98271732Y-133574542D01*
X98159790Y-133304289D01*
X97997275Y-133061068D01*
X97790432Y-132854225D01*
X97616040Y-132737700D01*
X97790432Y-132621175D01*
X97997275Y-132414332D01*
X98159790Y-132171111D01*
X98271732Y-131900858D01*
X98328800Y-131613960D01*
X98328800Y-131321440D01*
X98271732Y-131034542D01*
X98159790Y-130764289D01*
X97997275Y-130521068D01*
X97790432Y-130314225D01*
X97616040Y-130197700D01*
X97790432Y-130081175D01*
X97997275Y-129874332D01*
X98159790Y-129631111D01*
X98271732Y-129360858D01*
X98328800Y-129073960D01*
X98328800Y-128781440D01*
X98271732Y-128494542D01*
X98159790Y-128224289D01*
X97997275Y-127981068D01*
X97790432Y-127774225D01*
X97616040Y-127657700D01*
X97790432Y-127541175D01*
X97997275Y-127334332D01*
X98159790Y-127091111D01*
X98271732Y-126820858D01*
X98328800Y-126533960D01*
X98328800Y-126241440D01*
X98271732Y-125954542D01*
X98159790Y-125684289D01*
X97997275Y-125441068D01*
X97790432Y-125234225D01*
X97616040Y-125117700D01*
X97790432Y-125001175D01*
X97997275Y-124794332D01*
X98159790Y-124551111D01*
X98271732Y-124280858D01*
X98328800Y-123993960D01*
X98328800Y-123701440D01*
X98271732Y-123414542D01*
X98159790Y-123144289D01*
X97997275Y-122901068D01*
X97790432Y-122694225D01*
X97547211Y-122531710D01*
X97276958Y-122419768D01*
X96990060Y-122362700D01*
X96697540Y-122362700D01*
X96410642Y-122419768D01*
X96140389Y-122531710D01*
X95897168Y-122694225D01*
X95690325Y-122901068D01*
X95527810Y-123144289D01*
X95415868Y-123414542D01*
X95358800Y-123701440D01*
X85628800Y-123701440D01*
X85571732Y-123414542D01*
X85459790Y-123144289D01*
X85297275Y-122901068D01*
X85090432Y-122694225D01*
X84847211Y-122531710D01*
X84576958Y-122419768D01*
X84290060Y-122362700D01*
X83997540Y-122362700D01*
X83710642Y-122419768D01*
X83440389Y-122531710D01*
X83197168Y-122694225D01*
X82990325Y-122901068D01*
X82827810Y-123144289D01*
X82715868Y-123414542D01*
X82658800Y-123701440D01*
X82658800Y-123993960D01*
X82715868Y-124280858D01*
X82827810Y-124551111D01*
X82990325Y-124794332D01*
X83197168Y-125001175D01*
X83371560Y-125117700D01*
X83197168Y-125234225D01*
X82990325Y-125441068D01*
X82827810Y-125684289D01*
X82715868Y-125954542D01*
X82658800Y-126241440D01*
X82658800Y-126261832D01*
X81818800Y-125421833D01*
X81818800Y-110808705D01*
X81822839Y-110767697D01*
X81818800Y-110726689D01*
X81818800Y-110726679D01*
X81806718Y-110604009D01*
X81758972Y-110446611D01*
X81681436Y-110301552D01*
X81577091Y-110174407D01*
X81545228Y-110148258D01*
X76701040Y-105304071D01*
X76749790Y-105231111D01*
X76861732Y-104960858D01*
X76918800Y-104673960D01*
X76918800Y-104524590D01*
X110402324Y-104524590D01*
X110446975Y-104671799D01*
X110572159Y-104934620D01*
X110746212Y-105167969D01*
X110962445Y-105362878D01*
X111212548Y-105511857D01*
X111486909Y-105609181D01*
X111716800Y-105488514D01*
X111716800Y-104294700D01*
X111970800Y-104294700D01*
X111970800Y-105488514D01*
X112200691Y-105609181D01*
X112475052Y-105511857D01*
X112725155Y-105362878D01*
X112941388Y-105167969D01*
X113115441Y-104934620D01*
X113240625Y-104671799D01*
X113285276Y-104524590D01*
X113163955Y-104294700D01*
X111970800Y-104294700D01*
X111716800Y-104294700D01*
X110523645Y-104294700D01*
X110402324Y-104524590D01*
X76918800Y-104524590D01*
X76918800Y-104381440D01*
X76861732Y-104094542D01*
X76749790Y-103824289D01*
X76587275Y-103581068D01*
X76455420Y-103449213D01*
X76527980Y-103427202D01*
X76638294Y-103368237D01*
X76734985Y-103288885D01*
X76814337Y-103192194D01*
X76873302Y-103081880D01*
X76909612Y-102962182D01*
X76921872Y-102837700D01*
X76918800Y-102273450D01*
X76760050Y-102114700D01*
X75560800Y-102114700D01*
X75560800Y-102134700D01*
X75306800Y-102134700D01*
X75306800Y-102114700D01*
X74107550Y-102114700D01*
X73948800Y-102273450D01*
X73945728Y-102837700D01*
X73957988Y-102962182D01*
X73994298Y-103081880D01*
X74053263Y-103192194D01*
X74132615Y-103288885D01*
X74229306Y-103368237D01*
X74339620Y-103427202D01*
X74412180Y-103449213D01*
X74280325Y-103581068D01*
X74117810Y-103824289D01*
X74005868Y-104094542D01*
X73948800Y-104381440D01*
X73948800Y-104673960D01*
X74005868Y-104960858D01*
X74117810Y-105231111D01*
X74280325Y-105474332D01*
X74487168Y-105681175D01*
X74661560Y-105797700D01*
X74487168Y-105914225D01*
X74280325Y-106121068D01*
X74117810Y-106364289D01*
X74005868Y-106634542D01*
X73948800Y-106921440D01*
X73948800Y-107213960D01*
X74005868Y-107500858D01*
X74117810Y-107771111D01*
X74280325Y-108014332D01*
X74487168Y-108221175D01*
X74669334Y-108342895D01*
X74552445Y-108412522D01*
X74336212Y-108607431D01*
X74162159Y-108840780D01*
X74036975Y-109103601D01*
X73992324Y-109250810D01*
X74113645Y-109480700D01*
X75306800Y-109480700D01*
X75306800Y-109460700D01*
X75560800Y-109460700D01*
X75560800Y-109480700D01*
X75580800Y-109480700D01*
X75580800Y-109734700D01*
X75560800Y-109734700D01*
X75560800Y-109754700D01*
X75306800Y-109754700D01*
X75306800Y-109734700D01*
X74113645Y-109734700D01*
X73992324Y-109964590D01*
X74036975Y-110111799D01*
X74162159Y-110374620D01*
X74336212Y-110607969D01*
X74552445Y-110802878D01*
X74669334Y-110872505D01*
X74487168Y-110994225D01*
X74280325Y-111201068D01*
X74205735Y-111312700D01*
X68064818Y-111312700D01*
X68023800Y-111308660D01*
X67982782Y-111312700D01*
X67982781Y-111312700D01*
X67860111Y-111324782D01*
X67702713Y-111372528D01*
X67557654Y-111450064D01*
X67430509Y-111554409D01*
X67404363Y-111586268D01*
X66298303Y-112692329D01*
X66207488Y-112664781D01*
X66084818Y-112652699D01*
X66084817Y-112652699D01*
X66043799Y-112648659D01*
X66002781Y-112652699D01*
X58720817Y-112652699D01*
X58679799Y-112648659D01*
X58638780Y-112652699D01*
X58516110Y-112664781D01*
X58358712Y-112712527D01*
X58213653Y-112790063D01*
X58086508Y-112894408D01*
X57982163Y-113021553D01*
X57916807Y-113143825D01*
X55925927Y-115134706D01*
X55803653Y-115200063D01*
X55676508Y-115304408D01*
X55650362Y-115336267D01*
X50588680Y-120397951D01*
X50413544Y-120470495D01*
X50244026Y-120583763D01*
X50099863Y-120727926D01*
X49986595Y-120897444D01*
X49908574Y-121085802D01*
X49868800Y-121285761D01*
X49868800Y-121489639D01*
X49881344Y-121552700D01*
X43341865Y-121552700D01*
X43267275Y-121441068D01*
X43060432Y-121234225D01*
X42878266Y-121112505D01*
X42995155Y-121042878D01*
X43211388Y-120847969D01*
X43385441Y-120614620D01*
X43510625Y-120351799D01*
X43555276Y-120204590D01*
X43433955Y-119974700D01*
X42240800Y-119974700D01*
X42240800Y-119994700D01*
X41986800Y-119994700D01*
X41986800Y-119974700D01*
X40793645Y-119974700D01*
X40672324Y-120204590D01*
X40716975Y-120351799D01*
X40842159Y-120614620D01*
X41016212Y-120847969D01*
X41232445Y-121042878D01*
X41349334Y-121112505D01*
X41167168Y-121234225D01*
X40960325Y-121441068D01*
X40797810Y-121684289D01*
X40685868Y-121954542D01*
X40628800Y-122241440D01*
X35453800Y-122241440D01*
X35453800Y-117161440D01*
X40628800Y-117161440D01*
X40628800Y-117453960D01*
X40685868Y-117740858D01*
X40797810Y-118011111D01*
X40960325Y-118254332D01*
X41167168Y-118461175D01*
X41349334Y-118582895D01*
X41232445Y-118652522D01*
X41016212Y-118847431D01*
X40842159Y-119080780D01*
X40716975Y-119343601D01*
X40672324Y-119490810D01*
X40793645Y-119720700D01*
X41986800Y-119720700D01*
X41986800Y-119700700D01*
X42240800Y-119700700D01*
X42240800Y-119720700D01*
X43433955Y-119720700D01*
X43555276Y-119490810D01*
X43510625Y-119343601D01*
X43385441Y-119080780D01*
X43211388Y-118847431D01*
X42995155Y-118652522D01*
X42878266Y-118582895D01*
X43060432Y-118461175D01*
X43267275Y-118254332D01*
X43429790Y-118011111D01*
X43541732Y-117740858D01*
X43598800Y-117453960D01*
X43598800Y-117161440D01*
X43541732Y-116874542D01*
X43429790Y-116604289D01*
X43267275Y-116361068D01*
X43060432Y-116154225D01*
X42878266Y-116032505D01*
X42995155Y-115962878D01*
X43211388Y-115767969D01*
X43385441Y-115534620D01*
X43510625Y-115271799D01*
X43555276Y-115124590D01*
X43433955Y-114894700D01*
X42240800Y-114894700D01*
X42240800Y-114914700D01*
X41986800Y-114914700D01*
X41986800Y-114894700D01*
X40793645Y-114894700D01*
X40672324Y-115124590D01*
X40716975Y-115271799D01*
X40842159Y-115534620D01*
X41016212Y-115767969D01*
X41232445Y-115962878D01*
X41349334Y-116032505D01*
X41167168Y-116154225D01*
X40960325Y-116361068D01*
X40797810Y-116604289D01*
X40685868Y-116874542D01*
X40628800Y-117161440D01*
X35453800Y-117161440D01*
X35453800Y-102917700D01*
X40625728Y-102917700D01*
X40637988Y-103042182D01*
X40674298Y-103161880D01*
X40733263Y-103272194D01*
X40812615Y-103368885D01*
X40909306Y-103448237D01*
X41019620Y-103507202D01*
X41092180Y-103529213D01*
X40960325Y-103661068D01*
X40797810Y-103904289D01*
X40685868Y-104174542D01*
X40628800Y-104461440D01*
X40628800Y-104753960D01*
X40685868Y-105040858D01*
X40797810Y-105311111D01*
X40960325Y-105554332D01*
X41167168Y-105761175D01*
X41341560Y-105877700D01*
X41167168Y-105994225D01*
X40960325Y-106201068D01*
X40797810Y-106444289D01*
X40685868Y-106714542D01*
X40628800Y-107001440D01*
X40628800Y-107293960D01*
X40685868Y-107580858D01*
X40797810Y-107851111D01*
X40960325Y-108094332D01*
X41167168Y-108301175D01*
X41341560Y-108417700D01*
X41167168Y-108534225D01*
X40960325Y-108741068D01*
X40797810Y-108984289D01*
X40685868Y-109254542D01*
X40628800Y-109541440D01*
X40628800Y-109833960D01*
X40685868Y-110120858D01*
X40797810Y-110391111D01*
X40960325Y-110634332D01*
X41167168Y-110841175D01*
X41341560Y-110957700D01*
X41167168Y-111074225D01*
X40960325Y-111281068D01*
X40797810Y-111524289D01*
X40685868Y-111794542D01*
X40628800Y-112081440D01*
X40628800Y-112373960D01*
X40685868Y-112660858D01*
X40797810Y-112931111D01*
X40960325Y-113174332D01*
X41167168Y-113381175D01*
X41349334Y-113502895D01*
X41232445Y-113572522D01*
X41016212Y-113767431D01*
X40842159Y-114000780D01*
X40716975Y-114263601D01*
X40672324Y-114410810D01*
X40793645Y-114640700D01*
X41986800Y-114640700D01*
X41986800Y-114620700D01*
X42240800Y-114620700D01*
X42240800Y-114640700D01*
X43433955Y-114640700D01*
X43555276Y-114410810D01*
X43510625Y-114263601D01*
X43385441Y-114000780D01*
X43211388Y-113767431D01*
X42995155Y-113572522D01*
X42878266Y-113502895D01*
X43060432Y-113381175D01*
X43267275Y-113174332D01*
X43341865Y-113062700D01*
X52112782Y-113062700D01*
X52153800Y-113066740D01*
X52194818Y-113062700D01*
X52194819Y-113062700D01*
X52317489Y-113050618D01*
X52474887Y-113002872D01*
X52619946Y-112925336D01*
X52747091Y-112820991D01*
X52773246Y-112789121D01*
X53920576Y-111641792D01*
X54065698Y-111612926D01*
X54254056Y-111534905D01*
X54423574Y-111421637D01*
X54567737Y-111277474D01*
X54681005Y-111107956D01*
X54759026Y-110919598D01*
X54772333Y-110852700D01*
X54825739Y-110852700D01*
X55025698Y-110812926D01*
X55214056Y-110734905D01*
X55383574Y-110621637D01*
X55527737Y-110477474D01*
X55641005Y-110307956D01*
X55719026Y-110119598D01*
X55758800Y-109919639D01*
X55758800Y-109715761D01*
X55719026Y-109515802D01*
X55641005Y-109327444D01*
X55527737Y-109157926D01*
X55383574Y-109013763D01*
X55214056Y-108900495D01*
X55025698Y-108822474D01*
X54825739Y-108782700D01*
X54621861Y-108782700D01*
X54421902Y-108822474D01*
X54233544Y-108900495D01*
X54110515Y-108982700D01*
X43428728Y-108982700D01*
X43267275Y-108741068D01*
X43060432Y-108534225D01*
X42886040Y-108417700D01*
X43060432Y-108301175D01*
X43267275Y-108094332D01*
X43429790Y-107851111D01*
X43541732Y-107580858D01*
X43598800Y-107293960D01*
X43598800Y-107001440D01*
X43541732Y-106714542D01*
X43429790Y-106444289D01*
X43267275Y-106201068D01*
X43060432Y-105994225D01*
X42886040Y-105877700D01*
X43060432Y-105761175D01*
X43267275Y-105554332D01*
X43429790Y-105311111D01*
X43541732Y-105040858D01*
X43598800Y-104753960D01*
X43598800Y-104461440D01*
X43541732Y-104174542D01*
X43429790Y-103904289D01*
X43267275Y-103661068D01*
X43135420Y-103529213D01*
X43207980Y-103507202D01*
X43318294Y-103448237D01*
X43414985Y-103368885D01*
X43494337Y-103272194D01*
X43553302Y-103161880D01*
X43589612Y-103042182D01*
X43601872Y-102917700D01*
X43598800Y-102353450D01*
X43440050Y-102194700D01*
X42240800Y-102194700D01*
X42240800Y-102214700D01*
X41986800Y-102214700D01*
X41986800Y-102194700D01*
X40787550Y-102194700D01*
X40628800Y-102353450D01*
X40625728Y-102917700D01*
X35453800Y-102917700D01*
X35453800Y-101217700D01*
X40625728Y-101217700D01*
X40628800Y-101781950D01*
X40787550Y-101940700D01*
X41986800Y-101940700D01*
X41986800Y-100741450D01*
X42240800Y-100741450D01*
X42240800Y-101940700D01*
X43440050Y-101940700D01*
X43598800Y-101781950D01*
X43601872Y-101217700D01*
X43593993Y-101137700D01*
X73945728Y-101137700D01*
X73948800Y-101701950D01*
X74107550Y-101860700D01*
X75306800Y-101860700D01*
X75306800Y-100661450D01*
X75560800Y-100661450D01*
X75560800Y-101860700D01*
X76760050Y-101860700D01*
X76918800Y-101701950D01*
X76921872Y-101137700D01*
X76909612Y-101013218D01*
X76873302Y-100893520D01*
X76814337Y-100783206D01*
X76809819Y-100777700D01*
X110355728Y-100777700D01*
X110355728Y-102477700D01*
X110367988Y-102602182D01*
X110404298Y-102721880D01*
X110463263Y-102832194D01*
X110542615Y-102928885D01*
X110639306Y-103008237D01*
X110749620Y-103067202D01*
X110830266Y-103091666D01*
X110746212Y-103167431D01*
X110572159Y-103400780D01*
X110446975Y-103663601D01*
X110402324Y-103810810D01*
X110523645Y-104040700D01*
X111716800Y-104040700D01*
X111716800Y-104020700D01*
X111970800Y-104020700D01*
X111970800Y-104040700D01*
X113163955Y-104040700D01*
X113285276Y-103810810D01*
X113240625Y-103663601D01*
X113115441Y-103400780D01*
X112941388Y-103167431D01*
X112857334Y-103091666D01*
X112937980Y-103067202D01*
X113048294Y-103008237D01*
X113144985Y-102928885D01*
X113224337Y-102832194D01*
X113283302Y-102721880D01*
X113319612Y-102602182D01*
X113331872Y-102477700D01*
X113331872Y-100777700D01*
X113319612Y-100653218D01*
X113283302Y-100533520D01*
X113224337Y-100423206D01*
X113144985Y-100326515D01*
X113048294Y-100247163D01*
X112937980Y-100188198D01*
X112818282Y-100151888D01*
X112693800Y-100139628D01*
X110993800Y-100139628D01*
X110869318Y-100151888D01*
X110749620Y-100188198D01*
X110639306Y-100247163D01*
X110542615Y-100326515D01*
X110463263Y-100423206D01*
X110404298Y-100533520D01*
X110367988Y-100653218D01*
X110355728Y-100777700D01*
X76809819Y-100777700D01*
X76734985Y-100686515D01*
X76638294Y-100607163D01*
X76527980Y-100548198D01*
X76408282Y-100511888D01*
X76283800Y-100499628D01*
X75719550Y-100502700D01*
X75560800Y-100661450D01*
X75306800Y-100661450D01*
X75148050Y-100502700D01*
X74583800Y-100499628D01*
X74459318Y-100511888D01*
X74339620Y-100548198D01*
X74229306Y-100607163D01*
X74132615Y-100686515D01*
X74053263Y-100783206D01*
X73994298Y-100893520D01*
X73957988Y-101013218D01*
X73945728Y-101137700D01*
X43593993Y-101137700D01*
X43589612Y-101093218D01*
X43553302Y-100973520D01*
X43494337Y-100863206D01*
X43414985Y-100766515D01*
X43318294Y-100687163D01*
X43207980Y-100628198D01*
X43088282Y-100591888D01*
X42963800Y-100579628D01*
X42399550Y-100582700D01*
X42240800Y-100741450D01*
X41986800Y-100741450D01*
X41828050Y-100582700D01*
X41263800Y-100579628D01*
X41139318Y-100591888D01*
X41019620Y-100628198D01*
X40909306Y-100687163D01*
X40812615Y-100766515D01*
X40733263Y-100863206D01*
X40674298Y-100973520D01*
X40637988Y-101093218D01*
X40625728Y-101217700D01*
X35453800Y-101217700D01*
X35453800Y-98837700D01*
X114143800Y-98837700D01*
X114143801Y-144507700D01*
G37*
G04 #@! TD.AperFunction*
G04 #@! TD*
M02*
