M48
; DRILL file {KiCad (5.1.12-1-10_14)} date Friday, December 17, 2021 at 08:41:32 PM
; FORMAT={-:-/ absolute / inch / decimal}
; #@! TF.CreationDate,2021-12-17T20:41:32-05:00
; #@! TF.GenerationSoftware,Kicad,Pcbnew,(5.1.12-1-10_14)
; #@! TF.FileFunction,Plated,1,2,PTH
FMAT,2
INCH
T1C0.0157
T2C0.0394
%
G90
G05
T1
X1.8907Y-4.2783
X1.8907Y-4.4731
X1.9553Y-4.1405
X2.0041Y-4.779
X2.1167Y-4.355
X2.1423Y-4.5133
X2.1545Y-4.3235
X2.2301Y-5.1814
X2.275Y-4.5944
X2.3013Y-5.4558
X2.3072Y-4.6365
X2.4001Y-4.5964
X2.4147Y-4.946
X2.4549Y-4.5948
X2.4635Y-4.1046
X2.4952Y-4.5906
X2.5417Y-4.5922
X2.5742Y-4.4995
X2.586Y-4.592
X2.6127Y-4.4806
X2.6994Y-4.5999
X2.7931Y-5.1814
X2.8584Y-5.4558
X3.4376Y-4.531
X3.6108Y-4.0771
X3.8234Y-4.2381
X3.9316Y-4.1779
X4.0309Y-5.105
X4.1663Y-4.2023
X4.3104Y-5.0625
X4.3376Y-5.3243
X4.4415Y-5.4755
T2
X1.658Y-4.0184
X1.658Y-4.1184
X1.658Y-4.2184
X1.658Y-4.3184
X1.658Y-4.4184
X1.658Y-4.5184
X1.658Y-4.6184
X1.658Y-4.7184
X1.658Y-4.8184
X1.658Y-4.9184
X1.658Y-5.0184
X1.658Y-5.1184
X1.658Y-5.2184
X1.658Y-5.3184
X1.658Y-5.4184
X1.658Y-5.5184
X2.9698Y-4.0153
X2.9698Y-4.1153
X2.9698Y-4.2153
X2.9698Y-4.3153
X2.9698Y-4.4153
X2.9698Y-4.5153
X2.9698Y-4.6153
X2.9698Y-4.7153
X2.9698Y-4.8153
X2.9698Y-4.9153
X2.9698Y-5.0153
X2.9698Y-5.1153
X2.9698Y-5.2153
X2.9698Y-5.3153
X2.9698Y-5.4153
X2.9698Y-5.5153
X3.3127Y-4.8759
X3.3127Y-4.9759
X3.3127Y-5.0759
X3.3127Y-5.1759
X3.3127Y-5.2759
X3.3127Y-5.3759
X3.3127Y-5.4759
X3.3127Y-5.5759
X3.8127Y-4.8759
X3.8127Y-4.9759
X3.8127Y-5.0759
X3.8127Y-5.1759
X3.8127Y-5.2759
X3.8127Y-5.3759
X3.8127Y-5.4759
X3.8127Y-5.5759
X4.4033Y-4.0011
X4.4033Y-4.1011
T0
M30
