G04 #@! TF.GenerationSoftware,KiCad,Pcbnew,(5.1.12-1-10_14)*
G04 #@! TF.CreationDate,2021-12-17T20:41:21-05:00*
G04 #@! TF.ProjectId,ClonedESP32DevBoard,436c6f6e-6564-4455-9350-333244657642,rev?*
G04 #@! TF.SameCoordinates,Original*
G04 #@! TF.FileFunction,Soldermask,Bot*
G04 #@! TF.FilePolarity,Negative*
%FSLAX46Y46*%
G04 Gerber Fmt 4.6, Leading zero omitted, Abs format (unit mm)*
G04 Created by KiCad (PCBNEW (5.1.12-1-10_14)) date 2021-12-17 20:41:21*
%MOMM*%
%LPD*%
G01*
G04 APERTURE LIST*
%ADD10O,1.700000X1.700000*%
%ADD11R,1.700000X1.700000*%
G04 APERTURE END LIST*
D10*
G04 #@! TO.C,BT1*
X111843800Y-104167700D03*
D11*
X111843800Y-101627700D03*
G04 #@! TD*
D10*
G04 #@! TO.C,J4*
X75433800Y-140087700D03*
X75433800Y-137547700D03*
X75433800Y-135007700D03*
X75433800Y-132467700D03*
X75433800Y-129927700D03*
X75433800Y-127387700D03*
X75433800Y-124847700D03*
X75433800Y-122307700D03*
X75433800Y-119767700D03*
X75433800Y-117227700D03*
X75433800Y-114687700D03*
X75433800Y-112147700D03*
X75433800Y-109607700D03*
X75433800Y-107067700D03*
X75433800Y-104527700D03*
D11*
X75433800Y-101987700D03*
G04 #@! TD*
D10*
G04 #@! TO.C,J3*
X42113800Y-140167700D03*
X42113800Y-137627700D03*
X42113800Y-135087700D03*
X42113800Y-132547700D03*
X42113800Y-130007700D03*
X42113800Y-127467700D03*
X42113800Y-124927700D03*
X42113800Y-122387700D03*
X42113800Y-119847700D03*
X42113800Y-117307700D03*
X42113800Y-114767700D03*
X42113800Y-112227700D03*
X42113800Y-109687700D03*
X42113800Y-107147700D03*
X42113800Y-104607700D03*
D11*
X42113800Y-102067700D03*
G04 #@! TD*
D10*
G04 #@! TO.C,J1*
X84143800Y-123847700D03*
X96843800Y-123847700D03*
X84143800Y-126387700D03*
X96843800Y-126387700D03*
X84143800Y-128927700D03*
X96843800Y-128927700D03*
X84143800Y-131467700D03*
X96843800Y-131467700D03*
X84143800Y-134007700D03*
X96843800Y-134007700D03*
X84143800Y-136547700D03*
X96843800Y-136547700D03*
X84143800Y-139087700D03*
X96843800Y-139087700D03*
X84143800Y-141627700D03*
D11*
X96843800Y-141627700D03*
G04 #@! TD*
M02*
