G04 #@! TF.GenerationSoftware,KiCad,Pcbnew,(5.1.12-1-10_14)*
G04 #@! TF.CreationDate,2021-12-17T20:41:21-05:00*
G04 #@! TF.ProjectId,ClonedESP32DevBoard,436c6f6e-6564-4455-9350-333244657642,rev?*
G04 #@! TF.SameCoordinates,Original*
G04 #@! TF.FileFunction,Soldermask,Top*
G04 #@! TF.FilePolarity,Negative*
%FSLAX46Y46*%
G04 Gerber Fmt 4.6, Leading zero omitted, Abs format (unit mm)*
G04 Created by KiCad (PCBNEW (5.1.12-1-10_14)) date 2021-12-17 20:41:21*
%MOMM*%
%LPD*%
G01*
G04 APERTURE LIST*
%ADD10O,1.700000X1.700000*%
%ADD11R,1.700000X1.700000*%
%ADD12R,0.700000X0.700000*%
%ADD13R,1.450000X1.450000*%
%ADD14R,0.400000X0.800000*%
%ADD15R,0.800000X0.400000*%
%ADD16R,1.755639X0.609807*%
%ADD17R,1.600000X1.000000*%
%ADD18R,1.701800X2.692400*%
%ADD19R,0.900000X0.800000*%
G04 APERTURE END LIST*
D10*
G04 #@! TO.C,BT1*
X111843800Y-104167700D03*
D11*
X111843800Y-101627700D03*
G04 #@! TD*
D10*
G04 #@! TO.C,J4*
X75433800Y-140087700D03*
X75433800Y-137547700D03*
X75433800Y-135007700D03*
X75433800Y-132467700D03*
X75433800Y-129927700D03*
X75433800Y-127387700D03*
X75433800Y-124847700D03*
X75433800Y-122307700D03*
X75433800Y-119767700D03*
X75433800Y-117227700D03*
X75433800Y-114687700D03*
X75433800Y-112147700D03*
X75433800Y-109607700D03*
X75433800Y-107067700D03*
X75433800Y-104527700D03*
D11*
X75433800Y-101987700D03*
G04 #@! TD*
D10*
G04 #@! TO.C,J3*
X42113800Y-140167700D03*
X42113800Y-137627700D03*
X42113800Y-135087700D03*
X42113800Y-132547700D03*
X42113800Y-130007700D03*
X42113800Y-127467700D03*
X42113800Y-124927700D03*
X42113800Y-122387700D03*
X42113800Y-119847700D03*
X42113800Y-117307700D03*
X42113800Y-114767700D03*
X42113800Y-112227700D03*
X42113800Y-109687700D03*
X42113800Y-107147700D03*
X42113800Y-104607700D03*
D11*
X42113800Y-102067700D03*
G04 #@! TD*
G04 #@! TO.C,R4*
G36*
G01*
X50973800Y-119077701D02*
X50973800Y-118177699D01*
G75*
G02*
X51223799Y-117927700I249999J0D01*
G01*
X51748801Y-117927700D01*
G75*
G02*
X51998800Y-118177699I0J-249999D01*
G01*
X51998800Y-119077701D01*
G75*
G02*
X51748801Y-119327700I-249999J0D01*
G01*
X51223799Y-119327700D01*
G75*
G02*
X50973800Y-119077701I0J249999D01*
G01*
G37*
G36*
G01*
X49148800Y-119077701D02*
X49148800Y-118177699D01*
G75*
G02*
X49398799Y-117927700I249999J0D01*
G01*
X49923801Y-117927700D01*
G75*
G02*
X50173800Y-118177699I0J-249999D01*
G01*
X50173800Y-119077701D01*
G75*
G02*
X49923801Y-119327700I-249999J0D01*
G01*
X49398799Y-119327700D01*
G75*
G02*
X49148800Y-119077701I0J249999D01*
G01*
G37*
G04 #@! TD*
D12*
G04 #@! TO.C,IC1*
X68523800Y-105677700D03*
X68523800Y-115577700D03*
X56623800Y-115577700D03*
X56623800Y-105677700D03*
D13*
X64548800Y-110627700D03*
X64548800Y-112602700D03*
X62573800Y-112602700D03*
X60598800Y-112602700D03*
X60598800Y-110627700D03*
X60598800Y-108652700D03*
X62573800Y-108652700D03*
X64548800Y-108652700D03*
X62573800Y-110627700D03*
D14*
X57773800Y-105727700D03*
X58573800Y-105727700D03*
X59373800Y-105727700D03*
X60173800Y-105727700D03*
X60973800Y-105727700D03*
X61773800Y-105727700D03*
X62573800Y-105727700D03*
X63373800Y-105727700D03*
X64173800Y-105727700D03*
X64973800Y-105727700D03*
X65773800Y-105727700D03*
X66573800Y-105727700D03*
X67373800Y-105727700D03*
D15*
X68473800Y-106627700D03*
X68473800Y-107427700D03*
X68473800Y-108227700D03*
X68473800Y-109027700D03*
X68473800Y-109827700D03*
X68473800Y-110627700D03*
X68473800Y-111427700D03*
X68473800Y-112227700D03*
X68473800Y-113027700D03*
X68473800Y-113827700D03*
X68473800Y-114627700D03*
D14*
X67373800Y-115527700D03*
X66573800Y-115527700D03*
X65773800Y-115527700D03*
X64973800Y-115527700D03*
X64173800Y-115527700D03*
X63373800Y-115527700D03*
X62573800Y-115527700D03*
X61773800Y-115527700D03*
X60973800Y-115527700D03*
X60173800Y-115527700D03*
X59373800Y-115527700D03*
X58573800Y-115527700D03*
X57773800Y-115527700D03*
D15*
X56673800Y-114627700D03*
X56673800Y-113827700D03*
X56673800Y-113027700D03*
X56673800Y-112227700D03*
X56673800Y-111427700D03*
X56673800Y-110627700D03*
X56673800Y-109827700D03*
X56673800Y-109027700D03*
X56673800Y-108227700D03*
X56673800Y-107427700D03*
X56673800Y-106627700D03*
G04 #@! TD*
G04 #@! TO.C,C10*
G36*
G01*
X50123800Y-113152700D02*
X50123800Y-114102700D01*
G75*
G02*
X49873800Y-114352700I-250000J0D01*
G01*
X49373800Y-114352700D01*
G75*
G02*
X49123800Y-114102700I0J250000D01*
G01*
X49123800Y-113152700D01*
G75*
G02*
X49373800Y-112902700I250000J0D01*
G01*
X49873800Y-112902700D01*
G75*
G02*
X50123800Y-113152700I0J-250000D01*
G01*
G37*
G36*
G01*
X52023800Y-113152700D02*
X52023800Y-114102700D01*
G75*
G02*
X51773800Y-114352700I-250000J0D01*
G01*
X51273800Y-114352700D01*
G75*
G02*
X51023800Y-114102700I0J250000D01*
G01*
X51023800Y-113152700D01*
G75*
G02*
X51273800Y-112902700I250000J0D01*
G01*
X51773800Y-112902700D01*
G75*
G02*
X52023800Y-113152700I0J-250000D01*
G01*
G37*
G04 #@! TD*
G04 #@! TO.C,C9*
G36*
G01*
X50123800Y-103152700D02*
X50123800Y-104102700D01*
G75*
G02*
X49873800Y-104352700I-250000J0D01*
G01*
X49373800Y-104352700D01*
G75*
G02*
X49123800Y-104102700I0J250000D01*
G01*
X49123800Y-103152700D01*
G75*
G02*
X49373800Y-102902700I250000J0D01*
G01*
X49873800Y-102902700D01*
G75*
G02*
X50123800Y-103152700I0J-250000D01*
G01*
G37*
G36*
G01*
X52023800Y-103152700D02*
X52023800Y-104102700D01*
G75*
G02*
X51773800Y-104352700I-250000J0D01*
G01*
X51273800Y-104352700D01*
G75*
G02*
X51023800Y-104102700I0J250000D01*
G01*
X51023800Y-103152700D01*
G75*
G02*
X51273800Y-102902700I250000J0D01*
G01*
X51773800Y-102902700D01*
G75*
G02*
X52023800Y-103152700I0J-250000D01*
G01*
G37*
G04 #@! TD*
G04 #@! TO.C,C8*
G36*
G01*
X50123800Y-108152700D02*
X50123800Y-109102700D01*
G75*
G02*
X49873800Y-109352700I-250000J0D01*
G01*
X49373800Y-109352700D01*
G75*
G02*
X49123800Y-109102700I0J250000D01*
G01*
X49123800Y-108152700D01*
G75*
G02*
X49373800Y-107902700I250000J0D01*
G01*
X49873800Y-107902700D01*
G75*
G02*
X50123800Y-108152700I0J-250000D01*
G01*
G37*
G36*
G01*
X52023800Y-108152700D02*
X52023800Y-109102700D01*
G75*
G02*
X51773800Y-109352700I-250000J0D01*
G01*
X51273800Y-109352700D01*
G75*
G02*
X51023800Y-109102700I0J250000D01*
G01*
X51023800Y-108152700D01*
G75*
G02*
X51273800Y-107902700I250000J0D01*
G01*
X51773800Y-107902700D01*
G75*
G02*
X52023800Y-108152700I0J-250000D01*
G01*
G37*
G04 #@! TD*
D16*
G04 #@! TO.C,U2*
X96019081Y-104577700D03*
G36*
G01*
X96896900Y-103627699D02*
X96896900Y-103627699D01*
G75*
G02*
X96591997Y-103932602I-304903J0D01*
G01*
X95446165Y-103932602D01*
G75*
G02*
X95141262Y-103627699I0J304903D01*
G01*
X95141262Y-103627699D01*
G75*
G02*
X95446165Y-103322796I304903J0D01*
G01*
X96591997Y-103322796D01*
G75*
G02*
X96896900Y-103627699I0J-304903D01*
G01*
G37*
G36*
G01*
X96896900Y-102677699D02*
X96896900Y-102677699D01*
G75*
G02*
X96591997Y-102982602I-304903J0D01*
G01*
X95446165Y-102982602D01*
G75*
G02*
X95141262Y-102677699I0J304903D01*
G01*
X95141262Y-102677699D01*
G75*
G02*
X95446165Y-102372796I304903J0D01*
G01*
X96591997Y-102372796D01*
G75*
G02*
X96896900Y-102677699I0J-304903D01*
G01*
G37*
G36*
G01*
X94546337Y-102677699D02*
X94546337Y-102677699D01*
G75*
G02*
X94241434Y-102982602I-304903J0D01*
G01*
X93095602Y-102982602D01*
G75*
G02*
X92790699Y-102677699I0J304903D01*
G01*
X92790699Y-102677699D01*
G75*
G02*
X93095602Y-102372796I304903J0D01*
G01*
X94241434Y-102372796D01*
G75*
G02*
X94546337Y-102677699I0J-304903D01*
G01*
G37*
G36*
G01*
X94546337Y-104577700D02*
X94546337Y-104577700D01*
G75*
G02*
X94241434Y-104882603I-304903J0D01*
G01*
X93095602Y-104882603D01*
G75*
G02*
X92790699Y-104577700I0J304903D01*
G01*
X92790699Y-104577700D01*
G75*
G02*
X93095602Y-104272797I304903J0D01*
G01*
X94241434Y-104272797D01*
G75*
G02*
X94546337Y-104577700I0J-304903D01*
G01*
G37*
G04 #@! TD*
G04 #@! TO.C,U1*
G36*
G01*
X109138800Y-132927700D02*
X108738800Y-132927700D01*
G75*
G02*
X108538800Y-132727700I0J200000D01*
G01*
X108538800Y-131377700D01*
G75*
G02*
X108738800Y-131177700I200000J0D01*
G01*
X109138800Y-131177700D01*
G75*
G02*
X109338800Y-131377700I0J-200000D01*
G01*
X109338800Y-132727700D01*
G75*
G02*
X109138800Y-132927700I-200000J0D01*
G01*
G37*
G36*
G01*
X110408800Y-132927700D02*
X110008800Y-132927700D01*
G75*
G02*
X109808800Y-132727700I0J200000D01*
G01*
X109808800Y-131377700D01*
G75*
G02*
X110008800Y-131177700I200000J0D01*
G01*
X110408800Y-131177700D01*
G75*
G02*
X110608800Y-131377700I0J-200000D01*
G01*
X110608800Y-132727700D01*
G75*
G02*
X110408800Y-132927700I-200000J0D01*
G01*
G37*
G36*
G01*
X111678800Y-132927700D02*
X111278800Y-132927700D01*
G75*
G02*
X111078800Y-132727700I0J200000D01*
G01*
X111078800Y-131377700D01*
G75*
G02*
X111278800Y-131177700I200000J0D01*
G01*
X111678800Y-131177700D01*
G75*
G02*
X111878800Y-131377700I0J-200000D01*
G01*
X111878800Y-132727700D01*
G75*
G02*
X111678800Y-132927700I-200000J0D01*
G01*
G37*
G36*
G01*
X112948800Y-132927700D02*
X112548800Y-132927700D01*
G75*
G02*
X112348800Y-132727700I0J200000D01*
G01*
X112348800Y-131377700D01*
G75*
G02*
X112548800Y-131177700I200000J0D01*
G01*
X112948800Y-131177700D01*
G75*
G02*
X113148800Y-131377700I0J-200000D01*
G01*
X113148800Y-132727700D01*
G75*
G02*
X112948800Y-132927700I-200000J0D01*
G01*
G37*
G36*
G01*
X112948800Y-138077700D02*
X112548800Y-138077700D01*
G75*
G02*
X112348800Y-137877700I0J200000D01*
G01*
X112348800Y-136527700D01*
G75*
G02*
X112548800Y-136327700I200000J0D01*
G01*
X112948800Y-136327700D01*
G75*
G02*
X113148800Y-136527700I0J-200000D01*
G01*
X113148800Y-137877700D01*
G75*
G02*
X112948800Y-138077700I-200000J0D01*
G01*
G37*
G36*
G01*
X111678800Y-138077700D02*
X111278800Y-138077700D01*
G75*
G02*
X111078800Y-137877700I0J200000D01*
G01*
X111078800Y-136527700D01*
G75*
G02*
X111278800Y-136327700I200000J0D01*
G01*
X111678800Y-136327700D01*
G75*
G02*
X111878800Y-136527700I0J-200000D01*
G01*
X111878800Y-137877700D01*
G75*
G02*
X111678800Y-138077700I-200000J0D01*
G01*
G37*
G36*
G01*
X110408800Y-138077700D02*
X110008800Y-138077700D01*
G75*
G02*
X109808800Y-137877700I0J200000D01*
G01*
X109808800Y-136527700D01*
G75*
G02*
X110008800Y-136327700I200000J0D01*
G01*
X110408800Y-136327700D01*
G75*
G02*
X110608800Y-136527700I0J-200000D01*
G01*
X110608800Y-137877700D01*
G75*
G02*
X110408800Y-138077700I-200000J0D01*
G01*
G37*
G36*
G01*
X109138800Y-138077700D02*
X108738800Y-138077700D01*
G75*
G02*
X108538800Y-137877700I0J200000D01*
G01*
X108538800Y-136527700D01*
G75*
G02*
X108738800Y-136327700I200000J0D01*
G01*
X109138800Y-136327700D01*
G75*
G02*
X109338800Y-136527700I0J-200000D01*
G01*
X109338800Y-137877700D01*
G75*
G02*
X109138800Y-138077700I-200000J0D01*
G01*
G37*
G04 #@! TD*
D17*
G04 #@! TO.C,SW3*
X112043800Y-119127700D03*
X112043800Y-116627700D03*
X112043800Y-114127700D03*
X109643800Y-119127700D03*
X109643800Y-116627700D03*
X109643800Y-114127700D03*
G04 #@! TD*
D18*
G04 #@! TO.C,SW2*
X62522500Y-138627700D03*
X70625100Y-138627700D03*
G04 #@! TD*
G04 #@! TO.C,SW1*
X48522500Y-138627700D03*
X56625100Y-138627700D03*
G04 #@! TD*
G04 #@! TO.C,R6*
G36*
G01*
X90443800Y-114177699D02*
X90443800Y-115077701D01*
G75*
G02*
X90193801Y-115327700I-249999J0D01*
G01*
X89668799Y-115327700D01*
G75*
G02*
X89418800Y-115077701I0J249999D01*
G01*
X89418800Y-114177699D01*
G75*
G02*
X89668799Y-113927700I249999J0D01*
G01*
X90193801Y-113927700D01*
G75*
G02*
X90443800Y-114177699I0J-249999D01*
G01*
G37*
G36*
G01*
X92268800Y-114177699D02*
X92268800Y-115077701D01*
G75*
G02*
X92018801Y-115327700I-249999J0D01*
G01*
X91493799Y-115327700D01*
G75*
G02*
X91243800Y-115077701I0J249999D01*
G01*
X91243800Y-114177699D01*
G75*
G02*
X91493799Y-113927700I249999J0D01*
G01*
X92018801Y-113927700D01*
G75*
G02*
X92268800Y-114177699I0J-249999D01*
G01*
G37*
G04 #@! TD*
G04 #@! TO.C,R3*
G36*
G01*
X103443800Y-137177699D02*
X103443800Y-138077701D01*
G75*
G02*
X103193801Y-138327700I-249999J0D01*
G01*
X102668799Y-138327700D01*
G75*
G02*
X102418800Y-138077701I0J249999D01*
G01*
X102418800Y-137177699D01*
G75*
G02*
X102668799Y-136927700I249999J0D01*
G01*
X103193801Y-136927700D01*
G75*
G02*
X103443800Y-137177699I0J-249999D01*
G01*
G37*
G36*
G01*
X105268800Y-137177699D02*
X105268800Y-138077701D01*
G75*
G02*
X105018801Y-138327700I-249999J0D01*
G01*
X104493799Y-138327700D01*
G75*
G02*
X104243800Y-138077701I0J249999D01*
G01*
X104243800Y-137177699D01*
G75*
G02*
X104493799Y-136927700I249999J0D01*
G01*
X105018801Y-136927700D01*
G75*
G02*
X105268800Y-137177699I0J-249999D01*
G01*
G37*
G04 #@! TD*
G04 #@! TO.C,R2*
G36*
G01*
X53023801Y-125227700D02*
X52123799Y-125227700D01*
G75*
G02*
X51873800Y-124977701I0J249999D01*
G01*
X51873800Y-124452699D01*
G75*
G02*
X52123799Y-124202700I249999J0D01*
G01*
X53023801Y-124202700D01*
G75*
G02*
X53273800Y-124452699I0J-249999D01*
G01*
X53273800Y-124977701D01*
G75*
G02*
X53023801Y-125227700I-249999J0D01*
G01*
G37*
G36*
G01*
X53023801Y-127052700D02*
X52123799Y-127052700D01*
G75*
G02*
X51873800Y-126802701I0J249999D01*
G01*
X51873800Y-126277699D01*
G75*
G02*
X52123799Y-126027700I249999J0D01*
G01*
X53023801Y-126027700D01*
G75*
G02*
X53273800Y-126277699I0J-249999D01*
G01*
X53273800Y-126802701D01*
G75*
G02*
X53023801Y-127052700I-249999J0D01*
G01*
G37*
G04 #@! TD*
G04 #@! TO.C,R1*
G36*
G01*
X65023801Y-125227700D02*
X64123799Y-125227700D01*
G75*
G02*
X63873800Y-124977701I0J249999D01*
G01*
X63873800Y-124452699D01*
G75*
G02*
X64123799Y-124202700I249999J0D01*
G01*
X65023801Y-124202700D01*
G75*
G02*
X65273800Y-124452699I0J-249999D01*
G01*
X65273800Y-124977701D01*
G75*
G02*
X65023801Y-125227700I-249999J0D01*
G01*
G37*
G36*
G01*
X65023801Y-127052700D02*
X64123799Y-127052700D01*
G75*
G02*
X63873800Y-126802701I0J249999D01*
G01*
X63873800Y-126277699D01*
G75*
G02*
X64123799Y-126027700I249999J0D01*
G01*
X65023801Y-126027700D01*
G75*
G02*
X65273800Y-126277699I0J-249999D01*
G01*
X65273800Y-126802701D01*
G75*
G02*
X65023801Y-127052700I-249999J0D01*
G01*
G37*
G04 #@! TD*
D19*
G04 #@! TO.C,Q2*
X58573800Y-125627700D03*
X56573800Y-126577700D03*
X56573800Y-124677700D03*
G04 #@! TD*
G04 #@! TO.C,Q1*
X70573800Y-125627700D03*
X68573800Y-126577700D03*
X68573800Y-124677700D03*
G04 #@! TD*
D10*
G04 #@! TO.C,J1*
X84143800Y-123847700D03*
X96843800Y-123847700D03*
X84143800Y-126387700D03*
X96843800Y-126387700D03*
X84143800Y-128927700D03*
X96843800Y-128927700D03*
X84143800Y-131467700D03*
X96843800Y-131467700D03*
X84143800Y-134007700D03*
X96843800Y-134007700D03*
X84143800Y-136547700D03*
X96843800Y-136547700D03*
X84143800Y-139087700D03*
X96843800Y-139087700D03*
X84143800Y-141627700D03*
D11*
X96843800Y-141627700D03*
G04 #@! TD*
G04 #@! TO.C,D3*
G36*
G01*
X103387550Y-131077700D02*
X104300050Y-131077700D01*
G75*
G02*
X104543800Y-131321450I0J-243750D01*
G01*
X104543800Y-131808950D01*
G75*
G02*
X104300050Y-132052700I-243750J0D01*
G01*
X103387550Y-132052700D01*
G75*
G02*
X103143800Y-131808950I0J243750D01*
G01*
X103143800Y-131321450D01*
G75*
G02*
X103387550Y-131077700I243750J0D01*
G01*
G37*
G36*
G01*
X103387550Y-129202700D02*
X104300050Y-129202700D01*
G75*
G02*
X104543800Y-129446450I0J-243750D01*
G01*
X104543800Y-129933950D01*
G75*
G02*
X104300050Y-130177700I-243750J0D01*
G01*
X103387550Y-130177700D01*
G75*
G02*
X103143800Y-129933950I0J243750D01*
G01*
X103143800Y-129446450D01*
G75*
G02*
X103387550Y-129202700I243750J0D01*
G01*
G37*
G04 #@! TD*
G04 #@! TO.C,D2*
G36*
G01*
X104068800Y-140002700D02*
X104068800Y-141252700D01*
G75*
G02*
X103818800Y-141502700I-250000J0D01*
G01*
X103068800Y-141502700D01*
G75*
G02*
X102818800Y-141252700I0J250000D01*
G01*
X102818800Y-140002700D01*
G75*
G02*
X103068800Y-139752700I250000J0D01*
G01*
X103818800Y-139752700D01*
G75*
G02*
X104068800Y-140002700I0J-250000D01*
G01*
G37*
G36*
G01*
X106868800Y-140002700D02*
X106868800Y-141252700D01*
G75*
G02*
X106618800Y-141502700I-250000J0D01*
G01*
X105868800Y-141502700D01*
G75*
G02*
X105618800Y-141252700I0J250000D01*
G01*
X105618800Y-140002700D01*
G75*
G02*
X105868800Y-139752700I250000J0D01*
G01*
X106618800Y-139752700D01*
G75*
G02*
X106868800Y-140002700I0J-250000D01*
G01*
G37*
G04 #@! TD*
D12*
G04 #@! TO.C,D1*
X83688800Y-115047700D03*
X83688800Y-116147700D03*
X85518800Y-116147700D03*
X85518800Y-115047700D03*
G04 #@! TD*
G04 #@! TO.C,C7*
G36*
G01*
X104743799Y-104527700D02*
X106943801Y-104527700D01*
G75*
G02*
X107193800Y-104777699I0J-249999D01*
G01*
X107193800Y-105427701D01*
G75*
G02*
X106943801Y-105677700I-249999J0D01*
G01*
X104743799Y-105677700D01*
G75*
G02*
X104493800Y-105427701I0J249999D01*
G01*
X104493800Y-104777699D01*
G75*
G02*
X104743799Y-104527700I249999J0D01*
G01*
G37*
G36*
G01*
X104743799Y-101577700D02*
X106943801Y-101577700D01*
G75*
G02*
X107193800Y-101827699I0J-249999D01*
G01*
X107193800Y-102477701D01*
G75*
G02*
X106943801Y-102727700I-249999J0D01*
G01*
X104743799Y-102727700D01*
G75*
G02*
X104493800Y-102477701I0J249999D01*
G01*
X104493800Y-101827699D01*
G75*
G02*
X104743799Y-101577700I249999J0D01*
G01*
G37*
G04 #@! TD*
G04 #@! TO.C,C6*
G36*
G01*
X95293800Y-108102700D02*
X95293800Y-107152700D01*
G75*
G02*
X95543800Y-106902700I250000J0D01*
G01*
X96043800Y-106902700D01*
G75*
G02*
X96293800Y-107152700I0J-250000D01*
G01*
X96293800Y-108102700D01*
G75*
G02*
X96043800Y-108352700I-250000J0D01*
G01*
X95543800Y-108352700D01*
G75*
G02*
X95293800Y-108102700I0J250000D01*
G01*
G37*
G36*
G01*
X93393800Y-108102700D02*
X93393800Y-107152700D01*
G75*
G02*
X93643800Y-106902700I250000J0D01*
G01*
X94143800Y-106902700D01*
G75*
G02*
X94393800Y-107152700I0J-250000D01*
G01*
X94393800Y-108102700D01*
G75*
G02*
X94143800Y-108352700I-250000J0D01*
G01*
X93643800Y-108352700D01*
G75*
G02*
X93393800Y-108102700I0J250000D01*
G01*
G37*
G04 #@! TD*
G04 #@! TO.C,C5*
G36*
G01*
X99368800Y-104077700D02*
X100318800Y-104077700D01*
G75*
G02*
X100568800Y-104327700I0J-250000D01*
G01*
X100568800Y-104827700D01*
G75*
G02*
X100318800Y-105077700I-250000J0D01*
G01*
X99368800Y-105077700D01*
G75*
G02*
X99118800Y-104827700I0J250000D01*
G01*
X99118800Y-104327700D01*
G75*
G02*
X99368800Y-104077700I250000J0D01*
G01*
G37*
G36*
G01*
X99368800Y-102177700D02*
X100318800Y-102177700D01*
G75*
G02*
X100568800Y-102427700I0J-250000D01*
G01*
X100568800Y-102927700D01*
G75*
G02*
X100318800Y-103177700I-250000J0D01*
G01*
X99368800Y-103177700D01*
G75*
G02*
X99118800Y-102927700I0J250000D01*
G01*
X99118800Y-102427700D01*
G75*
G02*
X99368800Y-102177700I250000J0D01*
G01*
G37*
G04 #@! TD*
G04 #@! TO.C,C4*
G36*
G01*
X111393800Y-128152700D02*
X111393800Y-129102700D01*
G75*
G02*
X111143800Y-129352700I-250000J0D01*
G01*
X110643800Y-129352700D01*
G75*
G02*
X110393800Y-129102700I0J250000D01*
G01*
X110393800Y-128152700D01*
G75*
G02*
X110643800Y-127902700I250000J0D01*
G01*
X111143800Y-127902700D01*
G75*
G02*
X111393800Y-128152700I0J-250000D01*
G01*
G37*
G36*
G01*
X113293800Y-128152700D02*
X113293800Y-129102700D01*
G75*
G02*
X113043800Y-129352700I-250000J0D01*
G01*
X112543800Y-129352700D01*
G75*
G02*
X112293800Y-129102700I0J250000D01*
G01*
X112293800Y-128152700D01*
G75*
G02*
X112543800Y-127902700I250000J0D01*
G01*
X113043800Y-127902700D01*
G75*
G02*
X113293800Y-128152700I0J-250000D01*
G01*
G37*
G04 #@! TD*
G04 #@! TO.C,C3*
G36*
G01*
X112293800Y-141102700D02*
X112293800Y-140152700D01*
G75*
G02*
X112543800Y-139902700I250000J0D01*
G01*
X113043800Y-139902700D01*
G75*
G02*
X113293800Y-140152700I0J-250000D01*
G01*
X113293800Y-141102700D01*
G75*
G02*
X113043800Y-141352700I-250000J0D01*
G01*
X112543800Y-141352700D01*
G75*
G02*
X112293800Y-141102700I0J250000D01*
G01*
G37*
G36*
G01*
X110393800Y-141102700D02*
X110393800Y-140152700D01*
G75*
G02*
X110643800Y-139902700I250000J0D01*
G01*
X111143800Y-139902700D01*
G75*
G02*
X111393800Y-140152700I0J-250000D01*
G01*
X111393800Y-141102700D01*
G75*
G02*
X111143800Y-141352700I-250000J0D01*
G01*
X110643800Y-141352700D01*
G75*
G02*
X110393800Y-141102700I0J250000D01*
G01*
G37*
G04 #@! TD*
G04 #@! TO.C,C2*
G36*
G01*
X69023800Y-132102700D02*
X69023800Y-131152700D01*
G75*
G02*
X69273800Y-130902700I250000J0D01*
G01*
X69773800Y-130902700D01*
G75*
G02*
X70023800Y-131152700I0J-250000D01*
G01*
X70023800Y-132102700D01*
G75*
G02*
X69773800Y-132352700I-250000J0D01*
G01*
X69273800Y-132352700D01*
G75*
G02*
X69023800Y-132102700I0J250000D01*
G01*
G37*
G36*
G01*
X67123800Y-132102700D02*
X67123800Y-131152700D01*
G75*
G02*
X67373800Y-130902700I250000J0D01*
G01*
X67873800Y-130902700D01*
G75*
G02*
X68123800Y-131152700I0J-250000D01*
G01*
X68123800Y-132102700D01*
G75*
G02*
X67873800Y-132352700I-250000J0D01*
G01*
X67373800Y-132352700D01*
G75*
G02*
X67123800Y-132102700I0J250000D01*
G01*
G37*
G04 #@! TD*
G04 #@! TO.C,C1*
G36*
G01*
X55023800Y-132102700D02*
X55023800Y-131152700D01*
G75*
G02*
X55273800Y-130902700I250000J0D01*
G01*
X55773800Y-130902700D01*
G75*
G02*
X56023800Y-131152700I0J-250000D01*
G01*
X56023800Y-132102700D01*
G75*
G02*
X55773800Y-132352700I-250000J0D01*
G01*
X55273800Y-132352700D01*
G75*
G02*
X55023800Y-132102700I0J250000D01*
G01*
G37*
G36*
G01*
X53123800Y-132102700D02*
X53123800Y-131152700D01*
G75*
G02*
X53373800Y-130902700I250000J0D01*
G01*
X53873800Y-130902700D01*
G75*
G02*
X54123800Y-131152700I0J-250000D01*
G01*
X54123800Y-132102700D01*
G75*
G02*
X53873800Y-132352700I-250000J0D01*
G01*
X53373800Y-132352700D01*
G75*
G02*
X53123800Y-132102700I0J250000D01*
G01*
G37*
G04 #@! TD*
M02*
