  0
SECTION
  2
HEADER
  9
$ACADVER
  1
AC1014
  9
$HANDSEED
  5
FFFF
  9
$MEASUREMENT
 70
     1
  0
ENDSEC
  0
SECTION
  2
TABLES
  0
TABLE
  2
VPORT
  5
8
330
0
100
AcDbSymbolTable
 70
     4
  0
VPORT
  5
2E
330
8
100
AcDbSymbolTableRecord
100
AcDbViewportTableRecord
  2
*ACTIVE
 70
     0
 10
0.0
 20
0.0
 11
1.0
 21
1.0
 12
210.0
 22
148.5
 13
0.0
 23
0.0
 14
10.0
 24
10.0
 15
10.0
 25
10.0
 16
0.0
 26
0.0
 36
1.0
 17
0.0
 27
0.0
 37
0.0
 40
341.0
 41
1.24
 42
50.0
 43
0.0
 44
0.0
 50
0.0
 51
0.0
 71
     0
 72
   100
 73
     1
 74
     3
 75
     0
 76
     0
 77
     0
 78
     0
  0
ENDTAB
  0
TABLE
  2
LTYPE
  5
5
330
0
100
AcDbSymbolTable
 70
     1
  0
LTYPE
  5
14
330
5
100
AcDbSymbolTableRecord
100
AcDbLinetypeTableRecord
  2
BYBLOCK
 70
     0
  3

 72
    65
 73
     0
 40
0.0
  0
LTYPE
  5
15
330
5
100
AcDbSymbolTableRecord
100
AcDbLinetypeTableRecord
  2
BYLAYER
 70
     0
  3

 72
    65
 73
     0
 40
0.0
  0
LTYPE
  5
16
330
5
100
AcDbSymbolTableRecord
100
AcDbLinetypeTableRecord
  2
CONTINUOUS
 70
     0
  3
Solid line
 72
    65
 73
     0
 40
0.0
  0
ENDTAB
  0
TABLE
  2
LAYER
  5
2
100
AcDbSymbolTable
 70
2
  0
LAYER
  5
50
100
AcDbSymbolTableRecord
100
AcDbLayerTableRecord
  2
0
 70
0
  6
CONTINUOUS
  0
LAYER
  5
51
100
AcDbSymbolTableRecord
100
AcDbLayerTableRecord
  2
Layer_1
 70
0
  6
CONTINUOUS
  0
ENDTAB
  0
TABLE
  2
STYLE
  5
3
330
0
100
AcDbSymbolTable
 70
     1
  0
STYLE
  5
11
330
3
100
AcDbSymbolTableRecord
100
AcDbTextStyleTableRecord
  2
STANDARD
 70
     0
 40
0.0
 41
1.0
 50
0.0
 71
     0
 42
2.5
  3
txt
  4

  0
ENDTAB
  0
TABLE
  2
VIEW
  5
6
330
0
100
AcDbSymbolTable
 70
     0
  0
ENDTAB
  0
TABLE
  2
UCS
  5
7
330
0
100
AcDbSymbolTable
 70
     0
  0
ENDTAB
  0
TABLE
  2
APPID
  5
9
330
0
100
AcDbSymbolTable
 70
     2
  0
APPID
  5
12
330
9
100
AcDbSymbolTableRecord
100
AcDbRegAppTableRecord
  2
ACAD
 70
     0
  0
ENDTAB
  0
TABLE
  2
DIMSTYLE
  5
A
330
0
100
AcDbSymbolTable
 70
     1
  0
DIMSTYLE
105
27
330
A
100
AcDbSymbolTableRecord
100
AcDbDimStyleTableRecord
  2
ISO-25
 70
     0
  3

  4

  5

  6

  7

 40
1.0
 41
2.5
 42
0.625
 43
3.75
 44
1.25
 45
0.0
 46
0.0
 47
0.0
 48
0.0
140
2.5
141
2.5
142
0.0
143
0.03937007874016
144
1.0
145
0.0
146
1.0
147
0.625
 71
     0
 72
     0
 73
     0
 74
     0
 75
     0
 76
     0
 77
     1
 78
     8
170
     0
171
     3
172
     1
173
     0
174
     0
175
     0
176
     0
177
     0
178
     0
270
     2
271
     2
272
     2
273
     2
274
     3
340
11
275
     0
280
     0
281
     0
282
     0
283
     0
284
     8
285
     0
286
     0
287
     3
288
     0
  0
ENDTAB
  0
TABLE
  2
BLOCK_RECORD
  5
1
330
0
100
AcDbSymbolTable
 70
     1
  0
BLOCK_RECORD
  5
1F
330
1
100
AcDbSymbolTableRecord
100
AcDbBlockTableRecord
  2
*MODEL_SPACE
  0
BLOCK_RECORD
  5
1B
330
1
100
AcDbSymbolTableRecord
100
AcDbBlockTableRecord
  2
*PAPER_SPACE
  0
ENDTAB
  0
ENDSEC
  0
SECTION
  2
BLOCKS
  0
BLOCK
  5
20
330
1F
100
AcDbEntity
  8
0
100
AcDbBlockBegin
  2
*MODEL_SPACE
 70
     0
 10
0.0
 20
0.0
 30
0.0
  3
*MODEL_SPACE
  1

  0
ENDBLK
  5
21
330
1F
100
AcDbEntity
  8
0
100
AcDbBlockEnd
  0
BLOCK
  5
1C
330
1B
100
AcDbEntity
 67
     1
  8
0
100
AcDbBlockBegin
  2
*PAPER_SPACE
  1

  0
ENDBLK
  5
1D
330
1B
100
AcDbEntity
 67
     1
  8
0
100
AcDbBlockEnd
  0
ENDSEC
  0
SECTION
  2
ENTITIES
  0
SPLINE
  5
100
100
AcDbEntity
  8
Layer_1
 62
5
100
AcDbSpline
 70
8
 71
3
 72
8
 73
4
 74
0
 40
0
 40
0
 40
0
 40
0
 40
1
 40
1
 40
1
 40
1
 10
102.217172
 20
0.058510
 30
0.0
 10
99.838856
 20
0.383529
 30
0.0
 10
98.712598
 20
0.612249
 30
0.0
 10
96.496962
 20
1.220178
 30
0.0
  0
SPLINE
  5
101
100
AcDbEntity
  8
Layer_1
 62
5
100
AcDbSpline
 70
8
 71
3
 72
8
 73
4
 74
0
 40
0
 40
0
 40
0
 40
0
 40
1
 40
1
 40
1
 40
1
 10
96.496962
 20
1.220178
 30
0.0
 10
91.639280
 20
2.553006
 30
0.0
 10
87.904067
 20
4.152083
 30
0.0
 10
83.608174
 20
6.737959
 30
0.0
  0
SPLINE
  5
102
100
AcDbEntity
  8
Layer_1
 62
5
100
AcDbSpline
 70
8
 71
3
 72
8
 73
4
 74
0
 40
0
 40
0
 40
0
 40
0
 40
1
 40
1
 40
1
 40
1
 10
83.608174
 20
6.737959
 30
0.0
 10
82.395506
 20
7.467927
 30
0.0
 10
81.332048
 20
8.066136
 30
0.0
 10
81.244928
 20
8.067296
 30
0.0
  0
SPLINE
  5
103
100
AcDbEntity
  8
Layer_1
 62
5
100
AcDbSpline
 70
8
 71
3
 72
8
 73
4
 74
0
 40
0
 40
0
 40
0
 40
0
 40
1
 40
1
 40
1
 40
1
 10
81.244928
 20
8.067296
 30
0.0
 10
81.157828
 20
8.069296
 30
0.0
 10
80.364069
 20
7.528337
 30
0.0
 10
79.481041
 20
6.867008
 30
0.0
  0
SPLINE
  5
104
100
AcDbEntity
  8
Layer_1
 62
5
100
AcDbSpline
 70
8
 71
3
 72
8
 73
4
 74
0
 40
0
 40
0
 40
0
 40
0
 40
1
 40
1
 40
1
 40
1
 10
79.481041
 20
6.867008
 30
0.0
 10
72.117773
 20
1.352338
 30
0.0
 10
71.806834
 20
1.141608
 30
0.0
 10
70.276346
 20
0.628899
 30
0.0
  0
SPLINE
  5
105
100
AcDbEntity
  8
Layer_1
 62
5
100
AcDbSpline
 70
8
 71
3
 72
8
 73
4
 74
0
 40
0
 40
0
 40
0
 40
0
 40
1
 40
1
 40
1
 40
1
 10
70.276346
 20
0.628899
 30
0.0
 10
69.166768
 20
0.257200
 30
0.0
 10
68.752229
 20
0.220830
 30
0.0
 10
65.704734
 20
0.227670
 30
0.0
  0
SPLINE
  5
106
100
AcDbEntity
  8
Layer_1
 62
5
100
AcDbSpline
 70
8
 71
3
 72
8
 73
4
 74
0
 40
0
 40
0
 40
0
 40
0
 40
1
 40
1
 40
1
 40
1
 10
65.704734
 20
0.227670
 30
0.0
 10
62.634379
 20
0.234670
 30
0.0
 10
62.212840
 20
0.274370
 30
0.0
 10
60.677663
 20
0.701639
 30
0.0
  0
SPLINE
  5
107
100
AcDbEntity
  8
Layer_1
 62
5
100
AcDbSpline
 70
8
 71
3
 72
8
 73
4
 74
0
 40
0
 40
0
 40
0
 40
0
 40
1
 40
1
 40
1
 40
1
 10
60.677663
 20
0.701639
 30
0.0
 10
56.193150
 20
1.949927
 30
0.0
 10
52.591227
 20
3.966133
 30
0.0
 10
49.736331
 20
6.826138
 30
0.0
  0
SPLINE
  5
108
100
AcDbEntity
  8
Layer_1
 62
5
100
AcDbSpline
 70
8
 71
3
 72
8
 73
4
 74
0
 40
0
 40
0
 40
0
 40
0
 40
1
 40
1
 40
1
 40
1
 10
49.736331
 20
6.826138
 30
0.0
 10
47.120654
 20
9.446514
 30
0.0
 10
46.216316
 20
11.262721
 30
0.0
 10
46.218934
 20
13.890256
 30
0.0
  0
SPLINE
  5
109
100
AcDbEntity
  8
Layer_1
 62
5
100
AcDbSpline
 70
8
 71
3
 72
8
 73
4
 74
0
 40
0
 40
0
 40
0
 40
0
 40
1
 40
1
 40
1
 40
1
 10
46.218934
 20
13.890256
 30
0.0
 10
46.220034
 20
14.984265
 30
0.0
 10
46.321839
 20
15.459744
 30
0.0
 10
46.807380
 20
16.638282
 30
0.0
  0
SPLINE
  5
10a
100
AcDbEntity
  8
Layer_1
 62
5
100
AcDbSpline
 70
8
 71
3
 72
8
 73
4
 74
0
 40
0
 40
0
 40
0
 40
0
 40
1
 40
1
 40
1
 40
1
 10
46.807380
 20
16.638282
 30
0.0
 10
47.130301
 20
17.422100
 30
0.0
 10
47.738542
 20
18.573038
 30
0.0
 10
48.159029
 20
19.195917
 30
0.0
  0
SPLINE
  5
10b
100
AcDbEntity
  8
Layer_1
 62
5
100
AcDbSpline
 70
8
 71
3
 72
8
 73
4
 74
0
 40
0
 40
0
 40
0
 40
0
 40
1
 40
1
 40
1
 40
1
 10
48.159029
 20
19.195917
 30
0.0
 10
49.699751
 20
21.478263
 30
0.0
 10
54.685073
 20
26.194165
 30
0.0
 10
58.475097
 20
28.954511
 30
0.0
  0
SPLINE
  5
10c
100
AcDbEntity
  8
Layer_1
 62
5
100
AcDbSpline
 70
8
 71
3
 72
8
 73
4
 74
0
 40
0
 40
0
 40
0
 40
0
 40
1
 40
1
 40
1
 40
1
 10
58.475097
 20
28.954511
 30
0.0
 10
59.612745
 20
29.783079
 30
0.0
 10
60.324883
 20
30.517138
 30
0.0
 10
60.324883
 20
30.861218
 30
0.0
  0
SPLINE
  5
10d
100
AcDbEntity
  8
Layer_1
 62
5
100
AcDbSpline
 70
8
 71
3
 72
8
 73
4
 74
0
 40
0
 40
0
 40
0
 40
0
 40
1
 40
1
 40
1
 40
1
 10
60.324883
 20
30.861218
 30
0.0
 10
60.324883
 20
31.037907
 30
0.0
 10
59.921144
 20
31.898666
 30
0.0
 10
59.427685
 20
32.774024
 30
0.0
  0
SPLINE
  5
10e
100
AcDbEntity
  8
Layer_1
 62
5
100
AcDbSpline
 70
8
 71
3
 72
8
 73
4
 74
0
 40
0
 40
0
 40
0
 40
0
 40
1
 40
1
 40
1
 40
1
 10
59.427685
 20
32.774024
 30
0.0
 10
58.108387
 20
35.114370
 30
0.0
 10
55.396702
 20
40.768791
 30
0.0
 10
54.187954
 20
43.699926
 30
0.0
  0
SPLINE
  5
10f
100
AcDbEntity
  8
Layer_1
 62
5
100
AcDbSpline
 70
8
 71
3
 72
8
 73
4
 74
0
 40
0
 40
0
 40
0
 40
0
 40
1
 40
1
 40
1
 40
1
 10
54.187954
 20
43.699926
 30
0.0
 10
51.976458
 20
49.062667
 30
0.0
 10
49.727111
 20
56.632404
 30
0.0
 10
48.710717
 20
62.132534
 30
0.0
  0
SPLINE
  5
110
100
AcDbEntity
  8
Layer_1
 62
5
100
AcDbSpline
 70
8
 71
3
 72
8
 73
4
 74
0
 40
0
 40
0
 40
0
 40
0
 40
1
 40
1
 40
1
 40
1
 10
48.710717
 20
62.132534
 30
0.0
 10
47.618195
 20
68.044584
 30
0.0
 10
46.968854
 20
73.177116
 30
0.0
 10
46.557250
 20
79.154035
 30
0.0
  0
SPLINE
  5
111
100
AcDbEntity
  8
Layer_1
 62
5
100
AcDbSpline
 70
8
 71
3
 72
8
 73
4
 74
0
 40
0
 40
0
 40
0
 40
0
 40
1
 40
1
 40
1
 40
1
 10
46.557250
 20
79.154035
 30
0.0
 10
46.283953
 20
83.122579
 30
0.0
 10
46.281831
 20
93.021122
 30
0.0
 10
46.553750
 20
95.558168
 30
0.0
  0
SPLINE
  5
112
100
AcDbEntity
  8
Layer_1
 62
5
100
AcDbSpline
 70
8
 71
3
 72
8
 73
4
 74
0
 40
0
 40
0
 40
0
 40
0
 40
1
 40
1
 40
1
 40
1
 10
46.553750
 20
95.558168
 30
0.0
 10
46.888137
 20
98.678252
 30
0.0
 10
46.577960
 20
99.027182
 30
0.0
 10
44.197901
 20
98.208323
 30
0.0
  0
SPLINE
  5
113
100
AcDbEntity
  8
Layer_1
 62
5
100
AcDbSpline
 70
8
 71
3
 72
8
 73
4
 74
0
 40
0
 40
0
 40
0
 40
0
 40
1
 40
1
 40
1
 40
1
 10
44.197901
 20
98.208323
 30
0.0
 10
41.869732
 20
97.407314
 30
0.0
 10
40.429256
 20
96.456916
 30
0.0
 10
38.176108
 20
94.235260
 30
0.0
  0
SPLINE
  5
114
100
AcDbEntity
  8
Layer_1
 62
5
100
AcDbSpline
 70
8
 71
3
 72
8
 73
4
 74
0
 40
0
 40
0
 40
0
 40
0
 40
1
 40
1
 40
1
 40
1
 10
38.176108
 20
94.235260
 30
0.0
 10
36.095180
 20
92.183413
 30
0.0
 10
35.011595
 20
90.897935
 30
0.0
 10
31.931335
 20
86.826932
 30
0.0
  0
SPLINE
  5
115
100
AcDbEntity
  8
Layer_1
 62
5
100
AcDbSpline
 70
8
 71
3
 72
8
 73
4
 74
0
 40
0
 40
0
 40
0
 40
0
 40
1
 40
1
 40
1
 40
1
 10
31.931335
 20
86.826932
 30
0.0
 10
28.677681
 20
82.526780
 30
0.0
 10
26.764646
 20
81.099782
 30
0.0
 10
22.396627
 20
79.714694
 30
0.0
  0
SPLINE
  5
116
100
AcDbEntity
  8
Layer_1
 62
5
100
AcDbSpline
 70
8
 71
3
 72
8
 73
4
 74
0
 40
0
 40
0
 40
0
 40
0
 40
1
 40
1
 40
1
 40
1
 10
22.396627
 20
79.714694
 30
0.0
 10
19.347463
 20
78.747806
 30
0.0
 10
19.256342
 20
78.739296
 30
0.0
 10
13.595218
 20
78.892096
 30
0.0
  0
SPLINE
  5
117
100
AcDbEntity
  8
Layer_1
 62
5
100
AcDbSpline
 70
8
 71
3
 72
8
 73
4
 74
0
 40
0
 40
0
 40
0
 40
0
 40
1
 40
1
 40
1
 40
1
 10
13.595218
 20
78.892096
 30
0.0
 10
6.435107
 20
79.085366
 30
0.0
 10
3.436376
 20
79.092046
 30
0.0
 10
2.281627
 20
78.917296
 30
0.0
  0
SPLINE
  5
118
100
AcDbEntity
  8
Layer_1
 62
5
100
AcDbSpline
 70
8
 71
3
 72
8
 73
4
 74
0
 40
0
 40
0
 40
0
 40
0
 40
1
 40
1
 40
1
 40
1
 10
0.650033
 20
79.712574
 30
0.0
 10
0.076438
 20
80.545393
 30
0.0
 10
-0.000000
 20
80.781943
 30
0.0
 10
-0.000000
 20
81.724191
 30
0.0
  0
SPLINE
  5
119
100
AcDbEntity
  8
Layer_1
 62
5
100
AcDbSpline
 70
8
 71
3
 72
8
 73
4
 74
0
 40
0
 40
0
 40
0
 40
0
 40
1
 40
1
 40
1
 40
1
 10
-0.000000
 20
81.724191
 30
0.0
 10
-0.000000
 20
83.097109
 30
0.0
 10
0.638666
 20
84.979305
 30
0.0
 10
2.240193
 20
88.326230
 30
0.0
  0
SPLINE
  5
11a
100
AcDbEntity
  8
Layer_1
 62
5
100
AcDbSpline
 70
8
 71
3
 72
8
 73
4
 74
0
 40
0
 40
0
 40
0
 40
0
 40
1
 40
1
 40
1
 40
1
 10
2.240193
 20
88.326230
 30
0.0
 10
5.162106
 20
94.432539
 30
0.0
 10
13.726269
 20
105.922250
 30
0.0
 10
23.268254
 20
116.537552
 30
0.0
  0
SPLINE
  5
11b
100
AcDbEntity
  8
Layer_1
 62
5
100
AcDbSpline
 70
8
 71
3
 72
8
 73
4
 74
0
 40
0
 40
0
 40
0
 40
0
 40
1
 40
1
 40
1
 40
1
 10
23.268254
 20
116.537552
 30
0.0
 10
26.874774
 20
120.549745
 30
0.0
 10
31.490151
 20
125.418537
 30
0.0
 10
32.821612
 20
126.615445
 30
0.0
  0
SPLINE
  5
11c
100
AcDbEntity
  8
Layer_1
 62
5
100
AcDbSpline
 70
8
 71
3
 72
8
 73
4
 74
0
 40
0
 40
0
 40
0
 40
0
 40
1
 40
1
 40
1
 40
1
 10
32.821612
 20
126.615445
 30
0.0
 10
37.745598
 20
131.041837
 30
0.0
 10
42.022206
 20
133.623973
 30
0.0
 10
46.831169
 20
135.074130
 30
0.0
  0
SPLINE
  5
11d
100
AcDbEntity
  8
Layer_1
 62
5
100
AcDbSpline
 70
8
 71
3
 72
8
 73
4
 74
0
 40
0
 40
0
 40
0
 40
0
 40
1
 40
1
 40
1
 40
1
 10
46.831169
 20
135.074130
 30
0.0
 10
49.639972
 20
135.921139
 30
0.0
 10
50.574520
 20
136.037789
 30
0.0
 10
54.504073
 20
136.031809
 30
0.0
  0
SPLINE
  5
11e
100
AcDbEntity
  8
Layer_1
 62
5
100
AcDbSpline
 70
8
 71
3
 72
8
 73
4
 74
0
 40
0
 40
0
 40
0
 40
0
 40
1
 40
1
 40
1
 40
1
 10
54.504073
 20
136.031809
 30
0.0
 10
57.874678
 20
136.026809
 30
0.0
 10
58.482787
 20
135.980109
 30
0.0
 10
59.972114
 20
135.612859
 30
0.0
  0
SPLINE
  5
11f
100
AcDbEntity
  8
Layer_1
 62
5
100
AcDbSpline
 70
8
 71
3
 72
8
 73
4
 74
0
 40
0
 40
0
 40
0
 40
0
 40
1
 40
1
 40
1
 40
1
 10
59.972114
 20
135.612859
 30
0.0
 10
62.315500
 20
135.035060
 30
0.0
 10
64.175757
 20
134.323052
 30
0.0
 10
66.260113
 20
133.206183
 30
0.0
  0
SPLINE
  5
120
100
AcDbEntity
  8
Layer_1
 62
5
100
AcDbSpline
 70
8
 71
3
 72
8
 73
4
 74
0
 40
0
 40
0
 40
0
 40
0
 40
1
 40
1
 40
1
 40
1
 10
66.260113
 20
133.206183
 30
0.0
 10
67.244662
 20
132.678624
 30
0.0
 10
68.218020
 20
132.246985
 30
0.0
 10
68.423150
 20
132.246985
 30
0.0
  0
SPLINE
  5
121
100
AcDbEntity
  8
Layer_1
 62
5
100
AcDbSpline
 70
8
 71
3
 72
8
 73
4
 74
0
 40
0
 40
0
 40
0
 40
0
 40
1
 40
1
 40
1
 40
1
 10
68.423150
 20
132.246985
 30
0.0
 10
68.628269
 20
132.246985
 30
0.0
 10
69.648358
 20
132.676644
 30
0.0
 10
70.689996
 20
133.201773
 30
0.0
  0
SPLINE
  5
122
100
AcDbEntity
  8
Layer_1
 62
5
100
AcDbSpline
 70
8
 71
3
 72
8
 73
4
 74
0
 40
0
 40
0
 40
0
 40
0
 40
1
 40
1
 40
1
 40
1
 10
70.689996
 20
133.201773
 30
0.0
 10
75.122468
 20
135.436360
 30
0.0
 10
79.041222
 20
136.869217
 30
0.0
 10
84.490132
 20
138.247695
 30
0.0
  0
SPLINE
  5
123
100
AcDbEntity
  8
Layer_1
 62
5
100
AcDbSpline
 70
8
 71
3
 72
8
 73
4
 74
0
 40
0
 40
0
 40
0
 40
0
 40
1
 40
1
 40
1
 40
1
 10
84.490132
 20
138.247695
 30
0.0
 10
86.160049
 20
138.670154
 30
0.0
 10
86.430409
 20
138.825544
 30
0.0
 10
86.430409
 20
139.362863
 30
0.0
  0
SPLINE
  5
124
100
AcDbEntity
  8
Layer_1
 62
5
100
AcDbSpline
 70
8
 71
3
 72
8
 73
4
 74
0
 40
0
 40
0
 40
0
 40
0
 40
1
 40
1
 40
1
 40
1
 10
86.430409
 20
139.362863
 30
0.0
 10
86.430409
 20
139.566323
 30
0.0
 10
85.952300
 20
141.218190
 30
0.0
 10
85.367961
 20
143.033687
 30
0.0
  0
SPLINE
  5
125
100
AcDbEntity
  8
Layer_1
 62
5
100
AcDbSpline
 70
8
 71
3
 72
8
 73
4
 74
0
 40
0
 40
0
 40
0
 40
0
 40
1
 40
1
 40
1
 40
1
 10
85.367961
 20
143.033687
 30
0.0
 10
83.957013
 20
147.417339
 30
0.0
 10
82.879795
 20
151.498532
 30
0.0
 10
82.228836
 20
154.926721
 30
0.0
  0
SPLINE
  5
126
100
AcDbEntity
  8
Layer_1
 62
5
100
AcDbSpline
 70
8
 71
3
 72
8
 73
4
 74
0
 40
0
 40
0
 40
0
 40
0
 40
1
 40
1
 40
1
 40
1
 10
82.228836
 20
154.926721
 30
0.0
 10
81.206238
 20
160.312153
 30
0.0
 10
80.987788
 20
162.186056
 30
0.0
 10
80.843019
 20
166.814383
 30
0.0
  0
SPLINE
  5
127
100
AcDbEntity
  8
Layer_1
 62
5
100
AcDbSpline
 70
8
 71
3
 72
8
 73
4
 74
0
 40
0
 40
0
 40
0
 40
0
 40
1
 40
1
 40
1
 40
1
 10
80.843019
 20
166.814383
 30
0.0
 10
80.740919
 20
170.078599
 30
0.0
 10
80.770419
 20
170.455317
 30
0.0
 10
81.513137
 20
175.373996
 30
0.0
  0
SPLINE
  5
128
100
AcDbEntity
  8
Layer_1
 62
5
100
AcDbSpline
 70
8
 71
3
 72
8
 73
4
 74
0
 40
0
 40
0
 40
0
 40
0
 40
1
 40
1
 40
1
 40
1
 10
81.513137
 20
175.373996
 30
0.0
 10
82.020047
 20
178.731008
 30
0.0
 10
83.037245
 20
181.552110
 30
0.0
 10
84.629552
 20
184.017037
 30
0.0
  0
SPLINE
  5
129
100
AcDbEntity
  8
Layer_1
 62
5
100
AcDbSpline
 70
8
 71
3
 72
8
 73
4
 74
0
 40
0
 40
0
 40
0
 40
0
 40
1
 40
1
 40
1
 40
1
 10
84.629552
 20
184.017037
 30
0.0
 10
86.111530
 20
186.311170
 30
0.0
 10
86.894738
 20
187.232815
 30
0.0
 10
88.713615
 20
188.822987
 30
0.0
  0
SPLINE
  5
12a
100
AcDbEntity
  8
Layer_1
 62
5
100
AcDbSpline
 70
8
 71
3
 72
8
 73
4
 74
0
 40
0
 40
0
 40
0
 40
0
 40
1
 40
1
 40
1
 40
1
 10
88.713615
 20
188.822987
 30
0.0
 10
91.663030
 20
191.401540
 30
0.0
 10
94.864015
 20
192.821207
 30
0.0
 10
100.012326
 20
193.834072
 30
0.0
  0
SPLINE
  5
12b
100
AcDbEntity
  8
Layer_1
 62
5
100
AcDbSpline
 70
8
 71
3
 72
8
 73
4
 74
0
 40
0
 40
0
 40
0
 40
0
 40
1
 40
1
 40
1
 40
1
 10
100.012326
 20
193.834072
 30
0.0
 10
100.774305
 20
193.983982
 30
0.0
 10
102.756201
 20
194.058502
 30
0.0
 10
105.921350
 20
194.056253
 30
0.0
  0
SPLINE
  5
12c
100
AcDbEntity
  8
Layer_1
 62
5
100
AcDbSpline
 70
8
 71
3
 72
8
 73
4
 74
0
 40
0
 40
0
 40
0
 40
0
 40
1
 40
1
 40
1
 40
1
 10
105.921350
 20
194.056253
 30
0.0
 10
110.211093
 20
194.053153
 30
0.0
 10
110.876441
 20
194.012433
 30
0.0
 10
112.624118
 20
193.645471
 30
0.0
  0
SPLINE
  5
12d
100
AcDbEntity
  8
Layer_1
 62
5
100
AcDbSpline
 70
8
 71
3
 72
8
 73
4
 74
0
 40
0
 40
0
 40
0
 40
0
 40
1
 40
1
 40
1
 40
1
 10
112.624118
 20
193.645471
 30
0.0
 10
117.209001
 20
192.682787
 30
0.0
 10
120.408095
 20
191.228949
 30
0.0
 10
123.104671
 20
188.882547
 30
0.0
  0
SPLINE
  5
12e
100
AcDbEntity
  8
Layer_1
 62
5
100
AcDbSpline
 70
8
 71
3
 72
8
 73
4
 74
0
 40
0
 40
0
 40
0
 40
0
 40
1
 40
1
 40
1
 40
1
 10
123.104671
 20
188.882547
 30
0.0
 10
128.287682
 20
184.372595
 30
0.0
 10
130.885967
 20
177.499330
 30
0.0
 10
130.878487
 20
168.318453
 30
0.0
  0
SPLINE
  5
12f
100
AcDbEntity
  8
Layer_1
 62
5
100
AcDbSpline
 70
8
 71
3
 72
8
 73
4
 74
0
 40
0
 40
0
 40
0
 40
0
 40
1
 40
1
 40
1
 40
1
 10
130.878487
 20
168.318453
 30
0.0
 10
130.872487
 20
160.488829
 30
0.0
 10
129.141000
 20
151.272193
 30
0.0
 10
125.861076
 20
141.605019
 30
0.0
  0
SPLINE
  5
130
100
AcDbEntity
  8
Layer_1
 62
5
100
AcDbSpline
 70
8
 71
3
 72
8
 73
4
 74
0
 40
0
 40
0
 40
0
 40
0
 40
1
 40
1
 40
1
 40
1
 10
125.861076
 20
141.605019
 30
0.0
 10
125.187577
 20
139.619963
 30
0.0
 10
125.111957
 20
139.095813
 30
0.0
 10
125.457677
 20
138.808884
 30
0.0
  0
SPLINE
  5
131
100
AcDbEntity
  8
Layer_1
 62
5
100
AcDbSpline
 70
8
 71
3
 72
8
 73
4
 74
0
 40
0
 40
0
 40
0
 40
0
 40
1
 40
1
 40
1
 40
1
 10
125.457677
 20
138.808884
 30
0.0
 10
125.579656
 20
138.707654
 30
0.0
 10
126.484345
 20
138.420795
 30
0.0
 10
127.468103
 20
138.171425
 30
0.0
  0
SPLINE
  5
132
100
AcDbEntity
  8
Layer_1
 62
5
100
AcDbSpline
 70
8
 71
3
 72
8
 73
4
 74
0
 40
0
 40
0
 40
0
 40
0
 40
1
 40
1
 40
1
 40
1
 10
127.468103
 20
138.171425
 30
0.0
 10
132.334095
 20
136.937967
 30
0.0
 10
136.597118
 20
135.382750
 30
0.0
 10
140.627641
 20
133.370623
 30
0.0
  0
SPLINE
  5
133
100
AcDbEntity
  8
Layer_1
 62
5
100
AcDbSpline
 70
8
 71
3
 72
8
 73
4
 74
0
 40
0
 40
0
 40
0
 40
0
 40
1
 40
1
 40
1
 40
1
 10
140.627641
 20
133.370623
 30
0.0
 10
141.865579
 20
132.752624
 30
0.0
 10
143.063347
 20
132.246985
 30
0.0
 10
143.289346
 20
132.246985
 30
0.0
  0
SPLINE
  5
134
100
AcDbEntity
  8
Layer_1
 62
5
100
AcDbSpline
 70
8
 71
3
 72
8
 73
4
 74
0
 40
0
 40
0
 40
0
 40
0
 40
1
 40
1
 40
1
 40
1
 10
143.289346
 20
132.246985
 30
0.0
 10
143.515346
 20
132.246985
 30
0.0
 10
144.407484
 20
132.644004
 30
0.0
 10
145.271883
 20
133.129244
 30
0.0
  0
SPLINE
  5
135
100
AcDbEntity
  8
Layer_1
 62
5
100
AcDbSpline
 70
8
 71
3
 72
8
 73
4
 74
0
 40
0
 40
0
 40
0
 40
0
 40
1
 40
1
 40
1
 40
1
 10
145.271883
 20
133.129244
 30
0.0
 10
147.204100
 20
134.213932
 30
0.0
 10
149.092546
 20
134.949601
 30
0.0
 10
151.517802
 20
135.562439
 30
0.0
  0
SPLINE
  5
136
100
AcDbEntity
  8
Layer_1
 62
5
100
AcDbSpline
 70
8
 71
3
 72
8
 73
4
 74
0
 40
0
 40
0
 40
0
 40
0
 40
1
 40
1
 40
1
 40
1
 10
151.517802
 20
135.562439
 30
0.0
 10
153.245279
 20
135.998959
 30
0.0
 10
153.630939
 20
136.030319
 30
0.0
 10
157.250433
 20
136.028579
 30
0.0
  0
SPLINE
  5
137
100
AcDbEntity
  8
Layer_1
 62
5
100
AcDbSpline
 70
8
 71
3
 72
8
 73
4
 74
0
 40
0
 40
0
 40
0
 40
0
 40
1
 40
1
 40
1
 40
1
 10
157.250433
 20
136.028579
 30
0.0
 10
160.815047
 20
136.026579
 30
0.0
 10
161.288946
 20
135.989279
 30
0.0
 10
163.071253
 20
135.566749
 30
0.0
  0
SPLINE
  5
138
100
AcDbEntity
  8
Layer_1
 62
5
100
AcDbSpline
 70
8
 71
3
 72
8
 73
4
 74
0
 40
0
 40
0
 40
0
 40
0
 40
1
 40
1
 40
1
 40
1
 10
163.071253
 20
135.566749
 30
0.0
 10
169.267432
 20
134.097872
 30
0.0
 10
175.392222
 20
130.304018
 30
0.0
 10
181.151082
 20
124.367629
 30
0.0
  0
SPLINE
  5
139
100
AcDbEntity
  8
Layer_1
 62
5
100
AcDbSpline
 70
8
 71
3
 72
8
 73
4
 74
0
 40
0
 40
0
 40
0
 40
0
 40
1
 40
1
 40
1
 40
1
 10
181.151082
 20
124.367629
 30
0.0
 10
188.581519
 20
116.708142
 30
0.0
 10
196.167286
 20
107.820247
 30
0.0
 10
202.157566
 20
99.755300
 30
0.0
  0
SPLINE
  5
13a
100
AcDbEntity
  8
Layer_1
 62
5
100
AcDbSpline
 70
8
 71
3
 72
8
 73
4
 74
0
 40
0
 40
0
 40
0
 40
0
 40
1
 40
1
 40
1
 40
1
 10
202.157566
 20
99.755300
 30
0.0
 10
204.571942
 20
96.504746
 30
0.0
 10
204.807272
 20
96.153516
 30
0.0
 10
207.215248
 20
92.206773
 30
0.0
  0
SPLINE
  5
13b
100
AcDbEntity
  8
Layer_1
 62
5
100
AcDbSpline
 70
8
 71
3
 72
8
 73
4
 74
0
 40
0
 40
0
 40
0
 40
0
 40
1
 40
1
 40
1
 40
1
 10
207.215248
 20
92.206773
 30
0.0
 10
210.394522
 20
86.995822
 30
0.0
 10
211.666310
 20
83.995247
 30
0.0
 10
211.666310
 20
81.705121
 30
0.0
  0
SPLINE
  5
13c
100
AcDbEntity
  8
Layer_1
 62
5
100
AcDbSpline
 70
8
 71
3
 72
8
 73
4
 74
0
 40
0
 40
0
 40
0
 40
0
 40
1
 40
1
 40
1
 40
1
 10
211.666310
 20
81.705121
 30
0.0
 10
211.666310
 20
80.596043
 30
0.0
 10
211.606210
 20
80.344383
 30
0.0
 10
211.236391
 20
79.904884
 30
0.0
  0
SPLINE
  5
13d
100
AcDbEntity
  8
Layer_1
 62
5
100
AcDbSpline
 70
8
 71
3
 72
8
 73
4
 74
0
 40
0
 40
0
 40
0
 40
0
 40
1
 40
1
 40
1
 40
1
 10
211.236391
 20
79.904884
 30
0.0
 10
210.999941
 20
79.623875
 30
0.0
 10
210.483112
 20
79.248135
 30
0.0
 10
210.087853
 20
79.069916
 30
0.0
  0
SPLINE
  5
13e
100
AcDbEntity
  8
Layer_1
 62
5
100
AcDbSpline
 70
8
 71
3
 72
8
 73
4
 74
0
 40
0
 40
0
 40
0
 40
0
 40
1
 40
1
 40
1
 40
1
 10
210.087853
 20
79.069916
 30
0.0
 10
209.446364
 20
78.780636
 30
0.0
 10
209.267544
 20
78.770256
 30
0.0
 10
208.421566
 20
78.973216
 30
0.0
  0
SPLINE
  5
13f
100
AcDbEntity
  8
Layer_1
 62
5
100
AcDbSpline
 70
8
 71
3
 72
8
 73
4
 74
0
 40
0
 40
0
 40
0
 40
0
 40
1
 40
1
 40
1
 40
1
 10
208.421566
 20
78.973216
 30
0.0
 10
207.746647
 20
79.135125
 30
0.0
 10
206.744608
 20
79.168635
 30
0.0
 10
204.939901
 20
79.089656
 30
0.0
  0
SPLINE
  5
140
100
AcDbEntity
  8
Layer_1
 62
5
100
AcDbSpline
 70
8
 71
3
 72
8
 73
4
 74
0
 40
0
 40
0
 40
0
 40
0
 40
1
 40
1
 40
1
 40
1
 10
204.939901
 20
79.089656
 30
0.0
 10
198.272983
 20
78.797876
 30
0.0
 10
194.324700
 20
78.758566
 30
0.0
 10
192.741682
 20
78.968216
 30
0.0
  0
SPLINE
  5
141
100
AcDbEntity
  8
Layer_1
 62
5
100
AcDbSpline
 70
8
 71
3
 72
8
 73
4
 74
0
 40
0
 40
0
 40
0
 40
0
 40
1
 40
1
 40
1
 40
1
 10
192.741682
 20
78.968216
 30
0.0
 10
188.290000
 20
79.557785
 30
0.0
 10
185.284535
 20
80.872922
 30
0.0
 10
182.673949
 20
83.373678
 30
0.0
  0
SPLINE
  5
142
100
AcDbEntity
  8
Layer_1
 62
5
100
AcDbSpline
 70
8
 71
3
 72
8
 73
4
 74
0
 40
0
 40
0
 40
0
 40
0
 40
1
 40
1
 40
1
 40
1
 10
182.673949
 20
83.373678
 30
0.0
 10
182.007820
 20
84.011787
 30
0.0
 10
180.286073
 20
86.042004
 30
0.0
 10
178.847856
 20
87.885271
 30
0.0
  0
SPLINE
  5
143
100
AcDbEntity
  8
Layer_1
 62
5
100
AcDbSpline
 70
8
 71
3
 72
8
 73
4
 74
0
 40
0
 40
0
 40
0
 40
0
 40
1
 40
1
 40
1
 40
1
 10
178.847856
 20
87.885271
 30
0.0
 10
174.303094
 20
93.709941
 30
0.0
 10
172.632026
 20
95.434978
 30
0.0
 10
170.036911
 20
96.980735
 30
0.0
  0
SPLINE
  5
144
100
AcDbEntity
  8
Layer_1
 62
5
100
AcDbSpline
 70
8
 71
3
 72
8
 73
4
 74
0
 40
0
 40
0
 40
0
 40
0
 40
1
 40
1
 40
1
 40
1
 10
170.036911
 20
96.980735
 30
0.0
 10
168.022934
 20
98.180323
 30
0.0
 10
165.648588
 20
98.780502
 30
0.0
 10
165.255239
 20
98.189423
 30
0.0
  0
SPLINE
  5
145
100
AcDbEntity
  8
Layer_1
 62
5
100
AcDbSpline
 70
8
 71
3
 72
8
 73
4
 74
0
 40
0
 40
0
 40
0
 40
0
 40
1
 40
1
 40
1
 40
1
 10
165.255239
 20
98.189423
 30
0.0
 10
165.163739
 20
98.051923
 30
0.0
 10
165.132049
 20
97.542544
 30
0.0
 10
165.184839
 20
97.057475
 30
0.0
  0
SPLINE
  5
146
100
AcDbEntity
  8
Layer_1
 62
5
100
AcDbSpline
 70
8
 71
3
 72
8
 73
4
 74
0
 40
0
 40
0
 40
0
 40
0
 40
1
 40
1
 40
1
 40
1
 10
165.184839
 20
97.057475
 30
0.0
 10
165.237639
 20
96.572406
 30
0.0
 10
165.327269
 20
93.040222
 30
0.0
 10
165.384059
 20
89.208178
 30
0.0
  0
SPLINE
  5
147
100
AcDbEntity
  8
Layer_1
 62
5
100
AcDbSpline
 70
8
 71
3
 72
8
 73
4
 74
0
 40
0
 40
0
 40
0
 40
0
 40
1
 40
1
 40
1
 40
1
 10
165.384059
 20
89.208178
 30
0.0
 10
165.502249
 20
81.232882
 30
0.0
 10
165.250009
 20
76.411230
 30
0.0
 10
164.396710
 20
70.334600
 30
0.0
  0
SPLINE
  5
148
100
AcDbEntity
  8
Layer_1
 62
5
100
AcDbSpline
 70
8
 71
3
 72
8
 73
4
 74
0
 40
0
 40
0
 40
0
 40
0
 40
1
 40
1
 40
1
 40
1
 10
164.396710
 20
70.334600
 30
0.0
 10
162.465614
 20
56.582474
 30
0.0
 10
158.672900
 20
44.520524
 30
0.0
 10
152.999060
 20
34.086752
 30
0.0
  0
SPLINE
  5
149
100
AcDbEntity
  8
Layer_1
 62
5
100
AcDbSpline
 70
8
 71
3
 72
8
 73
4
 74
0
 40
0
 40
0
 40
0
 40
0
 40
1
 40
1
 40
1
 40
1
 10
152.999060
 20
34.086752
 30
0.0
 10
151.371433
 20
31.093667
 30
0.0
 10
151.272093
 20
30.841958
 30
0.0
 10
151.569072
 20
30.463568
 30
0.0
  0
SPLINE
  5
14a
100
AcDbEntity
  8
Layer_1
 62
5
100
AcDbSpline
 70
8
 71
3
 72
8
 73
4
 74
0
 40
0
 40
0
 40
0
 40
0
 40
1
 40
1
 40
1
 40
1
 10
151.569072
 20
30.463568
 30
0.0
 10
151.686402
 20
30.314078
 30
0.0
 10
153.131760
 20
29.113140
 30
0.0
 10
154.780997
 20
27.794793
 30
0.0
  0
SPLINE
  5
14b
100
AcDbEntity
  8
Layer_1
 62
5
100
AcDbSpline
 70
8
 71
3
 72
8
 73
4
 74
0
 40
0
 40
0
 40
0
 40
0
 40
1
 40
1
 40
1
 40
1
 10
154.780997
 20
27.794793
 30
0.0
 10
158.079721
 20
25.157887
 30
0.0
 10
162.275374
 20
21.023394
 30
0.0
 10
163.509772
 20
19.193237
 30
0.0
  0
SPLINE
  5
14c
100
AcDbEntity
  8
Layer_1
 62
5
100
AcDbSpline
 70
8
 71
3
 72
8
 73
4
 74
0
 40
0
 40
0
 40
0
 40
0
 40
1
 40
1
 40
1
 40
1
 10
163.509772
 20
19.193237
 30
0.0
 10
163.930891
 20
18.568888
 30
0.0
 10
164.547670
 20
17.390300
 30
0.0
 10
164.880410
 20
16.574162
 30
0.0
  0
SPLINE
  5
14d
100
AcDbEntity
  8
Layer_1
 62
5
100
AcDbSpline
 70
8
 71
3
 72
8
 73
4
 74
0
 40
0
 40
0
 40
0
 40
0
 40
1
 40
1
 40
1
 40
1
 10
164.880410
 20
16.574162
 30
0.0
 10
165.444189
 20
15.191314
 30
0.0
 10
165.481219
 20
14.980385
 30
0.0
 10
165.424469
 20
13.476037
 30
0.0
  0
SPLINE
  5
14e
100
AcDbEntity
  8
Layer_1
 62
5
100
AcDbSpline
 70
8
 71
3
 72
8
 73
4
 74
0
 40
0
 40
0
 40
0
 40
0
 40
1
 40
1
 40
1
 40
1
 10
165.424469
 20
13.476037
 30
0.0
 10
165.368469
 20
11.991680
 30
0.0
 10
165.301619
 20
11.734040
 30
0.0
 10
164.593790
 20
10.274293
 30
0.0
  0
SPLINE
  5
14f
100
AcDbEntity
  8
Layer_1
 62
5
100
AcDbSpline
 70
8
 71
3
 72
8
 73
4
 74
0
 40
0
 40
0
 40
0
 40
0
 40
1
 40
1
 40
1
 40
1
 10
164.593790
 20
10.274293
 30
0.0
 10
163.910981
 20
8.866165
 30
0.0
 10
163.592162
 20
8.457606
 30
0.0
 10
161.771945
 20
6.658319
 30
0.0
  0
SPLINE
  5
150
100
AcDbEntity
  8
Layer_1
 62
5
100
AcDbSpline
 70
8
 71
3
 72
8
 73
4
 74
0
 40
0
 40
0
 40
0
 40
0
 40
1
 40
1
 40
1
 40
1
 10
161.771945
 20
6.658319
 30
0.0
 10
159.440699
 20
4.353873
 30
0.0
 10
157.286183
 20
2.948715
 30
0.0
 10
154.005868
 20
1.593307
 30
0.0
  0
SPLINE
  5
151
100
AcDbEntity
  8
Layer_1
 62
5
100
AcDbSpline
 70
8
 71
3
 72
8
 73
4
 74
0
 40
0
 40
0
 40
0
 40
0
 40
1
 40
1
 40
1
 40
1
 10
154.005868
 20
1.593307
 30
0.0
 10
152.976980
 20
1.168188
 30
0.0
 10
151.976422
 20
0.730469
 30
0.0
 10
151.782392
 20
0.620609
 30
0.0
  0
SPLINE
  5
152
100
AcDbEntity
  8
Layer_1
 62
5
100
AcDbSpline
 70
8
 71
3
 72
8
 73
4
 74
0
 40
0
 40
0
 40
0
 40
0
 40
1
 40
1
 40
1
 40
1
 10
151.782392
 20
0.620609
 30
0.0
 10
151.312983
 20
0.354809
 30
0.0
 10
149.441596
 20
0.236810
 30
0.0
 10
145.696982
 20
0.236880
 30
0.0
  0
SPLINE
  5
153
100
AcDbEntity
  8
Layer_1
 62
5
100
AcDbSpline
 70
8
 71
3
 72
8
 73
4
 74
0
 40
0
 40
0
 40
0
 40
0
 40
1
 40
1
 40
1
 40
1
 10
145.696982
 20
0.236880
 30
0.0
 10
140.918930
 20
0.236980
 30
0.0
 10
141.138220
 20
0.135860
 30
0.0
 10
133.533433
 20
5.845720
 30
0.0
  0
SPLINE
  5
154
100
AcDbEntity
  8
Layer_1
 62
5
100
AcDbSpline
 70
8
 71
3
 72
8
 73
4
 74
0
 40
0
 40
0
 40
0
 40
0
 40
1
 40
1
 40
1
 40
1
 10
133.533433
 20
5.845720
 30
0.0
 10
131.890466
 20
7.079288
 30
0.0
 10
130.644798
 20
7.893047
 30
0.0
 10
130.399438
 20
7.893047
 30
0.0
  0
SPLINE
  5
155
100
AcDbEntity
  8
Layer_1
 62
5
100
AcDbSpline
 70
8
 71
3
 72
8
 73
4
 74
0
 40
0
 40
0
 40
0
 40
0
 40
1
 40
1
 40
1
 40
1
 10
130.399438
 20
7.893047
 30
0.0
 10
130.175459
 20
7.893047
 30
0.0
 10
129.374370
 20
7.509837
 30
0.0
 10
128.619231
 20
7.041488
 30
0.0
  0
SPLINE
  5
156
100
AcDbEntity
  8
Layer_1
 62
5
100
AcDbSpline
 70
8
 71
3
 72
8
 73
4
 74
0
 40
0
 40
0
 40
0
 40
0
 40
1
 40
1
 40
1
 40
1
 10
128.619231
 20
7.041488
 30
0.0
 10
122.759371
 20
3.407094
 30
0.0
 10
118.139699
 20
1.581507
 30
0.0
 10
111.742180
 20
0.372059
 30
0.0
  0
SPLINE
  5
157
100
AcDbEntity
  8
Layer_1
 62
5
100
AcDbSpline
 70
8
 71
3
 72
8
 73
4
 74
0
 40
0
 40
0
 40
0
 40
0
 40
1
 40
1
 40
1
 40
1
 10
111.742180
 20
0.372059
 30
0.0
 10
110.393412
 20
0.117090
 30
0.0
 10
103.459010
 20
-0.111190
 30
0.0
 10
102.217192
 20
0.058510
 30
0.0
  0
LWPOLYLINE
  5
158
100
AcDbEntity
  8
Layer_1
 62
5
100
AcDbPolyline
 90
3
 70
0
 10
2.281627
 20
78.917296
 30
0.0
 10
1.300060
 20
78.768756
 30
0.0
 10
0.650033
 20
79.712574
 30
0.0
  0
LWPOLYLINE
  5
159
100
AcDbEntity
  8
Layer_1
 62
5
100
AcDbPolyline
 90
1
 70
1
 10
102.217192
 20
0.058510
 30
0.0
  0
ENDSEC
  0
SECTION
  2
OBJECTS
  0
DICTIONARY
  5
C
330
0
100
AcDbDictionary
  3
ACAD_GROUP
350
D
  3
ACAD_MLINESTYLE
350
17
  0
DICTIONARY
  5
D
330
C
100
AcDbDictionary
  0
DICTIONARY
  5
1A
330
C
100
AcDbDictionary
  0
DICTIONARY
  5
17
330
C
100
AcDbDictionary
  3
STANDARD
350
18
  0
DICTIONARY
  5
19
330
C
100
AcDbDictionary
  0
ENDSEC
  0
EOF
