M48
; DRILL file {KiCad (5.1.12-1-10_14)} date Thursday, December 02, 2021 at 07:43:42 PM
; FORMAT={-:-/ absolute / inch / decimal}
; #@! TF.CreationDate,2021-12-02T19:43:42-05:00
; #@! TF.GenerationSoftware,Kicad,Pcbnew,(5.1.12-1-10_14)
; #@! TF.FileFunction,NonPlated,1,4,NPTH
FMAT,2
INCH
T1C0.0197
T2C0.0354
T3C0.0454
T4C0.0787
%
G90
G05
T1
X6.3386Y-3.1398
X6.3386Y-3.1693
X6.3386Y-3.1988
X6.3386Y-3.2283
X6.3386Y-3.2579
X6.3386Y-3.2874
X6.3386Y-3.2874
X6.3386Y-3.3169
X6.4173Y-3.1398
X6.4173Y-3.1693
X6.4173Y-3.1988
X6.4173Y-3.2283
X6.4173Y-3.2579
X6.4173Y-3.2874
X6.4173Y-3.2874
X6.4173Y-3.3169
X8.5433Y-3.1398
X8.5433Y-3.1693
X8.5433Y-3.1988
X8.5433Y-3.2283
X8.5433Y-3.2579
X8.5433Y-3.2874
X8.5433Y-3.2874
X8.5433Y-3.3169
X8.622Y-3.1398
X8.622Y-3.1693
X8.622Y-3.1988
X8.622Y-3.2283
X8.622Y-3.2579
X8.622Y-3.2874
X8.622Y-3.2874
X8.622Y-3.3169
T2
X7.3465Y-4.3504
X7.6142Y-4.3504
T3
X6.2402Y-1.7717
X6.2402Y-4.1929
X8.7205Y-4.1732
T4
X6.2402Y-1.5945
X6.2402Y-4.3504
X8.7205Y-1.5945
X8.7205Y-4.3504
T0
M30
