G04 #@! TF.GenerationSoftware,KiCad,Pcbnew,(5.1.12-1-10_14)*
G04 #@! TF.CreationDate,2021-12-02T19:43:45-05:00*
G04 #@! TF.ProjectId,blinky,626c696e-6b79-42e6-9b69-6361645f7063,rev?*
G04 #@! TF.SameCoordinates,Original*
G04 #@! TF.FileFunction,Profile,NP*
%FSLAX46Y46*%
G04 Gerber Fmt 4.6, Leading zero omitted, Abs format (unit mm)*
G04 Created by KiCad (PCBNEW (5.1.12-1-10_14)) date 2021-12-02 19:43:45*
%MOMM*%
%LPD*%
G01*
G04 APERTURE LIST*
G04 #@! TA.AperFunction,Profile*
%ADD10C,0.050000*%
G04 #@! TD*
G04 APERTURE END LIST*
D10*
X217000000Y-79500000D02*
X219000000Y-79500000D01*
X219000000Y-84500000D02*
X217000000Y-84500000D01*
X219000000Y-113000000D02*
X219000000Y-84500000D01*
X224000000Y-113000000D02*
X219000000Y-113000000D01*
X224000000Y-37000000D02*
X224000000Y-113000000D01*
X219000000Y-37000000D02*
X224000000Y-37000000D01*
X219000000Y-79500000D02*
X219000000Y-37000000D01*
X161000000Y-79500000D02*
X163000000Y-79500000D01*
X161000000Y-37000000D02*
X161000000Y-79500000D01*
X156000000Y-37000000D02*
X161000000Y-37000000D01*
X156000000Y-113000000D02*
X156000000Y-37000000D01*
X161000000Y-113000000D02*
X156000000Y-113000000D01*
X161000000Y-84500000D02*
X161000000Y-113000000D01*
X163000000Y-84500000D02*
X161000000Y-84500000D01*
X217000000Y-86000000D02*
X217000000Y-84500000D01*
X217000000Y-78000000D02*
X217000000Y-79500000D01*
X163000000Y-86000000D02*
X163000000Y-84500000D01*
X163000000Y-78000000D02*
X163000000Y-79500000D01*
X182017346Y-52056376D02*
G75*
G03*
X163000000Y-78000000I7922972J-25749657D01*
G01*
X190000000Y-41000000D02*
X199000000Y-43000000D01*
X197982654Y-52056376D02*
G75*
G02*
X217000000Y-78000000I-7922972J-25749657D01*
G01*
X199000000Y-43000000D02*
X197982654Y-52056375D01*
X181000000Y-43000000D02*
X182017346Y-52056375D01*
X190000000Y-41000000D02*
X181000000Y-43000000D01*
X217000000Y-86000000D02*
G75*
G02*
X163000000Y-86000000I-27000000J0D01*
G01*
M02*
