G04 #@! TF.GenerationSoftware,KiCad,Pcbnew,(5.1.5-0-10_14)*
G04 #@! TF.CreationDate,2021-11-19T11:56:32-05:00*
G04 #@! TF.ProjectId,MinimalSAMD21,4d696e69-6d61-46c5-9341-4d4432312e6b,rev?*
G04 #@! TF.SameCoordinates,Original*
G04 #@! TF.FileFunction,Legend,Top*
G04 #@! TF.FilePolarity,Positive*
%FSLAX46Y46*%
G04 Gerber Fmt 4.6, Leading zero omitted, Abs format (unit mm)*
G04 Created by KiCad (PCBNEW (5.1.5-0-10_14)) date 2021-11-19 11:56:32*
%MOMM*%
%LPD*%
G04 APERTURE LIST*
%ADD10C,0.150000*%
%ADD11C,0.120000*%
%ADD12C,0.050000*%
%ADD13C,0.100000*%
G04 APERTURE END LIST*
D10*
X191750000Y-91910714D02*
X191750000Y-92196428D01*
X191785714Y-92232142D02*
X191928571Y-92339285D01*
X191785714Y-91875000D02*
X191928571Y-91767857D01*
X191785714Y-91839285D02*
X191785714Y-92267857D01*
X191821428Y-92267857D02*
X191821428Y-91839285D01*
X191857142Y-91803571D02*
X191857142Y-92303571D01*
X191892857Y-92303571D02*
X191892857Y-91803571D01*
X191928571Y-91767857D02*
X191928571Y-92339285D01*
X191964285Y-92339285D02*
X191964285Y-91767857D01*
X192000000Y-91767857D02*
X192000000Y-92339285D01*
X192035714Y-92339285D02*
X192035714Y-91767857D01*
X192071428Y-92339285D02*
X192214285Y-92232142D01*
X192071428Y-91767857D02*
X192071428Y-92339285D01*
X192071428Y-91767857D02*
X192214285Y-91875000D01*
X192107142Y-92303571D02*
X192107142Y-91803571D01*
X192142857Y-91803571D02*
X192142857Y-92303571D01*
X192178571Y-92267857D02*
X192178571Y-91839285D01*
X192214285Y-91839285D02*
X192214285Y-92267857D01*
X192250000Y-92196428D02*
X192250000Y-91910714D01*
X191928571Y-91767857D02*
X192071428Y-91767857D01*
X192214285Y-91839285D01*
X192285714Y-91982142D01*
X192285714Y-92125000D01*
X192214285Y-92267857D01*
X192071428Y-92339285D01*
X191928571Y-92339285D01*
X191785714Y-92267857D01*
X191714285Y-92125000D01*
X191714285Y-91982142D01*
X191785714Y-91839285D01*
X191928571Y-91767857D01*
X148750000Y-94910714D02*
X148750000Y-95196428D01*
X148785714Y-95232142D02*
X148928571Y-95339285D01*
X148785714Y-94875000D02*
X148928571Y-94767857D01*
X148785714Y-94839285D02*
X148785714Y-95267857D01*
X148821428Y-95267857D02*
X148821428Y-94839285D01*
X148857142Y-94803571D02*
X148857142Y-95303571D01*
X148892857Y-95303571D02*
X148892857Y-94803571D01*
X148928571Y-94767857D02*
X148928571Y-95339285D01*
X148964285Y-95339285D02*
X148964285Y-94767857D01*
X149000000Y-94767857D02*
X149000000Y-95339285D01*
X149035714Y-95339285D02*
X149035714Y-94767857D01*
X149071428Y-95339285D02*
X149214285Y-95232142D01*
X149071428Y-94767857D02*
X149071428Y-95339285D01*
X149071428Y-94767857D02*
X149214285Y-94875000D01*
X149107142Y-95303571D02*
X149107142Y-94803571D01*
X149142857Y-94803571D02*
X149142857Y-95303571D01*
X149178571Y-95267857D02*
X149178571Y-94839285D01*
X149214285Y-94839285D02*
X149214285Y-95267857D01*
X149250000Y-95196428D02*
X149250000Y-94910714D01*
X148928571Y-94767857D02*
X149071428Y-94767857D01*
X149214285Y-94839285D01*
X149285714Y-94982142D01*
X149285714Y-95125000D01*
X149214285Y-95267857D01*
X149071428Y-95339285D01*
X148928571Y-95339285D01*
X148785714Y-95267857D01*
X148714285Y-95125000D01*
X148714285Y-94982142D01*
X148785714Y-94839285D01*
X148928571Y-94767857D01*
X149595238Y-81428571D02*
X149738095Y-81476190D01*
X149785714Y-81523809D01*
X149833333Y-81619047D01*
X149833333Y-81761904D01*
X149785714Y-81857142D01*
X149738095Y-81904761D01*
X149642857Y-81952380D01*
X149261904Y-81952380D01*
X149261904Y-80952380D01*
X149595238Y-80952380D01*
X149690476Y-81000000D01*
X149738095Y-81047619D01*
X149785714Y-81142857D01*
X149785714Y-81238095D01*
X149738095Y-81333333D01*
X149690476Y-81380952D01*
X149595238Y-81428571D01*
X149261904Y-81428571D01*
X150738095Y-81952380D02*
X150261904Y-81952380D01*
X150261904Y-80952380D01*
X151071428Y-81952380D02*
X151071428Y-80952380D01*
X151547619Y-81952380D02*
X151547619Y-80952380D01*
X152119047Y-81952380D01*
X152119047Y-80952380D01*
X152595238Y-81952380D02*
X152595238Y-80952380D01*
X153166666Y-81952380D02*
X152738095Y-81380952D01*
X153166666Y-80952380D02*
X152595238Y-81523809D01*
X153785714Y-81476190D02*
X153785714Y-81952380D01*
X153452380Y-80952380D02*
X153785714Y-81476190D01*
X154119047Y-80952380D01*
X155214285Y-81952380D02*
X155214285Y-80952380D01*
X155595238Y-80952380D01*
X155690476Y-81000000D01*
X155738095Y-81047619D01*
X155785714Y-81142857D01*
X155785714Y-81285714D01*
X155738095Y-81380952D01*
X155690476Y-81428571D01*
X155595238Y-81476190D01*
X155214285Y-81476190D01*
X156785714Y-81952380D02*
X156452380Y-81476190D01*
X156214285Y-81952380D02*
X156214285Y-80952380D01*
X156595238Y-80952380D01*
X156690476Y-81000000D01*
X156738095Y-81047619D01*
X156785714Y-81142857D01*
X156785714Y-81285714D01*
X156738095Y-81380952D01*
X156690476Y-81428571D01*
X156595238Y-81476190D01*
X156214285Y-81476190D01*
X157404761Y-80952380D02*
X157595238Y-80952380D01*
X157690476Y-81000000D01*
X157785714Y-81095238D01*
X157833333Y-81285714D01*
X157833333Y-81619047D01*
X157785714Y-81809523D01*
X157690476Y-81904761D01*
X157595238Y-81952380D01*
X157404761Y-81952380D01*
X157309523Y-81904761D01*
X157214285Y-81809523D01*
X157166666Y-81619047D01*
X157166666Y-81285714D01*
X157214285Y-81095238D01*
X157309523Y-81000000D01*
X157404761Y-80952380D01*
X158119047Y-80952380D02*
X158690476Y-80952380D01*
X158404761Y-81952380D02*
X158404761Y-80952380D01*
X159214285Y-80952380D02*
X159404761Y-80952380D01*
X159500000Y-81000000D01*
X159595238Y-81095238D01*
X159642857Y-81285714D01*
X159642857Y-81619047D01*
X159595238Y-81809523D01*
X159500000Y-81904761D01*
X159404761Y-81952380D01*
X159214285Y-81952380D01*
X159119047Y-81904761D01*
X159023809Y-81809523D01*
X158976190Y-81619047D01*
X158976190Y-81285714D01*
X159023809Y-81095238D01*
X159119047Y-81000000D01*
X159214285Y-80952380D01*
X161023809Y-80952380D02*
X161119047Y-80952380D01*
X161214285Y-81000000D01*
X161261904Y-81047619D01*
X161309523Y-81142857D01*
X161357142Y-81333333D01*
X161357142Y-81571428D01*
X161309523Y-81761904D01*
X161261904Y-81857142D01*
X161214285Y-81904761D01*
X161119047Y-81952380D01*
X161023809Y-81952380D01*
X160928571Y-81904761D01*
X160880952Y-81857142D01*
X160833333Y-81761904D01*
X160785714Y-81571428D01*
X160785714Y-81333333D01*
X160833333Y-81142857D01*
X160880952Y-81047619D01*
X160928571Y-81000000D01*
X161023809Y-80952380D01*
X161785714Y-81857142D02*
X161833333Y-81904761D01*
X161785714Y-81952380D01*
X161738095Y-81904761D01*
X161785714Y-81857142D01*
X161785714Y-81952380D01*
X162785714Y-81952380D02*
X162214285Y-81952380D01*
X162500000Y-81952380D02*
X162500000Y-80952380D01*
X162404761Y-81095238D01*
X162309523Y-81190476D01*
X162214285Y-81238095D01*
X181500000Y-90191666D02*
X181976190Y-90191666D01*
X181404761Y-90477380D02*
X181738095Y-89477380D01*
X182071428Y-90477380D01*
X182261904Y-89477380D02*
X182833333Y-89477380D01*
X182547619Y-90477380D02*
X182547619Y-89477380D01*
X183119047Y-90429761D02*
X183261904Y-90477380D01*
X183500000Y-90477380D01*
X183595238Y-90429761D01*
X183642857Y-90382142D01*
X183690476Y-90286904D01*
X183690476Y-90191666D01*
X183642857Y-90096428D01*
X183595238Y-90048809D01*
X183500000Y-90001190D01*
X183309523Y-89953571D01*
X183214285Y-89905952D01*
X183166666Y-89858333D01*
X183119047Y-89763095D01*
X183119047Y-89667857D01*
X183166666Y-89572619D01*
X183214285Y-89525000D01*
X183309523Y-89477380D01*
X183547619Y-89477380D01*
X183690476Y-89525000D01*
X184071428Y-90191666D02*
X184547619Y-90191666D01*
X183976190Y-90477380D02*
X184309523Y-89477380D01*
X184642857Y-90477380D01*
X184976190Y-90477380D02*
X184976190Y-89477380D01*
X185309523Y-90191666D01*
X185642857Y-89477380D01*
X185642857Y-90477380D01*
X186119047Y-90477380D02*
X186119047Y-89477380D01*
X186357142Y-89477380D01*
X186500000Y-89525000D01*
X186595238Y-89620238D01*
X186642857Y-89715476D01*
X186690476Y-89905952D01*
X186690476Y-90048809D01*
X186642857Y-90239285D01*
X186595238Y-90334523D01*
X186500000Y-90429761D01*
X186357142Y-90477380D01*
X186119047Y-90477380D01*
X187071428Y-89572619D02*
X187119047Y-89525000D01*
X187214285Y-89477380D01*
X187452380Y-89477380D01*
X187547619Y-89525000D01*
X187595238Y-89572619D01*
X187642857Y-89667857D01*
X187642857Y-89763095D01*
X187595238Y-89905952D01*
X187023809Y-90477380D01*
X187642857Y-90477380D01*
X188595238Y-90477380D02*
X188023809Y-90477380D01*
X188309523Y-90477380D02*
X188309523Y-89477380D01*
X188214285Y-89620238D01*
X188119047Y-89715476D01*
X188023809Y-89763095D01*
X189023809Y-89953571D02*
X189357142Y-89953571D01*
X189500000Y-90477380D02*
X189023809Y-90477380D01*
X189023809Y-89477380D01*
X189500000Y-89477380D01*
X181880952Y-91603571D02*
X182023809Y-91651190D01*
X182071428Y-91698809D01*
X182119047Y-91794047D01*
X182119047Y-91936904D01*
X182071428Y-92032142D01*
X182023809Y-92079761D01*
X181928571Y-92127380D01*
X181547619Y-92127380D01*
X181547619Y-91127380D01*
X181880952Y-91127380D01*
X181976190Y-91175000D01*
X182023809Y-91222619D01*
X182071428Y-91317857D01*
X182071428Y-91413095D01*
X182023809Y-91508333D01*
X181976190Y-91555952D01*
X181880952Y-91603571D01*
X181547619Y-91603571D01*
X183119047Y-92127380D02*
X182785714Y-91651190D01*
X182547619Y-92127380D02*
X182547619Y-91127380D01*
X182928571Y-91127380D01*
X183023809Y-91175000D01*
X183071428Y-91222619D01*
X183119047Y-91317857D01*
X183119047Y-91460714D01*
X183071428Y-91555952D01*
X183023809Y-91603571D01*
X182928571Y-91651190D01*
X182547619Y-91651190D01*
X183547619Y-91603571D02*
X183880952Y-91603571D01*
X184023809Y-92127380D02*
X183547619Y-92127380D01*
X183547619Y-91127380D01*
X184023809Y-91127380D01*
X184404761Y-91841666D02*
X184880952Y-91841666D01*
X184309523Y-92127380D02*
X184642857Y-91127380D01*
X184976190Y-92127380D01*
X185309523Y-92127380D02*
X185309523Y-91127380D01*
X185880952Y-92127380D02*
X185452380Y-91555952D01*
X185880952Y-91127380D02*
X185309523Y-91698809D01*
X186500000Y-91127380D02*
X186690476Y-91127380D01*
X186785714Y-91175000D01*
X186880952Y-91270238D01*
X186928571Y-91460714D01*
X186928571Y-91794047D01*
X186880952Y-91984523D01*
X186785714Y-92079761D01*
X186690476Y-92127380D01*
X186500000Y-92127380D01*
X186404761Y-92079761D01*
X186309523Y-91984523D01*
X186261904Y-91794047D01*
X186261904Y-91460714D01*
X186309523Y-91270238D01*
X186404761Y-91175000D01*
X186500000Y-91127380D01*
X187357142Y-91127380D02*
X187357142Y-91936904D01*
X187404761Y-92032142D01*
X187452380Y-92079761D01*
X187547619Y-92127380D01*
X187738095Y-92127380D01*
X187833333Y-92079761D01*
X187880952Y-92032142D01*
X187928571Y-91936904D01*
X187928571Y-91127380D01*
X188261904Y-91127380D02*
X188833333Y-91127380D01*
X188547619Y-92127380D02*
X188547619Y-91127380D01*
X180619047Y-92777380D02*
X180857142Y-93777380D01*
X181047619Y-93063095D01*
X181238095Y-93777380D01*
X181476190Y-92777380D01*
X181857142Y-93777380D02*
X181857142Y-92777380D01*
X182190476Y-92777380D02*
X182761904Y-92777380D01*
X182476190Y-93777380D02*
X182476190Y-92777380D01*
X183095238Y-93777380D02*
X183095238Y-92777380D01*
X183095238Y-93253571D02*
X183666666Y-93253571D01*
X183666666Y-93777380D02*
X183666666Y-92777380D01*
X184904761Y-93777380D02*
X184904761Y-92777380D01*
X185285714Y-92777380D01*
X185380952Y-92825000D01*
X185428571Y-92872619D01*
X185476190Y-92967857D01*
X185476190Y-93110714D01*
X185428571Y-93205952D01*
X185380952Y-93253571D01*
X185285714Y-93301190D01*
X184904761Y-93301190D01*
X186095238Y-92777380D02*
X186285714Y-92777380D01*
X186380952Y-92825000D01*
X186476190Y-92920238D01*
X186523809Y-93110714D01*
X186523809Y-93444047D01*
X186476190Y-93634523D01*
X186380952Y-93729761D01*
X186285714Y-93777380D01*
X186095238Y-93777380D01*
X186000000Y-93729761D01*
X185904761Y-93634523D01*
X185857142Y-93444047D01*
X185857142Y-93110714D01*
X185904761Y-92920238D01*
X186000000Y-92825000D01*
X186095238Y-92777380D01*
X186857142Y-92777380D02*
X187095238Y-93777380D01*
X187285714Y-93063095D01*
X187476190Y-93777380D01*
X187714285Y-92777380D01*
X188095238Y-93253571D02*
X188428571Y-93253571D01*
X188571428Y-93777380D02*
X188095238Y-93777380D01*
X188095238Y-92777380D01*
X188571428Y-92777380D01*
X189571428Y-93777380D02*
X189238095Y-93301190D01*
X189000000Y-93777380D02*
X189000000Y-92777380D01*
X189380952Y-92777380D01*
X189476190Y-92825000D01*
X189523809Y-92872619D01*
X189571428Y-92967857D01*
X189571428Y-93110714D01*
X189523809Y-93205952D01*
X189476190Y-93253571D01*
X189380952Y-93301190D01*
X189000000Y-93301190D01*
X181595238Y-95141666D02*
X182071428Y-95141666D01*
X181500000Y-95427380D02*
X181833333Y-94427380D01*
X182166666Y-95427380D01*
X182500000Y-95427380D02*
X182500000Y-94427380D01*
X183071428Y-95427380D01*
X183071428Y-94427380D01*
X183547619Y-95427380D02*
X183547619Y-94427380D01*
X183785714Y-94427380D01*
X183928571Y-94475000D01*
X184023809Y-94570238D01*
X184071428Y-94665476D01*
X184119047Y-94855952D01*
X184119047Y-94998809D01*
X184071428Y-95189285D01*
X184023809Y-95284523D01*
X183928571Y-95379761D01*
X183785714Y-95427380D01*
X183547619Y-95427380D01*
X185880952Y-95427380D02*
X185547619Y-94951190D01*
X185309523Y-95427380D02*
X185309523Y-94427380D01*
X185690476Y-94427380D01*
X185785714Y-94475000D01*
X185833333Y-94522619D01*
X185880952Y-94617857D01*
X185880952Y-94760714D01*
X185833333Y-94855952D01*
X185785714Y-94903571D01*
X185690476Y-94951190D01*
X185309523Y-94951190D01*
X186309523Y-94903571D02*
X186642857Y-94903571D01*
X186785714Y-95427380D02*
X186309523Y-95427380D01*
X186309523Y-94427380D01*
X186785714Y-94427380D01*
X187166666Y-95379761D02*
X187309523Y-95427380D01*
X187547619Y-95427380D01*
X187642857Y-95379761D01*
X187690476Y-95332142D01*
X187738095Y-95236904D01*
X187738095Y-95141666D01*
X187690476Y-95046428D01*
X187642857Y-94998809D01*
X187547619Y-94951190D01*
X187357142Y-94903571D01*
X187261904Y-94855952D01*
X187214285Y-94808333D01*
X187166666Y-94713095D01*
X187166666Y-94617857D01*
X187214285Y-94522619D01*
X187261904Y-94475000D01*
X187357142Y-94427380D01*
X187595238Y-94427380D01*
X187738095Y-94475000D01*
X188166666Y-94903571D02*
X188500000Y-94903571D01*
X188642857Y-95427380D02*
X188166666Y-95427380D01*
X188166666Y-94427380D01*
X188642857Y-94427380D01*
X188928571Y-94427380D02*
X189500000Y-94427380D01*
X189214285Y-95427380D02*
X189214285Y-94427380D01*
D11*
X148500000Y-102000000D02*
X154500000Y-102000000D01*
X148500000Y-111500000D02*
X148500000Y-102000000D01*
X163000000Y-111500000D02*
X148500000Y-111500000D01*
X163000000Y-102000000D02*
X163000000Y-111500000D01*
X159500000Y-102000000D02*
X163000000Y-102000000D01*
D10*
X198500000Y-106761904D02*
X198452380Y-106857142D01*
X198452380Y-107000000D01*
X198500000Y-107142857D01*
X198595238Y-107238095D01*
X198690476Y-107285714D01*
X198880952Y-107333333D01*
X199023809Y-107333333D01*
X199214285Y-107285714D01*
X199309523Y-107238095D01*
X199404761Y-107142857D01*
X199452380Y-107000000D01*
X199452380Y-106904761D01*
X199404761Y-106761904D01*
X199357142Y-106714285D01*
X199023809Y-106714285D01*
X199023809Y-106904761D01*
X199452380Y-106285714D02*
X198452380Y-106285714D01*
X199452380Y-105714285D01*
X198452380Y-105714285D01*
X199452380Y-105238095D02*
X198452380Y-105238095D01*
X198452380Y-105000000D01*
X198500000Y-104857142D01*
X198595238Y-104761904D01*
X198690476Y-104714285D01*
X198880952Y-104666666D01*
X199023809Y-104666666D01*
X199214285Y-104714285D01*
X199309523Y-104761904D01*
X199404761Y-104857142D01*
X199452380Y-105000000D01*
X199452380Y-105238095D01*
X161452380Y-106833333D02*
X160976190Y-107166666D01*
X161452380Y-107404761D02*
X160452380Y-107404761D01*
X160452380Y-107023809D01*
X160500000Y-106928571D01*
X160547619Y-106880952D01*
X160642857Y-106833333D01*
X160785714Y-106833333D01*
X160880952Y-106880952D01*
X160928571Y-106928571D01*
X160976190Y-107023809D01*
X160976190Y-107404761D01*
X160928571Y-106404761D02*
X160928571Y-106071428D01*
X161452380Y-105928571D02*
X161452380Y-106404761D01*
X160452380Y-106404761D01*
X160452380Y-105928571D01*
X161404761Y-105547619D02*
X161452380Y-105404761D01*
X161452380Y-105166666D01*
X161404761Y-105071428D01*
X161357142Y-105023809D01*
X161261904Y-104976190D01*
X161166666Y-104976190D01*
X161071428Y-105023809D01*
X161023809Y-105071428D01*
X160976190Y-105166666D01*
X160928571Y-105357142D01*
X160880952Y-105452380D01*
X160833333Y-105500000D01*
X160738095Y-105547619D01*
X160642857Y-105547619D01*
X160547619Y-105500000D01*
X160500000Y-105452380D01*
X160452380Y-105357142D01*
X160452380Y-105119047D01*
X160500000Y-104976190D01*
X160928571Y-104547619D02*
X160928571Y-104214285D01*
X161452380Y-104071428D02*
X161452380Y-104547619D01*
X160452380Y-104547619D01*
X160452380Y-104071428D01*
X160452380Y-103785714D02*
X160452380Y-103214285D01*
X161452380Y-103500000D02*
X160452380Y-103500000D01*
X160452380Y-102738095D02*
X160690476Y-102738095D01*
X160595238Y-102976190D02*
X160690476Y-102738095D01*
X160595238Y-102500000D01*
X160880952Y-102880952D02*
X160690476Y-102738095D01*
X160880952Y-102595238D01*
X157952380Y-107238095D02*
X157952380Y-106619047D01*
X158333333Y-106952380D01*
X158333333Y-106809523D01*
X158380952Y-106714285D01*
X158428571Y-106666666D01*
X158523809Y-106619047D01*
X158761904Y-106619047D01*
X158857142Y-106666666D01*
X158904761Y-106714285D01*
X158952380Y-106809523D01*
X158952380Y-107095238D01*
X158904761Y-107190476D01*
X158857142Y-107238095D01*
X157952380Y-106333333D02*
X158952380Y-106000000D01*
X157952380Y-105666666D01*
X157952380Y-105428571D02*
X157952380Y-104809523D01*
X158333333Y-105142857D01*
X158333333Y-105000000D01*
X158380952Y-104904761D01*
X158428571Y-104857142D01*
X158523809Y-104809523D01*
X158761904Y-104809523D01*
X158857142Y-104857142D01*
X158904761Y-104904761D01*
X158952380Y-105000000D01*
X158952380Y-105285714D01*
X158904761Y-105380952D01*
X158857142Y-105428571D01*
X155000000Y-106761904D02*
X154952380Y-106857142D01*
X154952380Y-107000000D01*
X155000000Y-107142857D01*
X155095238Y-107238095D01*
X155190476Y-107285714D01*
X155380952Y-107333333D01*
X155523809Y-107333333D01*
X155714285Y-107285714D01*
X155809523Y-107238095D01*
X155904761Y-107142857D01*
X155952380Y-107000000D01*
X155952380Y-106904761D01*
X155904761Y-106761904D01*
X155857142Y-106714285D01*
X155523809Y-106714285D01*
X155523809Y-106904761D01*
X155952380Y-106285714D02*
X154952380Y-106285714D01*
X155952380Y-105714285D01*
X154952380Y-105714285D01*
X155952380Y-105238095D02*
X154952380Y-105238095D01*
X154952380Y-105000000D01*
X155000000Y-104857142D01*
X155095238Y-104761904D01*
X155190476Y-104714285D01*
X155380952Y-104666666D01*
X155523809Y-104666666D01*
X155714285Y-104714285D01*
X155809523Y-104761904D01*
X155904761Y-104857142D01*
X155952380Y-105000000D01*
X155952380Y-105238095D01*
X153404761Y-107119047D02*
X153452380Y-106976190D01*
X153452380Y-106738095D01*
X153404761Y-106642857D01*
X153357142Y-106595238D01*
X153261904Y-106547619D01*
X153166666Y-106547619D01*
X153071428Y-106595238D01*
X153023809Y-106642857D01*
X152976190Y-106738095D01*
X152928571Y-106928571D01*
X152880952Y-107023809D01*
X152833333Y-107071428D01*
X152738095Y-107119047D01*
X152642857Y-107119047D01*
X152547619Y-107071428D01*
X152500000Y-107023809D01*
X152452380Y-106928571D01*
X152452380Y-106690476D01*
X152500000Y-106547619D01*
X152452380Y-106214285D02*
X153452380Y-105976190D01*
X152738095Y-105785714D01*
X153452380Y-105595238D01*
X152452380Y-105357142D01*
X153452380Y-104976190D02*
X152452380Y-104976190D01*
X152452380Y-104738095D01*
X152500000Y-104595238D01*
X152595238Y-104500000D01*
X152690476Y-104452380D01*
X152880952Y-104404761D01*
X153023809Y-104404761D01*
X153214285Y-104452380D01*
X153309523Y-104500000D01*
X153404761Y-104595238D01*
X153452380Y-104738095D01*
X153452380Y-104976190D01*
X153452380Y-103976190D02*
X152452380Y-103976190D01*
X152452380Y-103309523D02*
X152452380Y-103119047D01*
X152500000Y-103023809D01*
X152595238Y-102928571D01*
X152785714Y-102880952D01*
X153119047Y-102880952D01*
X153309523Y-102928571D01*
X153404761Y-103023809D01*
X153452380Y-103119047D01*
X153452380Y-103309523D01*
X153404761Y-103404761D01*
X153309523Y-103500000D01*
X153119047Y-103547619D01*
X152785714Y-103547619D01*
X152595238Y-103500000D01*
X152500000Y-103404761D01*
X152452380Y-103309523D01*
X150904761Y-107261904D02*
X150952380Y-107119047D01*
X150952380Y-106880952D01*
X150904761Y-106785714D01*
X150857142Y-106738095D01*
X150761904Y-106690476D01*
X150666666Y-106690476D01*
X150571428Y-106738095D01*
X150523809Y-106785714D01*
X150476190Y-106880952D01*
X150428571Y-107071428D01*
X150380952Y-107166666D01*
X150333333Y-107214285D01*
X150238095Y-107261904D01*
X150142857Y-107261904D01*
X150047619Y-107214285D01*
X150000000Y-107166666D01*
X149952380Y-107071428D01*
X149952380Y-106833333D01*
X150000000Y-106690476D01*
X149952380Y-106357142D02*
X150952380Y-106119047D01*
X150238095Y-105928571D01*
X150952380Y-105738095D01*
X149952380Y-105500000D01*
X150857142Y-104547619D02*
X150904761Y-104595238D01*
X150952380Y-104738095D01*
X150952380Y-104833333D01*
X150904761Y-104976190D01*
X150809523Y-105071428D01*
X150714285Y-105119047D01*
X150523809Y-105166666D01*
X150380952Y-105166666D01*
X150190476Y-105119047D01*
X150095238Y-105071428D01*
X150000000Y-104976190D01*
X149952380Y-104833333D01*
X149952380Y-104738095D01*
X150000000Y-104595238D01*
X150047619Y-104547619D01*
X150952380Y-103642857D02*
X150952380Y-104119047D01*
X149952380Y-104119047D01*
X150952380Y-103309523D02*
X149952380Y-103309523D01*
X150952380Y-102738095D02*
X150380952Y-103166666D01*
X149952380Y-102738095D02*
X150523809Y-103309523D01*
X196952380Y-107642857D02*
X195952380Y-107642857D01*
X195952380Y-107261904D01*
X196000000Y-107166666D01*
X196047619Y-107119047D01*
X196142857Y-107071428D01*
X196285714Y-107071428D01*
X196380952Y-107119047D01*
X196428571Y-107166666D01*
X196476190Y-107261904D01*
X196476190Y-107642857D01*
X196666666Y-106690476D02*
X196666666Y-106214285D01*
X196952380Y-106785714D02*
X195952380Y-106452380D01*
X196952380Y-106119047D01*
X196952380Y-105261904D02*
X196952380Y-105833333D01*
X196952380Y-105547619D02*
X195952380Y-105547619D01*
X196095238Y-105642857D01*
X196190476Y-105738095D01*
X196238095Y-105833333D01*
X196952380Y-104309523D02*
X196952380Y-104880952D01*
X196952380Y-104595238D02*
X195952380Y-104595238D01*
X196095238Y-104690476D01*
X196190476Y-104785714D01*
X196238095Y-104880952D01*
X194452380Y-107642857D02*
X193452380Y-107642857D01*
X193452380Y-107261904D01*
X193500000Y-107166666D01*
X193547619Y-107119047D01*
X193642857Y-107071428D01*
X193785714Y-107071428D01*
X193880952Y-107119047D01*
X193928571Y-107166666D01*
X193976190Y-107261904D01*
X193976190Y-107642857D01*
X194166666Y-106690476D02*
X194166666Y-106214285D01*
X194452380Y-106785714D02*
X193452380Y-106452380D01*
X194452380Y-106119047D01*
X194452380Y-105261904D02*
X194452380Y-105833333D01*
X194452380Y-105547619D02*
X193452380Y-105547619D01*
X193595238Y-105642857D01*
X193690476Y-105738095D01*
X193738095Y-105833333D01*
X193452380Y-104642857D02*
X193452380Y-104547619D01*
X193500000Y-104452380D01*
X193547619Y-104404761D01*
X193642857Y-104357142D01*
X193833333Y-104309523D01*
X194071428Y-104309523D01*
X194261904Y-104357142D01*
X194357142Y-104404761D01*
X194404761Y-104452380D01*
X194452380Y-104547619D01*
X194452380Y-104642857D01*
X194404761Y-104738095D01*
X194357142Y-104785714D01*
X194261904Y-104833333D01*
X194071428Y-104880952D01*
X193833333Y-104880952D01*
X193642857Y-104833333D01*
X193547619Y-104785714D01*
X193500000Y-104738095D01*
X193452380Y-104642857D01*
X191952380Y-107642857D02*
X190952380Y-107642857D01*
X190952380Y-107261904D01*
X191000000Y-107166666D01*
X191047619Y-107119047D01*
X191142857Y-107071428D01*
X191285714Y-107071428D01*
X191380952Y-107119047D01*
X191428571Y-107166666D01*
X191476190Y-107261904D01*
X191476190Y-107642857D01*
X191666666Y-106690476D02*
X191666666Y-106214285D01*
X191952380Y-106785714D02*
X190952380Y-106452380D01*
X191952380Y-106119047D01*
X190952380Y-105595238D02*
X190952380Y-105500000D01*
X191000000Y-105404761D01*
X191047619Y-105357142D01*
X191142857Y-105309523D01*
X191333333Y-105261904D01*
X191571428Y-105261904D01*
X191761904Y-105309523D01*
X191857142Y-105357142D01*
X191904761Y-105404761D01*
X191952380Y-105500000D01*
X191952380Y-105595238D01*
X191904761Y-105690476D01*
X191857142Y-105738095D01*
X191761904Y-105785714D01*
X191571428Y-105833333D01*
X191333333Y-105833333D01*
X191142857Y-105785714D01*
X191047619Y-105738095D01*
X191000000Y-105690476D01*
X190952380Y-105595238D01*
X191952380Y-104785714D02*
X191952380Y-104595238D01*
X191904761Y-104500000D01*
X191857142Y-104452380D01*
X191714285Y-104357142D01*
X191523809Y-104309523D01*
X191142857Y-104309523D01*
X191047619Y-104357142D01*
X191000000Y-104404761D01*
X190952380Y-104500000D01*
X190952380Y-104690476D01*
X191000000Y-104785714D01*
X191047619Y-104833333D01*
X191142857Y-104880952D01*
X191380952Y-104880952D01*
X191476190Y-104833333D01*
X191523809Y-104785714D01*
X191571428Y-104690476D01*
X191571428Y-104500000D01*
X191523809Y-104404761D01*
X191476190Y-104357142D01*
X191380952Y-104309523D01*
X188952380Y-107642857D02*
X187952380Y-107642857D01*
X187952380Y-107261904D01*
X188000000Y-107166666D01*
X188047619Y-107119047D01*
X188142857Y-107071428D01*
X188285714Y-107071428D01*
X188380952Y-107119047D01*
X188428571Y-107166666D01*
X188476190Y-107261904D01*
X188476190Y-107642857D01*
X188666666Y-106690476D02*
X188666666Y-106214285D01*
X188952380Y-106785714D02*
X187952380Y-106452380D01*
X188952380Y-106119047D01*
X187952380Y-105595238D02*
X187952380Y-105500000D01*
X188000000Y-105404761D01*
X188047619Y-105357142D01*
X188142857Y-105309523D01*
X188333333Y-105261904D01*
X188571428Y-105261904D01*
X188761904Y-105309523D01*
X188857142Y-105357142D01*
X188904761Y-105404761D01*
X188952380Y-105500000D01*
X188952380Y-105595238D01*
X188904761Y-105690476D01*
X188857142Y-105738095D01*
X188761904Y-105785714D01*
X188571428Y-105833333D01*
X188333333Y-105833333D01*
X188142857Y-105785714D01*
X188047619Y-105738095D01*
X188000000Y-105690476D01*
X187952380Y-105595238D01*
X188380952Y-104690476D02*
X188333333Y-104785714D01*
X188285714Y-104833333D01*
X188190476Y-104880952D01*
X188142857Y-104880952D01*
X188047619Y-104833333D01*
X188000000Y-104785714D01*
X187952380Y-104690476D01*
X187952380Y-104500000D01*
X188000000Y-104404761D01*
X188047619Y-104357142D01*
X188142857Y-104309523D01*
X188190476Y-104309523D01*
X188285714Y-104357142D01*
X188333333Y-104404761D01*
X188380952Y-104500000D01*
X188380952Y-104690476D01*
X188428571Y-104785714D01*
X188476190Y-104833333D01*
X188571428Y-104880952D01*
X188761904Y-104880952D01*
X188857142Y-104833333D01*
X188904761Y-104785714D01*
X188952380Y-104690476D01*
X188952380Y-104500000D01*
X188904761Y-104404761D01*
X188857142Y-104357142D01*
X188761904Y-104309523D01*
X188571428Y-104309523D01*
X188476190Y-104357142D01*
X188428571Y-104404761D01*
X188380952Y-104500000D01*
X186452380Y-107642857D02*
X185452380Y-107642857D01*
X185452380Y-107261904D01*
X185500000Y-107166666D01*
X185547619Y-107119047D01*
X185642857Y-107071428D01*
X185785714Y-107071428D01*
X185880952Y-107119047D01*
X185928571Y-107166666D01*
X185976190Y-107261904D01*
X185976190Y-107642857D01*
X186166666Y-106690476D02*
X186166666Y-106214285D01*
X186452380Y-106785714D02*
X185452380Y-106452380D01*
X186452380Y-106119047D01*
X185452380Y-105595238D02*
X185452380Y-105500000D01*
X185500000Y-105404761D01*
X185547619Y-105357142D01*
X185642857Y-105309523D01*
X185833333Y-105261904D01*
X186071428Y-105261904D01*
X186261904Y-105309523D01*
X186357142Y-105357142D01*
X186404761Y-105404761D01*
X186452380Y-105500000D01*
X186452380Y-105595238D01*
X186404761Y-105690476D01*
X186357142Y-105738095D01*
X186261904Y-105785714D01*
X186071428Y-105833333D01*
X185833333Y-105833333D01*
X185642857Y-105785714D01*
X185547619Y-105738095D01*
X185500000Y-105690476D01*
X185452380Y-105595238D01*
X185452380Y-104928571D02*
X185452380Y-104261904D01*
X186452380Y-104690476D01*
X183952380Y-107642857D02*
X182952380Y-107642857D01*
X182952380Y-107261904D01*
X183000000Y-107166666D01*
X183047619Y-107119047D01*
X183142857Y-107071428D01*
X183285714Y-107071428D01*
X183380952Y-107119047D01*
X183428571Y-107166666D01*
X183476190Y-107261904D01*
X183476190Y-107642857D01*
X183666666Y-106690476D02*
X183666666Y-106214285D01*
X183952380Y-106785714D02*
X182952380Y-106452380D01*
X183952380Y-106119047D01*
X182952380Y-105595238D02*
X182952380Y-105500000D01*
X183000000Y-105404761D01*
X183047619Y-105357142D01*
X183142857Y-105309523D01*
X183333333Y-105261904D01*
X183571428Y-105261904D01*
X183761904Y-105309523D01*
X183857142Y-105357142D01*
X183904761Y-105404761D01*
X183952380Y-105500000D01*
X183952380Y-105595238D01*
X183904761Y-105690476D01*
X183857142Y-105738095D01*
X183761904Y-105785714D01*
X183571428Y-105833333D01*
X183333333Y-105833333D01*
X183142857Y-105785714D01*
X183047619Y-105738095D01*
X183000000Y-105690476D01*
X182952380Y-105595238D01*
X182952380Y-104404761D02*
X182952380Y-104595238D01*
X183000000Y-104690476D01*
X183047619Y-104738095D01*
X183190476Y-104833333D01*
X183380952Y-104880952D01*
X183761904Y-104880952D01*
X183857142Y-104833333D01*
X183904761Y-104785714D01*
X183952380Y-104690476D01*
X183952380Y-104500000D01*
X183904761Y-104404761D01*
X183857142Y-104357142D01*
X183761904Y-104309523D01*
X183523809Y-104309523D01*
X183428571Y-104357142D01*
X183380952Y-104404761D01*
X183333333Y-104500000D01*
X183333333Y-104690476D01*
X183380952Y-104785714D01*
X183428571Y-104833333D01*
X183523809Y-104880952D01*
X181452380Y-107642857D02*
X180452380Y-107642857D01*
X180452380Y-107261904D01*
X180500000Y-107166666D01*
X180547619Y-107119047D01*
X180642857Y-107071428D01*
X180785714Y-107071428D01*
X180880952Y-107119047D01*
X180928571Y-107166666D01*
X180976190Y-107261904D01*
X180976190Y-107642857D01*
X181166666Y-106690476D02*
X181166666Y-106214285D01*
X181452380Y-106785714D02*
X180452380Y-106452380D01*
X181452380Y-106119047D01*
X180452380Y-105595238D02*
X180452380Y-105500000D01*
X180500000Y-105404761D01*
X180547619Y-105357142D01*
X180642857Y-105309523D01*
X180833333Y-105261904D01*
X181071428Y-105261904D01*
X181261904Y-105309523D01*
X181357142Y-105357142D01*
X181404761Y-105404761D01*
X181452380Y-105500000D01*
X181452380Y-105595238D01*
X181404761Y-105690476D01*
X181357142Y-105738095D01*
X181261904Y-105785714D01*
X181071428Y-105833333D01*
X180833333Y-105833333D01*
X180642857Y-105785714D01*
X180547619Y-105738095D01*
X180500000Y-105690476D01*
X180452380Y-105595238D01*
X180452380Y-104357142D02*
X180452380Y-104833333D01*
X180928571Y-104880952D01*
X180880952Y-104833333D01*
X180833333Y-104738095D01*
X180833333Y-104500000D01*
X180880952Y-104404761D01*
X180928571Y-104357142D01*
X181023809Y-104309523D01*
X181261904Y-104309523D01*
X181357142Y-104357142D01*
X181404761Y-104404761D01*
X181452380Y-104500000D01*
X181452380Y-104738095D01*
X181404761Y-104833333D01*
X181357142Y-104880952D01*
X178952380Y-107642857D02*
X177952380Y-107642857D01*
X177952380Y-107261904D01*
X178000000Y-107166666D01*
X178047619Y-107119047D01*
X178142857Y-107071428D01*
X178285714Y-107071428D01*
X178380952Y-107119047D01*
X178428571Y-107166666D01*
X178476190Y-107261904D01*
X178476190Y-107642857D01*
X178666666Y-106690476D02*
X178666666Y-106214285D01*
X178952380Y-106785714D02*
X177952380Y-106452380D01*
X178952380Y-106119047D01*
X177952380Y-105595238D02*
X177952380Y-105500000D01*
X178000000Y-105404761D01*
X178047619Y-105357142D01*
X178142857Y-105309523D01*
X178333333Y-105261904D01*
X178571428Y-105261904D01*
X178761904Y-105309523D01*
X178857142Y-105357142D01*
X178904761Y-105404761D01*
X178952380Y-105500000D01*
X178952380Y-105595238D01*
X178904761Y-105690476D01*
X178857142Y-105738095D01*
X178761904Y-105785714D01*
X178571428Y-105833333D01*
X178333333Y-105833333D01*
X178142857Y-105785714D01*
X178047619Y-105738095D01*
X178000000Y-105690476D01*
X177952380Y-105595238D01*
X178285714Y-104404761D02*
X178952380Y-104404761D01*
X177904761Y-104642857D02*
X178619047Y-104880952D01*
X178619047Y-104261904D01*
X176452380Y-107642857D02*
X175452380Y-107642857D01*
X175452380Y-107261904D01*
X175500000Y-107166666D01*
X175547619Y-107119047D01*
X175642857Y-107071428D01*
X175785714Y-107071428D01*
X175880952Y-107119047D01*
X175928571Y-107166666D01*
X175976190Y-107261904D01*
X175976190Y-107642857D01*
X176166666Y-106690476D02*
X176166666Y-106214285D01*
X176452380Y-106785714D02*
X175452380Y-106452380D01*
X176452380Y-106119047D01*
X175452380Y-105595238D02*
X175452380Y-105500000D01*
X175500000Y-105404761D01*
X175547619Y-105357142D01*
X175642857Y-105309523D01*
X175833333Y-105261904D01*
X176071428Y-105261904D01*
X176261904Y-105309523D01*
X176357142Y-105357142D01*
X176404761Y-105404761D01*
X176452380Y-105500000D01*
X176452380Y-105595238D01*
X176404761Y-105690476D01*
X176357142Y-105738095D01*
X176261904Y-105785714D01*
X176071428Y-105833333D01*
X175833333Y-105833333D01*
X175642857Y-105785714D01*
X175547619Y-105738095D01*
X175500000Y-105690476D01*
X175452380Y-105595238D01*
X175452380Y-104928571D02*
X175452380Y-104309523D01*
X175833333Y-104642857D01*
X175833333Y-104500000D01*
X175880952Y-104404761D01*
X175928571Y-104357142D01*
X176023809Y-104309523D01*
X176261904Y-104309523D01*
X176357142Y-104357142D01*
X176404761Y-104404761D01*
X176452380Y-104500000D01*
X176452380Y-104785714D01*
X176404761Y-104880952D01*
X176357142Y-104928571D01*
X173952380Y-107642857D02*
X172952380Y-107642857D01*
X172952380Y-107261904D01*
X173000000Y-107166666D01*
X173047619Y-107119047D01*
X173142857Y-107071428D01*
X173285714Y-107071428D01*
X173380952Y-107119047D01*
X173428571Y-107166666D01*
X173476190Y-107261904D01*
X173476190Y-107642857D01*
X173666666Y-106690476D02*
X173666666Y-106214285D01*
X173952380Y-106785714D02*
X172952380Y-106452380D01*
X173952380Y-106119047D01*
X172952380Y-105595238D02*
X172952380Y-105500000D01*
X173000000Y-105404761D01*
X173047619Y-105357142D01*
X173142857Y-105309523D01*
X173333333Y-105261904D01*
X173571428Y-105261904D01*
X173761904Y-105309523D01*
X173857142Y-105357142D01*
X173904761Y-105404761D01*
X173952380Y-105500000D01*
X173952380Y-105595238D01*
X173904761Y-105690476D01*
X173857142Y-105738095D01*
X173761904Y-105785714D01*
X173571428Y-105833333D01*
X173333333Y-105833333D01*
X173142857Y-105785714D01*
X173047619Y-105738095D01*
X173000000Y-105690476D01*
X172952380Y-105595238D01*
X173047619Y-104880952D02*
X173000000Y-104833333D01*
X172952380Y-104738095D01*
X172952380Y-104500000D01*
X173000000Y-104404761D01*
X173047619Y-104357142D01*
X173142857Y-104309523D01*
X173238095Y-104309523D01*
X173380952Y-104357142D01*
X173952380Y-104928571D01*
X173952380Y-104309523D01*
X171452380Y-107642857D02*
X170452380Y-107642857D01*
X170452380Y-107261904D01*
X170500000Y-107166666D01*
X170547619Y-107119047D01*
X170642857Y-107071428D01*
X170785714Y-107071428D01*
X170880952Y-107119047D01*
X170928571Y-107166666D01*
X170976190Y-107261904D01*
X170976190Y-107642857D01*
X171166666Y-106690476D02*
X171166666Y-106214285D01*
X171452380Y-106785714D02*
X170452380Y-106452380D01*
X171452380Y-106119047D01*
X170452380Y-105595238D02*
X170452380Y-105500000D01*
X170500000Y-105404761D01*
X170547619Y-105357142D01*
X170642857Y-105309523D01*
X170833333Y-105261904D01*
X171071428Y-105261904D01*
X171261904Y-105309523D01*
X171357142Y-105357142D01*
X171404761Y-105404761D01*
X171452380Y-105500000D01*
X171452380Y-105595238D01*
X171404761Y-105690476D01*
X171357142Y-105738095D01*
X171261904Y-105785714D01*
X171071428Y-105833333D01*
X170833333Y-105833333D01*
X170642857Y-105785714D01*
X170547619Y-105738095D01*
X170500000Y-105690476D01*
X170452380Y-105595238D01*
X171452380Y-104309523D02*
X171452380Y-104880952D01*
X171452380Y-104595238D02*
X170452380Y-104595238D01*
X170595238Y-104690476D01*
X170690476Y-104785714D01*
X170738095Y-104880952D01*
X168952380Y-107642857D02*
X167952380Y-107642857D01*
X167952380Y-107261904D01*
X168000000Y-107166666D01*
X168047619Y-107119047D01*
X168142857Y-107071428D01*
X168285714Y-107071428D01*
X168380952Y-107119047D01*
X168428571Y-107166666D01*
X168476190Y-107261904D01*
X168476190Y-107642857D01*
X168666666Y-106690476D02*
X168666666Y-106214285D01*
X168952380Y-106785714D02*
X167952380Y-106452380D01*
X168952380Y-106119047D01*
X167952380Y-105595238D02*
X167952380Y-105500000D01*
X168000000Y-105404761D01*
X168047619Y-105357142D01*
X168142857Y-105309523D01*
X168333333Y-105261904D01*
X168571428Y-105261904D01*
X168761904Y-105309523D01*
X168857142Y-105357142D01*
X168904761Y-105404761D01*
X168952380Y-105500000D01*
X168952380Y-105595238D01*
X168904761Y-105690476D01*
X168857142Y-105738095D01*
X168761904Y-105785714D01*
X168571428Y-105833333D01*
X168333333Y-105833333D01*
X168142857Y-105785714D01*
X168047619Y-105738095D01*
X168000000Y-105690476D01*
X167952380Y-105595238D01*
X167952380Y-104642857D02*
X167952380Y-104547619D01*
X168000000Y-104452380D01*
X168047619Y-104404761D01*
X168142857Y-104357142D01*
X168333333Y-104309523D01*
X168571428Y-104309523D01*
X168761904Y-104357142D01*
X168857142Y-104404761D01*
X168904761Y-104452380D01*
X168952380Y-104547619D01*
X168952380Y-104642857D01*
X168904761Y-104738095D01*
X168857142Y-104785714D01*
X168761904Y-104833333D01*
X168571428Y-104880952D01*
X168333333Y-104880952D01*
X168142857Y-104833333D01*
X168047619Y-104785714D01*
X168000000Y-104738095D01*
X167952380Y-104642857D01*
X166071428Y-107571428D02*
X166071428Y-106809523D01*
X166452380Y-107190476D02*
X165690476Y-107190476D01*
X165452380Y-106428571D02*
X165452380Y-105809523D01*
X165833333Y-106142857D01*
X165833333Y-106000000D01*
X165880952Y-105904761D01*
X165928571Y-105857142D01*
X166023809Y-105809523D01*
X166261904Y-105809523D01*
X166357142Y-105857142D01*
X166404761Y-105904761D01*
X166452380Y-106000000D01*
X166452380Y-106285714D01*
X166404761Y-106380952D01*
X166357142Y-106428571D01*
X165452380Y-105523809D02*
X166452380Y-105190476D01*
X165452380Y-104857142D01*
X165452380Y-104619047D02*
X165452380Y-104000000D01*
X165833333Y-104333333D01*
X165833333Y-104190476D01*
X165880952Y-104095238D01*
X165928571Y-104047619D01*
X166023809Y-104000000D01*
X166261904Y-104000000D01*
X166357142Y-104047619D01*
X166404761Y-104095238D01*
X166452380Y-104190476D01*
X166452380Y-104476190D01*
X166404761Y-104571428D01*
X166357142Y-104619047D01*
X165452380Y-102619047D02*
X165452380Y-102428571D01*
X165500000Y-102333333D01*
X165595238Y-102238095D01*
X165785714Y-102190476D01*
X166119047Y-102190476D01*
X166309523Y-102238095D01*
X166404761Y-102333333D01*
X166452380Y-102428571D01*
X166452380Y-102619047D01*
X166404761Y-102714285D01*
X166309523Y-102809523D01*
X166119047Y-102857142D01*
X165785714Y-102857142D01*
X165595238Y-102809523D01*
X165500000Y-102714285D01*
X165452380Y-102619047D01*
X165452380Y-101761904D02*
X166261904Y-101761904D01*
X166357142Y-101714285D01*
X166404761Y-101666666D01*
X166452380Y-101571428D01*
X166452380Y-101380952D01*
X166404761Y-101285714D01*
X166357142Y-101238095D01*
X166261904Y-101190476D01*
X165452380Y-101190476D01*
X165452380Y-100857142D02*
X165452380Y-100285714D01*
X166452380Y-100571428D02*
X165452380Y-100571428D01*
X199071428Y-88428571D02*
X199071428Y-87666666D01*
X199452380Y-88047619D02*
X198690476Y-88047619D01*
X198452380Y-86714285D02*
X198452380Y-87190476D01*
X198928571Y-87238095D01*
X198880952Y-87190476D01*
X198833333Y-87095238D01*
X198833333Y-86857142D01*
X198880952Y-86761904D01*
X198928571Y-86714285D01*
X199023809Y-86666666D01*
X199261904Y-86666666D01*
X199357142Y-86714285D01*
X199404761Y-86761904D01*
X199452380Y-86857142D01*
X199452380Y-87095238D01*
X199404761Y-87190476D01*
X199357142Y-87238095D01*
X198452380Y-86380952D02*
X199452380Y-86047619D01*
X198452380Y-85714285D01*
X199452380Y-84619047D02*
X198452380Y-84619047D01*
X199452380Y-84142857D02*
X198452380Y-84142857D01*
X199452380Y-83571428D01*
X198452380Y-83571428D01*
X196952380Y-86142857D02*
X195952380Y-86142857D01*
X195952380Y-85761904D01*
X196000000Y-85666666D01*
X196047619Y-85619047D01*
X196142857Y-85571428D01*
X196285714Y-85571428D01*
X196380952Y-85619047D01*
X196428571Y-85666666D01*
X196476190Y-85761904D01*
X196476190Y-86142857D01*
X196666666Y-85190476D02*
X196666666Y-84714285D01*
X196952380Y-85285714D02*
X195952380Y-84952380D01*
X196952380Y-84619047D01*
X196952380Y-83761904D02*
X196952380Y-84333333D01*
X196952380Y-84047619D02*
X195952380Y-84047619D01*
X196095238Y-84142857D01*
X196190476Y-84238095D01*
X196238095Y-84333333D01*
X196285714Y-82904761D02*
X196952380Y-82904761D01*
X195904761Y-83142857D02*
X196619047Y-83380952D01*
X196619047Y-82761904D01*
X194452380Y-86142857D02*
X193452380Y-86142857D01*
X193452380Y-85761904D01*
X193500000Y-85666666D01*
X193547619Y-85619047D01*
X193642857Y-85571428D01*
X193785714Y-85571428D01*
X193880952Y-85619047D01*
X193928571Y-85666666D01*
X193976190Y-85761904D01*
X193976190Y-86142857D01*
X194166666Y-85190476D02*
X194166666Y-84714285D01*
X194452380Y-85285714D02*
X193452380Y-84952380D01*
X194452380Y-84619047D01*
X194452380Y-83761904D02*
X194452380Y-84333333D01*
X194452380Y-84047619D02*
X193452380Y-84047619D01*
X193595238Y-84142857D01*
X193690476Y-84238095D01*
X193738095Y-84333333D01*
X193452380Y-82857142D02*
X193452380Y-83333333D01*
X193928571Y-83380952D01*
X193880952Y-83333333D01*
X193833333Y-83238095D01*
X193833333Y-83000000D01*
X193880952Y-82904761D01*
X193928571Y-82857142D01*
X194023809Y-82809523D01*
X194261904Y-82809523D01*
X194357142Y-82857142D01*
X194404761Y-82904761D01*
X194452380Y-83000000D01*
X194452380Y-83238095D01*
X194404761Y-83333333D01*
X194357142Y-83380952D01*
X191952380Y-86142857D02*
X190952380Y-86142857D01*
X190952380Y-85761904D01*
X191000000Y-85666666D01*
X191047619Y-85619047D01*
X191142857Y-85571428D01*
X191285714Y-85571428D01*
X191380952Y-85619047D01*
X191428571Y-85666666D01*
X191476190Y-85761904D01*
X191476190Y-86142857D01*
X191666666Y-85190476D02*
X191666666Y-84714285D01*
X191952380Y-85285714D02*
X190952380Y-84952380D01*
X191952380Y-84619047D01*
X191952380Y-83761904D02*
X191952380Y-84333333D01*
X191952380Y-84047619D02*
X190952380Y-84047619D01*
X191095238Y-84142857D01*
X191190476Y-84238095D01*
X191238095Y-84333333D01*
X190952380Y-82904761D02*
X190952380Y-83095238D01*
X191000000Y-83190476D01*
X191047619Y-83238095D01*
X191190476Y-83333333D01*
X191380952Y-83380952D01*
X191761904Y-83380952D01*
X191857142Y-83333333D01*
X191904761Y-83285714D01*
X191952380Y-83190476D01*
X191952380Y-83000000D01*
X191904761Y-82904761D01*
X191857142Y-82857142D01*
X191761904Y-82809523D01*
X191523809Y-82809523D01*
X191428571Y-82857142D01*
X191380952Y-82904761D01*
X191333333Y-83000000D01*
X191333333Y-83190476D01*
X191380952Y-83285714D01*
X191428571Y-83333333D01*
X191523809Y-83380952D01*
X189452380Y-86142857D02*
X188452380Y-86142857D01*
X188452380Y-85761904D01*
X188500000Y-85666666D01*
X188547619Y-85619047D01*
X188642857Y-85571428D01*
X188785714Y-85571428D01*
X188880952Y-85619047D01*
X188928571Y-85666666D01*
X188976190Y-85761904D01*
X188976190Y-86142857D01*
X189166666Y-85190476D02*
X189166666Y-84714285D01*
X189452380Y-85285714D02*
X188452380Y-84952380D01*
X189452380Y-84619047D01*
X189452380Y-83761904D02*
X189452380Y-84333333D01*
X189452380Y-84047619D02*
X188452380Y-84047619D01*
X188595238Y-84142857D01*
X188690476Y-84238095D01*
X188738095Y-84333333D01*
X188452380Y-83428571D02*
X188452380Y-82761904D01*
X189452380Y-83190476D01*
X186952380Y-86142857D02*
X185952380Y-86142857D01*
X185952380Y-85761904D01*
X186000000Y-85666666D01*
X186047619Y-85619047D01*
X186142857Y-85571428D01*
X186285714Y-85571428D01*
X186380952Y-85619047D01*
X186428571Y-85666666D01*
X186476190Y-85761904D01*
X186476190Y-86142857D01*
X186666666Y-85190476D02*
X186666666Y-84714285D01*
X186952380Y-85285714D02*
X185952380Y-84952380D01*
X186952380Y-84619047D01*
X186952380Y-83761904D02*
X186952380Y-84333333D01*
X186952380Y-84047619D02*
X185952380Y-84047619D01*
X186095238Y-84142857D01*
X186190476Y-84238095D01*
X186238095Y-84333333D01*
X186380952Y-83190476D02*
X186333333Y-83285714D01*
X186285714Y-83333333D01*
X186190476Y-83380952D01*
X186142857Y-83380952D01*
X186047619Y-83333333D01*
X186000000Y-83285714D01*
X185952380Y-83190476D01*
X185952380Y-83000000D01*
X186000000Y-82904761D01*
X186047619Y-82857142D01*
X186142857Y-82809523D01*
X186190476Y-82809523D01*
X186285714Y-82857142D01*
X186333333Y-82904761D01*
X186380952Y-83000000D01*
X186380952Y-83190476D01*
X186428571Y-83285714D01*
X186476190Y-83333333D01*
X186571428Y-83380952D01*
X186761904Y-83380952D01*
X186857142Y-83333333D01*
X186904761Y-83285714D01*
X186952380Y-83190476D01*
X186952380Y-83000000D01*
X186904761Y-82904761D01*
X186857142Y-82857142D01*
X186761904Y-82809523D01*
X186571428Y-82809523D01*
X186476190Y-82857142D01*
X186428571Y-82904761D01*
X186380952Y-83000000D01*
X184452380Y-86142857D02*
X183452380Y-86142857D01*
X183452380Y-85761904D01*
X183500000Y-85666666D01*
X183547619Y-85619047D01*
X183642857Y-85571428D01*
X183785714Y-85571428D01*
X183880952Y-85619047D01*
X183928571Y-85666666D01*
X183976190Y-85761904D01*
X183976190Y-86142857D01*
X184166666Y-85190476D02*
X184166666Y-84714285D01*
X184452380Y-85285714D02*
X183452380Y-84952380D01*
X184452380Y-84619047D01*
X184452380Y-83761904D02*
X184452380Y-84333333D01*
X184452380Y-84047619D02*
X183452380Y-84047619D01*
X183595238Y-84142857D01*
X183690476Y-84238095D01*
X183738095Y-84333333D01*
X184452380Y-83285714D02*
X184452380Y-83095238D01*
X184404761Y-83000000D01*
X184357142Y-82952380D01*
X184214285Y-82857142D01*
X184023809Y-82809523D01*
X183642857Y-82809523D01*
X183547619Y-82857142D01*
X183500000Y-82904761D01*
X183452380Y-83000000D01*
X183452380Y-83190476D01*
X183500000Y-83285714D01*
X183547619Y-83333333D01*
X183642857Y-83380952D01*
X183880952Y-83380952D01*
X183976190Y-83333333D01*
X184023809Y-83285714D01*
X184071428Y-83190476D01*
X184071428Y-83000000D01*
X184023809Y-82904761D01*
X183976190Y-82857142D01*
X183880952Y-82809523D01*
X181452380Y-86142857D02*
X180452380Y-86142857D01*
X180452380Y-85761904D01*
X180500000Y-85666666D01*
X180547619Y-85619047D01*
X180642857Y-85571428D01*
X180785714Y-85571428D01*
X180880952Y-85619047D01*
X180928571Y-85666666D01*
X180976190Y-85761904D01*
X180976190Y-86142857D01*
X181166666Y-85190476D02*
X181166666Y-84714285D01*
X181452380Y-85285714D02*
X180452380Y-84952380D01*
X181452380Y-84619047D01*
X180547619Y-84333333D02*
X180500000Y-84285714D01*
X180452380Y-84190476D01*
X180452380Y-83952380D01*
X180500000Y-83857142D01*
X180547619Y-83809523D01*
X180642857Y-83761904D01*
X180738095Y-83761904D01*
X180880952Y-83809523D01*
X181452380Y-84380952D01*
X181452380Y-83761904D01*
X180547619Y-83380952D02*
X180500000Y-83333333D01*
X180452380Y-83238095D01*
X180452380Y-83000000D01*
X180500000Y-82904761D01*
X180547619Y-82857142D01*
X180642857Y-82809523D01*
X180738095Y-82809523D01*
X180880952Y-82857142D01*
X181452380Y-83428571D01*
X181452380Y-82809523D01*
X178952380Y-86142857D02*
X177952380Y-86142857D01*
X177952380Y-85761904D01*
X178000000Y-85666666D01*
X178047619Y-85619047D01*
X178142857Y-85571428D01*
X178285714Y-85571428D01*
X178380952Y-85619047D01*
X178428571Y-85666666D01*
X178476190Y-85761904D01*
X178476190Y-86142857D01*
X178666666Y-85190476D02*
X178666666Y-84714285D01*
X178952380Y-85285714D02*
X177952380Y-84952380D01*
X178952380Y-84619047D01*
X178047619Y-84333333D02*
X178000000Y-84285714D01*
X177952380Y-84190476D01*
X177952380Y-83952380D01*
X178000000Y-83857142D01*
X178047619Y-83809523D01*
X178142857Y-83761904D01*
X178238095Y-83761904D01*
X178380952Y-83809523D01*
X178952380Y-84380952D01*
X178952380Y-83761904D01*
X177952380Y-83428571D02*
X177952380Y-82809523D01*
X178333333Y-83142857D01*
X178333333Y-83000000D01*
X178380952Y-82904761D01*
X178428571Y-82857142D01*
X178523809Y-82809523D01*
X178761904Y-82809523D01*
X178857142Y-82857142D01*
X178904761Y-82904761D01*
X178952380Y-83000000D01*
X178952380Y-83285714D01*
X178904761Y-83380952D01*
X178857142Y-83428571D01*
X176452380Y-86142857D02*
X175452380Y-86142857D01*
X175452380Y-85761904D01*
X175500000Y-85666666D01*
X175547619Y-85619047D01*
X175642857Y-85571428D01*
X175785714Y-85571428D01*
X175880952Y-85619047D01*
X175928571Y-85666666D01*
X175976190Y-85761904D01*
X175976190Y-86142857D01*
X176166666Y-85190476D02*
X176166666Y-84714285D01*
X176452380Y-85285714D02*
X175452380Y-84952380D01*
X176452380Y-84619047D01*
X175547619Y-84333333D02*
X175500000Y-84285714D01*
X175452380Y-84190476D01*
X175452380Y-83952380D01*
X175500000Y-83857142D01*
X175547619Y-83809523D01*
X175642857Y-83761904D01*
X175738095Y-83761904D01*
X175880952Y-83809523D01*
X176452380Y-84380952D01*
X176452380Y-83761904D01*
X175785714Y-82904761D02*
X176452380Y-82904761D01*
X175404761Y-83142857D02*
X176119047Y-83380952D01*
X176119047Y-82761904D01*
X173952380Y-86142857D02*
X172952380Y-86142857D01*
X172952380Y-85761904D01*
X173000000Y-85666666D01*
X173047619Y-85619047D01*
X173142857Y-85571428D01*
X173285714Y-85571428D01*
X173380952Y-85619047D01*
X173428571Y-85666666D01*
X173476190Y-85761904D01*
X173476190Y-86142857D01*
X173666666Y-85190476D02*
X173666666Y-84714285D01*
X173952380Y-85285714D02*
X172952380Y-84952380D01*
X173952380Y-84619047D01*
X173047619Y-84333333D02*
X173000000Y-84285714D01*
X172952380Y-84190476D01*
X172952380Y-83952380D01*
X173000000Y-83857142D01*
X173047619Y-83809523D01*
X173142857Y-83761904D01*
X173238095Y-83761904D01*
X173380952Y-83809523D01*
X173952380Y-84380952D01*
X173952380Y-83761904D01*
X172952380Y-82857142D02*
X172952380Y-83333333D01*
X173428571Y-83380952D01*
X173380952Y-83333333D01*
X173333333Y-83238095D01*
X173333333Y-83000000D01*
X173380952Y-82904761D01*
X173428571Y-82857142D01*
X173523809Y-82809523D01*
X173761904Y-82809523D01*
X173857142Y-82857142D01*
X173904761Y-82904761D01*
X173952380Y-83000000D01*
X173952380Y-83238095D01*
X173904761Y-83333333D01*
X173857142Y-83380952D01*
X171452380Y-86142857D02*
X170452380Y-86142857D01*
X170452380Y-85761904D01*
X170500000Y-85666666D01*
X170547619Y-85619047D01*
X170642857Y-85571428D01*
X170785714Y-85571428D01*
X170880952Y-85619047D01*
X170928571Y-85666666D01*
X170976190Y-85761904D01*
X170976190Y-86142857D01*
X171166666Y-85190476D02*
X171166666Y-84714285D01*
X171452380Y-85285714D02*
X170452380Y-84952380D01*
X171452380Y-84619047D01*
X170547619Y-84333333D02*
X170500000Y-84285714D01*
X170452380Y-84190476D01*
X170452380Y-83952380D01*
X170500000Y-83857142D01*
X170547619Y-83809523D01*
X170642857Y-83761904D01*
X170738095Y-83761904D01*
X170880952Y-83809523D01*
X171452380Y-84380952D01*
X171452380Y-83761904D01*
X170452380Y-83428571D02*
X170452380Y-82761904D01*
X171452380Y-83190476D01*
X168952380Y-86142857D02*
X167952380Y-86142857D01*
X167952380Y-85761904D01*
X168000000Y-85666666D01*
X168047619Y-85619047D01*
X168142857Y-85571428D01*
X168285714Y-85571428D01*
X168380952Y-85619047D01*
X168428571Y-85666666D01*
X168476190Y-85761904D01*
X168476190Y-86142857D01*
X168666666Y-85190476D02*
X168666666Y-84714285D01*
X168952380Y-85285714D02*
X167952380Y-84952380D01*
X168952380Y-84619047D01*
X168047619Y-84333333D02*
X168000000Y-84285714D01*
X167952380Y-84190476D01*
X167952380Y-83952380D01*
X168000000Y-83857142D01*
X168047619Y-83809523D01*
X168142857Y-83761904D01*
X168238095Y-83761904D01*
X168380952Y-83809523D01*
X168952380Y-84380952D01*
X168952380Y-83761904D01*
X168380952Y-83190476D02*
X168333333Y-83285714D01*
X168285714Y-83333333D01*
X168190476Y-83380952D01*
X168142857Y-83380952D01*
X168047619Y-83333333D01*
X168000000Y-83285714D01*
X167952380Y-83190476D01*
X167952380Y-83000000D01*
X168000000Y-82904761D01*
X168047619Y-82857142D01*
X168142857Y-82809523D01*
X168190476Y-82809523D01*
X168285714Y-82857142D01*
X168333333Y-82904761D01*
X168380952Y-83000000D01*
X168380952Y-83190476D01*
X168428571Y-83285714D01*
X168476190Y-83333333D01*
X168571428Y-83380952D01*
X168761904Y-83380952D01*
X168857142Y-83333333D01*
X168904761Y-83285714D01*
X168952380Y-83190476D01*
X168952380Y-83000000D01*
X168904761Y-82904761D01*
X168857142Y-82857142D01*
X168761904Y-82809523D01*
X168571428Y-82809523D01*
X168476190Y-82857142D01*
X168428571Y-82904761D01*
X168380952Y-83000000D01*
X165500000Y-85261904D02*
X165452380Y-85357142D01*
X165452380Y-85500000D01*
X165500000Y-85642857D01*
X165595238Y-85738095D01*
X165690476Y-85785714D01*
X165880952Y-85833333D01*
X166023809Y-85833333D01*
X166214285Y-85785714D01*
X166309523Y-85738095D01*
X166404761Y-85642857D01*
X166452380Y-85500000D01*
X166452380Y-85404761D01*
X166404761Y-85261904D01*
X166357142Y-85214285D01*
X166023809Y-85214285D01*
X166023809Y-85404761D01*
X166452380Y-84785714D02*
X165452380Y-84785714D01*
X166452380Y-84214285D01*
X165452380Y-84214285D01*
X166452380Y-83738095D02*
X165452380Y-83738095D01*
X165452380Y-83500000D01*
X165500000Y-83357142D01*
X165595238Y-83261904D01*
X165690476Y-83214285D01*
X165880952Y-83166666D01*
X166023809Y-83166666D01*
X166214285Y-83214285D01*
X166309523Y-83261904D01*
X166404761Y-83357142D01*
X166452380Y-83500000D01*
X166452380Y-83738095D01*
D11*
X167317313Y-89686779D02*
X167686779Y-89317313D01*
X166313221Y-88682687D02*
X166682687Y-88313221D01*
X151675900Y-100848100D02*
X157340100Y-100848100D01*
X157340100Y-100848100D02*
X157340100Y-100482340D01*
X157340100Y-95183900D02*
X151675900Y-95183900D01*
X151675900Y-95183900D02*
X151675900Y-95549660D01*
X151675900Y-96773940D02*
X151675900Y-99258060D01*
X151675900Y-100482340D02*
X151675900Y-100848100D01*
X157340100Y-99258060D02*
X157340100Y-96773940D01*
X157340100Y-95549660D02*
X157340100Y-95183900D01*
D12*
X154958850Y-95310900D02*
G75*
G02X154057150Y-95310900I-450850J0D01*
G01*
D11*
X200295820Y-81280000D02*
X200295820Y-82610000D01*
X200295820Y-82610000D02*
X198965820Y-82610000D01*
X197695820Y-82610000D02*
X164615820Y-82610000D01*
X164615820Y-79950000D02*
X164615820Y-82610000D01*
X197695820Y-79950000D02*
X164615820Y-79950000D01*
X197695820Y-79950000D02*
X197695820Y-82610000D01*
X164670000Y-109220000D02*
X164670000Y-107890000D01*
X164670000Y-107890000D02*
X166000000Y-107890000D01*
X167270000Y-107890000D02*
X200350000Y-107890000D01*
X200350000Y-110550000D02*
X200350000Y-107890000D01*
X167270000Y-110550000D02*
X200350000Y-110550000D01*
X167270000Y-110550000D02*
X167270000Y-107890000D01*
X162120000Y-109300000D02*
X162120000Y-110630000D01*
X162120000Y-110630000D02*
X160790000Y-110630000D01*
X159520000Y-110630000D02*
X149300000Y-110630000D01*
X149300000Y-107970000D02*
X149300000Y-110630000D01*
X159520000Y-107970000D02*
X149300000Y-107970000D01*
X159520000Y-107970000D02*
X159520000Y-110630000D01*
X154221748Y-89726000D02*
X154744252Y-89726000D01*
X154221748Y-88306000D02*
X154744252Y-88306000D01*
X149246748Y-89726000D02*
X149769252Y-89726000D01*
X149246748Y-88306000D02*
X149769252Y-88306000D01*
X176317313Y-102686779D02*
X176686779Y-102317313D01*
X175313221Y-101682687D02*
X175682687Y-101313221D01*
X159246748Y-89726000D02*
X159769252Y-89726000D01*
X159246748Y-88306000D02*
X159769252Y-88306000D01*
D13*
G36*
X174572114Y-99177950D02*
G01*
X174751719Y-99357555D01*
X175021127Y-99088148D01*
X174841522Y-98908543D01*
X174572114Y-99177950D01*
G37*
X174572114Y-99177950D02*
X174751719Y-99357555D01*
X175021127Y-99088148D01*
X174841522Y-98908543D01*
X174572114Y-99177950D01*
G36*
X176448775Y-90371501D02*
G01*
X176718183Y-90640909D01*
X176538578Y-90820514D01*
X176269170Y-90551106D01*
X176448775Y-90371501D01*
G37*
X176448775Y-90371501D02*
X176718183Y-90640909D01*
X176538578Y-90820514D01*
X176269170Y-90551106D01*
X176448775Y-90371501D01*
G36*
X167911736Y-91386200D02*
G01*
X167732131Y-91206595D01*
X168001538Y-90937187D01*
X168181144Y-91116792D01*
X167911736Y-91386200D01*
G37*
X167911736Y-91386200D02*
X167732131Y-91206595D01*
X168001538Y-90937187D01*
X168181144Y-91116792D01*
X167911736Y-91386200D01*
D11*
X196508000Y-91456000D02*
X193058000Y-91456000D01*
X196508000Y-91456000D02*
X198458000Y-91456000D01*
X196508000Y-96576000D02*
X194558000Y-96576000D01*
X196508000Y-96576000D02*
X198458000Y-96576000D01*
X198290000Y-100738748D02*
X198290000Y-101261252D01*
X199710000Y-100738748D02*
X199710000Y-101261252D01*
X194738748Y-89710000D02*
X195261252Y-89710000D01*
X194738748Y-88290000D02*
X195261252Y-88290000D01*
D10*
X357750000Y-179910714D02*
X357750000Y-180196428D01*
X357785714Y-180232142D02*
X357928571Y-180339285D01*
X357785714Y-179875000D02*
X357928571Y-179767857D01*
X357785714Y-179839285D02*
X357785714Y-180267857D01*
X357821428Y-180267857D02*
X357821428Y-179839285D01*
X357857142Y-179803571D02*
X357857142Y-180303571D01*
X357892857Y-180303571D02*
X357892857Y-179803571D01*
X357928571Y-179767857D02*
X357928571Y-180339285D01*
X357964285Y-180339285D02*
X357964285Y-179767857D01*
X358000000Y-179767857D02*
X358000000Y-180339285D01*
X358035714Y-180339285D02*
X358035714Y-179767857D01*
X358071428Y-180339285D02*
X358214285Y-180232142D01*
X358071428Y-179767857D02*
X358071428Y-180339285D01*
X358071428Y-179767857D02*
X358214285Y-179875000D01*
X358107142Y-180303571D02*
X358107142Y-179803571D01*
X358142857Y-179803571D02*
X358142857Y-180303571D01*
X358178571Y-180267857D02*
X358178571Y-179839285D01*
X358214285Y-179839285D02*
X358214285Y-180267857D01*
X358250000Y-180196428D02*
X358250000Y-179910714D01*
X357928571Y-179767857D02*
X358071428Y-179767857D01*
X358214285Y-179839285D01*
X358285714Y-179982142D01*
X358285714Y-180125000D01*
X358214285Y-180267857D01*
X358071428Y-180339285D01*
X357928571Y-180339285D01*
X357785714Y-180267857D01*
X357714285Y-180125000D01*
X357714285Y-179982142D01*
X357785714Y-179839285D01*
X357928571Y-179767857D01*
X315750000Y-183910714D02*
X315750000Y-184196428D01*
X315785714Y-184232142D02*
X315928571Y-184339285D01*
X315785714Y-183875000D02*
X315928571Y-183767857D01*
X315785714Y-183839285D02*
X315785714Y-184267857D01*
X315821428Y-184267857D02*
X315821428Y-183839285D01*
X315857142Y-183803571D02*
X315857142Y-184303571D01*
X315892857Y-184303571D02*
X315892857Y-183803571D01*
X315928571Y-183767857D02*
X315928571Y-184339285D01*
X315964285Y-184339285D02*
X315964285Y-183767857D01*
X316000000Y-183767857D02*
X316000000Y-184339285D01*
X316035714Y-184339285D02*
X316035714Y-183767857D01*
X316071428Y-184339285D02*
X316214285Y-184232142D01*
X316071428Y-183767857D02*
X316071428Y-184339285D01*
X316071428Y-183767857D02*
X316214285Y-183875000D01*
X316107142Y-184303571D02*
X316107142Y-183803571D01*
X316142857Y-183803571D02*
X316142857Y-184303571D01*
X316178571Y-184267857D02*
X316178571Y-183839285D01*
X316214285Y-183839285D02*
X316214285Y-184267857D01*
X316250000Y-184196428D02*
X316250000Y-183910714D01*
X315928571Y-183767857D02*
X316071428Y-183767857D01*
X316214285Y-183839285D01*
X316285714Y-183982142D01*
X316285714Y-184125000D01*
X316214285Y-184267857D01*
X316071428Y-184339285D01*
X315928571Y-184339285D01*
X315785714Y-184267857D01*
X315714285Y-184125000D01*
X315714285Y-183982142D01*
X315785714Y-183839285D01*
X315928571Y-183767857D01*
X163905667Y-90599408D02*
X163905667Y-90666751D01*
X163838323Y-90801438D01*
X163770980Y-90868782D01*
X163636293Y-90936125D01*
X163501606Y-90936125D01*
X163400590Y-90902453D01*
X163232232Y-90801438D01*
X163131216Y-90700423D01*
X163030201Y-90532064D01*
X162996529Y-90431049D01*
X162996529Y-90296362D01*
X163063873Y-90161675D01*
X163131216Y-90094331D01*
X163265903Y-90026988D01*
X163333247Y-90026988D01*
X164107697Y-89589255D02*
X164579102Y-90060660D01*
X163669964Y-89488240D02*
X164006682Y-90161675D01*
X164444415Y-89723942D01*
X165858628Y-88781133D02*
X165454567Y-89185194D01*
X165656598Y-88983164D02*
X164949491Y-88276057D01*
X164983163Y-88444416D01*
X164983163Y-88579103D01*
X164949491Y-88680118D01*
X165993315Y-87703637D02*
X166464720Y-88175042D01*
X165690269Y-88006683D02*
X166060659Y-88377072D01*
X166161674Y-88410744D01*
X166262689Y-88377072D01*
X166363704Y-88276057D01*
X166397376Y-88175042D01*
X166397376Y-88107698D01*
X166666750Y-87232233D02*
X166431048Y-87467935D01*
X166801437Y-87838324D02*
X166094330Y-87131217D01*
X166431048Y-86794500D01*
X153055619Y-94668380D02*
X152722285Y-94192190D01*
X152484190Y-94668380D02*
X152484190Y-93668380D01*
X152865142Y-93668380D01*
X152960380Y-93716000D01*
X153008000Y-93763619D01*
X153055619Y-93858857D01*
X153055619Y-94001714D01*
X153008000Y-94096952D01*
X152960380Y-94144571D01*
X152865142Y-94192190D01*
X152484190Y-94192190D01*
X153484190Y-94144571D02*
X153817523Y-94144571D01*
X153960380Y-94668380D02*
X153484190Y-94668380D01*
X153484190Y-93668380D01*
X153960380Y-93668380D01*
X154341333Y-94620761D02*
X154484190Y-94668380D01*
X154722285Y-94668380D01*
X154817523Y-94620761D01*
X154865142Y-94573142D01*
X154912761Y-94477904D01*
X154912761Y-94382666D01*
X154865142Y-94287428D01*
X154817523Y-94239809D01*
X154722285Y-94192190D01*
X154531809Y-94144571D01*
X154436571Y-94096952D01*
X154388952Y-94049333D01*
X154341333Y-93954095D01*
X154341333Y-93858857D01*
X154388952Y-93763619D01*
X154436571Y-93716000D01*
X154531809Y-93668380D01*
X154769904Y-93668380D01*
X154912761Y-93716000D01*
X155341333Y-94144571D02*
X155674666Y-94144571D01*
X155817523Y-94668380D02*
X155341333Y-94668380D01*
X155341333Y-93668380D01*
X155817523Y-93668380D01*
X156103238Y-93668380D02*
X156674666Y-93668380D01*
X156388952Y-94668380D02*
X156388952Y-93668380D01*
X151460380Y-98420761D02*
X151603238Y-98468380D01*
X151841333Y-98468380D01*
X151936571Y-98420761D01*
X151984190Y-98373142D01*
X152031809Y-98277904D01*
X152031809Y-98182666D01*
X151984190Y-98087428D01*
X151936571Y-98039809D01*
X151841333Y-97992190D01*
X151650857Y-97944571D01*
X151555619Y-97896952D01*
X151508000Y-97849333D01*
X151460380Y-97754095D01*
X151460380Y-97658857D01*
X151508000Y-97563619D01*
X151555619Y-97516000D01*
X151650857Y-97468380D01*
X151888952Y-97468380D01*
X152031809Y-97516000D01*
X152365142Y-97468380D02*
X152603238Y-98468380D01*
X152793714Y-97754095D01*
X152984190Y-98468380D01*
X153222285Y-97468380D01*
X153365142Y-98563619D02*
X154127047Y-98563619D01*
X154365142Y-98468380D02*
X154365142Y-97468380D01*
X154746095Y-97468380D01*
X154841333Y-97516000D01*
X154888952Y-97563619D01*
X154936571Y-97658857D01*
X154936571Y-97801714D01*
X154888952Y-97896952D01*
X154841333Y-97944571D01*
X154746095Y-97992190D01*
X154365142Y-97992190D01*
X155793714Y-97801714D02*
X155793714Y-98468380D01*
X155365142Y-97801714D02*
X155365142Y-98325523D01*
X155412761Y-98420761D01*
X155508000Y-98468380D01*
X155650857Y-98468380D01*
X155746095Y-98420761D01*
X155793714Y-98373142D01*
X156222285Y-98420761D02*
X156317523Y-98468380D01*
X156508000Y-98468380D01*
X156603238Y-98420761D01*
X156650857Y-98325523D01*
X156650857Y-98277904D01*
X156603238Y-98182666D01*
X156508000Y-98135047D01*
X156365142Y-98135047D01*
X156269904Y-98087428D01*
X156222285Y-97992190D01*
X156222285Y-97944571D01*
X156269904Y-97849333D01*
X156365142Y-97801714D01*
X156508000Y-97801714D01*
X156603238Y-97849333D01*
X157079428Y-98468380D02*
X157079428Y-97468380D01*
X157508000Y-98468380D02*
X157508000Y-97944571D01*
X157460380Y-97849333D01*
X157365142Y-97801714D01*
X157222285Y-97801714D01*
X157127047Y-97849333D01*
X157079428Y-97896952D01*
X154761904Y-102952380D02*
X154761904Y-101952380D01*
X155000000Y-101952380D01*
X155142857Y-102000000D01*
X155238095Y-102095238D01*
X155285714Y-102190476D01*
X155333333Y-102380952D01*
X155333333Y-102523809D01*
X155285714Y-102714285D01*
X155238095Y-102809523D01*
X155142857Y-102904761D01*
X155000000Y-102952380D01*
X154761904Y-102952380D01*
X155761904Y-102428571D02*
X156095238Y-102428571D01*
X156238095Y-102952380D02*
X155761904Y-102952380D01*
X155761904Y-101952380D01*
X156238095Y-101952380D01*
X157000000Y-102428571D02*
X157142857Y-102476190D01*
X157190476Y-102523809D01*
X157238095Y-102619047D01*
X157238095Y-102761904D01*
X157190476Y-102857142D01*
X157142857Y-102904761D01*
X157047619Y-102952380D01*
X156666666Y-102952380D01*
X156666666Y-101952380D01*
X157000000Y-101952380D01*
X157095238Y-102000000D01*
X157142857Y-102047619D01*
X157190476Y-102142857D01*
X157190476Y-102238095D01*
X157142857Y-102333333D01*
X157095238Y-102380952D01*
X157000000Y-102428571D01*
X156666666Y-102428571D01*
X157666666Y-101952380D02*
X157666666Y-102761904D01*
X157714285Y-102857142D01*
X157761904Y-102904761D01*
X157857142Y-102952380D01*
X158047619Y-102952380D01*
X158142857Y-102904761D01*
X158190476Y-102857142D01*
X158238095Y-102761904D01*
X158238095Y-101952380D01*
X159238095Y-102000000D02*
X159142857Y-101952380D01*
X159000000Y-101952380D01*
X158857142Y-102000000D01*
X158761904Y-102095238D01*
X158714285Y-102190476D01*
X158666666Y-102380952D01*
X158666666Y-102523809D01*
X158714285Y-102714285D01*
X158761904Y-102809523D01*
X158857142Y-102904761D01*
X159000000Y-102952380D01*
X159095238Y-102952380D01*
X159238095Y-102904761D01*
X159285714Y-102857142D01*
X159285714Y-102523809D01*
X159095238Y-102523809D01*
X154316333Y-87818380D02*
X153983000Y-87342190D01*
X153744904Y-87818380D02*
X153744904Y-86818380D01*
X154125857Y-86818380D01*
X154221095Y-86866000D01*
X154268714Y-86913619D01*
X154316333Y-87008857D01*
X154316333Y-87151714D01*
X154268714Y-87246952D01*
X154221095Y-87294571D01*
X154125857Y-87342190D01*
X153744904Y-87342190D01*
X154697285Y-86913619D02*
X154744904Y-86866000D01*
X154840142Y-86818380D01*
X155078238Y-86818380D01*
X155173476Y-86866000D01*
X155221095Y-86913619D01*
X155268714Y-87008857D01*
X155268714Y-87104095D01*
X155221095Y-87246952D01*
X154649666Y-87818380D01*
X155268714Y-87818380D01*
X152625857Y-90118380D02*
X153244904Y-90118380D01*
X152911571Y-90499333D01*
X153054428Y-90499333D01*
X153149666Y-90546952D01*
X153197285Y-90594571D01*
X153244904Y-90689809D01*
X153244904Y-90927904D01*
X153197285Y-91023142D01*
X153149666Y-91070761D01*
X153054428Y-91118380D01*
X152768714Y-91118380D01*
X152673476Y-91070761D01*
X152625857Y-91023142D01*
X153578238Y-90118380D02*
X154197285Y-90118380D01*
X153863952Y-90499333D01*
X154006809Y-90499333D01*
X154102047Y-90546952D01*
X154149666Y-90594571D01*
X154197285Y-90689809D01*
X154197285Y-90927904D01*
X154149666Y-91023142D01*
X154102047Y-91070761D01*
X154006809Y-91118380D01*
X153721095Y-91118380D01*
X153625857Y-91070761D01*
X153578238Y-91023142D01*
X154816333Y-90118380D02*
X154911571Y-90118380D01*
X155006809Y-90166000D01*
X155054428Y-90213619D01*
X155102047Y-90308857D01*
X155149666Y-90499333D01*
X155149666Y-90737428D01*
X155102047Y-90927904D01*
X155054428Y-91023142D01*
X155006809Y-91070761D01*
X154911571Y-91118380D01*
X154816333Y-91118380D01*
X154721095Y-91070761D01*
X154673476Y-91023142D01*
X154625857Y-90927904D01*
X154578238Y-90737428D01*
X154578238Y-90499333D01*
X154625857Y-90308857D01*
X154673476Y-90213619D01*
X154721095Y-90166000D01*
X154816333Y-90118380D01*
X155530619Y-91118380D02*
X155768714Y-91118380D01*
X155768714Y-90927904D01*
X155673476Y-90880285D01*
X155578238Y-90785047D01*
X155530619Y-90642190D01*
X155530619Y-90404095D01*
X155578238Y-90261238D01*
X155673476Y-90166000D01*
X155816333Y-90118380D01*
X156006809Y-90118380D01*
X156149666Y-90166000D01*
X156244904Y-90261238D01*
X156292523Y-90404095D01*
X156292523Y-90642190D01*
X156244904Y-90785047D01*
X156149666Y-90880285D01*
X156054428Y-90927904D01*
X156054428Y-91118380D01*
X156292523Y-91118380D01*
X149341333Y-87818380D02*
X149008000Y-87342190D01*
X148769904Y-87818380D02*
X148769904Y-86818380D01*
X149150857Y-86818380D01*
X149246095Y-86866000D01*
X149293714Y-86913619D01*
X149341333Y-87008857D01*
X149341333Y-87151714D01*
X149293714Y-87246952D01*
X149246095Y-87294571D01*
X149150857Y-87342190D01*
X148769904Y-87342190D01*
X150293714Y-87818380D02*
X149722285Y-87818380D01*
X150008000Y-87818380D02*
X150008000Y-86818380D01*
X149912761Y-86961238D01*
X149817523Y-87056476D01*
X149722285Y-87104095D01*
X148341333Y-91118380D02*
X147769904Y-91118380D01*
X148055619Y-91118380D02*
X148055619Y-90118380D01*
X147960380Y-90261238D01*
X147865142Y-90356476D01*
X147769904Y-90404095D01*
X148960380Y-90118380D02*
X149055619Y-90118380D01*
X149150857Y-90166000D01*
X149198476Y-90213619D01*
X149246095Y-90308857D01*
X149293714Y-90499333D01*
X149293714Y-90737428D01*
X149246095Y-90927904D01*
X149198476Y-91023142D01*
X149150857Y-91070761D01*
X149055619Y-91118380D01*
X148960380Y-91118380D01*
X148865142Y-91070761D01*
X148817523Y-91023142D01*
X148769904Y-90927904D01*
X148722285Y-90737428D01*
X148722285Y-90499333D01*
X148769904Y-90308857D01*
X148817523Y-90213619D01*
X148865142Y-90166000D01*
X148960380Y-90118380D01*
X149722285Y-91118380D02*
X149722285Y-90118380D01*
X149817523Y-90737428D02*
X150103238Y-91118380D01*
X150103238Y-90451714D02*
X149722285Y-90832666D01*
X150484190Y-91118380D02*
X150722285Y-91118380D01*
X150722285Y-90927904D01*
X150627047Y-90880285D01*
X150531809Y-90785047D01*
X150484190Y-90642190D01*
X150484190Y-90404095D01*
X150531809Y-90261238D01*
X150627047Y-90166000D01*
X150769904Y-90118380D01*
X150960380Y-90118380D01*
X151103238Y-90166000D01*
X151198476Y-90261238D01*
X151246095Y-90404095D01*
X151246095Y-90642190D01*
X151198476Y-90785047D01*
X151103238Y-90880285D01*
X151008000Y-90927904D01*
X151008000Y-91118380D01*
X151246095Y-91118380D01*
X178232233Y-102772843D02*
X178232233Y-102840186D01*
X178164889Y-102974873D01*
X178097546Y-103042217D01*
X177962859Y-103109560D01*
X177828172Y-103109560D01*
X177727156Y-103075888D01*
X177558798Y-102974873D01*
X177457782Y-102873858D01*
X177356767Y-102705499D01*
X177323095Y-102604484D01*
X177323095Y-102469797D01*
X177390439Y-102335110D01*
X177457782Y-102267766D01*
X177592469Y-102200423D01*
X177659813Y-102200423D01*
X178232233Y-101493316D02*
X177895515Y-101830034D01*
X178198561Y-102200423D01*
X178198561Y-102133079D01*
X178232233Y-102032064D01*
X178400591Y-101863705D01*
X178501607Y-101830034D01*
X178568950Y-101830034D01*
X178669965Y-101863705D01*
X178838324Y-102032064D01*
X178871996Y-102133079D01*
X178871996Y-102200423D01*
X178838324Y-102301438D01*
X178669965Y-102469797D01*
X178568950Y-102503469D01*
X178501607Y-102503469D01*
X180185194Y-100954568D02*
X179781133Y-101358629D01*
X179983164Y-101156599D02*
X179276057Y-100449492D01*
X179309729Y-100617851D01*
X179309729Y-100752538D01*
X179276057Y-100853553D01*
X179915820Y-99809729D02*
X179983164Y-99742385D01*
X180084179Y-99708713D01*
X180151522Y-99708713D01*
X180252538Y-99742385D01*
X180420896Y-99843400D01*
X180589255Y-100011759D01*
X180690270Y-100180118D01*
X180723942Y-100281133D01*
X180723942Y-100348477D01*
X180690270Y-100449492D01*
X180622927Y-100516835D01*
X180521912Y-100550507D01*
X180454568Y-100550507D01*
X180353553Y-100516835D01*
X180185194Y-100415820D01*
X180016835Y-100247461D01*
X179915820Y-100079103D01*
X179882148Y-99978087D01*
X179882148Y-99910744D01*
X179915820Y-99809729D01*
X180589255Y-99136294D02*
X180656599Y-99068950D01*
X180757614Y-99035278D01*
X180824957Y-99035278D01*
X180925973Y-99068950D01*
X181094331Y-99169965D01*
X181262690Y-99338324D01*
X181363705Y-99506683D01*
X181397377Y-99607698D01*
X181397377Y-99675042D01*
X181363705Y-99776057D01*
X181296362Y-99843400D01*
X181195347Y-99877072D01*
X181128003Y-99877072D01*
X181026988Y-99843400D01*
X180858629Y-99742385D01*
X180690270Y-99574026D01*
X180589255Y-99405668D01*
X180555583Y-99304652D01*
X180555583Y-99237309D01*
X180589255Y-99136294D01*
X181363705Y-98833248D02*
X181835110Y-99304652D01*
X181431049Y-98900591D02*
X181431049Y-98833248D01*
X181464721Y-98732233D01*
X181565736Y-98631217D01*
X181666751Y-98597546D01*
X181767766Y-98631217D01*
X182138156Y-99001607D01*
X182340186Y-98058798D02*
X182104484Y-98294500D01*
X182474873Y-98664889D02*
X181767766Y-97957782D01*
X182104484Y-97621065D01*
X159341333Y-87723142D02*
X159293714Y-87770761D01*
X159150857Y-87818380D01*
X159055619Y-87818380D01*
X158912761Y-87770761D01*
X158817523Y-87675523D01*
X158769904Y-87580285D01*
X158722285Y-87389809D01*
X158722285Y-87246952D01*
X158769904Y-87056476D01*
X158817523Y-86961238D01*
X158912761Y-86866000D01*
X159055619Y-86818380D01*
X159150857Y-86818380D01*
X159293714Y-86866000D01*
X159341333Y-86913619D01*
X159674666Y-86818380D02*
X160293714Y-86818380D01*
X159960380Y-87199333D01*
X160103238Y-87199333D01*
X160198476Y-87246952D01*
X160246095Y-87294571D01*
X160293714Y-87389809D01*
X160293714Y-87627904D01*
X160246095Y-87723142D01*
X160198476Y-87770761D01*
X160103238Y-87818380D01*
X159817523Y-87818380D01*
X159722285Y-87770761D01*
X159674666Y-87723142D01*
X157960380Y-91118380D02*
X157388952Y-91118380D01*
X157674666Y-91118380D02*
X157674666Y-90118380D01*
X157579428Y-90261238D01*
X157484190Y-90356476D01*
X157388952Y-90404095D01*
X158579428Y-90118380D02*
X158674666Y-90118380D01*
X158769904Y-90166000D01*
X158817523Y-90213619D01*
X158865142Y-90308857D01*
X158912761Y-90499333D01*
X158912761Y-90737428D01*
X158865142Y-90927904D01*
X158817523Y-91023142D01*
X158769904Y-91070761D01*
X158674666Y-91118380D01*
X158579428Y-91118380D01*
X158484190Y-91070761D01*
X158436571Y-91023142D01*
X158388952Y-90927904D01*
X158341333Y-90737428D01*
X158341333Y-90499333D01*
X158388952Y-90308857D01*
X158436571Y-90213619D01*
X158484190Y-90166000D01*
X158579428Y-90118380D01*
X159531809Y-90118380D02*
X159627047Y-90118380D01*
X159722285Y-90166000D01*
X159769904Y-90213619D01*
X159817523Y-90308857D01*
X159865142Y-90499333D01*
X159865142Y-90737428D01*
X159817523Y-90927904D01*
X159769904Y-91023142D01*
X159722285Y-91070761D01*
X159627047Y-91118380D01*
X159531809Y-91118380D01*
X159436571Y-91070761D01*
X159388952Y-91023142D01*
X159341333Y-90927904D01*
X159293714Y-90737428D01*
X159293714Y-90499333D01*
X159341333Y-90308857D01*
X159388952Y-90213619D01*
X159436571Y-90166000D01*
X159531809Y-90118380D01*
X160293714Y-90451714D02*
X160293714Y-91118380D01*
X160293714Y-90546952D02*
X160341333Y-90499333D01*
X160436571Y-90451714D01*
X160579428Y-90451714D01*
X160674666Y-90499333D01*
X160722285Y-90594571D01*
X160722285Y-91118380D01*
X161531809Y-90594571D02*
X161198476Y-90594571D01*
X161198476Y-91118380D02*
X161198476Y-90118380D01*
X161674666Y-90118380D01*
X171960380Y-94777904D02*
X172769904Y-94777904D01*
X172865142Y-94730285D01*
X172912761Y-94682666D01*
X172960380Y-94587428D01*
X172960380Y-94396952D01*
X172912761Y-94301714D01*
X172865142Y-94254095D01*
X172769904Y-94206476D01*
X171960380Y-94206476D01*
X172055619Y-93777904D02*
X172008000Y-93730285D01*
X171960380Y-93635047D01*
X171960380Y-93396952D01*
X172008000Y-93301714D01*
X172055619Y-93254095D01*
X172150857Y-93206476D01*
X172246095Y-93206476D01*
X172388952Y-93254095D01*
X172960380Y-93825523D01*
X172960380Y-93206476D01*
X165760088Y-96113642D02*
X165962119Y-96315672D01*
X166012626Y-96315672D02*
X166189403Y-96290418D01*
X165760088Y-96063134D02*
X165785342Y-95886357D01*
X165734834Y-96037880D02*
X166037880Y-96340926D01*
X166063134Y-96315672D02*
X165760088Y-96012626D01*
X165760088Y-95962119D02*
X166113642Y-96315672D01*
X166138895Y-96290418D02*
X165785342Y-95936865D01*
X165785342Y-95886357D02*
X166189403Y-96290418D01*
X166214657Y-96265165D02*
X165810596Y-95861104D01*
X165835850Y-95835850D02*
X166239911Y-96239911D01*
X166265165Y-96214657D02*
X165861104Y-95810596D01*
X166290418Y-96189403D02*
X166315672Y-96012626D01*
X165886357Y-95785342D02*
X166290418Y-96189403D01*
X165886357Y-95785342D02*
X166063134Y-95760088D01*
X166290418Y-96138895D02*
X165936865Y-95785342D01*
X165962119Y-95760088D02*
X166315672Y-96113642D01*
X166315672Y-96063134D02*
X166012626Y-95760088D01*
X166037880Y-95734834D02*
X166340926Y-96037880D01*
X166315672Y-95962119D02*
X166113642Y-95760088D01*
X165785342Y-95886357D02*
X165886357Y-95785342D01*
X166037880Y-95734834D01*
X166189403Y-95785342D01*
X166290418Y-95886357D01*
X166340926Y-96037880D01*
X166290418Y-96189403D01*
X166189403Y-96290418D01*
X166037880Y-96340926D01*
X165886357Y-96290418D01*
X165785342Y-96189403D01*
X165734834Y-96037880D01*
X165785342Y-95886357D01*
X191555619Y-97582666D02*
X192031809Y-97582666D01*
X191460380Y-97868380D02*
X191793714Y-96868380D01*
X192127047Y-97868380D01*
X192460380Y-97868380D02*
X192460380Y-96868380D01*
X192841333Y-96868380D01*
X192936571Y-96916000D01*
X192984190Y-96963619D01*
X193031809Y-97058857D01*
X193031809Y-97201714D01*
X192984190Y-97296952D01*
X192936571Y-97344571D01*
X192841333Y-97392190D01*
X192460380Y-97392190D01*
X193412761Y-96963619D02*
X193460380Y-96916000D01*
X193555619Y-96868380D01*
X193793714Y-96868380D01*
X193888952Y-96916000D01*
X193936571Y-96963619D01*
X193984190Y-97058857D01*
X193984190Y-97154095D01*
X193936571Y-97296952D01*
X193365142Y-97868380D01*
X193984190Y-97868380D01*
X194936571Y-97868380D02*
X194365142Y-97868380D01*
X194650857Y-97868380D02*
X194650857Y-96868380D01*
X194555619Y-97011238D01*
X194460380Y-97106476D01*
X194365142Y-97154095D01*
X195888952Y-97868380D02*
X195317523Y-97868380D01*
X195603238Y-97868380D02*
X195603238Y-96868380D01*
X195508000Y-97011238D01*
X195412761Y-97106476D01*
X195317523Y-97154095D01*
X196269904Y-96963619D02*
X196317523Y-96916000D01*
X196412761Y-96868380D01*
X196650857Y-96868380D01*
X196746095Y-96916000D01*
X196793714Y-96963619D01*
X196841333Y-97058857D01*
X196841333Y-97154095D01*
X196793714Y-97296952D01*
X196222285Y-97868380D01*
X196841333Y-97868380D01*
X197269904Y-97868380D02*
X197269904Y-96868380D01*
X197841333Y-97868380D02*
X197412761Y-97296952D01*
X197841333Y-96868380D02*
X197269904Y-97439809D01*
X198269904Y-97487428D02*
X199031809Y-97487428D01*
X199412761Y-96868380D02*
X200031809Y-96868380D01*
X199698476Y-97249333D01*
X199841333Y-97249333D01*
X199936571Y-97296952D01*
X199984190Y-97344571D01*
X200031809Y-97439809D01*
X200031809Y-97677904D01*
X199984190Y-97773142D01*
X199936571Y-97820761D01*
X199841333Y-97868380D01*
X199555619Y-97868380D01*
X199460380Y-97820761D01*
X199412761Y-97773142D01*
X200460380Y-97773142D02*
X200508000Y-97820761D01*
X200460380Y-97868380D01*
X200412761Y-97820761D01*
X200460380Y-97773142D01*
X200460380Y-97868380D01*
X200841333Y-96868380D02*
X201460380Y-96868380D01*
X201127047Y-97249333D01*
X201269904Y-97249333D01*
X201365142Y-97296952D01*
X201412761Y-97344571D01*
X201460380Y-97439809D01*
X201460380Y-97677904D01*
X201412761Y-97773142D01*
X201365142Y-97820761D01*
X201269904Y-97868380D01*
X200984190Y-97868380D01*
X200888952Y-97820761D01*
X200841333Y-97773142D01*
X201007142Y-101166666D02*
X201054761Y-101214285D01*
X201102380Y-101357142D01*
X201102380Y-101452380D01*
X201054761Y-101595238D01*
X200959523Y-101690476D01*
X200864285Y-101738095D01*
X200673809Y-101785714D01*
X200530952Y-101785714D01*
X200340476Y-101738095D01*
X200245238Y-101690476D01*
X200150000Y-101595238D01*
X200102380Y-101452380D01*
X200102380Y-101357142D01*
X200150000Y-101214285D01*
X200197619Y-101166666D01*
X200197619Y-100785714D02*
X200150000Y-100738095D01*
X200102380Y-100642857D01*
X200102380Y-100404761D01*
X200150000Y-100309523D01*
X200197619Y-100261904D01*
X200292857Y-100214285D01*
X200388095Y-100214285D01*
X200530952Y-100261904D01*
X201102380Y-100833333D01*
X201102380Y-100214285D01*
X197802380Y-102071428D02*
X197802380Y-102642857D01*
X197802380Y-102357142D02*
X196802380Y-102357142D01*
X196945238Y-102452380D01*
X197040476Y-102547619D01*
X197088095Y-102642857D01*
X196802380Y-101452380D02*
X196802380Y-101357142D01*
X196850000Y-101261904D01*
X196897619Y-101214285D01*
X196992857Y-101166666D01*
X197183333Y-101119047D01*
X197421428Y-101119047D01*
X197611904Y-101166666D01*
X197707142Y-101214285D01*
X197754761Y-101261904D01*
X197802380Y-101357142D01*
X197802380Y-101452380D01*
X197754761Y-101547619D01*
X197707142Y-101595238D01*
X197611904Y-101642857D01*
X197421428Y-101690476D01*
X197183333Y-101690476D01*
X196992857Y-101642857D01*
X196897619Y-101595238D01*
X196850000Y-101547619D01*
X196802380Y-101452380D01*
X197135714Y-100261904D02*
X197802380Y-100261904D01*
X197135714Y-100690476D02*
X197659523Y-100690476D01*
X197754761Y-100642857D01*
X197802380Y-100547619D01*
X197802380Y-100404761D01*
X197754761Y-100309523D01*
X197707142Y-100261904D01*
X197278571Y-99452380D02*
X197278571Y-99785714D01*
X197802380Y-99785714D02*
X196802380Y-99785714D01*
X196802380Y-99309523D01*
X194833333Y-87707142D02*
X194785714Y-87754761D01*
X194642857Y-87802380D01*
X194547619Y-87802380D01*
X194404761Y-87754761D01*
X194309523Y-87659523D01*
X194261904Y-87564285D01*
X194214285Y-87373809D01*
X194214285Y-87230952D01*
X194261904Y-87040476D01*
X194309523Y-86945238D01*
X194404761Y-86850000D01*
X194547619Y-86802380D01*
X194642857Y-86802380D01*
X194785714Y-86850000D01*
X194833333Y-86897619D01*
X195785714Y-87802380D02*
X195214285Y-87802380D01*
X195500000Y-87802380D02*
X195500000Y-86802380D01*
X195404761Y-86945238D01*
X195309523Y-87040476D01*
X195214285Y-87088095D01*
X193928571Y-91102380D02*
X193357142Y-91102380D01*
X193642857Y-91102380D02*
X193642857Y-90102380D01*
X193547619Y-90245238D01*
X193452380Y-90340476D01*
X193357142Y-90388095D01*
X194547619Y-90102380D02*
X194642857Y-90102380D01*
X194738095Y-90150000D01*
X194785714Y-90197619D01*
X194833333Y-90292857D01*
X194880952Y-90483333D01*
X194880952Y-90721428D01*
X194833333Y-90911904D01*
X194785714Y-91007142D01*
X194738095Y-91054761D01*
X194642857Y-91102380D01*
X194547619Y-91102380D01*
X194452380Y-91054761D01*
X194404761Y-91007142D01*
X194357142Y-90911904D01*
X194309523Y-90721428D01*
X194309523Y-90483333D01*
X194357142Y-90292857D01*
X194404761Y-90197619D01*
X194452380Y-90150000D01*
X194547619Y-90102380D01*
X195738095Y-90435714D02*
X195738095Y-91102380D01*
X195309523Y-90435714D02*
X195309523Y-90959523D01*
X195357142Y-91054761D01*
X195452380Y-91102380D01*
X195595238Y-91102380D01*
X195690476Y-91054761D01*
X195738095Y-91007142D01*
X196547619Y-90578571D02*
X196214285Y-90578571D01*
X196214285Y-91102380D02*
X196214285Y-90102380D01*
X196690476Y-90102380D01*
M02*
