G04 #@! TF.GenerationSoftware,KiCad,Pcbnew,(5.1.5-0-10_14)*
G04 #@! TF.CreationDate,2021-11-19T11:56:32-05:00*
G04 #@! TF.ProjectId,MinimalSAMD21,4d696e69-6d61-46c5-9341-4d4432312e6b,rev?*
G04 #@! TF.SameCoordinates,Original*
G04 #@! TF.FileFunction,Copper,L2,Bot*
G04 #@! TF.FilePolarity,Positive*
%FSLAX46Y46*%
G04 Gerber Fmt 4.6, Leading zero omitted, Abs format (unit mm)*
G04 Created by KiCad (PCBNEW (5.1.5-0-10_14)) date 2021-11-19 11:56:32*
%MOMM*%
%LPD*%
G04 APERTURE LIST*
%ADD10O,1.700000X1.700000*%
%ADD11R,1.700000X1.700000*%
%ADD12C,0.800000*%
%ADD13C,0.250000*%
%ADD14C,0.254000*%
G04 APERTURE END LIST*
D10*
X165945820Y-81280000D03*
X168485820Y-81280000D03*
X171025820Y-81280000D03*
X173565820Y-81280000D03*
X176105820Y-81280000D03*
X178645820Y-81280000D03*
X181185820Y-81280000D03*
X183725820Y-81280000D03*
X186265820Y-81280000D03*
X188805820Y-81280000D03*
X191345820Y-81280000D03*
X193885820Y-81280000D03*
X196425820Y-81280000D03*
D11*
X198965820Y-81280000D03*
D10*
X199020000Y-109220000D03*
X196480000Y-109220000D03*
X193940000Y-109220000D03*
X191400000Y-109220000D03*
X188860000Y-109220000D03*
X186320000Y-109220000D03*
X183780000Y-109220000D03*
X181240000Y-109220000D03*
X178700000Y-109220000D03*
X176160000Y-109220000D03*
X173620000Y-109220000D03*
X171080000Y-109220000D03*
X168540000Y-109220000D03*
D11*
X166000000Y-109220000D03*
D10*
X150630000Y-109300000D03*
X153170000Y-109300000D03*
X155710000Y-109300000D03*
X158250000Y-109300000D03*
D11*
X160790000Y-109300000D03*
D12*
X163000000Y-95500000D03*
X165000000Y-97500000D03*
X171435105Y-92064895D03*
X157500000Y-83500000D03*
X163500000Y-84500000D03*
X186500000Y-97500000D03*
X191000000Y-92500000D03*
X199500000Y-86500000D03*
X195500000Y-103500000D03*
X163500000Y-103500000D03*
X174500000Y-94500000D03*
X153000000Y-103000000D03*
X155000000Y-94500000D03*
X150000000Y-84000000D03*
X182500000Y-100000000D03*
X178500000Y-104000000D03*
X169500000Y-85000000D03*
X162500000Y-89000000D03*
X160500000Y-95500000D03*
X160500000Y-103500000D03*
D13*
X182500000Y-100000000D02*
X178500000Y-104000000D01*
X165500000Y-89000000D02*
X162500000Y-89000000D01*
X169500000Y-85000000D02*
X165500000Y-89000000D01*
X160500000Y-95500000D02*
X160500000Y-103500000D01*
D14*
G36*
X201340001Y-112340000D02*
G01*
X147660000Y-112340000D01*
X147660000Y-109153740D01*
X149145000Y-109153740D01*
X149145000Y-109446260D01*
X149202068Y-109733158D01*
X149314010Y-110003411D01*
X149476525Y-110246632D01*
X149683368Y-110453475D01*
X149926589Y-110615990D01*
X150196842Y-110727932D01*
X150483740Y-110785000D01*
X150776260Y-110785000D01*
X151063158Y-110727932D01*
X151333411Y-110615990D01*
X151576632Y-110453475D01*
X151783475Y-110246632D01*
X151900000Y-110072240D01*
X152016525Y-110246632D01*
X152223368Y-110453475D01*
X152466589Y-110615990D01*
X152736842Y-110727932D01*
X153023740Y-110785000D01*
X153316260Y-110785000D01*
X153603158Y-110727932D01*
X153873411Y-110615990D01*
X154116632Y-110453475D01*
X154323475Y-110246632D01*
X154445195Y-110064466D01*
X154514822Y-110181355D01*
X154709731Y-110397588D01*
X154943080Y-110571641D01*
X155205901Y-110696825D01*
X155353110Y-110741476D01*
X155583000Y-110620155D01*
X155583000Y-109427000D01*
X155563000Y-109427000D01*
X155563000Y-109173000D01*
X155583000Y-109173000D01*
X155583000Y-107979845D01*
X155837000Y-107979845D01*
X155837000Y-109173000D01*
X155857000Y-109173000D01*
X155857000Y-109427000D01*
X155837000Y-109427000D01*
X155837000Y-110620155D01*
X156066890Y-110741476D01*
X156214099Y-110696825D01*
X156476920Y-110571641D01*
X156710269Y-110397588D01*
X156905178Y-110181355D01*
X156974805Y-110064466D01*
X157096525Y-110246632D01*
X157303368Y-110453475D01*
X157546589Y-110615990D01*
X157816842Y-110727932D01*
X158103740Y-110785000D01*
X158396260Y-110785000D01*
X158683158Y-110727932D01*
X158953411Y-110615990D01*
X159196632Y-110453475D01*
X159328487Y-110321620D01*
X159350498Y-110394180D01*
X159409463Y-110504494D01*
X159488815Y-110601185D01*
X159585506Y-110680537D01*
X159695820Y-110739502D01*
X159815518Y-110775812D01*
X159940000Y-110788072D01*
X161640000Y-110788072D01*
X161764482Y-110775812D01*
X161884180Y-110739502D01*
X161994494Y-110680537D01*
X162091185Y-110601185D01*
X162170537Y-110504494D01*
X162229502Y-110394180D01*
X162265812Y-110274482D01*
X162278072Y-110150000D01*
X162278072Y-108450000D01*
X162270193Y-108370000D01*
X164511928Y-108370000D01*
X164511928Y-110070000D01*
X164524188Y-110194482D01*
X164560498Y-110314180D01*
X164619463Y-110424494D01*
X164698815Y-110521185D01*
X164795506Y-110600537D01*
X164905820Y-110659502D01*
X165025518Y-110695812D01*
X165150000Y-110708072D01*
X166850000Y-110708072D01*
X166974482Y-110695812D01*
X167094180Y-110659502D01*
X167204494Y-110600537D01*
X167301185Y-110521185D01*
X167380537Y-110424494D01*
X167439502Y-110314180D01*
X167461513Y-110241620D01*
X167593368Y-110373475D01*
X167836589Y-110535990D01*
X168106842Y-110647932D01*
X168393740Y-110705000D01*
X168686260Y-110705000D01*
X168973158Y-110647932D01*
X169243411Y-110535990D01*
X169486632Y-110373475D01*
X169693475Y-110166632D01*
X169810000Y-109992240D01*
X169926525Y-110166632D01*
X170133368Y-110373475D01*
X170376589Y-110535990D01*
X170646842Y-110647932D01*
X170933740Y-110705000D01*
X171226260Y-110705000D01*
X171513158Y-110647932D01*
X171783411Y-110535990D01*
X172026632Y-110373475D01*
X172233475Y-110166632D01*
X172350000Y-109992240D01*
X172466525Y-110166632D01*
X172673368Y-110373475D01*
X172916589Y-110535990D01*
X173186842Y-110647932D01*
X173473740Y-110705000D01*
X173766260Y-110705000D01*
X174053158Y-110647932D01*
X174323411Y-110535990D01*
X174566632Y-110373475D01*
X174773475Y-110166632D01*
X174890000Y-109992240D01*
X175006525Y-110166632D01*
X175213368Y-110373475D01*
X175456589Y-110535990D01*
X175726842Y-110647932D01*
X176013740Y-110705000D01*
X176306260Y-110705000D01*
X176593158Y-110647932D01*
X176863411Y-110535990D01*
X177106632Y-110373475D01*
X177313475Y-110166632D01*
X177430000Y-109992240D01*
X177546525Y-110166632D01*
X177753368Y-110373475D01*
X177996589Y-110535990D01*
X178266842Y-110647932D01*
X178553740Y-110705000D01*
X178846260Y-110705000D01*
X179133158Y-110647932D01*
X179403411Y-110535990D01*
X179646632Y-110373475D01*
X179853475Y-110166632D01*
X179970000Y-109992240D01*
X180086525Y-110166632D01*
X180293368Y-110373475D01*
X180536589Y-110535990D01*
X180806842Y-110647932D01*
X181093740Y-110705000D01*
X181386260Y-110705000D01*
X181673158Y-110647932D01*
X181943411Y-110535990D01*
X182186632Y-110373475D01*
X182393475Y-110166632D01*
X182510000Y-109992240D01*
X182626525Y-110166632D01*
X182833368Y-110373475D01*
X183076589Y-110535990D01*
X183346842Y-110647932D01*
X183633740Y-110705000D01*
X183926260Y-110705000D01*
X184213158Y-110647932D01*
X184483411Y-110535990D01*
X184726632Y-110373475D01*
X184933475Y-110166632D01*
X185050000Y-109992240D01*
X185166525Y-110166632D01*
X185373368Y-110373475D01*
X185616589Y-110535990D01*
X185886842Y-110647932D01*
X186173740Y-110705000D01*
X186466260Y-110705000D01*
X186753158Y-110647932D01*
X187023411Y-110535990D01*
X187266632Y-110373475D01*
X187473475Y-110166632D01*
X187590000Y-109992240D01*
X187706525Y-110166632D01*
X187913368Y-110373475D01*
X188156589Y-110535990D01*
X188426842Y-110647932D01*
X188713740Y-110705000D01*
X189006260Y-110705000D01*
X189293158Y-110647932D01*
X189563411Y-110535990D01*
X189806632Y-110373475D01*
X190013475Y-110166632D01*
X190130000Y-109992240D01*
X190246525Y-110166632D01*
X190453368Y-110373475D01*
X190696589Y-110535990D01*
X190966842Y-110647932D01*
X191253740Y-110705000D01*
X191546260Y-110705000D01*
X191833158Y-110647932D01*
X192103411Y-110535990D01*
X192346632Y-110373475D01*
X192553475Y-110166632D01*
X192670000Y-109992240D01*
X192786525Y-110166632D01*
X192993368Y-110373475D01*
X193236589Y-110535990D01*
X193506842Y-110647932D01*
X193793740Y-110705000D01*
X194086260Y-110705000D01*
X194373158Y-110647932D01*
X194643411Y-110535990D01*
X194886632Y-110373475D01*
X195093475Y-110166632D01*
X195210000Y-109992240D01*
X195326525Y-110166632D01*
X195533368Y-110373475D01*
X195776589Y-110535990D01*
X196046842Y-110647932D01*
X196333740Y-110705000D01*
X196626260Y-110705000D01*
X196913158Y-110647932D01*
X197183411Y-110535990D01*
X197426632Y-110373475D01*
X197633475Y-110166632D01*
X197755195Y-109984466D01*
X197824822Y-110101355D01*
X198019731Y-110317588D01*
X198253080Y-110491641D01*
X198515901Y-110616825D01*
X198663110Y-110661476D01*
X198893000Y-110540155D01*
X198893000Y-109347000D01*
X199147000Y-109347000D01*
X199147000Y-110540155D01*
X199376890Y-110661476D01*
X199524099Y-110616825D01*
X199786920Y-110491641D01*
X200020269Y-110317588D01*
X200215178Y-110101355D01*
X200364157Y-109851252D01*
X200461481Y-109576891D01*
X200340814Y-109347000D01*
X199147000Y-109347000D01*
X198893000Y-109347000D01*
X198873000Y-109347000D01*
X198873000Y-109093000D01*
X198893000Y-109093000D01*
X198893000Y-107899845D01*
X199147000Y-107899845D01*
X199147000Y-109093000D01*
X200340814Y-109093000D01*
X200461481Y-108863109D01*
X200364157Y-108588748D01*
X200215178Y-108338645D01*
X200020269Y-108122412D01*
X199786920Y-107948359D01*
X199524099Y-107823175D01*
X199376890Y-107778524D01*
X199147000Y-107899845D01*
X198893000Y-107899845D01*
X198663110Y-107778524D01*
X198515901Y-107823175D01*
X198253080Y-107948359D01*
X198019731Y-108122412D01*
X197824822Y-108338645D01*
X197755195Y-108455534D01*
X197633475Y-108273368D01*
X197426632Y-108066525D01*
X197183411Y-107904010D01*
X196913158Y-107792068D01*
X196626260Y-107735000D01*
X196333740Y-107735000D01*
X196046842Y-107792068D01*
X195776589Y-107904010D01*
X195533368Y-108066525D01*
X195326525Y-108273368D01*
X195210000Y-108447760D01*
X195093475Y-108273368D01*
X194886632Y-108066525D01*
X194643411Y-107904010D01*
X194373158Y-107792068D01*
X194086260Y-107735000D01*
X193793740Y-107735000D01*
X193506842Y-107792068D01*
X193236589Y-107904010D01*
X192993368Y-108066525D01*
X192786525Y-108273368D01*
X192670000Y-108447760D01*
X192553475Y-108273368D01*
X192346632Y-108066525D01*
X192103411Y-107904010D01*
X191833158Y-107792068D01*
X191546260Y-107735000D01*
X191253740Y-107735000D01*
X190966842Y-107792068D01*
X190696589Y-107904010D01*
X190453368Y-108066525D01*
X190246525Y-108273368D01*
X190130000Y-108447760D01*
X190013475Y-108273368D01*
X189806632Y-108066525D01*
X189563411Y-107904010D01*
X189293158Y-107792068D01*
X189006260Y-107735000D01*
X188713740Y-107735000D01*
X188426842Y-107792068D01*
X188156589Y-107904010D01*
X187913368Y-108066525D01*
X187706525Y-108273368D01*
X187590000Y-108447760D01*
X187473475Y-108273368D01*
X187266632Y-108066525D01*
X187023411Y-107904010D01*
X186753158Y-107792068D01*
X186466260Y-107735000D01*
X186173740Y-107735000D01*
X185886842Y-107792068D01*
X185616589Y-107904010D01*
X185373368Y-108066525D01*
X185166525Y-108273368D01*
X185050000Y-108447760D01*
X184933475Y-108273368D01*
X184726632Y-108066525D01*
X184483411Y-107904010D01*
X184213158Y-107792068D01*
X183926260Y-107735000D01*
X183633740Y-107735000D01*
X183346842Y-107792068D01*
X183076589Y-107904010D01*
X182833368Y-108066525D01*
X182626525Y-108273368D01*
X182510000Y-108447760D01*
X182393475Y-108273368D01*
X182186632Y-108066525D01*
X181943411Y-107904010D01*
X181673158Y-107792068D01*
X181386260Y-107735000D01*
X181093740Y-107735000D01*
X180806842Y-107792068D01*
X180536589Y-107904010D01*
X180293368Y-108066525D01*
X180086525Y-108273368D01*
X179970000Y-108447760D01*
X179853475Y-108273368D01*
X179646632Y-108066525D01*
X179403411Y-107904010D01*
X179133158Y-107792068D01*
X178846260Y-107735000D01*
X178553740Y-107735000D01*
X178266842Y-107792068D01*
X177996589Y-107904010D01*
X177753368Y-108066525D01*
X177546525Y-108273368D01*
X177430000Y-108447760D01*
X177313475Y-108273368D01*
X177106632Y-108066525D01*
X176863411Y-107904010D01*
X176593158Y-107792068D01*
X176306260Y-107735000D01*
X176013740Y-107735000D01*
X175726842Y-107792068D01*
X175456589Y-107904010D01*
X175213368Y-108066525D01*
X175006525Y-108273368D01*
X174890000Y-108447760D01*
X174773475Y-108273368D01*
X174566632Y-108066525D01*
X174323411Y-107904010D01*
X174053158Y-107792068D01*
X173766260Y-107735000D01*
X173473740Y-107735000D01*
X173186842Y-107792068D01*
X172916589Y-107904010D01*
X172673368Y-108066525D01*
X172466525Y-108273368D01*
X172350000Y-108447760D01*
X172233475Y-108273368D01*
X172026632Y-108066525D01*
X171783411Y-107904010D01*
X171513158Y-107792068D01*
X171226260Y-107735000D01*
X170933740Y-107735000D01*
X170646842Y-107792068D01*
X170376589Y-107904010D01*
X170133368Y-108066525D01*
X169926525Y-108273368D01*
X169810000Y-108447760D01*
X169693475Y-108273368D01*
X169486632Y-108066525D01*
X169243411Y-107904010D01*
X168973158Y-107792068D01*
X168686260Y-107735000D01*
X168393740Y-107735000D01*
X168106842Y-107792068D01*
X167836589Y-107904010D01*
X167593368Y-108066525D01*
X167461513Y-108198380D01*
X167439502Y-108125820D01*
X167380537Y-108015506D01*
X167301185Y-107918815D01*
X167204494Y-107839463D01*
X167094180Y-107780498D01*
X166974482Y-107744188D01*
X166850000Y-107731928D01*
X165150000Y-107731928D01*
X165025518Y-107744188D01*
X164905820Y-107780498D01*
X164795506Y-107839463D01*
X164698815Y-107918815D01*
X164619463Y-108015506D01*
X164560498Y-108125820D01*
X164524188Y-108245518D01*
X164511928Y-108370000D01*
X162270193Y-108370000D01*
X162265812Y-108325518D01*
X162229502Y-108205820D01*
X162170537Y-108095506D01*
X162091185Y-107998815D01*
X161994494Y-107919463D01*
X161884180Y-107860498D01*
X161764482Y-107824188D01*
X161640000Y-107811928D01*
X159940000Y-107811928D01*
X159815518Y-107824188D01*
X159695820Y-107860498D01*
X159585506Y-107919463D01*
X159488815Y-107998815D01*
X159409463Y-108095506D01*
X159350498Y-108205820D01*
X159328487Y-108278380D01*
X159196632Y-108146525D01*
X158953411Y-107984010D01*
X158683158Y-107872068D01*
X158396260Y-107815000D01*
X158103740Y-107815000D01*
X157816842Y-107872068D01*
X157546589Y-107984010D01*
X157303368Y-108146525D01*
X157096525Y-108353368D01*
X156974805Y-108535534D01*
X156905178Y-108418645D01*
X156710269Y-108202412D01*
X156476920Y-108028359D01*
X156214099Y-107903175D01*
X156066890Y-107858524D01*
X155837000Y-107979845D01*
X155583000Y-107979845D01*
X155353110Y-107858524D01*
X155205901Y-107903175D01*
X154943080Y-108028359D01*
X154709731Y-108202412D01*
X154514822Y-108418645D01*
X154445195Y-108535534D01*
X154323475Y-108353368D01*
X154116632Y-108146525D01*
X153873411Y-107984010D01*
X153603158Y-107872068D01*
X153316260Y-107815000D01*
X153023740Y-107815000D01*
X152736842Y-107872068D01*
X152466589Y-107984010D01*
X152223368Y-108146525D01*
X152016525Y-108353368D01*
X151900000Y-108527760D01*
X151783475Y-108353368D01*
X151576632Y-108146525D01*
X151333411Y-107984010D01*
X151063158Y-107872068D01*
X150776260Y-107815000D01*
X150483740Y-107815000D01*
X150196842Y-107872068D01*
X149926589Y-107984010D01*
X149683368Y-108146525D01*
X149476525Y-108353368D01*
X149314010Y-108596589D01*
X149202068Y-108866842D01*
X149145000Y-109153740D01*
X147660000Y-109153740D01*
X147660000Y-95398061D01*
X159465000Y-95398061D01*
X159465000Y-95601939D01*
X159504774Y-95801898D01*
X159582795Y-95990256D01*
X159696063Y-96159774D01*
X159740000Y-96203711D01*
X159740001Y-102796288D01*
X159696063Y-102840226D01*
X159582795Y-103009744D01*
X159504774Y-103198102D01*
X159465000Y-103398061D01*
X159465000Y-103601939D01*
X159504774Y-103801898D01*
X159582795Y-103990256D01*
X159696063Y-104159774D01*
X159840226Y-104303937D01*
X160009744Y-104417205D01*
X160198102Y-104495226D01*
X160398061Y-104535000D01*
X160601939Y-104535000D01*
X160801898Y-104495226D01*
X160990256Y-104417205D01*
X161159774Y-104303937D01*
X161303937Y-104159774D01*
X161417205Y-103990256D01*
X161455393Y-103898061D01*
X177465000Y-103898061D01*
X177465000Y-104101939D01*
X177504774Y-104301898D01*
X177582795Y-104490256D01*
X177696063Y-104659774D01*
X177840226Y-104803937D01*
X178009744Y-104917205D01*
X178198102Y-104995226D01*
X178398061Y-105035000D01*
X178601939Y-105035000D01*
X178801898Y-104995226D01*
X178990256Y-104917205D01*
X179159774Y-104803937D01*
X179303937Y-104659774D01*
X179417205Y-104490256D01*
X179495226Y-104301898D01*
X179535000Y-104101939D01*
X179535000Y-104039801D01*
X182539802Y-101035000D01*
X182601939Y-101035000D01*
X182801898Y-100995226D01*
X182990256Y-100917205D01*
X183159774Y-100803937D01*
X183303937Y-100659774D01*
X183417205Y-100490256D01*
X183495226Y-100301898D01*
X183535000Y-100101939D01*
X183535000Y-99898061D01*
X183495226Y-99698102D01*
X183417205Y-99509744D01*
X183303937Y-99340226D01*
X183159774Y-99196063D01*
X182990256Y-99082795D01*
X182801898Y-99004774D01*
X182601939Y-98965000D01*
X182398061Y-98965000D01*
X182198102Y-99004774D01*
X182009744Y-99082795D01*
X181840226Y-99196063D01*
X181696063Y-99340226D01*
X181582795Y-99509744D01*
X181504774Y-99698102D01*
X181465000Y-99898061D01*
X181465000Y-99960198D01*
X178460199Y-102965000D01*
X178398061Y-102965000D01*
X178198102Y-103004774D01*
X178009744Y-103082795D01*
X177840226Y-103196063D01*
X177696063Y-103340226D01*
X177582795Y-103509744D01*
X177504774Y-103698102D01*
X177465000Y-103898061D01*
X161455393Y-103898061D01*
X161495226Y-103801898D01*
X161535000Y-103601939D01*
X161535000Y-103398061D01*
X161495226Y-103198102D01*
X161417205Y-103009744D01*
X161303937Y-102840226D01*
X161260000Y-102796289D01*
X161260000Y-96203711D01*
X161303937Y-96159774D01*
X161417205Y-95990256D01*
X161495226Y-95801898D01*
X161535000Y-95601939D01*
X161535000Y-95398061D01*
X161495226Y-95198102D01*
X161417205Y-95009744D01*
X161303937Y-94840226D01*
X161159774Y-94696063D01*
X160990256Y-94582795D01*
X160801898Y-94504774D01*
X160601939Y-94465000D01*
X160398061Y-94465000D01*
X160198102Y-94504774D01*
X160009744Y-94582795D01*
X159840226Y-94696063D01*
X159696063Y-94840226D01*
X159582795Y-95009744D01*
X159504774Y-95198102D01*
X159465000Y-95398061D01*
X147660000Y-95398061D01*
X147660000Y-88898061D01*
X161465000Y-88898061D01*
X161465000Y-89101939D01*
X161504774Y-89301898D01*
X161582795Y-89490256D01*
X161696063Y-89659774D01*
X161840226Y-89803937D01*
X162009744Y-89917205D01*
X162198102Y-89995226D01*
X162398061Y-90035000D01*
X162601939Y-90035000D01*
X162801898Y-89995226D01*
X162990256Y-89917205D01*
X163159774Y-89803937D01*
X163203711Y-89760000D01*
X165462678Y-89760000D01*
X165500000Y-89763676D01*
X165537322Y-89760000D01*
X165537333Y-89760000D01*
X165648986Y-89749003D01*
X165792247Y-89705546D01*
X165924276Y-89634974D01*
X166040001Y-89540001D01*
X166063804Y-89510997D01*
X169539802Y-86035000D01*
X169601939Y-86035000D01*
X169801898Y-85995226D01*
X169990256Y-85917205D01*
X170159774Y-85803937D01*
X170303937Y-85659774D01*
X170417205Y-85490256D01*
X170495226Y-85301898D01*
X170535000Y-85101939D01*
X170535000Y-84898061D01*
X170495226Y-84698102D01*
X170417205Y-84509744D01*
X170303937Y-84340226D01*
X170159774Y-84196063D01*
X169990256Y-84082795D01*
X169801898Y-84004774D01*
X169601939Y-83965000D01*
X169398061Y-83965000D01*
X169198102Y-84004774D01*
X169009744Y-84082795D01*
X168840226Y-84196063D01*
X168696063Y-84340226D01*
X168582795Y-84509744D01*
X168504774Y-84698102D01*
X168465000Y-84898061D01*
X168465000Y-84960198D01*
X165185199Y-88240000D01*
X163203711Y-88240000D01*
X163159774Y-88196063D01*
X162990256Y-88082795D01*
X162801898Y-88004774D01*
X162601939Y-87965000D01*
X162398061Y-87965000D01*
X162198102Y-88004774D01*
X162009744Y-88082795D01*
X161840226Y-88196063D01*
X161696063Y-88340226D01*
X161582795Y-88509744D01*
X161504774Y-88698102D01*
X161465000Y-88898061D01*
X147660000Y-88898061D01*
X147660000Y-81636891D01*
X164504339Y-81636891D01*
X164601663Y-81911252D01*
X164750642Y-82161355D01*
X164945551Y-82377588D01*
X165178900Y-82551641D01*
X165441721Y-82676825D01*
X165588930Y-82721476D01*
X165818820Y-82600155D01*
X165818820Y-81407000D01*
X164625006Y-81407000D01*
X164504339Y-81636891D01*
X147660000Y-81636891D01*
X147660000Y-80923109D01*
X164504339Y-80923109D01*
X164625006Y-81153000D01*
X165818820Y-81153000D01*
X165818820Y-79959845D01*
X166072820Y-79959845D01*
X166072820Y-81153000D01*
X166092820Y-81153000D01*
X166092820Y-81407000D01*
X166072820Y-81407000D01*
X166072820Y-82600155D01*
X166302710Y-82721476D01*
X166449919Y-82676825D01*
X166712740Y-82551641D01*
X166946089Y-82377588D01*
X167140998Y-82161355D01*
X167210625Y-82044466D01*
X167332345Y-82226632D01*
X167539188Y-82433475D01*
X167782409Y-82595990D01*
X168052662Y-82707932D01*
X168339560Y-82765000D01*
X168632080Y-82765000D01*
X168918978Y-82707932D01*
X169189231Y-82595990D01*
X169432452Y-82433475D01*
X169639295Y-82226632D01*
X169755820Y-82052240D01*
X169872345Y-82226632D01*
X170079188Y-82433475D01*
X170322409Y-82595990D01*
X170592662Y-82707932D01*
X170879560Y-82765000D01*
X171172080Y-82765000D01*
X171458978Y-82707932D01*
X171729231Y-82595990D01*
X171972452Y-82433475D01*
X172179295Y-82226632D01*
X172295820Y-82052240D01*
X172412345Y-82226632D01*
X172619188Y-82433475D01*
X172862409Y-82595990D01*
X173132662Y-82707932D01*
X173419560Y-82765000D01*
X173712080Y-82765000D01*
X173998978Y-82707932D01*
X174269231Y-82595990D01*
X174512452Y-82433475D01*
X174719295Y-82226632D01*
X174835820Y-82052240D01*
X174952345Y-82226632D01*
X175159188Y-82433475D01*
X175402409Y-82595990D01*
X175672662Y-82707932D01*
X175959560Y-82765000D01*
X176252080Y-82765000D01*
X176538978Y-82707932D01*
X176809231Y-82595990D01*
X177052452Y-82433475D01*
X177259295Y-82226632D01*
X177375820Y-82052240D01*
X177492345Y-82226632D01*
X177699188Y-82433475D01*
X177942409Y-82595990D01*
X178212662Y-82707932D01*
X178499560Y-82765000D01*
X178792080Y-82765000D01*
X179078978Y-82707932D01*
X179349231Y-82595990D01*
X179592452Y-82433475D01*
X179799295Y-82226632D01*
X179915820Y-82052240D01*
X180032345Y-82226632D01*
X180239188Y-82433475D01*
X180482409Y-82595990D01*
X180752662Y-82707932D01*
X181039560Y-82765000D01*
X181332080Y-82765000D01*
X181618978Y-82707932D01*
X181889231Y-82595990D01*
X182132452Y-82433475D01*
X182339295Y-82226632D01*
X182455820Y-82052240D01*
X182572345Y-82226632D01*
X182779188Y-82433475D01*
X183022409Y-82595990D01*
X183292662Y-82707932D01*
X183579560Y-82765000D01*
X183872080Y-82765000D01*
X184158978Y-82707932D01*
X184429231Y-82595990D01*
X184672452Y-82433475D01*
X184879295Y-82226632D01*
X184995820Y-82052240D01*
X185112345Y-82226632D01*
X185319188Y-82433475D01*
X185562409Y-82595990D01*
X185832662Y-82707932D01*
X186119560Y-82765000D01*
X186412080Y-82765000D01*
X186698978Y-82707932D01*
X186969231Y-82595990D01*
X187212452Y-82433475D01*
X187419295Y-82226632D01*
X187535820Y-82052240D01*
X187652345Y-82226632D01*
X187859188Y-82433475D01*
X188102409Y-82595990D01*
X188372662Y-82707932D01*
X188659560Y-82765000D01*
X188952080Y-82765000D01*
X189238978Y-82707932D01*
X189509231Y-82595990D01*
X189752452Y-82433475D01*
X189959295Y-82226632D01*
X190075820Y-82052240D01*
X190192345Y-82226632D01*
X190399188Y-82433475D01*
X190642409Y-82595990D01*
X190912662Y-82707932D01*
X191199560Y-82765000D01*
X191492080Y-82765000D01*
X191778978Y-82707932D01*
X192049231Y-82595990D01*
X192292452Y-82433475D01*
X192499295Y-82226632D01*
X192615820Y-82052240D01*
X192732345Y-82226632D01*
X192939188Y-82433475D01*
X193182409Y-82595990D01*
X193452662Y-82707932D01*
X193739560Y-82765000D01*
X194032080Y-82765000D01*
X194318978Y-82707932D01*
X194589231Y-82595990D01*
X194832452Y-82433475D01*
X195039295Y-82226632D01*
X195155820Y-82052240D01*
X195272345Y-82226632D01*
X195479188Y-82433475D01*
X195722409Y-82595990D01*
X195992662Y-82707932D01*
X196279560Y-82765000D01*
X196572080Y-82765000D01*
X196858978Y-82707932D01*
X197129231Y-82595990D01*
X197372452Y-82433475D01*
X197504307Y-82301620D01*
X197526318Y-82374180D01*
X197585283Y-82484494D01*
X197664635Y-82581185D01*
X197761326Y-82660537D01*
X197871640Y-82719502D01*
X197991338Y-82755812D01*
X198115820Y-82768072D01*
X199815820Y-82768072D01*
X199940302Y-82755812D01*
X200060000Y-82719502D01*
X200170314Y-82660537D01*
X200267005Y-82581185D01*
X200346357Y-82484494D01*
X200405322Y-82374180D01*
X200441632Y-82254482D01*
X200453892Y-82130000D01*
X200453892Y-80430000D01*
X200441632Y-80305518D01*
X200405322Y-80185820D01*
X200346357Y-80075506D01*
X200267005Y-79978815D01*
X200170314Y-79899463D01*
X200060000Y-79840498D01*
X199940302Y-79804188D01*
X199815820Y-79791928D01*
X198115820Y-79791928D01*
X197991338Y-79804188D01*
X197871640Y-79840498D01*
X197761326Y-79899463D01*
X197664635Y-79978815D01*
X197585283Y-80075506D01*
X197526318Y-80185820D01*
X197504307Y-80258380D01*
X197372452Y-80126525D01*
X197129231Y-79964010D01*
X196858978Y-79852068D01*
X196572080Y-79795000D01*
X196279560Y-79795000D01*
X195992662Y-79852068D01*
X195722409Y-79964010D01*
X195479188Y-80126525D01*
X195272345Y-80333368D01*
X195155820Y-80507760D01*
X195039295Y-80333368D01*
X194832452Y-80126525D01*
X194589231Y-79964010D01*
X194318978Y-79852068D01*
X194032080Y-79795000D01*
X193739560Y-79795000D01*
X193452662Y-79852068D01*
X193182409Y-79964010D01*
X192939188Y-80126525D01*
X192732345Y-80333368D01*
X192615820Y-80507760D01*
X192499295Y-80333368D01*
X192292452Y-80126525D01*
X192049231Y-79964010D01*
X191778978Y-79852068D01*
X191492080Y-79795000D01*
X191199560Y-79795000D01*
X190912662Y-79852068D01*
X190642409Y-79964010D01*
X190399188Y-80126525D01*
X190192345Y-80333368D01*
X190075820Y-80507760D01*
X189959295Y-80333368D01*
X189752452Y-80126525D01*
X189509231Y-79964010D01*
X189238978Y-79852068D01*
X188952080Y-79795000D01*
X188659560Y-79795000D01*
X188372662Y-79852068D01*
X188102409Y-79964010D01*
X187859188Y-80126525D01*
X187652345Y-80333368D01*
X187535820Y-80507760D01*
X187419295Y-80333368D01*
X187212452Y-80126525D01*
X186969231Y-79964010D01*
X186698978Y-79852068D01*
X186412080Y-79795000D01*
X186119560Y-79795000D01*
X185832662Y-79852068D01*
X185562409Y-79964010D01*
X185319188Y-80126525D01*
X185112345Y-80333368D01*
X184995820Y-80507760D01*
X184879295Y-80333368D01*
X184672452Y-80126525D01*
X184429231Y-79964010D01*
X184158978Y-79852068D01*
X183872080Y-79795000D01*
X183579560Y-79795000D01*
X183292662Y-79852068D01*
X183022409Y-79964010D01*
X182779188Y-80126525D01*
X182572345Y-80333368D01*
X182455820Y-80507760D01*
X182339295Y-80333368D01*
X182132452Y-80126525D01*
X181889231Y-79964010D01*
X181618978Y-79852068D01*
X181332080Y-79795000D01*
X181039560Y-79795000D01*
X180752662Y-79852068D01*
X180482409Y-79964010D01*
X180239188Y-80126525D01*
X180032345Y-80333368D01*
X179915820Y-80507760D01*
X179799295Y-80333368D01*
X179592452Y-80126525D01*
X179349231Y-79964010D01*
X179078978Y-79852068D01*
X178792080Y-79795000D01*
X178499560Y-79795000D01*
X178212662Y-79852068D01*
X177942409Y-79964010D01*
X177699188Y-80126525D01*
X177492345Y-80333368D01*
X177375820Y-80507760D01*
X177259295Y-80333368D01*
X177052452Y-80126525D01*
X176809231Y-79964010D01*
X176538978Y-79852068D01*
X176252080Y-79795000D01*
X175959560Y-79795000D01*
X175672662Y-79852068D01*
X175402409Y-79964010D01*
X175159188Y-80126525D01*
X174952345Y-80333368D01*
X174835820Y-80507760D01*
X174719295Y-80333368D01*
X174512452Y-80126525D01*
X174269231Y-79964010D01*
X173998978Y-79852068D01*
X173712080Y-79795000D01*
X173419560Y-79795000D01*
X173132662Y-79852068D01*
X172862409Y-79964010D01*
X172619188Y-80126525D01*
X172412345Y-80333368D01*
X172295820Y-80507760D01*
X172179295Y-80333368D01*
X171972452Y-80126525D01*
X171729231Y-79964010D01*
X171458978Y-79852068D01*
X171172080Y-79795000D01*
X170879560Y-79795000D01*
X170592662Y-79852068D01*
X170322409Y-79964010D01*
X170079188Y-80126525D01*
X169872345Y-80333368D01*
X169755820Y-80507760D01*
X169639295Y-80333368D01*
X169432452Y-80126525D01*
X169189231Y-79964010D01*
X168918978Y-79852068D01*
X168632080Y-79795000D01*
X168339560Y-79795000D01*
X168052662Y-79852068D01*
X167782409Y-79964010D01*
X167539188Y-80126525D01*
X167332345Y-80333368D01*
X167210625Y-80515534D01*
X167140998Y-80398645D01*
X166946089Y-80182412D01*
X166712740Y-80008359D01*
X166449919Y-79883175D01*
X166302710Y-79838524D01*
X166072820Y-79959845D01*
X165818820Y-79959845D01*
X165588930Y-79838524D01*
X165441721Y-79883175D01*
X165178900Y-80008359D01*
X164945551Y-80182412D01*
X164750642Y-80398645D01*
X164601663Y-80648748D01*
X164504339Y-80923109D01*
X147660000Y-80923109D01*
X147660000Y-78660000D01*
X201340000Y-78660000D01*
X201340001Y-112340000D01*
G37*
X201340001Y-112340000D02*
X147660000Y-112340000D01*
X147660000Y-109153740D01*
X149145000Y-109153740D01*
X149145000Y-109446260D01*
X149202068Y-109733158D01*
X149314010Y-110003411D01*
X149476525Y-110246632D01*
X149683368Y-110453475D01*
X149926589Y-110615990D01*
X150196842Y-110727932D01*
X150483740Y-110785000D01*
X150776260Y-110785000D01*
X151063158Y-110727932D01*
X151333411Y-110615990D01*
X151576632Y-110453475D01*
X151783475Y-110246632D01*
X151900000Y-110072240D01*
X152016525Y-110246632D01*
X152223368Y-110453475D01*
X152466589Y-110615990D01*
X152736842Y-110727932D01*
X153023740Y-110785000D01*
X153316260Y-110785000D01*
X153603158Y-110727932D01*
X153873411Y-110615990D01*
X154116632Y-110453475D01*
X154323475Y-110246632D01*
X154445195Y-110064466D01*
X154514822Y-110181355D01*
X154709731Y-110397588D01*
X154943080Y-110571641D01*
X155205901Y-110696825D01*
X155353110Y-110741476D01*
X155583000Y-110620155D01*
X155583000Y-109427000D01*
X155563000Y-109427000D01*
X155563000Y-109173000D01*
X155583000Y-109173000D01*
X155583000Y-107979845D01*
X155837000Y-107979845D01*
X155837000Y-109173000D01*
X155857000Y-109173000D01*
X155857000Y-109427000D01*
X155837000Y-109427000D01*
X155837000Y-110620155D01*
X156066890Y-110741476D01*
X156214099Y-110696825D01*
X156476920Y-110571641D01*
X156710269Y-110397588D01*
X156905178Y-110181355D01*
X156974805Y-110064466D01*
X157096525Y-110246632D01*
X157303368Y-110453475D01*
X157546589Y-110615990D01*
X157816842Y-110727932D01*
X158103740Y-110785000D01*
X158396260Y-110785000D01*
X158683158Y-110727932D01*
X158953411Y-110615990D01*
X159196632Y-110453475D01*
X159328487Y-110321620D01*
X159350498Y-110394180D01*
X159409463Y-110504494D01*
X159488815Y-110601185D01*
X159585506Y-110680537D01*
X159695820Y-110739502D01*
X159815518Y-110775812D01*
X159940000Y-110788072D01*
X161640000Y-110788072D01*
X161764482Y-110775812D01*
X161884180Y-110739502D01*
X161994494Y-110680537D01*
X162091185Y-110601185D01*
X162170537Y-110504494D01*
X162229502Y-110394180D01*
X162265812Y-110274482D01*
X162278072Y-110150000D01*
X162278072Y-108450000D01*
X162270193Y-108370000D01*
X164511928Y-108370000D01*
X164511928Y-110070000D01*
X164524188Y-110194482D01*
X164560498Y-110314180D01*
X164619463Y-110424494D01*
X164698815Y-110521185D01*
X164795506Y-110600537D01*
X164905820Y-110659502D01*
X165025518Y-110695812D01*
X165150000Y-110708072D01*
X166850000Y-110708072D01*
X166974482Y-110695812D01*
X167094180Y-110659502D01*
X167204494Y-110600537D01*
X167301185Y-110521185D01*
X167380537Y-110424494D01*
X167439502Y-110314180D01*
X167461513Y-110241620D01*
X167593368Y-110373475D01*
X167836589Y-110535990D01*
X168106842Y-110647932D01*
X168393740Y-110705000D01*
X168686260Y-110705000D01*
X168973158Y-110647932D01*
X169243411Y-110535990D01*
X169486632Y-110373475D01*
X169693475Y-110166632D01*
X169810000Y-109992240D01*
X169926525Y-110166632D01*
X170133368Y-110373475D01*
X170376589Y-110535990D01*
X170646842Y-110647932D01*
X170933740Y-110705000D01*
X171226260Y-110705000D01*
X171513158Y-110647932D01*
X171783411Y-110535990D01*
X172026632Y-110373475D01*
X172233475Y-110166632D01*
X172350000Y-109992240D01*
X172466525Y-110166632D01*
X172673368Y-110373475D01*
X172916589Y-110535990D01*
X173186842Y-110647932D01*
X173473740Y-110705000D01*
X173766260Y-110705000D01*
X174053158Y-110647932D01*
X174323411Y-110535990D01*
X174566632Y-110373475D01*
X174773475Y-110166632D01*
X174890000Y-109992240D01*
X175006525Y-110166632D01*
X175213368Y-110373475D01*
X175456589Y-110535990D01*
X175726842Y-110647932D01*
X176013740Y-110705000D01*
X176306260Y-110705000D01*
X176593158Y-110647932D01*
X176863411Y-110535990D01*
X177106632Y-110373475D01*
X177313475Y-110166632D01*
X177430000Y-109992240D01*
X177546525Y-110166632D01*
X177753368Y-110373475D01*
X177996589Y-110535990D01*
X178266842Y-110647932D01*
X178553740Y-110705000D01*
X178846260Y-110705000D01*
X179133158Y-110647932D01*
X179403411Y-110535990D01*
X179646632Y-110373475D01*
X179853475Y-110166632D01*
X179970000Y-109992240D01*
X180086525Y-110166632D01*
X180293368Y-110373475D01*
X180536589Y-110535990D01*
X180806842Y-110647932D01*
X181093740Y-110705000D01*
X181386260Y-110705000D01*
X181673158Y-110647932D01*
X181943411Y-110535990D01*
X182186632Y-110373475D01*
X182393475Y-110166632D01*
X182510000Y-109992240D01*
X182626525Y-110166632D01*
X182833368Y-110373475D01*
X183076589Y-110535990D01*
X183346842Y-110647932D01*
X183633740Y-110705000D01*
X183926260Y-110705000D01*
X184213158Y-110647932D01*
X184483411Y-110535990D01*
X184726632Y-110373475D01*
X184933475Y-110166632D01*
X185050000Y-109992240D01*
X185166525Y-110166632D01*
X185373368Y-110373475D01*
X185616589Y-110535990D01*
X185886842Y-110647932D01*
X186173740Y-110705000D01*
X186466260Y-110705000D01*
X186753158Y-110647932D01*
X187023411Y-110535990D01*
X187266632Y-110373475D01*
X187473475Y-110166632D01*
X187590000Y-109992240D01*
X187706525Y-110166632D01*
X187913368Y-110373475D01*
X188156589Y-110535990D01*
X188426842Y-110647932D01*
X188713740Y-110705000D01*
X189006260Y-110705000D01*
X189293158Y-110647932D01*
X189563411Y-110535990D01*
X189806632Y-110373475D01*
X190013475Y-110166632D01*
X190130000Y-109992240D01*
X190246525Y-110166632D01*
X190453368Y-110373475D01*
X190696589Y-110535990D01*
X190966842Y-110647932D01*
X191253740Y-110705000D01*
X191546260Y-110705000D01*
X191833158Y-110647932D01*
X192103411Y-110535990D01*
X192346632Y-110373475D01*
X192553475Y-110166632D01*
X192670000Y-109992240D01*
X192786525Y-110166632D01*
X192993368Y-110373475D01*
X193236589Y-110535990D01*
X193506842Y-110647932D01*
X193793740Y-110705000D01*
X194086260Y-110705000D01*
X194373158Y-110647932D01*
X194643411Y-110535990D01*
X194886632Y-110373475D01*
X195093475Y-110166632D01*
X195210000Y-109992240D01*
X195326525Y-110166632D01*
X195533368Y-110373475D01*
X195776589Y-110535990D01*
X196046842Y-110647932D01*
X196333740Y-110705000D01*
X196626260Y-110705000D01*
X196913158Y-110647932D01*
X197183411Y-110535990D01*
X197426632Y-110373475D01*
X197633475Y-110166632D01*
X197755195Y-109984466D01*
X197824822Y-110101355D01*
X198019731Y-110317588D01*
X198253080Y-110491641D01*
X198515901Y-110616825D01*
X198663110Y-110661476D01*
X198893000Y-110540155D01*
X198893000Y-109347000D01*
X199147000Y-109347000D01*
X199147000Y-110540155D01*
X199376890Y-110661476D01*
X199524099Y-110616825D01*
X199786920Y-110491641D01*
X200020269Y-110317588D01*
X200215178Y-110101355D01*
X200364157Y-109851252D01*
X200461481Y-109576891D01*
X200340814Y-109347000D01*
X199147000Y-109347000D01*
X198893000Y-109347000D01*
X198873000Y-109347000D01*
X198873000Y-109093000D01*
X198893000Y-109093000D01*
X198893000Y-107899845D01*
X199147000Y-107899845D01*
X199147000Y-109093000D01*
X200340814Y-109093000D01*
X200461481Y-108863109D01*
X200364157Y-108588748D01*
X200215178Y-108338645D01*
X200020269Y-108122412D01*
X199786920Y-107948359D01*
X199524099Y-107823175D01*
X199376890Y-107778524D01*
X199147000Y-107899845D01*
X198893000Y-107899845D01*
X198663110Y-107778524D01*
X198515901Y-107823175D01*
X198253080Y-107948359D01*
X198019731Y-108122412D01*
X197824822Y-108338645D01*
X197755195Y-108455534D01*
X197633475Y-108273368D01*
X197426632Y-108066525D01*
X197183411Y-107904010D01*
X196913158Y-107792068D01*
X196626260Y-107735000D01*
X196333740Y-107735000D01*
X196046842Y-107792068D01*
X195776589Y-107904010D01*
X195533368Y-108066525D01*
X195326525Y-108273368D01*
X195210000Y-108447760D01*
X195093475Y-108273368D01*
X194886632Y-108066525D01*
X194643411Y-107904010D01*
X194373158Y-107792068D01*
X194086260Y-107735000D01*
X193793740Y-107735000D01*
X193506842Y-107792068D01*
X193236589Y-107904010D01*
X192993368Y-108066525D01*
X192786525Y-108273368D01*
X192670000Y-108447760D01*
X192553475Y-108273368D01*
X192346632Y-108066525D01*
X192103411Y-107904010D01*
X191833158Y-107792068D01*
X191546260Y-107735000D01*
X191253740Y-107735000D01*
X190966842Y-107792068D01*
X190696589Y-107904010D01*
X190453368Y-108066525D01*
X190246525Y-108273368D01*
X190130000Y-108447760D01*
X190013475Y-108273368D01*
X189806632Y-108066525D01*
X189563411Y-107904010D01*
X189293158Y-107792068D01*
X189006260Y-107735000D01*
X188713740Y-107735000D01*
X188426842Y-107792068D01*
X188156589Y-107904010D01*
X187913368Y-108066525D01*
X187706525Y-108273368D01*
X187590000Y-108447760D01*
X187473475Y-108273368D01*
X187266632Y-108066525D01*
X187023411Y-107904010D01*
X186753158Y-107792068D01*
X186466260Y-107735000D01*
X186173740Y-107735000D01*
X185886842Y-107792068D01*
X185616589Y-107904010D01*
X185373368Y-108066525D01*
X185166525Y-108273368D01*
X185050000Y-108447760D01*
X184933475Y-108273368D01*
X184726632Y-108066525D01*
X184483411Y-107904010D01*
X184213158Y-107792068D01*
X183926260Y-107735000D01*
X183633740Y-107735000D01*
X183346842Y-107792068D01*
X183076589Y-107904010D01*
X182833368Y-108066525D01*
X182626525Y-108273368D01*
X182510000Y-108447760D01*
X182393475Y-108273368D01*
X182186632Y-108066525D01*
X181943411Y-107904010D01*
X181673158Y-107792068D01*
X181386260Y-107735000D01*
X181093740Y-107735000D01*
X180806842Y-107792068D01*
X180536589Y-107904010D01*
X180293368Y-108066525D01*
X180086525Y-108273368D01*
X179970000Y-108447760D01*
X179853475Y-108273368D01*
X179646632Y-108066525D01*
X179403411Y-107904010D01*
X179133158Y-107792068D01*
X178846260Y-107735000D01*
X178553740Y-107735000D01*
X178266842Y-107792068D01*
X177996589Y-107904010D01*
X177753368Y-108066525D01*
X177546525Y-108273368D01*
X177430000Y-108447760D01*
X177313475Y-108273368D01*
X177106632Y-108066525D01*
X176863411Y-107904010D01*
X176593158Y-107792068D01*
X176306260Y-107735000D01*
X176013740Y-107735000D01*
X175726842Y-107792068D01*
X175456589Y-107904010D01*
X175213368Y-108066525D01*
X175006525Y-108273368D01*
X174890000Y-108447760D01*
X174773475Y-108273368D01*
X174566632Y-108066525D01*
X174323411Y-107904010D01*
X174053158Y-107792068D01*
X173766260Y-107735000D01*
X173473740Y-107735000D01*
X173186842Y-107792068D01*
X172916589Y-107904010D01*
X172673368Y-108066525D01*
X172466525Y-108273368D01*
X172350000Y-108447760D01*
X172233475Y-108273368D01*
X172026632Y-108066525D01*
X171783411Y-107904010D01*
X171513158Y-107792068D01*
X171226260Y-107735000D01*
X170933740Y-107735000D01*
X170646842Y-107792068D01*
X170376589Y-107904010D01*
X170133368Y-108066525D01*
X169926525Y-108273368D01*
X169810000Y-108447760D01*
X169693475Y-108273368D01*
X169486632Y-108066525D01*
X169243411Y-107904010D01*
X168973158Y-107792068D01*
X168686260Y-107735000D01*
X168393740Y-107735000D01*
X168106842Y-107792068D01*
X167836589Y-107904010D01*
X167593368Y-108066525D01*
X167461513Y-108198380D01*
X167439502Y-108125820D01*
X167380537Y-108015506D01*
X167301185Y-107918815D01*
X167204494Y-107839463D01*
X167094180Y-107780498D01*
X166974482Y-107744188D01*
X166850000Y-107731928D01*
X165150000Y-107731928D01*
X165025518Y-107744188D01*
X164905820Y-107780498D01*
X164795506Y-107839463D01*
X164698815Y-107918815D01*
X164619463Y-108015506D01*
X164560498Y-108125820D01*
X164524188Y-108245518D01*
X164511928Y-108370000D01*
X162270193Y-108370000D01*
X162265812Y-108325518D01*
X162229502Y-108205820D01*
X162170537Y-108095506D01*
X162091185Y-107998815D01*
X161994494Y-107919463D01*
X161884180Y-107860498D01*
X161764482Y-107824188D01*
X161640000Y-107811928D01*
X159940000Y-107811928D01*
X159815518Y-107824188D01*
X159695820Y-107860498D01*
X159585506Y-107919463D01*
X159488815Y-107998815D01*
X159409463Y-108095506D01*
X159350498Y-108205820D01*
X159328487Y-108278380D01*
X159196632Y-108146525D01*
X158953411Y-107984010D01*
X158683158Y-107872068D01*
X158396260Y-107815000D01*
X158103740Y-107815000D01*
X157816842Y-107872068D01*
X157546589Y-107984010D01*
X157303368Y-108146525D01*
X157096525Y-108353368D01*
X156974805Y-108535534D01*
X156905178Y-108418645D01*
X156710269Y-108202412D01*
X156476920Y-108028359D01*
X156214099Y-107903175D01*
X156066890Y-107858524D01*
X155837000Y-107979845D01*
X155583000Y-107979845D01*
X155353110Y-107858524D01*
X155205901Y-107903175D01*
X154943080Y-108028359D01*
X154709731Y-108202412D01*
X154514822Y-108418645D01*
X154445195Y-108535534D01*
X154323475Y-108353368D01*
X154116632Y-108146525D01*
X153873411Y-107984010D01*
X153603158Y-107872068D01*
X153316260Y-107815000D01*
X153023740Y-107815000D01*
X152736842Y-107872068D01*
X152466589Y-107984010D01*
X152223368Y-108146525D01*
X152016525Y-108353368D01*
X151900000Y-108527760D01*
X151783475Y-108353368D01*
X151576632Y-108146525D01*
X151333411Y-107984010D01*
X151063158Y-107872068D01*
X150776260Y-107815000D01*
X150483740Y-107815000D01*
X150196842Y-107872068D01*
X149926589Y-107984010D01*
X149683368Y-108146525D01*
X149476525Y-108353368D01*
X149314010Y-108596589D01*
X149202068Y-108866842D01*
X149145000Y-109153740D01*
X147660000Y-109153740D01*
X147660000Y-95398061D01*
X159465000Y-95398061D01*
X159465000Y-95601939D01*
X159504774Y-95801898D01*
X159582795Y-95990256D01*
X159696063Y-96159774D01*
X159740000Y-96203711D01*
X159740001Y-102796288D01*
X159696063Y-102840226D01*
X159582795Y-103009744D01*
X159504774Y-103198102D01*
X159465000Y-103398061D01*
X159465000Y-103601939D01*
X159504774Y-103801898D01*
X159582795Y-103990256D01*
X159696063Y-104159774D01*
X159840226Y-104303937D01*
X160009744Y-104417205D01*
X160198102Y-104495226D01*
X160398061Y-104535000D01*
X160601939Y-104535000D01*
X160801898Y-104495226D01*
X160990256Y-104417205D01*
X161159774Y-104303937D01*
X161303937Y-104159774D01*
X161417205Y-103990256D01*
X161455393Y-103898061D01*
X177465000Y-103898061D01*
X177465000Y-104101939D01*
X177504774Y-104301898D01*
X177582795Y-104490256D01*
X177696063Y-104659774D01*
X177840226Y-104803937D01*
X178009744Y-104917205D01*
X178198102Y-104995226D01*
X178398061Y-105035000D01*
X178601939Y-105035000D01*
X178801898Y-104995226D01*
X178990256Y-104917205D01*
X179159774Y-104803937D01*
X179303937Y-104659774D01*
X179417205Y-104490256D01*
X179495226Y-104301898D01*
X179535000Y-104101939D01*
X179535000Y-104039801D01*
X182539802Y-101035000D01*
X182601939Y-101035000D01*
X182801898Y-100995226D01*
X182990256Y-100917205D01*
X183159774Y-100803937D01*
X183303937Y-100659774D01*
X183417205Y-100490256D01*
X183495226Y-100301898D01*
X183535000Y-100101939D01*
X183535000Y-99898061D01*
X183495226Y-99698102D01*
X183417205Y-99509744D01*
X183303937Y-99340226D01*
X183159774Y-99196063D01*
X182990256Y-99082795D01*
X182801898Y-99004774D01*
X182601939Y-98965000D01*
X182398061Y-98965000D01*
X182198102Y-99004774D01*
X182009744Y-99082795D01*
X181840226Y-99196063D01*
X181696063Y-99340226D01*
X181582795Y-99509744D01*
X181504774Y-99698102D01*
X181465000Y-99898061D01*
X181465000Y-99960198D01*
X178460199Y-102965000D01*
X178398061Y-102965000D01*
X178198102Y-103004774D01*
X178009744Y-103082795D01*
X177840226Y-103196063D01*
X177696063Y-103340226D01*
X177582795Y-103509744D01*
X177504774Y-103698102D01*
X177465000Y-103898061D01*
X161455393Y-103898061D01*
X161495226Y-103801898D01*
X161535000Y-103601939D01*
X161535000Y-103398061D01*
X161495226Y-103198102D01*
X161417205Y-103009744D01*
X161303937Y-102840226D01*
X161260000Y-102796289D01*
X161260000Y-96203711D01*
X161303937Y-96159774D01*
X161417205Y-95990256D01*
X161495226Y-95801898D01*
X161535000Y-95601939D01*
X161535000Y-95398061D01*
X161495226Y-95198102D01*
X161417205Y-95009744D01*
X161303937Y-94840226D01*
X161159774Y-94696063D01*
X160990256Y-94582795D01*
X160801898Y-94504774D01*
X160601939Y-94465000D01*
X160398061Y-94465000D01*
X160198102Y-94504774D01*
X160009744Y-94582795D01*
X159840226Y-94696063D01*
X159696063Y-94840226D01*
X159582795Y-95009744D01*
X159504774Y-95198102D01*
X159465000Y-95398061D01*
X147660000Y-95398061D01*
X147660000Y-88898061D01*
X161465000Y-88898061D01*
X161465000Y-89101939D01*
X161504774Y-89301898D01*
X161582795Y-89490256D01*
X161696063Y-89659774D01*
X161840226Y-89803937D01*
X162009744Y-89917205D01*
X162198102Y-89995226D01*
X162398061Y-90035000D01*
X162601939Y-90035000D01*
X162801898Y-89995226D01*
X162990256Y-89917205D01*
X163159774Y-89803937D01*
X163203711Y-89760000D01*
X165462678Y-89760000D01*
X165500000Y-89763676D01*
X165537322Y-89760000D01*
X165537333Y-89760000D01*
X165648986Y-89749003D01*
X165792247Y-89705546D01*
X165924276Y-89634974D01*
X166040001Y-89540001D01*
X166063804Y-89510997D01*
X169539802Y-86035000D01*
X169601939Y-86035000D01*
X169801898Y-85995226D01*
X169990256Y-85917205D01*
X170159774Y-85803937D01*
X170303937Y-85659774D01*
X170417205Y-85490256D01*
X170495226Y-85301898D01*
X170535000Y-85101939D01*
X170535000Y-84898061D01*
X170495226Y-84698102D01*
X170417205Y-84509744D01*
X170303937Y-84340226D01*
X170159774Y-84196063D01*
X169990256Y-84082795D01*
X169801898Y-84004774D01*
X169601939Y-83965000D01*
X169398061Y-83965000D01*
X169198102Y-84004774D01*
X169009744Y-84082795D01*
X168840226Y-84196063D01*
X168696063Y-84340226D01*
X168582795Y-84509744D01*
X168504774Y-84698102D01*
X168465000Y-84898061D01*
X168465000Y-84960198D01*
X165185199Y-88240000D01*
X163203711Y-88240000D01*
X163159774Y-88196063D01*
X162990256Y-88082795D01*
X162801898Y-88004774D01*
X162601939Y-87965000D01*
X162398061Y-87965000D01*
X162198102Y-88004774D01*
X162009744Y-88082795D01*
X161840226Y-88196063D01*
X161696063Y-88340226D01*
X161582795Y-88509744D01*
X161504774Y-88698102D01*
X161465000Y-88898061D01*
X147660000Y-88898061D01*
X147660000Y-81636891D01*
X164504339Y-81636891D01*
X164601663Y-81911252D01*
X164750642Y-82161355D01*
X164945551Y-82377588D01*
X165178900Y-82551641D01*
X165441721Y-82676825D01*
X165588930Y-82721476D01*
X165818820Y-82600155D01*
X165818820Y-81407000D01*
X164625006Y-81407000D01*
X164504339Y-81636891D01*
X147660000Y-81636891D01*
X147660000Y-80923109D01*
X164504339Y-80923109D01*
X164625006Y-81153000D01*
X165818820Y-81153000D01*
X165818820Y-79959845D01*
X166072820Y-79959845D01*
X166072820Y-81153000D01*
X166092820Y-81153000D01*
X166092820Y-81407000D01*
X166072820Y-81407000D01*
X166072820Y-82600155D01*
X166302710Y-82721476D01*
X166449919Y-82676825D01*
X166712740Y-82551641D01*
X166946089Y-82377588D01*
X167140998Y-82161355D01*
X167210625Y-82044466D01*
X167332345Y-82226632D01*
X167539188Y-82433475D01*
X167782409Y-82595990D01*
X168052662Y-82707932D01*
X168339560Y-82765000D01*
X168632080Y-82765000D01*
X168918978Y-82707932D01*
X169189231Y-82595990D01*
X169432452Y-82433475D01*
X169639295Y-82226632D01*
X169755820Y-82052240D01*
X169872345Y-82226632D01*
X170079188Y-82433475D01*
X170322409Y-82595990D01*
X170592662Y-82707932D01*
X170879560Y-82765000D01*
X171172080Y-82765000D01*
X171458978Y-82707932D01*
X171729231Y-82595990D01*
X171972452Y-82433475D01*
X172179295Y-82226632D01*
X172295820Y-82052240D01*
X172412345Y-82226632D01*
X172619188Y-82433475D01*
X172862409Y-82595990D01*
X173132662Y-82707932D01*
X173419560Y-82765000D01*
X173712080Y-82765000D01*
X173998978Y-82707932D01*
X174269231Y-82595990D01*
X174512452Y-82433475D01*
X174719295Y-82226632D01*
X174835820Y-82052240D01*
X174952345Y-82226632D01*
X175159188Y-82433475D01*
X175402409Y-82595990D01*
X175672662Y-82707932D01*
X175959560Y-82765000D01*
X176252080Y-82765000D01*
X176538978Y-82707932D01*
X176809231Y-82595990D01*
X177052452Y-82433475D01*
X177259295Y-82226632D01*
X177375820Y-82052240D01*
X177492345Y-82226632D01*
X177699188Y-82433475D01*
X177942409Y-82595990D01*
X178212662Y-82707932D01*
X178499560Y-82765000D01*
X178792080Y-82765000D01*
X179078978Y-82707932D01*
X179349231Y-82595990D01*
X179592452Y-82433475D01*
X179799295Y-82226632D01*
X179915820Y-82052240D01*
X180032345Y-82226632D01*
X180239188Y-82433475D01*
X180482409Y-82595990D01*
X180752662Y-82707932D01*
X181039560Y-82765000D01*
X181332080Y-82765000D01*
X181618978Y-82707932D01*
X181889231Y-82595990D01*
X182132452Y-82433475D01*
X182339295Y-82226632D01*
X182455820Y-82052240D01*
X182572345Y-82226632D01*
X182779188Y-82433475D01*
X183022409Y-82595990D01*
X183292662Y-82707932D01*
X183579560Y-82765000D01*
X183872080Y-82765000D01*
X184158978Y-82707932D01*
X184429231Y-82595990D01*
X184672452Y-82433475D01*
X184879295Y-82226632D01*
X184995820Y-82052240D01*
X185112345Y-82226632D01*
X185319188Y-82433475D01*
X185562409Y-82595990D01*
X185832662Y-82707932D01*
X186119560Y-82765000D01*
X186412080Y-82765000D01*
X186698978Y-82707932D01*
X186969231Y-82595990D01*
X187212452Y-82433475D01*
X187419295Y-82226632D01*
X187535820Y-82052240D01*
X187652345Y-82226632D01*
X187859188Y-82433475D01*
X188102409Y-82595990D01*
X188372662Y-82707932D01*
X188659560Y-82765000D01*
X188952080Y-82765000D01*
X189238978Y-82707932D01*
X189509231Y-82595990D01*
X189752452Y-82433475D01*
X189959295Y-82226632D01*
X190075820Y-82052240D01*
X190192345Y-82226632D01*
X190399188Y-82433475D01*
X190642409Y-82595990D01*
X190912662Y-82707932D01*
X191199560Y-82765000D01*
X191492080Y-82765000D01*
X191778978Y-82707932D01*
X192049231Y-82595990D01*
X192292452Y-82433475D01*
X192499295Y-82226632D01*
X192615820Y-82052240D01*
X192732345Y-82226632D01*
X192939188Y-82433475D01*
X193182409Y-82595990D01*
X193452662Y-82707932D01*
X193739560Y-82765000D01*
X194032080Y-82765000D01*
X194318978Y-82707932D01*
X194589231Y-82595990D01*
X194832452Y-82433475D01*
X195039295Y-82226632D01*
X195155820Y-82052240D01*
X195272345Y-82226632D01*
X195479188Y-82433475D01*
X195722409Y-82595990D01*
X195992662Y-82707932D01*
X196279560Y-82765000D01*
X196572080Y-82765000D01*
X196858978Y-82707932D01*
X197129231Y-82595990D01*
X197372452Y-82433475D01*
X197504307Y-82301620D01*
X197526318Y-82374180D01*
X197585283Y-82484494D01*
X197664635Y-82581185D01*
X197761326Y-82660537D01*
X197871640Y-82719502D01*
X197991338Y-82755812D01*
X198115820Y-82768072D01*
X199815820Y-82768072D01*
X199940302Y-82755812D01*
X200060000Y-82719502D01*
X200170314Y-82660537D01*
X200267005Y-82581185D01*
X200346357Y-82484494D01*
X200405322Y-82374180D01*
X200441632Y-82254482D01*
X200453892Y-82130000D01*
X200453892Y-80430000D01*
X200441632Y-80305518D01*
X200405322Y-80185820D01*
X200346357Y-80075506D01*
X200267005Y-79978815D01*
X200170314Y-79899463D01*
X200060000Y-79840498D01*
X199940302Y-79804188D01*
X199815820Y-79791928D01*
X198115820Y-79791928D01*
X197991338Y-79804188D01*
X197871640Y-79840498D01*
X197761326Y-79899463D01*
X197664635Y-79978815D01*
X197585283Y-80075506D01*
X197526318Y-80185820D01*
X197504307Y-80258380D01*
X197372452Y-80126525D01*
X197129231Y-79964010D01*
X196858978Y-79852068D01*
X196572080Y-79795000D01*
X196279560Y-79795000D01*
X195992662Y-79852068D01*
X195722409Y-79964010D01*
X195479188Y-80126525D01*
X195272345Y-80333368D01*
X195155820Y-80507760D01*
X195039295Y-80333368D01*
X194832452Y-80126525D01*
X194589231Y-79964010D01*
X194318978Y-79852068D01*
X194032080Y-79795000D01*
X193739560Y-79795000D01*
X193452662Y-79852068D01*
X193182409Y-79964010D01*
X192939188Y-80126525D01*
X192732345Y-80333368D01*
X192615820Y-80507760D01*
X192499295Y-80333368D01*
X192292452Y-80126525D01*
X192049231Y-79964010D01*
X191778978Y-79852068D01*
X191492080Y-79795000D01*
X191199560Y-79795000D01*
X190912662Y-79852068D01*
X190642409Y-79964010D01*
X190399188Y-80126525D01*
X190192345Y-80333368D01*
X190075820Y-80507760D01*
X189959295Y-80333368D01*
X189752452Y-80126525D01*
X189509231Y-79964010D01*
X189238978Y-79852068D01*
X188952080Y-79795000D01*
X188659560Y-79795000D01*
X188372662Y-79852068D01*
X188102409Y-79964010D01*
X187859188Y-80126525D01*
X187652345Y-80333368D01*
X187535820Y-80507760D01*
X187419295Y-80333368D01*
X187212452Y-80126525D01*
X186969231Y-79964010D01*
X186698978Y-79852068D01*
X186412080Y-79795000D01*
X186119560Y-79795000D01*
X185832662Y-79852068D01*
X185562409Y-79964010D01*
X185319188Y-80126525D01*
X185112345Y-80333368D01*
X184995820Y-80507760D01*
X184879295Y-80333368D01*
X184672452Y-80126525D01*
X184429231Y-79964010D01*
X184158978Y-79852068D01*
X183872080Y-79795000D01*
X183579560Y-79795000D01*
X183292662Y-79852068D01*
X183022409Y-79964010D01*
X182779188Y-80126525D01*
X182572345Y-80333368D01*
X182455820Y-80507760D01*
X182339295Y-80333368D01*
X182132452Y-80126525D01*
X181889231Y-79964010D01*
X181618978Y-79852068D01*
X181332080Y-79795000D01*
X181039560Y-79795000D01*
X180752662Y-79852068D01*
X180482409Y-79964010D01*
X180239188Y-80126525D01*
X180032345Y-80333368D01*
X179915820Y-80507760D01*
X179799295Y-80333368D01*
X179592452Y-80126525D01*
X179349231Y-79964010D01*
X179078978Y-79852068D01*
X178792080Y-79795000D01*
X178499560Y-79795000D01*
X178212662Y-79852068D01*
X177942409Y-79964010D01*
X177699188Y-80126525D01*
X177492345Y-80333368D01*
X177375820Y-80507760D01*
X177259295Y-80333368D01*
X177052452Y-80126525D01*
X176809231Y-79964010D01*
X176538978Y-79852068D01*
X176252080Y-79795000D01*
X175959560Y-79795000D01*
X175672662Y-79852068D01*
X175402409Y-79964010D01*
X175159188Y-80126525D01*
X174952345Y-80333368D01*
X174835820Y-80507760D01*
X174719295Y-80333368D01*
X174512452Y-80126525D01*
X174269231Y-79964010D01*
X173998978Y-79852068D01*
X173712080Y-79795000D01*
X173419560Y-79795000D01*
X173132662Y-79852068D01*
X172862409Y-79964010D01*
X172619188Y-80126525D01*
X172412345Y-80333368D01*
X172295820Y-80507760D01*
X172179295Y-80333368D01*
X171972452Y-80126525D01*
X171729231Y-79964010D01*
X171458978Y-79852068D01*
X171172080Y-79795000D01*
X170879560Y-79795000D01*
X170592662Y-79852068D01*
X170322409Y-79964010D01*
X170079188Y-80126525D01*
X169872345Y-80333368D01*
X169755820Y-80507760D01*
X169639295Y-80333368D01*
X169432452Y-80126525D01*
X169189231Y-79964010D01*
X168918978Y-79852068D01*
X168632080Y-79795000D01*
X168339560Y-79795000D01*
X168052662Y-79852068D01*
X167782409Y-79964010D01*
X167539188Y-80126525D01*
X167332345Y-80333368D01*
X167210625Y-80515534D01*
X167140998Y-80398645D01*
X166946089Y-80182412D01*
X166712740Y-80008359D01*
X166449919Y-79883175D01*
X166302710Y-79838524D01*
X166072820Y-79959845D01*
X165818820Y-79959845D01*
X165588930Y-79838524D01*
X165441721Y-79883175D01*
X165178900Y-80008359D01*
X164945551Y-80182412D01*
X164750642Y-80398645D01*
X164601663Y-80648748D01*
X164504339Y-80923109D01*
X147660000Y-80923109D01*
X147660000Y-78660000D01*
X201340000Y-78660000D01*
X201340001Y-112340000D01*
M02*
