G04 #@! TF.GenerationSoftware,KiCad,Pcbnew,(5.1.5-0-10_14)*
G04 #@! TF.CreationDate,2021-11-19T11:56:32-05:00*
G04 #@! TF.ProjectId,MinimalSAMD21,4d696e69-6d61-46c5-9341-4d4432312e6b,rev?*
G04 #@! TF.SameCoordinates,Original*
G04 #@! TF.FileFunction,Copper,L1,Top*
G04 #@! TF.FilePolarity,Positive*
%FSLAX46Y46*%
G04 Gerber Fmt 4.6, Leading zero omitted, Abs format (unit mm)*
G04 Created by KiCad (PCBNEW (5.1.5-0-10_14)) date 2021-11-19 11:56:32*
%MOMM*%
%LPD*%
G04 APERTURE LIST*
%ADD10C,0.100000*%
%ADD11R,0.952500X0.558800*%
%ADD12O,1.700000X1.700000*%
%ADD13R,1.700000X1.700000*%
%ADD14C,0.800000*%
%ADD15C,0.250000*%
%ADD16C,0.254000*%
G04 APERTURE END LIST*
G04 #@! TA.AperFunction,SMDPad,CuDef*
D10*
G36*
X167660900Y-87478412D02*
G01*
X167685168Y-87482012D01*
X167708967Y-87487973D01*
X167732066Y-87496238D01*
X167754245Y-87506728D01*
X167775288Y-87519340D01*
X167794994Y-87533955D01*
X167813172Y-87550431D01*
X168449569Y-88186828D01*
X168466045Y-88205006D01*
X168480660Y-88224712D01*
X168493272Y-88245755D01*
X168503762Y-88267934D01*
X168512027Y-88291033D01*
X168517988Y-88314832D01*
X168521588Y-88339100D01*
X168522792Y-88363604D01*
X168521588Y-88388108D01*
X168517988Y-88412376D01*
X168512027Y-88436175D01*
X168503762Y-88459274D01*
X168493272Y-88481453D01*
X168480660Y-88502496D01*
X168466045Y-88522202D01*
X168449569Y-88540380D01*
X167989948Y-89000001D01*
X167971770Y-89016477D01*
X167952064Y-89031092D01*
X167931021Y-89043704D01*
X167908842Y-89054194D01*
X167885743Y-89062459D01*
X167861944Y-89068420D01*
X167837676Y-89072020D01*
X167813172Y-89073224D01*
X167788668Y-89072020D01*
X167764400Y-89068420D01*
X167740601Y-89062459D01*
X167717502Y-89054194D01*
X167695323Y-89043704D01*
X167674280Y-89031092D01*
X167654574Y-89016477D01*
X167636396Y-89000001D01*
X166999999Y-88363604D01*
X166983523Y-88345426D01*
X166968908Y-88325720D01*
X166956296Y-88304677D01*
X166945806Y-88282498D01*
X166937541Y-88259399D01*
X166931580Y-88235600D01*
X166927980Y-88211332D01*
X166926776Y-88186828D01*
X166927980Y-88162324D01*
X166931580Y-88138056D01*
X166937541Y-88114257D01*
X166945806Y-88091158D01*
X166956296Y-88068979D01*
X166968908Y-88047936D01*
X166983523Y-88028230D01*
X166999999Y-88010052D01*
X167459620Y-87550431D01*
X167477798Y-87533955D01*
X167497504Y-87519340D01*
X167518547Y-87506728D01*
X167540726Y-87496238D01*
X167563825Y-87487973D01*
X167587624Y-87482012D01*
X167611892Y-87478412D01*
X167636396Y-87477208D01*
X167660900Y-87478412D01*
G37*
G04 #@! TD.AperFunction*
G04 #@! TA.AperFunction,SMDPad,CuDef*
G36*
X166211332Y-88927980D02*
G01*
X166235600Y-88931580D01*
X166259399Y-88937541D01*
X166282498Y-88945806D01*
X166304677Y-88956296D01*
X166325720Y-88968908D01*
X166345426Y-88983523D01*
X166363604Y-88999999D01*
X167000001Y-89636396D01*
X167016477Y-89654574D01*
X167031092Y-89674280D01*
X167043704Y-89695323D01*
X167054194Y-89717502D01*
X167062459Y-89740601D01*
X167068420Y-89764400D01*
X167072020Y-89788668D01*
X167073224Y-89813172D01*
X167072020Y-89837676D01*
X167068420Y-89861944D01*
X167062459Y-89885743D01*
X167054194Y-89908842D01*
X167043704Y-89931021D01*
X167031092Y-89952064D01*
X167016477Y-89971770D01*
X167000001Y-89989948D01*
X166540380Y-90449569D01*
X166522202Y-90466045D01*
X166502496Y-90480660D01*
X166481453Y-90493272D01*
X166459274Y-90503762D01*
X166436175Y-90512027D01*
X166412376Y-90517988D01*
X166388108Y-90521588D01*
X166363604Y-90522792D01*
X166339100Y-90521588D01*
X166314832Y-90517988D01*
X166291033Y-90512027D01*
X166267934Y-90503762D01*
X166245755Y-90493272D01*
X166224712Y-90480660D01*
X166205006Y-90466045D01*
X166186828Y-90449569D01*
X165550431Y-89813172D01*
X165533955Y-89794994D01*
X165519340Y-89775288D01*
X165506728Y-89754245D01*
X165496238Y-89732066D01*
X165487973Y-89708967D01*
X165482012Y-89685168D01*
X165478412Y-89660900D01*
X165477208Y-89636396D01*
X165478412Y-89611892D01*
X165482012Y-89587624D01*
X165487973Y-89563825D01*
X165496238Y-89540726D01*
X165506728Y-89518547D01*
X165519340Y-89497504D01*
X165533955Y-89477798D01*
X165550431Y-89459620D01*
X166010052Y-88999999D01*
X166028230Y-88983523D01*
X166047936Y-88968908D01*
X166068979Y-88956296D01*
X166091158Y-88945806D01*
X166114257Y-88937541D01*
X166138056Y-88931580D01*
X166162324Y-88927980D01*
X166186828Y-88926776D01*
X166211332Y-88927980D01*
G37*
G04 #@! TD.AperFunction*
D11*
X151326650Y-96161800D03*
X151326650Y-99870200D03*
X157689350Y-99870200D03*
X157689350Y-96161800D03*
D12*
X165945820Y-81280000D03*
X168485820Y-81280000D03*
X171025820Y-81280000D03*
X173565820Y-81280000D03*
X176105820Y-81280000D03*
X178645820Y-81280000D03*
X181185820Y-81280000D03*
X183725820Y-81280000D03*
X186265820Y-81280000D03*
X188805820Y-81280000D03*
X191345820Y-81280000D03*
X193885820Y-81280000D03*
X196425820Y-81280000D03*
D13*
X198965820Y-81280000D03*
D12*
X199020000Y-109220000D03*
X196480000Y-109220000D03*
X193940000Y-109220000D03*
X191400000Y-109220000D03*
X188860000Y-109220000D03*
X186320000Y-109220000D03*
X183780000Y-109220000D03*
X181240000Y-109220000D03*
X178700000Y-109220000D03*
X176160000Y-109220000D03*
X173620000Y-109220000D03*
X171080000Y-109220000D03*
X168540000Y-109220000D03*
D13*
X166000000Y-109220000D03*
D12*
X150630000Y-109300000D03*
X153170000Y-109300000D03*
X155710000Y-109300000D03*
X158250000Y-109300000D03*
D13*
X160790000Y-109300000D03*
G04 #@! TA.AperFunction,SMDPad,CuDef*
D10*
G36*
X155857505Y-88317204D02*
G01*
X155881773Y-88320804D01*
X155905572Y-88326765D01*
X155928671Y-88335030D01*
X155950850Y-88345520D01*
X155971893Y-88358132D01*
X155991599Y-88372747D01*
X156009777Y-88389223D01*
X156026253Y-88407401D01*
X156040868Y-88427107D01*
X156053480Y-88448150D01*
X156063970Y-88470329D01*
X156072235Y-88493428D01*
X156078196Y-88517227D01*
X156081796Y-88541495D01*
X156083000Y-88565999D01*
X156083000Y-89466001D01*
X156081796Y-89490505D01*
X156078196Y-89514773D01*
X156072235Y-89538572D01*
X156063970Y-89561671D01*
X156053480Y-89583850D01*
X156040868Y-89604893D01*
X156026253Y-89624599D01*
X156009777Y-89642777D01*
X155991599Y-89659253D01*
X155971893Y-89673868D01*
X155950850Y-89686480D01*
X155928671Y-89696970D01*
X155905572Y-89705235D01*
X155881773Y-89711196D01*
X155857505Y-89714796D01*
X155833001Y-89716000D01*
X155182999Y-89716000D01*
X155158495Y-89714796D01*
X155134227Y-89711196D01*
X155110428Y-89705235D01*
X155087329Y-89696970D01*
X155065150Y-89686480D01*
X155044107Y-89673868D01*
X155024401Y-89659253D01*
X155006223Y-89642777D01*
X154989747Y-89624599D01*
X154975132Y-89604893D01*
X154962520Y-89583850D01*
X154952030Y-89561671D01*
X154943765Y-89538572D01*
X154937804Y-89514773D01*
X154934204Y-89490505D01*
X154933000Y-89466001D01*
X154933000Y-88565999D01*
X154934204Y-88541495D01*
X154937804Y-88517227D01*
X154943765Y-88493428D01*
X154952030Y-88470329D01*
X154962520Y-88448150D01*
X154975132Y-88427107D01*
X154989747Y-88407401D01*
X155006223Y-88389223D01*
X155024401Y-88372747D01*
X155044107Y-88358132D01*
X155065150Y-88345520D01*
X155087329Y-88335030D01*
X155110428Y-88326765D01*
X155134227Y-88320804D01*
X155158495Y-88317204D01*
X155182999Y-88316000D01*
X155833001Y-88316000D01*
X155857505Y-88317204D01*
G37*
G04 #@! TD.AperFunction*
G04 #@! TA.AperFunction,SMDPad,CuDef*
G36*
X153807505Y-88317204D02*
G01*
X153831773Y-88320804D01*
X153855572Y-88326765D01*
X153878671Y-88335030D01*
X153900850Y-88345520D01*
X153921893Y-88358132D01*
X153941599Y-88372747D01*
X153959777Y-88389223D01*
X153976253Y-88407401D01*
X153990868Y-88427107D01*
X154003480Y-88448150D01*
X154013970Y-88470329D01*
X154022235Y-88493428D01*
X154028196Y-88517227D01*
X154031796Y-88541495D01*
X154033000Y-88565999D01*
X154033000Y-89466001D01*
X154031796Y-89490505D01*
X154028196Y-89514773D01*
X154022235Y-89538572D01*
X154013970Y-89561671D01*
X154003480Y-89583850D01*
X153990868Y-89604893D01*
X153976253Y-89624599D01*
X153959777Y-89642777D01*
X153941599Y-89659253D01*
X153921893Y-89673868D01*
X153900850Y-89686480D01*
X153878671Y-89696970D01*
X153855572Y-89705235D01*
X153831773Y-89711196D01*
X153807505Y-89714796D01*
X153783001Y-89716000D01*
X153132999Y-89716000D01*
X153108495Y-89714796D01*
X153084227Y-89711196D01*
X153060428Y-89705235D01*
X153037329Y-89696970D01*
X153015150Y-89686480D01*
X152994107Y-89673868D01*
X152974401Y-89659253D01*
X152956223Y-89642777D01*
X152939747Y-89624599D01*
X152925132Y-89604893D01*
X152912520Y-89583850D01*
X152902030Y-89561671D01*
X152893765Y-89538572D01*
X152887804Y-89514773D01*
X152884204Y-89490505D01*
X152883000Y-89466001D01*
X152883000Y-88565999D01*
X152884204Y-88541495D01*
X152887804Y-88517227D01*
X152893765Y-88493428D01*
X152902030Y-88470329D01*
X152912520Y-88448150D01*
X152925132Y-88427107D01*
X152939747Y-88407401D01*
X152956223Y-88389223D01*
X152974401Y-88372747D01*
X152994107Y-88358132D01*
X153015150Y-88345520D01*
X153037329Y-88335030D01*
X153060428Y-88326765D01*
X153084227Y-88320804D01*
X153108495Y-88317204D01*
X153132999Y-88316000D01*
X153783001Y-88316000D01*
X153807505Y-88317204D01*
G37*
G04 #@! TD.AperFunction*
G04 #@! TA.AperFunction,SMDPad,CuDef*
G36*
X150882505Y-88317204D02*
G01*
X150906773Y-88320804D01*
X150930572Y-88326765D01*
X150953671Y-88335030D01*
X150975850Y-88345520D01*
X150996893Y-88358132D01*
X151016599Y-88372747D01*
X151034777Y-88389223D01*
X151051253Y-88407401D01*
X151065868Y-88427107D01*
X151078480Y-88448150D01*
X151088970Y-88470329D01*
X151097235Y-88493428D01*
X151103196Y-88517227D01*
X151106796Y-88541495D01*
X151108000Y-88565999D01*
X151108000Y-89466001D01*
X151106796Y-89490505D01*
X151103196Y-89514773D01*
X151097235Y-89538572D01*
X151088970Y-89561671D01*
X151078480Y-89583850D01*
X151065868Y-89604893D01*
X151051253Y-89624599D01*
X151034777Y-89642777D01*
X151016599Y-89659253D01*
X150996893Y-89673868D01*
X150975850Y-89686480D01*
X150953671Y-89696970D01*
X150930572Y-89705235D01*
X150906773Y-89711196D01*
X150882505Y-89714796D01*
X150858001Y-89716000D01*
X150207999Y-89716000D01*
X150183495Y-89714796D01*
X150159227Y-89711196D01*
X150135428Y-89705235D01*
X150112329Y-89696970D01*
X150090150Y-89686480D01*
X150069107Y-89673868D01*
X150049401Y-89659253D01*
X150031223Y-89642777D01*
X150014747Y-89624599D01*
X150000132Y-89604893D01*
X149987520Y-89583850D01*
X149977030Y-89561671D01*
X149968765Y-89538572D01*
X149962804Y-89514773D01*
X149959204Y-89490505D01*
X149958000Y-89466001D01*
X149958000Y-88565999D01*
X149959204Y-88541495D01*
X149962804Y-88517227D01*
X149968765Y-88493428D01*
X149977030Y-88470329D01*
X149987520Y-88448150D01*
X150000132Y-88427107D01*
X150014747Y-88407401D01*
X150031223Y-88389223D01*
X150049401Y-88372747D01*
X150069107Y-88358132D01*
X150090150Y-88345520D01*
X150112329Y-88335030D01*
X150135428Y-88326765D01*
X150159227Y-88320804D01*
X150183495Y-88317204D01*
X150207999Y-88316000D01*
X150858001Y-88316000D01*
X150882505Y-88317204D01*
G37*
G04 #@! TD.AperFunction*
G04 #@! TA.AperFunction,SMDPad,CuDef*
G36*
X148832505Y-88317204D02*
G01*
X148856773Y-88320804D01*
X148880572Y-88326765D01*
X148903671Y-88335030D01*
X148925850Y-88345520D01*
X148946893Y-88358132D01*
X148966599Y-88372747D01*
X148984777Y-88389223D01*
X149001253Y-88407401D01*
X149015868Y-88427107D01*
X149028480Y-88448150D01*
X149038970Y-88470329D01*
X149047235Y-88493428D01*
X149053196Y-88517227D01*
X149056796Y-88541495D01*
X149058000Y-88565999D01*
X149058000Y-89466001D01*
X149056796Y-89490505D01*
X149053196Y-89514773D01*
X149047235Y-89538572D01*
X149038970Y-89561671D01*
X149028480Y-89583850D01*
X149015868Y-89604893D01*
X149001253Y-89624599D01*
X148984777Y-89642777D01*
X148966599Y-89659253D01*
X148946893Y-89673868D01*
X148925850Y-89686480D01*
X148903671Y-89696970D01*
X148880572Y-89705235D01*
X148856773Y-89711196D01*
X148832505Y-89714796D01*
X148808001Y-89716000D01*
X148157999Y-89716000D01*
X148133495Y-89714796D01*
X148109227Y-89711196D01*
X148085428Y-89705235D01*
X148062329Y-89696970D01*
X148040150Y-89686480D01*
X148019107Y-89673868D01*
X147999401Y-89659253D01*
X147981223Y-89642777D01*
X147964747Y-89624599D01*
X147950132Y-89604893D01*
X147937520Y-89583850D01*
X147927030Y-89561671D01*
X147918765Y-89538572D01*
X147912804Y-89514773D01*
X147909204Y-89490505D01*
X147908000Y-89466001D01*
X147908000Y-88565999D01*
X147909204Y-88541495D01*
X147912804Y-88517227D01*
X147918765Y-88493428D01*
X147927030Y-88470329D01*
X147937520Y-88448150D01*
X147950132Y-88427107D01*
X147964747Y-88407401D01*
X147981223Y-88389223D01*
X147999401Y-88372747D01*
X148019107Y-88358132D01*
X148040150Y-88345520D01*
X148062329Y-88335030D01*
X148085428Y-88326765D01*
X148109227Y-88320804D01*
X148133495Y-88317204D01*
X148157999Y-88316000D01*
X148808001Y-88316000D01*
X148832505Y-88317204D01*
G37*
G04 #@! TD.AperFunction*
G04 #@! TA.AperFunction,SMDPad,CuDef*
G36*
X176660900Y-100478412D02*
G01*
X176685168Y-100482012D01*
X176708967Y-100487973D01*
X176732066Y-100496238D01*
X176754245Y-100506728D01*
X176775288Y-100519340D01*
X176794994Y-100533955D01*
X176813172Y-100550431D01*
X177449569Y-101186828D01*
X177466045Y-101205006D01*
X177480660Y-101224712D01*
X177493272Y-101245755D01*
X177503762Y-101267934D01*
X177512027Y-101291033D01*
X177517988Y-101314832D01*
X177521588Y-101339100D01*
X177522792Y-101363604D01*
X177521588Y-101388108D01*
X177517988Y-101412376D01*
X177512027Y-101436175D01*
X177503762Y-101459274D01*
X177493272Y-101481453D01*
X177480660Y-101502496D01*
X177466045Y-101522202D01*
X177449569Y-101540380D01*
X176989948Y-102000001D01*
X176971770Y-102016477D01*
X176952064Y-102031092D01*
X176931021Y-102043704D01*
X176908842Y-102054194D01*
X176885743Y-102062459D01*
X176861944Y-102068420D01*
X176837676Y-102072020D01*
X176813172Y-102073224D01*
X176788668Y-102072020D01*
X176764400Y-102068420D01*
X176740601Y-102062459D01*
X176717502Y-102054194D01*
X176695323Y-102043704D01*
X176674280Y-102031092D01*
X176654574Y-102016477D01*
X176636396Y-102000001D01*
X175999999Y-101363604D01*
X175983523Y-101345426D01*
X175968908Y-101325720D01*
X175956296Y-101304677D01*
X175945806Y-101282498D01*
X175937541Y-101259399D01*
X175931580Y-101235600D01*
X175927980Y-101211332D01*
X175926776Y-101186828D01*
X175927980Y-101162324D01*
X175931580Y-101138056D01*
X175937541Y-101114257D01*
X175945806Y-101091158D01*
X175956296Y-101068979D01*
X175968908Y-101047936D01*
X175983523Y-101028230D01*
X175999999Y-101010052D01*
X176459620Y-100550431D01*
X176477798Y-100533955D01*
X176497504Y-100519340D01*
X176518547Y-100506728D01*
X176540726Y-100496238D01*
X176563825Y-100487973D01*
X176587624Y-100482012D01*
X176611892Y-100478412D01*
X176636396Y-100477208D01*
X176660900Y-100478412D01*
G37*
G04 #@! TD.AperFunction*
G04 #@! TA.AperFunction,SMDPad,CuDef*
G36*
X175211332Y-101927980D02*
G01*
X175235600Y-101931580D01*
X175259399Y-101937541D01*
X175282498Y-101945806D01*
X175304677Y-101956296D01*
X175325720Y-101968908D01*
X175345426Y-101983523D01*
X175363604Y-101999999D01*
X176000001Y-102636396D01*
X176016477Y-102654574D01*
X176031092Y-102674280D01*
X176043704Y-102695323D01*
X176054194Y-102717502D01*
X176062459Y-102740601D01*
X176068420Y-102764400D01*
X176072020Y-102788668D01*
X176073224Y-102813172D01*
X176072020Y-102837676D01*
X176068420Y-102861944D01*
X176062459Y-102885743D01*
X176054194Y-102908842D01*
X176043704Y-102931021D01*
X176031092Y-102952064D01*
X176016477Y-102971770D01*
X176000001Y-102989948D01*
X175540380Y-103449569D01*
X175522202Y-103466045D01*
X175502496Y-103480660D01*
X175481453Y-103493272D01*
X175459274Y-103503762D01*
X175436175Y-103512027D01*
X175412376Y-103517988D01*
X175388108Y-103521588D01*
X175363604Y-103522792D01*
X175339100Y-103521588D01*
X175314832Y-103517988D01*
X175291033Y-103512027D01*
X175267934Y-103503762D01*
X175245755Y-103493272D01*
X175224712Y-103480660D01*
X175205006Y-103466045D01*
X175186828Y-103449569D01*
X174550431Y-102813172D01*
X174533955Y-102794994D01*
X174519340Y-102775288D01*
X174506728Y-102754245D01*
X174496238Y-102732066D01*
X174487973Y-102708967D01*
X174482012Y-102685168D01*
X174478412Y-102660900D01*
X174477208Y-102636396D01*
X174478412Y-102611892D01*
X174482012Y-102587624D01*
X174487973Y-102563825D01*
X174496238Y-102540726D01*
X174506728Y-102518547D01*
X174519340Y-102497504D01*
X174533955Y-102477798D01*
X174550431Y-102459620D01*
X175010052Y-101999999D01*
X175028230Y-101983523D01*
X175047936Y-101968908D01*
X175068979Y-101956296D01*
X175091158Y-101945806D01*
X175114257Y-101937541D01*
X175138056Y-101931580D01*
X175162324Y-101927980D01*
X175186828Y-101926776D01*
X175211332Y-101927980D01*
G37*
G04 #@! TD.AperFunction*
G04 #@! TA.AperFunction,SMDPad,CuDef*
G36*
X160882505Y-88317204D02*
G01*
X160906773Y-88320804D01*
X160930572Y-88326765D01*
X160953671Y-88335030D01*
X160975850Y-88345520D01*
X160996893Y-88358132D01*
X161016599Y-88372747D01*
X161034777Y-88389223D01*
X161051253Y-88407401D01*
X161065868Y-88427107D01*
X161078480Y-88448150D01*
X161088970Y-88470329D01*
X161097235Y-88493428D01*
X161103196Y-88517227D01*
X161106796Y-88541495D01*
X161108000Y-88565999D01*
X161108000Y-89466001D01*
X161106796Y-89490505D01*
X161103196Y-89514773D01*
X161097235Y-89538572D01*
X161088970Y-89561671D01*
X161078480Y-89583850D01*
X161065868Y-89604893D01*
X161051253Y-89624599D01*
X161034777Y-89642777D01*
X161016599Y-89659253D01*
X160996893Y-89673868D01*
X160975850Y-89686480D01*
X160953671Y-89696970D01*
X160930572Y-89705235D01*
X160906773Y-89711196D01*
X160882505Y-89714796D01*
X160858001Y-89716000D01*
X160207999Y-89716000D01*
X160183495Y-89714796D01*
X160159227Y-89711196D01*
X160135428Y-89705235D01*
X160112329Y-89696970D01*
X160090150Y-89686480D01*
X160069107Y-89673868D01*
X160049401Y-89659253D01*
X160031223Y-89642777D01*
X160014747Y-89624599D01*
X160000132Y-89604893D01*
X159987520Y-89583850D01*
X159977030Y-89561671D01*
X159968765Y-89538572D01*
X159962804Y-89514773D01*
X159959204Y-89490505D01*
X159958000Y-89466001D01*
X159958000Y-88565999D01*
X159959204Y-88541495D01*
X159962804Y-88517227D01*
X159968765Y-88493428D01*
X159977030Y-88470329D01*
X159987520Y-88448150D01*
X160000132Y-88427107D01*
X160014747Y-88407401D01*
X160031223Y-88389223D01*
X160049401Y-88372747D01*
X160069107Y-88358132D01*
X160090150Y-88345520D01*
X160112329Y-88335030D01*
X160135428Y-88326765D01*
X160159227Y-88320804D01*
X160183495Y-88317204D01*
X160207999Y-88316000D01*
X160858001Y-88316000D01*
X160882505Y-88317204D01*
G37*
G04 #@! TD.AperFunction*
G04 #@! TA.AperFunction,SMDPad,CuDef*
G36*
X158832505Y-88317204D02*
G01*
X158856773Y-88320804D01*
X158880572Y-88326765D01*
X158903671Y-88335030D01*
X158925850Y-88345520D01*
X158946893Y-88358132D01*
X158966599Y-88372747D01*
X158984777Y-88389223D01*
X159001253Y-88407401D01*
X159015868Y-88427107D01*
X159028480Y-88448150D01*
X159038970Y-88470329D01*
X159047235Y-88493428D01*
X159053196Y-88517227D01*
X159056796Y-88541495D01*
X159058000Y-88565999D01*
X159058000Y-89466001D01*
X159056796Y-89490505D01*
X159053196Y-89514773D01*
X159047235Y-89538572D01*
X159038970Y-89561671D01*
X159028480Y-89583850D01*
X159015868Y-89604893D01*
X159001253Y-89624599D01*
X158984777Y-89642777D01*
X158966599Y-89659253D01*
X158946893Y-89673868D01*
X158925850Y-89686480D01*
X158903671Y-89696970D01*
X158880572Y-89705235D01*
X158856773Y-89711196D01*
X158832505Y-89714796D01*
X158808001Y-89716000D01*
X158157999Y-89716000D01*
X158133495Y-89714796D01*
X158109227Y-89711196D01*
X158085428Y-89705235D01*
X158062329Y-89696970D01*
X158040150Y-89686480D01*
X158019107Y-89673868D01*
X157999401Y-89659253D01*
X157981223Y-89642777D01*
X157964747Y-89624599D01*
X157950132Y-89604893D01*
X157937520Y-89583850D01*
X157927030Y-89561671D01*
X157918765Y-89538572D01*
X157912804Y-89514773D01*
X157909204Y-89490505D01*
X157908000Y-89466001D01*
X157908000Y-88565999D01*
X157909204Y-88541495D01*
X157912804Y-88517227D01*
X157918765Y-88493428D01*
X157927030Y-88470329D01*
X157937520Y-88448150D01*
X157950132Y-88427107D01*
X157964747Y-88407401D01*
X157981223Y-88389223D01*
X157999401Y-88372747D01*
X158019107Y-88358132D01*
X158040150Y-88345520D01*
X158062329Y-88335030D01*
X158085428Y-88326765D01*
X158109227Y-88320804D01*
X158133495Y-88317204D01*
X158157999Y-88316000D01*
X158808001Y-88316000D01*
X158832505Y-88317204D01*
G37*
G04 #@! TD.AperFunction*
G04 #@! TA.AperFunction,SMDPad,CuDef*
G36*
X168315990Y-94607424D02*
G01*
X167274280Y-95649134D01*
X166915070Y-95289924D01*
X167956780Y-94248214D01*
X168315990Y-94607424D01*
G37*
G04 #@! TD.AperFunction*
G04 #@! TA.AperFunction,SMDPad,CuDef*
G36*
X168881674Y-95173108D02*
G01*
X167839964Y-96214818D01*
X167480754Y-95855608D01*
X168522464Y-94813898D01*
X168881674Y-95173108D01*
G37*
G04 #@! TD.AperFunction*
G04 #@! TA.AperFunction,SMDPad,CuDef*
G36*
X169447360Y-95738794D02*
G01*
X168405650Y-96780504D01*
X168046440Y-96421294D01*
X169088150Y-95379584D01*
X169447360Y-95738794D01*
G37*
G04 #@! TD.AperFunction*
G04 #@! TA.AperFunction,SMDPad,CuDef*
G36*
X170013046Y-96304480D02*
G01*
X168971336Y-97346190D01*
X168612126Y-96986980D01*
X169653836Y-95945270D01*
X170013046Y-96304480D01*
G37*
G04 #@! TD.AperFunction*
G04 #@! TA.AperFunction,SMDPad,CuDef*
G36*
X170578730Y-96870164D02*
G01*
X169537020Y-97911874D01*
X169177810Y-97552664D01*
X170219520Y-96510954D01*
X170578730Y-96870164D01*
G37*
G04 #@! TD.AperFunction*
G04 #@! TA.AperFunction,SMDPad,CuDef*
G36*
X171144416Y-97435850D02*
G01*
X170102706Y-98477560D01*
X169743496Y-98118350D01*
X170785206Y-97076640D01*
X171144416Y-97435850D01*
G37*
G04 #@! TD.AperFunction*
G04 #@! TA.AperFunction,SMDPad,CuDef*
G36*
X171710101Y-98001535D02*
G01*
X170668391Y-99043245D01*
X170309181Y-98684035D01*
X171350891Y-97642325D01*
X171710101Y-98001535D01*
G37*
G04 #@! TD.AperFunction*
G04 #@! TA.AperFunction,SMDPad,CuDef*
G36*
X172275786Y-98567220D02*
G01*
X171234076Y-99608930D01*
X170874866Y-99249720D01*
X171916576Y-98208010D01*
X172275786Y-98567220D01*
G37*
G04 #@! TD.AperFunction*
G04 #@! TA.AperFunction,SMDPad,CuDef*
G36*
X173781924Y-99608930D02*
G01*
X172740214Y-98567220D01*
X173099424Y-98208010D01*
X174141134Y-99249720D01*
X173781924Y-99608930D01*
G37*
G04 #@! TD.AperFunction*
G04 #@! TA.AperFunction,SMDPad,CuDef*
G36*
X174347608Y-99043246D02*
G01*
X173305898Y-98001536D01*
X173665108Y-97642326D01*
X174706818Y-98684036D01*
X174347608Y-99043246D01*
G37*
G04 #@! TD.AperFunction*
G04 #@! TA.AperFunction,SMDPad,CuDef*
G36*
X174913294Y-98477560D02*
G01*
X173871584Y-97435850D01*
X174230794Y-97076640D01*
X175272504Y-98118350D01*
X174913294Y-98477560D01*
G37*
G04 #@! TD.AperFunction*
G04 #@! TA.AperFunction,SMDPad,CuDef*
G36*
X175478980Y-97911874D02*
G01*
X174437270Y-96870164D01*
X174796480Y-96510954D01*
X175838190Y-97552664D01*
X175478980Y-97911874D01*
G37*
G04 #@! TD.AperFunction*
G04 #@! TA.AperFunction,SMDPad,CuDef*
G36*
X176044664Y-97346190D02*
G01*
X175002954Y-96304480D01*
X175362164Y-95945270D01*
X176403874Y-96986980D01*
X176044664Y-97346190D01*
G37*
G04 #@! TD.AperFunction*
G04 #@! TA.AperFunction,SMDPad,CuDef*
G36*
X176610350Y-96780504D02*
G01*
X175568640Y-95738794D01*
X175927850Y-95379584D01*
X176969560Y-96421294D01*
X176610350Y-96780504D01*
G37*
G04 #@! TD.AperFunction*
G04 #@! TA.AperFunction,SMDPad,CuDef*
G36*
X177176035Y-96214819D02*
G01*
X176134325Y-95173109D01*
X176493535Y-94813899D01*
X177535245Y-95855609D01*
X177176035Y-96214819D01*
G37*
G04 #@! TD.AperFunction*
G04 #@! TA.AperFunction,SMDPad,CuDef*
G36*
X177741720Y-95649134D02*
G01*
X176700010Y-94607424D01*
X177059220Y-94248214D01*
X178100930Y-95289924D01*
X177741720Y-95649134D01*
G37*
G04 #@! TD.AperFunction*
G04 #@! TA.AperFunction,SMDPad,CuDef*
G36*
X178100930Y-92742076D02*
G01*
X177059220Y-93783786D01*
X176700010Y-93424576D01*
X177741720Y-92382866D01*
X178100930Y-92742076D01*
G37*
G04 #@! TD.AperFunction*
G04 #@! TA.AperFunction,SMDPad,CuDef*
G36*
X177535246Y-92176392D02*
G01*
X176493536Y-93218102D01*
X176134326Y-92858892D01*
X177176036Y-91817182D01*
X177535246Y-92176392D01*
G37*
G04 #@! TD.AperFunction*
G04 #@! TA.AperFunction,SMDPad,CuDef*
G36*
X176969560Y-91610706D02*
G01*
X175927850Y-92652416D01*
X175568640Y-92293206D01*
X176610350Y-91251496D01*
X176969560Y-91610706D01*
G37*
G04 #@! TD.AperFunction*
G04 #@! TA.AperFunction,SMDPad,CuDef*
G36*
X176403874Y-91045020D02*
G01*
X175362164Y-92086730D01*
X175002954Y-91727520D01*
X176044664Y-90685810D01*
X176403874Y-91045020D01*
G37*
G04 #@! TD.AperFunction*
G04 #@! TA.AperFunction,SMDPad,CuDef*
G36*
X175838190Y-90479336D02*
G01*
X174796480Y-91521046D01*
X174437270Y-91161836D01*
X175478980Y-90120126D01*
X175838190Y-90479336D01*
G37*
G04 #@! TD.AperFunction*
G04 #@! TA.AperFunction,SMDPad,CuDef*
G36*
X175272504Y-89913650D02*
G01*
X174230794Y-90955360D01*
X173871584Y-90596150D01*
X174913294Y-89554440D01*
X175272504Y-89913650D01*
G37*
G04 #@! TD.AperFunction*
G04 #@! TA.AperFunction,SMDPad,CuDef*
G36*
X174706819Y-89347965D02*
G01*
X173665109Y-90389675D01*
X173305899Y-90030465D01*
X174347609Y-88988755D01*
X174706819Y-89347965D01*
G37*
G04 #@! TD.AperFunction*
G04 #@! TA.AperFunction,SMDPad,CuDef*
G36*
X174141134Y-88782280D02*
G01*
X173099424Y-89823990D01*
X172740214Y-89464780D01*
X173781924Y-88423070D01*
X174141134Y-88782280D01*
G37*
G04 #@! TD.AperFunction*
G04 #@! TA.AperFunction,SMDPad,CuDef*
G36*
X171916576Y-89823990D02*
G01*
X170874866Y-88782280D01*
X171234076Y-88423070D01*
X172275786Y-89464780D01*
X171916576Y-89823990D01*
G37*
G04 #@! TD.AperFunction*
G04 #@! TA.AperFunction,SMDPad,CuDef*
G36*
X171350892Y-90389674D02*
G01*
X170309182Y-89347964D01*
X170668392Y-88988754D01*
X171710102Y-90030464D01*
X171350892Y-90389674D01*
G37*
G04 #@! TD.AperFunction*
G04 #@! TA.AperFunction,SMDPad,CuDef*
G36*
X170785206Y-90955360D02*
G01*
X169743496Y-89913650D01*
X170102706Y-89554440D01*
X171144416Y-90596150D01*
X170785206Y-90955360D01*
G37*
G04 #@! TD.AperFunction*
G04 #@! TA.AperFunction,SMDPad,CuDef*
G36*
X170219520Y-91521046D02*
G01*
X169177810Y-90479336D01*
X169537020Y-90120126D01*
X170578730Y-91161836D01*
X170219520Y-91521046D01*
G37*
G04 #@! TD.AperFunction*
G04 #@! TA.AperFunction,SMDPad,CuDef*
G36*
X169653836Y-92086730D02*
G01*
X168612126Y-91045020D01*
X168971336Y-90685810D01*
X170013046Y-91727520D01*
X169653836Y-92086730D01*
G37*
G04 #@! TD.AperFunction*
G04 #@! TA.AperFunction,SMDPad,CuDef*
G36*
X169088150Y-92652416D02*
G01*
X168046440Y-91610706D01*
X168405650Y-91251496D01*
X169447360Y-92293206D01*
X169088150Y-92652416D01*
G37*
G04 #@! TD.AperFunction*
G04 #@! TA.AperFunction,SMDPad,CuDef*
G36*
X168522465Y-93218101D02*
G01*
X167480755Y-92176391D01*
X167839965Y-91817181D01*
X168881675Y-92858891D01*
X168522465Y-93218101D01*
G37*
G04 #@! TD.AperFunction*
G04 #@! TA.AperFunction,SMDPad,CuDef*
G36*
X167956780Y-93783786D02*
G01*
X166915070Y-92742076D01*
X167274280Y-92382866D01*
X168315990Y-93424576D01*
X167956780Y-93783786D01*
G37*
G04 #@! TD.AperFunction*
G04 #@! TA.AperFunction,SMDPad,CuDef*
G36*
X199777603Y-91711963D02*
G01*
X199797018Y-91714843D01*
X199816057Y-91719612D01*
X199834537Y-91726224D01*
X199852279Y-91734616D01*
X199869114Y-91744706D01*
X199884879Y-91756398D01*
X199899421Y-91769579D01*
X199912602Y-91784121D01*
X199924294Y-91799886D01*
X199934384Y-91816721D01*
X199942776Y-91834463D01*
X199949388Y-91852943D01*
X199954157Y-91871982D01*
X199957037Y-91891397D01*
X199958000Y-91911000D01*
X199958000Y-92311000D01*
X199957037Y-92330603D01*
X199954157Y-92350018D01*
X199949388Y-92369057D01*
X199942776Y-92387537D01*
X199934384Y-92405279D01*
X199924294Y-92422114D01*
X199912602Y-92437879D01*
X199899421Y-92452421D01*
X199884879Y-92465602D01*
X199869114Y-92477294D01*
X199852279Y-92487384D01*
X199834537Y-92495776D01*
X199816057Y-92502388D01*
X199797018Y-92507157D01*
X199777603Y-92510037D01*
X199758000Y-92511000D01*
X198408000Y-92511000D01*
X198388397Y-92510037D01*
X198368982Y-92507157D01*
X198349943Y-92502388D01*
X198331463Y-92495776D01*
X198313721Y-92487384D01*
X198296886Y-92477294D01*
X198281121Y-92465602D01*
X198266579Y-92452421D01*
X198253398Y-92437879D01*
X198241706Y-92422114D01*
X198231616Y-92405279D01*
X198223224Y-92387537D01*
X198216612Y-92369057D01*
X198211843Y-92350018D01*
X198208963Y-92330603D01*
X198208000Y-92311000D01*
X198208000Y-91911000D01*
X198208963Y-91891397D01*
X198211843Y-91871982D01*
X198216612Y-91852943D01*
X198223224Y-91834463D01*
X198231616Y-91816721D01*
X198241706Y-91799886D01*
X198253398Y-91784121D01*
X198266579Y-91769579D01*
X198281121Y-91756398D01*
X198296886Y-91744706D01*
X198313721Y-91734616D01*
X198331463Y-91726224D01*
X198349943Y-91719612D01*
X198368982Y-91714843D01*
X198388397Y-91711963D01*
X198408000Y-91711000D01*
X199758000Y-91711000D01*
X199777603Y-91711963D01*
G37*
G04 #@! TD.AperFunction*
G04 #@! TA.AperFunction,SMDPad,CuDef*
G36*
X199777603Y-92981963D02*
G01*
X199797018Y-92984843D01*
X199816057Y-92989612D01*
X199834537Y-92996224D01*
X199852279Y-93004616D01*
X199869114Y-93014706D01*
X199884879Y-93026398D01*
X199899421Y-93039579D01*
X199912602Y-93054121D01*
X199924294Y-93069886D01*
X199934384Y-93086721D01*
X199942776Y-93104463D01*
X199949388Y-93122943D01*
X199954157Y-93141982D01*
X199957037Y-93161397D01*
X199958000Y-93181000D01*
X199958000Y-93581000D01*
X199957037Y-93600603D01*
X199954157Y-93620018D01*
X199949388Y-93639057D01*
X199942776Y-93657537D01*
X199934384Y-93675279D01*
X199924294Y-93692114D01*
X199912602Y-93707879D01*
X199899421Y-93722421D01*
X199884879Y-93735602D01*
X199869114Y-93747294D01*
X199852279Y-93757384D01*
X199834537Y-93765776D01*
X199816057Y-93772388D01*
X199797018Y-93777157D01*
X199777603Y-93780037D01*
X199758000Y-93781000D01*
X198408000Y-93781000D01*
X198388397Y-93780037D01*
X198368982Y-93777157D01*
X198349943Y-93772388D01*
X198331463Y-93765776D01*
X198313721Y-93757384D01*
X198296886Y-93747294D01*
X198281121Y-93735602D01*
X198266579Y-93722421D01*
X198253398Y-93707879D01*
X198241706Y-93692114D01*
X198231616Y-93675279D01*
X198223224Y-93657537D01*
X198216612Y-93639057D01*
X198211843Y-93620018D01*
X198208963Y-93600603D01*
X198208000Y-93581000D01*
X198208000Y-93181000D01*
X198208963Y-93161397D01*
X198211843Y-93141982D01*
X198216612Y-93122943D01*
X198223224Y-93104463D01*
X198231616Y-93086721D01*
X198241706Y-93069886D01*
X198253398Y-93054121D01*
X198266579Y-93039579D01*
X198281121Y-93026398D01*
X198296886Y-93014706D01*
X198313721Y-93004616D01*
X198331463Y-92996224D01*
X198349943Y-92989612D01*
X198368982Y-92984843D01*
X198388397Y-92981963D01*
X198408000Y-92981000D01*
X199758000Y-92981000D01*
X199777603Y-92981963D01*
G37*
G04 #@! TD.AperFunction*
G04 #@! TA.AperFunction,SMDPad,CuDef*
G36*
X199777603Y-94251963D02*
G01*
X199797018Y-94254843D01*
X199816057Y-94259612D01*
X199834537Y-94266224D01*
X199852279Y-94274616D01*
X199869114Y-94284706D01*
X199884879Y-94296398D01*
X199899421Y-94309579D01*
X199912602Y-94324121D01*
X199924294Y-94339886D01*
X199934384Y-94356721D01*
X199942776Y-94374463D01*
X199949388Y-94392943D01*
X199954157Y-94411982D01*
X199957037Y-94431397D01*
X199958000Y-94451000D01*
X199958000Y-94851000D01*
X199957037Y-94870603D01*
X199954157Y-94890018D01*
X199949388Y-94909057D01*
X199942776Y-94927537D01*
X199934384Y-94945279D01*
X199924294Y-94962114D01*
X199912602Y-94977879D01*
X199899421Y-94992421D01*
X199884879Y-95005602D01*
X199869114Y-95017294D01*
X199852279Y-95027384D01*
X199834537Y-95035776D01*
X199816057Y-95042388D01*
X199797018Y-95047157D01*
X199777603Y-95050037D01*
X199758000Y-95051000D01*
X198408000Y-95051000D01*
X198388397Y-95050037D01*
X198368982Y-95047157D01*
X198349943Y-95042388D01*
X198331463Y-95035776D01*
X198313721Y-95027384D01*
X198296886Y-95017294D01*
X198281121Y-95005602D01*
X198266579Y-94992421D01*
X198253398Y-94977879D01*
X198241706Y-94962114D01*
X198231616Y-94945279D01*
X198223224Y-94927537D01*
X198216612Y-94909057D01*
X198211843Y-94890018D01*
X198208963Y-94870603D01*
X198208000Y-94851000D01*
X198208000Y-94451000D01*
X198208963Y-94431397D01*
X198211843Y-94411982D01*
X198216612Y-94392943D01*
X198223224Y-94374463D01*
X198231616Y-94356721D01*
X198241706Y-94339886D01*
X198253398Y-94324121D01*
X198266579Y-94309579D01*
X198281121Y-94296398D01*
X198296886Y-94284706D01*
X198313721Y-94274616D01*
X198331463Y-94266224D01*
X198349943Y-94259612D01*
X198368982Y-94254843D01*
X198388397Y-94251963D01*
X198408000Y-94251000D01*
X199758000Y-94251000D01*
X199777603Y-94251963D01*
G37*
G04 #@! TD.AperFunction*
G04 #@! TA.AperFunction,SMDPad,CuDef*
G36*
X199777603Y-95521963D02*
G01*
X199797018Y-95524843D01*
X199816057Y-95529612D01*
X199834537Y-95536224D01*
X199852279Y-95544616D01*
X199869114Y-95554706D01*
X199884879Y-95566398D01*
X199899421Y-95579579D01*
X199912602Y-95594121D01*
X199924294Y-95609886D01*
X199934384Y-95626721D01*
X199942776Y-95644463D01*
X199949388Y-95662943D01*
X199954157Y-95681982D01*
X199957037Y-95701397D01*
X199958000Y-95721000D01*
X199958000Y-96121000D01*
X199957037Y-96140603D01*
X199954157Y-96160018D01*
X199949388Y-96179057D01*
X199942776Y-96197537D01*
X199934384Y-96215279D01*
X199924294Y-96232114D01*
X199912602Y-96247879D01*
X199899421Y-96262421D01*
X199884879Y-96275602D01*
X199869114Y-96287294D01*
X199852279Y-96297384D01*
X199834537Y-96305776D01*
X199816057Y-96312388D01*
X199797018Y-96317157D01*
X199777603Y-96320037D01*
X199758000Y-96321000D01*
X198408000Y-96321000D01*
X198388397Y-96320037D01*
X198368982Y-96317157D01*
X198349943Y-96312388D01*
X198331463Y-96305776D01*
X198313721Y-96297384D01*
X198296886Y-96287294D01*
X198281121Y-96275602D01*
X198266579Y-96262421D01*
X198253398Y-96247879D01*
X198241706Y-96232114D01*
X198231616Y-96215279D01*
X198223224Y-96197537D01*
X198216612Y-96179057D01*
X198211843Y-96160018D01*
X198208963Y-96140603D01*
X198208000Y-96121000D01*
X198208000Y-95721000D01*
X198208963Y-95701397D01*
X198211843Y-95681982D01*
X198216612Y-95662943D01*
X198223224Y-95644463D01*
X198231616Y-95626721D01*
X198241706Y-95609886D01*
X198253398Y-95594121D01*
X198266579Y-95579579D01*
X198281121Y-95566398D01*
X198296886Y-95554706D01*
X198313721Y-95544616D01*
X198331463Y-95536224D01*
X198349943Y-95529612D01*
X198368982Y-95524843D01*
X198388397Y-95521963D01*
X198408000Y-95521000D01*
X199758000Y-95521000D01*
X199777603Y-95521963D01*
G37*
G04 #@! TD.AperFunction*
G04 #@! TA.AperFunction,SMDPad,CuDef*
G36*
X194627603Y-95521963D02*
G01*
X194647018Y-95524843D01*
X194666057Y-95529612D01*
X194684537Y-95536224D01*
X194702279Y-95544616D01*
X194719114Y-95554706D01*
X194734879Y-95566398D01*
X194749421Y-95579579D01*
X194762602Y-95594121D01*
X194774294Y-95609886D01*
X194784384Y-95626721D01*
X194792776Y-95644463D01*
X194799388Y-95662943D01*
X194804157Y-95681982D01*
X194807037Y-95701397D01*
X194808000Y-95721000D01*
X194808000Y-96121000D01*
X194807037Y-96140603D01*
X194804157Y-96160018D01*
X194799388Y-96179057D01*
X194792776Y-96197537D01*
X194784384Y-96215279D01*
X194774294Y-96232114D01*
X194762602Y-96247879D01*
X194749421Y-96262421D01*
X194734879Y-96275602D01*
X194719114Y-96287294D01*
X194702279Y-96297384D01*
X194684537Y-96305776D01*
X194666057Y-96312388D01*
X194647018Y-96317157D01*
X194627603Y-96320037D01*
X194608000Y-96321000D01*
X193258000Y-96321000D01*
X193238397Y-96320037D01*
X193218982Y-96317157D01*
X193199943Y-96312388D01*
X193181463Y-96305776D01*
X193163721Y-96297384D01*
X193146886Y-96287294D01*
X193131121Y-96275602D01*
X193116579Y-96262421D01*
X193103398Y-96247879D01*
X193091706Y-96232114D01*
X193081616Y-96215279D01*
X193073224Y-96197537D01*
X193066612Y-96179057D01*
X193061843Y-96160018D01*
X193058963Y-96140603D01*
X193058000Y-96121000D01*
X193058000Y-95721000D01*
X193058963Y-95701397D01*
X193061843Y-95681982D01*
X193066612Y-95662943D01*
X193073224Y-95644463D01*
X193081616Y-95626721D01*
X193091706Y-95609886D01*
X193103398Y-95594121D01*
X193116579Y-95579579D01*
X193131121Y-95566398D01*
X193146886Y-95554706D01*
X193163721Y-95544616D01*
X193181463Y-95536224D01*
X193199943Y-95529612D01*
X193218982Y-95524843D01*
X193238397Y-95521963D01*
X193258000Y-95521000D01*
X194608000Y-95521000D01*
X194627603Y-95521963D01*
G37*
G04 #@! TD.AperFunction*
G04 #@! TA.AperFunction,SMDPad,CuDef*
G36*
X194627603Y-94251963D02*
G01*
X194647018Y-94254843D01*
X194666057Y-94259612D01*
X194684537Y-94266224D01*
X194702279Y-94274616D01*
X194719114Y-94284706D01*
X194734879Y-94296398D01*
X194749421Y-94309579D01*
X194762602Y-94324121D01*
X194774294Y-94339886D01*
X194784384Y-94356721D01*
X194792776Y-94374463D01*
X194799388Y-94392943D01*
X194804157Y-94411982D01*
X194807037Y-94431397D01*
X194808000Y-94451000D01*
X194808000Y-94851000D01*
X194807037Y-94870603D01*
X194804157Y-94890018D01*
X194799388Y-94909057D01*
X194792776Y-94927537D01*
X194784384Y-94945279D01*
X194774294Y-94962114D01*
X194762602Y-94977879D01*
X194749421Y-94992421D01*
X194734879Y-95005602D01*
X194719114Y-95017294D01*
X194702279Y-95027384D01*
X194684537Y-95035776D01*
X194666057Y-95042388D01*
X194647018Y-95047157D01*
X194627603Y-95050037D01*
X194608000Y-95051000D01*
X193258000Y-95051000D01*
X193238397Y-95050037D01*
X193218982Y-95047157D01*
X193199943Y-95042388D01*
X193181463Y-95035776D01*
X193163721Y-95027384D01*
X193146886Y-95017294D01*
X193131121Y-95005602D01*
X193116579Y-94992421D01*
X193103398Y-94977879D01*
X193091706Y-94962114D01*
X193081616Y-94945279D01*
X193073224Y-94927537D01*
X193066612Y-94909057D01*
X193061843Y-94890018D01*
X193058963Y-94870603D01*
X193058000Y-94851000D01*
X193058000Y-94451000D01*
X193058963Y-94431397D01*
X193061843Y-94411982D01*
X193066612Y-94392943D01*
X193073224Y-94374463D01*
X193081616Y-94356721D01*
X193091706Y-94339886D01*
X193103398Y-94324121D01*
X193116579Y-94309579D01*
X193131121Y-94296398D01*
X193146886Y-94284706D01*
X193163721Y-94274616D01*
X193181463Y-94266224D01*
X193199943Y-94259612D01*
X193218982Y-94254843D01*
X193238397Y-94251963D01*
X193258000Y-94251000D01*
X194608000Y-94251000D01*
X194627603Y-94251963D01*
G37*
G04 #@! TD.AperFunction*
G04 #@! TA.AperFunction,SMDPad,CuDef*
G36*
X194627603Y-92981963D02*
G01*
X194647018Y-92984843D01*
X194666057Y-92989612D01*
X194684537Y-92996224D01*
X194702279Y-93004616D01*
X194719114Y-93014706D01*
X194734879Y-93026398D01*
X194749421Y-93039579D01*
X194762602Y-93054121D01*
X194774294Y-93069886D01*
X194784384Y-93086721D01*
X194792776Y-93104463D01*
X194799388Y-93122943D01*
X194804157Y-93141982D01*
X194807037Y-93161397D01*
X194808000Y-93181000D01*
X194808000Y-93581000D01*
X194807037Y-93600603D01*
X194804157Y-93620018D01*
X194799388Y-93639057D01*
X194792776Y-93657537D01*
X194784384Y-93675279D01*
X194774294Y-93692114D01*
X194762602Y-93707879D01*
X194749421Y-93722421D01*
X194734879Y-93735602D01*
X194719114Y-93747294D01*
X194702279Y-93757384D01*
X194684537Y-93765776D01*
X194666057Y-93772388D01*
X194647018Y-93777157D01*
X194627603Y-93780037D01*
X194608000Y-93781000D01*
X193258000Y-93781000D01*
X193238397Y-93780037D01*
X193218982Y-93777157D01*
X193199943Y-93772388D01*
X193181463Y-93765776D01*
X193163721Y-93757384D01*
X193146886Y-93747294D01*
X193131121Y-93735602D01*
X193116579Y-93722421D01*
X193103398Y-93707879D01*
X193091706Y-93692114D01*
X193081616Y-93675279D01*
X193073224Y-93657537D01*
X193066612Y-93639057D01*
X193061843Y-93620018D01*
X193058963Y-93600603D01*
X193058000Y-93581000D01*
X193058000Y-93181000D01*
X193058963Y-93161397D01*
X193061843Y-93141982D01*
X193066612Y-93122943D01*
X193073224Y-93104463D01*
X193081616Y-93086721D01*
X193091706Y-93069886D01*
X193103398Y-93054121D01*
X193116579Y-93039579D01*
X193131121Y-93026398D01*
X193146886Y-93014706D01*
X193163721Y-93004616D01*
X193181463Y-92996224D01*
X193199943Y-92989612D01*
X193218982Y-92984843D01*
X193238397Y-92981963D01*
X193258000Y-92981000D01*
X194608000Y-92981000D01*
X194627603Y-92981963D01*
G37*
G04 #@! TD.AperFunction*
G04 #@! TA.AperFunction,SMDPad,CuDef*
G36*
X194627603Y-91711963D02*
G01*
X194647018Y-91714843D01*
X194666057Y-91719612D01*
X194684537Y-91726224D01*
X194702279Y-91734616D01*
X194719114Y-91744706D01*
X194734879Y-91756398D01*
X194749421Y-91769579D01*
X194762602Y-91784121D01*
X194774294Y-91799886D01*
X194784384Y-91816721D01*
X194792776Y-91834463D01*
X194799388Y-91852943D01*
X194804157Y-91871982D01*
X194807037Y-91891397D01*
X194808000Y-91911000D01*
X194808000Y-92311000D01*
X194807037Y-92330603D01*
X194804157Y-92350018D01*
X194799388Y-92369057D01*
X194792776Y-92387537D01*
X194784384Y-92405279D01*
X194774294Y-92422114D01*
X194762602Y-92437879D01*
X194749421Y-92452421D01*
X194734879Y-92465602D01*
X194719114Y-92477294D01*
X194702279Y-92487384D01*
X194684537Y-92495776D01*
X194666057Y-92502388D01*
X194647018Y-92507157D01*
X194627603Y-92510037D01*
X194608000Y-92511000D01*
X193258000Y-92511000D01*
X193238397Y-92510037D01*
X193218982Y-92507157D01*
X193199943Y-92502388D01*
X193181463Y-92495776D01*
X193163721Y-92487384D01*
X193146886Y-92477294D01*
X193131121Y-92465602D01*
X193116579Y-92452421D01*
X193103398Y-92437879D01*
X193091706Y-92422114D01*
X193081616Y-92405279D01*
X193073224Y-92387537D01*
X193066612Y-92369057D01*
X193061843Y-92350018D01*
X193058963Y-92330603D01*
X193058000Y-92311000D01*
X193058000Y-91911000D01*
X193058963Y-91891397D01*
X193061843Y-91871982D01*
X193066612Y-91852943D01*
X193073224Y-91834463D01*
X193081616Y-91816721D01*
X193091706Y-91799886D01*
X193103398Y-91784121D01*
X193116579Y-91769579D01*
X193131121Y-91756398D01*
X193146886Y-91744706D01*
X193163721Y-91734616D01*
X193181463Y-91726224D01*
X193199943Y-91719612D01*
X193218982Y-91714843D01*
X193238397Y-91711963D01*
X193258000Y-91711000D01*
X194608000Y-91711000D01*
X194627603Y-91711963D01*
G37*
G04 #@! TD.AperFunction*
G04 #@! TA.AperFunction,SMDPad,CuDef*
G36*
X199474505Y-101451204D02*
G01*
X199498773Y-101454804D01*
X199522572Y-101460765D01*
X199545671Y-101469030D01*
X199567850Y-101479520D01*
X199588893Y-101492132D01*
X199608599Y-101506747D01*
X199626777Y-101523223D01*
X199643253Y-101541401D01*
X199657868Y-101561107D01*
X199670480Y-101582150D01*
X199680970Y-101604329D01*
X199689235Y-101627428D01*
X199695196Y-101651227D01*
X199698796Y-101675495D01*
X199700000Y-101699999D01*
X199700000Y-102350001D01*
X199698796Y-102374505D01*
X199695196Y-102398773D01*
X199689235Y-102422572D01*
X199680970Y-102445671D01*
X199670480Y-102467850D01*
X199657868Y-102488893D01*
X199643253Y-102508599D01*
X199626777Y-102526777D01*
X199608599Y-102543253D01*
X199588893Y-102557868D01*
X199567850Y-102570480D01*
X199545671Y-102580970D01*
X199522572Y-102589235D01*
X199498773Y-102595196D01*
X199474505Y-102598796D01*
X199450001Y-102600000D01*
X198549999Y-102600000D01*
X198525495Y-102598796D01*
X198501227Y-102595196D01*
X198477428Y-102589235D01*
X198454329Y-102580970D01*
X198432150Y-102570480D01*
X198411107Y-102557868D01*
X198391401Y-102543253D01*
X198373223Y-102526777D01*
X198356747Y-102508599D01*
X198342132Y-102488893D01*
X198329520Y-102467850D01*
X198319030Y-102445671D01*
X198310765Y-102422572D01*
X198304804Y-102398773D01*
X198301204Y-102374505D01*
X198300000Y-102350001D01*
X198300000Y-101699999D01*
X198301204Y-101675495D01*
X198304804Y-101651227D01*
X198310765Y-101627428D01*
X198319030Y-101604329D01*
X198329520Y-101582150D01*
X198342132Y-101561107D01*
X198356747Y-101541401D01*
X198373223Y-101523223D01*
X198391401Y-101506747D01*
X198411107Y-101492132D01*
X198432150Y-101479520D01*
X198454329Y-101469030D01*
X198477428Y-101460765D01*
X198501227Y-101454804D01*
X198525495Y-101451204D01*
X198549999Y-101450000D01*
X199450001Y-101450000D01*
X199474505Y-101451204D01*
G37*
G04 #@! TD.AperFunction*
G04 #@! TA.AperFunction,SMDPad,CuDef*
G36*
X199474505Y-99401204D02*
G01*
X199498773Y-99404804D01*
X199522572Y-99410765D01*
X199545671Y-99419030D01*
X199567850Y-99429520D01*
X199588893Y-99442132D01*
X199608599Y-99456747D01*
X199626777Y-99473223D01*
X199643253Y-99491401D01*
X199657868Y-99511107D01*
X199670480Y-99532150D01*
X199680970Y-99554329D01*
X199689235Y-99577428D01*
X199695196Y-99601227D01*
X199698796Y-99625495D01*
X199700000Y-99649999D01*
X199700000Y-100300001D01*
X199698796Y-100324505D01*
X199695196Y-100348773D01*
X199689235Y-100372572D01*
X199680970Y-100395671D01*
X199670480Y-100417850D01*
X199657868Y-100438893D01*
X199643253Y-100458599D01*
X199626777Y-100476777D01*
X199608599Y-100493253D01*
X199588893Y-100507868D01*
X199567850Y-100520480D01*
X199545671Y-100530970D01*
X199522572Y-100539235D01*
X199498773Y-100545196D01*
X199474505Y-100548796D01*
X199450001Y-100550000D01*
X198549999Y-100550000D01*
X198525495Y-100548796D01*
X198501227Y-100545196D01*
X198477428Y-100539235D01*
X198454329Y-100530970D01*
X198432150Y-100520480D01*
X198411107Y-100507868D01*
X198391401Y-100493253D01*
X198373223Y-100476777D01*
X198356747Y-100458599D01*
X198342132Y-100438893D01*
X198329520Y-100417850D01*
X198319030Y-100395671D01*
X198310765Y-100372572D01*
X198304804Y-100348773D01*
X198301204Y-100324505D01*
X198300000Y-100300001D01*
X198300000Y-99649999D01*
X198301204Y-99625495D01*
X198304804Y-99601227D01*
X198310765Y-99577428D01*
X198319030Y-99554329D01*
X198329520Y-99532150D01*
X198342132Y-99511107D01*
X198356747Y-99491401D01*
X198373223Y-99473223D01*
X198391401Y-99456747D01*
X198411107Y-99442132D01*
X198432150Y-99429520D01*
X198454329Y-99419030D01*
X198477428Y-99410765D01*
X198501227Y-99404804D01*
X198525495Y-99401204D01*
X198549999Y-99400000D01*
X199450001Y-99400000D01*
X199474505Y-99401204D01*
G37*
G04 #@! TD.AperFunction*
G04 #@! TA.AperFunction,SMDPad,CuDef*
G36*
X196374505Y-88301204D02*
G01*
X196398773Y-88304804D01*
X196422572Y-88310765D01*
X196445671Y-88319030D01*
X196467850Y-88329520D01*
X196488893Y-88342132D01*
X196508599Y-88356747D01*
X196526777Y-88373223D01*
X196543253Y-88391401D01*
X196557868Y-88411107D01*
X196570480Y-88432150D01*
X196580970Y-88454329D01*
X196589235Y-88477428D01*
X196595196Y-88501227D01*
X196598796Y-88525495D01*
X196600000Y-88549999D01*
X196600000Y-89450001D01*
X196598796Y-89474505D01*
X196595196Y-89498773D01*
X196589235Y-89522572D01*
X196580970Y-89545671D01*
X196570480Y-89567850D01*
X196557868Y-89588893D01*
X196543253Y-89608599D01*
X196526777Y-89626777D01*
X196508599Y-89643253D01*
X196488893Y-89657868D01*
X196467850Y-89670480D01*
X196445671Y-89680970D01*
X196422572Y-89689235D01*
X196398773Y-89695196D01*
X196374505Y-89698796D01*
X196350001Y-89700000D01*
X195699999Y-89700000D01*
X195675495Y-89698796D01*
X195651227Y-89695196D01*
X195627428Y-89689235D01*
X195604329Y-89680970D01*
X195582150Y-89670480D01*
X195561107Y-89657868D01*
X195541401Y-89643253D01*
X195523223Y-89626777D01*
X195506747Y-89608599D01*
X195492132Y-89588893D01*
X195479520Y-89567850D01*
X195469030Y-89545671D01*
X195460765Y-89522572D01*
X195454804Y-89498773D01*
X195451204Y-89474505D01*
X195450000Y-89450001D01*
X195450000Y-88549999D01*
X195451204Y-88525495D01*
X195454804Y-88501227D01*
X195460765Y-88477428D01*
X195469030Y-88454329D01*
X195479520Y-88432150D01*
X195492132Y-88411107D01*
X195506747Y-88391401D01*
X195523223Y-88373223D01*
X195541401Y-88356747D01*
X195561107Y-88342132D01*
X195582150Y-88329520D01*
X195604329Y-88319030D01*
X195627428Y-88310765D01*
X195651227Y-88304804D01*
X195675495Y-88301204D01*
X195699999Y-88300000D01*
X196350001Y-88300000D01*
X196374505Y-88301204D01*
G37*
G04 #@! TD.AperFunction*
G04 #@! TA.AperFunction,SMDPad,CuDef*
G36*
X194324505Y-88301204D02*
G01*
X194348773Y-88304804D01*
X194372572Y-88310765D01*
X194395671Y-88319030D01*
X194417850Y-88329520D01*
X194438893Y-88342132D01*
X194458599Y-88356747D01*
X194476777Y-88373223D01*
X194493253Y-88391401D01*
X194507868Y-88411107D01*
X194520480Y-88432150D01*
X194530970Y-88454329D01*
X194539235Y-88477428D01*
X194545196Y-88501227D01*
X194548796Y-88525495D01*
X194550000Y-88549999D01*
X194550000Y-89450001D01*
X194548796Y-89474505D01*
X194545196Y-89498773D01*
X194539235Y-89522572D01*
X194530970Y-89545671D01*
X194520480Y-89567850D01*
X194507868Y-89588893D01*
X194493253Y-89608599D01*
X194476777Y-89626777D01*
X194458599Y-89643253D01*
X194438893Y-89657868D01*
X194417850Y-89670480D01*
X194395671Y-89680970D01*
X194372572Y-89689235D01*
X194348773Y-89695196D01*
X194324505Y-89698796D01*
X194300001Y-89700000D01*
X193649999Y-89700000D01*
X193625495Y-89698796D01*
X193601227Y-89695196D01*
X193577428Y-89689235D01*
X193554329Y-89680970D01*
X193532150Y-89670480D01*
X193511107Y-89657868D01*
X193491401Y-89643253D01*
X193473223Y-89626777D01*
X193456747Y-89608599D01*
X193442132Y-89588893D01*
X193429520Y-89567850D01*
X193419030Y-89545671D01*
X193410765Y-89522572D01*
X193404804Y-89498773D01*
X193401204Y-89474505D01*
X193400000Y-89450001D01*
X193400000Y-88549999D01*
X193401204Y-88525495D01*
X193404804Y-88501227D01*
X193410765Y-88477428D01*
X193419030Y-88454329D01*
X193429520Y-88432150D01*
X193442132Y-88411107D01*
X193456747Y-88391401D01*
X193473223Y-88373223D01*
X193491401Y-88356747D01*
X193511107Y-88342132D01*
X193532150Y-88329520D01*
X193554329Y-88319030D01*
X193577428Y-88310765D01*
X193601227Y-88304804D01*
X193625495Y-88301204D01*
X193649999Y-88300000D01*
X194300001Y-88300000D01*
X194324505Y-88301204D01*
G37*
G04 #@! TD.AperFunction*
D14*
X163000000Y-95500000D03*
X165000000Y-97500000D03*
X171435105Y-92064895D03*
X157500000Y-83500000D03*
X163500000Y-84500000D03*
X186500000Y-97500000D03*
X191000000Y-92500000D03*
X199500000Y-86500000D03*
X195500000Y-103500000D03*
X163500000Y-103500000D03*
X174500000Y-94500000D03*
X153000000Y-103000000D03*
X155000000Y-94500000D03*
X150000000Y-84000000D03*
X182500000Y-100000000D03*
X178500000Y-104000000D03*
X169500000Y-85000000D03*
X162500000Y-89000000D03*
X160500000Y-95500000D03*
X160500000Y-103500000D03*
D15*
X196025000Y-89000000D02*
X196025000Y-89700000D01*
X168219758Y-89162074D02*
X169878270Y-90820586D01*
X168219758Y-88770190D02*
X168219758Y-89162074D01*
X167724784Y-88275216D02*
X168219758Y-88770190D01*
X174006358Y-98556790D02*
X176724784Y-101275216D01*
X174006358Y-98342786D02*
X174006358Y-98556790D01*
X173546574Y-97883002D02*
X174006358Y-98342786D01*
X173546574Y-94176364D02*
X173546574Y-97883002D01*
X170190796Y-90820586D02*
X171435105Y-92064895D01*
X169878270Y-90820586D02*
X170190796Y-90820586D01*
X171435105Y-92064895D02*
X173546574Y-94176364D01*
X194808000Y-92111000D02*
X193933000Y-92111000D01*
X195133010Y-92133010D02*
X195111000Y-92111000D01*
X195111000Y-92111000D02*
X194808000Y-92111000D01*
X195133010Y-94325990D02*
X195133010Y-92133010D01*
X194808000Y-94651000D02*
X195133010Y-94325990D01*
X193933000Y-94651000D02*
X194808000Y-94651000D01*
X194614000Y-92111000D02*
X193933000Y-92111000D01*
X193975000Y-87370820D02*
X193975000Y-89000000D01*
X198965820Y-82380000D02*
X193975000Y-87370820D01*
X198965820Y-81280000D02*
X198965820Y-82380000D01*
X193975000Y-89000000D02*
X193975000Y-91975000D01*
X193975000Y-91975000D02*
X194000000Y-92000000D01*
X199083000Y-99892000D02*
X199000000Y-99975000D01*
X199083000Y-95921000D02*
X199083000Y-99892000D01*
X173440674Y-99267680D02*
X173440674Y-98908470D01*
X173440674Y-100890242D02*
X175275216Y-102724784D01*
X173440674Y-98908470D02*
X173440674Y-100890242D01*
X169059426Y-91951956D02*
X171500000Y-94392530D01*
X168746900Y-91951956D02*
X169059426Y-91951956D01*
X173081464Y-98908470D02*
X173440674Y-98908470D01*
X172980888Y-98807894D02*
X173081464Y-98908470D01*
X171500000Y-96500000D02*
X172980888Y-97980888D01*
X172980888Y-97980888D02*
X172980888Y-98807894D01*
X171500000Y-94392530D02*
X171500000Y-96500000D01*
X166125426Y-90847802D02*
X161000000Y-85722376D01*
X167330222Y-90847802D02*
X166125426Y-90847802D01*
X168434376Y-91951956D02*
X167330222Y-90847802D01*
X168746900Y-91951956D02*
X168434376Y-91951956D01*
X148483000Y-88316000D02*
X148483000Y-89016000D01*
X151076624Y-85722376D02*
X148483000Y-88316000D01*
X161000000Y-85722376D02*
X151076624Y-85722376D01*
X182525000Y-99975000D02*
X182500000Y-100000000D01*
X199000000Y-99975000D02*
X182525000Y-99975000D01*
X176550432Y-104000000D02*
X178500000Y-104000000D01*
X175275216Y-102724784D02*
X176550432Y-104000000D01*
X166000000Y-110320000D02*
X164820000Y-111500000D01*
X166000000Y-109220000D02*
X166000000Y-110320000D01*
X148483000Y-110983000D02*
X148483000Y-89016000D01*
X149000000Y-111500000D02*
X148483000Y-110983000D01*
X158250000Y-110750000D02*
X159000000Y-111500000D01*
X158250000Y-109300000D02*
X158250000Y-110750000D01*
X159000000Y-111500000D02*
X149000000Y-111500000D01*
X164820000Y-111500000D02*
X159000000Y-111500000D01*
X150533000Y-88316000D02*
X152349000Y-86500000D01*
X150533000Y-89016000D02*
X150533000Y-88316000D01*
X155508000Y-88316000D02*
X155508000Y-89016000D01*
X153692000Y-86500000D02*
X155508000Y-88316000D01*
X152349000Y-86500000D02*
X153692000Y-86500000D01*
X155508000Y-89016000D02*
X158483000Y-89016000D01*
X160790000Y-108200000D02*
X160790000Y-109300000D01*
X158483000Y-89016000D02*
X158483000Y-89716000D01*
X171009642Y-88187868D02*
X171009642Y-86509642D01*
X171009642Y-86509642D02*
X169500000Y-85000000D01*
X170549856Y-88647654D02*
X171009642Y-88187868D01*
X170549856Y-88916906D02*
X170549856Y-88647654D01*
X171009642Y-89376692D02*
X170549856Y-88916906D01*
X171009642Y-89689214D02*
X171009642Y-89376692D01*
X158483000Y-88316000D02*
X158483000Y-89016000D01*
X158808010Y-87990990D02*
X158483000Y-88316000D01*
X161490990Y-87990990D02*
X158808010Y-87990990D01*
X162500000Y-89000000D02*
X161490990Y-87990990D01*
X158483000Y-93483000D02*
X160500000Y-95500000D01*
X158483000Y-89016000D02*
X158483000Y-93483000D01*
X160500000Y-109010000D02*
X160790000Y-109300000D01*
X160500000Y-103500000D02*
X160500000Y-109010000D01*
X168146074Y-90219758D02*
X169312586Y-91386270D01*
X166770190Y-90219758D02*
X168146074Y-90219758D01*
X166275216Y-89724784D02*
X166770190Y-90219758D01*
X167163574Y-91500000D02*
X168181215Y-92517641D01*
X165500000Y-92500000D02*
X166500000Y-91500000D01*
X165500000Y-94430000D02*
X165500000Y-92500000D01*
X166500000Y-91500000D02*
X167163574Y-91500000D01*
X150630000Y-109300000D02*
X165500000Y-94430000D01*
X153170000Y-107528856D02*
X167615530Y-93083326D01*
X153170000Y-109300000D02*
X153170000Y-107528856D01*
X191254909Y-103994909D02*
X195630001Y-108370001D01*
X184496489Y-103994909D02*
X191254909Y-103994909D01*
X176581624Y-96080044D02*
X184496489Y-103994909D01*
X195630001Y-108370001D02*
X196480000Y-109220000D01*
X176269100Y-96080044D02*
X176581624Y-96080044D01*
X189164919Y-104444919D02*
X193090001Y-108370001D01*
X183815129Y-104444919D02*
X189164919Y-104444919D01*
X176015940Y-96645730D02*
X183815129Y-104444919D01*
X193090001Y-108370001D02*
X193940000Y-109220000D01*
X175703414Y-96645730D02*
X176015940Y-96645730D01*
X190550001Y-108370001D02*
X191400000Y-109220000D01*
X187074929Y-104894929D02*
X190550001Y-108370001D01*
X175450252Y-97211414D02*
X183133767Y-104894929D01*
X183133767Y-104894929D02*
X187074929Y-104894929D01*
X175137730Y-97211414D02*
X175450252Y-97211414D01*
X184984939Y-105344939D02*
X188010001Y-108370001D01*
X182452409Y-105344939D02*
X184984939Y-105344939D01*
X174884570Y-97777100D02*
X182452409Y-105344939D01*
X188010001Y-108370001D02*
X188860000Y-109220000D01*
X174572044Y-97777100D02*
X174884570Y-97777100D01*
X171575326Y-98908470D02*
X171575326Y-103575326D01*
X185470001Y-108370001D02*
X186320000Y-109220000D01*
X173794949Y-105794949D02*
X182894949Y-105794949D01*
X182894949Y-105794949D02*
X185470001Y-108370001D01*
X171575326Y-103575326D02*
X173794949Y-105794949D01*
X170549856Y-99115094D02*
X170549856Y-103549856D01*
X171009641Y-98655309D02*
X170549856Y-99115094D01*
X171009641Y-98342785D02*
X171009641Y-98655309D01*
X182930001Y-108370001D02*
X183780000Y-109220000D01*
X180804959Y-106244959D02*
X182930001Y-108370001D01*
X173244959Y-106244959D02*
X180804959Y-106244959D01*
X170549856Y-103549856D02*
X173244959Y-106244959D01*
X169984171Y-103984171D02*
X172694969Y-106694969D01*
X170443956Y-98089624D02*
X169984171Y-98549409D01*
X169984171Y-98549409D02*
X169984171Y-103984171D01*
X170443956Y-97777100D02*
X170443956Y-98089624D01*
X178714969Y-106694969D02*
X181240000Y-109220000D01*
X172694969Y-106694969D02*
X178714969Y-106694969D01*
X169418486Y-97983724D02*
X169418486Y-104418486D01*
X169878270Y-97523940D02*
X169418486Y-97983724D01*
X169878270Y-97211414D02*
X169878270Y-97523940D01*
X177850001Y-108370001D02*
X178700000Y-109220000D01*
X176624979Y-107144979D02*
X177850001Y-108370001D01*
X172144979Y-107144979D02*
X176624979Y-107144979D01*
X169418486Y-104418486D02*
X172144979Y-107144979D01*
X168852800Y-97418038D02*
X168852800Y-104852800D01*
X169312586Y-96958252D02*
X168852800Y-97418038D01*
X169312586Y-96645730D02*
X169312586Y-96958252D01*
X175310001Y-108370001D02*
X176160000Y-109220000D01*
X174534989Y-107594989D02*
X175310001Y-108370001D01*
X171594989Y-107594989D02*
X174534989Y-107594989D01*
X168852800Y-104852800D02*
X171594989Y-107594989D01*
X168287116Y-96852354D02*
X168287116Y-105287116D01*
X168746900Y-96392570D02*
X168287116Y-96852354D01*
X168746900Y-96080044D02*
X168746900Y-96392570D01*
X172770001Y-108370001D02*
X173620000Y-109220000D01*
X172444999Y-108044999D02*
X172770001Y-108370001D01*
X171044999Y-108044999D02*
X172444999Y-108044999D01*
X168287116Y-105287116D02*
X171044999Y-108044999D01*
X167721430Y-96286668D02*
X167721430Y-106721430D01*
X168181214Y-95826884D02*
X167721430Y-96286668D01*
X168181214Y-95514358D02*
X168181214Y-95826884D01*
X167721430Y-106721430D02*
X168000000Y-107000000D01*
X168860000Y-107000000D02*
X171080000Y-109220000D01*
X168000000Y-107000000D02*
X168860000Y-107000000D01*
X167155744Y-107835744D02*
X167690001Y-108370001D01*
X167690001Y-108370001D02*
X168540000Y-109220000D01*
X167256320Y-94948674D02*
X167155744Y-95049250D01*
X167155744Y-95049250D02*
X167155744Y-107835744D01*
X167615530Y-94948674D02*
X167256320Y-94948674D01*
X169984172Y-89482590D02*
X169984172Y-87015828D01*
X170443956Y-89942374D02*
X169984172Y-89482590D01*
X170443956Y-90254900D02*
X170443956Y-89942374D01*
X168485820Y-85517476D02*
X168485820Y-81280000D01*
X169984172Y-87015828D02*
X168485820Y-85517476D01*
X171575326Y-81829506D02*
X171025820Y-81280000D01*
X171575326Y-89123530D02*
X171575326Y-81829506D01*
X173440674Y-81405146D02*
X173565820Y-81280000D01*
X173440674Y-89123530D02*
X173440674Y-81405146D01*
X176105820Y-82482081D02*
X176105820Y-81280000D01*
X174006359Y-89376691D02*
X176105820Y-87277230D01*
X176105820Y-87277230D02*
X176105820Y-82482081D01*
X174006359Y-89689215D02*
X174006359Y-89376691D01*
X178645820Y-82482081D02*
X178645820Y-81280000D01*
X178645820Y-85868600D02*
X178645820Y-82482081D01*
X174572044Y-89942376D02*
X178645820Y-85868600D01*
X174572044Y-90254900D02*
X174572044Y-89942376D01*
X181185820Y-84459970D02*
X181185820Y-82482081D01*
X175137730Y-90508060D02*
X181185820Y-84459970D01*
X181185820Y-82482081D02*
X181185820Y-81280000D01*
X175137730Y-90820586D02*
X175137730Y-90508060D01*
X183725820Y-83051342D02*
X183725820Y-82482081D01*
X175703414Y-91073748D02*
X183725820Y-83051342D01*
X183725820Y-82482081D02*
X183725820Y-81280000D01*
X175703414Y-91386270D02*
X175703414Y-91073748D01*
X185415821Y-82129999D02*
X186265820Y-81280000D01*
X185415821Y-82492709D02*
X185415821Y-82129999D01*
X176269100Y-91639430D02*
X185415821Y-82492709D01*
X176269100Y-91951956D02*
X176269100Y-91639430D01*
X187955821Y-82129999D02*
X188805820Y-81280000D01*
X177147308Y-92517642D02*
X187534951Y-82129999D01*
X187534951Y-82129999D02*
X187955821Y-82129999D01*
X176834786Y-92517642D02*
X177147308Y-92517642D01*
X179542494Y-93083326D02*
X191345820Y-81280000D01*
X177400470Y-93083326D02*
X179542494Y-93083326D01*
X180217146Y-94948674D02*
X193885820Y-81280000D01*
X177400470Y-94948674D02*
X180217146Y-94948674D01*
X181731676Y-95974144D02*
X195575821Y-82129999D01*
X195575821Y-82129999D02*
X196425820Y-81280000D01*
X177607094Y-95974144D02*
X181731676Y-95974144D01*
X177147309Y-95514359D02*
X177607094Y-95974144D01*
X176834785Y-95514359D02*
X177147309Y-95514359D01*
X151326650Y-96161800D02*
X151326650Y-94173350D01*
X153458000Y-92042000D02*
X153458000Y-89016000D01*
X151326650Y-94173350D02*
X153458000Y-92042000D01*
D16*
G36*
X201340001Y-112340000D02*
G01*
X147660000Y-112340000D01*
X147660000Y-90200619D01*
X147664613Y-90204405D01*
X147723001Y-90235614D01*
X147723000Y-110945678D01*
X147719324Y-110983000D01*
X147723000Y-111020322D01*
X147723000Y-111020332D01*
X147733997Y-111131985D01*
X147746826Y-111174276D01*
X147777454Y-111275246D01*
X147848026Y-111407276D01*
X147887641Y-111455546D01*
X147942999Y-111523001D01*
X147972002Y-111546803D01*
X148436205Y-112011007D01*
X148459999Y-112040001D01*
X148488992Y-112063795D01*
X148488996Y-112063799D01*
X148559685Y-112121811D01*
X148575724Y-112134974D01*
X148707753Y-112205546D01*
X148851014Y-112249003D01*
X148962667Y-112260000D01*
X148962676Y-112260000D01*
X148999999Y-112263676D01*
X149037322Y-112260000D01*
X158962676Y-112260000D01*
X158999999Y-112263676D01*
X159037322Y-112260000D01*
X164782678Y-112260000D01*
X164820000Y-112263676D01*
X164857322Y-112260000D01*
X164857333Y-112260000D01*
X164968986Y-112249003D01*
X165112247Y-112205546D01*
X165244276Y-112134974D01*
X165360001Y-112040001D01*
X165383804Y-112010997D01*
X166511003Y-110883799D01*
X166540001Y-110860001D01*
X166601553Y-110785000D01*
X166634974Y-110744277D01*
X166654326Y-110708072D01*
X166850000Y-110708072D01*
X166974482Y-110695812D01*
X167094180Y-110659502D01*
X167204494Y-110600537D01*
X167301185Y-110521185D01*
X167380537Y-110424494D01*
X167439502Y-110314180D01*
X167461513Y-110241620D01*
X167593368Y-110373475D01*
X167836589Y-110535990D01*
X168106842Y-110647932D01*
X168393740Y-110705000D01*
X168686260Y-110705000D01*
X168973158Y-110647932D01*
X169243411Y-110535990D01*
X169486632Y-110373475D01*
X169693475Y-110166632D01*
X169810000Y-109992240D01*
X169926525Y-110166632D01*
X170133368Y-110373475D01*
X170376589Y-110535990D01*
X170646842Y-110647932D01*
X170933740Y-110705000D01*
X171226260Y-110705000D01*
X171513158Y-110647932D01*
X171783411Y-110535990D01*
X172026632Y-110373475D01*
X172233475Y-110166632D01*
X172350000Y-109992240D01*
X172466525Y-110166632D01*
X172673368Y-110373475D01*
X172916589Y-110535990D01*
X173186842Y-110647932D01*
X173473740Y-110705000D01*
X173766260Y-110705000D01*
X174053158Y-110647932D01*
X174323411Y-110535990D01*
X174566632Y-110373475D01*
X174773475Y-110166632D01*
X174890000Y-109992240D01*
X175006525Y-110166632D01*
X175213368Y-110373475D01*
X175456589Y-110535990D01*
X175726842Y-110647932D01*
X176013740Y-110705000D01*
X176306260Y-110705000D01*
X176593158Y-110647932D01*
X176863411Y-110535990D01*
X177106632Y-110373475D01*
X177313475Y-110166632D01*
X177430000Y-109992240D01*
X177546525Y-110166632D01*
X177753368Y-110373475D01*
X177996589Y-110535990D01*
X178266842Y-110647932D01*
X178553740Y-110705000D01*
X178846260Y-110705000D01*
X179133158Y-110647932D01*
X179403411Y-110535990D01*
X179646632Y-110373475D01*
X179853475Y-110166632D01*
X179970000Y-109992240D01*
X180086525Y-110166632D01*
X180293368Y-110373475D01*
X180536589Y-110535990D01*
X180806842Y-110647932D01*
X181093740Y-110705000D01*
X181386260Y-110705000D01*
X181673158Y-110647932D01*
X181943411Y-110535990D01*
X182186632Y-110373475D01*
X182393475Y-110166632D01*
X182510000Y-109992240D01*
X182626525Y-110166632D01*
X182833368Y-110373475D01*
X183076589Y-110535990D01*
X183346842Y-110647932D01*
X183633740Y-110705000D01*
X183926260Y-110705000D01*
X184213158Y-110647932D01*
X184483411Y-110535990D01*
X184726632Y-110373475D01*
X184933475Y-110166632D01*
X185050000Y-109992240D01*
X185166525Y-110166632D01*
X185373368Y-110373475D01*
X185616589Y-110535990D01*
X185886842Y-110647932D01*
X186173740Y-110705000D01*
X186466260Y-110705000D01*
X186753158Y-110647932D01*
X187023411Y-110535990D01*
X187266632Y-110373475D01*
X187473475Y-110166632D01*
X187590000Y-109992240D01*
X187706525Y-110166632D01*
X187913368Y-110373475D01*
X188156589Y-110535990D01*
X188426842Y-110647932D01*
X188713740Y-110705000D01*
X189006260Y-110705000D01*
X189293158Y-110647932D01*
X189563411Y-110535990D01*
X189806632Y-110373475D01*
X190013475Y-110166632D01*
X190130000Y-109992240D01*
X190246525Y-110166632D01*
X190453368Y-110373475D01*
X190696589Y-110535990D01*
X190966842Y-110647932D01*
X191253740Y-110705000D01*
X191546260Y-110705000D01*
X191833158Y-110647932D01*
X192103411Y-110535990D01*
X192346632Y-110373475D01*
X192553475Y-110166632D01*
X192670000Y-109992240D01*
X192786525Y-110166632D01*
X192993368Y-110373475D01*
X193236589Y-110535990D01*
X193506842Y-110647932D01*
X193793740Y-110705000D01*
X194086260Y-110705000D01*
X194373158Y-110647932D01*
X194643411Y-110535990D01*
X194886632Y-110373475D01*
X195093475Y-110166632D01*
X195210000Y-109992240D01*
X195326525Y-110166632D01*
X195533368Y-110373475D01*
X195776589Y-110535990D01*
X196046842Y-110647932D01*
X196333740Y-110705000D01*
X196626260Y-110705000D01*
X196913158Y-110647932D01*
X197183411Y-110535990D01*
X197426632Y-110373475D01*
X197633475Y-110166632D01*
X197755195Y-109984466D01*
X197824822Y-110101355D01*
X198019731Y-110317588D01*
X198253080Y-110491641D01*
X198515901Y-110616825D01*
X198663110Y-110661476D01*
X198893000Y-110540155D01*
X198893000Y-109347000D01*
X199147000Y-109347000D01*
X199147000Y-110540155D01*
X199376890Y-110661476D01*
X199524099Y-110616825D01*
X199786920Y-110491641D01*
X200020269Y-110317588D01*
X200215178Y-110101355D01*
X200364157Y-109851252D01*
X200461481Y-109576891D01*
X200340814Y-109347000D01*
X199147000Y-109347000D01*
X198893000Y-109347000D01*
X198873000Y-109347000D01*
X198873000Y-109093000D01*
X198893000Y-109093000D01*
X198893000Y-107899845D01*
X199147000Y-107899845D01*
X199147000Y-109093000D01*
X200340814Y-109093000D01*
X200461481Y-108863109D01*
X200364157Y-108588748D01*
X200215178Y-108338645D01*
X200020269Y-108122412D01*
X199786920Y-107948359D01*
X199524099Y-107823175D01*
X199376890Y-107778524D01*
X199147000Y-107899845D01*
X198893000Y-107899845D01*
X198663110Y-107778524D01*
X198515901Y-107823175D01*
X198253080Y-107948359D01*
X198019731Y-108122412D01*
X197824822Y-108338645D01*
X197755195Y-108455534D01*
X197633475Y-108273368D01*
X197426632Y-108066525D01*
X197183411Y-107904010D01*
X196913158Y-107792068D01*
X196626260Y-107735000D01*
X196333740Y-107735000D01*
X196113593Y-107778790D01*
X191818713Y-103483912D01*
X191794910Y-103454908D01*
X191679185Y-103359935D01*
X191547156Y-103289363D01*
X191403895Y-103245906D01*
X191292242Y-103234909D01*
X191292231Y-103234909D01*
X191254909Y-103231233D01*
X191217587Y-103234909D01*
X184811292Y-103234909D01*
X184176383Y-102600000D01*
X197661928Y-102600000D01*
X197674188Y-102724482D01*
X197710498Y-102844180D01*
X197769463Y-102954494D01*
X197848815Y-103051185D01*
X197945506Y-103130537D01*
X198055820Y-103189502D01*
X198175518Y-103225812D01*
X198300000Y-103238072D01*
X198714250Y-103235000D01*
X198873000Y-103076250D01*
X198873000Y-102152000D01*
X199127000Y-102152000D01*
X199127000Y-103076250D01*
X199285750Y-103235000D01*
X199700000Y-103238072D01*
X199824482Y-103225812D01*
X199944180Y-103189502D01*
X200054494Y-103130537D01*
X200151185Y-103051185D01*
X200230537Y-102954494D01*
X200289502Y-102844180D01*
X200325812Y-102724482D01*
X200338072Y-102600000D01*
X200335000Y-102310750D01*
X200176250Y-102152000D01*
X199127000Y-102152000D01*
X198873000Y-102152000D01*
X197823750Y-102152000D01*
X197665000Y-102310750D01*
X197661928Y-102600000D01*
X184176383Y-102600000D01*
X182609816Y-101033433D01*
X182801898Y-100995226D01*
X182990256Y-100917205D01*
X183159774Y-100803937D01*
X183228711Y-100735000D01*
X197780386Y-100735000D01*
X197811595Y-100793387D01*
X197922038Y-100927962D01*
X197928594Y-100933342D01*
X197848815Y-100998815D01*
X197769463Y-101095506D01*
X197710498Y-101205820D01*
X197674188Y-101325518D01*
X197661928Y-101450000D01*
X197665000Y-101739250D01*
X197823750Y-101898000D01*
X198873000Y-101898000D01*
X198873000Y-101878000D01*
X199127000Y-101878000D01*
X199127000Y-101898000D01*
X200176250Y-101898000D01*
X200335000Y-101739250D01*
X200338072Y-101450000D01*
X200325812Y-101325518D01*
X200289502Y-101205820D01*
X200230537Y-101095506D01*
X200151185Y-100998815D01*
X200071406Y-100933342D01*
X200077962Y-100927962D01*
X200188405Y-100793387D01*
X200270472Y-100639851D01*
X200321008Y-100473255D01*
X200338072Y-100300001D01*
X200338072Y-99649999D01*
X200321008Y-99476745D01*
X200270472Y-99310149D01*
X200188405Y-99156613D01*
X200077962Y-99022038D01*
X199943387Y-98911595D01*
X199843000Y-98857937D01*
X199843000Y-96950700D01*
X199921500Y-96942969D01*
X200078716Y-96895278D01*
X200223608Y-96817831D01*
X200350606Y-96713606D01*
X200454831Y-96586608D01*
X200532278Y-96441716D01*
X200579969Y-96284500D01*
X200596072Y-96121000D01*
X200596072Y-95721000D01*
X200579969Y-95557500D01*
X200532278Y-95400284D01*
X200471191Y-95286000D01*
X200532278Y-95171716D01*
X200579969Y-95014500D01*
X200596072Y-94851000D01*
X200596072Y-94451000D01*
X200579969Y-94287500D01*
X200532278Y-94130284D01*
X200471191Y-94016000D01*
X200532278Y-93901716D01*
X200579969Y-93744500D01*
X200596072Y-93581000D01*
X200596072Y-93181000D01*
X200579969Y-93017500D01*
X200532278Y-92860284D01*
X200471191Y-92746000D01*
X200532278Y-92631716D01*
X200579969Y-92474500D01*
X200596072Y-92311000D01*
X200596072Y-91911000D01*
X200579969Y-91747500D01*
X200532278Y-91590284D01*
X200454831Y-91445392D01*
X200350606Y-91318394D01*
X200223608Y-91214169D01*
X200078716Y-91136722D01*
X199921500Y-91089031D01*
X199758000Y-91072928D01*
X198408000Y-91072928D01*
X198244500Y-91089031D01*
X198087284Y-91136722D01*
X197942392Y-91214169D01*
X197815394Y-91318394D01*
X197711169Y-91445392D01*
X197633722Y-91590284D01*
X197586031Y-91747500D01*
X197569928Y-91911000D01*
X197569928Y-92311000D01*
X197586031Y-92474500D01*
X197633722Y-92631716D01*
X197694809Y-92746000D01*
X197633722Y-92860284D01*
X197586031Y-93017500D01*
X197569928Y-93181000D01*
X197569928Y-93581000D01*
X197586031Y-93744500D01*
X197633722Y-93901716D01*
X197694809Y-94016000D01*
X197633722Y-94130284D01*
X197586031Y-94287500D01*
X197569928Y-94451000D01*
X197569928Y-94851000D01*
X197586031Y-95014500D01*
X197633722Y-95171716D01*
X197694809Y-95286000D01*
X197633722Y-95400284D01*
X197586031Y-95557500D01*
X197569928Y-95721000D01*
X197569928Y-96121000D01*
X197586031Y-96284500D01*
X197633722Y-96441716D01*
X197711169Y-96586608D01*
X197815394Y-96713606D01*
X197942392Y-96817831D01*
X198087284Y-96895278D01*
X198244500Y-96942969D01*
X198323000Y-96950700D01*
X198323001Y-98795295D01*
X198210149Y-98829528D01*
X198056613Y-98911595D01*
X197922038Y-99022038D01*
X197811595Y-99156613D01*
X197780386Y-99215000D01*
X183178711Y-99215000D01*
X183159774Y-99196063D01*
X182990256Y-99082795D01*
X182801898Y-99004774D01*
X182601939Y-98965000D01*
X182398061Y-98965000D01*
X182198102Y-99004774D01*
X182009744Y-99082795D01*
X181840226Y-99196063D01*
X181696063Y-99340226D01*
X181582795Y-99509744D01*
X181504774Y-99698102D01*
X181466567Y-99890185D01*
X178310525Y-96734144D01*
X181694354Y-96734144D01*
X181731676Y-96737820D01*
X181768998Y-96734144D01*
X181769009Y-96734144D01*
X181880662Y-96723147D01*
X182023923Y-96679690D01*
X182155952Y-96609118D01*
X182271677Y-96514145D01*
X182295480Y-96485141D01*
X196059412Y-82721210D01*
X196279560Y-82765000D01*
X196572080Y-82765000D01*
X196858978Y-82707932D01*
X197129231Y-82595990D01*
X197372452Y-82433475D01*
X197504307Y-82301620D01*
X197526318Y-82374180D01*
X197585283Y-82484494D01*
X197664635Y-82581185D01*
X197678475Y-82592543D01*
X193464003Y-86807016D01*
X193434999Y-86830819D01*
X193405436Y-86866842D01*
X193340026Y-86946544D01*
X193305572Y-87011003D01*
X193269454Y-87078574D01*
X193225997Y-87221835D01*
X193215000Y-87333488D01*
X193215000Y-87333498D01*
X193211324Y-87370820D01*
X193215000Y-87408143D01*
X193215000Y-87780386D01*
X193156613Y-87811595D01*
X193022038Y-87922038D01*
X192911595Y-88056613D01*
X192829528Y-88210149D01*
X192778992Y-88376745D01*
X192761928Y-88549999D01*
X192761928Y-89450001D01*
X192778992Y-89623255D01*
X192829528Y-89789851D01*
X192911595Y-89943387D01*
X193022038Y-90077962D01*
X193156613Y-90188405D01*
X193215000Y-90219614D01*
X193215001Y-91077163D01*
X193094500Y-91089031D01*
X192937284Y-91136722D01*
X192792392Y-91214169D01*
X192665394Y-91318394D01*
X192561169Y-91445392D01*
X192483722Y-91590284D01*
X192436031Y-91747500D01*
X192419928Y-91911000D01*
X192419928Y-92311000D01*
X192436031Y-92474500D01*
X192483722Y-92631716D01*
X192504200Y-92670027D01*
X192468498Y-92736820D01*
X192432188Y-92856518D01*
X192419928Y-92981000D01*
X192423000Y-93095250D01*
X192581750Y-93254000D01*
X193806000Y-93254000D01*
X193806000Y-93234000D01*
X194060000Y-93234000D01*
X194060000Y-93254000D01*
X194080000Y-93254000D01*
X194080000Y-93508000D01*
X194060000Y-93508000D01*
X194060000Y-93528000D01*
X193806000Y-93528000D01*
X193806000Y-93508000D01*
X192581750Y-93508000D01*
X192423000Y-93666750D01*
X192419928Y-93781000D01*
X192432188Y-93905482D01*
X192468498Y-94025180D01*
X192504200Y-94091973D01*
X192483722Y-94130284D01*
X192436031Y-94287500D01*
X192419928Y-94451000D01*
X192419928Y-94851000D01*
X192436031Y-95014500D01*
X192483722Y-95171716D01*
X192544809Y-95286000D01*
X192483722Y-95400284D01*
X192436031Y-95557500D01*
X192419928Y-95721000D01*
X192419928Y-96121000D01*
X192436031Y-96284500D01*
X192483722Y-96441716D01*
X192561169Y-96586608D01*
X192665394Y-96713606D01*
X192792392Y-96817831D01*
X192937284Y-96895278D01*
X193094500Y-96942969D01*
X193258000Y-96959072D01*
X194608000Y-96959072D01*
X194771500Y-96942969D01*
X194928716Y-96895278D01*
X195073608Y-96817831D01*
X195200606Y-96713606D01*
X195304831Y-96586608D01*
X195382278Y-96441716D01*
X195429969Y-96284500D01*
X195446072Y-96121000D01*
X195446072Y-95721000D01*
X195429969Y-95557500D01*
X195382278Y-95400284D01*
X195321191Y-95286000D01*
X195382278Y-95171716D01*
X195391071Y-95142730D01*
X195644008Y-94889793D01*
X195673011Y-94865991D01*
X195767984Y-94750266D01*
X195838556Y-94618237D01*
X195882013Y-94474976D01*
X195893010Y-94363323D01*
X195893010Y-94363322D01*
X195896687Y-94325990D01*
X195893010Y-94288657D01*
X195893010Y-92170333D01*
X195896686Y-92133010D01*
X195893010Y-92095688D01*
X195893010Y-92095677D01*
X195882013Y-91984024D01*
X195838556Y-91840763D01*
X195767984Y-91708734D01*
X195673011Y-91593009D01*
X195660922Y-91583088D01*
X195651001Y-91570999D01*
X195535276Y-91476026D01*
X195403247Y-91405454D01*
X195259986Y-91361997D01*
X195234315Y-91359469D01*
X195200606Y-91318394D01*
X195073608Y-91214169D01*
X194928716Y-91136722D01*
X194771500Y-91089031D01*
X194735000Y-91085436D01*
X194735000Y-90219614D01*
X194793387Y-90188405D01*
X194927962Y-90077962D01*
X194933342Y-90071406D01*
X194998815Y-90151185D01*
X195095506Y-90230537D01*
X195205820Y-90289502D01*
X195325518Y-90325812D01*
X195450000Y-90338072D01*
X195739250Y-90335000D01*
X195898000Y-90176250D01*
X195898000Y-89127000D01*
X196152000Y-89127000D01*
X196152000Y-90176250D01*
X196310750Y-90335000D01*
X196600000Y-90338072D01*
X196724482Y-90325812D01*
X196844180Y-90289502D01*
X196954494Y-90230537D01*
X197051185Y-90151185D01*
X197130537Y-90054494D01*
X197189502Y-89944180D01*
X197225812Y-89824482D01*
X197238072Y-89700000D01*
X197235000Y-89285750D01*
X197076250Y-89127000D01*
X196152000Y-89127000D01*
X195898000Y-89127000D01*
X195878000Y-89127000D01*
X195878000Y-88873000D01*
X195898000Y-88873000D01*
X195898000Y-87823750D01*
X196152000Y-87823750D01*
X196152000Y-88873000D01*
X197076250Y-88873000D01*
X197235000Y-88714250D01*
X197238072Y-88300000D01*
X197225812Y-88175518D01*
X197189502Y-88055820D01*
X197130537Y-87945506D01*
X197051185Y-87848815D01*
X196954494Y-87769463D01*
X196844180Y-87710498D01*
X196724482Y-87674188D01*
X196600000Y-87661928D01*
X196310750Y-87665000D01*
X196152000Y-87823750D01*
X195898000Y-87823750D01*
X195739250Y-87665000D01*
X195450000Y-87661928D01*
X195325518Y-87674188D01*
X195205820Y-87710498D01*
X195095506Y-87769463D01*
X194998815Y-87848815D01*
X194933342Y-87928594D01*
X194927962Y-87922038D01*
X194793387Y-87811595D01*
X194735000Y-87780386D01*
X194735000Y-87685621D01*
X199476823Y-82943799D01*
X199505821Y-82920001D01*
X199600794Y-82804276D01*
X199620146Y-82768072D01*
X199815820Y-82768072D01*
X199940302Y-82755812D01*
X200060000Y-82719502D01*
X200170314Y-82660537D01*
X200267005Y-82581185D01*
X200346357Y-82484494D01*
X200405322Y-82374180D01*
X200441632Y-82254482D01*
X200453892Y-82130000D01*
X200453892Y-80430000D01*
X200441632Y-80305518D01*
X200405322Y-80185820D01*
X200346357Y-80075506D01*
X200267005Y-79978815D01*
X200170314Y-79899463D01*
X200060000Y-79840498D01*
X199940302Y-79804188D01*
X199815820Y-79791928D01*
X198115820Y-79791928D01*
X197991338Y-79804188D01*
X197871640Y-79840498D01*
X197761326Y-79899463D01*
X197664635Y-79978815D01*
X197585283Y-80075506D01*
X197526318Y-80185820D01*
X197504307Y-80258380D01*
X197372452Y-80126525D01*
X197129231Y-79964010D01*
X196858978Y-79852068D01*
X196572080Y-79795000D01*
X196279560Y-79795000D01*
X195992662Y-79852068D01*
X195722409Y-79964010D01*
X195479188Y-80126525D01*
X195272345Y-80333368D01*
X195155820Y-80507760D01*
X195039295Y-80333368D01*
X194832452Y-80126525D01*
X194589231Y-79964010D01*
X194318978Y-79852068D01*
X194032080Y-79795000D01*
X193739560Y-79795000D01*
X193452662Y-79852068D01*
X193182409Y-79964010D01*
X192939188Y-80126525D01*
X192732345Y-80333368D01*
X192615820Y-80507760D01*
X192499295Y-80333368D01*
X192292452Y-80126525D01*
X192049231Y-79964010D01*
X191778978Y-79852068D01*
X191492080Y-79795000D01*
X191199560Y-79795000D01*
X190912662Y-79852068D01*
X190642409Y-79964010D01*
X190399188Y-80126525D01*
X190192345Y-80333368D01*
X190075820Y-80507760D01*
X189959295Y-80333368D01*
X189752452Y-80126525D01*
X189509231Y-79964010D01*
X189238978Y-79852068D01*
X188952080Y-79795000D01*
X188659560Y-79795000D01*
X188372662Y-79852068D01*
X188102409Y-79964010D01*
X187859188Y-80126525D01*
X187652345Y-80333368D01*
X187535820Y-80507760D01*
X187419295Y-80333368D01*
X187212452Y-80126525D01*
X186969231Y-79964010D01*
X186698978Y-79852068D01*
X186412080Y-79795000D01*
X186119560Y-79795000D01*
X185832662Y-79852068D01*
X185562409Y-79964010D01*
X185319188Y-80126525D01*
X185112345Y-80333368D01*
X184995820Y-80507760D01*
X184879295Y-80333368D01*
X184672452Y-80126525D01*
X184429231Y-79964010D01*
X184158978Y-79852068D01*
X183872080Y-79795000D01*
X183579560Y-79795000D01*
X183292662Y-79852068D01*
X183022409Y-79964010D01*
X182779188Y-80126525D01*
X182572345Y-80333368D01*
X182455820Y-80507760D01*
X182339295Y-80333368D01*
X182132452Y-80126525D01*
X181889231Y-79964010D01*
X181618978Y-79852068D01*
X181332080Y-79795000D01*
X181039560Y-79795000D01*
X180752662Y-79852068D01*
X180482409Y-79964010D01*
X180239188Y-80126525D01*
X180032345Y-80333368D01*
X179915820Y-80507760D01*
X179799295Y-80333368D01*
X179592452Y-80126525D01*
X179349231Y-79964010D01*
X179078978Y-79852068D01*
X178792080Y-79795000D01*
X178499560Y-79795000D01*
X178212662Y-79852068D01*
X177942409Y-79964010D01*
X177699188Y-80126525D01*
X177492345Y-80333368D01*
X177375820Y-80507760D01*
X177259295Y-80333368D01*
X177052452Y-80126525D01*
X176809231Y-79964010D01*
X176538978Y-79852068D01*
X176252080Y-79795000D01*
X175959560Y-79795000D01*
X175672662Y-79852068D01*
X175402409Y-79964010D01*
X175159188Y-80126525D01*
X174952345Y-80333368D01*
X174835820Y-80507760D01*
X174719295Y-80333368D01*
X174512452Y-80126525D01*
X174269231Y-79964010D01*
X173998978Y-79852068D01*
X173712080Y-79795000D01*
X173419560Y-79795000D01*
X173132662Y-79852068D01*
X172862409Y-79964010D01*
X172619188Y-80126525D01*
X172412345Y-80333368D01*
X172295820Y-80507760D01*
X172179295Y-80333368D01*
X171972452Y-80126525D01*
X171729231Y-79964010D01*
X171458978Y-79852068D01*
X171172080Y-79795000D01*
X170879560Y-79795000D01*
X170592662Y-79852068D01*
X170322409Y-79964010D01*
X170079188Y-80126525D01*
X169872345Y-80333368D01*
X169755820Y-80507760D01*
X169639295Y-80333368D01*
X169432452Y-80126525D01*
X169189231Y-79964010D01*
X168918978Y-79852068D01*
X168632080Y-79795000D01*
X168339560Y-79795000D01*
X168052662Y-79852068D01*
X167782409Y-79964010D01*
X167539188Y-80126525D01*
X167332345Y-80333368D01*
X167210625Y-80515534D01*
X167140998Y-80398645D01*
X166946089Y-80182412D01*
X166712740Y-80008359D01*
X166449919Y-79883175D01*
X166302710Y-79838524D01*
X166072820Y-79959845D01*
X166072820Y-81153000D01*
X166092820Y-81153000D01*
X166092820Y-81407000D01*
X166072820Y-81407000D01*
X166072820Y-82600155D01*
X166302710Y-82721476D01*
X166449919Y-82676825D01*
X166712740Y-82551641D01*
X166946089Y-82377588D01*
X167140998Y-82161355D01*
X167210625Y-82044466D01*
X167332345Y-82226632D01*
X167539188Y-82433475D01*
X167725821Y-82558179D01*
X167725820Y-85480153D01*
X167722144Y-85517476D01*
X167725820Y-85554798D01*
X167725820Y-85554808D01*
X167736817Y-85666461D01*
X167762461Y-85750998D01*
X167780274Y-85809722D01*
X167850846Y-85941752D01*
X167890691Y-85990302D01*
X167945819Y-86057477D01*
X167974823Y-86081280D01*
X169224173Y-87330631D01*
X169224173Y-88146871D01*
X169215847Y-88119425D01*
X169156883Y-88009111D01*
X169077530Y-87912419D01*
X168782439Y-87621673D01*
X168557933Y-87621673D01*
X167904389Y-88275216D01*
X168646321Y-89017148D01*
X168870827Y-89017148D01*
X169077530Y-88814789D01*
X169156883Y-88718098D01*
X169215847Y-88607784D01*
X169224172Y-88580339D01*
X169224172Y-89445267D01*
X169220496Y-89482590D01*
X169224172Y-89519912D01*
X169224172Y-89519922D01*
X169226421Y-89542753D01*
X169212959Y-89559156D01*
X169202918Y-89577941D01*
X169190556Y-89584311D01*
X169110458Y-89648663D01*
X169110458Y-89862537D01*
X169105424Y-89913650D01*
X169117684Y-90038132D01*
X169127205Y-90069519D01*
X169095818Y-90059998D01*
X169057324Y-90056207D01*
X168709878Y-89708761D01*
X168686075Y-89679757D01*
X168570350Y-89584784D01*
X168438321Y-89514212D01*
X168390051Y-89499570D01*
X168466716Y-89421259D01*
X168466716Y-89196753D01*
X167724784Y-88454821D01*
X167710642Y-88468964D01*
X167531037Y-88289359D01*
X167545179Y-88275216D01*
X166803247Y-87533284D01*
X166578741Y-87533284D01*
X166372038Y-87735643D01*
X166292685Y-87832334D01*
X166233721Y-87942648D01*
X166197411Y-88062346D01*
X166185151Y-88186828D01*
X166195267Y-88289535D01*
X166186828Y-88288704D01*
X166013574Y-88305768D01*
X165846978Y-88356304D01*
X165693442Y-88438371D01*
X165558867Y-88548814D01*
X165230053Y-88877628D01*
X163481598Y-87129173D01*
X166982852Y-87129173D01*
X166982852Y-87353679D01*
X167724784Y-88095611D01*
X168378327Y-87442067D01*
X168378327Y-87217561D01*
X168087581Y-86922470D01*
X167990889Y-86843117D01*
X167880575Y-86784153D01*
X167760877Y-86747843D01*
X167636396Y-86735583D01*
X167511914Y-86747843D01*
X167392216Y-86784153D01*
X167281902Y-86843117D01*
X167185211Y-86922470D01*
X166982852Y-87129173D01*
X163481598Y-87129173D01*
X161563804Y-85211379D01*
X161540001Y-85182375D01*
X161424276Y-85087402D01*
X161292247Y-85016830D01*
X161148986Y-84973373D01*
X161037333Y-84962376D01*
X161037322Y-84962376D01*
X161000000Y-84958700D01*
X160962678Y-84962376D01*
X151113946Y-84962376D01*
X151076623Y-84958700D01*
X151039300Y-84962376D01*
X151039291Y-84962376D01*
X150927638Y-84973373D01*
X150784377Y-85016830D01*
X150652348Y-85087402D01*
X150536623Y-85182375D01*
X150512825Y-85211373D01*
X148034064Y-87690134D01*
X147984745Y-87694992D01*
X147818149Y-87745528D01*
X147664613Y-87827595D01*
X147660000Y-87831381D01*
X147660000Y-81636891D01*
X164504339Y-81636891D01*
X164601663Y-81911252D01*
X164750642Y-82161355D01*
X164945551Y-82377588D01*
X165178900Y-82551641D01*
X165441721Y-82676825D01*
X165588930Y-82721476D01*
X165818820Y-82600155D01*
X165818820Y-81407000D01*
X164625006Y-81407000D01*
X164504339Y-81636891D01*
X147660000Y-81636891D01*
X147660000Y-80923109D01*
X164504339Y-80923109D01*
X164625006Y-81153000D01*
X165818820Y-81153000D01*
X165818820Y-79959845D01*
X165588930Y-79838524D01*
X165441721Y-79883175D01*
X165178900Y-80008359D01*
X164945551Y-80182412D01*
X164750642Y-80398645D01*
X164601663Y-80648748D01*
X164504339Y-80923109D01*
X147660000Y-80923109D01*
X147660000Y-78660000D01*
X201340000Y-78660000D01*
X201340001Y-112340000D01*
G37*
X201340001Y-112340000D02*
X147660000Y-112340000D01*
X147660000Y-90200619D01*
X147664613Y-90204405D01*
X147723001Y-90235614D01*
X147723000Y-110945678D01*
X147719324Y-110983000D01*
X147723000Y-111020322D01*
X147723000Y-111020332D01*
X147733997Y-111131985D01*
X147746826Y-111174276D01*
X147777454Y-111275246D01*
X147848026Y-111407276D01*
X147887641Y-111455546D01*
X147942999Y-111523001D01*
X147972002Y-111546803D01*
X148436205Y-112011007D01*
X148459999Y-112040001D01*
X148488992Y-112063795D01*
X148488996Y-112063799D01*
X148559685Y-112121811D01*
X148575724Y-112134974D01*
X148707753Y-112205546D01*
X148851014Y-112249003D01*
X148962667Y-112260000D01*
X148962676Y-112260000D01*
X148999999Y-112263676D01*
X149037322Y-112260000D01*
X158962676Y-112260000D01*
X158999999Y-112263676D01*
X159037322Y-112260000D01*
X164782678Y-112260000D01*
X164820000Y-112263676D01*
X164857322Y-112260000D01*
X164857333Y-112260000D01*
X164968986Y-112249003D01*
X165112247Y-112205546D01*
X165244276Y-112134974D01*
X165360001Y-112040001D01*
X165383804Y-112010997D01*
X166511003Y-110883799D01*
X166540001Y-110860001D01*
X166601553Y-110785000D01*
X166634974Y-110744277D01*
X166654326Y-110708072D01*
X166850000Y-110708072D01*
X166974482Y-110695812D01*
X167094180Y-110659502D01*
X167204494Y-110600537D01*
X167301185Y-110521185D01*
X167380537Y-110424494D01*
X167439502Y-110314180D01*
X167461513Y-110241620D01*
X167593368Y-110373475D01*
X167836589Y-110535990D01*
X168106842Y-110647932D01*
X168393740Y-110705000D01*
X168686260Y-110705000D01*
X168973158Y-110647932D01*
X169243411Y-110535990D01*
X169486632Y-110373475D01*
X169693475Y-110166632D01*
X169810000Y-109992240D01*
X169926525Y-110166632D01*
X170133368Y-110373475D01*
X170376589Y-110535990D01*
X170646842Y-110647932D01*
X170933740Y-110705000D01*
X171226260Y-110705000D01*
X171513158Y-110647932D01*
X171783411Y-110535990D01*
X172026632Y-110373475D01*
X172233475Y-110166632D01*
X172350000Y-109992240D01*
X172466525Y-110166632D01*
X172673368Y-110373475D01*
X172916589Y-110535990D01*
X173186842Y-110647932D01*
X173473740Y-110705000D01*
X173766260Y-110705000D01*
X174053158Y-110647932D01*
X174323411Y-110535990D01*
X174566632Y-110373475D01*
X174773475Y-110166632D01*
X174890000Y-109992240D01*
X175006525Y-110166632D01*
X175213368Y-110373475D01*
X175456589Y-110535990D01*
X175726842Y-110647932D01*
X176013740Y-110705000D01*
X176306260Y-110705000D01*
X176593158Y-110647932D01*
X176863411Y-110535990D01*
X177106632Y-110373475D01*
X177313475Y-110166632D01*
X177430000Y-109992240D01*
X177546525Y-110166632D01*
X177753368Y-110373475D01*
X177996589Y-110535990D01*
X178266842Y-110647932D01*
X178553740Y-110705000D01*
X178846260Y-110705000D01*
X179133158Y-110647932D01*
X179403411Y-110535990D01*
X179646632Y-110373475D01*
X179853475Y-110166632D01*
X179970000Y-109992240D01*
X180086525Y-110166632D01*
X180293368Y-110373475D01*
X180536589Y-110535990D01*
X180806842Y-110647932D01*
X181093740Y-110705000D01*
X181386260Y-110705000D01*
X181673158Y-110647932D01*
X181943411Y-110535990D01*
X182186632Y-110373475D01*
X182393475Y-110166632D01*
X182510000Y-109992240D01*
X182626525Y-110166632D01*
X182833368Y-110373475D01*
X183076589Y-110535990D01*
X183346842Y-110647932D01*
X183633740Y-110705000D01*
X183926260Y-110705000D01*
X184213158Y-110647932D01*
X184483411Y-110535990D01*
X184726632Y-110373475D01*
X184933475Y-110166632D01*
X185050000Y-109992240D01*
X185166525Y-110166632D01*
X185373368Y-110373475D01*
X185616589Y-110535990D01*
X185886842Y-110647932D01*
X186173740Y-110705000D01*
X186466260Y-110705000D01*
X186753158Y-110647932D01*
X187023411Y-110535990D01*
X187266632Y-110373475D01*
X187473475Y-110166632D01*
X187590000Y-109992240D01*
X187706525Y-110166632D01*
X187913368Y-110373475D01*
X188156589Y-110535990D01*
X188426842Y-110647932D01*
X188713740Y-110705000D01*
X189006260Y-110705000D01*
X189293158Y-110647932D01*
X189563411Y-110535990D01*
X189806632Y-110373475D01*
X190013475Y-110166632D01*
X190130000Y-109992240D01*
X190246525Y-110166632D01*
X190453368Y-110373475D01*
X190696589Y-110535990D01*
X190966842Y-110647932D01*
X191253740Y-110705000D01*
X191546260Y-110705000D01*
X191833158Y-110647932D01*
X192103411Y-110535990D01*
X192346632Y-110373475D01*
X192553475Y-110166632D01*
X192670000Y-109992240D01*
X192786525Y-110166632D01*
X192993368Y-110373475D01*
X193236589Y-110535990D01*
X193506842Y-110647932D01*
X193793740Y-110705000D01*
X194086260Y-110705000D01*
X194373158Y-110647932D01*
X194643411Y-110535990D01*
X194886632Y-110373475D01*
X195093475Y-110166632D01*
X195210000Y-109992240D01*
X195326525Y-110166632D01*
X195533368Y-110373475D01*
X195776589Y-110535990D01*
X196046842Y-110647932D01*
X196333740Y-110705000D01*
X196626260Y-110705000D01*
X196913158Y-110647932D01*
X197183411Y-110535990D01*
X197426632Y-110373475D01*
X197633475Y-110166632D01*
X197755195Y-109984466D01*
X197824822Y-110101355D01*
X198019731Y-110317588D01*
X198253080Y-110491641D01*
X198515901Y-110616825D01*
X198663110Y-110661476D01*
X198893000Y-110540155D01*
X198893000Y-109347000D01*
X199147000Y-109347000D01*
X199147000Y-110540155D01*
X199376890Y-110661476D01*
X199524099Y-110616825D01*
X199786920Y-110491641D01*
X200020269Y-110317588D01*
X200215178Y-110101355D01*
X200364157Y-109851252D01*
X200461481Y-109576891D01*
X200340814Y-109347000D01*
X199147000Y-109347000D01*
X198893000Y-109347000D01*
X198873000Y-109347000D01*
X198873000Y-109093000D01*
X198893000Y-109093000D01*
X198893000Y-107899845D01*
X199147000Y-107899845D01*
X199147000Y-109093000D01*
X200340814Y-109093000D01*
X200461481Y-108863109D01*
X200364157Y-108588748D01*
X200215178Y-108338645D01*
X200020269Y-108122412D01*
X199786920Y-107948359D01*
X199524099Y-107823175D01*
X199376890Y-107778524D01*
X199147000Y-107899845D01*
X198893000Y-107899845D01*
X198663110Y-107778524D01*
X198515901Y-107823175D01*
X198253080Y-107948359D01*
X198019731Y-108122412D01*
X197824822Y-108338645D01*
X197755195Y-108455534D01*
X197633475Y-108273368D01*
X197426632Y-108066525D01*
X197183411Y-107904010D01*
X196913158Y-107792068D01*
X196626260Y-107735000D01*
X196333740Y-107735000D01*
X196113593Y-107778790D01*
X191818713Y-103483912D01*
X191794910Y-103454908D01*
X191679185Y-103359935D01*
X191547156Y-103289363D01*
X191403895Y-103245906D01*
X191292242Y-103234909D01*
X191292231Y-103234909D01*
X191254909Y-103231233D01*
X191217587Y-103234909D01*
X184811292Y-103234909D01*
X184176383Y-102600000D01*
X197661928Y-102600000D01*
X197674188Y-102724482D01*
X197710498Y-102844180D01*
X197769463Y-102954494D01*
X197848815Y-103051185D01*
X197945506Y-103130537D01*
X198055820Y-103189502D01*
X198175518Y-103225812D01*
X198300000Y-103238072D01*
X198714250Y-103235000D01*
X198873000Y-103076250D01*
X198873000Y-102152000D01*
X199127000Y-102152000D01*
X199127000Y-103076250D01*
X199285750Y-103235000D01*
X199700000Y-103238072D01*
X199824482Y-103225812D01*
X199944180Y-103189502D01*
X200054494Y-103130537D01*
X200151185Y-103051185D01*
X200230537Y-102954494D01*
X200289502Y-102844180D01*
X200325812Y-102724482D01*
X200338072Y-102600000D01*
X200335000Y-102310750D01*
X200176250Y-102152000D01*
X199127000Y-102152000D01*
X198873000Y-102152000D01*
X197823750Y-102152000D01*
X197665000Y-102310750D01*
X197661928Y-102600000D01*
X184176383Y-102600000D01*
X182609816Y-101033433D01*
X182801898Y-100995226D01*
X182990256Y-100917205D01*
X183159774Y-100803937D01*
X183228711Y-100735000D01*
X197780386Y-100735000D01*
X197811595Y-100793387D01*
X197922038Y-100927962D01*
X197928594Y-100933342D01*
X197848815Y-100998815D01*
X197769463Y-101095506D01*
X197710498Y-101205820D01*
X197674188Y-101325518D01*
X197661928Y-101450000D01*
X197665000Y-101739250D01*
X197823750Y-101898000D01*
X198873000Y-101898000D01*
X198873000Y-101878000D01*
X199127000Y-101878000D01*
X199127000Y-101898000D01*
X200176250Y-101898000D01*
X200335000Y-101739250D01*
X200338072Y-101450000D01*
X200325812Y-101325518D01*
X200289502Y-101205820D01*
X200230537Y-101095506D01*
X200151185Y-100998815D01*
X200071406Y-100933342D01*
X200077962Y-100927962D01*
X200188405Y-100793387D01*
X200270472Y-100639851D01*
X200321008Y-100473255D01*
X200338072Y-100300001D01*
X200338072Y-99649999D01*
X200321008Y-99476745D01*
X200270472Y-99310149D01*
X200188405Y-99156613D01*
X200077962Y-99022038D01*
X199943387Y-98911595D01*
X199843000Y-98857937D01*
X199843000Y-96950700D01*
X199921500Y-96942969D01*
X200078716Y-96895278D01*
X200223608Y-96817831D01*
X200350606Y-96713606D01*
X200454831Y-96586608D01*
X200532278Y-96441716D01*
X200579969Y-96284500D01*
X200596072Y-96121000D01*
X200596072Y-95721000D01*
X200579969Y-95557500D01*
X200532278Y-95400284D01*
X200471191Y-95286000D01*
X200532278Y-95171716D01*
X200579969Y-95014500D01*
X200596072Y-94851000D01*
X200596072Y-94451000D01*
X200579969Y-94287500D01*
X200532278Y-94130284D01*
X200471191Y-94016000D01*
X200532278Y-93901716D01*
X200579969Y-93744500D01*
X200596072Y-93581000D01*
X200596072Y-93181000D01*
X200579969Y-93017500D01*
X200532278Y-92860284D01*
X200471191Y-92746000D01*
X200532278Y-92631716D01*
X200579969Y-92474500D01*
X200596072Y-92311000D01*
X200596072Y-91911000D01*
X200579969Y-91747500D01*
X200532278Y-91590284D01*
X200454831Y-91445392D01*
X200350606Y-91318394D01*
X200223608Y-91214169D01*
X200078716Y-91136722D01*
X199921500Y-91089031D01*
X199758000Y-91072928D01*
X198408000Y-91072928D01*
X198244500Y-91089031D01*
X198087284Y-91136722D01*
X197942392Y-91214169D01*
X197815394Y-91318394D01*
X197711169Y-91445392D01*
X197633722Y-91590284D01*
X197586031Y-91747500D01*
X197569928Y-91911000D01*
X197569928Y-92311000D01*
X197586031Y-92474500D01*
X197633722Y-92631716D01*
X197694809Y-92746000D01*
X197633722Y-92860284D01*
X197586031Y-93017500D01*
X197569928Y-93181000D01*
X197569928Y-93581000D01*
X197586031Y-93744500D01*
X197633722Y-93901716D01*
X197694809Y-94016000D01*
X197633722Y-94130284D01*
X197586031Y-94287500D01*
X197569928Y-94451000D01*
X197569928Y-94851000D01*
X197586031Y-95014500D01*
X197633722Y-95171716D01*
X197694809Y-95286000D01*
X197633722Y-95400284D01*
X197586031Y-95557500D01*
X197569928Y-95721000D01*
X197569928Y-96121000D01*
X197586031Y-96284500D01*
X197633722Y-96441716D01*
X197711169Y-96586608D01*
X197815394Y-96713606D01*
X197942392Y-96817831D01*
X198087284Y-96895278D01*
X198244500Y-96942969D01*
X198323000Y-96950700D01*
X198323001Y-98795295D01*
X198210149Y-98829528D01*
X198056613Y-98911595D01*
X197922038Y-99022038D01*
X197811595Y-99156613D01*
X197780386Y-99215000D01*
X183178711Y-99215000D01*
X183159774Y-99196063D01*
X182990256Y-99082795D01*
X182801898Y-99004774D01*
X182601939Y-98965000D01*
X182398061Y-98965000D01*
X182198102Y-99004774D01*
X182009744Y-99082795D01*
X181840226Y-99196063D01*
X181696063Y-99340226D01*
X181582795Y-99509744D01*
X181504774Y-99698102D01*
X181466567Y-99890185D01*
X178310525Y-96734144D01*
X181694354Y-96734144D01*
X181731676Y-96737820D01*
X181768998Y-96734144D01*
X181769009Y-96734144D01*
X181880662Y-96723147D01*
X182023923Y-96679690D01*
X182155952Y-96609118D01*
X182271677Y-96514145D01*
X182295480Y-96485141D01*
X196059412Y-82721210D01*
X196279560Y-82765000D01*
X196572080Y-82765000D01*
X196858978Y-82707932D01*
X197129231Y-82595990D01*
X197372452Y-82433475D01*
X197504307Y-82301620D01*
X197526318Y-82374180D01*
X197585283Y-82484494D01*
X197664635Y-82581185D01*
X197678475Y-82592543D01*
X193464003Y-86807016D01*
X193434999Y-86830819D01*
X193405436Y-86866842D01*
X193340026Y-86946544D01*
X193305572Y-87011003D01*
X193269454Y-87078574D01*
X193225997Y-87221835D01*
X193215000Y-87333488D01*
X193215000Y-87333498D01*
X193211324Y-87370820D01*
X193215000Y-87408143D01*
X193215000Y-87780386D01*
X193156613Y-87811595D01*
X193022038Y-87922038D01*
X192911595Y-88056613D01*
X192829528Y-88210149D01*
X192778992Y-88376745D01*
X192761928Y-88549999D01*
X192761928Y-89450001D01*
X192778992Y-89623255D01*
X192829528Y-89789851D01*
X192911595Y-89943387D01*
X193022038Y-90077962D01*
X193156613Y-90188405D01*
X193215000Y-90219614D01*
X193215001Y-91077163D01*
X193094500Y-91089031D01*
X192937284Y-91136722D01*
X192792392Y-91214169D01*
X192665394Y-91318394D01*
X192561169Y-91445392D01*
X192483722Y-91590284D01*
X192436031Y-91747500D01*
X192419928Y-91911000D01*
X192419928Y-92311000D01*
X192436031Y-92474500D01*
X192483722Y-92631716D01*
X192504200Y-92670027D01*
X192468498Y-92736820D01*
X192432188Y-92856518D01*
X192419928Y-92981000D01*
X192423000Y-93095250D01*
X192581750Y-93254000D01*
X193806000Y-93254000D01*
X193806000Y-93234000D01*
X194060000Y-93234000D01*
X194060000Y-93254000D01*
X194080000Y-93254000D01*
X194080000Y-93508000D01*
X194060000Y-93508000D01*
X194060000Y-93528000D01*
X193806000Y-93528000D01*
X193806000Y-93508000D01*
X192581750Y-93508000D01*
X192423000Y-93666750D01*
X192419928Y-93781000D01*
X192432188Y-93905482D01*
X192468498Y-94025180D01*
X192504200Y-94091973D01*
X192483722Y-94130284D01*
X192436031Y-94287500D01*
X192419928Y-94451000D01*
X192419928Y-94851000D01*
X192436031Y-95014500D01*
X192483722Y-95171716D01*
X192544809Y-95286000D01*
X192483722Y-95400284D01*
X192436031Y-95557500D01*
X192419928Y-95721000D01*
X192419928Y-96121000D01*
X192436031Y-96284500D01*
X192483722Y-96441716D01*
X192561169Y-96586608D01*
X192665394Y-96713606D01*
X192792392Y-96817831D01*
X192937284Y-96895278D01*
X193094500Y-96942969D01*
X193258000Y-96959072D01*
X194608000Y-96959072D01*
X194771500Y-96942969D01*
X194928716Y-96895278D01*
X195073608Y-96817831D01*
X195200606Y-96713606D01*
X195304831Y-96586608D01*
X195382278Y-96441716D01*
X195429969Y-96284500D01*
X195446072Y-96121000D01*
X195446072Y-95721000D01*
X195429969Y-95557500D01*
X195382278Y-95400284D01*
X195321191Y-95286000D01*
X195382278Y-95171716D01*
X195391071Y-95142730D01*
X195644008Y-94889793D01*
X195673011Y-94865991D01*
X195767984Y-94750266D01*
X195838556Y-94618237D01*
X195882013Y-94474976D01*
X195893010Y-94363323D01*
X195893010Y-94363322D01*
X195896687Y-94325990D01*
X195893010Y-94288657D01*
X195893010Y-92170333D01*
X195896686Y-92133010D01*
X195893010Y-92095688D01*
X195893010Y-92095677D01*
X195882013Y-91984024D01*
X195838556Y-91840763D01*
X195767984Y-91708734D01*
X195673011Y-91593009D01*
X195660922Y-91583088D01*
X195651001Y-91570999D01*
X195535276Y-91476026D01*
X195403247Y-91405454D01*
X195259986Y-91361997D01*
X195234315Y-91359469D01*
X195200606Y-91318394D01*
X195073608Y-91214169D01*
X194928716Y-91136722D01*
X194771500Y-91089031D01*
X194735000Y-91085436D01*
X194735000Y-90219614D01*
X194793387Y-90188405D01*
X194927962Y-90077962D01*
X194933342Y-90071406D01*
X194998815Y-90151185D01*
X195095506Y-90230537D01*
X195205820Y-90289502D01*
X195325518Y-90325812D01*
X195450000Y-90338072D01*
X195739250Y-90335000D01*
X195898000Y-90176250D01*
X195898000Y-89127000D01*
X196152000Y-89127000D01*
X196152000Y-90176250D01*
X196310750Y-90335000D01*
X196600000Y-90338072D01*
X196724482Y-90325812D01*
X196844180Y-90289502D01*
X196954494Y-90230537D01*
X197051185Y-90151185D01*
X197130537Y-90054494D01*
X197189502Y-89944180D01*
X197225812Y-89824482D01*
X197238072Y-89700000D01*
X197235000Y-89285750D01*
X197076250Y-89127000D01*
X196152000Y-89127000D01*
X195898000Y-89127000D01*
X195878000Y-89127000D01*
X195878000Y-88873000D01*
X195898000Y-88873000D01*
X195898000Y-87823750D01*
X196152000Y-87823750D01*
X196152000Y-88873000D01*
X197076250Y-88873000D01*
X197235000Y-88714250D01*
X197238072Y-88300000D01*
X197225812Y-88175518D01*
X197189502Y-88055820D01*
X197130537Y-87945506D01*
X197051185Y-87848815D01*
X196954494Y-87769463D01*
X196844180Y-87710498D01*
X196724482Y-87674188D01*
X196600000Y-87661928D01*
X196310750Y-87665000D01*
X196152000Y-87823750D01*
X195898000Y-87823750D01*
X195739250Y-87665000D01*
X195450000Y-87661928D01*
X195325518Y-87674188D01*
X195205820Y-87710498D01*
X195095506Y-87769463D01*
X194998815Y-87848815D01*
X194933342Y-87928594D01*
X194927962Y-87922038D01*
X194793387Y-87811595D01*
X194735000Y-87780386D01*
X194735000Y-87685621D01*
X199476823Y-82943799D01*
X199505821Y-82920001D01*
X199600794Y-82804276D01*
X199620146Y-82768072D01*
X199815820Y-82768072D01*
X199940302Y-82755812D01*
X200060000Y-82719502D01*
X200170314Y-82660537D01*
X200267005Y-82581185D01*
X200346357Y-82484494D01*
X200405322Y-82374180D01*
X200441632Y-82254482D01*
X200453892Y-82130000D01*
X200453892Y-80430000D01*
X200441632Y-80305518D01*
X200405322Y-80185820D01*
X200346357Y-80075506D01*
X200267005Y-79978815D01*
X200170314Y-79899463D01*
X200060000Y-79840498D01*
X199940302Y-79804188D01*
X199815820Y-79791928D01*
X198115820Y-79791928D01*
X197991338Y-79804188D01*
X197871640Y-79840498D01*
X197761326Y-79899463D01*
X197664635Y-79978815D01*
X197585283Y-80075506D01*
X197526318Y-80185820D01*
X197504307Y-80258380D01*
X197372452Y-80126525D01*
X197129231Y-79964010D01*
X196858978Y-79852068D01*
X196572080Y-79795000D01*
X196279560Y-79795000D01*
X195992662Y-79852068D01*
X195722409Y-79964010D01*
X195479188Y-80126525D01*
X195272345Y-80333368D01*
X195155820Y-80507760D01*
X195039295Y-80333368D01*
X194832452Y-80126525D01*
X194589231Y-79964010D01*
X194318978Y-79852068D01*
X194032080Y-79795000D01*
X193739560Y-79795000D01*
X193452662Y-79852068D01*
X193182409Y-79964010D01*
X192939188Y-80126525D01*
X192732345Y-80333368D01*
X192615820Y-80507760D01*
X192499295Y-80333368D01*
X192292452Y-80126525D01*
X192049231Y-79964010D01*
X191778978Y-79852068D01*
X191492080Y-79795000D01*
X191199560Y-79795000D01*
X190912662Y-79852068D01*
X190642409Y-79964010D01*
X190399188Y-80126525D01*
X190192345Y-80333368D01*
X190075820Y-80507760D01*
X189959295Y-80333368D01*
X189752452Y-80126525D01*
X189509231Y-79964010D01*
X189238978Y-79852068D01*
X188952080Y-79795000D01*
X188659560Y-79795000D01*
X188372662Y-79852068D01*
X188102409Y-79964010D01*
X187859188Y-80126525D01*
X187652345Y-80333368D01*
X187535820Y-80507760D01*
X187419295Y-80333368D01*
X187212452Y-80126525D01*
X186969231Y-79964010D01*
X186698978Y-79852068D01*
X186412080Y-79795000D01*
X186119560Y-79795000D01*
X185832662Y-79852068D01*
X185562409Y-79964010D01*
X185319188Y-80126525D01*
X185112345Y-80333368D01*
X184995820Y-80507760D01*
X184879295Y-80333368D01*
X184672452Y-80126525D01*
X184429231Y-79964010D01*
X184158978Y-79852068D01*
X183872080Y-79795000D01*
X183579560Y-79795000D01*
X183292662Y-79852068D01*
X183022409Y-79964010D01*
X182779188Y-80126525D01*
X182572345Y-80333368D01*
X182455820Y-80507760D01*
X182339295Y-80333368D01*
X182132452Y-80126525D01*
X181889231Y-79964010D01*
X181618978Y-79852068D01*
X181332080Y-79795000D01*
X181039560Y-79795000D01*
X180752662Y-79852068D01*
X180482409Y-79964010D01*
X180239188Y-80126525D01*
X180032345Y-80333368D01*
X179915820Y-80507760D01*
X179799295Y-80333368D01*
X179592452Y-80126525D01*
X179349231Y-79964010D01*
X179078978Y-79852068D01*
X178792080Y-79795000D01*
X178499560Y-79795000D01*
X178212662Y-79852068D01*
X177942409Y-79964010D01*
X177699188Y-80126525D01*
X177492345Y-80333368D01*
X177375820Y-80507760D01*
X177259295Y-80333368D01*
X177052452Y-80126525D01*
X176809231Y-79964010D01*
X176538978Y-79852068D01*
X176252080Y-79795000D01*
X175959560Y-79795000D01*
X175672662Y-79852068D01*
X175402409Y-79964010D01*
X175159188Y-80126525D01*
X174952345Y-80333368D01*
X174835820Y-80507760D01*
X174719295Y-80333368D01*
X174512452Y-80126525D01*
X174269231Y-79964010D01*
X173998978Y-79852068D01*
X173712080Y-79795000D01*
X173419560Y-79795000D01*
X173132662Y-79852068D01*
X172862409Y-79964010D01*
X172619188Y-80126525D01*
X172412345Y-80333368D01*
X172295820Y-80507760D01*
X172179295Y-80333368D01*
X171972452Y-80126525D01*
X171729231Y-79964010D01*
X171458978Y-79852068D01*
X171172080Y-79795000D01*
X170879560Y-79795000D01*
X170592662Y-79852068D01*
X170322409Y-79964010D01*
X170079188Y-80126525D01*
X169872345Y-80333368D01*
X169755820Y-80507760D01*
X169639295Y-80333368D01*
X169432452Y-80126525D01*
X169189231Y-79964010D01*
X168918978Y-79852068D01*
X168632080Y-79795000D01*
X168339560Y-79795000D01*
X168052662Y-79852068D01*
X167782409Y-79964010D01*
X167539188Y-80126525D01*
X167332345Y-80333368D01*
X167210625Y-80515534D01*
X167140998Y-80398645D01*
X166946089Y-80182412D01*
X166712740Y-80008359D01*
X166449919Y-79883175D01*
X166302710Y-79838524D01*
X166072820Y-79959845D01*
X166072820Y-81153000D01*
X166092820Y-81153000D01*
X166092820Y-81407000D01*
X166072820Y-81407000D01*
X166072820Y-82600155D01*
X166302710Y-82721476D01*
X166449919Y-82676825D01*
X166712740Y-82551641D01*
X166946089Y-82377588D01*
X167140998Y-82161355D01*
X167210625Y-82044466D01*
X167332345Y-82226632D01*
X167539188Y-82433475D01*
X167725821Y-82558179D01*
X167725820Y-85480153D01*
X167722144Y-85517476D01*
X167725820Y-85554798D01*
X167725820Y-85554808D01*
X167736817Y-85666461D01*
X167762461Y-85750998D01*
X167780274Y-85809722D01*
X167850846Y-85941752D01*
X167890691Y-85990302D01*
X167945819Y-86057477D01*
X167974823Y-86081280D01*
X169224173Y-87330631D01*
X169224173Y-88146871D01*
X169215847Y-88119425D01*
X169156883Y-88009111D01*
X169077530Y-87912419D01*
X168782439Y-87621673D01*
X168557933Y-87621673D01*
X167904389Y-88275216D01*
X168646321Y-89017148D01*
X168870827Y-89017148D01*
X169077530Y-88814789D01*
X169156883Y-88718098D01*
X169215847Y-88607784D01*
X169224172Y-88580339D01*
X169224172Y-89445267D01*
X169220496Y-89482590D01*
X169224172Y-89519912D01*
X169224172Y-89519922D01*
X169226421Y-89542753D01*
X169212959Y-89559156D01*
X169202918Y-89577941D01*
X169190556Y-89584311D01*
X169110458Y-89648663D01*
X169110458Y-89862537D01*
X169105424Y-89913650D01*
X169117684Y-90038132D01*
X169127205Y-90069519D01*
X169095818Y-90059998D01*
X169057324Y-90056207D01*
X168709878Y-89708761D01*
X168686075Y-89679757D01*
X168570350Y-89584784D01*
X168438321Y-89514212D01*
X168390051Y-89499570D01*
X168466716Y-89421259D01*
X168466716Y-89196753D01*
X167724784Y-88454821D01*
X167710642Y-88468964D01*
X167531037Y-88289359D01*
X167545179Y-88275216D01*
X166803247Y-87533284D01*
X166578741Y-87533284D01*
X166372038Y-87735643D01*
X166292685Y-87832334D01*
X166233721Y-87942648D01*
X166197411Y-88062346D01*
X166185151Y-88186828D01*
X166195267Y-88289535D01*
X166186828Y-88288704D01*
X166013574Y-88305768D01*
X165846978Y-88356304D01*
X165693442Y-88438371D01*
X165558867Y-88548814D01*
X165230053Y-88877628D01*
X163481598Y-87129173D01*
X166982852Y-87129173D01*
X166982852Y-87353679D01*
X167724784Y-88095611D01*
X168378327Y-87442067D01*
X168378327Y-87217561D01*
X168087581Y-86922470D01*
X167990889Y-86843117D01*
X167880575Y-86784153D01*
X167760877Y-86747843D01*
X167636396Y-86735583D01*
X167511914Y-86747843D01*
X167392216Y-86784153D01*
X167281902Y-86843117D01*
X167185211Y-86922470D01*
X166982852Y-87129173D01*
X163481598Y-87129173D01*
X161563804Y-85211379D01*
X161540001Y-85182375D01*
X161424276Y-85087402D01*
X161292247Y-85016830D01*
X161148986Y-84973373D01*
X161037333Y-84962376D01*
X161037322Y-84962376D01*
X161000000Y-84958700D01*
X160962678Y-84962376D01*
X151113946Y-84962376D01*
X151076623Y-84958700D01*
X151039300Y-84962376D01*
X151039291Y-84962376D01*
X150927638Y-84973373D01*
X150784377Y-85016830D01*
X150652348Y-85087402D01*
X150536623Y-85182375D01*
X150512825Y-85211373D01*
X148034064Y-87690134D01*
X147984745Y-87694992D01*
X147818149Y-87745528D01*
X147664613Y-87827595D01*
X147660000Y-87831381D01*
X147660000Y-81636891D01*
X164504339Y-81636891D01*
X164601663Y-81911252D01*
X164750642Y-82161355D01*
X164945551Y-82377588D01*
X165178900Y-82551641D01*
X165441721Y-82676825D01*
X165588930Y-82721476D01*
X165818820Y-82600155D01*
X165818820Y-81407000D01*
X164625006Y-81407000D01*
X164504339Y-81636891D01*
X147660000Y-81636891D01*
X147660000Y-80923109D01*
X164504339Y-80923109D01*
X164625006Y-81153000D01*
X165818820Y-81153000D01*
X165818820Y-79959845D01*
X165588930Y-79838524D01*
X165441721Y-79883175D01*
X165178900Y-80008359D01*
X164945551Y-80182412D01*
X164750642Y-80398645D01*
X164601663Y-80648748D01*
X164504339Y-80923109D01*
X147660000Y-80923109D01*
X147660000Y-78660000D01*
X201340000Y-78660000D01*
X201340001Y-112340000D01*
G36*
X166325568Y-95534104D02*
G01*
X166384533Y-95644418D01*
X166395744Y-95658079D01*
X166395745Y-107731928D01*
X165150000Y-107731928D01*
X165025518Y-107744188D01*
X164905820Y-107780498D01*
X164795506Y-107839463D01*
X164698815Y-107918815D01*
X164619463Y-108015506D01*
X164560498Y-108125820D01*
X164524188Y-108245518D01*
X164511928Y-108370000D01*
X164511928Y-110070000D01*
X164524188Y-110194482D01*
X164560498Y-110314180D01*
X164619463Y-110424494D01*
X164698815Y-110521185D01*
X164712655Y-110532543D01*
X164505199Y-110740000D01*
X161882538Y-110740000D01*
X161884180Y-110739502D01*
X161994494Y-110680537D01*
X162091185Y-110601185D01*
X162170537Y-110504494D01*
X162229502Y-110394180D01*
X162265812Y-110274482D01*
X162278072Y-110150000D01*
X162278072Y-108450000D01*
X162265812Y-108325518D01*
X162229502Y-108205820D01*
X162170537Y-108095506D01*
X162091185Y-107998815D01*
X161994494Y-107919463D01*
X161884180Y-107860498D01*
X161764482Y-107824188D01*
X161640000Y-107811928D01*
X161444326Y-107811928D01*
X161424974Y-107775724D01*
X161330001Y-107659999D01*
X161260000Y-107602551D01*
X161260000Y-104203711D01*
X161303937Y-104159774D01*
X161417205Y-103990256D01*
X161495226Y-103801898D01*
X161535000Y-103601939D01*
X161535000Y-103398061D01*
X161495226Y-103198102D01*
X161417205Y-103009744D01*
X161303937Y-102840226D01*
X161159774Y-102696063D01*
X160990256Y-102582795D01*
X160801898Y-102504774D01*
X160601939Y-102465000D01*
X160398061Y-102465000D01*
X160198102Y-102504774D01*
X160009744Y-102582795D01*
X159840226Y-102696063D01*
X159696063Y-102840226D01*
X159582795Y-103009744D01*
X159504774Y-103198102D01*
X159465000Y-103398061D01*
X159465000Y-103601939D01*
X159504774Y-103801898D01*
X159582795Y-103990256D01*
X159696063Y-104159774D01*
X159740000Y-104203711D01*
X159740001Y-107847096D01*
X159695820Y-107860498D01*
X159585506Y-107919463D01*
X159488815Y-107998815D01*
X159409463Y-108095506D01*
X159350498Y-108205820D01*
X159328487Y-108278380D01*
X159196632Y-108146525D01*
X158953411Y-107984010D01*
X158683158Y-107872068D01*
X158396260Y-107815000D01*
X158103740Y-107815000D01*
X157816842Y-107872068D01*
X157546589Y-107984010D01*
X157303368Y-108146525D01*
X157096525Y-108353368D01*
X156974805Y-108535534D01*
X156905178Y-108418645D01*
X156710269Y-108202412D01*
X156476920Y-108028359D01*
X156214099Y-107903175D01*
X156066890Y-107858524D01*
X155837000Y-107979845D01*
X155837000Y-109173000D01*
X155857000Y-109173000D01*
X155857000Y-109427000D01*
X155837000Y-109427000D01*
X155837000Y-109447000D01*
X155583000Y-109447000D01*
X155583000Y-109427000D01*
X155563000Y-109427000D01*
X155563000Y-109173000D01*
X155583000Y-109173000D01*
X155583000Y-107979845D01*
X155353110Y-107858524D01*
X155205901Y-107903175D01*
X154943080Y-108028359D01*
X154709731Y-108202412D01*
X154514822Y-108418645D01*
X154445195Y-108535534D01*
X154323475Y-108353368D01*
X154116632Y-108146525D01*
X153930000Y-108021822D01*
X153930000Y-107843657D01*
X166305549Y-95468110D01*
X166325568Y-95534104D01*
G37*
X166325568Y-95534104D02*
X166384533Y-95644418D01*
X166395744Y-95658079D01*
X166395745Y-107731928D01*
X165150000Y-107731928D01*
X165025518Y-107744188D01*
X164905820Y-107780498D01*
X164795506Y-107839463D01*
X164698815Y-107918815D01*
X164619463Y-108015506D01*
X164560498Y-108125820D01*
X164524188Y-108245518D01*
X164511928Y-108370000D01*
X164511928Y-110070000D01*
X164524188Y-110194482D01*
X164560498Y-110314180D01*
X164619463Y-110424494D01*
X164698815Y-110521185D01*
X164712655Y-110532543D01*
X164505199Y-110740000D01*
X161882538Y-110740000D01*
X161884180Y-110739502D01*
X161994494Y-110680537D01*
X162091185Y-110601185D01*
X162170537Y-110504494D01*
X162229502Y-110394180D01*
X162265812Y-110274482D01*
X162278072Y-110150000D01*
X162278072Y-108450000D01*
X162265812Y-108325518D01*
X162229502Y-108205820D01*
X162170537Y-108095506D01*
X162091185Y-107998815D01*
X161994494Y-107919463D01*
X161884180Y-107860498D01*
X161764482Y-107824188D01*
X161640000Y-107811928D01*
X161444326Y-107811928D01*
X161424974Y-107775724D01*
X161330001Y-107659999D01*
X161260000Y-107602551D01*
X161260000Y-104203711D01*
X161303937Y-104159774D01*
X161417205Y-103990256D01*
X161495226Y-103801898D01*
X161535000Y-103601939D01*
X161535000Y-103398061D01*
X161495226Y-103198102D01*
X161417205Y-103009744D01*
X161303937Y-102840226D01*
X161159774Y-102696063D01*
X160990256Y-102582795D01*
X160801898Y-102504774D01*
X160601939Y-102465000D01*
X160398061Y-102465000D01*
X160198102Y-102504774D01*
X160009744Y-102582795D01*
X159840226Y-102696063D01*
X159696063Y-102840226D01*
X159582795Y-103009744D01*
X159504774Y-103198102D01*
X159465000Y-103398061D01*
X159465000Y-103601939D01*
X159504774Y-103801898D01*
X159582795Y-103990256D01*
X159696063Y-104159774D01*
X159740000Y-104203711D01*
X159740001Y-107847096D01*
X159695820Y-107860498D01*
X159585506Y-107919463D01*
X159488815Y-107998815D01*
X159409463Y-108095506D01*
X159350498Y-108205820D01*
X159328487Y-108278380D01*
X159196632Y-108146525D01*
X158953411Y-107984010D01*
X158683158Y-107872068D01*
X158396260Y-107815000D01*
X158103740Y-107815000D01*
X157816842Y-107872068D01*
X157546589Y-107984010D01*
X157303368Y-108146525D01*
X157096525Y-108353368D01*
X156974805Y-108535534D01*
X156905178Y-108418645D01*
X156710269Y-108202412D01*
X156476920Y-108028359D01*
X156214099Y-107903175D01*
X156066890Y-107858524D01*
X155837000Y-107979845D01*
X155837000Y-109173000D01*
X155857000Y-109173000D01*
X155857000Y-109427000D01*
X155837000Y-109427000D01*
X155837000Y-109447000D01*
X155583000Y-109447000D01*
X155583000Y-109427000D01*
X155563000Y-109427000D01*
X155563000Y-109173000D01*
X155583000Y-109173000D01*
X155583000Y-107979845D01*
X155353110Y-107858524D01*
X155205901Y-107903175D01*
X154943080Y-108028359D01*
X154709731Y-108202412D01*
X154514822Y-108418645D01*
X154445195Y-108535534D01*
X154323475Y-108353368D01*
X154116632Y-108146525D01*
X153930000Y-108021822D01*
X153930000Y-107843657D01*
X166305549Y-95468110D01*
X166325568Y-95534104D01*
G36*
X153796451Y-87679253D02*
G01*
X153783001Y-87677928D01*
X153132999Y-87677928D01*
X152959745Y-87694992D01*
X152793149Y-87745528D01*
X152639613Y-87827595D01*
X152505038Y-87938038D01*
X152394595Y-88072613D01*
X152312528Y-88226149D01*
X152261992Y-88392745D01*
X152244928Y-88565999D01*
X152244928Y-89466001D01*
X152261992Y-89639255D01*
X152312528Y-89805851D01*
X152394595Y-89959387D01*
X152505038Y-90093962D01*
X152639613Y-90204405D01*
X152698001Y-90235614D01*
X152698000Y-91727198D01*
X150815648Y-93609551D01*
X150786650Y-93633349D01*
X150762852Y-93662347D01*
X150762851Y-93662348D01*
X150691676Y-93749074D01*
X150621104Y-93881104D01*
X150594668Y-93968254D01*
X150578062Y-94023001D01*
X150577648Y-94024365D01*
X150562974Y-94173350D01*
X150566651Y-94210682D01*
X150566650Y-95314049D01*
X150495906Y-95351863D01*
X150399215Y-95431215D01*
X150319863Y-95527906D01*
X150260898Y-95638220D01*
X150224588Y-95757918D01*
X150212328Y-95882400D01*
X150212328Y-96441200D01*
X150224588Y-96565682D01*
X150260898Y-96685380D01*
X150319863Y-96795694D01*
X150399215Y-96892385D01*
X150495906Y-96971737D01*
X150606220Y-97030702D01*
X150725918Y-97067012D01*
X150850400Y-97079272D01*
X151802900Y-97079272D01*
X151927382Y-97067012D01*
X152047080Y-97030702D01*
X152157394Y-96971737D01*
X152254085Y-96892385D01*
X152333437Y-96795694D01*
X152392402Y-96685380D01*
X152428712Y-96565682D01*
X152440972Y-96441200D01*
X152440972Y-95882400D01*
X156575028Y-95882400D01*
X156575028Y-96441200D01*
X156587288Y-96565682D01*
X156623598Y-96685380D01*
X156682563Y-96795694D01*
X156761915Y-96892385D01*
X156858606Y-96971737D01*
X156968920Y-97030702D01*
X157088618Y-97067012D01*
X157213100Y-97079272D01*
X158165600Y-97079272D01*
X158290082Y-97067012D01*
X158409780Y-97030702D01*
X158520094Y-96971737D01*
X158616785Y-96892385D01*
X158696137Y-96795694D01*
X158755102Y-96685380D01*
X158791412Y-96565682D01*
X158803672Y-96441200D01*
X158803672Y-95882400D01*
X158791412Y-95757918D01*
X158755102Y-95638220D01*
X158696137Y-95527906D01*
X158616785Y-95431215D01*
X158520094Y-95351863D01*
X158409780Y-95292898D01*
X158290082Y-95256588D01*
X158165600Y-95244328D01*
X157213100Y-95244328D01*
X157088618Y-95256588D01*
X156968920Y-95292898D01*
X156858606Y-95351863D01*
X156761915Y-95431215D01*
X156682563Y-95527906D01*
X156623598Y-95638220D01*
X156587288Y-95757918D01*
X156575028Y-95882400D01*
X152440972Y-95882400D01*
X152428712Y-95757918D01*
X152392402Y-95638220D01*
X152333437Y-95527906D01*
X152254085Y-95431215D01*
X152157394Y-95351863D01*
X152086650Y-95314049D01*
X152086650Y-94488151D01*
X153969004Y-92605798D01*
X153998001Y-92582001D01*
X154032470Y-92540000D01*
X154092974Y-92466277D01*
X154163546Y-92334247D01*
X154175995Y-92293206D01*
X154207003Y-92190986D01*
X154218000Y-92079333D01*
X154218000Y-92079324D01*
X154221676Y-92042001D01*
X154218000Y-92004678D01*
X154218000Y-90235614D01*
X154276387Y-90204405D01*
X154410962Y-90093962D01*
X154483000Y-90006184D01*
X154555038Y-90093962D01*
X154689613Y-90204405D01*
X154843149Y-90286472D01*
X155009745Y-90337008D01*
X155182999Y-90354072D01*
X155833001Y-90354072D01*
X156006255Y-90337008D01*
X156172851Y-90286472D01*
X156326387Y-90204405D01*
X156460962Y-90093962D01*
X156571405Y-89959387D01*
X156653472Y-89805851D01*
X156662527Y-89776000D01*
X157328473Y-89776000D01*
X157337528Y-89805851D01*
X157419595Y-89959387D01*
X157530038Y-90093962D01*
X157664613Y-90204405D01*
X157723000Y-90235614D01*
X157723001Y-93445668D01*
X157719324Y-93483000D01*
X157723001Y-93520333D01*
X157733998Y-93631986D01*
X157737499Y-93643527D01*
X157777454Y-93775246D01*
X157848026Y-93907276D01*
X157898070Y-93968254D01*
X157943000Y-94023001D01*
X157971998Y-94046799D01*
X159465000Y-95539802D01*
X159465000Y-95601939D01*
X159504774Y-95801898D01*
X159582795Y-95990256D01*
X159696063Y-96159774D01*
X159840226Y-96303937D01*
X160009744Y-96417205D01*
X160198102Y-96495226D01*
X160398061Y-96535000D01*
X160601939Y-96535000D01*
X160801898Y-96495226D01*
X160990256Y-96417205D01*
X161159774Y-96303937D01*
X161303937Y-96159774D01*
X161417205Y-95990256D01*
X161495226Y-95801898D01*
X161535000Y-95601939D01*
X161535000Y-95398061D01*
X161495226Y-95198102D01*
X161417205Y-95009744D01*
X161303937Y-94840226D01*
X161159774Y-94696063D01*
X160990256Y-94582795D01*
X160801898Y-94504774D01*
X160601939Y-94465000D01*
X160539802Y-94465000D01*
X159243000Y-93168199D01*
X159243000Y-90235614D01*
X159301387Y-90204405D01*
X159435962Y-90093962D01*
X159441342Y-90087406D01*
X159506815Y-90167185D01*
X159603506Y-90246537D01*
X159713820Y-90305502D01*
X159833518Y-90341812D01*
X159958000Y-90354072D01*
X160247250Y-90351000D01*
X160406000Y-90192250D01*
X160406000Y-89143000D01*
X160386000Y-89143000D01*
X160386000Y-88889000D01*
X160406000Y-88889000D01*
X160406000Y-88869000D01*
X160660000Y-88869000D01*
X160660000Y-88889000D01*
X160680000Y-88889000D01*
X160680000Y-89143000D01*
X160660000Y-89143000D01*
X160660000Y-90192250D01*
X160818750Y-90351000D01*
X161108000Y-90354072D01*
X161232482Y-90341812D01*
X161352180Y-90305502D01*
X161462494Y-90246537D01*
X161559185Y-90167185D01*
X161638537Y-90070494D01*
X161697502Y-89960180D01*
X161733812Y-89840482D01*
X161746072Y-89716000D01*
X161746026Y-89709737D01*
X161840226Y-89803937D01*
X162009744Y-89917205D01*
X162198102Y-89995226D01*
X162398061Y-90035000D01*
X162601939Y-90035000D01*
X162801898Y-89995226D01*
X162990256Y-89917205D01*
X163159774Y-89803937D01*
X163303937Y-89659774D01*
X163417205Y-89490256D01*
X163495226Y-89301898D01*
X163496801Y-89293979D01*
X165561626Y-91358804D01*
X165563775Y-91361423D01*
X164988998Y-91936201D01*
X164960000Y-91959999D01*
X164936202Y-91988997D01*
X164936201Y-91988998D01*
X164865026Y-92075724D01*
X164794454Y-92207754D01*
X164764180Y-92307558D01*
X164750998Y-92351014D01*
X164745511Y-92406722D01*
X164736324Y-92500000D01*
X164740001Y-92537332D01*
X164740000Y-94115198D01*
X158803672Y-100051526D01*
X158803672Y-99590800D01*
X158791412Y-99466318D01*
X158755102Y-99346620D01*
X158696137Y-99236306D01*
X158616785Y-99139615D01*
X158520094Y-99060263D01*
X158409780Y-99001298D01*
X158290082Y-98964988D01*
X158165600Y-98952728D01*
X157213100Y-98952728D01*
X157088618Y-98964988D01*
X156968920Y-99001298D01*
X156858606Y-99060263D01*
X156761915Y-99139615D01*
X156682563Y-99236306D01*
X156623598Y-99346620D01*
X156587288Y-99466318D01*
X156575028Y-99590800D01*
X156575028Y-100149600D01*
X156587288Y-100274082D01*
X156623598Y-100393780D01*
X156682563Y-100504094D01*
X156761915Y-100600785D01*
X156858606Y-100680137D01*
X156968920Y-100739102D01*
X157088618Y-100775412D01*
X157213100Y-100787672D01*
X158067526Y-100787672D01*
X150996408Y-107858791D01*
X150776260Y-107815000D01*
X150483740Y-107815000D01*
X150196842Y-107872068D01*
X149926589Y-107984010D01*
X149683368Y-108146525D01*
X149476525Y-108353368D01*
X149314010Y-108596589D01*
X149243000Y-108768023D01*
X149243000Y-100155950D01*
X150215400Y-100155950D01*
X150225091Y-100276584D01*
X150261880Y-100396136D01*
X150321285Y-100506213D01*
X150401023Y-100602586D01*
X150498031Y-100681551D01*
X150608580Y-100740074D01*
X150728423Y-100775905D01*
X150852952Y-100787667D01*
X151040900Y-100784600D01*
X151199650Y-100625850D01*
X151199650Y-99997200D01*
X151453650Y-99997200D01*
X151453650Y-100625850D01*
X151612400Y-100784600D01*
X151800348Y-100787667D01*
X151924877Y-100775905D01*
X152044720Y-100740074D01*
X152155269Y-100681551D01*
X152252277Y-100602586D01*
X152332015Y-100506213D01*
X152391420Y-100396136D01*
X152428209Y-100276584D01*
X152437900Y-100155950D01*
X152279150Y-99997200D01*
X151453650Y-99997200D01*
X151199650Y-99997200D01*
X150374150Y-99997200D01*
X150215400Y-100155950D01*
X149243000Y-100155950D01*
X149243000Y-99584450D01*
X150215400Y-99584450D01*
X150374150Y-99743200D01*
X151199650Y-99743200D01*
X151199650Y-99114550D01*
X151453650Y-99114550D01*
X151453650Y-99743200D01*
X152279150Y-99743200D01*
X152437900Y-99584450D01*
X152428209Y-99463816D01*
X152391420Y-99344264D01*
X152332015Y-99234187D01*
X152252277Y-99137814D01*
X152155269Y-99058849D01*
X152044720Y-99000326D01*
X151924877Y-98964495D01*
X151800348Y-98952733D01*
X151612400Y-98955800D01*
X151453650Y-99114550D01*
X151199650Y-99114550D01*
X151040900Y-98955800D01*
X150852952Y-98952733D01*
X150728423Y-98964495D01*
X150608580Y-99000326D01*
X150498031Y-99058849D01*
X150401023Y-99137814D01*
X150321285Y-99234187D01*
X150261880Y-99344264D01*
X150225091Y-99463816D01*
X150215400Y-99584450D01*
X149243000Y-99584450D01*
X149243000Y-90235614D01*
X149301387Y-90204405D01*
X149435962Y-90093962D01*
X149508000Y-90006184D01*
X149580038Y-90093962D01*
X149714613Y-90204405D01*
X149868149Y-90286472D01*
X150034745Y-90337008D01*
X150207999Y-90354072D01*
X150858001Y-90354072D01*
X151031255Y-90337008D01*
X151197851Y-90286472D01*
X151351387Y-90204405D01*
X151485962Y-90093962D01*
X151596405Y-89959387D01*
X151678472Y-89805851D01*
X151729008Y-89639255D01*
X151746072Y-89466001D01*
X151746072Y-88565999D01*
X151729008Y-88392745D01*
X151682936Y-88240865D01*
X152663802Y-87260000D01*
X153377199Y-87260000D01*
X153796451Y-87679253D01*
G37*
X153796451Y-87679253D02*
X153783001Y-87677928D01*
X153132999Y-87677928D01*
X152959745Y-87694992D01*
X152793149Y-87745528D01*
X152639613Y-87827595D01*
X152505038Y-87938038D01*
X152394595Y-88072613D01*
X152312528Y-88226149D01*
X152261992Y-88392745D01*
X152244928Y-88565999D01*
X152244928Y-89466001D01*
X152261992Y-89639255D01*
X152312528Y-89805851D01*
X152394595Y-89959387D01*
X152505038Y-90093962D01*
X152639613Y-90204405D01*
X152698001Y-90235614D01*
X152698000Y-91727198D01*
X150815648Y-93609551D01*
X150786650Y-93633349D01*
X150762852Y-93662347D01*
X150762851Y-93662348D01*
X150691676Y-93749074D01*
X150621104Y-93881104D01*
X150594668Y-93968254D01*
X150578062Y-94023001D01*
X150577648Y-94024365D01*
X150562974Y-94173350D01*
X150566651Y-94210682D01*
X150566650Y-95314049D01*
X150495906Y-95351863D01*
X150399215Y-95431215D01*
X150319863Y-95527906D01*
X150260898Y-95638220D01*
X150224588Y-95757918D01*
X150212328Y-95882400D01*
X150212328Y-96441200D01*
X150224588Y-96565682D01*
X150260898Y-96685380D01*
X150319863Y-96795694D01*
X150399215Y-96892385D01*
X150495906Y-96971737D01*
X150606220Y-97030702D01*
X150725918Y-97067012D01*
X150850400Y-97079272D01*
X151802900Y-97079272D01*
X151927382Y-97067012D01*
X152047080Y-97030702D01*
X152157394Y-96971737D01*
X152254085Y-96892385D01*
X152333437Y-96795694D01*
X152392402Y-96685380D01*
X152428712Y-96565682D01*
X152440972Y-96441200D01*
X152440972Y-95882400D01*
X156575028Y-95882400D01*
X156575028Y-96441200D01*
X156587288Y-96565682D01*
X156623598Y-96685380D01*
X156682563Y-96795694D01*
X156761915Y-96892385D01*
X156858606Y-96971737D01*
X156968920Y-97030702D01*
X157088618Y-97067012D01*
X157213100Y-97079272D01*
X158165600Y-97079272D01*
X158290082Y-97067012D01*
X158409780Y-97030702D01*
X158520094Y-96971737D01*
X158616785Y-96892385D01*
X158696137Y-96795694D01*
X158755102Y-96685380D01*
X158791412Y-96565682D01*
X158803672Y-96441200D01*
X158803672Y-95882400D01*
X158791412Y-95757918D01*
X158755102Y-95638220D01*
X158696137Y-95527906D01*
X158616785Y-95431215D01*
X158520094Y-95351863D01*
X158409780Y-95292898D01*
X158290082Y-95256588D01*
X158165600Y-95244328D01*
X157213100Y-95244328D01*
X157088618Y-95256588D01*
X156968920Y-95292898D01*
X156858606Y-95351863D01*
X156761915Y-95431215D01*
X156682563Y-95527906D01*
X156623598Y-95638220D01*
X156587288Y-95757918D01*
X156575028Y-95882400D01*
X152440972Y-95882400D01*
X152428712Y-95757918D01*
X152392402Y-95638220D01*
X152333437Y-95527906D01*
X152254085Y-95431215D01*
X152157394Y-95351863D01*
X152086650Y-95314049D01*
X152086650Y-94488151D01*
X153969004Y-92605798D01*
X153998001Y-92582001D01*
X154032470Y-92540000D01*
X154092974Y-92466277D01*
X154163546Y-92334247D01*
X154175995Y-92293206D01*
X154207003Y-92190986D01*
X154218000Y-92079333D01*
X154218000Y-92079324D01*
X154221676Y-92042001D01*
X154218000Y-92004678D01*
X154218000Y-90235614D01*
X154276387Y-90204405D01*
X154410962Y-90093962D01*
X154483000Y-90006184D01*
X154555038Y-90093962D01*
X154689613Y-90204405D01*
X154843149Y-90286472D01*
X155009745Y-90337008D01*
X155182999Y-90354072D01*
X155833001Y-90354072D01*
X156006255Y-90337008D01*
X156172851Y-90286472D01*
X156326387Y-90204405D01*
X156460962Y-90093962D01*
X156571405Y-89959387D01*
X156653472Y-89805851D01*
X156662527Y-89776000D01*
X157328473Y-89776000D01*
X157337528Y-89805851D01*
X157419595Y-89959387D01*
X157530038Y-90093962D01*
X157664613Y-90204405D01*
X157723000Y-90235614D01*
X157723001Y-93445668D01*
X157719324Y-93483000D01*
X157723001Y-93520333D01*
X157733998Y-93631986D01*
X157737499Y-93643527D01*
X157777454Y-93775246D01*
X157848026Y-93907276D01*
X157898070Y-93968254D01*
X157943000Y-94023001D01*
X157971998Y-94046799D01*
X159465000Y-95539802D01*
X159465000Y-95601939D01*
X159504774Y-95801898D01*
X159582795Y-95990256D01*
X159696063Y-96159774D01*
X159840226Y-96303937D01*
X160009744Y-96417205D01*
X160198102Y-96495226D01*
X160398061Y-96535000D01*
X160601939Y-96535000D01*
X160801898Y-96495226D01*
X160990256Y-96417205D01*
X161159774Y-96303937D01*
X161303937Y-96159774D01*
X161417205Y-95990256D01*
X161495226Y-95801898D01*
X161535000Y-95601939D01*
X161535000Y-95398061D01*
X161495226Y-95198102D01*
X161417205Y-95009744D01*
X161303937Y-94840226D01*
X161159774Y-94696063D01*
X160990256Y-94582795D01*
X160801898Y-94504774D01*
X160601939Y-94465000D01*
X160539802Y-94465000D01*
X159243000Y-93168199D01*
X159243000Y-90235614D01*
X159301387Y-90204405D01*
X159435962Y-90093962D01*
X159441342Y-90087406D01*
X159506815Y-90167185D01*
X159603506Y-90246537D01*
X159713820Y-90305502D01*
X159833518Y-90341812D01*
X159958000Y-90354072D01*
X160247250Y-90351000D01*
X160406000Y-90192250D01*
X160406000Y-89143000D01*
X160386000Y-89143000D01*
X160386000Y-88889000D01*
X160406000Y-88889000D01*
X160406000Y-88869000D01*
X160660000Y-88869000D01*
X160660000Y-88889000D01*
X160680000Y-88889000D01*
X160680000Y-89143000D01*
X160660000Y-89143000D01*
X160660000Y-90192250D01*
X160818750Y-90351000D01*
X161108000Y-90354072D01*
X161232482Y-90341812D01*
X161352180Y-90305502D01*
X161462494Y-90246537D01*
X161559185Y-90167185D01*
X161638537Y-90070494D01*
X161697502Y-89960180D01*
X161733812Y-89840482D01*
X161746072Y-89716000D01*
X161746026Y-89709737D01*
X161840226Y-89803937D01*
X162009744Y-89917205D01*
X162198102Y-89995226D01*
X162398061Y-90035000D01*
X162601939Y-90035000D01*
X162801898Y-89995226D01*
X162990256Y-89917205D01*
X163159774Y-89803937D01*
X163303937Y-89659774D01*
X163417205Y-89490256D01*
X163495226Y-89301898D01*
X163496801Y-89293979D01*
X165561626Y-91358804D01*
X165563775Y-91361423D01*
X164988998Y-91936201D01*
X164960000Y-91959999D01*
X164936202Y-91988997D01*
X164936201Y-91988998D01*
X164865026Y-92075724D01*
X164794454Y-92207754D01*
X164764180Y-92307558D01*
X164750998Y-92351014D01*
X164745511Y-92406722D01*
X164736324Y-92500000D01*
X164740001Y-92537332D01*
X164740000Y-94115198D01*
X158803672Y-100051526D01*
X158803672Y-99590800D01*
X158791412Y-99466318D01*
X158755102Y-99346620D01*
X158696137Y-99236306D01*
X158616785Y-99139615D01*
X158520094Y-99060263D01*
X158409780Y-99001298D01*
X158290082Y-98964988D01*
X158165600Y-98952728D01*
X157213100Y-98952728D01*
X157088618Y-98964988D01*
X156968920Y-99001298D01*
X156858606Y-99060263D01*
X156761915Y-99139615D01*
X156682563Y-99236306D01*
X156623598Y-99346620D01*
X156587288Y-99466318D01*
X156575028Y-99590800D01*
X156575028Y-100149600D01*
X156587288Y-100274082D01*
X156623598Y-100393780D01*
X156682563Y-100504094D01*
X156761915Y-100600785D01*
X156858606Y-100680137D01*
X156968920Y-100739102D01*
X157088618Y-100775412D01*
X157213100Y-100787672D01*
X158067526Y-100787672D01*
X150996408Y-107858791D01*
X150776260Y-107815000D01*
X150483740Y-107815000D01*
X150196842Y-107872068D01*
X149926589Y-107984010D01*
X149683368Y-108146525D01*
X149476525Y-108353368D01*
X149314010Y-108596589D01*
X149243000Y-108768023D01*
X149243000Y-100155950D01*
X150215400Y-100155950D01*
X150225091Y-100276584D01*
X150261880Y-100396136D01*
X150321285Y-100506213D01*
X150401023Y-100602586D01*
X150498031Y-100681551D01*
X150608580Y-100740074D01*
X150728423Y-100775905D01*
X150852952Y-100787667D01*
X151040900Y-100784600D01*
X151199650Y-100625850D01*
X151199650Y-99997200D01*
X151453650Y-99997200D01*
X151453650Y-100625850D01*
X151612400Y-100784600D01*
X151800348Y-100787667D01*
X151924877Y-100775905D01*
X152044720Y-100740074D01*
X152155269Y-100681551D01*
X152252277Y-100602586D01*
X152332015Y-100506213D01*
X152391420Y-100396136D01*
X152428209Y-100276584D01*
X152437900Y-100155950D01*
X152279150Y-99997200D01*
X151453650Y-99997200D01*
X151199650Y-99997200D01*
X150374150Y-99997200D01*
X150215400Y-100155950D01*
X149243000Y-100155950D01*
X149243000Y-99584450D01*
X150215400Y-99584450D01*
X150374150Y-99743200D01*
X151199650Y-99743200D01*
X151199650Y-99114550D01*
X151453650Y-99114550D01*
X151453650Y-99743200D01*
X152279150Y-99743200D01*
X152437900Y-99584450D01*
X152428209Y-99463816D01*
X152391420Y-99344264D01*
X152332015Y-99234187D01*
X152252277Y-99137814D01*
X152155269Y-99058849D01*
X152044720Y-99000326D01*
X151924877Y-98964495D01*
X151800348Y-98952733D01*
X151612400Y-98955800D01*
X151453650Y-99114550D01*
X151199650Y-99114550D01*
X151040900Y-98955800D01*
X150852952Y-98952733D01*
X150728423Y-98964495D01*
X150608580Y-99000326D01*
X150498031Y-99058849D01*
X150401023Y-99137814D01*
X150321285Y-99234187D01*
X150261880Y-99344264D01*
X150225091Y-99463816D01*
X150215400Y-99584450D01*
X149243000Y-99584450D01*
X149243000Y-90235614D01*
X149301387Y-90204405D01*
X149435962Y-90093962D01*
X149508000Y-90006184D01*
X149580038Y-90093962D01*
X149714613Y-90204405D01*
X149868149Y-90286472D01*
X150034745Y-90337008D01*
X150207999Y-90354072D01*
X150858001Y-90354072D01*
X151031255Y-90337008D01*
X151197851Y-90286472D01*
X151351387Y-90204405D01*
X151485962Y-90093962D01*
X151596405Y-89959387D01*
X151678472Y-89805851D01*
X151729008Y-89639255D01*
X151746072Y-89466001D01*
X151746072Y-88565999D01*
X151729008Y-88392745D01*
X151682936Y-88240865D01*
X152663802Y-87260000D01*
X153377199Y-87260000D01*
X153796451Y-87679253D01*
G36*
X174788812Y-99103372D02*
G01*
X174913294Y-99115632D01*
X174964407Y-99110598D01*
X175143267Y-99110598D01*
X176071397Y-100038728D01*
X175982852Y-100129173D01*
X175982852Y-100353679D01*
X176724784Y-101095611D01*
X176738927Y-101081469D01*
X176918532Y-101261074D01*
X176904389Y-101275216D01*
X177646321Y-102017148D01*
X177870827Y-102017148D01*
X177961272Y-101928604D01*
X181067617Y-105034949D01*
X178602195Y-105034949D01*
X178801898Y-104995226D01*
X178990256Y-104917205D01*
X179159774Y-104803937D01*
X179303937Y-104659774D01*
X179417205Y-104490256D01*
X179495226Y-104301898D01*
X179535000Y-104101939D01*
X179535000Y-103898061D01*
X179495226Y-103698102D01*
X179417205Y-103509744D01*
X179303937Y-103340226D01*
X179159774Y-103196063D01*
X178990256Y-103082795D01*
X178801898Y-103004774D01*
X178601939Y-102965000D01*
X178398061Y-102965000D01*
X178198102Y-103004774D01*
X178009744Y-103082795D01*
X177840226Y-103196063D01*
X177796289Y-103240000D01*
X176865234Y-103240000D01*
X176675014Y-103049780D01*
X176694232Y-102986426D01*
X176711296Y-102813172D01*
X176710465Y-102804733D01*
X176813172Y-102814849D01*
X176937654Y-102802589D01*
X177057352Y-102766279D01*
X177167666Y-102707315D01*
X177264357Y-102627962D01*
X177466716Y-102421259D01*
X177466716Y-102196753D01*
X176724784Y-101454821D01*
X176710642Y-101468964D01*
X176531037Y-101289359D01*
X176545179Y-101275216D01*
X175803247Y-100533284D01*
X175578741Y-100533284D01*
X175372038Y-100735643D01*
X175292685Y-100832334D01*
X175233721Y-100942648D01*
X175197411Y-101062346D01*
X175185151Y-101186828D01*
X175195267Y-101289535D01*
X175186828Y-101288704D01*
X175013574Y-101305768D01*
X174950220Y-101324986D01*
X174200674Y-100575441D01*
X174200674Y-100086734D01*
X174233109Y-100060115D01*
X174592319Y-99700905D01*
X174671671Y-99604214D01*
X174681711Y-99585431D01*
X174694072Y-99579061D01*
X174774170Y-99514709D01*
X174774170Y-99300853D01*
X174779206Y-99249720D01*
X174766946Y-99125238D01*
X174757425Y-99093851D01*
X174788812Y-99103372D01*
G37*
X174788812Y-99103372D02*
X174913294Y-99115632D01*
X174964407Y-99110598D01*
X175143267Y-99110598D01*
X176071397Y-100038728D01*
X175982852Y-100129173D01*
X175982852Y-100353679D01*
X176724784Y-101095611D01*
X176738927Y-101081469D01*
X176918532Y-101261074D01*
X176904389Y-101275216D01*
X177646321Y-102017148D01*
X177870827Y-102017148D01*
X177961272Y-101928604D01*
X181067617Y-105034949D01*
X178602195Y-105034949D01*
X178801898Y-104995226D01*
X178990256Y-104917205D01*
X179159774Y-104803937D01*
X179303937Y-104659774D01*
X179417205Y-104490256D01*
X179495226Y-104301898D01*
X179535000Y-104101939D01*
X179535000Y-103898061D01*
X179495226Y-103698102D01*
X179417205Y-103509744D01*
X179303937Y-103340226D01*
X179159774Y-103196063D01*
X178990256Y-103082795D01*
X178801898Y-103004774D01*
X178601939Y-102965000D01*
X178398061Y-102965000D01*
X178198102Y-103004774D01*
X178009744Y-103082795D01*
X177840226Y-103196063D01*
X177796289Y-103240000D01*
X176865234Y-103240000D01*
X176675014Y-103049780D01*
X176694232Y-102986426D01*
X176711296Y-102813172D01*
X176710465Y-102804733D01*
X176813172Y-102814849D01*
X176937654Y-102802589D01*
X177057352Y-102766279D01*
X177167666Y-102707315D01*
X177264357Y-102627962D01*
X177466716Y-102421259D01*
X177466716Y-102196753D01*
X176724784Y-101454821D01*
X176710642Y-101468964D01*
X176531037Y-101289359D01*
X176545179Y-101275216D01*
X175803247Y-100533284D01*
X175578741Y-100533284D01*
X175372038Y-100735643D01*
X175292685Y-100832334D01*
X175233721Y-100942648D01*
X175197411Y-101062346D01*
X175185151Y-101186828D01*
X175195267Y-101289535D01*
X175186828Y-101288704D01*
X175013574Y-101305768D01*
X174950220Y-101324986D01*
X174200674Y-100575441D01*
X174200674Y-100086734D01*
X174233109Y-100060115D01*
X174592319Y-99700905D01*
X174671671Y-99604214D01*
X174681711Y-99585431D01*
X174694072Y-99579061D01*
X174774170Y-99514709D01*
X174774170Y-99300853D01*
X174779206Y-99249720D01*
X174766946Y-99125238D01*
X174757425Y-99093851D01*
X174788812Y-99103372D01*
G36*
X172648239Y-90275175D02*
G01*
X172744930Y-90354527D01*
X172764762Y-90365127D01*
X172775362Y-90384959D01*
X172854714Y-90481650D01*
X173213924Y-90840860D01*
X173310615Y-90920212D01*
X173330447Y-90930812D01*
X173341047Y-90950644D01*
X173420399Y-91047335D01*
X173779609Y-91406545D01*
X173876300Y-91485897D01*
X173896132Y-91496498D01*
X173906733Y-91516330D01*
X173986085Y-91613021D01*
X174345295Y-91972231D01*
X174441986Y-92051583D01*
X174461817Y-92062183D01*
X174472417Y-92082014D01*
X174551769Y-92178705D01*
X174910979Y-92537915D01*
X175007670Y-92617267D01*
X175027502Y-92627868D01*
X175038103Y-92647700D01*
X175117455Y-92744391D01*
X175476665Y-93103601D01*
X175573356Y-93182953D01*
X175593188Y-93193554D01*
X175603789Y-93213386D01*
X175683141Y-93310077D01*
X176042351Y-93669287D01*
X176139042Y-93748639D01*
X176158873Y-93759239D01*
X176169473Y-93779070D01*
X176248825Y-93875761D01*
X176389064Y-94016000D01*
X176248825Y-94156239D01*
X176169473Y-94252930D01*
X176158873Y-94272762D01*
X176139041Y-94283362D01*
X176042350Y-94362714D01*
X175683140Y-94721924D01*
X175603788Y-94818615D01*
X175593188Y-94838447D01*
X175573356Y-94849047D01*
X175476665Y-94928399D01*
X175117455Y-95287609D01*
X175038103Y-95384300D01*
X175027502Y-95404132D01*
X175007670Y-95414733D01*
X174910979Y-95494085D01*
X174551769Y-95853295D01*
X174472417Y-95949986D01*
X174461817Y-95969817D01*
X174441986Y-95980417D01*
X174345295Y-96059769D01*
X173986085Y-96418979D01*
X173906733Y-96515670D01*
X173896132Y-96535502D01*
X173876300Y-96546103D01*
X173779609Y-96625455D01*
X173420399Y-96984665D01*
X173341047Y-97081356D01*
X173331006Y-97100141D01*
X173318644Y-97106511D01*
X173242493Y-97167692D01*
X172260000Y-96185199D01*
X172260000Y-94429853D01*
X172263676Y-94392530D01*
X172260000Y-94355207D01*
X172260000Y-94355197D01*
X172249003Y-94243544D01*
X172205546Y-94100283D01*
X172134974Y-93968254D01*
X172040001Y-93852529D01*
X172011004Y-93828732D01*
X170412604Y-92230332D01*
X170464231Y-92178705D01*
X170543583Y-92082014D01*
X170553623Y-92063231D01*
X170565984Y-92056861D01*
X170646082Y-91992509D01*
X170646082Y-91778653D01*
X170651118Y-91727520D01*
X170638858Y-91603038D01*
X170629337Y-91571651D01*
X170660724Y-91581172D01*
X170785206Y-91593432D01*
X170836319Y-91588398D01*
X171050193Y-91588398D01*
X171114545Y-91508300D01*
X171120915Y-91495938D01*
X171139700Y-91485897D01*
X171236391Y-91406545D01*
X171595601Y-91047335D01*
X171674953Y-90950644D01*
X171685554Y-90930812D01*
X171705386Y-90920211D01*
X171802077Y-90840859D01*
X172161287Y-90481649D01*
X172240639Y-90384958D01*
X172251239Y-90365127D01*
X172271070Y-90354527D01*
X172367761Y-90275175D01*
X172508000Y-90134936D01*
X172648239Y-90275175D01*
G37*
X172648239Y-90275175D02*
X172744930Y-90354527D01*
X172764762Y-90365127D01*
X172775362Y-90384959D01*
X172854714Y-90481650D01*
X173213924Y-90840860D01*
X173310615Y-90920212D01*
X173330447Y-90930812D01*
X173341047Y-90950644D01*
X173420399Y-91047335D01*
X173779609Y-91406545D01*
X173876300Y-91485897D01*
X173896132Y-91496498D01*
X173906733Y-91516330D01*
X173986085Y-91613021D01*
X174345295Y-91972231D01*
X174441986Y-92051583D01*
X174461817Y-92062183D01*
X174472417Y-92082014D01*
X174551769Y-92178705D01*
X174910979Y-92537915D01*
X175007670Y-92617267D01*
X175027502Y-92627868D01*
X175038103Y-92647700D01*
X175117455Y-92744391D01*
X175476665Y-93103601D01*
X175573356Y-93182953D01*
X175593188Y-93193554D01*
X175603789Y-93213386D01*
X175683141Y-93310077D01*
X176042351Y-93669287D01*
X176139042Y-93748639D01*
X176158873Y-93759239D01*
X176169473Y-93779070D01*
X176248825Y-93875761D01*
X176389064Y-94016000D01*
X176248825Y-94156239D01*
X176169473Y-94252930D01*
X176158873Y-94272762D01*
X176139041Y-94283362D01*
X176042350Y-94362714D01*
X175683140Y-94721924D01*
X175603788Y-94818615D01*
X175593188Y-94838447D01*
X175573356Y-94849047D01*
X175476665Y-94928399D01*
X175117455Y-95287609D01*
X175038103Y-95384300D01*
X175027502Y-95404132D01*
X175007670Y-95414733D01*
X174910979Y-95494085D01*
X174551769Y-95853295D01*
X174472417Y-95949986D01*
X174461817Y-95969817D01*
X174441986Y-95980417D01*
X174345295Y-96059769D01*
X173986085Y-96418979D01*
X173906733Y-96515670D01*
X173896132Y-96535502D01*
X173876300Y-96546103D01*
X173779609Y-96625455D01*
X173420399Y-96984665D01*
X173341047Y-97081356D01*
X173331006Y-97100141D01*
X173318644Y-97106511D01*
X173242493Y-97167692D01*
X172260000Y-96185199D01*
X172260000Y-94429853D01*
X172263676Y-94392530D01*
X172260000Y-94355207D01*
X172260000Y-94355197D01*
X172249003Y-94243544D01*
X172205546Y-94100283D01*
X172134974Y-93968254D01*
X172040001Y-93852529D01*
X172011004Y-93828732D01*
X170412604Y-92230332D01*
X170464231Y-92178705D01*
X170543583Y-92082014D01*
X170553623Y-92063231D01*
X170565984Y-92056861D01*
X170646082Y-91992509D01*
X170646082Y-91778653D01*
X170651118Y-91727520D01*
X170638858Y-91603038D01*
X170629337Y-91571651D01*
X170660724Y-91581172D01*
X170785206Y-91593432D01*
X170836319Y-91588398D01*
X171050193Y-91588398D01*
X171114545Y-91508300D01*
X171120915Y-91495938D01*
X171139700Y-91485897D01*
X171236391Y-91406545D01*
X171595601Y-91047335D01*
X171674953Y-90950644D01*
X171685554Y-90930812D01*
X171705386Y-90920211D01*
X171802077Y-90840859D01*
X172161287Y-90481649D01*
X172240639Y-90384958D01*
X172251239Y-90365127D01*
X172271070Y-90354527D01*
X172367761Y-90275175D01*
X172508000Y-90134936D01*
X172648239Y-90275175D01*
M02*
