M48
; DRILL file {KiCad (5.1.5-0-10_14)} date Friday, November 19, 2021 at 11:56:42 AM
; FORMAT={-:-/ absolute / inch / decimal}
; #@! TF.CreationDate,2021-11-19T11:56:42-05:00
; #@! TF.GenerationSoftware,Kicad,Pcbnew,(5.1.5-0-10_14)
; #@! TF.FileFunction,Plated,1,2,PTH
FMAT,2
INCH
T1C0.0157
T2C0.0394
%
G90
G05
T1
X5.9055Y-3.3071
X6.0236Y-4.0551
X6.1024Y-3.7205
X6.2008Y-3.2874
X6.3189Y-3.7598
X6.3189Y-4.0748
X6.3976Y-3.5039
X6.4173Y-3.7598
X6.437Y-3.3268
X6.437Y-4.0748
X6.4961Y-3.8386
X6.6732Y-3.3465
X6.7494Y-3.6246
X6.8701Y-3.7205
X7.0276Y-4.0945
X7.185Y-3.937
X7.3425Y-3.8386
X7.5197Y-3.6417
X7.6969Y-4.0748
X7.8543Y-3.4055
T2
X6.5354Y-4.3
X6.6354Y-4.3
X6.7354Y-4.3
X6.8354Y-4.3
X6.9354Y-4.3
X7.0354Y-4.3
X7.1354Y-4.3
X7.2354Y-4.3
X7.3354Y-4.3
X7.4354Y-4.3
X7.5354Y-4.3
X7.6354Y-4.3
X7.7354Y-4.3
X7.8354Y-4.3
X6.5333Y-3.2
X6.6333Y-3.2
X6.7333Y-3.2
X6.8333Y-3.2
X6.9333Y-3.2
X7.0333Y-3.2
X7.1333Y-3.2
X7.2333Y-3.2
X7.3333Y-3.2
X7.4333Y-3.2
X7.5333Y-3.2
X7.6333Y-3.2
X7.7333Y-3.2
X7.8333Y-3.2
X5.9303Y-4.3031
X6.0303Y-4.3031
X6.1303Y-4.3031
X6.2303Y-4.3031
X6.3303Y-4.3031
T0
M30
